<svg xmlns="http://www.w3.org/2000/svg" width="1571.432" height="806.286" viewBox="0 0 1571.432 806.286">
  <g id="그룹_5588" data-name="그룹 5588" transform="translate(10655.023 5617.31)">
    <path id="패스_47368" data-name="패스 47368" d="M-20.671-8.887c2.679,0,4.328.664,4.328,1.969s-1.649,1.969-4.328,1.969c-2.634,0-4.305-.664-4.305-1.969S-23.3-8.887-20.671-8.887Zm0,6.344c4.557,0,7.58-1.695,7.58-4.374,0-2.657-3.023-4.374-7.58-4.374-4.534,0-7.58,1.718-7.58,4.374C-28.251-4.238-25.206-2.544-20.671-2.544Zm-4.237,5.267h-3.069V9.044h14.794V6.64H-24.908ZM-30.2-1.444V.96h8.176V4.579h3.092V.96H-11.1v-2.4ZM3.283-4.032H4.841V1.51H7.7V-11.681H4.841v5.2H3.283v-4.809H.466V.846H3.283Zm-3.389-5.5H-3.77v-1.924H-6.747v1.924h-3.641v2.336H-.106ZM-7.091-2.841c0-.985.756-1.511,1.878-1.511s1.855.527,1.855,1.511-.733,1.534-1.855,1.534S-7.091-1.857-7.091-2.841Zm6.412,0c0-2.176-1.878-3.664-4.534-3.664-2.679,0-4.557,1.489-4.557,3.664S-7.892.846-5.213.846C-2.556.846-.679-.666-.679-2.841ZM.558,7.166c-2.817,0-4.237-.481-4.237-1.58s1.42-1.58,4.237-1.58,4.237.481,4.237,1.58S3.375,7.166.558,7.166Zm0-5.428c-4.534,0-7.26,1.4-7.26,3.847S-3.976,9.411.558,9.411s7.26-1.374,7.26-3.824S5.092,1.739.558,1.739ZM13.245-6.895h5.061V-9.3H10.268V4.716h1.443a37.209,37.209,0,0,0,7.534-.55l-.252-2.473a31.6,31.6,0,0,1-5.748.55Zm7.283,2.908H16.864v2.45h3.664V8.472h2.817V-11.292H20.528ZM24.9-11.7V9.388h2.863V-11.7Zm19.122,0V9.457h3.023V-11.7Zm-8.313,1.489c-3.183,0-5.542,2.886-5.542,7.512,0,4.649,2.359,7.557,5.542,7.557S41.253,1.945,41.253-2.7C41.253-7.33,38.894-10.215,35.711-10.215Zm0,2.725c1.557,0,2.634,1.672,2.634,4.786,0,3.137-1.076,4.809-2.634,4.809S33.077.434,33.077-2.7C33.077-5.818,34.154-7.49,35.711-7.49ZM53.459-1.7h6.046V-4.055H53.459V-7.49h6.756V-9.918H50.459V4.67h1.718a56.734,56.734,0,0,0,9.3-.55L61.2,1.693a49.471,49.471,0,0,1-7.741.55ZM64.177-11.7v7.443H60.559v2.428h3.618V9.457H67.2V-11.7Z" transform="translate(-10216.164 -5580.729)" fill="#383838"/>
    <line id="선_166" data-name="선 166" x2="461.108" transform="translate(-10493.532 -5556.765)" fill="none" stroke="#57a580" stroke-linecap="round" stroke-width="5"/>
    <line id="선_165" data-name="선 165" y1="213.476" transform="translate(-10032.425 -5555.341)" fill="none" stroke="#57a580" stroke-linecap="round" stroke-width="5"/>
    <line id="선_161" data-name="선 161" x2="919.908" transform="translate(-10492.82 -5156.143)" fill="none" stroke="#4e4e4e" stroke-linecap="round" stroke-width="5"/>
    <line id="선_164" data-name="선 164" x2="831.132" transform="translate(-10493.532 -5339.02)" fill="none" stroke="#57a580" stroke-linecap="round" stroke-width="5"/>
    <line id="선_160" data-name="선 160" y1="243.559" transform="translate(-9568.47 -5234.614)" fill="none" stroke="#4e4e4e" stroke-linecap="round" stroke-width="5"/>
    <line id="선_162" data-name="선 162" y1="288.192" transform="translate(-9241.142 -5279.247)" fill="none" stroke="#4e4e4e" stroke-linecap="round" stroke-width="5"/>
    <line id="선_163" data-name="선 163" y1="288.192" transform="translate(-9538.583 -5279.247)" fill="none" stroke="#57a580" stroke-linecap="round" stroke-width="5"/>
    <path id="패스_47365" data-name="패스 47365" d="M-17.848-9.937v2.153H-29.825V-9.937h4.489v-1.809h3.023v1.809ZM-26.115-3.96a1,1,0,0,0,.607.916,3.646,3.646,0,0,0,1.683.321q2.267,0,2.267-1.237,0-1.26-2.267-1.26Q-26.115-5.219-26.115-3.96Zm8.794,3.733.229,2.061a75.13,75.13,0,0,1-12.939.939L-30.352.46q3.206,0,5.015-.069V-.822A5.236,5.236,0,0,1-28-1.9a2.591,2.591,0,0,1-.973-2.061,2.708,2.708,0,0,1,1.4-2.393,6.977,6.977,0,0,1,3.756-.882,6.927,6.927,0,0,1,3.733.882A2.708,2.708,0,0,1-18.7-3.96a2.6,2.6,0,0,1-.973,2.05A5.15,5.15,0,0,1-22.314-.822V.254Q-19.268.048-17.321-.227ZM-24.4,3.781V6.666h11.725v2.4H-27.421V3.781Zm11.015-8.542h2.657v2.473h-2.657v7.1h-3.023V-11.677h3.023ZM4.435-5.906H.061Q-1.886-.96-8.848.987l-1.168-2.382Q-3.123-3.227-2.5-7.807H-8.871v-2.428H.793A13.27,13.27,0,0,1,.656-8.311H4.435v-3.344H7.458V.483H4.435V-1.532H-.214V-3.96H4.435Zm-7,12.4A7.611,7.611,0,0,0,.5,6.987a7.525,7.525,0,0,0,3.046-.492A1.567,1.567,0,0,0,4.618,5.04,1.567,1.567,0,0,0,3.541,3.586,7.525,7.525,0,0,0,.5,3.094a7.611,7.611,0,0,0-3.057.492A1.568,1.568,0,0,0-3.649,5.04,1.568,1.568,0,0,0-2.562,6.495ZM.5.758A10.011,10.011,0,0,1,5.66,1.914a3.492,3.492,0,0,1,0,6.252A10.011,10.011,0,0,1,.5,9.323,10.063,10.063,0,0,1-4.691,8.166,3.513,3.513,0,0,1-6.627,5.04,3.513,3.513,0,0,1-4.691,1.914,10.063,10.063,0,0,1,.5.758ZM13.343-6.868V2.269a33.536,33.536,0,0,0,5.748-.55l.252,2.473a41.259,41.259,0,0,1-7.534.55H10.366V-9.273H18.4v2.4ZM20.626-3.96v-7.305h2.817V8.5H20.626V-1.509H16.961V-3.96ZM25-11.677h2.863V9.415H25Zm19.122,0h3.023V9.483H44.122Zm-12.3,3.538a4.8,4.8,0,0,1,3.985-2.05,4.8,4.8,0,0,1,3.985,2.05,8.8,8.8,0,0,1,1.557,5.462,8.9,8.9,0,0,1-1.557,5.5,4.882,4.882,0,0,1-7.97,0,8.9,8.9,0,0,1-1.557-5.5A8.8,8.8,0,0,1,31.824-8.139Zm5.9,1.924a2.159,2.159,0,0,0-1.912-1.248A2.159,2.159,0,0,0,33.9-6.215a7.138,7.138,0,0,0-.721,3.538A7.206,7.206,0,0,0,33.9.872a2.157,2.157,0,0,0,1.912,1.26A2.157,2.157,0,0,0,37.721.872a7.206,7.206,0,0,0,.721-3.55A7.138,7.138,0,0,0,37.721-6.215ZM53.557-1.67V2.269A54.688,54.688,0,0,0,61.3,1.72l.275,2.428a62.309,62.309,0,0,1-9.3.55H50.557V-9.891h9.756v2.428H53.557v3.435H59.6V-1.67ZM64.275-11.677H67.3V9.483H64.275V-1.807H60.657V-4.234h3.618Z" transform="translate(-10450.734 -5185.114)" fill="#383838"/>
    <path id="패스_47366" data-name="패스 47366" d="M-12.782-5.018h2V1.461H-7.3V-14.2H-10.78v6.229h-2v-5.756H-16.2V.655h3.42Zm-3.448,2.2A7.18,7.18,0,0,1-20.986-9.69v-2.975h-3.532V-9.69a8.066,8.066,0,0,1-4.978,7.619L-27.548.766A9.121,9.121,0,0,0-22.682-4.24a8.455,8.455,0,0,0,4.5,4.2Zm.25,11.485c-3.337,0-5.172-.667-5.172-2.03S-19.317,4.6-15.98,4.6c3.281,0,5.117.667,5.117,2.03S-12.7,8.663-15.98,8.663Zm0-6.813c-5.395,0-8.843,1.808-8.843,4.783,0,3,3.448,4.811,8.843,4.811,5.367,0,8.787-1.808,8.787-4.811C-7.193,3.658-10.613,1.85-15.98,1.85ZM6.628-10.858c3.5,0,5.506.751,5.506,2.2,0,1.5-2,2.225-5.506,2.225-3.476,0-5.478-.723-5.478-2.225C1.15-10.107,3.152-10.858,6.628-10.858Zm0,7.258c5.645,0,9.288-1.919,9.288-5.061,0-3.087-3.643-5.006-9.288-5.006-5.617,0-9.26,1.919-9.26,5.006C-2.632-5.519,1.011-3.6,6.628-3.6ZM9.047,3.018H4.181V.655H9.047ZM18.2.655v-2.92H-4.94V.655H.51V3.018H-2.382V5.883H11.745v5.562h3.671V3.018H12.69V.655ZM40.526-14.2h-3.7V4.325h3.7ZM35.215-1.653c-4.143-1.363-6.007-4.5-6.007-7.508v-.306H34.27V-12.36H20.338v2.892h5.145v.306a8.187,8.187,0,0,1-6.118,7.9L21.227,1.6A10.007,10.007,0,0,0,27.4-3.85a9.817,9.817,0,0,0,5.951,5.006ZM27.151,8.052V2.657H23.48v8.315H41.166V8.052ZM57.935-3.572a46.4,46.4,0,0,1-9.872.779V-9.245h7.814v-2.92H44.42V.154h2.141C52.234.154,55.154.015,58.3-.68ZM50.76,2.379H47.089v8.593H64.525V8.052H50.76ZM63.607-7.215V-14.2H59.937V4.325h3.671V-4.212H67v-3ZM-14.061,20.968h-5.7V18.354h-3.7v2.614h-5.673v2.864h15.072Zm-10.317,8.287c0-1.251,1.14-1.919,2.781-1.919s2.781.667,2.781,1.919-1.14,1.919-2.781,1.919S-24.378,30.506-24.378,29.255Zm9.066,0c0-2.725-2.586-4.588-6.285-4.588s-6.285,1.863-6.285,4.588,2.586,4.561,6.285,4.561S-15.313,31.98-15.313,29.255Zm-2,12.152c-3.226,0-4.95-.584-4.95-1.808,0-1.251,1.724-1.808,4.95-1.808s4.95.556,4.95,1.808C-12.365,40.823-14.089,41.407-17.315,41.407Zm0-6.368c-5.284,0-8.593,1.7-8.593,4.561,0,2.836,3.309,4.533,8.593,4.533s8.593-1.7,8.593-4.533C-8.722,36.735-12.031,35.039-17.315,35.039Zm8.343-9.983V18.549h-3.671V34.761h3.671v-6.7H-5.58v-3ZM14.72,28.615a24.082,24.082,0,0,0,.723-6.841V19.661H-2.3v2.892H11.773a21.387,21.387,0,0,1-.667,5.7ZM6.489,41.379c-3.448,0-5.423-.7-5.423-2.058,0-1.39,1.974-2.086,5.423-2.086,3.476,0,5.45.7,5.45,2.086C11.939,40.684,9.965,41.379,6.489,41.379Zm0-6.9c-5.506,0-9.066,1.835-9.066,4.839,0,2.975,3.559,4.811,9.066,4.811,5.534,0,9.093-1.835,9.093-4.811C15.582,36.318,12.023,34.483,6.489,34.483Zm.834-4.5V25.5H3.653v4.477H-4.885V32.87H18.169V29.978Zm21.329-.667H23.619V26.14h5.033Zm3.615-9.149H28.652v3.17H23.619v-3.17H20V32.175H32.267ZM31.016,41.324c-3.254,0-5.006-.7-5.006-2.141s1.752-2.141,5.006-2.141c3.281,0,5.033.7,5.033,2.141S34.3,41.324,31.016,41.324Zm0-7.147c-5.311,0-8.648,1.863-8.648,5.006,0,3.115,3.337,5.006,8.648,5.006,5.339,0,8.676-1.891,8.676-5.006C39.692,36.04,36.355,34.177,31.016,34.177Zm8.4-9.677V18.549H35.743V33.621h3.671V27.5h3.393v-3Zm12.152-.445h3.726V21.079h-11.4v2.975h4.116v1.251c0,4.394-1.335,8.982-5.061,11.346l2.169,2.7a11.889,11.889,0,0,0,4.7-6.869,10.5,10.5,0,0,0,4.561,6.257l2.141-2.67c-3.7-2.169-4.95-6.479-4.95-10.762Zm5.2,3.2H53.513v2.975h3.254V42.964h3.42V18.938h-3.42Zm5.172-8.76V44.1h3.476V18.493Z" transform="translate(-10454.672 -5520.266)" fill="#383838"/>
    <path id="패스_47367" data-name="패스 47367" d="M-17.261-7.124h3.069v-2.45h-9.389v2.45h3.389v1.031c0,3.618-1.1,7.4-4.168,9.344l1.786,2.221A9.791,9.791,0,0,0-18.7-.185a8.648,8.648,0,0,0,3.756,5.153l1.763-2.2C-16.23.983-17.261-2.566-17.261-6.093Zm4.282,2.634h-2.679v2.45h2.679V8.449h2.817V-11.338h-2.817Zm4.26-7.214V9.388h2.863V-11.7ZM1.747,2.105C.213,2.105-.818.434-.818-2.7-.818-5.818.213-7.49,1.747-7.49,3.3-7.49,4.335-5.818,4.335-2.7,4.335.434,3.3,2.105,1.747,2.105ZM10.656-11.7v7.6H7.129c-.412-3.8-2.542-6.115-5.382-6.115C-1.39-10.215-3.7-7.33-3.7-2.7c0,4.649,2.313,7.557,5.45,7.557,2.931,0,5.084-2.473,5.4-6.5h3.5V9.457h3.023V-11.7ZM27.35-6.6v2.45h3.16V.869h3.023v-12.55H30.511V-6.6Zm1.26,4.534a6.468,6.468,0,0,1-4.763-5.931h4.1v-2.428H16.61v2.428h4.145a7.025,7.025,0,0,1-4.97,6.481L17.32.869A8.237,8.237,0,0,0,22.358-3.8,7.971,7.971,0,0,0,27.144.3Zm-2.2,9.206c-2.771,0-4.214-.573-4.214-1.763s1.443-1.763,4.214-1.763c2.748,0,4.191.573,4.191,1.763S29.16,7.144,26.412,7.144Zm0-5.817c-4.489,0-7.237,1.489-7.237,4.053s2.748,4.053,7.237,4.053c4.466,0,7.214-1.489,7.214-4.053S30.877,1.327,26.412,1.327ZM40.839-4.719h9.023v2.954H40.839ZM46.862,4.51V.64h5.977V-10.376H49.862V-7.1H40.839v-3.275h-3V.64h6V4.51H35.824V6.96h19.1V4.51Z" transform="translate(-10212.453 -5528.072)" fill="#383838"/>
    <path id="패스_47370" data-name="패스 47370" d="M-17.261-7.124h3.069v-2.45h-9.389v2.45h3.389v1.031c0,3.618-1.1,7.4-4.168,9.344l1.786,2.221A9.791,9.791,0,0,0-18.7-.185a8.648,8.648,0,0,0,3.756,5.153l1.763-2.2C-16.23.983-17.261-2.566-17.261-6.093Zm4.282,2.634h-2.679v2.45h2.679V8.449h2.817V-11.338h-2.817Zm4.26-7.214V9.388h2.863V-11.7ZM1.747,2.105C.213,2.105-.818.434-.818-2.7-.818-5.818.213-7.49,1.747-7.49,3.3-7.49,4.335-5.818,4.335-2.7,4.335.434,3.3,2.105,1.747,2.105ZM10.656-11.7v7.6H7.129c-.412-3.8-2.542-6.115-5.382-6.115C-1.39-10.215-3.7-7.33-3.7-2.7c0,4.649,2.313,7.557,5.45,7.557,2.931,0,5.084-2.473,5.4-6.5h3.5V9.457h3.023V-11.7ZM27.35-6.6v2.45h3.16V.869h3.023v-12.55H30.511V-6.6Zm1.26,4.534a6.468,6.468,0,0,1-4.763-5.931h4.1v-2.428H16.61v2.428h4.145a7.025,7.025,0,0,1-4.97,6.481L17.32.869A8.237,8.237,0,0,0,22.358-3.8,7.971,7.971,0,0,0,27.144.3Zm-2.2,9.206c-2.771,0-4.214-.573-4.214-1.763s1.443-1.763,4.214-1.763c2.748,0,4.191.573,4.191,1.763S29.16,7.144,26.412,7.144Zm0-5.817c-4.489,0-7.237,1.489-7.237,4.053s2.748,4.053,7.237,4.053c4.466,0,7.214-1.489,7.214-4.053S30.877,1.327,26.412,1.327ZM40.839-4.719h9.023v2.954H40.839ZM46.862,4.51V.64h5.977V-10.376H49.862V-7.1H40.839v-3.275h-3V.64h6V4.51H35.824V6.96h19.1V4.51Z" transform="translate(-10212.453 -5311.75)" fill="#383838"/>
    <path id="패스_47369" data-name="패스 47369" d="M-20.671-8.887c2.679,0,4.328.664,4.328,1.969s-1.649,1.969-4.328,1.969c-2.634,0-4.305-.664-4.305-1.969S-23.3-8.887-20.671-8.887Zm0,6.344c4.557,0,7.58-1.695,7.58-4.374,0-2.657-3.023-4.374-7.58-4.374-4.534,0-7.58,1.718-7.58,4.374C-28.251-4.238-25.206-2.544-20.671-2.544Zm-4.237,5.267h-3.069V9.044h14.794V6.64H-24.908ZM-30.2-1.444V.96h8.176V4.579h3.092V.96H-11.1v-2.4ZM3.283-4.032H4.841V1.51H7.7V-11.681H4.841v5.2H3.283v-4.809H.466V.846H3.283Zm-3.389-5.5H-3.77v-1.924H-6.747v1.924h-3.641v2.336H-.106ZM-7.091-2.841c0-.985.756-1.511,1.878-1.511s1.855.527,1.855,1.511-.733,1.534-1.855,1.534S-7.091-1.857-7.091-2.841Zm6.412,0c0-2.176-1.878-3.664-4.534-3.664-2.679,0-4.557,1.489-4.557,3.664S-7.892.846-5.213.846C-2.556.846-.679-.666-.679-2.841ZM.558,7.166c-2.817,0-4.237-.481-4.237-1.58s1.42-1.58,4.237-1.58,4.237.481,4.237,1.58S3.375,7.166.558,7.166Zm0-5.428c-4.534,0-7.26,1.4-7.26,3.847S-3.976,9.411.558,9.411s7.26-1.374,7.26-3.824S5.092,1.739.558,1.739ZM13.245-6.895h5.061V-9.3H10.268V4.716h1.443a37.209,37.209,0,0,0,7.534-.55l-.252-2.473a31.6,31.6,0,0,1-5.748.55Zm7.283,2.908H16.864v2.45h3.664V8.472h2.817V-11.292H20.528ZM24.9-11.7V9.388h2.863V-11.7Zm19.122,0V9.457h3.023V-11.7Zm-8.313,1.489c-3.183,0-5.542,2.886-5.542,7.512,0,4.649,2.359,7.557,5.542,7.557S41.253,1.945,41.253-2.7C41.253-7.33,38.894-10.215,35.711-10.215Zm0,2.725c1.557,0,2.634,1.672,2.634,4.786,0,3.137-1.076,4.809-2.634,4.809S33.077.434,33.077-2.7C33.077-5.818,34.154-7.49,35.711-7.49ZM53.459-1.7h6.046V-4.055H53.459V-7.49h6.756V-9.918H50.459V4.67h1.718a56.734,56.734,0,0,0,9.3-.55L61.2,1.693a49.471,49.471,0,0,1-7.741.55ZM64.177-11.7v7.443H60.559v2.428h3.618V9.457H67.2V-11.7Z" transform="translate(-10216.164 -5364.407)" fill="#383838"/>
    <path id="패스_47377" data-name="패스 47377" d="M-17.261-7.124v1.031A13.746,13.746,0,0,0-16.3-.837a7.244,7.244,0,0,0,3.115,3.607l-1.763,2.2A8.577,8.577,0,0,1-18.7-.185a9.663,9.663,0,0,1-3.87,5.657L-24.36,3.25A8.016,8.016,0,0,0-21.2-.62a14.49,14.49,0,0,0,1.008-5.473V-7.124h-3.389v-2.45h9.389v2.45Zm4.282,2.634v-6.847h2.817V8.449h-2.817V-2.04h-2.679V-4.49Zm4.26-7.214h2.863V9.388H-8.719ZM1.747,2.105A2.111,2.111,0,0,0,3.636.857a7.394,7.394,0,0,0,.7-3.561,7.335,7.335,0,0,0-.7-3.538A2.111,2.111,0,0,0,1.747-7.49,2.1,2.1,0,0,0-.119-6.242,7.335,7.335,0,0,0-.818-2.7,7.394,7.394,0,0,0-.119.857,2.1,2.1,0,0,0,1.747,2.105ZM10.656-11.7h3.023V9.457H10.656V-1.65h-3.5A8.141,8.141,0,0,1,5.446,3.1a4.64,4.64,0,0,1-3.7,1.752A4.689,4.689,0,0,1-2.169,2.792,8.991,8.991,0,0,1-3.7-2.7,8.9,8.9,0,0,1-2.169-8.166a4.7,4.7,0,0,1,3.916-2.05A4.665,4.665,0,0,1,5.366-8.578,7.734,7.734,0,0,1,7.129-4.1h3.527ZM27.35-6.6h3.16v-5.084h3.023V.869H30.511V-4.147H27.35Zm1.26,4.534L27.144.3a7.9,7.9,0,0,1-4.786-4.1A8.047,8.047,0,0,1,17.32.869L15.785-1.513a7.188,7.188,0,0,0,3.641-2.6,6.973,6.973,0,0,0,1.328-3.882H16.61v-2.428H27.946v2.428h-4.1a6.232,6.232,0,0,0,1.271,3.55A6.86,6.86,0,0,0,28.61-2.063Zm-2.2,9.206q4.191,0,4.191-1.763T26.412,3.617Q22.2,3.617,22.2,5.38T26.412,7.144Zm0-5.817A10.992,10.992,0,0,1,31.7,2.392a3.283,3.283,0,0,1,0,5.977,10.992,10.992,0,0,1-5.29,1.065A11.05,11.05,0,0,1,21.1,8.369a3.283,3.283,0,0,1,0-5.977A11.05,11.05,0,0,1,26.412,1.327ZM40.839-4.719v2.954h9.023V-4.719ZM46.862,4.51h8.061V6.96h-19.1V4.51h8.015V.64h-6V-10.376h3V-7.1h9.023v-3.275h2.977V.64H46.862Z" transform="translate(-9494.677 -5136.699)" fill="#383838"/>
    <path id="패스_47378" data-name="패스 47378" d="M-21.077-5.392a2.5,2.5,0,0,0,.744,1.9,2.688,2.688,0,0,0,1.935.71,2.729,2.729,0,0,0,1.947-.71,2.484,2.484,0,0,0,.756-1.9A2.476,2.476,0,0,0-16.451-7.3,2.755,2.755,0,0,0-18.4-8a2.714,2.714,0,0,0-1.935.7A2.5,2.5,0,0,0-21.077-5.392ZM-9.6-6.537h-3.344a6.317,6.317,0,0,1,.115,1.145,5.09,5.09,0,0,1-.137,1.145H-9.6Zm0,4.695H-14.3a5.551,5.551,0,0,1-4.1,1.6,5.612,5.612,0,0,1-3.95-1.466A4.8,4.8,0,0,1-23.94-5.392,4.825,4.825,0,0,1-22.348-9.1a5.612,5.612,0,0,1,3.95-1.466,5.614,5.614,0,0,1,4.145,1.626H-9.6V-11.69h3.023V.677H-9.6Zm-4.122,8.931q4.26,0,4.26-1.832t-4.26-1.832q-4.237,0-4.237,1.832T-13.726,7.089Zm0-6a10.771,10.771,0,0,1,5.3,1.1A3.39,3.39,0,0,1-6.489,5.257,3.4,3.4,0,0,1-8.425,8.314a10.678,10.678,0,0,1-5.3,1.111A10.623,10.623,0,0,1-19,8.314,3.4,3.4,0,0,1-20.94,5.257,3.39,3.39,0,0,1-19,2.188,10.715,10.715,0,0,1-13.726,1.089ZM8.144-2.346,6.564-.01A7.631,7.631,0,0,1,1.915-3.949,8,8,0,0,1-3.031.585L-4.612-1.8A6.842,6.842,0,0,0-.89-4.476,7.4,7.4,0,0,0,.335-8.644v-1.9H3.4v2.153A6.138,6.138,0,0,0,4.583-4.717,6.6,6.6,0,0,0,8.144-2.346ZM5.419,7.066q4.122,0,4.122-1.74,0-1.718-4.122-1.718-4.145,0-4.145,1.718Q1.274,7.066,5.419,7.066Zm0-5.794a10.654,10.654,0,0,1,5.21,1.076,3.291,3.291,0,0,1,0,5.977A10.654,10.654,0,0,1,5.419,9.4,10.71,10.71,0,0,1,.186,8.325a3.314,3.314,0,0,1-1.912-3A3.3,3.3,0,0,1,.186,2.348,10.71,10.71,0,0,1,5.419,1.272Zm6.893-8.061h2.794v2.5H12.312V.791H9.289V-11.667h3.023Zm14.771.183h3.16V-11.69h3.023V.86H30.244V-4.156h-3.16Zm1.26,4.534L26.877.287a7.9,7.9,0,0,1-4.786-4.1A8.047,8.047,0,0,1,17.053.86L15.518-1.522a7.188,7.188,0,0,0,3.641-2.6A6.973,6.973,0,0,0,20.488-8H16.343V-10.43H27.679V-8h-4.1a6.232,6.232,0,0,0,1.271,3.55A6.86,6.86,0,0,0,28.343-2.072Zm-2.2,9.206q4.191,0,4.191-1.763T26.145,3.608q-4.214,0-4.214,1.763T26.145,7.135Zm0-5.817a10.992,10.992,0,0,1,5.29,1.065,3.283,3.283,0,0,1,0,5.977,10.992,10.992,0,0,1-5.29,1.065A11.05,11.05,0,0,1,20.831,8.36a3.283,3.283,0,0,1,0-5.977A11.05,11.05,0,0,1,26.145,1.318ZM40.572-4.728v2.954H49.6V-4.728ZM46.6,4.5h8.061v2.45h-19.1V4.5h8.015V.631h-6V-10.385h3V-7.11H49.6v-3.275h2.977V.631H46.6Z" transform="translate(-9196.966 -5136.69)" fill="#383838"/>
    <g id="그룹_5585" data-name="그룹 5585" transform="translate(-10618.771 -5156.143)">
      <line id="선_157" data-name="선 157" y1="165.088" transform="translate(125.238)" fill="none" stroke="#4e4e4e" stroke-linecap="round" stroke-width="5"/>
      <line id="선_158" data-name="선 158" y1="165.088" transform="translate(438.336)" fill="none" stroke="#4e4e4e" stroke-linecap="round" stroke-width="5"/>
      <line id="선_159" data-name="선 159" y1="165.088" transform="translate(751.435)" fill="none" stroke="#4e4e4e" stroke-linecap="round" stroke-width="5"/>
      <g id="그룹_5584" data-name="그룹 5584" transform="translate(0 93.217)">
        <g id="타원_560" data-name="타원 560" fill="#fff" stroke="#4e4e4e" stroke-width="5">
          <circle cx="125.239" cy="125.239" r="125.239" stroke="none"/>
          <circle cx="125.239" cy="125.239" r="122.739" fill="none"/>
        </g>
        <path id="패스_47372" data-name="패스 47372" d="M5.515-2.263C-.61-3.323-3.966-7.533-3.966-11.508v-1.943H-8.118v1.943c0,3.887-3.386,8.185-9.481,9.245L-15.95.976A13.612,13.612,0,0,0-6.057-6.032C-4.32-2.587-.845.034,3.866.976Zm-23.7,7.891V8.779H6.369V5.628ZM12.081-9.418h5.3V2.419h-5.3ZM8.253,5.481H21.208V-12.48H8.253ZM32.6-4.824H28.658V-15.012H24.771V12.077h3.887V-1.615H32.6ZM54.981-1.055h-15.1V-4.088h14.28v-3H39.876V-9.948h14.9v-3.121H35.931V2.007h19.05ZM33.045,5.805V8.956H57.6V5.805ZM-13.182,27.626H-24.342v-2.8h11.159ZM-9.355,18.7h-3.828V21.8H-24.342V18.7H-28.2V30.718H-9.355ZM-6.44,33.28H-31v3.092h10.247v8.45h3.887v-8.45H-6.44Zm17.254-2.886c-4.3-1.148-6.183-4-6.242-6.831H9.931V20.5H4.573V17.586H.686V20.5h-5.3v3.062h5.3c-.059,3.062-1.943,6.095-6.272,7.3L-3.731,33.9a10.207,10.207,0,0,0,6.419-5.212,9.933,9.933,0,0,0,6.36,4.741ZM-2.141,38.521H12.081v6.3h3.887V35.429H-2.141Zm21.7-14.163H15.967V17.674H12.081V34.281h3.887V27.538H19.56ZM36.4,29.982c-4.269-1.266-6.124-4.3-6.183-7.39h5.3V19.47H20.855v3.121h5.388a8.779,8.779,0,0,1-6.389,8.3L21.8,33.927a10.563,10.563,0,0,0,6.537-5.859,10,10,0,0,0,6.213,4.917ZM32.721,41.818c-3.474,0-5.329-.736-5.329-2.267,0-1.561,1.855-2.3,5.329-2.3,3.445,0,5.3.736,5.3,2.3C38.021,41.082,36.166,41.818,32.721,41.818Zm0-7.567c-5.653,0-9.187,1.973-9.187,5.3,0,3.3,3.533,5.241,9.187,5.241,5.624,0,9.157-1.943,9.157-5.241C41.878,36.224,38.345,34.251,32.721,34.251Zm8.863-10.335V17.674H37.7V33.78h3.887V27.1h3.592v-3.18Zm22.849-6.272V44.851h3.887V17.645ZM47.178,19.824v18.7H60.546v-18.7H56.689V26.39H51.035V19.824Zm3.857,9.6h5.653v6.007H51.035Z" transform="translate(103.086 110.91)" fill="#383838"/>
      </g>
      <g id="그룹_5583" data-name="그룹 5583" transform="translate(313.098 94.641)">
        <g id="타원_556" data-name="타원 556" fill="#57a580" stroke="#4e4e4e" stroke-width="5">
          <circle cx="125.239" cy="125.239" r="125.239" stroke="none"/>
          <circle cx="125.239" cy="125.239" r="122.739" fill="none"/>
        </g>
        <path id="패스_47373" data-name="패스 47373" d="M-23.771-8.413h-5.1V-5.8h5.1ZM-32.877-3.6V-7.138h-5.439V-3.6Zm4.009,1.057V-.332h-13.52V-14.1h4.071v3.823h5.439v-3.854h4.009v2.455h5.1v-4.165h4.1V1.253h-4.1V-2.539Zm-.5,12.214q5.719,0,5.719-2.393t-5.719-2.393q-5.688,0-5.688,2.393T-29.365,9.676Zm0-7.894a15,15,0,0,1,7.211,1.445,4.463,4.463,0,0,1,2.611,4.056,4.5,4.5,0,0,1-2.611,4.071,14.862,14.862,0,0,1-7.211,1.461,14.784,14.784,0,0,1-7.179-1.461,4.5,4.5,0,0,1-2.611-4.071,4.463,4.463,0,0,1,2.611-4.056A14.918,14.918,0,0,1-29.365,1.781ZM-14.26-3l-1.212-3.046A18.389,18.389,0,0,0-8.9-7.4,4.879,4.879,0,0,0-6.055-10.06h-8.05v-3.2h8.392v-2.517h4.1v2.517H6.812v3.2h-8.05A4.879,4.879,0,0,0,1.606-7.4,18.389,18.389,0,0,0,8.179-6.051L6.967-3q-7.832-.559-10.6-4.1Q-6.459-3.564-14.26-3ZM-3.693,9.769q5.781,0,5.781-1.834T-3.693,6.1q-5.781,0-5.781,1.834T-3.693,9.769ZM9.3,1.129H-1.611v2.02A13.371,13.371,0,0,1,4.2,4.656,3.7,3.7,0,0,1,6.252,7.935q0,2.331-2.611,3.59a17.261,17.261,0,0,1-7.335,1.259,17.151,17.151,0,0,1-7.319-1.259q-2.6-1.259-2.6-3.59a3.7,3.7,0,0,1,2.051-3.279A13.44,13.44,0,0,1-5.714,3.149V1.129H-16.56v-3.2H9.3ZM15.421,2.31a2.511,2.511,0,0,0,3.854,0,3.788,3.788,0,0,0,.746-2.486,3.852,3.852,0,0,0-.746-2.5A2.37,2.37,0,0,0,17.348-3.6a2.37,2.37,0,0,0-1.927.917,3.852,3.852,0,0,0-.746,2.5A3.788,3.788,0,0,0,15.421,2.31ZM12.826-5.1a5.863,5.863,0,0,1,4.522-1.911A5.863,5.863,0,0,1,21.87-5.1,7,7,0,0,1,23.626-.177a6.953,6.953,0,0,1-1.756,4.9A5.863,5.863,0,0,1,17.348,6.63a5.863,5.863,0,0,1-4.522-1.911,6.953,6.953,0,0,1-1.756-4.9A7,7,0,0,1,12.826-5.1Zm6.542-9.961v3.543h4.755v3.263H10.448v-3.263h4.88v-3.543Zm11.779-.808h3.885V12.753H31.147V-.891H28.972V11.572H25.149V-15.312h3.823V-4.186h2.176ZM57.033-.7H59.52V-6.237H57a19.8,19.8,0,0,1,.186,2.8A24.762,24.762,0,0,1,57.033-.7ZM51,3.118q2.517,0,2.517-6.558,0-6.527-2.517-6.527-2.549,0-2.549,6.527Q48.455,3.118,51,3.118ZM59.52-9.532v-5.843h3.823V11.478H59.52V2.621H56.256a7.831,7.831,0,0,1-2.145,3.217A4.657,4.657,0,0,1,51,6.972,5.094,5.094,0,0,1,46.45,4.19a14.864,14.864,0,0,1-1.663-7.63,14.776,14.776,0,0,1,1.663-7.615A5.1,5.1,0,0,1,51-13.821q3.574,0,5.221,4.289Zm5.688-6.34h3.885V12.753H65.207ZM88.7-4.341,86.994-1.233a10.386,10.386,0,0,1-6.869-4.382A10.136,10.136,0,0,1,73.1-.767L71.33-3.906a9.667,9.667,0,0,0,4.88-2.409,5.688,5.688,0,0,0,1.772-3.838H72.387v-3.232h5.594V-15.9h4.1v2.517H87.74v3.232H82.084a5.193,5.193,0,0,0,1.772,3.559A9.715,9.715,0,0,0,88.7-4.341ZM79.317,7.78V9.489h15.6v3.077H75.246V4.889H90.071V3.273H75.215V.165h18.9V7.78Zm14.794-17.9h3.761v3.357H94.111v5.75h-4.1V-15.841h4.1Z" transform="translate(97.469 127.634)" fill="#fff"/>
      </g>
      <g id="그룹_5582" data-name="그룹 5582" transform="translate(626.195 93.217)">
        <g id="타원_557" data-name="타원 557" fill="#57a580" stroke="#4e4e4e" stroke-width="5">
          <circle cx="125.239" cy="125.239" r="125.239" stroke="none"/>
          <circle cx="125.239" cy="125.239" r="122.739" fill="none"/>
        </g>
        <path id="패스_47374" data-name="패스 47374" d="M-37.395-9.369V2.845q1.088,0,2.113-.093V-9.369Zm5.781,0V2.5l1.088-.109q.777-.078,1.15-.14l.28,2.953A68.85,68.85,0,0,1-42.865,6.264L-43.3,2.938h2.238V-9.369H-42.8v-3.263H-29.78v3.263Zm3.854,3.947v-9.852h3.823V11.454H-27.76v-13.3h-2.735V-5.422Zm5.688-10.443h3.885V12.791h-3.885ZM-1,6.264H9.94V9.621H-15.981V6.264H-5.1V2.006H-13v-9.7H2.978v-3.077H-13.028v-3.263H7.019V-4.49H-8.925v3.2h16.6V2.006H-1ZM18.3,4V9H34.027v3.263H14.2V4ZM18.27-11.327v4.1H29.614v-4.1ZM26.008-1.133H36.917V2.13H11.059V-1.133H21.906V-3.992H14.229V-14.529H33.654V-3.992H26.008ZM68.273-1.1V2.13H48.165V-13.783H68.056v3.294H52.329v3.015H67.4V-4.3H52.329v3.2ZM45.119,6.14H71.039V9.465H45.119ZM85.212-4.676l.342,3.232A63.019,63.019,0,0,1,75.3-.791H73.308V-9.183h6.869V-11.2h-6.9v-3.2H84.124V-6.23H77.255v2.207A46.366,46.366,0,0,0,85.212-4.676Zm7.3,13.831V6.761H81.172V9.154Zm0-5.563V1.229h4.04V12.418H77.1V1.229h4.071V3.591Zm.155-19.456h3.885V.017H92.671V-6.23h-2.3V-.139H86.548V-15.368h3.823v5.843h2.3Z" transform="translate(96.891 129.081)" fill="#fff"/>
      </g>
    </g>
    <g id="그룹_5580" data-name="그룹 5580" transform="translate(-9679.479 -5062.925)">
      <g id="타원_558" data-name="타원 558" fill="#57a580" stroke="#4e4e4e" stroke-width="5">
        <circle cx="125.239" cy="125.239" r="125.239" stroke="none"/>
        <circle cx="125.239" cy="125.239" r="122.739" fill="none"/>
      </g>
      <path id="패스_47375" data-name="패스 47375" d="M-38.031-11.626c3.73,0,6.123,1.119,6.123,3.139,0,2.051-2.393,3.139-6.123,3.139-3.761,0-6.154-1.088-6.154-3.139C-44.185-10.507-41.792-11.626-38.031-11.626Zm0,9.542c6.092,0,10.35-2.486,10.35-6.4,0-3.885-4.258-6.4-10.35-6.4-6.123,0-10.35,2.517-10.35,6.4C-48.381-4.571-44.154-2.085-38.031-2.085ZM-25.009.06H-50.929V3.386h5.874v9.355h4.134V3.386h5.75v9.355h4.165V3.386h6ZM-17.021,3.2c-1.554,0-2.673-1.243-2.673-3.388s1.119-3.419,2.673-3.419,2.673,1.274,2.673,3.419S-15.467,3.2-17.021,3.2Zm0-10.225C-20.689-7.026-23.3-4.2-23.3-.189c0,3.978,2.611,6.807,6.278,6.807s6.278-2.828,6.278-6.807C-10.743-4.2-13.354-7.026-17.021-7.026Zm2.02-8.05h-4.04v3.543h-4.88v3.263h13.675v-3.263H-15Zm11.779-.808V-4.2H-5.4V-15.325H-9.22V11.56H-5.4V-.9h2.176V12.741H.663V-15.884ZM5.76,1.055c4.973-.9,8.578-3.388,10.35-6.807C17.913-2.4,21.549,0,26.584.9l1.554-3.232c-6.154-.9-9.479-4.351-9.852-8.081h8.578v-3.263H5.294v3.263h8.578c-.373,3.73-3.7,7.3-9.7,8.236Zm12.4,5.066V-.189h-4.1V6.121H3.15V9.446H29.07V6.121ZM55.146-5.69c-6.5-.9-9.79-4.631-9.79-7.956v-1.368H40.974v1.368c0,3.357-3.263,7.055-9.79,7.956L32.738-2.4c5-.746,8.609-3.077,10.443-6.154C45.014-5.472,48.588-3.141,53.592-2.4Zm.932,5.408H30.22V3.044H41V12.8h4.1V3.044H56.079Zm30.427-15.54H82.372V4.722h4.134ZM67.143-6.746a3.571,3.571,0,0,1,3.792-3.73A3.531,3.531,0,0,1,74.7-6.746a3.539,3.539,0,0,1-3.761,3.7A3.581,3.581,0,0,1,67.143-6.746Zm11.562,0c0-4.227-3.388-7.273-7.77-7.273s-7.8,3.046-7.8,7.273c0,4.165,3.419,7.242,7.8,7.242S78.7-2.582,78.7-6.746ZM71.557,9.011V2.7h-4.1v9.573H87.221V9.011ZM107.3-3.39c-4.631-1.43-6.651-4.848-6.651-8.423v-2.735H96.483v2.735a9.156,9.156,0,0,1-6.838,8.889L91.665.309a11.391,11.391,0,0,0,6.962-6.092,10.906,10.906,0,0,0,6.682,5.625ZM94.027,5.748h15.385V12.8h4.134V2.453H94.027Zm15.385-21.6V1.21h4.134V-15.853ZM-.145,18.53h-4.1V34.753h4.1Zm-12.432,10.6H-18.42V23.44h5.843Zm4.009-8.92H-22.46V32.329H-8.568ZM.321,39.322V36.276H-7.666V33.945h-4.165v2.331H-19.85v3.046h7.925c-.4,1.989-3.294,4.165-9.013,4.662l1.274,3.046c4.817-.4,8.174-2.082,9.915-4.289,1.74,2.176,5.066,3.885,9.821,4.289l1.305-3.046c-5.657-.466-8.516-2.766-8.951-4.662Zm19.767-4.476H25.62V31.583H14.867V29.439H25v-3.17H14.867V24.093H25.558V20.861H10.8V34.847h5.19v3.7c-2.642.093-5.1.093-7.211.093l.5,3.326a92.571,92.571,0,0,0,17.84-1.305l-.249-2.953a67.629,67.629,0,0,1-6.775.653Zm8.329-16.379V47.185h4.1V18.468Zm18.43,7.956h5.843V23.161H46.848V19.182h-4.1v3.978H36.778v3.263h5.967v.995a12.308,12.308,0,0,1-6.931,11.313l2.207,3.139a13.362,13.362,0,0,0,6.838-7.832,12.618,12.618,0,0,0,6.775,7.335l2.176-3.139a11.771,11.771,0,0,1-6.962-10.816ZM55.333,18.5V47.123h4.1V18.5Zm8.982,2.953v3.263h9.542c-.591,6.34-3.761,10.816-11.064,14.328l2.145,3.232C75.1,37.364,78.052,30.216,78.052,21.451Zm18.12-2.984V47.092h4.134V18.468Z" transform="translate(92.529 111.991)" fill="#fff"/>
    </g>
    <g id="그룹_5581" data-name="그룹 5581" transform="translate(-9366.38 -5062.925)">
      <g id="타원_559" data-name="타원 559" fill="#57a580" stroke="#4e4e4e" stroke-width="5">
        <circle cx="125.239" cy="125.239" r="125.239" stroke="none"/>
        <circle cx="125.239" cy="125.239" r="122.739" fill="none"/>
      </g>
      <path id="패스_47376" data-name="패스 47376" d="M.38-15.048V12.158H4.267V-15.048Zm-10.688,1.914c-4.093,0-7.125,3.71-7.125,9.658,0,5.977,3.033,9.717,7.125,9.717S-3.183,2.5-3.183-3.476C-3.183-9.424-6.215-13.134-10.308-13.134Zm0,3.5c2,0,3.386,2.149,3.386,6.154,0,4.034-1.384,6.183-3.386,6.183S-13.694.557-13.694-3.476C-13.694-7.481-12.31-9.63-10.308-9.63ZM19.607,9.185c-3.622,0-5.477-.618-5.477-2.032s1.855-2.061,5.477-2.061,5.477.648,5.477,2.061S23.229,9.185,19.607,9.185Zm0-7.037c-5.859,0-9.393,1.8-9.393,5.006,0,3.18,3.533,4.976,9.393,4.976s9.422-1.8,9.422-4.976C29.029,3.943,25.466,2.147,19.607,2.147Zm2.032-4.417V-4.507h7.538V-7.6h-14.9v-3.18H29.029V-13.87H10.42v9.363h7.332v2.238H7.447V.822H31.974V-2.269Zm28-.942c-4.387-1.354-6.3-4.593-6.3-7.979v-2.591H39.394v2.591A8.674,8.674,0,0,1,32.916-2.77L34.83.292a10.791,10.791,0,0,0,6.6-5.771,10.333,10.333,0,0,0,6.33,5.329ZM37.067,5.445H51.642v6.684h3.916v-9.8H37.067ZM51.642-15.019V1.146h3.916V-15.019ZM-7.364,27.325c-6.154-.854-9.275-4.387-9.275-7.538v-1.3H-20.79v1.3c0,3.18-3.092,6.684-9.275,7.538l1.472,3.121c4.741-.707,8.156-2.915,9.893-5.83,1.737,2.915,5.123,5.123,9.864,5.83Zm.883,5.123h-24.5V35.6h10.217v9.245h3.887V35.6H-6.48Zm17.99-3.357c-4.122-1.207-6.124-4-6.33-6.86h5.329V19.169H-4.243v3.062H1.175C.969,25.294-1,28.238-5.3,29.5l1.943,3.062a10.551,10.551,0,0,0,6.6-5.536A10.187,10.187,0,0,0,9.625,32.1ZM13.277,41.4H2.971V39.015H13.277Zm0-5.359H2.971V33.568H-.886V44.491h18.02V33.568H13.277Zm-.059-18.314V32.419h3.916V17.727ZM36.39,30c-4.269-1.266-6.124-4.3-6.183-7.39h5.3V19.493H20.844v3.121h5.388a8.779,8.779,0,0,1-6.389,8.3l1.943,3.033a10.563,10.563,0,0,0,6.537-5.859,10,10,0,0,0,6.213,4.917ZM32.71,41.841c-3.474,0-5.329-.736-5.329-2.267,0-1.561,1.855-2.3,5.329-2.3,3.445,0,5.3.736,5.3,2.3C38.01,41.105,36.155,41.841,32.71,41.841Zm0-7.567c-5.653,0-9.187,1.973-9.187,5.3,0,3.3,3.533,5.241,9.187,5.241,5.624,0,9.157-1.943,9.157-5.241C41.867,36.247,38.334,34.274,32.71,34.274Zm8.863-10.335V17.7H37.686V33.8h3.887V27.119h3.592v-3.18Zm14.84,1.266h5.535V22.114H56.412V18.345H52.526v3.769H46.872v3.092h5.653v.942A11.66,11.66,0,0,1,45.96,36.865l2.091,2.974a12.659,12.659,0,0,0,6.478-7.42,11.954,11.954,0,0,0,6.419,6.949l2.061-2.974a11.152,11.152,0,0,1-6.6-10.247ZM64.451,17.7V44.815h3.887V17.7Z" transform="translate(105.543 110.887)" fill="#fff"/>
    </g>
    <g id="transmission-tower" transform="translate(-10120.616 -5309.133)">
      <g id="그룹_4299" data-name="그룹 4299" transform="translate(0 0)">
        <path id="패스_46598" data-name="패스 46598" d="M238.943,332.651l-36.531-79.8-32.6,79.8Z" transform="translate(-113.755 -182.507)" fill="#383838"/>
        <circle id="타원_555" data-name="타원 555" cx="11.178" cy="11.178" r="11.178" transform="translate(77.381 43.742)" fill="#383838"/>
        <path id="패스_46599" data-name="패스 46599" d="M180.331,136.438a3.146,3.146,0,0,0-4.46.171c-.189.2-18.766,20.79-.212,45.651a3.154,3.154,0,1,0,5.057-3.772c-15.354-20.575-.839-36.9-.205-37.6A3.155,3.155,0,0,0,180.331,136.438Z" transform="translate(-112.158 -103.953)" fill="#383838"/>
        <path id="패스_46600" data-name="패스 46600" d="M102.23,87.471a3.15,3.15,0,0,0-4.454.174,60.78,60.78,0,0,0-12.178,22.9c-3.681,12.882-4.593,32.9,11.967,55.083a3.154,3.154,0,1,0,5.057-3.772c-28.561-38.274-1.38-68.647-.208-69.922A3.163,3.163,0,0,0,102.23,87.471Z" transform="translate(-55.856 -71.155)" fill="#383838"/>
        <path id="패스_46601" data-name="패스 46601" d="M22.314,150.965a3.153,3.153,0,0,0,2.525-5.041c-41.206-55.219-1.9-99.039-.208-100.876a3.157,3.157,0,0,0-4.637-4.287c-.451.486-44.619,49.433-.212,108.938A3.155,3.155,0,0,0,22.314,150.965Z" transform="translate(0 -39.747)" fill="#383838"/>
        <path id="패스_46602" data-name="패스 46602" d="M326.021,182.9a3.157,3.157,0,0,0,4.416-.644c18.551-24.862-.022-45.443-.212-45.651a3.157,3.157,0,0,0-4.634,4.29c.631.679,15.234,16.884-.212,37.586A3.158,3.158,0,0,0,326.021,182.9Z" transform="translate(-217.551 -103.954)" fill="#383838"/>
        <path id="패스_46603" data-name="패스 46603" d="M396.245,87.634a3.157,3.157,0,0,0-4.634,4.29c.287.313,28.441,31.519-.212,69.916a3.155,3.155,0,1,0,5.057,3.772C428.221,123.058,396.57,87.988,396.245,87.634Z" transform="translate(-261.777 -71.147)" fill="#383838"/>
        <path id="패스_46604" data-name="패스 46604" d="M458.2,40.581a3.163,3.163,0,0,0-.18,4.46c1.695,1.837,41,45.657-.208,100.876a3.154,3.154,0,1,0,5.056,3.772c44.407-59.505.24-108.449-.212-108.938A3.161,3.161,0,0,0,458.2,40.581Z" transform="translate(-306.266 -39.744)" fill="#383838"/>
      </g>
    </g>
    <g id="그룹_5579" data-name="그룹 5579" transform="translate(-9710.788 -5505.531)">
      <rect id="사각형_1510" data-name="사각형 1510" width="626.196" height="286.058" rx="39" fill="#f7f6f5" stroke="#4e4e4e" stroke-linecap="round" stroke-width="2" stroke-dasharray="2 5"/>
      <g id="그룹_5578" data-name="그룹 5578" transform="translate(361.486 29.887)">
        <g id="타원_563" data-name="타원 563" fill="#fff" stroke="#4e4e4e" stroke-width="5">
          <circle cx="108.161" cy="108.161" r="108.161" stroke="none"/>
          <circle cx="108.161" cy="108.161" r="105.661" fill="none"/>
        </g>
        <g id="video-camera" transform="translate(73.289 53.813)">
          <circle id="타원_561" data-name="타원 561" cx="3.39" cy="3.39" r="3.39" transform="translate(15.254 12.711)" fill="#4e4e4e"/>
          <circle id="타원_562" data-name="타원 562" cx="3.39" cy="3.39" r="3.39" transform="translate(41.524 12.711)" fill="#4e4e4e"/>
          <path id="패스_46606" data-name="패스 46606" d="M16.178,241.3H47.24a16.207,16.207,0,0,0,15.346-11.054l5.69,3.285a9.708,9.708,0,0,0,14.556-8.41V212.178a9.708,9.708,0,0,0-14.556-8.41l-5.69,3.286A16.206,16.206,0,0,0,47.24,196H16.178A16.2,16.2,0,0,0,0,212.178v12.942A16.2,16.2,0,0,0,16.178,241.3Zm55.334-31.927a3.184,3.184,0,0,1,1.613-.43,3.239,3.239,0,0,1,3.236,3.236v12.942a3.239,3.239,0,0,1-3.236,3.236,3.185,3.185,0,0,1-1.613-.43l-8.094-4.674v-9.207ZM6.471,212.178a9.718,9.718,0,0,1,9.707-9.707H47.24a9.718,9.718,0,0,1,9.707,9.707v12.942a9.718,9.718,0,0,1-9.707,9.707H16.178a9.718,9.718,0,0,1-9.707-9.707Z" transform="translate(0 -170.115)" fill="#4e4e4e"/>
          <path id="패스_46607" data-name="패스 46607" d="M19.82,57.218a3.236,3.236,0,0,0,2.748-3.659,9.835,9.835,0,0,1-.1-1.381,9.707,9.707,0,1,1,19.414,0,3.236,3.236,0,0,0,6.471,0,9.707,9.707,0,1,1,19.414,0,9.839,9.839,0,0,1-.1,1.381,3.236,3.236,0,0,0,6.407.91A16.189,16.189,0,0,0,58.063,36,16.163,16.163,0,0,0,45.12,42.481,16.173,16.173,0,0,0,16,52.178a16.357,16.357,0,0,0,.161,2.292,3.236,3.236,0,0,0,3.659,2.748Z" transform="translate(-13.411 -36)" fill="#4e4e4e"/>
          <path id="패스_46608" data-name="패스 46608" d="M235.236,282.471h6.471a3.236,3.236,0,1,0,0-6.471h-6.471a3.236,3.236,0,1,0,0,6.471Z" transform="translate(-194.467 -237.173)" fill="#4e4e4e"/>
        </g>
        <path id="패스_47379" data-name="패스 47379" d="M-18.826,3.925V1.844H-6.3V8.086H-8.894V3.925Zm7.616-5.516H-4.3V.47H-20.652V-1.591H-13.8V-3.515H-18.65V-9.738h2.591v4.161h9.952v2.061h-5.1ZM7.183-8.03v2.041H-3.457V-8.03H.587v-1.9H3.178v1.9ZM.45-2.936a1.244,1.244,0,0,0-.53,1.07A1.244,1.244,0,0,0,.45-.8a2.4,2.4,0,0,0,1.433.383A2.4,2.4,0,0,0,3.316-.8a1.244,1.244,0,0,0,.53-1.07,1.244,1.244,0,0,0-.53-1.07,2.4,2.4,0,0,0-1.433-.383A2.4,2.4,0,0,0,.45-2.936ZM3.178,1.392V2.825q2.571-.137,4.083-.373l.2,1.865a60.666,60.666,0,0,1-10.934.746l-.314-2.1Q-1,2.963.587,2.923V1.392A4.156,4.156,0,0,1-1.69.244a2.926,2.926,0,0,1-.844-2.11A2.963,2.963,0,0,1-1.3-4.339a5.1,5.1,0,0,1,3.18-.942,5.1,5.1,0,0,1,3.18.942A2.963,2.963,0,0,1,6.3-1.866,2.926,2.926,0,0,1,5.455.244,4.156,4.156,0,0,1,3.178,1.392Zm9.854-4.044v2.14H10.775V8.066H8.184V-10.012h2.591v7.361Zm11.228.844-1.237,2a6.522,6.522,0,0,1-4.142-3.278A6.911,6.911,0,0,1,14.524.823L13.228-1.2a6.128,6.128,0,0,0,3.151-2.218,5.847,5.847,0,0,0,1.109-3.317H13.9V-8.815h9.775v2.081H20.138a4.964,4.964,0,0,0,1.07,2.984A5.84,5.84,0,0,0,24.26-1.807ZM21.806,6.084q3.533,0,3.533-1.511,0-1.531-3.533-1.531-3.553,0-3.553,1.531Q18.254,6.084,21.806,6.084Zm0-5.045a8.973,8.973,0,0,1,4.466.942,2.882,2.882,0,0,1,1.639,2.591,2.84,2.84,0,0,1-1.639,2.571,9.132,9.132,0,0,1-4.466.923,9.18,9.18,0,0,1-4.485-.923,2.84,2.84,0,0,1-1.639-2.571,2.882,2.882,0,0,1,1.639-2.591A9.02,9.02,0,0,1,21.806,1.039Zm5.908-6.89H30.11v2.12H27.715V.725H25.124V-10.012h2.591Zm15.232-4.181h2.591V8.106H42.947Zm-11.5,1.453h2.571V-4.2h3.769V-8.579h2.571V3.885H31.445Zm2.571,6.4v4h3.769v-4Z" transform="translate(95.651 158.841)" fill="#4e4e4e"/>
      </g>
      <g id="그룹_5577" data-name="그룹 5577" transform="translate(48.725 29.887)">
        <g id="타원_564" data-name="타원 564" fill="#fff" stroke="#4e4e4e" stroke-width="5">
          <circle cx="108.161" cy="108.161" r="108.161" stroke="none"/>
          <circle cx="108.161" cy="108.161" r="105.661" fill="none"/>
        </g>
        <g id="그룹_4300" data-name="그룹 4300" transform="translate(70.339 55.8)">
          <path id="패스_46609" data-name="패스 46609" d="M70.5,64.721a2.866,2.866,0,0,0,2.866-2.866V47.525A11.477,11.477,0,0,0,61.906,36.061H11.464A11.477,11.477,0,0,0,0,47.525v28.66A11.477,11.477,0,0,0,11.464,87.65H33.819v5.715H23.788a2.866,2.866,0,0,0,0,5.732H49.582a2.866,2.866,0,1,0,0-5.732H39.551V87.65H61.906A11.477,11.477,0,0,0,73.37,76.185a2.866,2.866,0,0,0-5.732,0,5.739,5.739,0,0,1-5.732,5.732H11.464a5.739,5.739,0,0,1-5.732-5.732V47.525a5.739,5.739,0,0,1,5.732-5.732H61.906a5.739,5.739,0,0,1,5.732,5.732v14.33A2.866,2.866,0,0,0,70.5,64.721Z" transform="translate(0 -36.061)" fill="#4e4e4e"/>
        </g>
        <path id="패스_47380" data-name="패스 47380" d="M-10.075-1.5C-14.158-2.207-16.4-5.014-16.4-7.664v-1.3h-2.768v1.3c0,2.591-2.257,5.457-6.321,6.164l1.1,2.159a9.075,9.075,0,0,0,6.6-4.672A9.163,9.163,0,0,0-11.174.658Zm-15.8,5.261v2.1H-9.505V3.76ZM-5.7-6.271h3.533V1.62H-5.7ZM-8.249,3.662H.388V-8.312H-8.249ZM7.984-3.209H5.354V-10H2.763V8.059H5.354V-1.069h2.63ZM22.9-.7H12.833V-2.718h9.52v-2h-9.52v-1.9h9.932V-8.7H10.2V1.345H22.9ZM8.279,3.878v2.1H24.65v-2.1Zm25.2,2.2c-2.414,0-3.651-.432-3.651-1.374,0-.962,1.237-1.374,3.651-1.374s3.651.412,3.651,1.374C37.134,5.644,35.9,6.076,33.483,6.076Zm0-4.731c-3.906,0-6.262,1.217-6.262,3.357s2.356,3.376,6.262,3.376S39.764,6.842,39.764,4.7,37.389,1.345,33.483,1.345Zm1.354-3V-3.464H39.9V-5.525H30.009V-9.706H27.418v6.242h4.829v1.806h-6.87V.384H41.727V-1.658ZM54.977,5.8H48.146V4.172h6.831Zm0-3.592H48.146V.482H45.575V7.843H57.549V.482H54.977ZM47.42-2.8a2.093,2.093,0,0,1-2.277-2.159A2.093,2.093,0,0,1,47.42-7.115a2.1,2.1,0,0,1,2.3,2.159A2.1,2.1,0,0,1,47.42-2.8Zm7.538-7.224v3.985H52.072A4.6,4.6,0,0,0,47.42-9.274c-2.709,0-4.75,1.806-4.75,4.318S44.711-.637,47.42-.637a4.578,4.578,0,0,0,4.672-3.3h2.866V-.3h2.591V-10.02Zm-72.707,39.1c-2.493,0-3.651-.334-3.651-1.08s1.158-1.06,3.651-1.06c2.513,0,3.671.314,3.671,1.06S-15.237,29.075-17.75,29.075Zm0-4.044c-3.965,0-6.262,1.021-6.262,2.964,0,1.924,2.3,2.964,6.262,2.964,3.985,0,6.281-1.04,6.281-2.964C-11.468,26.052-13.765,25.032-17.75,25.032Zm1.315-2.827V21.086h5.163V19.123H-21.283v-.981h9.461V16.257h-9.461v-.942h9.874V13.352H-23.855v7.734h4.829V22.2H-25.9v2.022H-9.545V22.2ZM1.86,14.471H-2.184V12.744H-4.794v1.727H-8.818v2.022H1.84Zm-7.3,5.712c0-.864.8-1.315,1.963-1.315s1.963.451,1.963,1.315-.8,1.315-1.963,1.315S-5.442,21.047-5.442,20.183Zm6.4,0c0-1.924-1.826-3.2-4.436-3.2s-4.436,1.276-4.436,3.2c0,1.9,1.826,3.2,4.436,3.2S.957,22.087.957,20.183Zm1.9,8.558H-3.754V27.485H2.861Zm0-3.219H-3.754V24.148H-6.325v6.615H5.433V24.148H2.861Zm4.966-8.3H5.433V12.881H2.841v10.58H5.433V19.339H7.827Zm10.462.393H14.58V15.3h3.71Zm-6.281,0H9.83v1.924H23.021V17.612H20.861V15.3h2.3V13.372H9.712V15.3h2.3Zm.726,10.364h9.893V23.5H10.144v1.865h9.932v.883H10.163v4.574H23.1V28.958H12.735ZM8.279,20.458V22.5H24.611V20.458Zm28.58-1.139h1.453v5.712h2.454V12.881H38.312v4.377H36.859V13.2H34.445V23.54h2.414Zm-3.278,1.61a28.062,28.062,0,0,1-5.006.451V19.673h4.338V14.137H26.063v2.022h4.358v1.629H26.083v5.634h1.256a30.624,30.624,0,0,0,6.478-.471Zm2.257,3.337H33.247v.314c0,1.865-1.865,3.828-5.751,4.318l1,2c2.866-.412,4.927-1.61,6.046-3.278,1.08,1.669,3.16,2.866,6.026,3.278l1.021-2c-3.906-.491-5.751-2.454-5.751-4.318ZM46.87,26.9h7.4v1.826h-7.4Zm-2.532,3.847H56.822V24.855H44.338Zm4.4-15.311h3.71v2.728h-3.71Zm3.141,6.2V20.222h5.28V18.161h-2.14V15.433h2.3V13.372H43.867v2.061h2.3v2.728H43.985v2.061h5.3v1.413H42.434v2.041H58.766V21.636Z" transform="translate(91.833 146.04)" fill="#4e4e4e"/>
      </g>
    </g>
    <g id="그룹_5587" data-name="그룹 5587" transform="translate(-10655.023 -5365.688)">
      <path id="패스_47371" data-name="패스 47371" d="M-41.462,8.619c-3.42,0-5.172-.612-5.172-1.947,0-1.363,1.752-1.947,5.172-1.947s5.172.584,5.172,1.947C-36.289,8.007-38.041,8.619-41.462,8.619Zm0-6.7c-5.534,0-8.871,1.724-8.871,4.755s3.337,4.783,8.871,4.783,8.9-1.752,8.9-4.783S-35.928,1.917-41.462,1.917Zm1.919-4.255V-4.9h7.175v-2.92H-46.384v-5.923h-3.671V-4.9h6.841v2.558h-9.733V.554h23.164V-2.338Zm12.18-9.2v2.92h8.537c-.528,5.673-3.365,9.677-9.9,12.82l1.919,2.892C-17.713,2.7-15.071-3.7-15.071-11.542Zm16.212-2.67V11.4h3.7V-14.212ZM8.7-7.427H6.23a31.954,31.954,0,0,0,.222-3.726H-3.5v2.92H2.809C2.337-3.228.112.471-4.949,3.558l2.086,2.558C1.919,3.279,4.478-.28,5.618-4.507H8.7v3.476H5.145V1.917H8.7v8.4h3.42V-13.628H8.7Zm5.256-6.785V11.427h3.476V-14.212Zm32.953,12.1c-5.784-1-8.954-4.978-8.954-8.732v-1.835H34.038v1.835c0,3.671-3.2,7.731-8.954,8.732L26.641.944a12.856,12.856,0,0,0,9.344-6.618A12.981,12.981,0,0,0,45.356.944ZM24.528,5.337V8.313H47.72V5.337ZM53.115-8.873H58.12V2.306H53.115ZM49.5,5.2H61.735V-11.765H49.5Zm23-9.733H68.771v-9.622H65.1V11.427h3.671V-1.5H72.5ZM93.631-.975H79.366V-3.839H92.853V-6.676H79.366v-2.7H93.437v-2.948h-17.8V1.917H93.631ZM72.914,5.5V8.48H96.106V5.5Zm39.46-16.88H106.7v-2.7h-3.671v2.7H97.3v2.892h15.072ZM102.085-2.644c0-1.335,1.112-2.058,2.781-2.058s2.781.723,2.781,2.058-1.112,2.058-2.781,2.058S102.085-1.309,102.085-2.644ZM106.7,1.972c2.67-.528,4.422-2.28,4.422-4.616,0-2.892-2.586-4.839-6.257-4.839s-6.257,1.947-6.257,4.839c0,2.336,1.752,4.088,4.422,4.616V4.142c-2.252.056-4.366.056-6.2.056l.445,2.975a81.732,81.732,0,0,0,15.489-1.057l-.278-2.642c-1.835.278-3.81.417-5.784.528Zm13.96-5.729h-3.2V-14.184h-3.671V11.427h3.671V-.725h3.2Z" transform="translate(224.701 88.063)" fill="#383838"/>
      <g id="그룹_4378" data-name="그룹 4378">
        <g id="그룹_4356" data-name="그룹 4356" transform="translate(87.001 22.902)">
          <path id="패스_46649" data-name="패스 46649" d="M281.737,750.092l-7.369-.341c.016-.37,2.248-37.06,48.653-42.306l.414-.023H570.727V714.8H323.647C283.619,719.428,281.751,749.786,281.737,750.092Z" transform="translate(-274.369 -707.422)" fill="#57a580"/>
        </g>
        <g id="그룹_4377" data-name="그룹 4377">
          <g id="그룹_4364" data-name="그룹 4364" transform="translate(0 33.904)">
            <g id="그룹_4357" data-name="그룹 4357" transform="translate(60.526)">
              <path id="패스_46650" data-name="패스 46650" d="M265.844,758.087a17.047,17.047,0,0,1,5.049.758,15.693,15.693,0,0,1,12.73-6.1c6.6,0,12.2,3.7,14.254,8.851a16.5,16.5,0,0,1,4.131-.525c7.038,0,12.9,4.382,14.209,10.192h.273v21.559H250.755V771.26C250.755,763.985,257.511,758.087,265.844,758.087Z" transform="translate(-250.755 -742.787)" fill="#57a580"/>
              <path id="패스_46651" data-name="패스 46651" d="M331.51,757.932a3.926,3.926,0,1,0,3.924-4.028A3.977,3.977,0,0,0,331.51,757.932Z" transform="translate(-270.912 -743.077)" fill="#57a580"/>
              <path id="패스_46652" data-name="패스 46652" d="M322.64,755.77a1.948,1.948,0,1,0,1.947-2A1.974,1.974,0,0,0,322.64,755.77Z" transform="translate(-268.698 -743.044)" fill="#57a580"/>
              <path id="패스_46653" data-name="패스 46653" d="M275.735,741.476a1.948,1.948,0,1,0,1.947-2A1.972,1.972,0,0,0,275.735,741.476Z" transform="translate(-256.99 -739.476)" fill="#57a580"/>
              <path id="패스_46654" data-name="패스 46654" d="M321.3,745.166a2.95,2.95,0,1,0,2.949-3.025A2.989,2.989,0,0,0,321.3,745.166Z" transform="translate(-268.365 -740.141)" fill="#57a580"/>
            </g>
            <g id="그룹_4358" data-name="그룹 4358" transform="translate(28.407 8.347)">
              <path id="패스_46655" data-name="패스 46655" d="M260.134,777.313,247.721,753.6H210.952v8.043h26.555v26.234h0v33.648H298.77l9.8-33.648h6.621V777.313Z" transform="translate(-208.701 -751.349)" fill="#fff"/>
              <path id="패스_46656" data-name="패스 46656" d="M298.021,823.027H236.759a2.251,2.251,0,0,1-2.251-2.251V763.145H210.2a2.251,2.251,0,0,1-2.251-2.251v-8.043A2.251,2.251,0,0,1,210.2,750.6h36.769a2.253,2.253,0,0,1,1.995,1.207l11.781,22.506h53.69a2.251,2.251,0,0,1,2.251,2.251v10.564a2.251,2.251,0,0,1-2.251,2.251h-4.932l-9.324,32.026A2.252,2.252,0,0,1,298.021,823.027Zm-59.011-4.5h57.322l9.324-32.026a2.251,2.251,0,0,1,2.161-1.622h4.37v-6.062h-52.8a2.253,2.253,0,0,1-1.995-1.206L245.61,755.1H212.454v3.54h24.3a2.251,2.251,0,0,1,2.251,2.251Z" transform="translate(-207.952 -750.6)"/>
            </g>
            <g id="그룹_4359" data-name="그룹 4359" transform="translate(0 25.093)">
              <path id="패스_46657" data-name="패스 46657" d="M191.429,775.916h36.629v60.893h80.5v10H173.1V814.041Z" transform="translate(-170.845 -773.665)" fill="#fff"/>
              <path id="패스_46658" data-name="패스 46658" d="M307.807,848.31H172.347a2.251,2.251,0,0,1-2.251-2.251V813.292a2.248,2.248,0,0,1,.222-.975l18.334-38.125a2.25,2.25,0,0,1,2.028-1.276h36.63a2.251,2.251,0,0,1,2.251,2.251V833.81h78.246a2.25,2.25,0,0,1,2.251,2.251v10A2.251,2.251,0,0,1,307.807,848.31Zm-133.208-4.5H305.555v-5.5H227.31a2.251,2.251,0,0,1-2.251-2.251V777.418H192.1L174.6,813.8Z" transform="translate(-170.096 -772.916)"/>
            </g>
            <g id="그룹_4360" data-name="그룹 4360" transform="translate(13.385 80.874)">
              <path id="패스_46659" data-name="패스 46659" d="M190.933,865.269a15.015,15.015,0,1,0,15.015-15.017A15.014,15.014,0,0,0,190.933,865.269Z" transform="translate(-188.682 -848.001)" fill="#fff"/>
              <path id="패스_46660" data-name="패스 46660" d="M205.2,881.786a17.267,17.267,0,1,1,17.267-17.266A17.286,17.286,0,0,1,205.2,881.786Zm0-30.031a12.764,12.764,0,1,0,12.764,12.766A12.779,12.779,0,0,0,205.2,851.755Z" transform="translate(-187.933 -847.252)"/>
            </g>
            <g id="그룹_4361" data-name="그룹 4361" transform="translate(21.052 88.378)">
              <path id="패스_46661" data-name="패스 46661" d="M201.15,867.529a7.278,7.278,0,1,0,7.28-7.277A7.277,7.277,0,0,0,201.15,867.529Z" transform="translate(-198.899 -858.001)" fill="#fff"/>
              <path id="패스_46662" data-name="패스 46662" d="M207.681,876.309a9.529,9.529,0,1,1,9.528-9.529A9.541,9.541,0,0,1,207.681,876.309Zm0-14.555a5.026,5.026,0,1,0,5.025,5.025A5.032,5.032,0,0,0,207.681,861.754Z" transform="translate(-198.15 -857.252)"/>
            </g>
            <g id="그룹_4362" data-name="그룹 4362" transform="translate(91.696 80.874)">
              <path id="패스_46663" data-name="패스 46663" d="M295.293,865.269a15.015,15.015,0,1,0,15.016-15.017A15.016,15.016,0,0,0,295.293,865.269Z" transform="translate(-293.042 -848.001)" fill="#fff"/>
              <path id="패스_46664" data-name="패스 46664" d="M309.56,881.786a17.267,17.267,0,1,1,17.266-17.266A17.286,17.286,0,0,1,309.56,881.786Zm0-30.031a12.764,12.764,0,1,0,12.763,12.766A12.78,12.78,0,0,0,309.56,851.755Z" transform="translate(-292.293 -847.252)"/>
            </g>
            <path id="패스_46665" data-name="패스 46665" d="M221.61,812.5H200.4a2.252,2.252,0,0,1-2.251-2.251V799.164a2.238,2.238,0,0,1,.223-.976l7.073-14.712a2.252,2.252,0,0,1,2.029-1.276H221.61a2.251,2.251,0,0,1,2.251,2.251v25.792A2.251,2.251,0,0,1,221.61,812.5Zm-18.958-4.5h16.707V786.7H208.89l-6.238,12.974Z" transform="translate(-177.098 -750.141)"/>
            <g id="그룹_4363" data-name="그룹 4363" transform="translate(99.433 88.378)">
              <path id="패스_46666" data-name="패스 46666" d="M305.6,867.529a7.278,7.278,0,1,0,7.279-7.277A7.277,7.277,0,0,0,305.6,867.529Z" transform="translate(-303.353 -858.001)" fill="#fff"/>
              <path id="패스_46667" data-name="패스 46667" d="M312.135,876.309a9.529,9.529,0,1,1,9.528-9.529A9.541,9.541,0,0,1,312.135,876.309Zm0-14.555a5.026,5.026,0,1,0,5.025,5.025A5.032,5.032,0,0,0,312.135,861.754Z" transform="translate(-302.604 -857.252)"/>
            </g>
          </g>
          <g id="그룹_4367" data-name="그룹 4367" transform="translate(60.789 145.17)">
            <g id="그룹_4365" data-name="그룹 4365" transform="translate(67.549)">
              <circle id="타원_565" data-name="타원 565" cx="8.61" cy="8.61" r="8.61" transform="translate(2.251 2.251)" fill="#fff"/>
              <path id="패스_46668" data-name="패스 46668" d="M351.985,909.477a10.862,10.862,0,1,1,10.861-10.862A10.874,10.874,0,0,1,351.985,909.477Zm0-17.221a6.359,6.359,0,1,0,6.359,6.359A6.367,6.367,0,0,0,351.985,892.257Z" transform="translate(-341.123 -887.754)"/>
            </g>
            <g id="그룹_4366" data-name="그룹 4366" transform="translate(0 8.61)">
              <line id="선_167" data-name="선 167" x1="67.549" transform="translate(2.252 2.252)" fill="#fff"/>
              <path id="패스_46669" data-name="패스 46669" d="M320.905,903.73H253.356a2.251,2.251,0,0,1,0-4.5h67.549a2.251,2.251,0,0,1,0,4.5Z" transform="translate(-251.105 -899.228)"/>
            </g>
          </g>
          <g id="그룹_4373" data-name="그룹 4373" transform="translate(8.26 165.535)">
            <g id="그룹_4368" data-name="그룹 4368">
              <line id="선_168" data-name="선 168" x2="16.69" transform="translate(0 2.251)" fill="#fff"/>
              <rect id="사각형_1524" data-name="사각형 1524" width="16.69" height="4.502"/>
            </g>
            <g id="그룹_4369" data-name="그룹 4369" transform="translate(28.169)">
              <line id="선_169" data-name="선 169" x2="16.69" transform="translate(0 2.251)" fill="#fff"/>
              <rect id="사각형_1525" data-name="사각형 1525" width="16.69" height="4.502"/>
            </g>
            <g id="그룹_4370" data-name="그룹 4370" transform="translate(55.619)">
              <line id="선_170" data-name="선 170" x2="16.69" transform="translate(0 2.251)" fill="#fff"/>
              <rect id="사각형_1526" data-name="사각형 1526" width="16.69" height="4.502"/>
            </g>
            <g id="그룹_4371" data-name="그룹 4371" transform="translate(19.924)">
              <line id="선_171" data-name="선 171" x2="4.795" transform="translate(0 2.251)" fill="#fff"/>
              <rect id="사각형_1527" data-name="사각형 1527" width="4.795" height="4.502"/>
            </g>
            <g id="그룹_4372" data-name="그룹 4372" transform="translate(47.946)">
              <line id="선_172" data-name="선 172" x2="4.796" transform="translate(0 2.251)" fill="#fff"/>
              <rect id="사각형_1528" data-name="사각형 1528" width="4.796" height="4.502"/>
            </g>
          </g>
          <g id="그룹_4376" data-name="그룹 4376" transform="translate(20.716)">
            <g id="그룹_4375" data-name="그룹 4375">
              <g id="그룹_4374" data-name="그룹 4374">
                <path id="패스_46670" data-name="패스 46670" d="M232.784,703.925a26.5,26.5,0,0,0-31.137,0l-2.692-3.7a31.067,31.067,0,0,1,36.519,0Z" transform="translate(-198.015 -694.295)" fill="#57a580"/>
                <path id="패스_46671" data-name="패스 46671" d="M233.815,704.363a2.274,2.274,0,0,1-1.343-.438,26.5,26.5,0,0,0-31.137,0,2.287,2.287,0,1,1-2.692-3.7,31.067,31.067,0,0,1,36.519,0,2.287,2.287,0,0,1-1.348,4.135Z" transform="translate(-197.702 -694.295)" fill="#57a580"/>
                <path id="패스_46672" data-name="패스 46672" d="M228.269,717.066a15,15,0,0,0-17.605,0l-2.691-3.7a19.574,19.574,0,0,1,22.986,0Z" transform="translate(-200.266 -698.125)" fill="#57a580"/>
                <path id="패스_46673" data-name="패스 46673" d="M229.3,717.5a2.27,2.27,0,0,1-1.343-.437,15,15,0,0,0-17.6,0,2.287,2.287,0,1,1-2.691-3.7,19.573,19.573,0,0,1,22.986,0A2.287,2.287,0,0,1,229.3,717.5Z" transform="translate(-199.953 -698.125)" fill="#57a580"/>
              </g>
              <path id="패스_46674" data-name="패스 46674" d="M225.451,726.786a3.24,3.24,0,1,1-3.241-3.243A3.24,3.24,0,0,1,225.451,726.786Z" transform="translate(-203.011 -701.596)" fill="#57a580"/>
            </g>
          </g>
        </g>
      </g>
    </g>
    <g id="그룹_5586" data-name="그룹 5586" transform="translate(-10655.023 -5617.31)">
      <g id="drone_4_" data-name="drone (4)">
        <path id="패스_46675" data-name="패스 46675" d="M116,268.981l53.155,32.1,53.156-32.1-53.156-32.1Zm0,0" transform="translate(-84.052 -171.638)" fill="#9bd5b9"/>
        <path id="패스_46676" data-name="패스 46676" d="M289.876,279.152,256,299.612l33.876,20.458,33.876-20.458Zm0,0" transform="translate(-185.493 -202.269)" fill="#57a580"/>
        <path id="패스_46677" data-name="패스 46677" d="M116,322.8l19.279,11.643L154.558,322.8,135.279,311.16Zm0,0" transform="translate(-84.052 -225.461)" fill="#63c496"/>
        <path id="패스_46678" data-name="패스 46678" d="M137.881,263.742a14.538,14.538,0,0,0-3.3,9.167,14.709,14.709,0,0,0,3.3,9.209,14.712,14.712,0,0,0,3.3-9.209A14.544,14.544,0,0,0,137.881,263.742Zm0,0" transform="translate(-97.519 -191.103)" fill="#4bc38a"/>
        <path id="패스_46679" data-name="패스 46679" d="M362.712,255.183a15.036,15.036,0,0,0-3-2.75s-6.592,4.211-6.592,12.282,6.592,12.365,6.592,12.365a15.289,15.289,0,0,0,3-2.786,14.8,14.8,0,0,1-3.6-9.578A14.616,14.616,0,0,1,362.712,255.183Zm0,0" transform="translate(-255.868 -182.909)" fill="#fff"/>
        <path id="패스_46680" data-name="패스 46680" d="M378.472,262.418a14.622,14.622,0,0,0-3.6,9.532,14.8,14.8,0,0,0,3.6,9.578,14.8,14.8,0,0,0,3.6-9.578A14.622,14.622,0,0,0,378.472,262.418Zm0,0" transform="translate(-271.628 -190.144)" fill="#4bc38a"/>
        <path id="패스_46681" data-name="패스 46681" d="M254.121,193.029a14.8,14.8,0,0,0,3.6,9.577,14.8,14.8,0,0,0,3.6-9.577,14.625,14.625,0,0,0-3.6-9.533A14.625,14.625,0,0,0,254.121,193.029Zm0,0" transform="translate(-184.132 -132.958)" fill="#4bc38a"/>
        <path id="패스_46682" data-name="패스 46682" d="M241.8,344.851a15.252,15.252,0,0,0-3.145-2.93s-6.592,4.21-6.592,12.282,6.592,12.364,6.592,12.364A15.531,15.531,0,0,0,241.8,363.6a14.75,14.75,0,0,1-3.448-9.394A14.577,14.577,0,0,1,241.8,344.851Zm0,0" transform="translate(-168.151 -247.751)" fill="#fff"/>
        <path id="패스_46683" data-name="패스 46683" d="M258.346,352.559a14.577,14.577,0,0,0-3.448,9.352,14.744,14.744,0,0,0,3.448,9.394,14.749,14.749,0,0,0,3.447-9.394A14.577,14.577,0,0,0,258.346,352.559Zm0,0" transform="translate(-184.695 -255.458)" fill="#4bc38a"/>
        <path id="패스_46684" data-name="패스 46684" d="M277.748,16.156v6.068a6.156,6.156,0,0,1-6.156,6.156h-27.24a6.156,6.156,0,0,1-6.156-6.156V16.156A6.156,6.156,0,0,1,244.351,10h27.24A6.156,6.156,0,0,1,277.748,16.156Zm0,0" transform="translate(-172.592 -7.246)" fill="#383838"/>
        <path id="패스_46685" data-name="패스 46685" d="M283.713,86.313h-20.1l-3.762-9.578h27.622Zm0,0" transform="translate(-188.284 -55.6)" fill="#383838"/>
        <path id="패스_46686" data-name="패스 46686" d="M139.683,213.466l-9.826-5.933a2.754,2.754,0,0,0-2.847,4.715l5.921,3.576-28.554,17.244L77.94,217.095a18.087,18.087,0,0,0-1.116-1.869l18.145-10.958a18.892,18.892,0,0,0,7.376,10.692,2.753,2.753,0,0,0,3.006,0c.32-.209,7.842-5.216,7.842-14.671,0-9.472-7.542-14.4-7.862-14.6a2.759,2.759,0,0,0-2.966,0,17.767,17.767,0,0,0-3.483,3.14L79.891,177.357a18.3,18.3,0,0,0-7.818-13.407,2.753,2.753,0,0,0-2.965,0,18.309,18.309,0,0,0-7.81,13.3c-.018.011-.038.019-.055.03L42.066,188.865a17.781,17.781,0,0,0-3.516-3.18,2.759,2.759,0,0,0-2.966,0,18.508,18.508,0,0,0-7.613,11.692L1.33,213.467a2.754,2.754,0,0,0,0,4.714L69.083,259.1a2.756,2.756,0,0,0,2.847,0l67.753-40.918a2.754,2.754,0,0,0,0-4.715Zm-69.177,2.74a12.176,12.176,0,0,1,3.839,8.728,12.373,12.373,0,0,1-3.838,8.785,12.388,12.388,0,0,1-3.838-8.785A12.188,12.188,0,0,1,70.506,216.206Zm33.342-24.646a12.179,12.179,0,0,1,3.838,8.727,12.373,12.373,0,0,1-3.838,8.786,12.389,12.389,0,0,1-3.838-8.786A12.185,12.185,0,0,1,103.847,191.56ZM70.591,169.825a12.179,12.179,0,0,1,3.838,8.727,12.371,12.371,0,0,1-3.838,8.785,12.386,12.386,0,0,1-3.838-8.785A12.179,12.179,0,0,1,70.591,169.825ZM37.066,191.56a12.179,12.179,0,0,1,3.839,8.727,12.373,12.373,0,0,1-3.838,8.786,12.384,12.384,0,0,1-3.838-8.786A12.181,12.181,0,0,1,37.066,191.56ZM8.082,215.824l19.991-12.073a18.828,18.828,0,0,0,7.491,11.209,2.751,2.751,0,0,0,3,0c.321-.209,7.843-5.216,7.843-14.671a16.835,16.835,0,0,0-1.4-6.767l16.906-10.21a18.991,18.991,0,0,0,7.171,9.913,2.758,2.758,0,0,0,3.006,0A19,19,0,0,0,79.24,183.4l16.682,10.075a16.783,16.783,0,0,0-1.268,4.549L73.168,211c-.051.031-.1.065-.144.1-.575-.464-.967-.721-1.035-.765a2.759,2.759,0,0,0-2.966,0c-.067.043-.457.3-1.027.758l-5.206-3.143a2.754,2.754,0,0,0-2.847,4.714l4.246,2.565a18.2,18.2,0,0,0-1.116,1.869l-26.444,15.97Zm62.425,37.7-28.549-17.24,19.209-11.6c0,.085-.006.167-.006.253,0,9.456,7.522,14.463,7.843,14.671a2.753,2.753,0,0,0,3.006,0c.321-.209,7.843-5.216,7.843-14.671,0-.085-.005-.167-.006-.252l19.2,11.6Zm0,0" transform="translate(0 -118.481)" fill="#292929"/>
        <path id="패스_46687" data-name="패스 46687" d="M186.242,305.68a2.755,2.755,0,1,0,1.947.807A2.769,2.769,0,0,0,186.242,305.68Zm0,0" transform="translate(-132.952 -221.49)"/>
        <path id="패스_46688" data-name="패스 46688" d="M110.754,5.508h8.853v7.436h-3.049a2.754,2.754,0,0,0,0,5.508H141.81a8.967,8.967,0,0,0,4.093,4.426l-10.029,7.129a2.757,2.757,0,0,0-1.158,2.245V45.168a2.754,2.754,0,1,0,5.508,0V33.674l9.04-6.427,1.757,4.472a2.755,2.755,0,0,0,2.564,1.747h20.1a2.756,2.756,0,0,0,2.564-1.747L178,27.247l9.041,6.427V45.168a2.754,2.754,0,0,0,5.508,0V32.253a2.753,2.753,0,0,0-1.159-2.245l-10.029-7.129a8.969,8.969,0,0,0,4.094-4.426H210.71a2.754,2.754,0,0,0,0-5.508h-3.05V5.508h8.854a2.754,2.754,0,1,0,0-5.508H193.3a2.754,2.754,0,0,0,0,5.508h8.854v7.436H186.165V8.91A8.92,8.92,0,0,0,177.254,0h-27.24a8.92,8.92,0,0,0-8.91,8.91v4.034H125.116V5.508h8.854a2.754,2.754,0,0,0,0-5.508H110.754a2.754,2.754,0,1,0,0,5.508Zm61.052,22.45H155.462l-1.571-4,.1-.07h19.288l.1.07ZM146.612,8.91a3.405,3.405,0,0,1,3.4-3.4h27.24a3.405,3.405,0,0,1,3.4,3.4v6.068a3.406,3.406,0,0,1-3.4,3.4h-27.24a3.406,3.406,0,0,1-3.4-3.4Zm0,0" transform="translate(-78.255)" fill="#1f1e1e"/>
        <path id="패스_46689" data-name="패스 46689" d="M50.176,188.491a2.755,2.755,0,0,0,1.948-4.7,13.3,13.3,0,0,0-18.794,0,2.754,2.754,0,0,0,3.895,3.9,7.791,7.791,0,0,1,11,0A2.746,2.746,0,0,0,50.176,188.491Zm0,0" transform="translate(-23.566 -130.354)" fill="#292929"/>
        <path id="패스_46690" data-name="패스 46690" d="M8.231,153.308a2.747,2.747,0,0,0,1.947-.806,18.314,18.314,0,0,1,25.9,0,2.755,2.755,0,0,0,3.9-3.9,23.824,23.824,0,0,0-33.692,0,2.754,2.754,0,0,0,1.947,4.7Zm0,0" transform="translate(-3.968 -102.622)" fill="#292929"/>
        <path id="패스_46691" data-name="패스 46691" d="M60.377,219.115a2.753,2.753,0,1,0,1.947-.807A2.776,2.776,0,0,0,60.377,219.115Zm0,0" transform="translate(-43.164 -158.183)" fill="#292929"/>
      </g>
    </g>
  </g>
</svg>
