<svg xmlns="http://www.w3.org/2000/svg" width="205.077" height="122.003" viewBox="0 0 205.077 122.003"><g transform="translate(-1848.299 -32.836)"><path d="M1980.467,134.795H1856.511a7.484,7.484,0,0,1-7.462-7.462V41.048a7.484,7.484,0,0,1,7.462-7.462h150.426a7.484,7.484,0,0,1,7.462,7.462V79.333" fill="#fff"/><path d="M1980.467,135.545H1856.511a8.222,8.222,0,0,1-8.212-8.212V41.048a8.222,8.222,0,0,1,8.212-8.212h150.426a8.222,8.222,0,0,1,8.212,8.212V79.333h-1.5V41.048a6.719,6.719,0,0,0-6.712-6.712H1856.511a6.719,6.719,0,0,0-6.712,6.712v86.285a6.72,6.72,0,0,0,6.712,6.712h123.956Z" fill="#1d1d1b"/><rect width="43.684" height="10.47" transform="translate(1909.882 134.795)" fill="#fff"/><path d="M1954.316,146.014h-45.184V134.045h45.184Zm-43.684-1.5h42.184v-8.969h-42.184Z" fill="#1d1d1b"/><path d="M1978.717,153.388H1884.73a4.073,4.073,0,0,1-4.061-4.062h0a4.073,4.073,0,0,1,4.061-4.062h93.987a4.074,4.074,0,0,1,4.062,4.062h0A4.074,4.074,0,0,1,1978.717,153.388Z" fill="#fff"/><path d="M1978.717,154.137h-93.986a4.811,4.811,0,1,1,0-9.623h93.986a4.811,4.811,0,0,1,0,9.623Zm-93.986-8.123a3.311,3.311,0,1,0,0,6.623h93.986a3.311,3.311,0,0,0,0-6.623Z" fill="#1d1d1b"/><line x2="165.227" transform="translate(1849.11 44.467)" fill="#fff"/><rect width="165.227" height="1.5" transform="translate(1849.11 43.718)" fill="#1d1d1b"/><path d="M1992.149,40.316a1.859,1.859,0,1,1-1.859-1.859A1.859,1.859,0,0,1,1992.149,40.316Z" fill="#fff"/><path d="M1990.29,42.925a2.609,2.609,0,1,1,2.609-2.609A2.613,2.613,0,0,1,1990.29,42.925Zm0-3.718a1.109,1.109,0,1,0,1.109,1.109A1.11,1.11,0,0,0,1990.29,39.207Z" fill="#1d1d1b"/><path d="M1998.81,40.316a1.859,1.859,0,1,1-1.859-1.859A1.859,1.859,0,0,1,1998.81,40.316Z" fill="#fff"/><path d="M1996.95,42.925a2.609,2.609,0,1,1,2.61-2.609A2.612,2.612,0,0,1,1996.95,42.925Zm0-3.718a1.109,1.109,0,1,0,1.11,1.109A1.109,1.109,0,0,0,1996.95,39.207Z" fill="#1d1d1b"/><path d="M2005.471,40.316a1.859,1.859,0,1,1-1.859-1.859A1.86,1.86,0,0,1,2005.471,40.316Z" fill="#fff"/><path d="M2003.611,42.925a2.609,2.609,0,1,1,2.61-2.609A2.612,2.612,0,0,1,2003.611,42.925Zm0-3.718a1.109,1.109,0,1,0,1.11,1.109A1.109,1.109,0,0,0,2003.611,39.207Z" fill="#1d1d1b"/><rect width="30.987" height="1.5" transform="translate(1959.207 56.058)" fill="#1d1d1b"/><rect width="30.987" height="1.5" transform="translate(1959.207 62.885)" fill="#1d1d1b"/><rect width="30.987" height="1.5" transform="translate(1959.207 69.651)" fill="#1d1d1b"/><rect width="30.987" height="1.5" transform="translate(1959.207 76.478)" fill="#1d1d1b"/><rect width="7.954" height="26.514" transform="translate(1868.832 90.579)" fill="#fff"/><path d="M1877.536,117.843h-9.454V89.829h9.454Zm-7.954-1.5h6.454V91.329h-6.454Z" fill="#1d1d1b"/><rect width="7.954" height="33.474" transform="translate(1882.42 83.619)" fill="#fff"/><path d="M1891.125,117.843h-9.455V82.869h9.455Zm-7.955-1.5h6.455V84.369h-6.455Z" fill="#1d1d1b"/><rect width="7.954" height="42.261" transform="translate(1896.009 74.832)" fill="#fff"/><path d="M1904.713,117.843h-9.454V74.082h9.454Zm-7.954-1.5h6.454V75.582h-6.454Z" fill="#1d1d1b"/><rect width="7.954" height="32.811" transform="translate(1909.643 84.282)" fill="#fff"/><path d="M1918.347,117.843h-9.454V83.532h9.454Zm-7.954-1.5h6.454V85.032h-6.454Z" fill="#1d1d1b"/><rect width="7.954" height="33.474" transform="translate(1923.231 83.619)" fill="#fff"/><path d="M1931.936,117.843h-9.454V82.869h9.454Zm-7.954-1.5h6.454V84.369h-6.454Z" fill="#1d1d1b"/><rect width="7.954" height="42.261" transform="translate(1936.82 74.832)" fill="#fff"/><path d="M1945.524,117.843h-9.455V74.082h9.455Zm-7.955-1.5h6.455V75.582h-6.455Z" fill="#1d1d1b"/><path d="M1951.689,122.037h-87.915V61.023h1.5v59.515h86.415Z" fill="#1d1d1b"/><path d="M1873.151,104.5l-.684-1.335,13.589-6.96L1900,87.187l13.836,9.59,13.133-.64,13.42-8.678.814,1.26-13.758,8.9L1913.4,98.3l-13.43-9.309L1886.8,97.506Z" fill="#82abdb"/><circle cx="36.454" cy="36.454" r="36.454" transform="translate(1980.467 81.93)" fill="#82abdb"/><path d="M2006.015,152.381l-2.636-.607a37.172,37.172,0,0,1,0-72.448l2.636-.608-1.948,1.879a48.479,48.479,0,0,0,0,69.906ZM2001.077,81.5a35.675,35.675,0,0,0,0,68.1,49.971,49.971,0,0,1,0-68.1Z" fill="#1d1d1b"/><path d="M2009.842,152.658a37.259,37.259,0,0,1-6.463-.884l.336-1.462a35.862,35.862,0,0,0,6.2.848Z" fill="#1d1d1b"/><path d="M2003.715,80.788l-.336-1.462a37.213,37.213,0,0,1,6.463-.885l.076,1.5A35.818,35.818,0,0,0,2003.715,80.788Z" fill="#1d1d1b"/><path d="M2010.9,152.712l-1.058-.054a37.259,37.259,0,0,1-6.463-.884l-.2-.047-.15-.144a49.979,49.979,0,0,1,0-72.066l.15-.144.2-.047a37.213,37.213,0,0,1,6.463-.885l1.058-.054-.3,1.015a127.382,127.382,0,0,0,0,72.3Zm-6.982-2.354a35.409,35.409,0,0,0,4.942.734,128.89,128.89,0,0,1,0-71.085,35.321,35.321,0,0,0-4.943.735,48.476,48.476,0,0,0,0,69.616Z" fill="#1d1d1b"/><path d="M2020.7,151.625l-.361-1.456a35.659,35.659,0,0,0,0-69.239l.361-1.456a37.159,37.159,0,0,1,0,72.151Z" fill="#1d1d1b"/><path d="M2018.017,152.291,2020,150.36a48.5,48.5,0,0,0,0-69.62l1.047-1.075a50,50,0,0,1,1.987,69.727,35.6,35.6,0,0,0,24.422-33.842h1.5a37.1,37.1,0,0,1-28.252,36.075Z" fill="#1d1d1b"/><path d="M2013.351,152.675l-.065-1.5a35.693,35.693,0,0,0,7.058-1.007l.361,1.456A37.2,37.2,0,0,1,2013.351,152.675Z" fill="#1d1d1b"/><path d="M2020.344,80.93a35.745,35.745,0,0,0-7.058-1.006l.065-1.5a37.326,37.326,0,0,1,7.354,1.049Z" fill="#1d1d1b"/><path d="M2012.3,152.719l.3-1.006a127.41,127.41,0,0,0,0-72.327l-.3-1.006,1.049.045a37.326,37.326,0,0,1,7.354,1.049l.2.049.147.142a50,50,0,0,1,0,71.77l-.147.141-.2.049a37.2,37.2,0,0,1-7.354,1.05Zm2.033-72.736a128.874,128.874,0,0,1,0,71.133,35.722,35.722,0,0,0,5.813-.9,48.5,48.5,0,0,0,0-69.336A35.706,35.706,0,0,0,2014.335,79.983Z" fill="#1d1d1b"/><path d="M2011.753,152.754c-.439,0-.872-.029-1.305-.058q-.3-.021-.606-.038l.076-1.5c.211.011.421.025.632.039a15.76,15.76,0,0,0,2.129.013c.2-.014.4-.028.607-.036l.065,1.5c-.192.007-.381.021-.571.033C2012.44,152.732,2012.1,152.754,2011.753,152.754Z" fill="#1d1d1b"/><path d="M2009.918,79.939l-.076-1.5.6-.038a17.437,17.437,0,0,1,2.331-.012c.19.013.381.026.574.034l-.063,1.5c-.2-.009-.409-.023-.613-.037a15.741,15.741,0,0,0-2.128.013C2010.337,79.914,2010.128,79.928,2009.918,79.939Z" fill="#1d1d1b"/><path d="M2011.753,152.754c-.439,0-.872-.029-1.305-.058q-.3-.021-.606-.038l-.53-.026-.151-.51a128.892,128.892,0,0,1,0-73.145l.152-.509,1.133-.065a17.437,17.437,0,0,1,2.331-.012c.19.013.381.026.574.034l.536.022.151.515a128.868,128.868,0,0,1,0,73.175l-.151.515-.535.023c-.192.007-.381.021-.571.033C2012.44,152.732,2012.1,152.754,2011.753,152.754Zm-1.3-1.561.1.006a15.76,15.76,0,0,0,2.129.013l.068-.005a127.37,127.37,0,0,0,0-71.315l-.073,0a15.741,15.741,0,0,0-2.128.013l-.095.006a127.392,127.392,0,0,0,0,71.287Z" fill="#1d1d1b"/><path d="M1976.26,107.344" fill="none" stroke="#1d1d1b" stroke-miterlimit="10" stroke-width="1.5"/><path d="M1975.393,113.677" fill="none" stroke="#1d1d1b" stroke-miterlimit="10" stroke-width="1.5"/><path d="M2047.9,114.4a127.958,127.958,0,0,0-72.294,0l-.426-1.439a129.46,129.46,0,0,1,73.145,0Z" fill="#1d1d1b"/><path d="M2046.706,107.864a48.479,48.479,0,0,0-69.906,0l-1.08-1.041a49.979,49.979,0,0,1,72.066,0Z" fill="#1d1d1b"/><path d="M1975.377,117.115" fill="none" stroke="#1d1d1b" stroke-miterlimit="10" stroke-width="1.5"/><path d="M1976.405,124.322" fill="none" stroke="#1d1d1b" stroke-miterlimit="10" stroke-width="1.5"/><path d="M2011.753,140.028a49.685,49.685,0,0,1-35.885-15.184l1.074-1.045a48.5,48.5,0,0,0,69.622,0l1.074,1.045A49.689,49.689,0,0,1,2011.753,140.028Z" fill="#1d1d1b"/><path d="M2011.753,123.136a128.989,128.989,0,0,1-36.589-5.3l.426-1.438a127.977,127.977,0,0,0,72.325,0l.426,1.438A128.971,128.971,0,0,1,2011.753,123.136Z" fill="#1d1d1b"/><path d="M1975.393,113.677" fill="none" stroke="#1d1d1b" stroke-miterlimit="10" stroke-width="1.5"/><path d="M1975.377,117.115" fill="none" stroke="#1d1d1b" stroke-miterlimit="10" stroke-width="1.5"/><path d="M2048.128,117.115" fill="none" stroke="#1d1d1b" stroke-miterlimit="10" stroke-width="1.5"/><path d="M2048.113,113.677" fill="none" stroke="#1d1d1b" stroke-miterlimit="10" stroke-width="1.5"/><path d="M2047.9,114.4a127.958,127.958,0,0,0-72.294,0l-.426-1.439a129.46,129.46,0,0,1,73.145,0Z" fill="#1d1d1b"/><path d="M2011.753,123.136a128.989,128.989,0,0,1-36.589-5.3l.426-1.438a127.977,127.977,0,0,0,72.325,0l.426,1.438A128.971,128.971,0,0,1,2011.753,123.136Z" fill="#1d1d1b"/></g></svg>