<svg xmlns="http://www.w3.org/2000/svg" width="176.898" height="133.465" viewBox="0 0 176.898 133.465"><g transform="translate(-569.213 258.993)"><rect width="175.398" height="78.697" transform="translate(569.964 -232.029)" fill="#fff"/><path d="M626.624-231.225v-27.017H745.361v104.911" fill="#fff"/><path d="M746.111-153.332h-1.5V-257.493H627.373v26.268h-1.5v-27.768H746.111Z" fill="#1d1d1b"/><path d="M671.6-153.332H569.964v-77.894" fill="#fff"/><path d="M671.6-152.582H569.213v-78.644h1.5v77.144H671.6Z" fill="#1d1d1b"/><path d="M597.088-211.821h-7.719v-9.006h7.719Zm-6.219-1.5h4.719v-6.006h-4.719Z" fill="#1d1d1b"/><path d="M613.169-211.821h-7.718v-9.006h7.718Zm-6.218-1.5h4.718v-6.006h-4.718Z" fill="#1d1d1b"/><path d="M629.251-211.821h-7.719v-9.006h7.719Zm-6.219-1.5h4.719v-6.006h-4.719Z" fill="#1d1d1b"/><path d="M645.333-211.821h-7.719v-9.006h7.719Zm-6.219-1.5h4.719v-6.006h-4.719Z" fill="#1d1d1b"/><path d="M661.414-211.821H653.7v-9.006h7.718Zm-6.218-1.5h4.718v-6.006H655.2Z" fill="#1d1d1b"/><path d="M597.088-196.6h-7.719V-205.6h7.719Zm-6.219-1.5h4.719V-204.1h-4.719Z" fill="#1d1d1b"/><path d="M613.169-196.6h-7.718V-205.6h7.718Zm-6.218-1.5h4.718V-204.1h-4.718Z" fill="#1d1d1b"/><path d="M629.251-196.6h-7.719V-205.6h7.719Zm-6.219-1.5h4.719V-204.1h-4.719Z" fill="#1d1d1b"/><path d="M645.333-196.6h-7.719V-205.6h7.719Zm-6.219-1.5h4.719V-204.1h-4.719Z" fill="#1d1d1b"/><path d="M661.414-196.6H653.7V-205.6h7.718Zm-6.218-1.5h4.718V-204.1H655.2Z" fill="#1d1d1b"/><path d="M597.088-181.374h-7.719v-9.006h7.719Zm-6.219-1.5h4.719v-6.006h-4.719Z" fill="#1d1d1b"/><path d="M613.169-181.374h-7.718v-9.006h7.718Zm-6.218-1.5h4.718v-6.006h-4.718Z" fill="#1d1d1b"/><path d="M629.251-181.374h-7.719v-9.006h7.719Zm-6.219-1.5h4.719v-6.006h-4.719Z" fill="#1d1d1b"/><path d="M661.414-181.374H653.7v-9.006h7.718Zm-6.218-1.5h4.718v-6.006H655.2Z" fill="#1d1d1b"/><path d="M670.42-237.766H662.7v-9.006h7.718Zm-6.218-1.5h4.718v-6.006H664.2Z" fill="#1d1d1b"/><path d="M686.5-237.766h-7.719v-9.006H686.5Zm-6.219-1.5H685v-6.006h-4.719Z" fill="#1d1d1b"/><path d="M702.583-237.766h-7.718v-9.006h7.718Zm-6.218-1.5h4.718v-6.006h-4.718Z" fill="#1d1d1b"/><path d="M718.665-237.766h-7.718v-9.006h7.718Zm-6.218-1.5h4.718v-6.006h-4.718Z" fill="#1d1d1b"/><path d="M734.747-237.766h-7.719v-9.006h7.719Zm-6.219-1.5h4.719v-6.006h-4.719Z" fill="#1d1d1b"/><path d="M686.5-222.542h-7.719v-9.007H686.5Zm-6.219-1.5H685v-6.007h-4.719Z" fill="#1d1d1b"/><path d="M702.583-222.542h-7.718v-9.007h7.718Zm-6.218-1.5h4.718v-6.007h-4.718Z" fill="#1d1d1b"/><path d="M718.665-222.542h-7.718v-9.007h7.718Zm-6.218-1.5h4.718v-6.007h-4.718Z" fill="#1d1d1b"/><path d="M734.747-222.542h-7.719v-9.007h7.719Zm-6.219-1.5h4.719v-6.007h-4.719Z" fill="#1d1d1b"/><path d="M686.5-207.319h-7.719v-9.006H686.5Zm-6.219-1.5H685v-6.006h-4.719Z" fill="#1d1d1b"/><path d="M702.583-207.319h-7.718v-9.006h7.718Zm-6.218-1.5h4.718v-6.006h-4.718Z" fill="#1d1d1b"/><path d="M718.665-207.319h-7.718v-9.006h7.718Zm-6.218-1.5h4.718v-6.006h-4.718Z" fill="#1d1d1b"/><path d="M734.747-207.319h-7.719v-9.006h7.719Zm-6.219-1.5h4.719v-6.006h-4.719Z" fill="#1d1d1b"/><path d="M709.387-169.674a15.67,15.67,0,0,0-4.6.688,15.412,15.412,0,0,0-14.043-9.1,15.352,15.352,0,0,0-8.879,2.822,23.934,23.934,0,0,0-24.971-19.8c-8.747.5-16.423,6.119-20.221,14.015a22.457,22.457,0,0,0-1.639,15.51,14.882,14.882,0,0,0-6.529,11.827c-.282,8.466,7.019,15.4,15.49,15.4h64.615c.089,0,.171-.024.258-.026.173.006.341.026.515.026a15.681,15.681,0,0,0,15.681-15.681A15.681,15.681,0,0,0,709.387-169.674Z" fill="#82abdb"/><path d="M665.343-125.528,656.716-133l.982-1.134,7.645,6.62,7.645-6.62L673.97-133Z" fill="#1d1d1b"/><path d="M696.937-144.139l-7.645-6.621-7.645,6.621-.982-1.134,8.627-7.471,8.627,7.471Z" fill="#1d1d1b"/><line y1="25.232" transform="translate(689.292 -151.752)" fill="#fff"/><rect width="1.5" height="25.232" transform="translate(688.542 -151.752)" fill="#1d1d1b"/><line y1="23.584" transform="translate(665.343 -150.104)" fill="#fff"/><rect width="1.5" height="23.583" transform="translate(664.593 -150.104)" fill="#1d1d1b"/><path d="M708.026-140.026c-.121,0-.238-.007-.355-.015l-.186-.011a.989.989,0,0,1-.233.026H695.384v-1.5h11.868a1.914,1.914,0,0,1,.242-.026l.281.014c.083.006.166.012.251.012a14.947,14.947,0,0,0,14.93-14.93,14.948,14.948,0,0,0-14.93-14.931,14.912,14.912,0,0,0-4.377.655l-.631.193-.273-.6a14.706,14.706,0,0,0-13.358-8.658,14.588,14.588,0,0,0-8.446,2.684l-.97.684-.2-1.168a23.193,23.193,0,0,0-24.19-19.183A23.5,23.5,0,0,0,635.99-183.19a21.659,21.659,0,0,0-1.585,15.01l.121.5-.428.292a14.194,14.194,0,0,0-6.2,11.231,13.709,13.709,0,0,0,3.958,10.034,15.092,15.092,0,0,0,10.782,4.593h17.391v1.5H642.637a16.6,16.6,0,0,1-11.861-5.05A15.2,15.2,0,0,1,626.4-156.2a15.7,15.7,0,0,1,6.434-12.125,23.052,23.052,0,0,1,1.808-15.513,24.994,24.994,0,0,1,20.854-14.439,24.7,24.7,0,0,1,25.536,19.316,16.055,16.055,0,0,1,8.358-2.335,16.209,16.209,0,0,1,14.446,8.954,16.419,16.419,0,0,1,4.193-.543,16.449,16.449,0,0,1,16.43,16.431A16.449,16.449,0,0,1,708.026-140.026Z" fill="#1d1d1b"/></g></svg>