<svg xmlns="http://www.w3.org/2000/svg" width="1042.604" height="414.681" viewBox="0 0 1042.604 414.681"><g transform="translate(10680.869 6290.365)"><line y1="87.893" transform="translate(-10610.407 -6067.5)" fill="none" stroke="#4e4e4e" stroke-linecap="round" stroke-width="5"/><line y1="87.893" transform="translate(-10441.828 -6067.5)" fill="none" stroke="#4e4e4e" stroke-linecap="round" stroke-width="5"/><line y1="87.893" transform="translate(-10256.961 -6067.5)" fill="none" stroke="#4e4e4e" stroke-linecap="round" stroke-width="5"/><line y1="87.893" transform="translate(-10087.575 -6067.5)" fill="none" stroke="#4e4e4e" stroke-linecap="round" stroke-width="5"/><line y1="136.893" transform="translate(-9910.822 -6116.5)" fill="none" stroke="#4e4e4e" stroke-linecap="round" stroke-width="5"/><line x2="698.907" transform="translate(-10610.407 -6067.5)" fill="none" stroke="#4e4e4e" stroke-linecap="round" stroke-width="5"/><line x2="195.254" transform="translate(-10150.5 -6180.516)" fill="none" stroke="#57a580" stroke-linecap="round" stroke-width="5"/><line x2="195.254" transform="translate(-10476.582 -6180.516)" fill="none" stroke="#57a580" stroke-linecap="round" stroke-width="5"/><line y1="176.18" transform="translate(-9728.047 -6151.031)" fill="none" stroke="#4e4e4e" stroke-linecap="round" stroke-width="5"/><line y1="176.18" transform="translate(-9897.072 -6151.031)" fill="none" stroke="#57a580" stroke-linecap="round" stroke-width="5"/><line y1="81.649" transform="translate(-10428.072 -6056.5)" fill="none" stroke="#57a580" stroke-linecap="round" stroke-width="5"/><line y1="81.649" transform="translate(-10073.819 -6056.5)" fill="none" stroke="#57a580" stroke-linecap="round" stroke-width="5"/><line x2="529" transform="translate(-10426.5 -6056.5)" fill="none" stroke="#57a580" stroke-linecap="round" stroke-width="5"/><path d="M-22.708-10.64v1.316H-30.03V-10.64h2.744v-1.106h1.848v1.106Zm-5.054,3.654a.61.61,0,0,0,.371.56,2.229,2.229,0,0,0,1.029.2q1.386,0,1.386-.756t-1.386-.77Q-27.762-7.756-27.762-6.986ZM-22.386-4.7l.14,1.26a45.929,45.929,0,0,1-7.91.574l-.2-1.414q1.96,0,3.066-.042v-.742a3.2,3.2,0,0,1-1.631-.658,1.584,1.584,0,0,1-.595-1.26,1.655,1.655,0,0,1,.854-1.463,4.265,4.265,0,0,1,2.3-.539,4.235,4.235,0,0,1,2.282.539,1.655,1.655,0,0,1,.854,1.463,1.59,1.59,0,0,1-.595,1.253,3.148,3.148,0,0,1-1.617.665v.658Q-23.576-4.536-22.386-4.7Zm-4.326,2.45V-.49h7.168V.98H-28.56V-2.254Zm6.734-5.222h1.624v1.512h-1.624v4.34h-1.848V-11.7h1.848Zm10.892-.7H-11.76q-1.19,3.024-5.446,4.214l-.714-1.456q4.214-1.12,4.592-3.92H-17.22v-1.484h5.908A8.112,8.112,0,0,1-11.4-9.646h2.31V-11.69h1.848v7.42H-9.086V-5.5h-2.842V-6.986h2.842ZM-13.363-.6a4.653,4.653,0,0,0,1.869.3A4.6,4.6,0,0,0-9.632-.6a.958.958,0,0,0,.658-.889.958.958,0,0,0-.658-.889,4.6,4.6,0,0,0-1.862-.3,4.653,4.653,0,0,0-1.869.3.959.959,0,0,0-.665.889A.959.959,0,0,0-13.363-.6ZM-11.494-4.1a6.12,6.12,0,0,1,3.157.707A2.148,2.148,0,0,1-7.154-1.484,2.148,2.148,0,0,1-8.337.427a6.12,6.12,0,0,1-3.157.707A6.152,6.152,0,0,1-14.665.427a2.148,2.148,0,0,1-1.183-1.911,2.148,2.148,0,0,1,1.183-1.911A6.152,6.152,0,0,1-11.494-4.1ZM-3.64-8.764v5.586A20.5,20.5,0,0,0-.126-3.514L.028-2a25.223,25.223,0,0,1-4.606.336H-5.46v-8.568H-.546v1.47ZM.812-6.986v-4.466H2.534V.63H.812V-5.488h-2.24v-1.5ZM3.486-11.7h1.75V1.19H3.486Zm11.69,0h1.848V1.232H15.176ZM7.658-9.541a2.933,2.933,0,0,1,2.436-1.253A2.933,2.933,0,0,1,12.53-9.541,5.382,5.382,0,0,1,13.482-6.2a5.438,5.438,0,0,1-.952,3.36,2.928,2.928,0,0,1-2.436,1.26,2.928,2.928,0,0,1-2.436-1.26A5.438,5.438,0,0,1,6.706-6.2,5.382,5.382,0,0,1,7.658-9.541Zm3.605,1.176a1.32,1.32,0,0,0-1.169-.763,1.32,1.32,0,0,0-1.169.763A4.364,4.364,0,0,0,8.484-6.2a4.405,4.405,0,0,0,.441,2.17,1.319,1.319,0,0,0,1.169.77,1.319,1.319,0,0,0,1.169-.77A4.405,4.405,0,0,0,11.7-6.2,4.364,4.364,0,0,0,11.263-8.365Zm9.681,2.779v2.408a33.432,33.432,0,0,0,4.732-.336l.168,1.484a38.091,38.091,0,0,1-5.684.336H19.11v-8.918h5.964v1.484h-4.13v2.1h3.7v1.442ZM27.5-11.7h1.848V1.232H27.5v-6.9H25.284V-7.154H27.5Z" transform="translate(-10383.34 -6082.675)" fill="#383838"/><path d="M-20.02-8.9v.63a8.4,8.4,0,0,0,.588,3.213,4.429,4.429,0,0,0,1.9,2.205l-1.078,1.344a5.243,5.243,0,0,1-2.3-3.15A5.907,5.907,0,0,1-23.268-1.2L-24.36-2.562a4.9,4.9,0,0,0,1.932-2.366,8.858,8.858,0,0,0,.616-3.346V-8.9h-2.072v-1.5h5.74v1.5Zm2.618,1.61V-11.48h1.722V.616H-17.4V-5.8H-19.04v-1.5Zm2.6-4.41h1.75V1.19H-14.8Zm6.4,8.442a1.29,1.29,0,0,0,1.155-.763A4.52,4.52,0,0,0-6.818-6.2a4.484,4.484,0,0,0-.427-2.163A1.29,1.29,0,0,0-8.4-9.128a1.281,1.281,0,0,0-1.141.763A4.484,4.484,0,0,0-9.968-6.2a4.52,4.52,0,0,0,.427,2.177A1.281,1.281,0,0,0-8.4-3.262ZM-2.954-11.7h1.848V1.232H-2.954v-6.79H-5.1a4.977,4.977,0,0,1-1.043,2.9A2.837,2.837,0,0,1-8.4-1.582a2.866,2.866,0,0,1-2.394-1.26,5.5,5.5,0,0,1-.938-3.36,5.44,5.44,0,0,1,.938-3.339A2.871,2.871,0,0,1-8.4-10.794a2.852,2.852,0,0,1,2.212,1A4.728,4.728,0,0,1-5.11-7.056h2.156ZM7.252-8.582H9.184V-11.69h1.848v7.672H9.184V-7.084H7.252Zm.77,2.772-.9,1.442A4.832,4.832,0,0,1,4.2-6.874,4.919,4.919,0,0,1,1.12-4.018L.182-5.474A4.394,4.394,0,0,0,2.408-7.063,4.263,4.263,0,0,0,3.22-9.436H.686V-10.92h6.93v1.484H5.11a3.81,3.81,0,0,0,.777,2.17A4.194,4.194,0,0,0,8.022-5.81ZM6.678-.182Q9.24-.182,9.24-1.26T6.678-2.338Q4.1-2.338,4.1-1.26T6.678-.182Zm0-3.556a6.72,6.72,0,0,1,3.234.651A2.01,2.01,0,0,1,11.088-1.26,2.01,2.01,0,0,1,9.912.567a6.72,6.72,0,0,1-3.234.651A6.755,6.755,0,0,1,3.43.567,2.01,2.01,0,0,1,2.254-1.26,2.01,2.01,0,0,1,3.43-3.087,6.755,6.755,0,0,1,6.678-3.738Zm8.82-3.7v1.806h5.516V-7.434ZM19.18-1.792h4.928v1.5H12.432v-1.5h4.9V-4.158H13.664v-6.734H15.5v2h5.516v-2h1.82v6.734H19.18Z" transform="translate(-9860.947 -6066.941)" fill="#383838"/><path d="M-20.02-8.9v.63a8.4,8.4,0,0,0,.588,3.213,4.429,4.429,0,0,0,1.9,2.205l-1.078,1.344a5.243,5.243,0,0,1-2.3-3.15A5.907,5.907,0,0,1-23.268-1.2L-24.36-2.562a4.9,4.9,0,0,0,1.932-2.366,8.858,8.858,0,0,0,.616-3.346V-8.9h-2.072v-1.5h5.74v1.5Zm2.618,1.61V-11.48h1.722V.616H-17.4V-5.8H-19.04v-1.5Zm2.6-4.41h1.75V1.19H-14.8Zm6.4,8.442a1.29,1.29,0,0,0,1.155-.763A4.52,4.52,0,0,0-6.818-6.2a4.484,4.484,0,0,0-.427-2.163A1.29,1.29,0,0,0-8.4-9.128a1.281,1.281,0,0,0-1.141.763A4.484,4.484,0,0,0-9.968-6.2a4.52,4.52,0,0,0,.427,2.177A1.281,1.281,0,0,0-8.4-3.262ZM-2.954-11.7h1.848V1.232H-2.954v-6.79H-5.1a4.977,4.977,0,0,1-1.043,2.9A2.837,2.837,0,0,1-8.4-1.582a2.866,2.866,0,0,1-2.394-1.26,5.5,5.5,0,0,1-.938-3.36,5.44,5.44,0,0,1,.938-3.339A2.871,2.871,0,0,1-8.4-10.794a2.852,2.852,0,0,1,2.212,1A4.728,4.728,0,0,1-5.11-7.056h2.156ZM7.252-8.582H9.184V-11.69h1.848v7.672H9.184V-7.084H7.252Zm.77,2.772-.9,1.442A4.832,4.832,0,0,1,4.2-6.874,4.919,4.919,0,0,1,1.12-4.018L.182-5.474A4.394,4.394,0,0,0,2.408-7.063,4.263,4.263,0,0,0,3.22-9.436H.686V-10.92h6.93v1.484H5.11a3.81,3.81,0,0,0,.777,2.17A4.194,4.194,0,0,0,8.022-5.81ZM6.678-.182Q9.24-.182,9.24-1.26T6.678-2.338Q4.1-2.338,4.1-1.26T6.678-.182Zm0-3.556a6.72,6.72,0,0,1,3.234.651A2.01,2.01,0,0,1,11.088-1.26,2.01,2.01,0,0,1,9.912.567a6.72,6.72,0,0,1-3.234.651A6.755,6.755,0,0,1,3.43.567,2.01,2.01,0,0,1,2.254-1.26,2.01,2.01,0,0,1,3.43-3.087,6.755,6.755,0,0,1,6.678-3.738Zm8.82-3.7v1.806h5.516V-7.434ZM19.18-1.792h4.928v1.5H12.432v-1.5h4.9V-4.158H13.664v-6.734H15.5v2h5.516v-2h1.82v6.734H19.18Z" transform="translate(-10389.316 -6032.053)" fill="#383838"/><path d="M-22.19-7.84a1.531,1.531,0,0,0,.455,1.162,1.643,1.643,0,0,0,1.183.434,1.668,1.668,0,0,0,1.19-.434A1.518,1.518,0,0,0-18.9-7.84a1.513,1.513,0,0,0-.462-1.169,1.684,1.684,0,0,0-1.19-.427,1.659,1.659,0,0,0-1.183.427A1.525,1.525,0,0,0-22.19-7.84Zm7.014-.7H-17.22a3.862,3.862,0,0,1,.07.7,3.112,3.112,0,0,1-.084.7h2.058Zm0,2.87h-2.87a3.393,3.393,0,0,1-2.506.98,3.43,3.43,0,0,1-2.415-.9A2.934,2.934,0,0,1-23.94-7.84a2.95,2.95,0,0,1,.973-2.268,3.43,3.43,0,0,1,2.415-.9,3.432,3.432,0,0,1,2.534.994h2.842v-1.68h1.848v7.56h-1.848ZM-17.7-.21q2.6,0,2.6-1.12t-2.6-1.12q-2.59,0-2.59,1.12T-17.7-.21Zm0-3.668a6.584,6.584,0,0,1,3.241.672A2.073,2.073,0,0,1-13.272-1.33,2.078,2.078,0,0,1-14.455.539a6.528,6.528,0,0,1-3.241.679A6.494,6.494,0,0,1-20.923.539,2.078,2.078,0,0,1-22.106-1.33a2.073,2.073,0,0,1,1.183-1.876A6.55,6.55,0,0,1-17.7-3.878Zm13.37-2.1L-5.292-4.55A4.665,4.665,0,0,1-8.134-6.958a4.893,4.893,0,0,1-3.024,2.772l-.966-1.456A4.183,4.183,0,0,0-9.849-7.28,4.521,4.521,0,0,0-9.1-9.828V-10.99h1.876v1.316A3.752,3.752,0,0,0-6.5-7.427,4.037,4.037,0,0,0-4.326-5.978ZM-5.992-.224q2.52,0,2.52-1.064t-2.52-1.05q-2.534,0-2.534,1.05T-5.992-.224Zm0-3.542a6.513,6.513,0,0,1,3.185.658,2.016,2.016,0,0,1,1.169,1.82A2.026,2.026,0,0,1-2.807.546,6.513,6.513,0,0,1-5.992,1.2a6.548,6.548,0,0,1-3.2-.658A2.026,2.026,0,0,1-10.36-1.288a2.016,2.016,0,0,1,1.169-1.82A6.548,6.548,0,0,1-5.992-3.766Zm4.214-4.928H-.07v1.526H-1.778V-4.06H-3.626v-7.616h1.848Zm9.03.112H9.184V-11.69h1.848v7.672H9.184V-7.084H7.252Zm.77,2.772-.9,1.442A4.832,4.832,0,0,1,4.2-6.874,4.919,4.919,0,0,1,1.12-4.018L.182-5.474A4.394,4.394,0,0,0,2.408-7.063,4.263,4.263,0,0,0,3.22-9.436H.686V-10.92h6.93v1.484H5.11a3.81,3.81,0,0,0,.777,2.17A4.194,4.194,0,0,0,8.022-5.81ZM6.678-.182Q9.24-.182,9.24-1.26T6.678-2.338Q4.1-2.338,4.1-1.26T6.678-.182Zm0-3.556a6.72,6.72,0,0,1,3.234.651A2.01,2.01,0,0,1,11.088-1.26,2.01,2.01,0,0,1,9.912.567a6.72,6.72,0,0,1-3.234.651A6.755,6.755,0,0,1,3.43.567,2.01,2.01,0,0,1,2.254-1.26,2.01,2.01,0,0,1,3.43-3.087,6.755,6.755,0,0,1,6.678-3.738Zm8.82-3.7v1.806h5.516V-7.434ZM19.18-1.792h4.928v1.5H12.432v-1.5h4.9V-4.158H13.664v-6.734H15.5v2h5.516v-2h1.82v6.734H19.18Z" transform="translate(-9691.922 -6066.941)" fill="#383838"/><g transform="translate(-10327.423 -6016.607)"><g transform="translate(0)" fill="#57a580" stroke="#4e4e4e" stroke-width="5"><circle cx="70.462" cy="70.462" r="70.462" stroke="none"/><circle cx="70.462" cy="70.462" r="67.962" fill="none"/></g><path d="M-10.4.238C-7.5.238-5.78-1.513-5.78-3.57A3.475,3.475,0,0,0-8.313-6.987l-1.649-.7c-1.071-.425-1.972-.748-1.972-1.649,0-.833.714-1.326,1.819-1.326A4.013,4.013,0,0,1-7.446-9.622L-6.171-11.2a5.583,5.583,0,0,0-3.944-1.615c-2.55,0-4.352,1.581-4.352,3.638A3.644,3.644,0,0,0-11.917-5.8l1.683.714c1.122.476,1.887.765,1.887,1.7,0,.884-.7,1.445-2.006,1.445a4.949,4.949,0,0,1-3.2-1.394L-14.994-1.6A6.7,6.7,0,0,0-10.4.238ZM-4.4,0h2.516V-4.471H-.2c2.7,0,4.862-1.292,4.862-4.165,0-2.975-2.142-3.944-4.93-3.944H-4.4Zm2.516-6.46v-4.131H-.459c1.734,0,2.652.493,2.652,1.955,0,1.445-.833,2.176-2.567,2.176ZM11.22.238a5.091,5.091,0,0,0,4.012-1.853L13.906-3.179a3.5,3.5,0,0,1-2.6,1.241c-1.989,0-3.281-1.649-3.281-4.386,0-2.7,1.428-4.335,3.332-4.335A3.244,3.244,0,0,1,13.668-9.6l1.326-1.6a5.132,5.132,0,0,0-3.689-1.615c-3.179,0-5.848,2.431-5.848,6.579C5.457-2.04,8.041.238,11.22.238Zm-31.4,5.842h-3.315V4.737h-2.244V6.08H-29.07v1.6h8.891Zm-6.137,4.437c0-.612.646-.935,1.7-.935s1.683.323,1.683.935c0,.595-.629.918-1.683.918S-26.316,11.112-26.316,10.517Zm6.528,2.771c-1.19.17-2.431.272-3.706.357v-.8c1.649-.255,2.686-1.105,2.686-2.329,0-1.513-1.513-2.431-3.808-2.431-2.312,0-3.825.918-3.825,2.431,0,1.224,1.037,2.074,2.7,2.329v.9c-1.343.051-2.618.051-3.723.051l.238,1.717a56.017,56.017,0,0,0,9.605-.7Zm-5.253,2.975h-2.244V20.19h10.948V18.405h-8.7Zm8.177-6.341V4.788h-2.244v12.24h2.244v-5.27h1.972V9.922Zm13.226-.85v1.445H-7.089v1.8h3.451v1.5h2.244V4.8H-3.638V7.287H-6.443a9.736,9.736,0,0,0,.1-1.428h-7.174v1.8h4.726c-.289,2.125-2.006,3.808-5.576,4.76l.867,1.768c3.451-.969,5.644-2.652,6.613-5.117Zm-2.924,9.571c-1.938,0-3.077-.493-3.077-1.445s1.139-1.445,3.077-1.445c1.921,0,3.06.493,3.06,1.445S-4.641,18.643-6.562,18.643Zm0-4.624c-3.2,0-5.287,1.224-5.287,3.179s2.091,3.179,5.287,3.179c3.179,0,5.27-1.224,5.27-3.179S-3.383,14.019-6.562,14.019ZM13.651,4.8H11.526V16.518h2.125ZM8.4,16.059h2.091V5.077H8.4v3.3H6.545v1.819H8.4Zm-.459-3.638a4.782,4.782,0,0,1-2.7-4.556V5.859H3.06V7.865A5.318,5.318,0,0,1,.1,12.812l1.224,1.7a5.769,5.769,0,0,0,2.856-3.094,5.072,5.072,0,0,0,2.533,2.72ZM5.355,18.405V15.158H3.111V20.19H14.042V18.405ZM20.978,6.012H18.717V8.273c0,2.975-1.19,6.018-3.842,7.242l1.394,1.8a7.536,7.536,0,0,0,3.6-4.522,7.032,7.032,0,0,0,3.5,4.25L24.7,15.26c-2.584-1.156-3.723-4.029-3.723-6.987Zm5.015-1.224V9.7H22.984v1.8h3.009V20.5h2.244V4.788Z" transform="translate(70.462 68.462)" fill="#fff"/></g><g transform="translate(-10151.159 -6017.408)"><g transform="translate(0)" fill="#57a580" stroke="#4e4e4e" stroke-width="5"><circle cx="70.462" cy="70.462" r="70.462" stroke="none"/><circle cx="70.462" cy="70.462" r="67.962" fill="none"/></g><path d="M-32.589.238c2.907,0,4.624-1.751,4.624-3.808A3.475,3.475,0,0,0-30.5-6.987l-1.649-.7c-1.071-.425-1.972-.748-1.972-1.649,0-.833.714-1.326,1.819-1.326a4.013,4.013,0,0,1,2.669,1.037l1.275-1.581A5.583,5.583,0,0,0-32.3-12.818c-2.55,0-4.352,1.581-4.352,3.638A3.644,3.644,0,0,0-34.1-5.8l1.683.714c1.122.476,1.887.765,1.887,1.7,0,.884-.7,1.445-2.006,1.445a4.949,4.949,0,0,1-3.2-1.394L-37.179-1.6A6.7,6.7,0,0,0-32.589.238Zm6-.238h2.516V-4.471h1.683c2.7,0,4.862-1.292,4.862-4.165,0-2.975-2.142-3.944-4.93-3.944h-4.131Zm2.516-6.46v-4.131h1.428c1.734,0,2.652.493,2.652,1.955,0,1.445-.833,2.176-2.567,2.176Zm13.107,6.7A5.091,5.091,0,0,0-6.953-1.615L-8.279-3.179a3.5,3.5,0,0,1-2.6,1.241c-1.989,0-3.281-1.649-3.281-4.386,0-2.7,1.428-4.335,3.332-4.335A3.244,3.244,0,0,1-8.517-9.6l1.326-1.6a5.132,5.132,0,0,0-3.689-1.615c-3.179,0-5.848,2.431-5.848,6.579C-16.728-2.04-14.144.238-10.965.238ZM4.25-6.239H6.494V-14.2H4.25v2.3H1.394v1.785H4.25Zm-1.5-1.9a4.55,4.55,0,0,1-3.519-4.42v-1.122H-3.026v1.122A4.756,4.756,0,0,1-6.715-7.871L-5.559-6.12A5.962,5.962,0,0,0-1.853-9.3,5.712,5.712,0,0,0,1.615-6.426ZM-1.6-.459v-.918H6.494v-4.2H-3.825v1.717H4.284v.867H-3.808V1.292H6.936V-.459ZM18.921-14.212V1.5h2.244V-14.212ZM8.959-12.954v10.8h7.718v-10.8H14.45v3.791H11.186v-3.791Zm2.227,5.542H14.45v3.468H11.186ZM33.83-10.523v1.156H31.042v-1.156ZM28.849-8.33H25.874v-1.7h2.975Zm2.193.663H33.83v1.513h2.244v-8.024H33.83v1.955H31.042v-1.326H28.849v1.836H25.874v-1.836H23.647v6.97h7.4ZM27.982-.459v-.918h8.092V-5.559H25.738v1.734h8.109v.833H25.772V1.292H36.516V-.459ZM-24.488,12.183c-3.536-.612-5.474-3.043-5.474-5.338V5.723h-2.4V6.845c0,2.244-1.955,4.726-5.474,5.338l.952,1.87a7.859,7.859,0,0,0,5.712-4.046,7.935,7.935,0,0,0,5.729,4.046Zm-13.685,4.556v1.819H-24V16.739ZM-20.7,8.052h3.06v6.834H-20.7Zm-2.21,8.6h7.48V6.284h-7.48ZM-8.848,10.7h-2.278V4.822H-13.37v15.64h2.244V12.557h2.278ZM4.072,12.88H-4.649V11.129H3.6V9.4H-4.649V7.746h8.6v-1.8H-6.927v8.7h11ZM-8.593,16.841V18.66H5.585V16.841ZM22.551,4.8H20.426V16.518h2.125ZM17.3,16.059h2.091V5.077H17.3v3.3H15.445v1.819H17.3Zm-.459-3.638a4.782,4.782,0,0,1-2.7-4.556V5.859H11.96V7.865A5.318,5.318,0,0,1,9,12.812l1.224,1.7a5.769,5.769,0,0,0,2.856-3.094,5.072,5.072,0,0,0,2.533,2.72Zm-2.584,5.984V15.158H12.011V20.19H22.942V18.405ZM29.878,6.012H27.617V8.273c0,2.975-1.19,6.018-3.842,7.242l1.394,1.8a7.536,7.536,0,0,0,3.6-4.522,7.032,7.032,0,0,0,3.5,4.25L33.6,15.26c-2.584-1.156-3.723-4.029-3.723-6.987Zm5.015-1.224V9.7H31.884v1.8h3.009V20.5h2.244V4.788Z" transform="translate(70.462 68.462)" fill="#fff"/></g><g transform="translate(-10680.869 -6017.408)"><g transform="translate(0)" fill="#57a580" stroke="#4e4e4e" stroke-width="5"><circle cx="70.462" cy="70.462" r="70.462" stroke="none"/><circle cx="70.462" cy="70.462" r="67.962" fill="none"/></g><path d="M-19.907-6.987c-2.5-.646-3.587-2.244-3.621-3.825h3.094v-1.751h-3.094v-1.683h-2.244v1.683h-3.06v1.751h3.06A4.455,4.455,0,0,1-29.393-6.6l1.071,1.751A5.8,5.8,0,0,0-24.6-7.905a5.781,5.781,0,0,0,3.672,2.652ZM-22.066-.255c-2.023,0-3.077-.391-3.077-1.241s1.054-1.241,3.077-1.241c2.006,0,3.06.391,3.06,1.241S-20.06-.255-22.066-.255Zm0-4.216c-3.281,0-5.3,1.105-5.3,2.975s2.023,2.958,5.3,2.958c3.264,0,5.287-1.088,5.287-2.958S-18.8-4.471-22.066-4.471Zm5.117-6.052V-14.2h-2.244V-4.76h2.244V-8.687h2.074v-1.836ZM-2.295-3.859a36.229,36.229,0,0,0,.629-7.5v-1.5H-13.039v1.785H-3.91a32.714,32.714,0,0,1-.629,6.953Zm-4.93,1.632V-7.616H-9.469v5.389h-5v1.8H-.306v-1.8ZM8.67-7.48a24.262,24.262,0,0,0,.357-4.607v-.969H.986v1.785H6.817a22.293,22.293,0,0,1-.34,3.536Zm1.037.629c-1.462.2-3.026.323-4.573.391V-9.418H2.941v3.043c-1.02.017-1.989.017-2.856.017l.2,1.785a56.832,56.832,0,0,0,9.554-.68Zm-5.1,3.332H2.363V1.19H13.294V-.6H4.607ZM12.8-9.435v-4.777H10.557v11.73H12.8v-5.1h1.87V-9.435Zm5.423,2.618h5.083v-6.052h-7.4v1.785h5.1v2.5H15.929v6.443H17.34a42.938,42.938,0,0,0,7.684-.544l-.238-1.819A39.181,39.181,0,0,1,18.224-4Zm7.65-7.4V1.5h2.244V-14.212ZM-15.81,6.012h-2.244V8.29c0,3.043-1.292,6.069-4.029,7.242l1.343,1.853A7.575,7.575,0,0,0-16.9,12.727a7.153,7.153,0,0,0,3.706,4.284l1.275-1.819c-2.652-1.139-3.893-3.995-3.893-6.9Zm4.658-1.224V20.5h2.244V4.788ZM6.6,12.183C3.06,11.571,1.122,9.14,1.122,6.845V5.723h-2.4V6.845c0,2.244-1.955,4.726-5.474,5.338l.952,1.87A7.859,7.859,0,0,0-.085,10.007a7.935,7.935,0,0,0,5.729,4.046ZM-7.089,16.739v1.819H7.089V16.739Zm22.933-2.7h2.091V5.043H15.844V8.562h-1.53v1.8h1.53Zm-1.088-2.6a23.988,23.988,0,0,1-4.284.357V10.449h3.179v-1.7H10.472V7.508H14.2V5.74H8.313v7.82H9.384a28.881,28.881,0,0,0,5.559-.357Zm-2.108,5.083h6.205v2.006H12.648Zm-2.21,3.757H21.046V14.767H10.438ZM18.921,4.822v9.333h2.125V4.822Z" transform="translate(68.711 68.715)" fill="#fff"/></g><g transform="translate(-9975.081 -6017.408)"><g transform="translate(0)" fill="#57a580" stroke="#4e4e4e" stroke-width="5"><circle cx="70.462" cy="70.462" r="70.462" stroke="none"/><circle cx="70.462" cy="70.462" r="67.962" fill="none"/></g><path d="M-30.787-10.88v.544a9.087,9.087,0,0,0,.408,2.72,7.424,7.424,0,0,0,1.292,2.423A5.794,5.794,0,0,0-26.945-3.5l-1.292,1.768a7.284,7.284,0,0,1-3.655-4.437,7.511,7.511,0,0,1-3.689,4.743L-36.907-3.2a6.063,6.063,0,0,0,2.864-2.856,9.378,9.378,0,0,0,.995-4.284v-.544h-3.213V-12.7h8.687v1.819Zm5.015-3.332h2.244V1.5h-2.244V-6.919h-2.754V-8.738h2.754Zm7.854,10.863V-.6h8.6V1.19H-20.162V-3.349Zm-.238-7.225q0,1.445,3.349,1.445,3.366,0,3.366-1.445,0-.714-.884-1.088a6.565,6.565,0,0,0-2.482-.374,6.508,6.508,0,0,0-2.465.374Q-18.156-11.288-18.156-10.574ZM-13.7-6.137h5.967v1.785H-21.879V-6.137h5.933V-7.4a6.829,6.829,0,0,1-3.307-1.028,2.526,2.526,0,0,1-1.215-2.151,2.638,2.638,0,0,1,1.547-2.354,8.336,8.336,0,0,1,4.114-.876,8.377,8.377,0,0,1,4.131.876,2.638,2.638,0,0,1,1.547,2.354,2.519,2.519,0,0,1-1.233,2.151A6.97,6.97,0,0,1-13.7-7.4Zm12.5-4.743v.544A9.087,9.087,0,0,0-.8-7.616,7.424,7.424,0,0,0,.493-5.194,5.793,5.793,0,0,0,2.635-3.5L1.343-1.734A7.284,7.284,0,0,1-2.312-6.171,7.511,7.511,0,0,1-6-1.428L-7.327-3.2A6.063,6.063,0,0,0-4.462-6.052a9.378,9.378,0,0,0,.995-4.284v-.544H-6.681V-12.7H2.006v1.819Zm5.015-3.332H6.052V1.5H3.808V-6.919H1.054V-8.738H3.808ZM17.034-7.089,15.963-5.355a5.648,5.648,0,0,1-3.587-2.839A5.985,5.985,0,0,1,8.6-4.811L7.48-6.562a5.308,5.308,0,0,0,2.729-1.921,5.064,5.064,0,0,0,.96-2.873H8.058v-1.8h8.466v1.8h-3.06a4.3,4.3,0,0,0,.926,2.584A5.058,5.058,0,0,0,17.034-7.089ZM14.909-.255q3.06,0,3.06-1.309,0-1.326-3.06-1.326-3.077,0-3.077,1.326Q11.832-.255,14.909-.255Zm0-4.369a7.771,7.771,0,0,1,3.867.816A2.5,2.5,0,0,1,20.2-1.564,2.46,2.46,0,0,1,18.777.663a7.909,7.909,0,0,1-3.867.8,7.951,7.951,0,0,1-3.884-.8,2.46,2.46,0,0,1-1.42-2.227,2.5,2.5,0,0,1,1.42-2.244A7.812,7.812,0,0,1,14.909-4.624Zm5.117-5.967H22.1v1.836H20.026V-4.9H17.782v-9.3h2.244ZM34.68-3.859l-2.244-.255a35.371,35.371,0,0,0,.629-6.953H23.936v-1.785H35.309v1.5A40.615,40.615,0,0,1,34.68-3.859ZM29.75-2.227h6.919v1.8H22.508v-1.8h5V-7.616H29.75Z" transform="translate(70.462 78.378)" fill="#fff"/></g><g transform="translate(-10504.289 -6017.408)"><g transform="translate(0)" fill="#57a580" stroke="#4e4e4e" stroke-width="5"><circle cx="70.462" cy="70.462" r="70.462" stroke="none"/><circle cx="70.462" cy="70.462" r="67.962" fill="none"/></g><path d="M-14.3,0V-12.58h7.718v2.091h-5.2v2.907h4.42v2.108h-4.42v3.366h5.389V0ZM-2.176-10.591v3.842H-.544q2.5,0,2.5-2.023a1.564,1.564,0,0,0-.621-1.4,3.4,3.4,0,0,0-1.878-.417ZM4.964,0H2.159L-.425-4.76H-2.176V0H-4.692V-12.58H-.306q4.726,0,4.726,3.808a3.55,3.55,0,0,1-2.4,3.621ZM6.052,0V-12.58h4.131q4.93,0,4.93,3.944a3.7,3.7,0,0,1-1.351,3.111,5.544,5.544,0,0,1-3.511,1.054H8.568V0ZM8.568-6.46h1.513q2.567,0,2.567-2.176a1.7,1.7,0,0,0-.655-1.5,3.555,3.555,0,0,0-2-.45H8.568Z" transform="translate(69.71 76.725)" fill="#fff"/></g><g transform="translate(-9798.461 -6017.408)"><g transform="translate(0)" fill="#57a580" stroke="#4e4e4e" stroke-width="5"><circle cx="70.462" cy="70.462" r="70.462" stroke="none"/><circle cx="70.462" cy="70.462" r="67.962" fill="none"/></g><path d="M-12.528.224a5.141,5.141,0,0,1-3.88-1.616,6.22,6.22,0,0,1-1.544-4.48,6.309,6.309,0,0,1,1.584-4.512,5.172,5.172,0,0,1,3.92-1.68,4.643,4.643,0,0,1,3.472,1.52l-1.248,1.5a3.1,3.1,0,0,0-2.176-.992,2.759,2.759,0,0,0-2.256,1.1,4.642,4.642,0,0,0-.88,2.976,4.884,4.884,0,0,0,.84,3.024,2.682,2.682,0,0,0,2.248,1.1A3.28,3.28,0,0,0-10-2.992L-8.752-1.52A4.778,4.778,0,0,1-12.528.224Zm9.088,0A5.141,5.141,0,0,1-7.32-1.392a6.22,6.22,0,0,1-1.544-4.48A6.309,6.309,0,0,1-7.28-10.384a5.172,5.172,0,0,1,3.92-1.68,4.643,4.643,0,0,1,3.472,1.52l-1.248,1.5a3.1,3.1,0,0,0-2.176-.992,2.759,2.759,0,0,0-2.256,1.1,4.642,4.642,0,0,0-.88,2.976,4.884,4.884,0,0,0,.84,3.024,2.682,2.682,0,0,0,2.248,1.1A3.28,3.28,0,0,0-.912-2.992L.336-1.52A4.778,4.778,0,0,1-3.44.224ZM3.536,0V-9.872H.208V-11.84H9.264v1.968H5.9V0Zm8.928,0L8.848-11.84h2.48L12.9-6.08q.176.608.48,1.864t.512,1.96h.08q.176-.64.5-1.9t.512-1.928l1.536-5.76h2.4L15.28,0Z" transform="translate(70.462 77.462)" fill="#fff"/></g><rect width="353.81" height="174.875" rx="39" transform="translate(-9993.076 -6289.365)" fill="#f7f6f5" stroke="#4e4e4e" stroke-linecap="round" stroke-width="2" stroke-dasharray="2 5"/><g transform="translate(-9789 -6266.353)" fill="#fff" stroke="#4e4e4e" stroke-width="5"><ellipse cx="61.381" cy="61.381" rx="61.381" ry="61.381" stroke="none"/><ellipse cx="61.381" cy="61.381" rx="58.881" ry="58.881" fill="none"/></g><g transform="translate(-9753 -6238.197)"><circle cx="2.072" cy="2.072" r="2.072" transform="translate(9.325 7.771)" fill="#4e4e4e"/><circle cx="2.072" cy="2.072" r="2.072" transform="translate(25.385 7.771)" fill="#4e4e4e"/><path d="M9.89,223.692H28.879a9.908,9.908,0,0,0,9.381-6.758l3.478,2.008a5.935,5.935,0,0,0,8.9-5.141V205.89a5.935,5.935,0,0,0-8.9-5.141l-3.478,2.009A9.907,9.907,0,0,0,28.879,196H9.89A9.9,9.9,0,0,0,0,205.89V213.8a9.9,9.9,0,0,0,9.89,9.89Zm33.827-19.518a1.946,1.946,0,0,1,.986-.263,1.98,1.98,0,0,1,1.978,1.978V213.8A1.98,1.98,0,0,1,44.7,215.78a1.947,1.947,0,0,1-.986-.263l-4.948-2.857v-5.628ZM3.956,205.89a5.941,5.941,0,0,1,5.934-5.934H28.879a5.941,5.941,0,0,1,5.934,5.934V213.8a5.941,5.941,0,0,1-5.934,5.934H9.89A5.941,5.941,0,0,1,3.956,213.8Z" transform="translate(0 -180.176)" fill="#4e4e4e"/><path d="M18.335,48.971a1.978,1.978,0,0,0,1.68-2.237,6.012,6.012,0,0,1-.059-.844,5.934,5.934,0,1,1,11.868,0,1.978,1.978,0,0,0,3.956,0,5.934,5.934,0,1,1,11.868,0,6.015,6.015,0,0,1-.059.844,1.978,1.978,0,1,0,3.917.557A9.9,9.9,0,0,0,41.714,36,9.881,9.881,0,0,0,33.8,39.962,9.887,9.887,0,0,0,16,45.89a10,10,0,0,0,.1,1.4,1.978,1.978,0,0,0,2.237,1.68Z" transform="translate(-14.418 -36)" fill="#4e4e4e"/><path d="M233.978,279.956h3.956a1.978,1.978,0,1,0,0-3.956h-3.956a1.978,1.978,0,1,0,0,3.956Z" transform="translate(-209.055 -252.264)" fill="#4e4e4e"/></g><path d="M-24.42-1.875v-1.59h9.57v4.77h-1.98v-3.18ZM-18.6-6.09h5.28v1.575h-12.5V-6.09h5.235V-7.56h-3.7v-4.755h1.98v3.18H-14.7V-7.56h-3.9Zm14.055-4.92v1.56h-8.13v-1.56h3.09v-1.455H-7.6v1.455ZM-9.69-7.118a.951.951,0,0,0-.405.818.951.951,0,0,0,.405.818,1.835,1.835,0,0,0,1.095.293,1.835,1.835,0,0,0,1.1-.293A.951.951,0,0,0-7.095-6.3.951.951,0,0,0-7.5-7.118a1.835,1.835,0,0,0-1.1-.293A1.835,1.835,0,0,0-9.69-7.118ZM-7.6-3.81v1.1Q-5.64-2.82-4.485-3l.15,1.425A46.359,46.359,0,0,1-12.69-1l-.24-1.605q2.13,0,3.345-.03V-3.81a3.176,3.176,0,0,1-1.74-.877A2.236,2.236,0,0,1-11.97-6.3a2.264,2.264,0,0,1,.945-1.89,3.9,3.9,0,0,1,2.43-.72,3.9,3.9,0,0,1,2.43.72A2.264,2.264,0,0,1-5.22-6.3a2.236,2.236,0,0,1-.645,1.613A3.176,3.176,0,0,1-7.6-3.81ZM-.075-6.9v1.635H-1.8V1.29H-3.78V-12.525H-1.8V-6.9Zm8.58.645L7.56-4.725A4.984,4.984,0,0,1,4.4-7.23a5.281,5.281,0,0,1-3.33,2.985L.075-5.79a4.683,4.683,0,0,0,2.408-1.7A4.468,4.468,0,0,0,3.33-10.02H.585v-1.59h7.47v1.59h-2.7a3.793,3.793,0,0,0,.817,2.28A4.463,4.463,0,0,0,8.505-6.255ZM6.63-.225q2.7,0,2.7-1.155T6.63-2.55q-2.715,0-2.715,1.17T6.63-.225Zm0-3.855a6.857,6.857,0,0,1,3.413.72A2.2,2.2,0,0,1,11.3-1.38,2.17,2.17,0,0,1,10.043.585,6.978,6.978,0,0,1,6.63,1.29,7.015,7.015,0,0,1,3.2.585,2.17,2.17,0,0,1,1.95-1.38,2.2,2.2,0,0,1,3.2-3.36,6.893,6.893,0,0,1,6.63-4.08Zm4.515-5.265h1.83v1.62h-1.83V-4.32H9.165v-8.205h1.98Zm11.64-3.195h1.98V1.32h-1.98Zm-8.79,1.11H15.96v3.345h2.88V-11.43h1.965v9.525h-6.81ZM15.96-6.54v3.06h2.88V-6.54Z" transform="translate(-9728 -6168.245)" fill="#4e4e4e"/><g transform="translate(-9966 -6266.353)" fill="#fff" stroke="#4e4e4e" stroke-width="5"><ellipse cx="61.381" cy="61.381" rx="61.381" ry="61.381" stroke="none"/><ellipse cx="61.381" cy="61.381" rx="58.881" ry="58.881" fill="none"/></g><g transform="translate(-9924.767 -6240.457)"><path d="M40.011,52.326A1.626,1.626,0,0,0,41.637,50.7V42.567a6.513,6.513,0,0,0-6.506-6.506H6.506A6.513,6.513,0,0,0,0,42.567V58.831a6.513,6.513,0,0,0,6.506,6.506H19.192V68.58H13.5a1.626,1.626,0,1,0,0,3.253H28.138a1.626,1.626,0,1,0,0-3.253H22.445V65.337H35.131a6.513,6.513,0,0,0,6.506-6.506,1.626,1.626,0,0,0-3.253,0,3.257,3.257,0,0,1-3.253,3.253H6.506a3.257,3.257,0,0,1-3.253-3.253V42.567a3.257,3.257,0,0,1,3.253-3.253H35.131a3.257,3.257,0,0,1,3.253,3.253V50.7A1.626,1.626,0,0,0,40.011,52.326Z" transform="translate(0 -36.061)" fill="#4e4e4e"/></g><path d="M-20.28-6.015c-3.12-.54-4.83-2.685-4.83-4.71v-.99h-2.115v.99c0,1.98-1.725,4.17-4.83,4.71l.84,1.65a6.935,6.935,0,0,0,5.04-3.57,7,7,0,0,0,5.055,3.57ZM-32.355-2v1.6h12.51V-2Zm15.42-7.665h2.7v6.03h-2.7Zm-1.95,7.59h6.6v-9.15h-6.6ZM-6.48-7.32H-8.49v-5.19h-1.98V1.29h1.98V-5.685h2.01ZM4.92-5.4h-7.7V-6.945H4.5v-1.53H-2.775V-9.93h7.59v-1.59h-9.6v7.68H4.92Zm-11.175,3.5V-.3H6.255V-1.905Zm19.275-8.58c1.8,0,2.955.54,2.955,1.515,0,.99-1.155,1.515-2.955,1.515-1.815,0-2.97-.525-2.97-1.515C10.05-9.945,11.2-10.485,13.02-10.485Zm0,4.605c2.94,0,4.995-1.2,4.995-3.09,0-1.875-2.055-3.09-4.995-3.09-2.955,0-5,1.215-5,3.09C8.025-7.08,10.065-5.88,13.02-5.88ZM19.3-4.845H6.795V-3.24H9.63V1.275h2V-3.24H14.4V1.275h2.01V-3.24h2.9Zm6.75,4.7c-1.9,0-2.79-.255-2.79-.825s.885-.81,2.79-.81c1.92,0,2.805.24,2.805.81S27.975-.15,26.055-.15Zm0-3.09c-3.03,0-4.785.78-4.785,2.265S23.025,1.29,26.055,1.29c3.045,0,4.8-.8,4.8-2.265S29.1-3.24,26.055-3.24ZM27.06-5.4v-.855H31v-1.5h-7.65v-.75h7.23v-1.44h-7.23v-.72H30.9v-1.5H21.39v5.91h3.69V-5.4H19.83v1.545h12.5V-5.4ZM-24.975,11.4a21.408,21.408,0,0,0,.315-4.065V6.48h-7.095V8.055h5.145a19.67,19.67,0,0,1-.3,3.12Zm.915.555c-1.29.18-2.67.285-4.035.345V9.69H-30.03v2.685c-.9.015-1.755.015-2.52.015l.18,1.575a50.146,50.146,0,0,0,8.43-.6Zm-4.5,2.94h-1.98V19.05H-20.9V17.475H-28.56Zm7.23-5.22V5.46h-1.98V15.81h1.98v-4.5h1.65V9.675Zm4.785,2.31h4.485V6.645h-6.525V8.22h4.5v2.2H-18.57V16.11h1.245a37.886,37.886,0,0,0,6.78-.48l-.21-1.605a34.572,34.572,0,0,1-5.79.45ZM-9.8,5.46V19.32h1.98V5.46ZM-.9,6.54H-2.88V8.55c0,2.685-1.14,5.355-3.555,6.39l1.185,1.635a6.683,6.683,0,0,0,3.39-4.11,6.312,6.312,0,0,0,3.27,3.78l1.125-1.6C.195,13.635-.9,11.115-.9,8.55ZM3.21,5.46V19.32H5.19V5.46Zm15.66,6.525c-3.12-.54-4.83-2.685-4.83-4.71v-.99H11.925v.99c0,1.98-1.725,4.17-4.83,4.71l.84,1.65a6.935,6.935,0,0,0,5.04-3.57,7,7,0,0,0,5.055,3.57ZM6.795,16V17.61H19.3V16ZM27.03,13.62h1.845V5.685H27.03V8.79H25.68v1.59h1.35Zm-.96-2.295a21.166,21.166,0,0,1-3.78.315V10.455h2.805v-1.5H22.29V7.86h3.285V6.3h-5.19v6.9h.945a25.483,25.483,0,0,0,4.9-.315ZM24.21,15.81h5.475v1.77H24.21Zm-1.95,3.315h9.36v-4.86H22.26ZM29.745,5.49v8.235H31.62V5.49Z" transform="translate(-9903.947 -6184.927)" fill="#4e4e4e"/><g transform="translate(-10269.828 -6213.968)"><g transform="translate(0 0)"><path d="M212.073,301.637,189.74,252.855l-19.93,48.782Z" transform="translate(-135.542 -209.849)"/><circle cx="6.833" cy="6.833" r="6.833" transform="translate(47.305 26.74)"/><path d="M175.315,136.11a1.923,1.923,0,0,0-2.727.1c-.116.125-11.472,12.709-.129,27.908a1.928,1.928,0,1,0,3.091-2.306c-9.386-12.578-.513-22.558-.126-22.983A1.929,1.929,0,0,0,175.315,136.11Z" transform="translate(-133.639 -116.251)"/><path d="M94.9,87.145a1.926,1.926,0,0,0-2.723.106,37.156,37.156,0,0,0-7.445,14c-2.25,7.875-2.808,20.111,7.315,33.674a1.928,1.928,0,1,0,3.091-2.306c-17.46-23.4-.843-41.966-.127-42.745A1.934,1.934,0,0,0,94.9,87.145Z" transform="translate(-66.554 -77.17)"/><path d="M13.641,107.738a1.928,1.928,0,0,0,1.544-3.082c-25.191-33.757-1.164-60.545-.127-61.668a1.93,1.93,0,0,0-2.835-2.621c-.276.3-27.277,30.219-.129,66.6A1.929,1.929,0,0,0,13.641,107.738Z" transform="translate(0 -39.747)"/><path d="M325.528,164.514a1.93,1.93,0,0,0,2.7-.394c11.341-15.2-.013-27.781-.129-27.908a1.93,1.93,0,0,0-2.833,2.622c.386.415,9.313,10.322-.129,22.977A1.931,1.931,0,0,0,325.528,164.514Z" transform="translate(-259.217 -116.252)"/><path d="M394.117,87.24a1.93,1.93,0,0,0-2.833,2.623c.176.191,17.387,19.268-.129,42.741a1.928,1.928,0,1,0,3.091,2.306C413.665,108.9,394.316,87.456,394.117,87.24Z" transform="translate(-311.914 -77.161)"/><path d="M457.8,40.256a1.934,1.934,0,0,0-.11,2.727c1.036,1.123,25.063,27.911-.127,61.668a1.928,1.928,0,1,0,3.091,2.306c27.147-36.377.147-66.3-.129-66.6A1.932,1.932,0,0,0,457.8,40.256Z" transform="translate(-364.923 -39.744)"/></g></g><g transform="translate(-11110.388 -8778.63)"><g transform="translate(531.642 2537.056)"><path d="M253.241,758.285c1.908,0,9.183-8.034,10.884-7.65,2.883-2.881,11.77-10.507,17.532-10.507,7.1,0,16.438,1.253,18.646,5.3,1.409-.266,11.544,10.906,13.088,10.906,7.574,0,7.547,9.981,8.956,14.544l1.5,3.785L313.39,791.047H270.8l-17.558-3.238-6.033-16.932C247.207,765.163,244.272,758.285,253.241,758.285Z" transform="translate(-246.748 -732.534)" fill="#57a580"/><path d="M331.51,757.068a3.083,3.083,0,1,0,3.082-3.164A3.124,3.124,0,0,0,331.51,757.068Z" transform="translate(-257.497 -739.747)" fill="#57a580"/><path d="M322.64,755.341a1.53,1.53,0,1,0,1.529-1.569A1.551,1.551,0,0,0,322.64,755.341Z" transform="translate(-255.096 -739.616)" fill="#57a580"/><path d="M275.735,741.046a1.53,1.53,0,1,0,1.529-1.57A1.549,1.549,0,0,0,275.735,741.046Z" transform="translate(-249.029 -739.476)" fill="#57a580"/><path d="M321.3,744.517a2.317,2.317,0,1,0,2.316-2.376A2.347,2.347,0,0,0,321.3,744.517Z" transform="translate(-256.865 -736.923)" fill="#57a580"/><rect width="19.184" height="28.777" transform="translate(29.327 20.973)" fill="#fff"/></g><g transform="translate(529.064 2540.91)"><path d="M181,97.212v19.232a7.22,7.22,0,0,0,7.212,7.212h16.828V90H188.212A7.22,7.22,0,0,0,181,97.212Zm19.232,21.635h-12.02a2.407,2.407,0,0,1-2.4-2.4V104.01a7.178,7.178,0,0,0,2.4.413h12.02Zm0-19.232h-12.02a2.4,2.4,0,0,1,0-4.808h12.02Z" transform="translate(-151.992 -75.576)"/><path d="M74.843,67.631a7.223,7.223,0,0,0-6.8,4.808H47.826a7.246,7.246,0,0,0-4.394-4.394V57.695H60.259a21.638,21.638,0,0,0,4.57-42.787,26.454,26.454,0,0,0-47.6,0A21.638,21.638,0,0,0,21.8,57.695H38.623v10.35a7.246,7.246,0,0,0-4.394,4.394H14.01a7.212,7.212,0,1,0,0,4.808H34.229a7.21,7.21,0,0,0,13.6,0H68.044a7.211,7.211,0,1,0,6.8-9.616ZM4.968,36.059A16.924,16.924,0,0,1,19.254,19.422l1.327-.2.525-1.235a21.646,21.646,0,0,1,39.841,0l.525,1.235,1.327.2a16.829,16.829,0,0,1-2.542,33.465H21.8A16.847,16.847,0,0,1,4.968,36.059ZM7.212,77.247a2.4,2.4,0,1,1,2.4-2.4A2.407,2.407,0,0,1,7.212,77.247Zm33.815,0a2.4,2.4,0,1,1,2.4-2.4A2.407,2.407,0,0,1,41.027,77.247Zm33.815,0a2.4,2.4,0,1,1,2.4-2.4A2.407,2.407,0,0,1,74.843,77.247Z" transform="translate(0 0)"/></g></g><path d="M-52.564-6.817c-3.536-.612-5.474-3.043-5.474-5.338v-1.122h-2.4v1.122c0,2.244-1.955,4.726-5.474,5.338l.952,1.87a7.859,7.859,0,0,0,5.712-4.046,7.935,7.935,0,0,0,5.729,4.046ZM-66.249-2.261V-.442h14.178V-2.261Zm17.476-8.687h3.06v6.834h-3.06Zm-2.21,8.6h7.48v-10.37h-7.48ZM-36.924-8.3H-39.2v-5.882h-2.244V1.462H-39.2V-6.443h2.278ZM-24-6.12h-8.721V-7.871h8.245V-9.6h-8.245v-1.649h8.6v-1.8H-35v8.7h11ZM-36.669-2.159V-.34h14.178V-2.159Zm21.828,1.9C-16.932-.255-18-.629-18-1.445c0-.833,1.071-1.19,3.162-1.19s3.162.357,3.162,1.19C-11.679-.629-12.75-.255-14.841-.255Zm0-4.1c-3.383,0-5.423,1.054-5.423,2.907s2.04,2.924,5.423,2.924S-9.4.408-9.4-1.445-11.458-4.352-14.841-4.352Zm1.173-2.6V-8.517h4.386V-10.3H-17.85v-3.621h-2.244v5.406h4.182v1.564h-5.95v1.768H-7.7V-6.953ZM3.774-.493H-2.142V-1.9H3.774Zm0-3.111H-2.142V-5.1H-4.369V1.275H6V-5.1H3.774ZM-2.771-7.939a1.812,1.812,0,0,1-1.972-1.87,1.812,1.812,0,0,1,1.972-1.87A1.818,1.818,0,0,1-.782-9.809,1.818,1.818,0,0,1-2.771-7.939ZM3.757-14.2v3.451h-2.5a3.984,3.984,0,0,0-4.029-2.805,3.827,3.827,0,0,0-4.114,3.74,3.827,3.827,0,0,0,4.114,3.74A3.965,3.965,0,0,0,1.275-8.925H3.757V-5.78H6V-14.2Zm10,3.349h3.23V-12.7H8.211v1.853h3.264v.867A7.226,7.226,0,0,1,7.582-3.264L8.857-1.479a7.478,7.478,0,0,0,3.791-4.59A7.022,7.022,0,0,0,16.4-1.87l1.224-1.768a6.706,6.706,0,0,1-3.876-6.341ZM18.428-14.2V1.462h2.244V-14.2ZM30.481-5.1v1.53h2.941v1.241h2.244V-14.2H33.422v9.1Zm-3.009-6.936c1.037,0,1.768.408,1.768,1.173s-.731,1.156-1.768,1.156c-1.054,0-1.785-.391-1.785-1.156S26.418-12.036,27.472-12.036Zm0,3.961c2.278,0,3.893-1.122,3.893-2.788s-1.615-2.8-3.893-2.8c-2.3,0-3.91,1.139-3.91,2.8S25.177-8.075,27.472-8.075ZM26.639-.6V-2.737H28.8V-5.7a34.025,34.025,0,0,0,3.74-.442l-.153-1.6a85.768,85.768,0,0,1-9.962.476l.289,1.785c1.173,0,2.482-.017,3.859-.085v2.091H24.395V1.19H36.006V-.6ZM50.626-14.2H48.5V-2.482h2.125ZM45.373-2.941h2.091V-13.923H45.373v3.3H43.52v1.819h1.853Zm-.459-3.638a4.782,4.782,0,0,1-2.7-4.556v-2.006H40.035v2.006a5.318,5.318,0,0,1-2.958,4.947l1.224,1.7a5.769,5.769,0,0,0,2.856-3.094,5.072,5.072,0,0,0,2.533,2.72ZM42.33-.6V-3.842H40.086V1.19H51.017V-.6ZM55.012-6.783H59.5V-8.534H55.012v-2.55h5.015v-1.8H52.785V-2.057H54.06a42.115,42.115,0,0,0,6.9-.408l-.2-1.8a36.724,36.724,0,0,1-5.746.408Zm7.956-7.429v5.525H60.282v1.8h2.686V1.5h2.244V-14.212Z" transform="translate(-10539.945 -6131.031)" fill="#383838"/><path d="M-61.838,3.03l1.38-.585a14.432,14.432,0,0,1-1.83-7.185,14.456,14.456,0,0,1,1.83-7.17l-1.38-.585A14.364,14.364,0,0,0-64.073-4.74,14.377,14.377,0,0,0-61.838,3.03Zm2.745-14.73v6.705h6.72V-11.7h-1.95v1.815h-2.805V-11.7Zm1.965,3.33h2.805v1.815h-2.805Zm-.6,4.725V-2.07H-50.3V1.305h2v-4.95Zm7.425-8.88v8.25h2v-8.25Zm5.925,3.135h3.315v-1.575h-5.265v9.18h.945a24.372,24.372,0,0,0,4.935-.36l-.165-1.62a20.7,20.7,0,0,1-3.765.36Zm4.77,1.905h-2.4V-5.88h2.4V.675h1.845V-12.27h-1.845Zm2.865-5.055V1.275h1.875V-12.54Zm12.525,0V1.32h1.98V-12.54Zm-5.445.975c-2.085,0-3.63,1.89-3.63,4.92,0,3.045,1.545,4.95,3.63,4.95s3.63-1.905,3.63-4.95C-26.033-9.675-27.578-11.565-29.663-11.565Zm0,1.785c1.02,0,1.725,1.095,1.725,3.135,0,2.055-.7,3.15-1.725,3.15s-1.725-1.1-1.725-3.15C-31.388-8.685-30.683-9.78-29.663-9.78Zm11.625,3.795h3.96V-7.53h-3.96V-9.78h4.425v-1.59H-20v9.555h1.125a37.16,37.16,0,0,0,6.09-.36l-.18-1.59a32.4,32.4,0,0,1-5.07.36Zm7.02-6.555v4.875h-2.37v1.59h2.37v7.4h1.98V-12.54ZM1.282-.15c-1.905,0-2.79-.255-2.79-.825s.885-.81,2.79-.81,2.805.24,2.805.81S3.2-.15,1.282-.15Zm0-3.09c-3.03,0-4.785.78-4.785,2.265S-1.748,1.29,1.282,1.29s4.8-.8,4.8-2.265S4.327-3.24,1.282-3.24ZM2.287-5.4v-.855H6.232v-1.5h-7.65v-.75h7.23v-1.44h-7.23v-.72H6.127v-1.5h-9.51v5.91H.307V-5.4h-5.25v1.545h12.5V-5.4Zm13.98-5.91h-3.09v-1.32h-2v1.32H8.107v1.545h8.145Zm-5.58,4.365c0-.66.615-1,1.5-1s1.5.345,1.5,1-.615,1.005-1.5,1.005S10.687-6.285,10.687-6.945Zm4.89,0c0-1.47-1.4-2.445-3.39-2.445S8.8-8.415,8.8-6.945s1.4,2.445,3.39,2.445S15.577-5.49,15.577-6.945Zm1.455,6.54H11.977v-.96h5.055Zm0-2.46H11.977v-1.05H10.012V1.14H19V-3.915H17.032Zm3.8-6.345H19v-3.315h-1.98V-4.44H19V-7.59h1.83Zm8,.3H25.987v-1.77h2.835Zm-4.8,0H22.357v1.47h10.08V-8.91h-1.65v-1.77h1.755v-1.47H22.267v1.47h1.755Zm.555,7.92h7.56V-4.41H22.6v1.425h7.59v.675H22.612v3.5H32.5V-.24h-7.92Zm-3.4-5.745v1.56h12.48v-1.56Zm21.84-.87h1.11V-3.24H46v-9.285H44.122V-9.18h-1.11v-3.105H41.167V-4.38h1.845Zm-2.505,1.23a21.444,21.444,0,0,1-3.825.345V-7.335H40v-4.23H34.763v1.545h3.33v1.245H34.778V-4.47h.96a23.4,23.4,0,0,0,4.95-.36Zm1.725,2.55h-1.98v.24c0,1.425-1.425,2.925-4.4,3.3l.765,1.53a6.438,6.438,0,0,0,4.62-2.505,6.343,6.343,0,0,0,4.6,2.505l.78-1.53c-2.985-.375-4.4-1.875-4.4-3.3Zm8.43,2.01h5.655v1.4H50.663Zm-1.935,2.94h9.54v-4.5h-9.54Zm3.36-11.7h2.835V-8.49H52.088Zm2.4,4.74v-1.08h4.035V-8.49H56.888v-2.085h1.755V-12.15H48.368v1.575h1.755V-8.49H48.458v1.575h4.05v1.08H47.273v1.56h12.48v-1.56ZM61.823,3.03a14.26,14.26,0,0,0,2.25-7.77,14.247,14.247,0,0,0-2.25-7.755l-1.365.585a14.456,14.456,0,0,1,1.83,7.17,14.432,14.432,0,0,1-1.83,7.185Z" transform="translate(-10540 -6113)" fill="#6c6c6c"/></g></svg>