<svg xmlns="http://www.w3.org/2000/svg" width="277.081" height="116.33" viewBox="0 0 277.081 116.33"><g transform="translate(-1.819 -0.932)"><rect width="43.043" height="25.995" transform="translate(19.606 27.621)" fill="#c9ae80"/><rect width="43.043" height="25.995" transform="translate(87.64 27.621)" fill="#c9ae80"/><path d="M228.757,12.515h27.181a7.778,7.778,0,0,0-7.7-6.706h-92.4a7.784,7.784,0,0,0-7.783,7.783V79.538h72.829V20.384A7.869,7.869,0,0,1,228.757,12.515Z" fill="#ccc"/><path d="M13.466,75.411a10.929,10.929,0,0,1-10.9-10.9h0a10.929,10.929,0,0,1,10.9-10.9H143.614v21.8" fill="#fff"/><path d="M13.466,76.161a11.648,11.648,0,0,1,0-23.3h130.9V75.411h-1.5V54.366H13.466a10.148,10.148,0,0,0,0,20.3Z" fill="#1d1d1b"/><path d="M143.614,75.411" fill="none" stroke="#1d1d1b" stroke-miterlimit="10" stroke-width="1.5"/><path d="M26.226,70.988A6.474,6.474,0,1,1,32.7,64.514,6.482,6.482,0,0,1,26.226,70.988Zm0-11.449A4.974,4.974,0,1,0,31.2,64.514,4.98,4.98,0,0,0,26.226,59.539Z" fill="#1d1d1b"/><path d="M26.226,67.99A3.477,3.477,0,1,1,29.7,64.513,3.481,3.481,0,0,1,26.226,67.99Zm0-5.454A1.977,1.977,0,1,0,28.2,64.513,1.979,1.979,0,0,0,26.226,62.536Z" fill="#1d1d1b"/><path d="M50.838,70.988a6.474,6.474,0,1,1,6.475-6.474A6.481,6.481,0,0,1,50.838,70.988Zm0-11.449a4.974,4.974,0,1,0,4.975,4.975A4.979,4.979,0,0,0,50.838,59.539Z" fill="#1d1d1b"/><path d="M50.838,67.99a3.477,3.477,0,1,1,3.477-3.477A3.48,3.48,0,0,1,50.838,67.99Zm0-5.454a1.977,1.977,0,1,0,1.977,1.977A1.979,1.979,0,0,0,50.838,62.536Z" fill="#1d1d1b"/><path d="M75.451,70.988a6.474,6.474,0,1,1,6.474-6.474A6.481,6.481,0,0,1,75.451,70.988Zm0-11.449a4.974,4.974,0,1,0,4.974,4.975A4.98,4.98,0,0,0,75.451,59.539Z" fill="#1d1d1b"/><path d="M75.451,67.99a3.477,3.477,0,1,1,3.477-3.477A3.48,3.48,0,0,1,75.451,67.99Zm0-5.454a1.977,1.977,0,1,0,1.977,1.977A1.979,1.979,0,0,0,75.451,62.536Z" fill="#1d1d1b"/><path d="M100.063,70.988a6.474,6.474,0,1,1,6.475-6.474A6.482,6.482,0,0,1,100.063,70.988Zm0-11.449a4.974,4.974,0,1,0,4.975,4.975A4.98,4.98,0,0,0,100.063,59.539Z" fill="#1d1d1b"/><path d="M100.063,67.99a3.477,3.477,0,1,1,3.477-3.477A3.481,3.481,0,0,1,100.063,67.99Zm0-5.454a1.977,1.977,0,1,0,1.977,1.977A1.979,1.979,0,0,0,100.063,62.536Z" fill="#1d1d1b"/><path d="M124.675,70.988a6.474,6.474,0,1,1,6.475-6.474A6.481,6.481,0,0,1,124.675,70.988Zm0-11.449a4.974,4.974,0,1,0,4.975,4.975A4.98,4.98,0,0,0,124.675,59.539Z" fill="#1d1d1b"/><path d="M124.676,67.99a3.477,3.477,0,1,1,3.476-3.477A3.481,3.481,0,0,1,124.676,67.99Zm0-5.454a1.977,1.977,0,1,0,1.976,1.977A1.979,1.979,0,0,0,124.676,62.536Z" fill="#1d1d1b"/><path d="M61.564,54.366h-44.2v-1.5h42.7V26.433h-42.7v-1.5h44.2Z" fill="#1d1d1b"/><path d="M42.839,54.366h-7.5V24.933h7.5Zm-6-1.5h4.5V26.433h-4.5Z" fill="#1d1d1b"/><path d="M129.88,54.366h-44.2v-1.5h42.7V26.433h-42.7v-1.5h44.2Z" fill="#1d1d1b"/><path d="M111.154,54.366h-7.5V24.933h7.5Zm-6-1.5h4.5V26.433h-4.5Z" fill="#1d1d1b"/><path d="M220.248,76.161H142.864v-66.1a9.139,9.139,0,0,1,9.13-9.129v1.5a7.638,7.638,0,0,0-7.63,7.629v64.6h75.884Z" fill="#1d1d1b"/><path d="M7.495,0H49.768a7.495,7.495,0,0,1,7.495,7.495V96.5A7.494,7.494,0,0,1,49.768,104H7.495A7.495,7.495,0,0,1,0,96.5V7.495A7.495,7.495,0,0,1,7.495,0Z" transform="translate(220.888 12.515)" fill="#fff"/><path d="M270.655,117.262H228.382a8.254,8.254,0,0,1-8.244-8.245V20.009a8.253,8.253,0,0,1,8.244-8.244h42.273a8.254,8.254,0,0,1,8.245,8.244v89.008A8.255,8.255,0,0,1,270.655,117.262Zm-42.273-104a6.751,6.751,0,0,0-6.744,6.744v89.008a6.752,6.752,0,0,0,6.744,6.745h42.273a6.753,6.753,0,0,0,6.745-6.745V20.009a6.752,6.752,0,0,0-6.745-6.744Z" fill="#1d1d1b"/><path d="M270.655,15.513h-6.368a3.585,3.585,0,0,0-3.341,2.287h0a3.15,3.15,0,0,1-2.937,2.01H240.758a2.756,2.756,0,0,1-2.569-1.758h0a3.98,3.98,0,0,0-3.71-2.539h-6.1a4.5,4.5,0,0,0-4.5,4.5v89.007a4.5,4.5,0,0,0,4.5,4.5h42.273a4.5,4.5,0,0,0,4.5-4.5V20.01A4.5,4.5,0,0,0,270.655,15.513Z" fill="#fff"/><path d="M270.655,114.264H228.382a5.252,5.252,0,0,1-5.246-5.247V20.01a5.252,5.252,0,0,1,5.246-5.247h6.1a4.7,4.7,0,0,1,4.41,3.018,1.991,1.991,0,0,0,1.869,1.279h17.251a2.386,2.386,0,0,0,2.238-1.531,4.307,4.307,0,0,1,4.041-2.766h6.367A5.253,5.253,0,0,1,275.9,20.01v89.007A5.253,5.253,0,0,1,270.655,114.264Zm-42.273-98a3.751,3.751,0,0,0-3.746,3.747v89.007a3.751,3.751,0,0,0,3.746,3.747h42.273a3.751,3.751,0,0,0,3.747-3.747V20.01a3.751,3.751,0,0,0-3.747-3.747h-6.367a2.815,2.815,0,0,0-2.642,1.809,3.878,3.878,0,0,1-3.637,2.488H240.758a3.483,3.483,0,0,1-3.268-2.236,3.21,3.21,0,0,0-3.011-2.061Z" fill="#1d1d1b"/><path d="M255.69,103.372H243.348a5.237,5.237,0,1,1,0-10.475H255.69a5.237,5.237,0,1,1,0,10.475ZM243.348,94.4a3.737,3.737,0,1,0,0,7.475H255.69a3.737,3.737,0,1,0,0-7.475Z" fill="#1d1d1b"/><rect width="14.515" height="12.884" transform="translate(250.843 72.965)" fill="#82abdb"/><path d="M258.1,63.261l4.835,4.852,4.835,4.852H248.43l4.835-4.852Z" fill="#82abdb"/><rect width="12.371" height="10.981" transform="translate(244.131 74.868)" fill="#82abdb"/><path d="M250.317,66.6l4.121,4.135,4.121,4.135H242.074l4.121-4.135Z" fill="#82abdb"/><path d="M237.225,51.068l-.612-.859c-.627-.882-6.132-8.723-6.132-12.41a6.757,6.757,0,1,1,13.486,0c0,3.687-5.5,11.528-6.131,12.41Zm0-18.965a5.49,5.49,0,0,0-5.244,5.7c0,2.423,3.361,7.883,5.244,10.658,1.881-2.775,5.242-8.235,5.242-10.658A5.49,5.49,0,0,0,237.225,32.1Z" fill="#1d1d1b"/><path d="M237.224,40.589a3.548,3.548,0,1,1,3.548-3.548A3.552,3.552,0,0,1,237.224,40.589Zm0-5.6a2.048,2.048,0,1,0,2.048,2.047A2.05,2.05,0,0,0,237.224,34.994Z" fill="#1d1d1b"/><path d="M243.984,71.05h-7.269a5.706,5.706,0,0,1,0-11.412H262.9a4.153,4.153,0,0,0,0-8.306H236.831v-1.5H262.9a5.653,5.653,0,0,1,0,11.306H236.715a4.206,4.206,0,0,0,0,8.412h7.269Z" fill="#1d1d1b"/><path d="M264.818,85.224H254.462V72.744h1l-1.9-1.9h11.253Zm-8.856-1.5h7.356V72.341h-6.139l1.9,1.9h-3.113Z" fill="#1d1d1b"/><path d="M268.287,72.341H255.061L250.2,67.46l6.613-6.636Zm-12.6-1.5h8.991l-7.864-7.892-4.5,4.511Z" fill="#1d1d1b"/><path d="M249.553,85.224h-7.462V72.744h6.936v1.5h-5.436v9.481h5.962Z" fill="#1d1d1b"/><path d="M255.962,85.224h-6.409v-1.5h4.909V74.244h-4.909v-1.5h6.409Z" fill="#1d1d1b"/><path d="M249.553,74.244H238.978L249.027,64.16l2.761,2.771-1.062,1.059-1.7-1.7-6.437,6.458h6.962Z" fill="#1d1d1b"/></g></svg>