<svg xmlns="http://www.w3.org/2000/svg" width="259.61" height="136.685" viewBox="0 0 259.61 136.685"><g transform="translate(0.19 -0.658)"><line x2="18.179" transform="translate(213.661 17.712)" fill="#fff"/><rect width="18.179" height="1.134" transform="translate(213.661 17.145)" fill="#1d1d1b"/><path d="M222.75,23.2h0a2.238,2.238,0,0,1-2.238-2.238V16.519a2.238,2.238,0,0,1,2.238-2.238h0a2.238,2.238,0,0,1,2.238,2.238v4.445A2.238,2.238,0,0,1,222.75,23.2Z" fill="#fff"/><path d="M222.75,23.769a2.808,2.808,0,0,1-2.8-2.8V16.519a2.8,2.8,0,0,1,5.61,0v4.445A2.808,2.808,0,0,1,222.75,23.769Zm0-8.921a1.673,1.673,0,0,0-1.671,1.671v4.445a1.672,1.672,0,0,0,3.343,0V16.519A1.674,1.674,0,0,0,222.75,14.848Z" fill="#1d1d1b"/><line x2="18.179" transform="translate(241.241 17.712)" fill="#fff"/><rect width="18.179" height="1.134" transform="translate(241.241 17.145)" fill="#1d1d1b"/><path d="M250.331,23.2h0a2.238,2.238,0,0,1-2.238-2.238V16.519a2.238,2.238,0,0,1,2.238-2.238h0a2.238,2.238,0,0,1,2.238,2.238v4.445A2.238,2.238,0,0,1,250.331,23.2Z" fill="#fff"/><path d="M250.331,23.769a2.808,2.808,0,0,1-2.8-2.8V16.519a2.805,2.805,0,0,1,5.61,0v4.445A2.808,2.808,0,0,1,250.331,23.769Zm0-8.921a1.674,1.674,0,0,0-1.672,1.671v4.445a1.672,1.672,0,0,0,3.343,0V16.519A1.673,1.673,0,0,0,250.331,14.848Z" fill="#1d1d1b"/><line x2="22.943" transform="translate(225.069 20.964)" fill="#fff"/><rect width="22.943" height="1.134" transform="translate(225.069 20.397)" fill="#1d1d1b"/><path d="M0,0H13.042a0,0,0,0,1,0,0V2.889A2.207,2.207,0,0,1,10.835,5.1H2.207A2.207,2.207,0,0,1,0,2.889V0A0,0,0,0,1,0,0Z" transform="translate(230.02 20.964)" fill="#fff"/><path d="M240.854,26.627h-8.627a2.777,2.777,0,0,1-2.774-2.774V20.4h14.175v3.456A2.777,2.777,0,0,1,240.854,26.627Zm-10.267-5.1v2.322a1.641,1.641,0,0,0,1.64,1.64h8.627a1.642,1.642,0,0,0,1.64-1.64V21.531Z" fill="#1d1d1b"/><path d="M242.591,34.746h3.6V28.273a2.213,2.213,0,0,0-2.213-2.213H229.1a2.213,2.213,0,0,0-2.213,2.213v6.473h3.6" fill="#fff"/><path d="M246.758,35.313H242.59V34.179h3.034V28.273a1.647,1.647,0,0,0-1.646-1.646H229.1a1.647,1.647,0,0,0-1.646,1.646v5.906h3.033v1.134h-4.167v-7.04a2.783,2.783,0,0,1,2.78-2.78h14.875a2.783,2.783,0,0,1,2.78,2.78Z" fill="#1d1d1b"/><rect width="127.18" height="56.48" transform="translate(74.366 74.927)" fill="#fff"/><path d="M2.213,0H9.888A2.213,2.213,0,0,1,12.1,2.213V7.444a0,0,0,0,1,0,0H0a0,0,0,0,1,0,0V2.213A2.213,2.213,0,0,1,2.213,0Z" transform="translate(231.84 32.055)" fill="#82abdb"/><path d="M2.814,0H7.48a2.813,2.813,0,0,1,2.813,2.813V4.633a0,0,0,0,1,0,0H0a0,0,0,0,1,0,0V2.814A2.814,2.814,0,0,1,2.814,0Z" transform="translate(10.123 33.157)" fill="#c9ae80"/><path d="M18.426,29.438a2.881,2.881,0,0,1-1.468,1.338,2.88,2.88,0,0,1-1.97-.254,2.876,2.876,0,0,1,1.468-1.338A2.88,2.88,0,0,1,18.426,29.438Z" fill="#a2c870"/><path d="M2.814,0H7.48a2.813,2.813,0,0,1,2.813,2.813V4.633a0,0,0,0,1,0,0H0a0,0,0,0,1,0,0V2.814A2.814,2.814,0,0,1,2.814,0Z" transform="translate(30.903 33.157)" fill="#c9ae80"/><path d="M39.205,29.438a2.877,2.877,0,0,1-1.467,1.338,2.88,2.88,0,0,1-1.97-.254,2.876,2.876,0,0,1,1.468-1.338A2.876,2.876,0,0,1,39.205,29.438Z" fill="#a2c870"/><path d="M2.814,0H7.48a2.813,2.813,0,0,1,2.813,2.813V4.633a0,0,0,0,1,0,0H0a0,0,0,0,1,0,0V2.814A2.814,2.814,0,0,1,2.814,0Z" transform="translate(51.616 33.157)" fill="#c9ae80"/><path d="M59.919,29.438a2.364,2.364,0,0,1-3.438,1.084,2.364,2.364,0,0,1,3.438-1.084Z" fill="#a2c870"/><path d="M163.784,19.458a10.25,10.25,0,0,0-3,.45,10.055,10.055,0,0,0-14.981-4.1A15.644,15.644,0,0,0,129.477,2.862a15.909,15.909,0,0,0-13.217,9.16,14.687,14.687,0,0,0-1.071,10.138,9.725,9.725,0,0,0-4.267,7.729,10.03,10.03,0,0,0,10.124,10.067h42.233c.057,0,.111-.015.168-.017.113,0,.223.017.337.017a10.249,10.249,0,1,0,0-20.5Z" fill="#82abdb"/><path d="M162.893,38.913c-.078,0-.155,0-.232-.01l-.121-.007a.585.585,0,0,1-.152.017h-7.032V37.78h7.032a.881.881,0,0,1,.159-.018l.193.01c.051,0,.1.008.153.008a9.682,9.682,0,1,0-2.838-18.94l-.477.146-.205-.455a9.49,9.49,0,0,0-14.139-3.873l-.732.517-.153-.883a15.08,15.08,0,0,0-15.73-12.474,15.278,15.278,0,0,0-12.738,8.839,14.082,14.082,0,0,0-1.031,9.76l.092.381-.325.22A9.2,9.2,0,0,0,110.6,28.3a8.885,8.885,0,0,0,2.566,6.5,9.787,9.787,0,0,0,6.992,2.979h8.315v1.133h-8.315a10.925,10.925,0,0,1-7.807-3.324,10.007,10.007,0,0,1-2.884-7.328,10.34,10.34,0,0,1,4.2-7.955,15.137,15.137,0,0,1,1.2-10.14,16.41,16.41,0,0,1,13.7-9.48A16.207,16.207,0,0,1,145.3,13.266a10.62,10.62,0,0,1,14.894,4.357,10.816,10.816,0,1,1,2.7,21.29Z" fill="#1d1d1b"/><path d="M132.2,48.413l-5.688-4.926.742-.857,4.946,4.283,4.946-4.283.742.857Z" fill="#1d1d1b"/><path d="M144.305,36.206l-.742-.857,5.689-4.926,5.688,4.926-.742.857-4.946-4.284Z" fill="#1d1d1b"/><line y1="16.492" transform="translate(149.252 31.172)" fill="#fff"/><rect width="1.134" height="16.491" transform="translate(148.685 31.172)" fill="#1d1d1b"/><rect width="1.134" height="15.414" transform="translate(131.634 32.249)" fill="#1d1d1b"/><path d="M115.449,74.927V55.337h86.1v76.07H148.061" fill="#fff"/><path d="M202.112,131.974H148.061v-1.134h52.917V55.9H116.016V74.927h-1.134V54.771h87.229Z" fill="#1d1d1b"/><path d="M148.061,131.407h-73.7V74.927" fill="#fff"/><path d="M148.061,131.974H73.8V74.927h1.134v55.913h73.129Z" fill="#1d1d1b"/><path d="M94.056,89.021H88.413V82.444h5.643Zm-4.509-1.134h3.375V83.578H89.547Z" fill="#1d1d1b"/><path d="M105.717,89.021h-5.643V82.444h5.643Zm-4.509-1.134h3.375V83.578h-3.375Z" fill="#1d1d1b"/><path d="M117.378,89.021h-5.643V82.444h5.643Zm-4.509-1.134h3.375V83.578h-3.375Z" fill="#1d1d1b"/><path d="M129.038,89.021H123.4V82.444h5.642Zm-4.509-1.134H127.9V83.578h-3.375Z" fill="#1d1d1b"/><path d="M140.7,89.021h-5.643V82.444H140.7Zm-4.509-1.134h3.375V83.578H136.19Z" fill="#1d1d1b"/><path d="M94.056,100.059H88.413V93.483h5.643Zm-4.509-1.133h3.375v-4.31H89.547Z" fill="#1d1d1b"/><path d="M105.717,100.059h-5.643V93.483h5.643Zm-4.509-1.133h3.375v-4.31h-3.375Z" fill="#1d1d1b"/><path d="M117.378,100.059h-5.643V93.483h5.643Zm-4.509-1.133h3.375v-4.31h-3.375Z" fill="#1d1d1b"/><path d="M129.038,100.059H123.4V93.483h5.642Zm-4.509-1.133H127.9v-4.31h-3.375Z" fill="#1d1d1b"/><path d="M140.7,100.059h-5.643V93.483H140.7Zm-4.509-1.133h3.375v-4.31H136.19Z" fill="#1d1d1b"/><path d="M94.056,111.1H88.413v-6.576h5.643Zm-4.509-1.133h3.375v-4.309H89.547Z" fill="#1d1d1b"/><path d="M105.717,111.1h-5.643v-6.576h5.643Zm-4.509-1.133h3.375v-4.309h-3.375Z" fill="#1d1d1b"/><path d="M117.378,111.1h-5.643v-6.576h5.643Zm-4.509-1.133h3.375v-4.309h-3.375Z" fill="#1d1d1b"/><path d="M129.038,111.1H123.4v-6.576h5.642Zm-4.509-1.133H127.9v-4.309h-3.375Z" fill="#1d1d1b"/><path d="M140.7,111.1h-5.643v-6.576H140.7Zm-4.509-1.133h3.375v-4.309H136.19Z" fill="#1d1d1b"/><path d="M147.229,70.208h-5.642V63.632h5.642Zm-4.509-1.134H146.1V64.765H142.72Z" fill="#1d1d1b"/><path d="M158.89,70.208h-5.643V63.632h5.643Zm-4.509-1.134h3.375V64.765h-3.375Z" fill="#1d1d1b"/><path d="M170.55,70.208h-5.642V63.632h5.642Zm-4.508-1.134h3.375V64.765h-3.375Z" fill="#1d1d1b"/><path d="M182.211,70.208h-5.643V63.632h5.643ZM177.7,69.074h3.375V64.765H177.7Z" fill="#1d1d1b"/><path d="M193.872,70.208h-5.643V63.632h5.643Zm-4.509-1.134h3.375V64.765h-3.375Z" fill="#1d1d1b"/><path d="M158.89,81.246h-5.643V74.67h5.643Zm-4.509-1.133h3.375V75.8h-3.375Z" fill="#1d1d1b"/><path d="M170.55,81.246h-5.642V74.67h5.642Zm-4.508-1.133h3.375V75.8h-3.375Z" fill="#1d1d1b"/><path d="M182.211,81.246h-5.643V74.67h5.643ZM177.7,80.113h3.375V75.8H177.7Z" fill="#1d1d1b"/><path d="M193.872,81.246h-5.643V74.67h5.643Zm-4.509-1.133h3.375V75.8h-3.375Z" fill="#1d1d1b"/><path d="M158.89,92.285h-5.643V85.708h5.643Zm-4.509-1.134h3.375V86.842h-3.375Z" fill="#1d1d1b"/><path d="M170.55,92.285h-5.642V85.708h5.642Zm-4.508-1.134h3.375V86.842h-3.375Z" fill="#1d1d1b"/><path d="M182.211,92.285h-5.643V85.708h5.643ZM177.7,91.151h3.375V86.842H177.7Z" fill="#1d1d1b"/><path d="M193.872,92.285h-5.643V85.708h5.643Zm-4.509-1.134h3.375V86.842h-3.375Z" fill="#1d1d1b"/><path d="M242.59,38.968h-12.6V33.237a2.715,2.715,0,0,1,2.713-2.713v1a1.715,1.715,0,0,0-1.713,1.713v4.731h11.6Z" fill="#1d1d1b"/><rect width="13.76" height="1.134" transform="translate(55.216 118.418)" fill="#1d1d1b"/><path d="M58.711,122.419l-4.418-3.434,4.418-3.434.7.9-3.266,2.539,3.266,2.538Z" fill="#1d1d1b"/><rect width="13.76" height="1.134" transform="translate(55.216 127.993)" fill="#1d1d1b"/><path d="M65.482,131.994l-.7-.9,3.267-2.539-3.267-2.538.7-.9L69.9,128.56Z" fill="#1d1d1b"/><path d="M109.623,28.426h-1.7a.567.567,0,0,1,0-1.133h1.7a.567.567,0,1,1,0,1.133Zm-7.37,0h-1.7a.567.567,0,1,1,0-1.133h1.7a.567.567,0,1,1,0,1.133Zm-7.37,0h-1.7a.567.567,0,1,1,0-1.133h1.7a.567.567,0,1,1,0,1.133Zm-7.37,0h-1.7a.567.567,0,1,1,0-1.133h1.7a.567.567,0,1,1,0,1.133Zm-7.37,0h-1.7a.567.567,0,1,1,0-1.133h1.7a.567.567,0,1,1,0,1.133Zm-7.37,0h-.888a.567.567,0,1,1,0-1.133h.888a.567.567,0,0,1,0,1.133Z" fill="#1d1d1b" opacity="0.31"/><path d="M212.174,28.426h-1.7a.567.567,0,1,1,0-1.133h1.7a.567.567,0,1,1,0,1.133Zm-7.37,0h-1.7a.567.567,0,1,1,0-1.133h1.7a.567.567,0,1,1,0,1.133Zm-7.37,0h-1.7a.567.567,0,1,1,0-1.133h1.7a.567.567,0,1,1,0,1.133Zm-7.37,0h-1.7a.567.567,0,1,1,0-1.133h1.7a.567.567,0,0,1,0,1.133Zm-7.371,0h-1.7a.567.567,0,1,1,0-1.133h1.7a.567.567,0,1,1,0,1.133Zm-7.37,0h-.887a.567.567,0,1,1,0-1.133h.887a.567.567,0,1,1,0,1.133Z" fill="#1d1d1b" opacity="0.31"/><rect width="61.524" height="1" transform="translate(4.162 36.694)" fill="#1d1d1b"/><rect width="12.253" height="1" transform="translate(50.757 40.416)" fill="#1d1d1b"/><rect width="1" height="12.749" transform="translate(23.616 24.445)" fill="#1d1d1b"/><path d="M24.116,24.945a1.511,1.511,0,1,1,1.511-1.511A1.513,1.513,0,0,1,24.116,24.945Zm0-2.021a.511.511,0,1,0,.511.51A.511.511,0,0,0,24.116,22.924Z" fill="#1d1d1b"/><rect width="1" height="8.785" transform="translate(23.616 10.996)" fill="#82abdb"/><rect width="11.461" height="1" transform="translate(27.762 20.049) rotate(-45)" fill="#82abdb"/><rect width="1" height="11.461" transform="translate(11.66 12.652) rotate(-45)" fill="#82abdb"/><rect width="1" height="12.749" transform="translate(45.838 24.445)" fill="#1d1d1b"/><path d="M46.338,24.945a1.511,1.511,0,1,1,1.511-1.511A1.512,1.512,0,0,1,46.338,24.945Zm0-2.021a.511.511,0,1,0,.511.51A.511.511,0,0,0,46.338,22.924Z" fill="#1d1d1b"/><rect width="1" height="8.785" transform="translate(45.838 10.996)" fill="#82abdb"/><rect width="11.461" height="1" transform="translate(49.984 20.049) rotate(-45)" fill="#82abdb"/><rect width="1" height="11.461" transform="translate(33.882 12.652) rotate(-45.002)" fill="#82abdb"/><rect width="1" height="12.595" transform="translate(236.041 41.138)" fill="#82abdb"/><rect width="17.494" height="1" transform="translate(222.413 53.155) rotate(-45)" fill="#82abdb"/><rect width="1" height="17.494" transform="translate(237.591 41.491) rotate(-45)" fill="#82abdb"/><path d="M42.964,126.527h.948a2.393,2.393,0,0,0,2.367-2.75l-1.561-10.365a3.365,3.365,0,0,0-3.328-2.865H27.808l-3.923-10H4.677v25.981H42.964" fill="#fff"/><path d="M43.912,127.094H4.109V99.979H24.272l3.923,10H41.39a3.908,3.908,0,0,1,3.889,3.347l1.56,10.364a2.959,2.959,0,0,1-2.927,3.4ZM5.243,125.96H43.912a1.827,1.827,0,0,0,1.806-2.1L44.158,113.5a2.783,2.783,0,0,0-2.768-2.383H27.422l-3.924-10H5.243Z" fill="#1d1d1b"/><circle cx="8.785" cy="8.785" r="8.785" transform="translate(-0.19 124.92) rotate(-45)" fill="#ccc"/><circle cx="5.98" cy="5.98" r="5.98" transform="translate(29.903 121.541)" fill="#ccc"/><rect width="21.664" height="3.924" transform="translate(3.449 96.622)" fill="#fff"/><path d="M25.68,101.113H2.882V96.055h22.8ZM4.016,99.979h20.53v-2.79H4.016Z" fill="#1d1d1b"/><path d="M27.808,110.547H9.6v-7.8H24.747Z" fill="#fff"/><path d="M28.64,111.114H9.037v-8.938h16.1Zm-18.469-1.133H26.977l-2.617-6.672H10.171Z" fill="#1d1d1b"/><rect width="3.902" height="3.902" transform="translate(32.674 106.645)" fill="#fff"/><path d="M37.143,111.114H32.107v-5.036h5.036Zm-3.9-1.133h2.768v-2.769H33.241Z" fill="#1d1d1b"/><path d="M27.808,111.048H9.6a.5.5,0,0,1-.5-.5v-7.806a.5.5,0,0,1,.5-.5H24.747a.5.5,0,0,1,0,1H10.1v6.806h17.7a.5.5,0,0,1,0,1Z" fill="#1d1d1b"/><path d="M17.866,111.048a.5.5,0,0,1-.5-.5v-7.806a.5.5,0,0,1,1,0v7.806A.5.5,0,0,1,17.866,111.048Z" fill="#1d1d1b"/><path d="M42.181,114.036H37.9a.5.5,0,1,1,0-1h4.285a.5.5,0,0,1,0,1Z" fill="#1d1d1b"/><path d="M42.413,115.955H38.128a.5.5,0,1,1,0-1h4.285a.5.5,0,0,1,0,1Z" fill="#1d1d1b"/><path d="M42.645,117.873H38.36a.5.5,0,0,1,0-1h4.285a.5.5,0,1,1,0,1Z" fill="#1d1d1b"/><path d="M34.625,107.145a.5.5,0,0,1-.5-.5V104a.5.5,0,0,1,.187-.39l1.566-1.256a.5.5,0,0,1,.626.781l-1.379,1.1v2.407A.5.5,0,0,1,34.625,107.145Z" fill="#1d1d1b"/><path d="M13.388,127.989a3.583,3.583,0,1,1,3.582-3.583A3.587,3.587,0,0,1,13.388,127.989Zm0-6.166a2.583,2.583,0,1,0,2.582,2.583A2.586,2.586,0,0,0,13.388,121.823Z" fill="#1d1d1b"/><path d="M13.388,119.66a.985.985,0,1,1,.984-.984A.986.986,0,0,1,13.388,119.66Zm-.016-.984a.015.015,0,0,0,.016.015Z" fill="#1d1d1b"/><path d="M8.423,122.525a.967.967,0,0,1-.49-.132.984.984,0,1,1,.984-1.7h0a.985.985,0,0,1-.494,1.837Zm.244-1.4-.249.433a.016.016,0,0,0,.02,0Z" fill="#1d1d1b"/><path d="M8.427,128.256a.984.984,0,0,1-.495-1.836h0a.984.984,0,0,1,.986,1.7A.984.984,0,0,1,8.427,128.256Zm.012-.992-.006.021A.017.017,0,0,0,8.439,127.264Z" fill="#1d1d1b"/><path d="M13.388,131.121a.985.985,0,1,1,.984-.985A.986.986,0,0,1,13.388,131.121Zm0-1,.015.015A.015.015,0,0,0,13.388,130.121Z" fill="#1d1d1b"/><path d="M18.348,128.256a.978.978,0,0,1-.49-.132h0a.983.983,0,1,1,.491.133Zm0-1a.014.014,0,0,0-.012.007l-.23.428.25-.433Z" fill="#1d1d1b"/><path d="M18.352,122.525a.984.984,0,1,1,.491-.132h0A.984.984,0,0,1,18.352,122.525Zm-.009-1a.016.016,0,0,0-.006.022l.256.411Z" fill="#1d1d1b"/><path d="M13.388,127.989a3.583,3.583,0,1,1,3.582-3.583A3.587,3.587,0,0,1,13.388,127.989Zm0-6.166a2.583,2.583,0,1,0,2.582,2.583A2.586,2.586,0,0,0,13.388,121.823Z" fill="#1d1d1b"/><path d="M13.388,112.946A11.461,11.461,0,0,0,1.927,124.407H5.113a8.275,8.275,0,1,1,16.55,0h3.186A11.461,11.461,0,0,0,13.388,112.946Z" fill="#fff"/><path d="M25.416,124.973H21.1v-.567a7.708,7.708,0,0,0-15.416,0v.567H1.359v-.567a12.029,12.029,0,0,1,24.057,0Zm-3.2-1.133h2.055a10.894,10.894,0,0,0-21.759,0H4.565a8.842,8.842,0,0,1,17.647,0Z" fill="#1d1d1b"/><path d="M42.887,127.521h-1a5.7,5.7,0,1,0-11.394,0h-1a6.7,6.7,0,1,1,13.394,0Z" fill="#1d1d1b"/><path d="M36.835,130.072a2.552,2.552,0,1,1,2.551-2.551A2.554,2.554,0,0,1,36.835,130.072Zm0-4.1a1.552,1.552,0,1,0,1.551,1.552A1.555,1.555,0,0,0,36.835,125.969Z" fill="#1d1d1b"/><path d="M36.835,124.53a.822.822,0,1,1,.822-.823A.824.824,0,0,1,36.835,124.53Zm0-1a.178.178,0,0,0-.178.177c0,.2.356.2.355,0A.177.177,0,0,0,36.835,123.53Z" fill="#1d1d1b"/><path d="M33.531,126.436a.824.824,0,0,1-.712-1.234.825.825,0,0,1,.5-.383.822.822,0,0,1,.425,1.589A.822.822,0,0,1,33.531,126.436Zm-.088-.668a.185.185,0,0,0,.135.017.177.177,0,0,0,.125-.218.183.183,0,0,0-.084-.109.174.174,0,0,0-.133-.016.178.178,0,0,0-.043.326Z" fill="#1d1d1b"/><path d="M33.533,130.25a.835.835,0,0,1-.215-.028.823.823,0,1,1,.624-.082A.81.81,0,0,1,33.533,130.25Zm0-1a.176.176,0,0,0-.09.024.18.18,0,0,0-.082.108.178.178,0,0,0,.019.135.174.174,0,0,0,.107.082.188.188,0,0,0,.135-.018.179.179,0,0,0,.065-.243.179.179,0,0,0-.154-.088Z" fill="#1d1d1b"/><path d="M36.835,132.156a.823.823,0,1,1,.822-.821A.823.823,0,0,1,36.835,132.156Zm0-1a.179.179,0,0,0-.178.179c0,.195.356.2.355,0A.178.178,0,0,0,36.835,131.156Z" fill="#1d1d1b"/><path d="M40.137,130.25a.819.819,0,0,1-.41-.11h0a.823.823,0,1,1,.41.11Zm0-1a.177.177,0,1,0,.152.267.2.2,0,0,0-.063-.243A.177.177,0,0,0,40.138,129.25Zm.087.023h0Z" fill="#1d1d1b"/><path d="M40.139,126.435a.822.822,0,1,1,.792-.606.822.822,0,0,1-.792.606Zm-.089-.976a.182.182,0,0,0-.084.108.179.179,0,0,0,.018.134.177.177,0,0,0,.243.066.2.2,0,0,0,.065-.241A.178.178,0,0,0,40.05,125.459Zm0,0h0Z" fill="#1d1d1b"/><path d="M36.835,130.072a2.552,2.552,0,1,1,2.551-2.551A2.554,2.554,0,0,1,36.835,130.072Zm0-4.1a1.552,1.552,0,1,0,1.551,1.552A1.555,1.555,0,0,0,36.835,125.969Z" fill="#1d1d1b"/><path d="M61.516,37.694H50.223V35.375a3.317,3.317,0,0,1,3.313-3.314H58.2a3.317,3.317,0,0,1,3.313,3.314Zm-10.293-1h9.293V35.375A2.316,2.316,0,0,0,58.2,33.061H53.536a2.316,2.316,0,0,0-2.313,2.314Z" fill="#1d1d1b"/><path d="M19.911,37.694H8.618V35.375a3.317,3.317,0,0,1,3.313-3.314H16.6a3.317,3.317,0,0,1,3.313,3.314Zm-10.293-1h9.293V35.375A2.316,2.316,0,0,0,16.6,33.061H11.931a2.316,2.316,0,0,0-2.313,2.314Z" fill="#1d1d1b"/><path d="M15.668,30.658a3.8,3.8,0,0,1-1.647-.413l-.426-.23.217-.432a3.461,3.461,0,0,1,1.809-1.634,3.473,3.473,0,0,1,2.419.3l.425.23-.216.433a3.456,3.456,0,0,1-1.809,1.633A2.562,2.562,0,0,1,15.668,30.658Zm-.646-1.093a1.992,1.992,0,0,0,1.116.025,2.009,2.009,0,0,0,.9-.662,2,2,0,0,0-1.117-.024A2.014,2.014,0,0,0,15.022,29.565Z" fill="#1d1d1b"/><rect width="1" height="2.543" transform="translate(13.764 29.767)" fill="#1d1d1b"/><path d="M36.5,30.658a3.8,3.8,0,0,1-1.647-.413l-.425-.23.216-.432a3.46,3.46,0,0,1,1.81-1.634,3.476,3.476,0,0,1,2.418.3l.425.23-.216.433a3.456,3.456,0,0,1-1.809,1.633A2.558,2.558,0,0,1,36.5,30.658Zm-.646-1.093a1.733,1.733,0,0,0,2.017-.637,1.736,1.736,0,0,0-2.017.637Z" fill="#1d1d1b"/><rect width="1" height="2.543" transform="translate(34.601 29.767)" fill="#1d1d1b"/><path d="M57.273,30.658a3.8,3.8,0,0,1-1.647-.413l-.425-.23.216-.432a2.931,2.931,0,0,1,4.228-1.335l.425.23-.216.433a3.461,3.461,0,0,1-1.809,1.633A2.562,2.562,0,0,1,57.273,30.658Zm-.647-1.093a1.733,1.733,0,0,0,2.018-.637,1.738,1.738,0,0,0-2.018.637Z" fill="#1d1d1b"/><rect width="1" height="2.543" transform="translate(55.369 29.767)" fill="#1d1d1b"/><path d="M40.714,37.694H29.42V35.375a3.318,3.318,0,0,1,3.314-3.314H37.4a3.318,3.318,0,0,1,3.314,3.314Zm-10.294-1h9.294V35.375A2.317,2.317,0,0,0,37.4,33.061H32.734a2.317,2.317,0,0,0-2.314,2.314Z" fill="#1d1d1b"/></g></svg>