<svg xmlns="http://www.w3.org/2000/svg" width="144.734" height="116.174" viewBox="0 0 144.734 116.174"><g transform="translate(580.76 -284.555)"><rect width="80.679" height="49.383" rx="4.955" transform="translate(-536.752 311.953)" fill="#82abdb"/><g transform="translate(-510.066 358.492)"><rect width="21.315" height="5.108" transform="translate(0.551 0.551)" fill="#fff"/><path d="M-462.141,391.382h-22.416v-6.211h22.416Zm-21.314-1.1h20.212v-4.006h-20.212Z" transform="translate(484.557 -385.171)" fill="#1d1d1b"/></g><g transform="translate(-517.744 363.601)"><path d="M-495,392.873h41.815a1.988,1.988,0,0,1,1.982,1.982h0a1.988,1.988,0,0,1-1.982,1.982h-38.492" transform="translate(495.005 -392.322)" fill="#fff"/><path d="M-453.189,397.189h-38.491v-1.1h38.491a1.433,1.433,0,0,0,1.431-1.431,1.433,1.433,0,0,0-1.431-1.431h-41.816v-1.1h41.816a2.536,2.536,0,0,1,2.533,2.533A2.537,2.537,0,0,1-453.189,397.189Z" transform="translate(495.005 -392.123)" fill="#1d1d1b"/></g><path d="M-445.848,369.967h-73.4v-1.1h73.4a3.093,3.093,0,0,0,3.09-3.089v-42.1h1.1v42.1A4.2,4.2,0,0,1-445.848,369.967Z" transform="translate(-16.311 -10.373)" fill="#1d1d1b"/><g transform="translate(-471.739 315.581)"><path d="M-430.943,329.693a1.46,1.46,0,0,1-1.458-1.458,1.46,1.46,0,0,1,1.458-1.459,1.461,1.461,0,0,1,1.459,1.459A1.46,1.46,0,0,1-430.943,329.693Zm0-1.814a.357.357,0,0,0-.356.356.356.356,0,0,0,.356.356.356.356,0,0,0,.356-.356A.357.357,0,0,0-430.943,327.878Z" transform="translate(432.401 -326.776)" fill="#1d1d1b"/><path d="M-426.52,329.693a1.46,1.46,0,0,1-1.458-1.458,1.46,1.46,0,0,1,1.458-1.459,1.46,1.46,0,0,1,1.458,1.459A1.46,1.46,0,0,1-426.52,329.693Zm0-1.814a.356.356,0,0,0-.356.356.355.355,0,0,0,.356.356.355.355,0,0,0,.356-.356A.356.356,0,0,0-426.52,327.878Z" transform="translate(431.228 -326.776)" fill="#1d1d1b"/><path d="M-422.1,329.693a1.46,1.46,0,0,1-1.458-1.458,1.46,1.46,0,0,1,1.458-1.459,1.46,1.46,0,0,1,1.458,1.459A1.46,1.46,0,0,1-422.1,329.693Zm0-1.814a.356.356,0,0,0-.356.356.355.355,0,0,0,.356.356.356.356,0,0,0,.356-.356A.357.357,0,0,0-422.1,327.878Z" transform="translate(430.055 -326.776)" fill="#1d1d1b"/></g><g transform="translate(-480.347 332.46)"><g transform="translate(0 0)"><path d="M-399.595,361.819h-43.769V350.5h43.769" transform="translate(443.915 -349.944)" fill="#fff"/><path d="M-399.794,362.172h-44.32V349.746h44.32v1.1h-43.218V361.07h43.218Z" transform="translate(444.114 -349.746)" fill="#1d1d1b"/></g><g transform="translate(0 15.633)"><path d="M-399.595,383.093h-43.769V371.769h43.769" transform="translate(443.915 -371.218)" fill="#fff"/><path d="M-399.794,383.445h-44.32V371.019h44.32v1.1h-43.218v10.222h43.218Z" transform="translate(444.114 -371.019)" fill="#1d1d1b"/></g><g transform="translate(0 31.266)"><path d="M-399.595,404.367h-43.769V393.043h43.769" transform="translate(443.915 -392.492)" fill="#fff"/><path d="M-399.794,404.719h-44.32V392.293h44.32v1.1h-43.218v10.222h43.218Z" transform="translate(444.114 -392.293)" fill="#1d1d1b"/></g><g transform="translate(3.827 11.324)"><rect width="36.3" height="4.309" transform="translate(0.551 0.551)" fill="#fff"/><path d="M-401.5,370.567h-37.4v-5.411h37.4Zm-36.3-1.1h35.2v-3.206h-35.2Z" transform="translate(438.906 -365.156)" fill="#1d1d1b"/></g><g transform="translate(3.827 26.946)"><rect width="36.3" height="4.309" transform="translate(0.551 0.551)" fill="#fff"/><path d="M-401.5,391.825h-37.4v-5.411h37.4Zm-36.3-1.1h35.2v-3.206h-35.2Z" transform="translate(438.906 -386.414)" fill="#1d1d1b"/></g><g transform="translate(4.082 3.691)"><g transform="translate(23.617)"><circle cx="1.972" cy="1.972" r="1.972" transform="translate(0.551 0.551)" fill="#fff"/><path d="M-403.9,359.813a2.526,2.526,0,0,1-2.523-2.523,2.526,2.526,0,0,1,2.523-2.523,2.526,2.526,0,0,1,2.523,2.523A2.526,2.526,0,0,1-403.9,359.813Zm0-3.943a1.422,1.422,0,0,0-1.42,1.42,1.422,1.422,0,0,0,1.42,1.42,1.422,1.422,0,0,0,1.42-1.42A1.422,1.422,0,0,0-403.9,355.87Z" transform="translate(406.42 -354.768)" fill="#1d1d1b"/></g><g transform="translate(31.609)"><circle cx="1.972" cy="1.972" r="1.972" transform="translate(0.551 0.551)" fill="#fff"/><path d="M-393.022,359.813a2.526,2.526,0,0,1-2.523-2.523,2.526,2.526,0,0,1,2.523-2.523,2.526,2.526,0,0,1,2.523,2.523A2.526,2.526,0,0,1-393.022,359.813Zm0-3.943a1.422,1.422,0,0,0-1.42,1.42,1.422,1.422,0,0,0,1.42,1.42,1.422,1.422,0,0,0,1.42-1.42A1.422,1.422,0,0,0-393.022,355.87Z" transform="translate(395.545 -354.768)" fill="#1d1d1b"/></g><g transform="translate(0 0.267)"><line x2="2.082" transform="translate(0 0.551)" fill="#fff"/><rect width="2.083" height="1.102" fill="#1d1d1b"/></g><g transform="translate(3.647 0.267)"><line x2="2.082" transform="translate(0 0.551)" fill="#fff"/><rect width="2.082" height="1.102" transform="translate(0)" fill="#1d1d1b"/></g><g transform="translate(7.295 0.267)"><line x2="2.082" transform="translate(0 0.551)" fill="#fff"/><rect width="2.083" height="1.102" fill="#1d1d1b"/></g><g transform="translate(10.942 0.267)"><line x2="2.082" transform="translate(0 0.551)" fill="#fff"/><rect width="2.083" height="1.102" fill="#1d1d1b"/></g><g transform="translate(14.59 0.267)"><line x2="2.082" transform="translate(0 0.551)" fill="#fff"/><rect width="2.082" height="1.102" transform="translate(0)" fill="#1d1d1b"/></g><g transform="translate(18.237 0.267)"><line x2="2.082" transform="translate(0 0.551)" fill="#fff"/><rect width="2.083" height="1.102" fill="#1d1d1b"/></g><g transform="translate(0 3.721)"><line x2="2.082" transform="translate(0 0.551)" fill="#fff"/><rect width="2.083" height="1.102" fill="#1d1d1b"/></g><g transform="translate(3.647 3.721)"><line x2="2.082" transform="translate(0 0.551)" fill="#fff"/><rect width="2.082" height="1.102" transform="translate(0)" fill="#1d1d1b"/></g><g transform="translate(7.295 3.721)"><line x2="2.082" transform="translate(0 0.551)" fill="#fff"/><rect width="2.083" height="1.102" fill="#1d1d1b"/></g><g transform="translate(10.942 3.721)"><line x2="2.082" transform="translate(0 0.551)" fill="#fff"/><rect width="2.083" height="1.102" fill="#1d1d1b"/></g><g transform="translate(14.59 3.721)"><line x2="2.082" transform="translate(0 0.551)" fill="#fff"/><rect width="2.082" height="1.102" transform="translate(0)" fill="#1d1d1b"/></g><g transform="translate(18.237 3.721)"><line x2="2.082" transform="translate(0 0.551)" fill="#fff"/><rect width="2.083" height="1.102" fill="#1d1d1b"/></g></g><g transform="translate(3.931 19.323)"><g transform="translate(23.617)"><path d="M-401.933,378.763a1.971,1.971,0,0,0-1.971-1.972,1.971,1.971,0,0,0-1.972,1.972,1.972,1.972,0,0,0,1.972,1.972A1.972,1.972,0,0,0-401.933,378.763Z" transform="translate(406.427 -376.24)" fill="#fff"/><path d="M-404.1,381.086a2.526,2.526,0,0,1-2.523-2.523,2.526,2.526,0,0,1,2.523-2.523,2.525,2.525,0,0,1,2.522,2.523A2.525,2.525,0,0,1-404.1,381.086Zm0-3.943a1.422,1.422,0,0,0-1.421,1.42,1.422,1.422,0,0,0,1.421,1.42,1.422,1.422,0,0,0,1.42-1.42A1.422,1.422,0,0,0-404.1,377.143Z" transform="translate(406.626 -376.041)" fill="#1d1d1b"/></g><g transform="translate(31.609)"><path d="M-391.057,378.763a1.971,1.971,0,0,0-1.972-1.972A1.971,1.971,0,0,0-395,378.763a1.972,1.972,0,0,0,1.972,1.972A1.972,1.972,0,0,0-391.057,378.763Z" transform="translate(395.551 -376.24)" fill="#fff"/><path d="M-393.227,381.086a2.526,2.526,0,0,1-2.523-2.523,2.526,2.526,0,0,1,2.523-2.523,2.525,2.525,0,0,1,2.522,2.523A2.525,2.525,0,0,1-393.227,381.086Zm0-3.943a1.422,1.422,0,0,0-1.42,1.42,1.422,1.422,0,0,0,1.42,1.42,1.422,1.422,0,0,0,1.42-1.42A1.422,1.422,0,0,0-393.227,377.143Z" transform="translate(395.75 -376.041)" fill="#1d1d1b"/></g><g transform="translate(0 0.267)"><line x2="2.082" transform="translate(0 0.551)" fill="#fff"/><rect width="2.082" height="1.102" transform="translate(0)" fill="#1d1d1b"/></g><g transform="translate(3.647 0.267)"><line x2="2.082" transform="translate(0 0.551)" fill="#fff"/><rect width="2.083" height="1.102" fill="#1d1d1b"/></g><g transform="translate(7.295 0.267)"><line x2="2.082" transform="translate(0 0.551)" fill="#fff"/><rect width="2.082" height="1.102" transform="translate(0)" fill="#1d1d1b"/></g><g transform="translate(10.942 0.267)"><line x2="2.082" transform="translate(0 0.551)" fill="#fff"/><rect width="2.082" height="1.102" transform="translate(0)" fill="#1d1d1b"/></g><g transform="translate(14.59 0.267)"><line x2="2.082" transform="translate(0 0.551)" fill="#fff"/><rect width="2.083" height="1.102" fill="#1d1d1b"/></g><g transform="translate(18.237 0.267)"><line x2="2.082" transform="translate(0 0.551)" fill="#fff"/><rect width="2.082" height="1.102" transform="translate(0)" fill="#1d1d1b"/></g><g transform="translate(0 3.721)"><line x2="2.082" transform="translate(0 0.551)" fill="#fff"/><rect width="2.082" height="1.102" transform="translate(0)" fill="#1d1d1b"/></g><g transform="translate(3.647 3.721)"><line x2="2.082" transform="translate(0 0.551)" fill="#fff"/><rect width="2.083" height="1.102" fill="#1d1d1b"/></g><g transform="translate(7.295 3.721)"><line x2="2.082" transform="translate(0 0.551)" fill="#fff"/><rect width="2.082" height="1.102" transform="translate(0)" fill="#1d1d1b"/></g><g transform="translate(10.942 3.721)"><line x2="2.082" transform="translate(0 0.551)" fill="#fff"/><rect width="2.082" height="1.102" transform="translate(0)" fill="#1d1d1b"/></g><g transform="translate(14.59 3.721)"><line x2="2.082" transform="translate(0 0.551)" fill="#fff"/><rect width="2.083" height="1.102" fill="#1d1d1b"/></g><g transform="translate(18.237 3.721)"><line x2="2.082" transform="translate(0 0.551)" fill="#fff"/><rect width="2.082" height="1.102" transform="translate(0)" fill="#1d1d1b"/></g></g><g transform="translate(3.931 34.955)"><g transform="translate(23.617)"><path d="M-401.933,400.036a1.971,1.971,0,0,0-1.971-1.972,1.971,1.971,0,0,0-1.972,1.972,1.972,1.972,0,0,0,1.972,1.972A1.972,1.972,0,0,0-401.933,400.036Z" transform="translate(406.427 -397.512)" fill="#fff"/><path d="M-404.1,402.359a2.526,2.526,0,0,1-2.523-2.523,2.526,2.526,0,0,1,2.523-2.523,2.526,2.526,0,0,1,2.522,2.523A2.525,2.525,0,0,1-404.1,402.359Zm0-3.944a1.423,1.423,0,0,0-1.421,1.421,1.422,1.422,0,0,0,1.421,1.42,1.422,1.422,0,0,0,1.42-1.42A1.422,1.422,0,0,0-404.1,398.415Z" transform="translate(406.626 -397.313)" fill="#1d1d1b"/></g><g transform="translate(31.609)"><path d="M-391.057,400.036a1.971,1.971,0,0,0-1.972-1.972A1.971,1.971,0,0,0-395,400.036a1.972,1.972,0,0,0,1.972,1.972A1.972,1.972,0,0,0-391.057,400.036Z" transform="translate(395.551 -397.512)" fill="#fff"/><path d="M-393.227,402.359a2.525,2.525,0,0,1-2.523-2.523,2.526,2.526,0,0,1,2.523-2.523,2.526,2.526,0,0,1,2.522,2.523A2.525,2.525,0,0,1-393.227,402.359Zm0-3.944a1.423,1.423,0,0,0-1.42,1.421,1.422,1.422,0,0,0,1.42,1.42,1.422,1.422,0,0,0,1.42-1.42A1.422,1.422,0,0,0-393.227,398.415Z" transform="translate(395.75 -397.313)" fill="#1d1d1b"/></g><g transform="translate(0 0.268)"><line x2="2.082" transform="translate(0 0.551)" fill="#fff"/><rect width="2.082" height="1.102" transform="translate(0)" fill="#1d1d1b"/></g><g transform="translate(3.647 0.268)"><line x2="2.082" transform="translate(0 0.551)" fill="#fff"/><rect width="2.083" height="1.102" fill="#1d1d1b"/></g><g transform="translate(7.295 0.268)"><line x2="2.082" transform="translate(0 0.551)" fill="#fff"/><rect width="2.082" height="1.102" transform="translate(0)" fill="#1d1d1b"/></g><g transform="translate(10.942 0.268)"><line x2="2.082" transform="translate(0 0.551)" fill="#fff"/><rect width="2.082" height="1.102" transform="translate(0)" fill="#1d1d1b"/></g><g transform="translate(14.59 0.268)"><line x2="2.082" transform="translate(0 0.551)" fill="#fff"/><rect width="2.083" height="1.102" fill="#1d1d1b"/></g><g transform="translate(18.237 0.268)"><line x2="2.082" transform="translate(0 0.551)" fill="#fff"/><rect width="2.082" height="1.102" transform="translate(0)" fill="#1d1d1b"/></g><g transform="translate(0 3.721)"><line x2="2.082" transform="translate(0 0.551)" fill="#fff"/><rect width="2.082" height="1.102" transform="translate(0)" fill="#1d1d1b"/></g><g transform="translate(3.647 3.721)"><line x2="2.082" transform="translate(0 0.551)" fill="#fff"/><rect width="2.083" height="1.102" fill="#1d1d1b"/></g><g transform="translate(7.295 3.721)"><line x2="2.082" transform="translate(0 0.551)" fill="#fff"/><rect width="2.082" height="1.102" transform="translate(0)" fill="#1d1d1b"/></g><g transform="translate(10.942 3.721)"><line x2="2.082" transform="translate(0 0.551)" fill="#fff"/><rect width="2.082" height="1.102" transform="translate(0)" fill="#1d1d1b"/></g><g transform="translate(14.59 3.721)"><line x2="2.082" transform="translate(0 0.551)" fill="#fff"/><rect width="2.083" height="1.102" fill="#1d1d1b"/></g><g transform="translate(18.237 3.721)"><line x2="2.082" transform="translate(0 0.551)" fill="#fff"/><rect width="2.082" height="1.102" transform="translate(0)" fill="#1d1d1b"/></g></g></g><g transform="translate(-559.606 284.555)"><path d="M-491.295,433.383h-.085a.551.551,0,0,1-.551-.551.551.551,0,0,1,.551-.551h.085q.58,0,1.154-.011a.572.572,0,0,1,.562.54.552.552,0,0,1-.54.562Q-490.7,433.383-491.295,433.383Zm-4.245-.154h-.041q-.629-.046-1.257-.106a.552.552,0,0,1-.5-.6.554.554,0,0,1,.6-.5q.615.058,1.234.1a.552.552,0,0,1,.509.59A.551.551,0,0,1-495.54,433.229Zm9.566-.089a.551.551,0,0,1-.548-.5.552.552,0,0,1,.5-.6c.412-.037.822-.079,1.231-.126a.548.548,0,0,1,.61.485.551.551,0,0,1-.485.61q-.627.072-1.257.129Zm-14.943-.558a.564.564,0,0,1-.093-.007q-.624-.106-1.246-.224a.551.551,0,0,1-.438-.644.55.55,0,0,1,.644-.438q.61.116,1.223.219a.552.552,0,0,1,.452.636A.551.551,0,0,1-500.917,432.582Zm20.3-.189a.551.551,0,0,1-.541-.45.551.551,0,0,1,.441-.643q.606-.114,1.21-.24a.555.555,0,0,1,.653.425.552.552,0,0,1-.426.653q-.614.129-1.235.245A.6.6,0,0,1-480.613,432.393Zm-25.6-.962a.557.557,0,0,1-.142-.019c-.409-.109-.813-.222-1.219-.34a.551.551,0,0,1-.375-.683.552.552,0,0,1,.683-.376q.6.174,1.195.334a.552.552,0,0,1,.39.675A.553.553,0,0,1-506.212,431.431Zm30.861-.285a.551.551,0,0,1-.529-.4.552.552,0,0,1,.376-.683q.6-.171,1.184-.354a.548.548,0,0,1,.689.362.551.551,0,0,1-.362.69q-.6.187-1.205.362A.548.548,0,0,1-475.351,431.146Zm-36.023-1.362a.556.556,0,0,1-.193-.035q-.593-.22-1.18-.455a.552.552,0,0,1-.309-.716.552.552,0,0,1,.716-.308q.575.229,1.157.445a.551.551,0,0,1,.324.708A.551.551,0,0,1-511.374,429.784Zm41.143-.378a.551.551,0,0,1-.513-.35.551.551,0,0,1,.312-.714q.575-.227,1.144-.465a.552.552,0,0,1,.722.3.551.551,0,0,1-.295.721q-.582.243-1.168.474A.557.557,0,0,1-470.231,429.406Zm-46.125-1.751a.536.536,0,0,1-.24-.055q-.569-.276-1.131-.563a.551.551,0,0,1-.239-.742.551.551,0,0,1,.741-.239q.551.282,1.109.553a.55.55,0,0,1,.255.736A.549.549,0,0,1-516.355,427.655Zm51.061-.465a.551.551,0,0,1-.492-.3.551.551,0,0,1,.242-.741q.552-.28,1.1-.572a.55.55,0,0,1,.746.226.551.551,0,0,1-.226.746q-.554.3-1.118.583A.549.549,0,0,1-465.295,427.19Zm-55.817-2.123a.553.553,0,0,1-.285-.08q-.54-.328-1.072-.667a.551.551,0,0,1-.169-.761.552.552,0,0,1,.761-.169c.349.222.7.44,1.052.654a.553.553,0,0,1,.186.758A.553.553,0,0,1-521.112,425.067Zm60.522-.55a.548.548,0,0,1-.466-.256.55.55,0,0,1,.171-.761q.524-.331,1.038-.672a.551.551,0,0,1,.764.155.551.551,0,0,1-.154.763q-.525.348-1.059.686A.551.551,0,0,1-460.59,424.516Zm-65.014-2.474a.552.552,0,0,1-.328-.109q-.507-.377-1-.765a.552.552,0,0,1-.1-.773.55.55,0,0,1,.774-.1q.489.38.985.75a.551.551,0,0,1,.113.772A.55.55,0,0,1-525.6,422.043Zm69.449-.629a.548.548,0,0,1-.437-.215.551.551,0,0,1,.1-.773q.491-.377.97-.766a.552.552,0,0,1,.775.082.552.552,0,0,1-.082.776q-.49.4-.99.782A.55.55,0,0,1-456.155,421.414Zm-73.637-2.8a.548.548,0,0,1-.369-.142q-.468-.422-.928-.855a.55.55,0,0,1-.024-.779.55.55,0,0,1,.778-.024q.451.424.911.838a.55.55,0,0,1,.04.778A.547.547,0,0,1-529.792,418.612Zm77.76-.7a.547.547,0,0,1-.4-.175.551.551,0,0,1,.026-.779q.453-.422.9-.855a.551.551,0,0,1,.779.011.55.55,0,0,1-.01.779q-.452.44-.912.87A.554.554,0,0,1-452.032,417.909Zm-81.61-3.1a.549.549,0,0,1-.406-.178q-.427-.464-.844-.937a.551.551,0,0,1,.049-.777.55.55,0,0,1,.778.048q.409.464.828.919a.551.551,0,0,1-.032.779A.548.548,0,0,1-533.641,414.8Zm85.389-.771a.551.551,0,0,1-.366-.139.551.551,0,0,1-.046-.777q.411-.463.812-.935a.552.552,0,0,1,.777-.062.551.551,0,0,1,.063.777q-.408.481-.827.952A.551.551,0,0,1-448.252,414.034Zm-88.864-3.378a.55.55,0,0,1-.439-.218q-.381-.5-.753-1.012a.551.551,0,0,1,.121-.77.552.552,0,0,1,.77.122q.365.5.738.993a.551.551,0,0,1-.1.772A.549.549,0,0,1-537.116,410.656Zm92.265-.833a.547.547,0,0,1-.326-.107.551.551,0,0,1-.118-.77q.366-.5.721-1.006a.55.55,0,0,1,.767-.136.551.551,0,0,1,.136.767q-.362.518-.736,1.027A.55.55,0,0,1-444.851,409.822Z" transform="translate(548.377 -317.209)" fill="#1d1d1b" opacity="0.31"/><path d="M-551.421,332.354a.561.561,0,0,1-.1-.01.55.55,0,0,1-.438-.644q.119-.621.249-1.236a.552.552,0,0,1,.653-.425.551.551,0,0,1,.425.653q-.128.605-.245,1.214A.551.551,0,0,1-551.421,332.354Zm112.915-.738a.552.552,0,0,1-.539-.441q-.123-.606-.26-1.207a.551.551,0,0,1,.415-.659.554.554,0,0,1,.66.415q.139.613.265,1.231a.551.551,0,0,1-.429.65A.579.579,0,0,1-438.506,331.616Zm-111.653-4.526a.541.541,0,0,1-.154-.022.55.55,0,0,1-.374-.683q.176-.608.366-1.211a.549.549,0,0,1,.691-.362.551.551,0,0,1,.361.691q-.186.592-.36,1.189A.551.551,0,0,1-550.159,327.09Zm110.324-.717a.551.551,0,0,1-.527-.389q-.183-.594-.375-1.182a.552.552,0,0,1,.351-.7.549.549,0,0,1,.7.351q.2.6.381,1.2a.552.552,0,0,1-.364.689A.569.569,0,0,1-439.835,326.373Zm-108.566-4.41a.565.565,0,0,1-.2-.038.551.551,0,0,1-.309-.716q.234-.589.479-1.171a.554.554,0,0,1,.722-.294.552.552,0,0,1,.295.722q-.241.571-.471,1.149A.551.551,0,0,1-548.4,321.963Zm106.744-.684a.55.55,0,0,1-.51-.342q-.235-.571-.481-1.135a.55.55,0,0,1,.284-.726.55.55,0,0,1,.725.284q.254.575.492,1.159a.55.55,0,0,1-.3.719A.559.559,0,0,1-441.657,321.279Zm-104.51-4.251a.549.549,0,0,1-.251-.06.552.552,0,0,1-.24-.742c.193-.375.387-.747.587-1.118a.549.549,0,0,1,.746-.225.551.551,0,0,1,.224.747q-.293.546-.575,1.1A.552.552,0,0,1-546.166,317.028Zm102.217-.645a.551.551,0,0,1-.488-.295q-.288-.546-.587-1.085a.55.55,0,0,1,.214-.75.55.55,0,0,1,.749.214q.305.55.6,1.107a.551.551,0,0,1-.231.744A.546.546,0,0,1-443.949,316.383Zm-99.527-4.056a.542.542,0,0,1-.295-.086.551.551,0,0,1-.17-.761q.339-.533.691-1.059a.551.551,0,0,1,.764-.152.552.552,0,0,1,.151.765q-.344.515-.676,1.038A.55.55,0,0,1-543.477,312.326Zm96.783-.6a.552.552,0,0,1-.462-.25c-.225-.345-.455-.686-.687-1.026a.551.551,0,0,1,.142-.766.552.552,0,0,1,.766.143q.357.519.7,1.047a.551.551,0,0,1-.16.763A.55.55,0,0,1-446.694,311.722Zm-93.664-3.822a.55.55,0,0,1-.337-.116.551.551,0,0,1-.1-.773q.388-.5.786-.988a.55.55,0,0,1,.775-.08.551.551,0,0,1,.08.775q-.392.481-.77.969A.553.553,0,0,1-540.358,307.9Zm90.494-.561a.551.551,0,0,1-.431-.207c-.259-.323-.518-.643-.783-.96a.551.551,0,0,1,.071-.776.55.55,0,0,1,.776.071q.4.484.8.977a.552.552,0,0,1-.087.775A.55.55,0,0,1-449.864,307.338Zm-86.974-3.554a.552.552,0,0,1-.377-.149.552.552,0,0,1-.025-.78q.432-.46.875-.91a.55.55,0,0,1,.779-.007.55.55,0,0,1,.007.779q-.433.442-.857.893A.55.55,0,0,1-536.838,303.785Zm83.4-.516a.551.551,0,0,1-.4-.169q-.429-.446-.868-.883a.55.55,0,0,1,0-.779.55.55,0,0,1,.779,0q.446.444.884.9a.552.552,0,0,1-.014.78A.551.551,0,0,1-453.433,303.269Zm-79.517-3.252a.55.55,0,0,1-.413-.187.552.552,0,0,1,.048-.778c.315-.278.633-.553.955-.824a.552.552,0,0,1,.777.065.552.552,0,0,1-.066.777q-.473.4-.937.808A.547.547,0,0,1-532.951,300.017Zm75.585-.468a.549.549,0,0,1-.36-.133q-.47-.4-.948-.8a.551.551,0,0,1-.073-.776.549.549,0,0,1,.775-.074q.487.4.966.813a.551.551,0,0,1,.058.777A.546.546,0,0,1-457.365,299.549Zm-71.364-2.92a.549.549,0,0,1-.446-.227.55.55,0,0,1,.121-.769q.51-.371,1.027-.73a.551.551,0,0,1,.767.137.55.55,0,0,1-.138.767q-.508.354-1.007.717A.55.55,0,0,1-528.73,296.629Zm67.1-.416a.55.55,0,0,1-.319-.1q-.5-.358-1.018-.706a.551.551,0,0,1-.148-.765.551.551,0,0,1,.766-.147q.522.354,1.039.72a.551.551,0,0,1,.129.768A.55.55,0,0,1-461.631,296.213Zm-62.58-2.559a.55.55,0,0,1-.475-.27.55.55,0,0,1,.193-.755q.541-.322,1.089-.631a.552.552,0,0,1,.752.209.552.552,0,0,1-.209.751q-.539.3-1.069.619A.55.55,0,0,1-524.211,293.654Zm58.022-.364a.547.547,0,0,1-.274-.073q-.538-.309-1.082-.608a.551.551,0,0,1-.218-.748.551.551,0,0,1,.748-.218q.554.3,1.1.619a.552.552,0,0,1,.2.753A.55.55,0,0,1-466.189,293.29Zm-53.245-2.174a.552.552,0,0,1-.5-.316.55.55,0,0,1,.263-.733q.568-.269,1.143-.525a.552.552,0,0,1,.727.279.551.551,0,0,1-.278.727q-.564.251-1.122.515A.547.547,0,0,1-519.435,291.116Zm48.43-.306a.547.547,0,0,1-.229-.049q-.564-.258-1.135-.5a.552.552,0,0,1-.288-.725.55.55,0,0,1,.724-.288q.582.251,1.157.513a.551.551,0,0,1,.273.73A.551.551,0,0,1-471,290.809Zm-43.439-1.769a.55.55,0,0,1-.518-.364.55.55,0,0,1,.331-.705q.592-.214,1.19-.416a.551.551,0,0,1,.7.346.551.551,0,0,1-.345.7q-.589.2-1.169.409A.556.556,0,0,1-514.444,289.041Zm38.408-.247a.551.551,0,0,1-.18-.03q-.586-.2-1.178-.394a.552.552,0,0,1-.356-.694.551.551,0,0,1,.694-.356q.6.2,1.2.4a.551.551,0,0,1,.34.7A.551.551,0,0,1-476.036,288.794Zm-33.236-1.348a.551.551,0,0,1-.534-.414.551.551,0,0,1,.4-.671q.611-.157,1.226-.3a.555.555,0,0,1,.662.412.551.551,0,0,1-.412.661q-.6.141-1.2.295A.529.529,0,0,1-509.271,287.445Zm28.041-.181a.574.574,0,0,1-.132-.015c-.4-.1-.8-.191-1.2-.28a.551.551,0,0,1-.42-.656.552.552,0,0,1,.657-.42q.618.137,1.229.286a.551.551,0,0,1,.4.666A.552.552,0,0,1-481.23,287.264Zm-22.742-.919a.551.551,0,0,1-.544-.465.551.551,0,0,1,.459-.63q.621-.1,1.248-.184a.559.559,0,0,1,.621.472.552.552,0,0,1-.472.62c-.411.056-.818.117-1.225.181A.583.583,0,0,1-503.972,286.346Zm17.429-.111a.6.6,0,0,1-.081-.006q-.611-.09-1.226-.165a.551.551,0,0,1-.479-.615.555.555,0,0,1,.614-.479q.627.077,1.251.168a.552.552,0,0,1,.466.625A.552.552,0,0,1-486.543,286.235Zm-12.05-.484a.55.55,0,0,1-.549-.517.55.55,0,0,1,.515-.584c.419-.027.838-.048,1.259-.067a.548.548,0,0,1,.573.528.55.55,0,0,1-.527.574q-.619.026-1.237.065Zm6.664-.042h-.029q-.616-.031-1.236-.049a.553.553,0,0,1-.536-.567.538.538,0,0,1,.567-.534q.633.018,1.261.05a.551.551,0,0,1,.522.578A.551.551,0,0,1-491.929,285.709Z" transform="translate(551.972 -284.555)" fill="#1d1d1b" opacity="0.31"/><path d="M-488.526,426.735c-.315,0-.628,0-.943-.008a.551.551,0,0,1-.541-.561.552.552,0,0,1,.561-.541q.461.008.923.008h.317a.551.551,0,0,1,.551.547.551.551,0,0,1-.547.555Zm4.475-.194a.552.552,0,0,1-.548-.5.55.55,0,0,1,.5-.6q.616-.055,1.231-.123a.551.551,0,0,1,.609.486.551.551,0,0,1-.487.608q-.625.071-1.256.126Zm-9.565-.058a.472.472,0,0,1-.055,0q-.632-.063-1.26-.141a.55.55,0,0,1-.478-.614.544.544,0,0,1,.615-.479q.614.076,1.232.138a.551.551,0,0,1,.494.6A.552.552,0,0,1-493.616,426.483Zm14.923-.7a.551.551,0,0,1-.54-.445.552.552,0,0,1,.434-.647q.607-.119,1.207-.253a.554.554,0,0,1,.658.418.552.552,0,0,1-.419.658c-.409.091-.821.177-1.234.259A.6.6,0,0,1-478.693,425.783Zm-20.279-.124a.511.511,0,0,1-.114-.012q-.619-.129-1.236-.274a.551.551,0,0,1-.41-.663.555.555,0,0,1,.663-.41q.6.141,1.21.269a.55.55,0,0,1,.426.652A.552.552,0,0,1-498.971,425.658Zm25.523-1.2a.551.551,0,0,1-.526-.387.551.551,0,0,1,.362-.69q.591-.184,1.174-.381a.55.55,0,0,1,.7.346.551.551,0,0,1-.346.7q-.6.2-1.2.389A.551.551,0,0,1-473.448,424.458Zm-30.761-.192a.55.55,0,0,1-.17-.027q-.6-.2-1.2-.4a.551.551,0,0,1-.336-.7.55.55,0,0,1,.7-.337c.387.137.779.269,1.172.4a.551.551,0,0,1,.354.694A.552.552,0,0,1-504.209,424.266Zm35.832-1.686a.552.552,0,0,1-.506-.332.551.551,0,0,1,.287-.725q.568-.246,1.127-.5a.551.551,0,0,1,.732.27.552.552,0,0,1-.27.731q-.571.265-1.152.515A.55.55,0,0,1-468.376,422.58Zm-40.887-.259a.555.555,0,0,1-.225-.048q-.578-.258-1.148-.531a.55.55,0,0,1-.26-.734.551.551,0,0,1,.734-.261c.373.177.747.35,1.124.52a.551.551,0,0,1,.278.728A.551.551,0,0,1-509.264,422.321Zm45.732-2.15a.55.55,0,0,1-.48-.279.551.551,0,0,1,.208-.752q.538-.305,1.068-.621a.551.551,0,0,1,.755.19.551.551,0,0,1-.19.756q-.54.323-1.091.635A.546.546,0,0,1-463.531,420.171Zm-50.55-.322a.551.551,0,0,1-.277-.075q-.546-.317-1.084-.65a.55.55,0,0,1-.181-.758.55.55,0,0,1,.758-.181q.528.324,1.063.636a.552.552,0,0,1,.2.754A.55.55,0,0,1-514.081,419.849Zm55.113-2.588a.551.551,0,0,1-.449-.23.552.552,0,0,1,.127-.769q.5-.359,1-.731a.551.551,0,0,1,.772.11.55.55,0,0,1-.11.771q-.5.379-1.018.747A.545.545,0,0,1-458.968,417.261Zm-59.642-.381a.55.55,0,0,1-.326-.107q-.509-.375-1.009-.761a.551.551,0,0,1-.1-.773.549.549,0,0,1,.772-.1q.491.379.989.745a.551.551,0,0,1,.118.77A.551.551,0,0,1-518.61,416.881Zm63.872-2.995a.553.553,0,0,1-.413-.186.551.551,0,0,1,.048-.778q.463-.41.913-.831a.55.55,0,0,1,.778.027.55.55,0,0,1-.026.779q-.462.431-.935.85A.549.549,0,0,1-454.738,413.886Zm-68.06-.435a.547.547,0,0,1-.371-.144q-.467-.425-.924-.861a.552.552,0,0,1-.019-.78.552.552,0,0,1,.78-.018q.449.428.9.844a.551.551,0,0,1,.037.779A.551.551,0,0,1-522.8,413.451Zm71.912-3.367a.549.549,0,0,1-.371-.144.552.552,0,0,1-.037-.779q.417-.456.822-.924a.552.552,0,0,1,.778-.054.55.55,0,0,1,.054.777q-.414.477-.839.944A.554.554,0,0,1-450.886,410.084ZM-526.6,409.6a.553.553,0,0,1-.412-.184q-.42-.472-.827-.954a.552.552,0,0,1,.065-.777.55.55,0,0,1,.777.065q.4.472.81.933a.55.55,0,0,1-.045.777A.548.548,0,0,1-526.6,409.6Z" transform="translate(545.609 -317.169)" fill="#1d1d1b" opacity="0.31"/><path d="M-408.585,345.068a.55.55,0,0,1-.54-.448q-.088-.461-.185-.919a.551.551,0,0,1,.425-.653.551.551,0,0,1,.653.425q.1.468.19.94a.551.551,0,0,1-.437.645A.572.572,0,0,1-408.585,345.068ZM-409.8,340.1a.552.552,0,0,1-.528-.393q-.177-.593-.369-1.179a.55.55,0,0,1,.353-.7.551.551,0,0,1,.694.353q.2.6.378,1.205a.552.552,0,0,1-.37.686A.543.543,0,0,1-409.8,340.1Zm-1.828-5.1a.55.55,0,0,1-.508-.337q-.24-.57-.493-1.134a.55.55,0,0,1,.276-.728.552.552,0,0,1,.729.276q.259.575.5,1.159a.551.551,0,0,1-.295.722A.546.546,0,0,1-411.628,335.008Zm-2.36-4.871a.55.55,0,0,1-.483-.284q-.3-.542-.611-1.075a.551.551,0,0,1,.2-.754.55.55,0,0,1,.754.2q.319.545.625,1.1a.551.551,0,0,1-.216.749A.542.542,0,0,1-413.988,330.137Z" transform="translate(515.695 -296.061)" fill="#1d1d1b" opacity="0.31"/><path d="M-542.235,334.735a.536.536,0,0,1-.118-.013.552.552,0,0,1-.422-.655q.134-.618.283-1.231a.552.552,0,0,1,.666-.406.551.551,0,0,1,.4.666q-.144.6-.276,1.2A.551.551,0,0,1-542.235,334.735Zm1.43-5.22a.53.53,0,0,1-.173-.029.551.551,0,0,1-.35-.7q.2-.6.415-1.2a.55.55,0,0,1,.705-.332.552.552,0,0,1,.332.705q-.209.582-.406,1.171A.551.551,0,0,1-540.805,329.516Zm1.983-5.04a.54.54,0,0,1-.229-.05.551.551,0,0,1-.273-.73q.263-.576.539-1.145a.551.551,0,0,1,.737-.254.551.551,0,0,1,.255.736q-.271.557-.529,1.121A.549.549,0,0,1-538.822,324.475Zm2.509-4.8a.548.548,0,0,1-.28-.077.55.55,0,0,1-.194-.755q.322-.546.659-1.081a.55.55,0,0,1,.759-.173.55.55,0,0,1,.173.76q-.328.522-.643,1.056A.55.55,0,0,1-536.313,319.677Zm3-4.505a.552.552,0,0,1-.329-.109.552.552,0,0,1-.112-.772q.378-.506.769-1a.551.551,0,0,1,.774-.093.552.552,0,0,1,.093.774q-.382.487-.752.982A.551.551,0,0,1-533.311,315.171Zm3.462-4.163a.545.545,0,0,1-.374-.147.55.55,0,0,1-.031-.779q.428-.463.868-.916a.551.551,0,0,1,.78-.012.55.55,0,0,1,.012.779q-.43.444-.85.9A.552.552,0,0,1-529.849,311.008Zm73.729-1.113a.549.549,0,0,1-.394-.165q-.432-.44-.876-.871a.551.551,0,0,1-.013-.779.552.552,0,0,1,.78-.012q.454.44.9.891a.551.551,0,0,1-.007.78A.551.551,0,0,1-456.12,309.9Zm-69.85-2.662a.553.553,0,0,1-.415-.188.551.551,0,0,1,.052-.777q.474-.417.959-.82a.55.55,0,0,1,.777.071.551.551,0,0,1-.071.776q-.475.4-.939.8A.548.548,0,0,1-525.97,307.234Zm65.86-.995a.55.55,0,0,1-.351-.126q-.477-.393-.964-.775a.552.552,0,0,1-.093-.775.551.551,0,0,1,.774-.093q.5.39.984.791a.551.551,0,0,1,.076.776A.551.551,0,0,1-460.11,306.239Zm-61.6-2.35a.549.549,0,0,1-.451-.234.551.551,0,0,1,.133-.768q.516-.363,1.041-.714a.552.552,0,0,1,.764.152.551.551,0,0,1-.153.764q-.514.344-1.018.7A.552.552,0,0,1-521.715,303.889Zm57.25-.867a.546.546,0,0,1-.3-.092q-.515-.339-1.04-.668a.551.551,0,0,1-.175-.76.55.55,0,0,1,.759-.175q.537.335,1.064.683a.551.551,0,0,1,.156.764A.552.552,0,0,1-464.464,303.021Zm-52.668-2.01a.55.55,0,0,1-.482-.284.551.551,0,0,1,.214-.75q.55-.306,1.109-.6a.55.55,0,0,1,.744.232.551.551,0,0,1-.232.744q-.547.287-1.086.586A.548.548,0,0,1-517.132,301.012Zm48-.729a.543.543,0,0,1-.252-.062q-.55-.283-1.107-.555a.552.552,0,0,1-.255-.736.551.551,0,0,1,.737-.255q.57.277,1.129.567a.552.552,0,0,1,.237.743A.551.551,0,0,1-469.135,300.283Zm-43.138-1.645a.55.55,0,0,1-.507-.336.551.551,0,0,1,.292-.722q.579-.246,1.165-.478a.551.551,0,0,1,.715.31.551.551,0,0,1-.31.715q-.573.227-1.141.467A.543.543,0,0,1-512.273,298.637Zm38.2-.582a.545.545,0,0,1-.2-.037q-.577-.224-1.16-.434a.552.552,0,0,1-.332-.705.55.55,0,0,1,.705-.331q.6.214,1.185.443a.552.552,0,0,1,.315.714A.552.552,0,0,1-474.07,298.055Zm-33.117-1.259a.55.55,0,0,1-.527-.392.55.55,0,0,1,.367-.687q.6-.183,1.214-.351a.549.549,0,0,1,.678.386.552.552,0,0,1-.386.678q-.6.164-1.187.342A.555.555,0,0,1-507.187,296.8Zm27.969-.428a.565.565,0,0,1-.143-.019q-.6-.161-1.2-.307a.551.551,0,0,1-.406-.666.553.553,0,0,1,.665-.406q.616.15,1.227.315a.551.551,0,0,1,.389.675A.553.553,0,0,1-479.218,296.369Zm-22.713-.861a.552.552,0,0,1-.542-.449.553.553,0,0,1,.439-.644q.621-.117,1.244-.219a.552.552,0,0,1,.633.455.552.552,0,0,1-.455.633q-.612.1-1.218.214A.551.551,0,0,1-501.931,295.508Zm17.414-.265a.579.579,0,0,1-.087-.007q-.61-.1-1.226-.178a.551.551,0,0,1-.474-.619.552.552,0,0,1,.619-.474q.628.084,1.253.182a.551.551,0,0,1,.459.63A.552.552,0,0,1-484.517,295.242Zm-12.051-.453a.553.553,0,0,1-.55-.507.552.552,0,0,1,.506-.594q.628-.051,1.262-.086a.566.566,0,0,1,.581.52.552.552,0,0,1-.52.581q-.62.033-1.233.083Zm6.661-.1h-.028q-.616-.031-1.235-.046a.552.552,0,0,1-.537-.565.56.56,0,0,1,.564-.537q.635.015,1.262.047a.551.551,0,0,1,.523.578A.551.551,0,0,1-489.907,294.688Z" transform="translate(549.537 -286.938)" fill="#1d1d1b" opacity="0.31"/><path d="M-533,345.174a.57.57,0,0,1-.135-.017.551.551,0,0,1-.4-.669q.154-.614.326-1.222a.547.547,0,0,1,.68-.381.552.552,0,0,1,.381.68q-.168.593-.318,1.193A.552.552,0,0,1-533,345.174Zm1.643-5.157a.559.559,0,0,1-.2-.037.551.551,0,0,1-.315-.713q.229-.592.475-1.174a.553.553,0,0,1,.722-.294.552.552,0,0,1,.295.722q-.239.569-.463,1.145A.551.551,0,0,1-531.355,340.016Zm2.263-4.918a.555.555,0,0,1-.26-.065.551.551,0,0,1-.225-.747q.3-.558.615-1.107a.551.551,0,0,1,.752-.2.552.552,0,0,1,.2.752q-.306.536-.6,1.079A.552.552,0,0,1-529.092,335.1Z" transform="translate(547.088 -297.375)" fill="#1d1d1b" opacity="0.31"/><path d="M-485.45,419.857h-.058q-.605,0-1.205-.016a.551.551,0,0,1-.537-.565.551.551,0,0,1,.551-.536h.015q.586.015,1.176.015a.577.577,0,0,1,.58.551A.527.527,0,0,1-485.45,419.857Zm4.159-.2a.552.552,0,0,1-.548-.5.551.551,0,0,1,.5-.6q.615-.06,1.225-.134a.552.552,0,0,1,.614.481.551.551,0,0,1-.479.614q-.626.076-1.255.137Zm-9.562-.121a.661.661,0,0,1-.067,0q-.631-.077-1.256-.17a.552.552,0,0,1-.464-.626.552.552,0,0,1,.627-.464q.61.092,1.226.165a.551.551,0,0,1,.481.614A.55.55,0,0,1-490.852,419.537Zm14.906-.718a.552.552,0,0,1-.538-.432.552.552,0,0,1,.42-.657c.4-.09.8-.183,1.2-.283a.552.552,0,0,1,.669.4.552.552,0,0,1-.4.669q-.612.153-1.23.29A.559.559,0,0,1-475.947,418.819Zm-20.231-.26a.554.554,0,0,1-.134-.015q-.616-.153-1.225-.323a.551.551,0,0,1-.383-.679.548.548,0,0,1,.678-.382q.594.165,1.195.314a.551.551,0,0,1,.4.668A.55.55,0,0,1-496.178,418.559Zm25.434-1.229a.551.551,0,0,1-.52-.367.551.551,0,0,1,.336-.7q.582-.206,1.156-.428a.55.55,0,0,1,.713.315.551.551,0,0,1-.315.713q-.589.228-1.186.439A.553.553,0,0,1-470.744,417.33Zm-30.6-.4a.561.561,0,0,1-.2-.037q-.592-.227-1.176-.47a.551.551,0,0,1-.3-.721.551.551,0,0,1,.72-.3q.57.237,1.147.459a.552.552,0,0,1,.317.713A.553.553,0,0,1-501.343,416.935Zm35.579-1.721a.552.552,0,0,1-.494-.3.551.551,0,0,1,.247-.739c.369-.184.733-.373,1.1-.567a.55.55,0,0,1,.745.226.551.551,0,0,1-.226.746q-.557.3-1.124.581A.552.552,0,0,1-465.764,415.214Zm-40.506-.525a.553.553,0,0,1-.258-.064c-.373-.2-.743-.4-1.11-.611a.551.551,0,0,1-.205-.752.55.55,0,0,1,.752-.206q.535.305,1.081.6a.552.552,0,0,1,.227.746A.55.55,0,0,1-506.27,414.688Zm45.19-2.184a.552.552,0,0,1-.461-.247.552.552,0,0,1,.156-.764q.515-.341,1.018-.7a.553.553,0,0,1,.768.133.552.552,0,0,1-.134.769q-.516.364-1.046.714A.545.545,0,0,1-461.08,412.5Zm-49.8-.646a.554.554,0,0,1-.316-.1q-.518-.364-1.025-.741a.55.55,0,0,1-.113-.771.55.55,0,0,1,.77-.113q.5.368,1,.722a.551.551,0,0,1,.134.767A.549.549,0,0,1-510.884,411.859Zm54.125-2.612a.549.549,0,0,1-.419-.193.551.551,0,0,1,.061-.777q.47-.4.927-.815a.552.552,0,0,1,.778.04.552.552,0,0,1-.039.778q-.471.423-.95.834A.55.55,0,0,1-456.759,409.246Zm-58.361-.756a.553.553,0,0,1-.368-.141q-.471-.423-.929-.859a.551.551,0,0,1-.02-.78.551.551,0,0,1,.779-.019q.448.425.906.838a.55.55,0,0,1,.042.778A.55.55,0,0,1-515.12,408.49Z" transform="translate(542.59 -316.9)" fill="#1d1d1b" opacity="0.31"/><path d="M-514.778,314.972a.55.55,0,0,1-.41-.183.55.55,0,0,1,.042-.778q.471-.423.952-.833a.552.552,0,0,1,.777.063.552.552,0,0,1-.062.777q-.471.4-.93.813A.552.552,0,0,1-514.778,314.972Zm56.08-2.564a.547.547,0,0,1-.329-.109q-.494-.369-1-.725a.551.551,0,0,1-.134-.768.55.55,0,0,1,.768-.134q.518.365,1.025.744a.55.55,0,0,1,.111.771A.55.55,0,0,1-458.7,312.408Zm-51.842-.8a.552.552,0,0,1-.453-.235.552.552,0,0,1,.136-.768q.518-.363,1.047-.711a.55.55,0,0,1,.763.157.551.551,0,0,1-.157.764q-.517.339-1.021.693A.543.543,0,0,1-510.54,311.605Zm47.317-2.166a.547.547,0,0,1-.273-.073q-.536-.306-1.081-.6a.552.552,0,0,1-.225-.747.549.549,0,0,1,.746-.225q.558.3,1.107.613a.551.551,0,0,1,.206.752A.553.553,0,0,1-463.223,309.439Zm-42.7-.662a.55.55,0,0,1-.487-.292.552.552,0,0,1,.227-.746q.559-.3,1.126-.578a.55.55,0,0,1,.739.249.552.552,0,0,1-.249.739q-.552.274-1.1.564A.56.56,0,0,1-505.926,308.777Zm37.851-1.735a.547.547,0,0,1-.214-.043q-.569-.239-1.145-.461a.552.552,0,0,1-.317-.713.553.553,0,0,1,.713-.316q.593.228,1.176.474a.551.551,0,0,1,.294.722A.55.55,0,0,1-468.075,307.042ZM-501,306.533a.55.55,0,0,1-.514-.354.551.551,0,0,1,.317-.711q.59-.226,1.186-.436a.552.552,0,0,1,.7.337.551.551,0,0,1-.337.7q-.582.205-1.157.425A.548.548,0,0,1-501,306.533Zm27.817-1.274a.551.551,0,0,1-.149-.02q-.594-.167-1.194-.317a.551.551,0,0,1-.4-.669.552.552,0,0,1,.669-.4q.615.155,1.224.326a.552.552,0,0,1,.381.68A.549.549,0,0,1-473.186,305.258Zm-22.655-.349a.551.551,0,0,1-.534-.418.551.551,0,0,1,.4-.668q.613-.152,1.231-.287a.553.553,0,0,1,.655.421.551.551,0,0,1-.42.656q-.6.131-1.2.28A.549.549,0,0,1-495.842,304.909Zm17.364-.792a.532.532,0,0,1-.083-.007q-.611-.093-1.225-.169a.55.55,0,0,1-.479-.614.552.552,0,0,1,.614-.479q.629.078,1.255.173a.551.551,0,0,1,.462.628A.551.551,0,0,1-478.477,304.117Zm-12.043-.184a.551.551,0,0,1-.546-.485.551.551,0,0,1,.481-.614q.625-.076,1.255-.134a.554.554,0,0,1,.6.5.551.551,0,0,1-.5.6q-.615.057-1.225.131A.521.521,0,0,1-490.521,303.933Zm6.65-.3h-.017q-.614-.018-1.234-.018a.552.552,0,0,1-.55-.552.551.551,0,0,1,.551-.55h0c.423,0,.844.007,1.265.019a.552.552,0,0,1,.535.567A.552.552,0,0,1-483.87,303.631Z" transform="translate(542.256 -289.316)" fill="#1d1d1b" opacity="0.31"/></g><rect width="54.457" height="31.173" rx="2.77" transform="translate(-571.212 333.937)" fill="#a2c870"/><path d="M-517.453,381.309h-50.385v-1.1h50.385a1.486,1.486,0,0,0,1.484-1.485v-27.1h1.1v27.1A2.59,2.59,0,0,1-517.453,381.309Z" transform="translate(-3.426 -17.783)" fill="#1d1d1b"/><g transform="translate(-580.76 362.424)"><path d="M-513.775,402.5h-64.2a2.036,2.036,0,0,1-1.578-3.322l5.837-7.158a2.035,2.035,0,0,1,1.578-.749h52.524a2.036,2.036,0,0,1,1.578.749l5.837,7.158A2.036,2.036,0,0,1-513.775,402.5Z" transform="translate(580.562 -390.721)" fill="#fff"/><path d="M-513.974,402.853h-64.2a2.564,2.564,0,0,1-2.336-1.477,2.566,2.566,0,0,1,.331-2.745l5.837-7.158a2.576,2.576,0,0,1,2-.952h52.524a2.577,2.577,0,0,1,2,.952l5.837,7.158a2.566,2.566,0,0,1,.332,2.745A2.566,2.566,0,0,1-513.974,402.853Zm-58.36-11.229a1.478,1.478,0,0,0-1.151.547l-5.837,7.157a1.454,1.454,0,0,0-.19,1.575,1.454,1.454,0,0,0,1.341.848h64.2a1.452,1.452,0,0,0,1.341-.848,1.455,1.455,0,0,0-.19-1.575l-5.837-7.157a1.479,1.479,0,0,0-1.151-.547Z" transform="translate(580.76 -390.522)" fill="#1d1d1b"/></g><g transform="translate(-532.035 337.005)"><path d="M-513,358.848a1.46,1.46,0,0,1-1.458-1.458A1.46,1.46,0,0,1-513,355.931a1.46,1.46,0,0,1,1.459,1.459A1.46,1.46,0,0,1-513,358.848Zm0-1.814a.356.356,0,0,0-.356.356.356.356,0,0,0,.356.356.356.356,0,0,0,.356-.356A.356.356,0,0,0-513,357.033Z" transform="translate(514.453 -355.931)" fill="#1d1d1b"/><path d="M-508.572,358.848a1.46,1.46,0,0,1-1.458-1.458,1.46,1.46,0,0,1,1.458-1.459,1.46,1.46,0,0,1,1.459,1.459A1.46,1.46,0,0,1-508.572,358.848Zm0-1.814a.356.356,0,0,0-.356.356.356.356,0,0,0,.356.356.356.356,0,0,0,.356-.356A.356.356,0,0,0-508.572,357.033Z" transform="translate(513.28 -355.931)" fill="#1d1d1b"/><path d="M-504.149,358.848a1.46,1.46,0,0,1-1.458-1.458,1.46,1.46,0,0,1,1.458-1.459,1.46,1.46,0,0,1,1.458,1.459A1.46,1.46,0,0,1-504.149,358.848Zm0-1.814a.356.356,0,0,0-.356.356.356.356,0,0,0,.356.356.355.355,0,0,0,.356-.356A.356.356,0,0,0-504.149,357.033Z" transform="translate(512.107 -355.931)" fill="#1d1d1b"/></g><g transform="translate(-577.627 370.864)"><line x2="47.4" transform="translate(0 0.551)" fill="#fff"/><rect width="47.399" height="1.102" transform="translate(0)" fill="#1d1d1b"/></g><g transform="translate(-526.24 370.864)"><line x2="12.077" transform="translate(0 0.551)" fill="#fff"/><rect width="12.077" height="1.102" transform="translate(0)" fill="#1d1d1b"/></g></g></svg>