<svg xmlns="http://www.w3.org/2000/svg" width="829.332" height="500.492" viewBox="0 0 829.332 500.492"><g transform="translate(18971.064 19693.367)"><path d="M-59.08-7.84a1.531,1.531,0,0,0,.455,1.162,1.643,1.643,0,0,0,1.183.434,1.668,1.668,0,0,0,1.19-.434A1.518,1.518,0,0,0-55.79-7.84a1.513,1.513,0,0,0-.462-1.169,1.684,1.684,0,0,0-1.19-.427,1.659,1.659,0,0,0-1.183.427A1.525,1.525,0,0,0-59.08-7.84Zm7.014-.7H-54.11a3.862,3.862,0,0,1,.07.7,3.112,3.112,0,0,1-.084.7h2.058Zm0,2.87h-2.87a3.393,3.393,0,0,1-2.506.98,3.43,3.43,0,0,1-2.415-.9A2.934,2.934,0,0,1-60.83-7.84a2.95,2.95,0,0,1,.973-2.268,3.43,3.43,0,0,1,2.415-.9,3.432,3.432,0,0,1,2.534.994h2.842v-1.68h1.848v7.56h-1.848Zm-2.52,5.46q2.6,0,2.6-1.12t-2.6-1.12q-2.59,0-2.59,1.12T-54.586-.21Zm0-3.668a6.584,6.584,0,0,1,3.241.672A2.073,2.073,0,0,1-50.162-1.33,2.078,2.078,0,0,1-51.345.539a6.528,6.528,0,0,1-3.241.679A6.494,6.494,0,0,1-57.813.539,2.078,2.078,0,0,1-59-1.33a2.073,2.073,0,0,1,1.183-1.876A6.55,6.55,0,0,1-54.586-3.878Zm13.37-2.1-.966,1.428a4.665,4.665,0,0,1-2.842-2.408,4.893,4.893,0,0,1-3.024,2.772l-.966-1.456A4.183,4.183,0,0,0-46.739-7.28a4.521,4.521,0,0,0,.749-2.548V-10.99h1.876v1.316a3.752,3.752,0,0,0,.721,2.247A4.037,4.037,0,0,0-41.216-5.978ZM-42.882-.224q2.52,0,2.52-1.064t-2.52-1.05q-2.534,0-2.534,1.05T-42.882-.224Zm0-3.542a6.513,6.513,0,0,1,3.185.658,2.016,2.016,0,0,1,1.169,1.82A2.026,2.026,0,0,1-39.7.546a6.513,6.513,0,0,1-3.185.658,6.548,6.548,0,0,1-3.2-.658A2.026,2.026,0,0,1-47.25-1.288a2.016,2.016,0,0,1,1.169-1.82A6.548,6.548,0,0,1-42.882-3.766Zm4.214-4.928h1.708v1.526h-1.708V-4.06h-1.848v-7.616h1.848Zm4.228-.07v5.586a20.5,20.5,0,0,0,3.514-.336L-30.772-2a25.223,25.223,0,0,1-4.606.336h-.882v-8.568h4.914v1.47Zm4.452,1.778v-4.466h1.722V.63h-1.722V-5.488h-2.24v-1.5Zm2.674-4.718h1.75V1.19h-1.75Zm11.69,0h1.848V1.232h-1.848Zm-7.518,2.163a2.933,2.933,0,0,1,2.436-1.253A2.933,2.933,0,0,1-18.27-9.541,5.382,5.382,0,0,1-17.318-6.2a5.438,5.438,0,0,1-.952,3.36,2.928,2.928,0,0,1-2.436,1.26,2.928,2.928,0,0,1-2.436-1.26,5.438,5.438,0,0,1-.952-3.36A5.382,5.382,0,0,1-23.142-9.541Zm3.605,1.176a1.32,1.32,0,0,0-1.169-.763,1.32,1.32,0,0,0-1.169.763A4.364,4.364,0,0,0-22.316-6.2a4.405,4.405,0,0,0,.441,2.17,1.319,1.319,0,0,0,1.169.77,1.319,1.319,0,0,0,1.169-.77A4.405,4.405,0,0,0-19.1-6.2,4.364,4.364,0,0,0-19.537-8.365Zm9.681,2.779v2.408a33.432,33.432,0,0,0,4.732-.336l.168,1.484a38.091,38.091,0,0,1-5.684.336h-1.05v-8.918h5.964v1.484h-4.13v2.1h3.7v1.442ZM-3.3-11.7h1.848V1.232H-3.3v-6.9H-5.516V-7.154H-3.3Z" transform="translate(-18641.66 -19658.229)" fill="#383838"/><path d="M-74.03-10.458v7a20.834,20.834,0,0,0,3.43-.336l.224,1.54a22.86,22.86,0,0,1-4.564.378h-.9v-8.582Zm4.3,2.828v-3.85h1.722V.63h-1.722V-6.132h-2.534v-1.5ZM-67-11.7h1.75V1.19H-67ZM-53.73-5.04v1.456h-9.058v-7.168h8.96v1.484h-7.084V-7.91h6.79v1.428h-6.79V-5.04ZM-64.16-1.778h11.676v1.5H-64.16Zm16.31-7.98a1.771,1.771,0,0,0-1.127.336,1.1,1.1,0,0,0-.427.91,1.092,1.092,0,0,0,.427.917,1.8,1.8,0,0,0,1.127.329A1.737,1.737,0,0,0-46.737-7.6a1.107,1.107,0,0,0,.413-.917,1.1,1.1,0,0,0-.42-.91A1.718,1.718,0,0,0-47.85-9.758ZM-45.505-6.6a3.632,3.632,0,0,1-2.345.735A3.661,3.661,0,0,1-50.2-6.6a2.328,2.328,0,0,1-.924-1.911,2.334,2.334,0,0,1,.924-1.9,3.638,3.638,0,0,1,2.352-.742,3.609,3.609,0,0,1,2.345.742,2.34,2.34,0,0,1,.917,1.9A2.335,2.335,0,0,1-45.505-6.6Zm1.771,1.071.112,1.344a33.21,33.21,0,0,1-3.388.406V.826h-1.848V-3.682q-1.05.042-2.954.042l-.21-1.5A65.34,65.34,0,0,0-43.734-5.53Zm.826-6.16h1.848V1.19h-1.848V-1.624H-45.5v-1.4h2.59Zm4.06,4.928,7.686-.252q.028-.714.028-2.044v-.028h-7.35v-1.47h9.17v1.5q0,1.246-.021,1.946T-29.5-5.166q-.14,1.246-.42,2.562l-1.82-.182a20.721,20.721,0,0,0,.476-2.856l-7.364.378Zm-.938,4.928h11.648V-.322H-39.786Zm22.328-6.748h1.932V-11.69h1.848v7.672h-1.848V-7.084h-1.932Zm.77,2.772-.9,1.442A4.832,4.832,0,0,1-20.51-6.874a4.919,4.919,0,0,1-3.08,2.856l-.938-1.456A4.394,4.394,0,0,0-22.3-7.063a4.263,4.263,0,0,0,.812-2.373h-2.534V-10.92h6.93v1.484H-19.6a3.81,3.81,0,0,0,.777,2.17A4.194,4.194,0,0,0-16.688-5.81ZM-18.032-.182q2.562,0,2.562-1.078t-2.562-1.078q-2.576,0-2.576,1.078T-18.032-.182Zm0-3.556a6.72,6.72,0,0,1,3.234.651A2.01,2.01,0,0,1-13.622-1.26,2.01,2.01,0,0,1-14.8.567a6.72,6.72,0,0,1-3.234.651A6.755,6.755,0,0,1-21.28.567,2.01,2.01,0,0,1-22.456-1.26,2.01,2.01,0,0,1-21.28-3.087,6.755,6.755,0,0,1-18.032-3.738Zm8.82-3.7v1.806H-3.7V-7.434ZM-5.53-1.792H-.6v1.5H-12.278v-1.5h4.9V-4.158h-3.668v-6.734h1.834v2H-3.7v-2h1.82v6.734H-5.53Z" transform="translate(-18637.543 -19525.984)" fill="#383838"/><line x2="205.588" transform="translate(-18830.631 -19648.127)" fill="none" stroke="#57a580" stroke-linecap="round" stroke-width="5"/><line y1="130.503" transform="translate(-18624.955 -19647.258)" fill="none" stroke="#57a580" stroke-linecap="round" stroke-width="5"/><line x2="371" transform="translate(-18812.256 -19403.215)" fill="none" stroke="#4e4e4e" stroke-linecap="round" stroke-width="5"/><line x2="375.721" transform="translate(-18871.043 -19515.014)" fill="none" stroke="#57a580" stroke-linecap="round" stroke-width="5"/><line y1="100.923" transform="translate(-18812.65 -19403.215)" fill="none" stroke="#4e4e4e" stroke-linecap="round" stroke-width="5"/><line y1="100.923" transform="translate(-18621.246 -19403.215)" fill="none" stroke="#4e4e4e" stroke-linecap="round" stroke-width="5"/><line y1="148.894" transform="translate(-18438.539 -19451.188)" fill="none" stroke="#4e4e4e" stroke-linecap="round" stroke-width="5"/><line y1="176.18" transform="translate(-18238.434 -19478.473)" fill="none" stroke="#4e4e4e" stroke-linecap="round" stroke-width="5"/><line y1="176.18" transform="translate(-18420.27 -19478.473)" fill="none" stroke="#57a580" stroke-linecap="round" stroke-width="5"/><path d="M-22.708-10.64v1.316H-30.03V-10.64h2.744v-1.106h1.848v1.106Zm-5.054,3.654a.61.61,0,0,0,.371.56,2.229,2.229,0,0,0,1.029.2q1.386,0,1.386-.756t-1.386-.77Q-27.762-7.756-27.762-6.986ZM-22.386-4.7l.14,1.26a45.929,45.929,0,0,1-7.91.574l-.2-1.414q1.96,0,3.066-.042v-.742a3.2,3.2,0,0,1-1.631-.658,1.584,1.584,0,0,1-.595-1.26,1.655,1.655,0,0,1,.854-1.463,4.265,4.265,0,0,1,2.3-.539,4.235,4.235,0,0,1,2.282.539,1.655,1.655,0,0,1,.854,1.463,1.59,1.59,0,0,1-.595,1.253,3.148,3.148,0,0,1-1.617.665v.658Q-23.576-4.536-22.386-4.7Zm-4.326,2.45V-.49h7.168V.98H-28.56V-2.254Zm6.734-5.222h1.624v1.512h-1.624v4.34h-1.848V-11.7h1.848Zm10.892-.7H-11.76q-1.19,3.024-5.446,4.214l-.714-1.456q4.214-1.12,4.592-3.92H-17.22v-1.484h5.908A8.112,8.112,0,0,1-11.4-9.646h2.31V-11.69h1.848v7.42H-9.086V-5.5h-2.842V-6.986h2.842ZM-13.363-.6a4.653,4.653,0,0,0,1.869.3A4.6,4.6,0,0,0-9.632-.6a.958.958,0,0,0,.658-.889.958.958,0,0,0-.658-.889,4.6,4.6,0,0,0-1.862-.3,4.653,4.653,0,0,0-1.869.3.959.959,0,0,0-.665.889A.959.959,0,0,0-13.363-.6ZM-11.494-4.1a6.12,6.12,0,0,1,3.157.707A2.148,2.148,0,0,1-7.154-1.484,2.148,2.148,0,0,1-8.337.427a6.12,6.12,0,0,1-3.157.707A6.152,6.152,0,0,1-14.665.427a2.148,2.148,0,0,1-1.183-1.911,2.148,2.148,0,0,1,1.183-1.911A6.152,6.152,0,0,1-11.494-4.1ZM-3.64-8.764v5.586A20.5,20.5,0,0,0-.126-3.514L.028-2a25.223,25.223,0,0,1-4.606.336H-5.46v-8.568H-.546v1.47ZM.812-6.986v-4.466H2.534V.63H.812V-5.488h-2.24v-1.5ZM3.486-11.7h1.75V1.19H3.486Zm11.69,0h1.848V1.232H15.176ZM7.658-9.541a2.933,2.933,0,0,1,2.436-1.253A2.933,2.933,0,0,1,12.53-9.541,5.382,5.382,0,0,1,13.482-6.2a5.438,5.438,0,0,1-.952,3.36,2.928,2.928,0,0,1-2.436,1.26,2.928,2.928,0,0,1-2.436-1.26A5.438,5.438,0,0,1,6.706-6.2,5.382,5.382,0,0,1,7.658-9.541Zm3.605,1.176a1.32,1.32,0,0,0-1.169-.763,1.32,1.32,0,0,0-1.169.763A4.364,4.364,0,0,0,8.484-6.2a4.405,4.405,0,0,0,.441,2.17,1.319,1.319,0,0,0,1.169.77,1.319,1.319,0,0,0,1.169-.77A4.405,4.405,0,0,0,11.7-6.2,4.364,4.364,0,0,0,11.263-8.365Zm9.681,2.779v2.408a33.432,33.432,0,0,0,4.732-.336l.168,1.484a38.091,38.091,0,0,1-5.684.336H19.11v-8.918h5.964v1.484h-4.13v2.1h3.7v1.442ZM27.5-11.7h1.848V1.232H27.5v-6.9H25.284V-7.154H27.5Z" transform="translate(-18781.65 -19415.188)" fill="#383838"/><path d="M-45.713-10.846v.867a7.516,7.516,0,0,0,.994,3.706,6.118,6.118,0,0,0,2.813,2.635L-43.146-1.87A7.149,7.149,0,0,1-46.8-6.086a7.41,7.41,0,0,1-3.74,4.607L-51.8-3.264A6.026,6.026,0,0,0-48.96-6.01a8.375,8.375,0,0,0,1-3.97v-.867H-51.2V-12.7h8.6v1.853Zm8.789,2.618v1.853H-39.2V1.462h-2.244V-14.2H-39.2v5.967Zm4.131,6.834q0,1.173,3.162,1.173t3.162-1.173q0-1.19-3.162-1.19T-32.793-1.394Zm-.825-2.134a8.661,8.661,0,0,1,3.986-.756,8.716,8.716,0,0,1,3.995.756,2.337,2.337,0,0,1,1.445,2.134A2.326,2.326,0,0,1-25.636.723a8.716,8.716,0,0,1-3.995.757A8.745,8.745,0,0,1-33.618.731a2.32,2.32,0,0,1-1.437-2.125A2.337,2.337,0,0,1-33.618-3.528Zm5.16-3.306h5.967v1.785H-36.652V-6.834h5.95V-8.126h-4.233v-5.406h10.744v1.785h-8.517v1.836h8.6v1.785h-4.352Zm14.943-.646-2.193-.255a23.337,23.337,0,0,0,.34-3.536H-21.2v-1.785h8.041v.969A26.149,26.149,0,0,1-13.515-7.48Zm1.037.629.136,1.6a56.87,56.87,0,0,1-9.554.68l-.2-1.785q1.836,0,2.856-.017V-9.418h2.193V-6.46Q-14.467-6.579-12.478-6.851Zm-5.1,3.332V-.6h8.687V1.19H-19.822V-3.519Zm8.194-5.916h1.87v1.853h-1.87v5.1h-2.244v-11.73h2.244Zm15.946.8-.85,1.8a9.366,9.366,0,0,1-3.468-1.19A6.313,6.313,0,0,1,.017-10.2,6.294,6.294,0,0,1-2.218-8.024a9.446,9.446,0,0,1-3.477,1.19l-.85-1.8A7.325,7.325,0,0,0-2.6-10.251,3.65,3.65,0,0,0-1.19-12.988v-.748h2.4v.748a3.643,3.643,0,0,0,1.42,2.737A7.353,7.353,0,0,0,6.562-8.636Zm.51,2.958v1.819h-6V1.479H-1.173V-3.859h-5.9V-5.678Zm6.7-7.31v2.278a8.866,8.866,0,0,0,.995,4.2,5.771,5.771,0,0,0,2.9,2.7L16.388-1.989a7.113,7.113,0,0,1-3.706-4.284A7.446,7.446,0,0,1,8.84-1.615L7.5-3.468a5.965,5.965,0,0,0,3-2.839,9.442,9.442,0,0,0,1.028-4.4v-2.278Zm4.658-1.224h2.244V1.5H18.428Zm17.748,7.4-.952,1.87a8.948,8.948,0,0,1-3.485-1.471A7.1,7.1,0,0,1,29.5-8.993,7.082,7.082,0,0,1,27.26-6.4a8.689,8.689,0,0,1-3.476,1.454l-.952-1.87a7,7,0,0,0,4-2,4.786,4.786,0,0,0,1.479-3.34v-1.122h2.4v1.122A4.776,4.776,0,0,0,32.173-8.8,7.025,7.025,0,0,0,36.176-6.817ZM22.491-2.261H36.669V-.442H22.491Zm22.933-2.7V-8.636h-1.53v-1.8h1.53v-3.519h2.091v8.993Zm-1.088-2.6L44.523-5.8a32.934,32.934,0,0,1-5.559.357H37.893v-7.82h5.882v1.768H40.052v1.241h3.179v1.7H40.052v1.343A24.725,24.725,0,0,0,44.336-7.565ZM42.228-2.482V-.476h6.205V-2.482Zm-2.21,3.757V-4.233H50.626V1.275ZM48.5-14.178h2.125v9.333H48.5Z" transform="translate(-18919.266 -19471.141)" fill="#383838"/><path d="M-31.875-3.859a36.229,36.229,0,0,0,.629-7.5v-1.5H-42.619v1.785h9.129a32.714,32.714,0,0,1-.629,6.953Zm-4.93,1.632V-7.616h-2.244v5.389h-5v1.8h14.161v-1.8Zm16.031-8.194V-8.6h2.346v3.723h2.244V-14.2h-2.244v3.774Zm.935,3.366a4.8,4.8,0,0,1-3.536-4.4h3.043v-1.8h-8.415v1.8h3.077a5.214,5.214,0,0,1-3.689,4.811l1.139,1.768a6.114,6.114,0,0,0,3.74-3.468A5.917,5.917,0,0,0-20.927-5.3ZM-21.471-.221c-2.057,0-3.128-.425-3.128-1.309s1.071-1.309,3.128-1.309c2.04,0,3.111.425,3.111,1.309S-19.431-.221-21.471-.221Zm0-4.318c-3.332,0-5.372,1.105-5.372,3.009s2.04,3.009,5.372,3.009c3.315,0,5.355-1.105,5.355-3.009S-18.156-4.539-21.471-4.539Zm17.833.306h2.244V-14.2H-3.638v3.434H-5.644v1.785h2.006v1.343h-2.04v1.785h2.04Zm-2.21-8.551h-3.06v-1.53h-2.244v1.53h-3.281v1.768h8.585Zm-5.763,5.236c0-.816.629-1.258,1.581-1.258.935,0,1.581.442,1.581,1.258S-9.095-6.29-10.03-6.29C-10.982-6.29-11.611-6.732-11.611-7.548Zm5.236,0c0-1.734-1.513-2.924-3.655-2.924-2.159,0-3.672,1.19-3.672,2.924s1.513,2.924,3.672,2.924C-7.888-4.624-6.375-5.814-6.375-7.548Zm-.306,7.31c-1.938,0-2.992-.323-2.992-1.037,0-.731,1.054-1.037,2.992-1.037,1.921,0,2.992.306,2.992,1.037C-3.689-.561-4.76-.238-6.681-.238Zm0-3.791c-3.3,0-5.372,1.02-5.372,2.754,0,1.717,2.074,2.737,5.372,2.737S-1.326.442-1.326-1.275C-1.326-3.009-3.383-4.029-6.681-4.029ZM1.207-12.7v1.785H6.171A12.618,12.618,0,0,1,5.848-8.84L.374-8.517l.289,1.9L5.2-7.055A10.365,10.365,0,0,1,.238-2.6L1.428-.867C7.259-3.842,8.4-7.871,8.4-12.7ZM14.756-8.228H12.563v-5.984H10.319V1.428h2.244v-7.8h2.193ZM19.635-4.2H17.629v-6.63h2.006Zm3.587-4.318H21.709V-12.6H15.538V-2.448h6.171V-6.7h1.513V.748h2.091V-13.957H23.222ZM26.4-14.212V1.445h2.125V-14.212Zm6.341,7.4h4.964v-6.052H30.515v1.785H35.5v2.5H30.532v6.46h1.326a38.816,38.816,0,0,0,7.225-.527l-.2-1.819a35.618,35.618,0,0,1-6.137.493ZM44.421-8.3H42.177v-5.916H39.933V1.5h2.244V-6.443h2.244Z" transform="translate(-18859 -19620.297)" fill="#383838"/><path d="M-20.02-8.9v.63a8.4,8.4,0,0,0,.588,3.213,4.429,4.429,0,0,0,1.9,2.205l-1.078,1.344a5.243,5.243,0,0,1-2.3-3.15A5.907,5.907,0,0,1-23.268-1.2L-24.36-2.562a4.9,4.9,0,0,0,1.932-2.366,8.858,8.858,0,0,0,.616-3.346V-8.9h-2.072v-1.5h5.74v1.5Zm2.618,1.61V-11.48h1.722V.616H-17.4V-5.8H-19.04v-1.5Zm2.6-4.41h1.75V1.19H-14.8Zm6.4,8.442a1.29,1.29,0,0,0,1.155-.763A4.52,4.52,0,0,0-6.818-6.2a4.484,4.484,0,0,0-.427-2.163A1.29,1.29,0,0,0-8.4-9.128a1.281,1.281,0,0,0-1.141.763A4.484,4.484,0,0,0-9.968-6.2a4.52,4.52,0,0,0,.427,2.177A1.281,1.281,0,0,0-8.4-3.262ZM-2.954-11.7h1.848V1.232H-2.954v-6.79H-5.1a4.977,4.977,0,0,1-1.043,2.9A2.837,2.837,0,0,1-8.4-1.582a2.866,2.866,0,0,1-2.394-1.26,5.5,5.5,0,0,1-.938-3.36,5.44,5.44,0,0,1,.938-3.339A2.871,2.871,0,0,1-8.4-10.794a2.852,2.852,0,0,1,2.212,1A4.728,4.728,0,0,1-5.11-7.056h2.156ZM7.252-8.582H9.184V-11.69h1.848v7.672H9.184V-7.084H7.252Zm.77,2.772-.9,1.442A4.832,4.832,0,0,1,4.2-6.874,4.919,4.919,0,0,1,1.12-4.018L.182-5.474A4.394,4.394,0,0,0,2.408-7.063,4.263,4.263,0,0,0,3.22-9.436H.686V-10.92h6.93v1.484H5.11a3.81,3.81,0,0,0,.777,2.17A4.194,4.194,0,0,0,8.022-5.81ZM6.678-.182Q9.24-.182,9.24-1.26T6.678-2.338Q4.1-2.338,4.1-1.26T6.678-.182Zm0-3.556a6.72,6.72,0,0,1,3.234.651A2.01,2.01,0,0,1,11.088-1.26,2.01,2.01,0,0,1,9.912.567a6.72,6.72,0,0,1-3.234.651A6.755,6.755,0,0,1,3.43.567,2.01,2.01,0,0,1,2.254-1.26,2.01,2.01,0,0,1,3.43-3.087,6.755,6.755,0,0,1,6.678-3.738Zm8.82-3.7v1.806h5.516V-7.434ZM19.18-1.792h4.928v1.5H12.432v-1.5h4.9V-4.158H13.664v-6.734H15.5v2h5.516v-2h1.82v6.734H19.18Z" transform="translate(-18798.125 -19493.793)" fill="#383838"/><path d="M-23.31-6.16l-1.806-.21a19.219,19.219,0,0,0,.28-2.912h-4.8v-1.47h6.622v.8A21.534,21.534,0,0,1-23.31-6.16Zm.854.518.112,1.316a46.834,46.834,0,0,1-7.868.56l-.168-1.47q1.512,0,2.352-.014V-7.756h1.806V-5.32Q-24.094-5.418-22.456-5.642Zm-4.2,2.744V-.49H-19.5V.98h-9V-2.9Zm6.748-4.872h1.54v1.526h-1.54v4.2h-1.848V-11.7h1.848Zm13.132.658-.7,1.484a7.713,7.713,0,0,1-2.856-.98A5.2,5.2,0,0,1-12.166-8.4a5.183,5.183,0,0,1-1.841,1.792,7.779,7.779,0,0,1-2.863.98l-.7-1.484a6.032,6.032,0,0,0,3.248-1.33A3.006,3.006,0,0,0-13.16-10.7v-.616h1.974v.616a3,3,0,0,0,1.169,2.254A6.055,6.055,0,0,0-6.776-7.112Zm.42,2.436v1.5H-11.3v4.4h-1.848v-4.4H-18v-1.5ZM-3.64-8.764v5.586A20.5,20.5,0,0,0-.126-3.514L.028-2a25.223,25.223,0,0,1-4.606.336H-5.46v-8.568H-.546v1.47ZM.812-6.986v-4.466H2.534V.63H.812V-5.488h-2.24v-1.5ZM3.486-11.7h1.75V1.19H3.486Zm11.69,0h1.848V1.232H15.176ZM7.658-9.541a2.933,2.933,0,0,1,2.436-1.253A2.933,2.933,0,0,1,12.53-9.541,5.382,5.382,0,0,1,13.482-6.2a5.438,5.438,0,0,1-.952,3.36,2.928,2.928,0,0,1-2.436,1.26,2.928,2.928,0,0,1-2.436-1.26A5.438,5.438,0,0,1,6.706-6.2,5.382,5.382,0,0,1,7.658-9.541Zm3.605,1.176a1.32,1.32,0,0,0-1.169-.763,1.32,1.32,0,0,0-1.169.763A4.364,4.364,0,0,0,8.484-6.2a4.405,4.405,0,0,0,.441,2.17,1.319,1.319,0,0,0,1.169.77,1.319,1.319,0,0,0,1.169-.77A4.405,4.405,0,0,0,11.7-6.2,4.364,4.364,0,0,0,11.263-8.365Zm9.681,2.779v2.408a33.432,33.432,0,0,0,4.732-.336l.168,1.484a38.091,38.091,0,0,1-5.684.336H19.11v-8.918h5.964v1.484h-4.13v2.1h3.7v1.442ZM27.5-11.7h1.848V1.232H27.5v-6.9H25.284V-7.154H27.5Z" transform="translate(-18798.215 -19525.984)" fill="#383838"/><path d="M-20.02-8.9v.63a8.4,8.4,0,0,0,.588,3.213,4.429,4.429,0,0,0,1.9,2.205l-1.078,1.344a5.243,5.243,0,0,1-2.3-3.15A5.907,5.907,0,0,1-23.268-1.2L-24.36-2.562a4.9,4.9,0,0,0,1.932-2.366,8.858,8.858,0,0,0,.616-3.346V-8.9h-2.072v-1.5h5.74v1.5Zm2.618,1.61V-11.48h1.722V.616H-17.4V-5.8H-19.04v-1.5Zm2.6-4.41h1.75V1.19H-14.8Zm6.4,8.442a1.29,1.29,0,0,0,1.155-.763A4.52,4.52,0,0,0-6.818-6.2a4.484,4.484,0,0,0-.427-2.163A1.29,1.29,0,0,0-8.4-9.128a1.281,1.281,0,0,0-1.141.763A4.484,4.484,0,0,0-9.968-6.2a4.52,4.52,0,0,0,.427,2.177A1.281,1.281,0,0,0-8.4-3.262ZM-2.954-11.7h1.848V1.232H-2.954v-6.79H-5.1a4.977,4.977,0,0,1-1.043,2.9A2.837,2.837,0,0,1-8.4-1.582a2.866,2.866,0,0,1-2.394-1.26,5.5,5.5,0,0,1-.938-3.36,5.44,5.44,0,0,1,.938-3.339A2.871,2.871,0,0,1-8.4-10.794a2.852,2.852,0,0,1,2.212,1A4.728,4.728,0,0,1-5.11-7.056h2.156ZM7.252-8.582H9.184V-11.69h1.848v7.672H9.184V-7.084H7.252Zm.77,2.772-.9,1.442A4.832,4.832,0,0,1,4.2-6.874,4.919,4.919,0,0,1,1.12-4.018L.182-5.474A4.394,4.394,0,0,0,2.408-7.063,4.263,4.263,0,0,0,3.22-9.436H.686V-10.92h6.93v1.484H5.11a3.81,3.81,0,0,0,.777,2.17A4.194,4.194,0,0,0,8.022-5.81ZM6.678-.182Q9.24-.182,9.24-1.26T6.678-2.338Q4.1-2.338,4.1-1.26T6.678-.182Zm0-3.556a6.72,6.72,0,0,1,3.234.651A2.01,2.01,0,0,1,11.088-1.26,2.01,2.01,0,0,1,9.912.567a6.72,6.72,0,0,1-3.234.651A6.755,6.755,0,0,1,3.43.567,2.01,2.01,0,0,1,2.254-1.26,2.01,2.01,0,0,1,3.43-3.087,6.755,6.755,0,0,1,6.678-3.738Zm8.82-3.7v1.806h5.516V-7.434ZM19.18-1.792h4.928v1.5H12.432v-1.5h4.9V-4.158H13.664v-6.734H15.5v2h5.516v-2h1.82v6.734H19.18Z" transform="translate(-18383.961 -19386.781)" fill="#383838"/><path d="M-22.19-7.84a1.531,1.531,0,0,0,.455,1.162,1.643,1.643,0,0,0,1.183.434,1.668,1.668,0,0,0,1.19-.434A1.518,1.518,0,0,0-18.9-7.84a1.513,1.513,0,0,0-.462-1.169,1.684,1.684,0,0,0-1.19-.427,1.659,1.659,0,0,0-1.183.427A1.525,1.525,0,0,0-22.19-7.84Zm7.014-.7H-17.22a3.862,3.862,0,0,1,.07.7,3.112,3.112,0,0,1-.084.7h2.058Zm0,2.87h-2.87a3.393,3.393,0,0,1-2.506.98,3.43,3.43,0,0,1-2.415-.9A2.934,2.934,0,0,1-23.94-7.84a2.95,2.95,0,0,1,.973-2.268,3.43,3.43,0,0,1,2.415-.9,3.432,3.432,0,0,1,2.534.994h2.842v-1.68h1.848v7.56h-1.848ZM-17.7-.21q2.6,0,2.6-1.12t-2.6-1.12q-2.59,0-2.59,1.12T-17.7-.21Zm0-3.668a6.584,6.584,0,0,1,3.241.672A2.073,2.073,0,0,1-13.272-1.33,2.078,2.078,0,0,1-14.455.539a6.528,6.528,0,0,1-3.241.679A6.494,6.494,0,0,1-20.923.539,2.078,2.078,0,0,1-22.106-1.33a2.073,2.073,0,0,1,1.183-1.876A6.55,6.55,0,0,1-17.7-3.878Zm13.37-2.1L-5.292-4.55A4.665,4.665,0,0,1-8.134-6.958a4.893,4.893,0,0,1-3.024,2.772l-.966-1.456A4.183,4.183,0,0,0-9.849-7.28,4.521,4.521,0,0,0-9.1-9.828V-10.99h1.876v1.316A3.752,3.752,0,0,0-6.5-7.427,4.037,4.037,0,0,0-4.326-5.978ZM-5.992-.224q2.52,0,2.52-1.064t-2.52-1.05q-2.534,0-2.534,1.05T-5.992-.224Zm0-3.542a6.513,6.513,0,0,1,3.185.658,2.016,2.016,0,0,1,1.169,1.82A2.026,2.026,0,0,1-2.807.546,6.513,6.513,0,0,1-5.992,1.2a6.548,6.548,0,0,1-3.2-.658A2.026,2.026,0,0,1-10.36-1.288a2.016,2.016,0,0,1,1.169-1.82A6.548,6.548,0,0,1-5.992-3.766Zm4.214-4.928H-.07v1.526H-1.778V-4.06H-3.626v-7.616h1.848Zm9.03.112H9.184V-11.69h1.848v7.672H9.184V-7.084H7.252Zm.77,2.772-.9,1.442A4.832,4.832,0,0,1,4.2-6.874,4.919,4.919,0,0,1,1.12-4.018L.182-5.474A4.394,4.394,0,0,0,2.408-7.063,4.263,4.263,0,0,0,3.22-9.436H.686V-10.92h6.93v1.484H5.11a3.81,3.81,0,0,0,.777,2.17A4.194,4.194,0,0,0,8.022-5.81ZM6.678-.182Q9.24-.182,9.24-1.26T6.678-2.338Q4.1-2.338,4.1-1.26T6.678-.182Zm0-3.556a6.72,6.72,0,0,1,3.234.651A2.01,2.01,0,0,1,11.088-1.26,2.01,2.01,0,0,1,9.912.567a6.72,6.72,0,0,1-3.234.651A6.755,6.755,0,0,1,3.43.567,2.01,2.01,0,0,1,2.254-1.26,2.01,2.01,0,0,1,3.43-3.087,6.755,6.755,0,0,1,6.678-3.738Zm8.82-3.7v1.806h5.516V-7.434ZM19.18-1.792h4.928v1.5H12.432v-1.5h4.9V-4.158H13.664v-6.734H15.5v2h5.516v-2h1.82v6.734H19.18Z" transform="translate(-18202.125 -19386.781)" fill="#383838"/><g transform="translate(-18697.809 -19346.23)" fill="#57a580" stroke="#4e4e4e" stroke-width="5"><circle cx="76.562" cy="76.562" r="76.562" stroke="none"/><circle cx="76.562" cy="76.562" r="74.062" fill="none"/></g><path d="M-23.541-2.318h6.669V-.285H-32.718V-2.318h6.669V-5.225h-4.807v-9.443H-18.7v1.995H-28.31v1.71h9.215v1.938H-28.31V-7.2h9.747v1.976h-4.978Zm10.573-9.909a2.015,2.015,0,0,0-.637,1.567A1.985,1.985,0,0,0-12.967-9.1a2.4,2.4,0,0,0,1.663.57,2.382,2.382,0,0,0,1.653-.58,1.978,1.978,0,0,0,.646-1.549,2,2,0,0,0-.646-1.567,2.382,2.382,0,0,0-1.653-.58A2.374,2.374,0,0,0-12.967-12.227Zm6.394,1.567A3.882,3.882,0,0,1-7.932-7.629,4.894,4.894,0,0,1-11.3-6.422,4.92,4.92,0,0,1-14.7-7.629a3.882,3.882,0,0,1-1.358-3.031A3.9,3.9,0,0,1-14.7-13.718a4.944,4.944,0,0,1,3.392-1.2,4.908,4.908,0,0,1,3.382,1.2A3.907,3.907,0,0,1-6.574-10.659ZM-8.132-.323q3.42,0,3.42-1.5t-3.42-1.5q-3.439,0-3.439,1.5T-8.132-.323Zm0-4.959a8.621,8.621,0,0,1,4.313.922,2.821,2.821,0,0,1,1.6,2.537A2.835,2.835,0,0,1-3.819.732a8.621,8.621,0,0,1-4.313.922A8.666,8.666,0,0,1-12.464.732a2.835,2.835,0,0,1-1.6-2.556,2.821,2.821,0,0,1,1.6-2.537A8.666,8.666,0,0,1-8.132-5.282Zm7.961-6.384H-2.413v1.748H-.171v2.052H-2.413v2.2H-4.921v-10.2h2.508v2.147H-.171Zm15.428-4.2V-2.774H12.882V-15.865ZM9.386-3.287V-9.842H7.315v-2.033H9.386v-3.686h2.337V-3.287ZM8.873-7.353,7.505-5.434a5.612,5.612,0,0,1-2.831-3.04A6.316,6.316,0,0,1,1.482-5.016L.114-6.916a5.52,5.52,0,0,0,2.5-2.328,6.621,6.621,0,0,0,.808-3.2v-2.242H5.852v2.242a6.14,6.14,0,0,0,.732,2.993A5.012,5.012,0,0,0,8.873-7.353ZM5.985-.665h9.709v2H3.477V-4.294H5.985ZM23.446-14.516v2.527a10.614,10.614,0,0,0,1.045,4.76A6.263,6.263,0,0,0,27.607-4.18l-1.482,2a7.781,7.781,0,0,1-3.914-4.75,8.284,8.284,0,0,1-4.028,5.054L16.625-3.9a6.557,6.557,0,0,0,3.2-3.2,10.979,10.979,0,0,0,1.093-4.892v-2.527Zm5.6-1.368h2.508V1.672H29.051V-8.379H25.688v-2.014h3.363Z" transform="translate(-18621.746 -19261.152)" fill="#fff"/><g transform="translate(-18506.402 -19346.23)" fill="#57a580" stroke="#4e4e4e" stroke-width="5"><circle cx="76.562" cy="76.562" r="76.562" stroke="none"/><circle cx="76.562" cy="76.562" r="74.062" fill="none"/></g><path d="M-26.3-12.122v.969a8.4,8.4,0,0,0,1.112,4.142A6.838,6.838,0,0,0-22.04-4.066L-23.427-2.09A7.99,7.99,0,0,1-27.512-6.8a8.282,8.282,0,0,1-4.18,5.149L-33.1-3.648a6.735,6.735,0,0,0,3.173-3.069A9.36,9.36,0,0,0-28.8-11.153v-.969h-3.629v-2.071h9.614v2.071ZM-16.473-9.2v2.071h-2.546V1.634h-2.508v-17.5h2.508V-9.2Zm4.617,7.638q0,1.311,3.534,1.311t3.534-1.311q0-1.33-3.534-1.33T-11.856-1.558Zm-.921-2.385a9.68,9.68,0,0,1,4.455-.845,9.741,9.741,0,0,1,4.465.845A2.612,2.612,0,0,1-2.242-1.558,2.6,2.6,0,0,1-3.857.808a9.741,9.741,0,0,1-4.465.846A9.774,9.774,0,0,1-12.777.817a2.593,2.593,0,0,1-1.606-2.375A2.612,2.612,0,0,1-12.777-3.943Zm5.766-3.7H-.342v1.995H-16.169V-7.638h6.65V-9.082H-14.25v-6.042H-2.242v2h-9.519v2.052h9.614v1.995H-7.011ZM9.69-8.36,7.239-8.645a26.083,26.083,0,0,0,.38-3.952H1.1v-1.995h8.987v1.083A29.225,29.225,0,0,1,9.69-8.36Zm1.159.7L11-5.871a63.561,63.561,0,0,1-10.678.76L.1-7.106q2.052,0,3.192-.019v-3.4H5.738V-7.22Q8.626-7.353,10.849-7.657Zm-5.7,3.724V-.665h9.709v2H2.641V-3.933Zm9.158-6.612H16.4v2.071h-2.09v5.7H11.8v-13.11h2.508Zm17.822.893-.95,2.014A10.467,10.467,0,0,1,27.3-8.968,7.056,7.056,0,0,1,24.814-11.4a7.034,7.034,0,0,1-2.5,2.432,10.557,10.557,0,0,1-3.885,1.33l-.95-2.014a8.186,8.186,0,0,0,4.408-1.805,4.08,4.08,0,0,0,1.577-3.059v-.836h2.679v.836a4.072,4.072,0,0,0,1.587,3.059A8.217,8.217,0,0,0,32.129-9.652Zm.57,3.306v2.033H25.992V1.653H23.484V-4.313H16.891V-6.346Z" transform="translate(-18429.84 -19261.152)" fill="#fff"/><g transform="translate(-18315 -19346)" fill="#57a580" stroke="#4e4e4e" stroke-width="5"><circle cx="76.562" cy="76.562" r="76.562" stroke="none"/><circle cx="76.562" cy="76.562" r="74.062" fill="none"/></g><path d="M-39.2-.18c-2.286,0-3.348-.306-3.348-.99s1.062-.972,3.348-.972c2.3,0,3.366.288,3.366.972S-36.9-.18-39.2-.18Zm0-3.708c-3.636,0-5.742.936-5.742,2.718,0,1.764,2.106,2.718,5.742,2.718,3.654,0,5.76-.954,5.76-2.718C-33.444-2.952-35.55-3.888-39.2-3.888ZM-38-6.48V-7.506h4.734v-1.8h-9.18v-.9h8.676v-1.728h-8.676V-12.8h9.054v-1.8H-44.8v7.092h4.428V-6.48h-6.3v1.854H-31.68V-6.48Zm16.776-7.092H-24.93v-1.584h-2.394v1.584h-3.69v1.854h9.774Zm-6.7,5.238c0-.792.738-1.206,1.8-1.206s1.8.414,1.8,1.206-.738,1.206-1.8,1.206S-27.918-7.542-27.918-8.334Zm5.868,0c0-1.764-1.674-2.934-4.068-2.934s-4.068,1.17-4.068,2.934c0,1.746,1.674,2.934,4.068,2.934S-22.05-6.588-22.05-8.334ZM-20.3-.486H-26.37V-1.638H-20.3Zm0-2.952H-26.37V-4.7h-2.358V1.368h10.782V-4.7H-20.3Zm4.554-7.614h-2.2V-15.03h-2.376v9.7h2.376v-3.78h2.2Zm2.88.972a1.951,1.951,0,0,1,2.106-2.052A1.965,1.965,0,0,1-8.64-10.08a1.975,1.975,0,0,1-2.124,2.052A1.96,1.96,0,0,1-12.87-10.08Zm9.018-.9v1.8H-6.5a3.844,3.844,0,0,0,.108-.9,4.766,4.766,0,0,0-.09-.9Zm0,3.69v1.98h2.376v-9.72H-3.852v2.16H-7.506a4.536,4.536,0,0,0-3.258-1.278A4.124,4.124,0,0,0-15.12-10.08a4.121,4.121,0,0,0,4.356,4.05A4.5,4.5,0,0,0-7.542-7.29ZM-7.092-.27c-2.178,0-3.33-.468-3.33-1.44s1.152-1.44,3.33-1.44,3.348.468,3.348,1.44S-4.914-.27-7.092-.27Zm0-4.716c-3.492,0-5.67,1.206-5.67,3.276,0,2.052,2.178,3.276,5.67,3.276C-3.582,1.566-1.4.342-1.4-1.71-1.4-3.78-3.582-4.986-7.092-4.986Zm17.19-2.7a4.86,4.86,0,0,1-3.726-4.752V-14.13H3.96v1.494A5.407,5.407,0,0,1,.072-7.254L1.314-5.382A6.38,6.38,0,0,0,5.2-8.946a6.087,6.087,0,0,0,3.654,3.1ZM7.956-.288C5.832-.288,4.7-.72,4.7-1.656c0-.918,1.134-1.35,3.258-1.35,2.106,0,3.24.432,3.24,1.35C11.2-.72,10.062-.288,7.956-.288Zm0-4.554C4.5-4.842,2.34-3.654,2.34-1.656c0,2.016,2.16,3.2,5.616,3.2,3.438,0,5.6-1.188,5.6-3.2C13.554-3.654,11.394-4.842,7.956-4.842Zm5.418-6.336v-3.834H11V-5.22h2.376v-4h2.2v-1.962ZM24.84-7.92a25.689,25.689,0,0,0,.378-4.878v-1.026H16.7v1.89h6.174a23.6,23.6,0,0,1-.36,3.744Zm1.1.666c-1.548.216-3.2.342-4.842.414V-9.972H18.774V-6.75c-1.08.018-2.106.018-3.024.018l.216,1.89a60.175,60.175,0,0,0,10.116-.72Zm-5.4,3.528H18.162V1.26H29.736V-.63h-9.2ZM29.214-9.99v-5.058H26.838v12.42h2.376v-5.4h1.98V-9.99ZM36.9-11.448h2.412v-1.926h-7.38v1.926H34.6v.81c0,2.844-.864,5.814-3.276,7.344l1.4,1.746a7.7,7.7,0,0,0,3.042-4.446,6.8,6.8,0,0,0,2.952,4.05L40.1-3.672c-2.394-1.4-3.2-4.194-3.2-6.966Zm3.366,2.07H38.16v1.926h2.106V.792H42.48V-14.76H40.266Zm3.348-5.67V1.53h2.25V-15.048Zm-57.708,35.3A5.391,5.391,0,0,0-9.846,18.29l-1.4-1.656A3.7,3.7,0,0,1-14,17.948c-2.106,0-3.474-1.746-3.474-4.644,0-2.862,1.512-4.59,3.528-4.59A3.435,3.435,0,0,1-11.5,9.83l1.4-1.692A5.433,5.433,0,0,0-14,6.428C-17.37,6.428-20.2,9-20.2,13.394-20.2,17.84-17.46,20.252-14.094,20.252Zm10.224,0A5.391,5.391,0,0,0,.378,18.29l-1.4-1.656A3.7,3.7,0,0,1-3.78,17.948c-2.106,0-3.474-1.746-3.474-4.644,0-2.862,1.512-4.59,3.528-4.59A3.435,3.435,0,0,1-1.278,9.83l1.4-1.692A5.433,5.433,0,0,0-3.78,6.428c-3.366,0-6.192,2.574-6.192,6.966C-9.972,17.84-7.236,20.252-3.87,20.252ZM3.978,20H6.642V8.894h3.78V6.68H.234V8.894H3.978Zm10.044,0H17.19L21.276,6.68h-2.7l-1.728,6.48c-.414,1.476-.72,2.808-1.134,4.3h-.09c-.432-1.494-.7-2.826-1.116-4.3L12.744,6.68H9.954Z" transform="translate(-18238 -19272)" fill="#fff"/><g transform="translate(-18695.574 -19496.744)"><g transform="translate(0 0)"><path d="M212.073,301.637,189.74,252.855l-19.93,48.782Z" transform="translate(-135.542 -209.849)"/><circle cx="6.833" cy="6.833" r="6.833" transform="translate(47.305 26.74)"/><path d="M175.315,136.11a1.923,1.923,0,0,0-2.727.1c-.116.125-11.472,12.709-.129,27.908a1.928,1.928,0,1,0,3.091-2.306c-9.386-12.578-.513-22.558-.126-22.983A1.929,1.929,0,0,0,175.315,136.11Z" transform="translate(-133.639 -116.251)"/><path d="M94.9,87.145a1.926,1.926,0,0,0-2.723.106,37.156,37.156,0,0,0-7.445,14c-2.25,7.875-2.808,20.111,7.315,33.674a1.928,1.928,0,1,0,3.091-2.306c-17.46-23.4-.843-41.966-.127-42.745A1.934,1.934,0,0,0,94.9,87.145Z" transform="translate(-66.554 -77.17)"/><path d="M13.641,107.738a1.928,1.928,0,0,0,1.544-3.082c-25.191-33.757-1.164-60.545-.127-61.668a1.93,1.93,0,0,0-2.835-2.621c-.276.3-27.277,30.219-.129,66.6A1.929,1.929,0,0,0,13.641,107.738Z" transform="translate(0 -39.747)"/><path d="M325.528,164.514a1.93,1.93,0,0,0,2.7-.394c11.341-15.2-.013-27.781-.129-27.908a1.93,1.93,0,0,0-2.833,2.622c.386.415,9.313,10.322-.129,22.977A1.931,1.931,0,0,0,325.528,164.514Z" transform="translate(-259.217 -116.252)"/><path d="M394.117,87.24a1.93,1.93,0,0,0-2.833,2.623c.176.191,17.387,19.268-.129,42.741a1.928,1.928,0,1,0,3.091,2.306C413.665,108.9,394.316,87.456,394.117,87.24Z" transform="translate(-311.914 -77.161)"/><path d="M457.8,40.256a1.934,1.934,0,0,0-.11,2.727c1.036,1.123,25.063,27.911-.127,61.668a1.928,1.928,0,1,0,3.091,2.306c27.147-36.377.147-66.3-.129-66.6A1.932,1.932,0,0,0,457.8,40.256Z" transform="translate(-364.923 -39.744)"/></g></g><rect width="382.81" height="174.875" rx="39" transform="translate(-18525.543 -19616.807)" fill="#f7f6f5" stroke="#4e4e4e" stroke-linecap="round" stroke-width="2" stroke-dasharray="2 5"/><g transform="translate(-18304.557 -19598.535)" fill="#fff" stroke="#4e4e4e" stroke-width="5"><circle cx="66.122" cy="66.122" r="66.122" stroke="none"/><circle cx="66.122" cy="66.122" r="63.622" fill="none"/></g><g transform="translate(-18262 -19565.639)"><circle cx="2.072" cy="2.072" r="2.072" transform="translate(9.325 7.771)" fill="#4e4e4e"/><circle cx="2.072" cy="2.072" r="2.072" transform="translate(25.385 7.771)" fill="#4e4e4e"/><path d="M9.89,223.692H28.879a9.908,9.908,0,0,0,9.381-6.758l3.478,2.008a5.935,5.935,0,0,0,8.9-5.141V205.89a5.935,5.935,0,0,0-8.9-5.141l-3.478,2.009A9.907,9.907,0,0,0,28.879,196H9.89A9.9,9.9,0,0,0,0,205.89V213.8a9.9,9.9,0,0,0,9.89,9.89Zm33.827-19.518a1.946,1.946,0,0,1,.986-.263,1.98,1.98,0,0,1,1.978,1.978V213.8A1.98,1.98,0,0,1,44.7,215.78a1.947,1.947,0,0,1-.986-.263l-4.948-2.857v-5.628ZM3.956,205.89a5.941,5.941,0,0,1,5.934-5.934H28.879a5.941,5.941,0,0,1,5.934,5.934V213.8a5.941,5.941,0,0,1-5.934,5.934H9.89A5.941,5.941,0,0,1,3.956,213.8Z" transform="translate(0 -180.176)" fill="#4e4e4e"/><path d="M18.335,48.971a1.978,1.978,0,0,0,1.68-2.237,6.012,6.012,0,0,1-.059-.844,5.934,5.934,0,1,1,11.868,0,1.978,1.978,0,0,0,3.956,0,5.934,5.934,0,1,1,11.868,0,6.015,6.015,0,0,1-.059.844,1.978,1.978,0,1,0,3.917.557A9.9,9.9,0,0,0,41.714,36,9.881,9.881,0,0,0,33.8,39.962,9.887,9.887,0,0,0,16,45.89a10,10,0,0,0,.1,1.4,1.978,1.978,0,0,0,2.237,1.68Z" transform="translate(-14.418 -36)" fill="#4e4e4e"/><path d="M233.978,279.956h3.956a1.978,1.978,0,1,0,0-3.956h-3.956a1.978,1.978,0,1,0,0,3.956Z" transform="translate(-209.055 -252.264)" fill="#4e4e4e"/></g><path d="M-19.536-1.5h6.072V1.044h1.584V-2.772h-7.656Zm4.656-3.372V-6.048h3.12v-1.26h-6.084V-9.852h-1.584v3.8h2.964v1.176h-4.188v1.26h10v-1.26ZM-3.636-8.808H-6.084V-9.972H-7.668v1.164H-10.14V-7.56h6.5ZM-8.076-5.04c0-.576.48-.888,1.2-.888s1.2.312,1.2.888-.48.888-1.2.888S-8.076-4.464-8.076-5.04Zm1.992,1.992A2.1,2.1,0,0,0-4.176-5.04c0-1.248-1.116-2.088-2.7-2.088s-2.7.84-2.7,2.088A2.1,2.1,0,0,0-7.668-3.048v.936c-.972.024-1.884.024-2.676.024L-10.152-.8A35.269,35.269,0,0,0-3.468-1.26l-.12-1.14c-.792.12-1.644.18-2.5.228ZM-.06-5.52H-1.44v-4.5H-3.024V1.032H-1.44V-4.212H-.06ZM6.8-5a3.179,3.179,0,0,1-2.52-3.012h2.16V-9.288H.468v1.272h2.2A3.578,3.578,0,0,1,.06-4.632L.852-3.4A4.3,4.3,0,0,0,3.516-5.784a4.074,4.074,0,0,0,2.532,2ZM5.3-.18c-1.416,0-2.172-.3-2.172-.924S3.888-2.04,5.3-2.04s2.16.3,2.16.936S6.708-.18,5.3-.18Zm0-3.084c-2.3,0-3.744.8-3.744,2.16S3,1.032,5.3,1.032,9.036.24,9.036-1.1,7.6-3.264,5.3-3.264ZM8.916-7.476V-10.02H7.332v6.564H8.916V-6.18H10.38v-1.3Zm9.312-2.556V1.056h1.584V-10.032ZM11.2-9.144v7.62h5.448v-7.62H15.072v2.676h-2.3V-9.144Zm1.572,3.912h2.3v2.448h-2.3Z" transform="translate(-18236.348 -19497.533)" fill="#4e4e4e"/><g transform="translate(-18495 -19598.535)" fill="#fff" stroke="#4e4e4e" stroke-width="5"><circle cx="66.122" cy="66.122" r="66.122" stroke="none"/><circle cx="66.122" cy="66.122" r="63.622" fill="none"/></g><g transform="translate(-18451 -19564.424)"><path d="M43.1,53.582a1.752,1.752,0,0,0,1.752-1.752v-8.76a7.016,7.016,0,0,0-7.008-7.008H7.008A7.016,7.016,0,0,0,0,43.069V60.59A7.016,7.016,0,0,0,7.008,67.6H20.675v3.493H14.542a1.752,1.752,0,1,0,0,3.5H30.311a1.752,1.752,0,1,0,0-3.5H24.179V67.6H37.845a7.016,7.016,0,0,0,7.008-7.008,1.752,1.752,0,0,0-3.5,0,3.508,3.508,0,0,1-3.5,3.5H7.008a3.508,3.508,0,0,1-3.5-3.5V43.069a3.508,3.508,0,0,1,3.5-3.5H37.845a3.508,3.508,0,0,1,3.5,3.5v8.76A1.752,1.752,0,0,0,43.1,53.582Z" transform="translate(0 -36.061)" fill="#4e4e4e"/></g><path d="M-16.224-4.812c-2.5-.432-3.864-2.148-3.864-3.768v-.792H-21.78v.792c0,1.584-1.38,3.336-3.864,3.768l.672,1.32A5.548,5.548,0,0,0-20.94-6.348,5.6,5.6,0,0,0-16.9-3.492ZM-25.884-1.6V-.312h10.008V-1.6Zm12.336-6.132h2.16V-2.9h-2.16Zm-1.56,6.072h5.28v-7.32h-5.28Zm9.924-4.2H-6.792v-4.152H-8.376V1.032h1.584v-5.58h1.608ZM3.936-4.32H-2.22V-5.556H3.6V-6.78H-2.22V-7.944H3.852V-9.216h-7.68v6.144H3.936ZM-5-1.524V-.24H5V-1.524ZM10.4-.18c-1.476,0-2.232-.264-2.232-.84s.756-.84,2.232-.84,2.232.252,2.232.84S11.88-.18,10.4-.18Zm0-2.892c-2.388,0-3.828.744-3.828,2.052S8.016,1.044,10.4,1.044s3.84-.756,3.84-2.064S12.792-3.072,10.4-3.072Zm.828-1.836v-1.1h3.1v-1.26H8.28V-9.828H6.7v3.816H9.648v1.1h-4.2V-3.66h10V-4.908ZM23.544-.348H19.368v-1h4.176Zm0-2.2H19.368V-3.6H17.8V.9h7.32V-3.6H23.544ZM18.924-5.6a1.279,1.279,0,0,1-1.392-1.32,1.279,1.279,0,0,1,1.392-1.32,1.283,1.283,0,0,1,1.4,1.32A1.283,1.283,0,0,1,18.924-5.6Zm4.608-4.416v2.436H21.768a2.812,2.812,0,0,0-2.844-1.98,2.7,2.7,0,0,0-2.9,2.64,2.7,2.7,0,0,0,2.9,2.64A2.8,2.8,0,0,0,21.78-6.3h1.752v2.22h1.584v-5.94Zm-44.448,23.9c-1.524,0-2.232-.2-2.232-.66s.708-.648,2.232-.648,2.244.192,2.244.648S-19.38,13.88-20.916,13.88Zm0-2.472c-2.424,0-3.828.624-3.828,1.812s1.4,1.812,3.828,1.812,3.84-.636,3.84-1.812S-18.48,11.408-20.916,11.408Zm.8-1.728V9h3.156V7.8h-6.12V7.2h5.784V6.044h-5.784V5.468h6.036v-1.2h-7.608V9H-21.7V9.68h-4.2v1.236h10V9.68ZM-8.928,4.952H-11.4V3.9H-13V4.952h-2.46V6.188H-8.94Zm-4.464,3.492c0-.528.492-.8,1.2-.8s1.2.276,1.2.8-.492.8-1.2.8S-13.392,8.972-13.392,8.444Zm3.912,0c0-1.176-1.116-1.956-2.712-1.956s-2.712.78-2.712,1.956,1.116,1.956,2.712,1.956S-9.48,9.608-9.48,8.444Zm1.164,5.232H-12.36v-.768h4.044Zm0-1.968H-12.36v-.84h-1.572v4.044h7.188V10.868H-8.316ZM-5.28,6.632H-6.744V3.98H-8.328v6.468h1.584V7.928H-5.28Zm6.4.24H-1.152V5.456H1.116Zm-3.84,0H-4.056V8.048H4.008V6.872H2.688V5.456h1.4V4.28h-8.22V5.456h1.4Zm.444,6.336H3.768V10.472H-3.864v1.14H2.208v.54h-6.06v2.8H4.056v-1.14H-2.28ZM-5,8.612V9.86H4.98V8.612Zm17.472-.7h.888v3.492h1.5V3.98h-1.5V6.656h-.888V4.172H10.992V10.5h1.476Zm-2,.984a17.155,17.155,0,0,1-3.06.276V8.132h2.652V4.748H5.868V5.984H8.532v1H5.88v3.444h.768a18.721,18.721,0,0,0,3.96-.288Zm1.38,2.04H10.26v.192c0,1.14-1.14,2.34-3.516,2.64L7.356,15a5.15,5.15,0,0,0,3.7-2,5.074,5.074,0,0,0,3.684,2l.624-1.224c-2.388-.3-3.516-1.5-3.516-2.64Zm6.744,1.608h4.524v1.116H18.588ZM17.04,14.9h7.632V11.3H17.04Zm2.688-9.36H22V7.208H19.728Zm1.92,3.792V8.468h3.228V7.208H23.568V5.54h1.4V4.28h-8.22V5.54h1.4V7.208H16.824v1.26h3.24v.864H15.876V10.58H25.86V9.332Z" transform="translate(-18429.104 -19505.363)" fill="#4e4e4e"/><path d="M-11167.086-1004.44l-41.771-22.259-1.835,10.4,5.836,12.4Z" transform="translate(-7628.131 -18643.688)" fill="#57a580" opacity="0.29"/><g transform="translate(-18899.398 -19693.367)"><g transform="translate(18.395 0)"><g transform="translate(0 0)"><path d="M63.935,19.958l-4.194-.115.987-2.712a4.447,4.447,0,0,0-2.659-5.7L27.411.271a4.449,4.449,0,0,0-5.7,2.659l-3.043,8.361a4.449,4.449,0,0,0,1.352,4.958l-.594,1.631a4.446,4.446,0,0,0,2.659,5.7l11.144,4.056V34.21a1.485,1.485,0,0,1-1.483,1.483h-4.6a7.534,7.534,0,0,0-2.013-3.8,7.3,7.3,0,0,0-5.255-2.233A1.483,1.483,0,0,0,18.4,31.145V49.139a1.483,1.483,0,0,0,1.483,1.483,7.3,7.3,0,0,0,5.255-2.233,7.533,7.533,0,0,0,2.013-3.8h4.6A10.393,10.393,0,0,0,42.124,34.21V30.877l5.043,1.835a4.454,4.454,0,0,0,5.7-2.659l.311-.854,5.735,4.551a1.483,1.483,0,0,0,2.315-.654l4.058-11.149A1.484,1.484,0,0,0,63.935,19.958ZM24.328,43.108a4.616,4.616,0,0,1-2.966,4.278V32.9a4.616,4.616,0,0,1,2.966,4.278Zm14.83-8.9a7.423,7.423,0,0,1-7.415,7.415H27.294V38.659h4.449a4.454,4.454,0,0,0,4.449-4.449V28.718l2.966,1.08Zm11.949-7.988,0,.007-1.023,2.81a1.485,1.485,0,0,1-1.9.886L23.1,20.8a1.482,1.482,0,0,1-.886-1.9l.507-1.394,20.06,7.3a4.434,4.434,0,0,0,2.453.17l6.537-.564Zm-6.234-4.2a1.894,1.894,0,0,1-1.082-.011L22.339,14.206a1.482,1.482,0,0,1-.886-1.9L24.5,3.944a1.483,1.483,0,0,1,1.9-.886L57.055,14.217a1.482,1.482,0,0,1,.886,1.9L56.455,20.2a1.48,1.48,0,0,1-.952.909Zm14.274,8.123-4.9-3.887.777-2.135a9.379,9.379,0,0,0,1.089-.111,4.441,4.441,0,0,0,2.159-1.245l3.524.1Z" transform="translate(-18.395 0)" fill="#383838"/></g></g><g transform="translate(26.178 6.77)"><path d="M104.685,70.588,99.111,68.56A1.483,1.483,0,1,0,98.1,71.347l5.574,2.029a1.483,1.483,0,1,0,1.014-2.787Z" transform="translate(-97.121 -68.47)" fill="#383838"/></g></g><g transform="translate(-18952.836 -19566.344)"><g transform="translate(3.772 48.49)"><path d="M111.84,394.454a8.349,8.349,0,0,0,5.821-2.348,8.251,8.251,0,0,0,2.328-5.8,8.249,8.249,0,0,0-5.8,2.328A8.349,8.349,0,0,0,111.84,394.454Zm0,0" transform="translate(-100.945 -383.701)" fill="#57a580"/><path d="M275.832,394.454a8.35,8.35,0,0,0,5.821-2.348,8.25,8.25,0,0,0,2.328-5.8,8.249,8.249,0,0,0-5.8,2.328A8.349,8.349,0,0,0,275.832,394.454Zm0,0" transform="translate(-243.432 -383.701)" fill="#57a580"/><path d="M439.824,394.454a8.349,8.349,0,0,0,5.821-2.348,8.249,8.249,0,0,0,2.328-5.8,8.249,8.249,0,0,0-5.8,2.328A8.349,8.349,0,0,0,439.824,394.454Zm0,0" transform="translate(-385.919 -383.701)" fill="#57a580"/><path d="M34.708,368.783a8.3,8.3,0,0,0-5.946-2.33,8.3,8.3,0,0,0,2.331,5.946,8.4,8.4,0,0,0,5.966,2.351A8.4,8.4,0,0,0,34.708,368.783Zm0,0" transform="translate(-28.762 -366.453)" fill="#57a580"/><path d="M198.7,368.783a8.3,8.3,0,0,0-5.946-2.33,8.3,8.3,0,0,0,2.331,5.946,8.4,8.4,0,0,0,5.966,2.351A8.4,8.4,0,0,0,198.7,368.783Zm0,0" transform="translate(-171.248 -366.453)" fill="#57a580"/><path d="M362.692,368.783a8.3,8.3,0,0,0-5.946-2.33,8.3,8.3,0,0,0,2.331,5.946,8.4,8.4,0,0,0,5.966,2.351A8.4,8.4,0,0,0,362.692,368.783Zm0,0" transform="translate(-313.735 -366.453)" fill="#57a580"/></g><path d="M251.1,16.32V13.431a2.931,2.931,0,0,0-2.931-2.931h-5.714a2.931,2.931,0,0,0-2.931,2.931V16.32a2.931,2.931,0,0,0,2.931,2.931h5.714A2.931,2.931,0,0,0,251.1,16.32Zm0,0" transform="translate(-208.116 -6.731)" fill="#c9c9c9"/><path d="M253.52,77.23l1.791,4.56h3.319l1.791-4.56Zm0,0" transform="translate(-220.273 -64.711)" fill="#b4b4b4"/><path d="M216.423,168.162a1.311,1.311,0,0,0,0,1.854,6.876,6.876,0,0,0,9.712,0,1.311,1.311,0,0,0-1.854-1.854,4.251,4.251,0,0,1-6,0A1.311,1.311,0,0,0,216.423,168.162Zm0,0" transform="translate(-187.708 -143.384)" fill="#292929"/><path d="M204.033,198.122a1.311,1.311,0,0,0-1.855,0,9.813,9.813,0,0,1-13.861,0,1.311,1.311,0,0,0-1.854,1.854,12.424,12.424,0,0,0,17.57,0A1.312,1.312,0,0,0,204.033,198.122Zm0,0" transform="translate(-161.676 -169.416)" fill="#292929"/><path d="M248.239,139.851a1.31,1.31,0,1,0-.927.385A1.318,1.318,0,0,0,248.239,139.851Zm0,0" transform="translate(-213.74 -117.175)" fill="#292929"/><path d="M82.039,310.8v3.081a1.311,1.311,0,1,0,2.622,0V310.8a1.311,1.311,0,1,0-2.622,0Zm0,0" transform="translate(-71.28 -268.465)" fill="#292929"/><path d="M84.277,273.869a1.311,1.311,0,1,0,.384.927A1.321,1.321,0,0,0,84.277,273.869Zm0,0" transform="translate(-71.28 -237.186)" fill="#292929"/><path d="M247.28,315.188a1.311,1.311,0,0,0,1.311-1.311V310.8a1.311,1.311,0,1,0-2.623,0v3.081A1.311,1.311,0,0,0,247.28,315.188Zm0,0" transform="translate(-213.713 -268.465)" fill="#292929"/><path d="M247.28,276.107a1.312,1.312,0,1,0-.927-.384A1.322,1.322,0,0,0,247.28,276.107Zm0,0" transform="translate(-213.713 -237.186)" fill="#292929"/><path d="M411.213,315.188a1.311,1.311,0,0,0,1.311-1.311V310.8a1.311,1.311,0,1,0-2.622,0v3.081A1.311,1.311,0,0,0,411.213,315.188Zm0,0" transform="translate(-356.148 -268.465)" fill="#292929"/><path d="M411.213,276.107a1.312,1.312,0,1,0-.927-.384A1.321,1.321,0,0,0,411.213,276.107Zm0,0" transform="translate(-356.148 -237.186)" fill="#292929"/><path d="M65.829,374.275H56.392v-4.5c.311.027.662.046,1.046.046a9.7,9.7,0,0,0,6.989-2.737c3.861-3.861,2.493-9.206,2.433-9.432a1.311,1.311,0,0,0-.929-.929c-.226-.06-5.571-1.429-9.433,2.433a9.043,9.043,0,0,0-1.42,1.839,9.064,9.064,0,0,0-1.42-1.839c-3.622-3.621-8.547-2.643-9.332-2.458-.785-.185-5.711-1.163-9.332,2.458a9.027,9.027,0,0,0-1.42,1.839,9.064,9.064,0,0,0-1.42-1.839c-3.622-3.621-8.547-2.643-9.332-2.458-.785-.185-5.711-1.163-9.332,2.458a9.046,9.046,0,0,0-1.42,1.839,9.046,9.046,0,0,0-1.42-1.839c-3.861-3.861-9.206-2.493-9.432-2.433a1.311,1.311,0,0,0-.929.929c-.06.226-1.429,5.571,2.433,9.432a9.694,9.694,0,0,0,6.989,2.737c.387,0,.74-.019,1.053-.047v4.5H1.313a1.311,1.311,0,1,0,0,2.622H65.83a1.311,1.311,0,1,0,0-2.623Zm-29.9-4.457a9.7,9.7,0,0,0,6.989-2.737,9.007,9.007,0,0,0,1.4-1.811,9.007,9.007,0,0,0,1.4,1.811,9.693,9.693,0,0,0,6.988,2.737c.387,0,.74-.019,1.054-.047v4.5H34.887v-4.5C35.2,369.8,35.548,369.819,35.932,369.819Zm22.42-8.811a7.348,7.348,0,0,1,6.111-1.892,7.347,7.347,0,0,1-1.892,6.111,7.457,7.457,0,0,1-6.136,1.919c-.02-.186-.037-.4-.047-.635.007-.231.008-.476,0-.734A7.016,7.016,0,0,1,58.352,361.007Zm-6.55,0a6.987,6.987,0,0,1,1.967,4.7c-.011.3-.01.589,0,.855-.01.214-.027.409-.046.581a7.457,7.457,0,0,1-6.139-1.919,6.909,6.909,0,0,1-1.95-4.731c.006-.222.006-.435,0-.638.01-.277.031-.526.057-.739A7.377,7.377,0,0,1,51.8,361.007Zm-14.955,0a7.348,7.348,0,0,1,6.111-1.892c.026.215.048.467.057.747-.005.2-.006.41,0,.628a6.909,6.909,0,0,1-1.949,4.736,7.457,7.457,0,0,1-6.137,1.919c-.02-.186-.037-.4-.047-.635.007-.232.008-.477,0-.734A7.013,7.013,0,0,1,36.846,361.007Zm-6.55,0a6.986,6.986,0,0,1,1.966,4.7c-.011.3-.01.589,0,.855-.01.214-.027.409-.046.581a7.457,7.457,0,0,1-6.139-1.919,6.906,6.906,0,0,1-1.949-4.731c.006-.222.006-.435,0-.638.01-.277.032-.526.057-.739A7.378,7.378,0,0,1,30.3,361.007Zm-14.956,0a7.348,7.348,0,0,1,6.111-1.892c.026.215.048.467.058.747-.006.2-.006.41,0,.628a6.9,6.9,0,0,1-1.949,4.736,7.457,7.457,0,0,1-6.137,1.919c-.02-.186-.037-.4-.047-.635.007-.232.008-.477,0-.734A7.013,7.013,0,0,1,15.341,361.007Zm-10.77,4.219a7.346,7.346,0,0,1-1.892-6.109,7.378,7.378,0,0,1,6.112,1.889,6.986,6.986,0,0,1,1.966,4.7c-.011.3-.01.588,0,.855-.01.213-.027.408-.046.58A7.455,7.455,0,0,1,4.571,365.227Zm8.81,4.546c.311.027.662.046,1.046.046a9.7,9.7,0,0,0,6.989-2.737,9.007,9.007,0,0,0,1.4-1.811,9.007,9.007,0,0,0,1.4,1.811,9.694,9.694,0,0,0,6.989,2.737c.387,0,.74-.019,1.053-.047v4.5H13.382v-4.5Zm0,0" transform="translate(0 -309.26)" fill="#292929"/><path d="M55.319,3.123h4.216v3.54H58.083a1.311,1.311,0,0,0,0,2.623H70.105a4.267,4.267,0,0,0,1.949,2.107l-4.775,3.394a1.311,1.311,0,0,0-.552,1.069v6.15a1.311,1.311,0,0,0,2.623,0V16.533l4.3-3.06.836,2.129a1.312,1.312,0,0,0,1.221.832h9.569A1.312,1.312,0,0,0,86.5,15.6l.836-2.129,4.3,3.06v5.473a1.311,1.311,0,0,0,2.623,0v-6.15a1.311,1.311,0,0,0-.552-1.069l-4.775-3.394a4.267,4.267,0,0,0,1.949-2.107H102.91a1.311,1.311,0,0,0,0-2.623h-1.452V3.123h4.215a1.311,1.311,0,0,0,0-2.623H94.62a1.311,1.311,0,1,0,0,2.623h4.215v3.54H91.223V4.742A4.247,4.247,0,0,0,86.981.5H74.011a4.247,4.247,0,0,0-4.242,4.242v1.92H62.157V3.123h4.215a1.311,1.311,0,1,0,0-2.623H55.319a1.311,1.311,0,0,0,0,2.623ZM84.387,13.811H76.605l-.748-1.9.047-.033h9.183l.047.033ZM72.392,4.742a1.621,1.621,0,0,1,1.62-1.62H86.981a1.621,1.621,0,0,1,1.62,1.62V7.631a1.622,1.622,0,0,1-1.62,1.62H74.011a1.622,1.622,0,0,1-1.62-1.62V4.742Zm0,0" transform="translate(-46.925 1.957)" fill="#292929"/></g><path d="M-19.05,3.03l1.38-.585A14.432,14.432,0,0,1-19.5-4.74a14.456,14.456,0,0,1,1.83-7.17l-1.38-.585A14.364,14.364,0,0,0-21.285-4.74,14.377,14.377,0,0,0-19.05,3.03ZM-11.745.21a4.492,4.492,0,0,0,3.54-1.635l-1.17-1.38a3.086,3.086,0,0,1-2.3,1.095c-1.755,0-2.895-1.455-2.895-3.87,0-2.385,1.26-3.825,2.94-3.825a2.863,2.863,0,0,1,2.04.93l1.17-1.41A4.528,4.528,0,0,0-11.67-11.31c-2.805,0-5.16,2.145-5.16,5.805C-16.83-1.8-14.55.21-11.745.21Zm8.52,0A4.492,4.492,0,0,0,.315-1.425l-1.17-1.38A3.086,3.086,0,0,1-3.15-1.71c-1.755,0-2.895-1.455-2.895-3.87,0-2.385,1.26-3.825,2.94-3.825a2.863,2.863,0,0,1,2.04.93L.1-9.885A4.528,4.528,0,0,0-3.15-11.31c-2.805,0-5.16,2.145-5.16,5.805C-8.31-1.8-6.03.21-3.225.21ZM3.315,0h2.22V-9.255h3.15V-11.1H.195v1.845h3.12Zm8.37,0h2.64L17.73-11.1H15.48L14.04-5.7c-.345,1.23-.6,2.34-.945,3.585H13.02c-.36-1.245-.585-2.355-.93-3.585l-1.47-5.4H8.295Zm7.35,3.03a14.26,14.26,0,0,0,2.25-7.77,14.247,14.247,0,0,0-2.25-7.755l-1.365.585A14.456,14.456,0,0,1,19.5-4.74a14.432,14.432,0,0,1-1.83,7.185Z" transform="translate(-18858.715 -19602)" fill="#6c6c6c"/><g transform="translate(-18889 -19346.23)" fill="#fff" stroke="#4e4e4e" stroke-width="5"><circle cx="76.562" cy="76.562" r="76.562" stroke="none"/><circle cx="76.562" cy="76.562" r="74.062" fill="none"/></g><path d="M-21.366-13.68h-3.51V-15.1h-2.376v1.422H-30.78v1.692h9.414Zm-6.5,4.7c0-.648.684-.99,1.8-.99s1.782.342,1.782.99c0,.63-.666.972-1.782.972S-27.864-8.352-27.864-8.982Zm6.912,2.934c-1.26.18-2.574.288-3.924.378v-.846c1.746-.27,2.844-1.17,2.844-2.466,0-1.6-1.6-2.574-4.032-2.574-2.448,0-4.05.972-4.05,2.574,0,1.3,1.1,2.2,2.862,2.466v.954c-1.422.054-2.772.054-3.942.054l.252,1.818a59.312,59.312,0,0,0,10.17-.738ZM-26.514-2.9H-28.89V1.26H-17.3V-.63h-9.216Zm8.658-6.714v-5.436h-2.376v12.96h2.376v-5.58h2.088V-9.612Zm14-.9v1.53H-7.506v1.908h3.654V-5.49h2.376v-9.54H-3.852V-12.4h-2.97a10.309,10.309,0,0,0,.108-1.512h-7.6v1.908h5c-.306,2.25-2.124,4.032-5.9,5.04l.918,1.872c3.654-1.026,5.976-2.808,7-5.418ZM-6.948-.378C-9-.378-10.206-.9-10.206-1.908S-9-3.438-6.948-3.438c2.034,0,3.24.522,3.24,1.53S-4.914-.378-6.948-.378Zm0-4.9c-3.384,0-5.6,1.3-5.6,3.366s2.214,3.366,5.6,3.366c3.366,0,5.58-1.3,5.58-3.366S-3.582-5.274-6.948-5.274Zm21.4-9.756H12.2v12.4h2.25ZM8.892-3.114h2.214V-14.742H8.892v3.492H6.93v1.926H8.892ZM8.406-6.966A5.064,5.064,0,0,1,5.544-11.79v-2.124H3.24v2.124A5.631,5.631,0,0,1,.108-6.552l1.3,1.8A6.109,6.109,0,0,0,4.428-8.028,5.37,5.37,0,0,0,7.11-5.148ZM5.67-.63V-4.068H3.294V1.26H14.868V-.63ZM22.212-13.752H19.818v2.394c0,3.15-1.26,6.372-4.068,7.668l1.476,1.908A7.979,7.979,0,0,0,21.042-6.57a7.446,7.446,0,0,0,3.708,4.5l1.4-1.89c-2.736-1.224-3.942-4.266-3.942-7.4Zm5.31-1.3v5.2H24.336v1.908h3.186V1.584H29.9V-15.048Z" transform="translate(-18811.807 -19284.652)" fill="#383838"/><path d="M-47.182-11.625v1.575h4.365c-.3,1.89-1.995,3.45-5.01,4.26l.795,1.59c4.08-1.14,6.39-3.705,6.39-7.425ZM-41.333-.24c-1.68,0-2.685-.435-2.685-1.29s1.005-1.29,2.685-1.29,2.685.435,2.685,1.29S-39.653-.24-41.333-.24Zm0-4.125c-2.79,0-4.635,1.11-4.635,2.835,0,1.74,1.845,2.835,4.635,2.835S-36.7.21-36.7-1.53C-36.7-3.255-38.542-4.365-41.333-4.365ZM-36.847-9.3v-3.24h-1.98v7.995h1.98v-3.12h1.83V-9.3Zm8.4-1.185c1.8,0,2.955.54,2.955,1.53S-26.648-7.41-28.448-7.41c-1.815,0-2.97-.54-2.97-1.545S-30.263-10.485-28.448-10.485Zm0,4.65c2.94,0,4.995-1.215,4.995-3.12,0-1.875-2.055-3.105-4.995-3.105s-5,1.23-5,3.105C-33.443-7.05-31.4-5.835-28.448-5.835ZM-22.163-4.8h-12.51v1.59h5.22V1.305h1.98V-3.21h5.31Zm1.155,8A3.784,3.784,0,0,0-18.173-.5c0-1.365-.57-2.175-1.59-2.175a1.327,1.327,0,0,0-1.425,1.3A1.3,1.3,0,0,0-19.808-.06h.135c0,.87-.645,1.62-1.8,2.055ZM-7.193-8.43h-2.835V-10.5h2.835Zm-4.8,0h-1.665v1.575h10.08V-8.43h-1.65V-10.5h1.755v-1.56H-13.748v1.56h1.755Zm6.15,7.305c0,.66-.93.96-2.79.96s-2.775-.3-2.775-.96.915-.96,2.775-.96S-5.843-1.785-5.843-1.125Zm3.48-3.3v-1.56h-12.48v1.56h5.25v.9c-2.415.18-3.825,1.02-3.825,2.4,0,1.545,1.785,2.415,4.785,2.415s4.8-.87,4.8-2.415c0-1.365-1.395-2.205-3.78-2.385v-.915Zm8.7-6.78H3.262v-1.41h-2v1.41h-3.06V-9.66h8.13ZM.772-6.735c0-.675.615-1.035,1.5-1.035s1.5.36,1.5,1.035S3.157-5.7,2.272-5.7.772-6.06.772-6.735Zm4.89,0c0-1.47-1.395-2.475-3.39-2.475s-3.39,1-3.39,2.475,1.4,2.46,3.39,2.46S5.662-5.265,5.662-6.735ZM4.582-.18c-1.74,0-2.67-.315-2.67-.975s.93-.975,2.67-.975,2.67.3,2.67.975S6.322-.18,4.582-.18Zm0-3.435c-2.85,0-4.635.915-4.635,2.46s1.785,2.46,4.635,2.46,4.635-.93,4.635-2.46S7.432-3.615,4.582-3.615Zm6.27-5.31v-1.62H9.082V-12.51H7.1v8.745h1.98v-2.16h1.77V-7.53H9.082V-8.925ZM11.872,3.2A3.784,3.784,0,0,0,14.707-.5c0-1.365-.57-2.175-1.59-2.175a1.327,1.327,0,0,0-1.425,1.3A1.3,1.3,0,0,0,13.072-.06h.135c0,.87-.645,1.62-1.8,2.055ZM25.687-8.43H22.852V-10.5h2.835Zm-4.8,0H19.222v1.575H29.3V-8.43h-1.65V-10.5h1.755v-1.56H19.132v1.56h1.755Zm6.15,7.305c0,.66-.93.96-2.79.96s-2.775-.3-2.775-.96.915-.96,2.775-.96S27.037-1.785,27.037-1.125Zm3.48-3.3v-1.56H18.037v1.56h5.25v.9c-2.415.18-3.825,1.02-3.825,2.4,0,1.545,1.785,2.415,4.785,2.415s4.8-.87,4.8-2.415c0-1.365-1.395-2.205-3.78-2.385v-.915ZM42.892-8.37c-3.12-.375-4.575-1.9-4.575-3.51v-.4H36.292v.4c0,1.56-1.485,3.135-4.59,3.51l.735,1.545a6.642,6.642,0,0,0,4.86-2.67,6.6,6.6,0,0,0,4.875,2.67ZM32.467-1.725h7.62v3.03h1.98v-4.59h-9.6ZM38.3-5.835V-7.62h-1.98v1.785H31.087V-4.26H43.582V-5.835Zm6.45,9.03A3.784,3.784,0,0,0,47.588-.5c0-1.365-.57-2.175-1.59-2.175a1.327,1.327,0,0,0-1.425,1.3A1.3,1.3,0,0,0,45.952-.06h.135c0,.87-.645,1.62-1.8,2.055ZM-29.19,8.9v1.575h4.6c-.285,3.06-1.815,5.22-5.34,6.915l1.035,1.56c4.9-2.37,6.33-5.82,6.33-10.05Zm8.745-1.44V21.275h2V7.46Zm7.035,9.585h-1.98v4h9.57V19.475h-7.59Zm-.21-6.375c0-.84,1.11-1.29,2.955-1.29,1.86,0,2.97.45,2.97,1.29,0,.855-1.11,1.275-2.97,1.275C-12.51,11.945-13.62,11.525-13.62,10.67Zm3.93,3.915v-1.11c2.46-.21,4.035-1.26,4.035-2.805,0-1.755-1.995-2.85-5.01-2.85-3,0-4.995,1.1-4.995,2.85,0,1.545,1.56,2.58,3.99,2.805v1.11H-16.9V16.16h12.48V14.585Zm6.45,8.61A3.784,3.784,0,0,0-.4,19.5c0-1.365-.57-2.175-1.59-2.175A1.327,1.327,0,0,0-3.42,18.635,1.3,1.3,0,0,0-2.04,19.94H-1.9c0,.87-.645,1.62-1.8,2.055ZM11.745,7.475h-2V14.39h2ZM2.385,11.03A1.6,1.6,0,0,1,4.17,9.47a1.571,1.571,0,1,1,0,3.12A1.587,1.587,0,0,1,2.385,11.03Zm5.46,0c0-1.83-1.575-3.15-3.675-3.15S.465,9.2.465,11.03c0,1.845,1.59,3.165,3.705,3.165S7.845,12.875,7.845,11.03Zm-3.33,8.565v-.87h7.23V14.96H2.535v1.515H9.78v.84H2.55V21.14h9.54V19.595ZM18.4,8.54H16.41v2.01c0,2.565-1.05,5.2-3.375,6.3l1.185,1.6a6.588,6.588,0,0,0,3.195-3.975A6.291,6.291,0,0,0,20.4,18.2l1.2-1.56c-2.22-1.095-3.195-3.6-3.195-6.09Zm7.74,4.245h-2.01V7.475h-1.98V21.29h1.98V14.435h2.01Zm.84,10.41A3.784,3.784,0,0,0,29.82,19.5c0-1.365-.57-2.175-1.59-2.175A1.327,1.327,0,0,0,26.8,18.635a1.3,1.3,0,0,0,1.38,1.305h.135c0,.87-.645,1.62-1.8,2.055Zm-50.13,8.15c-3.105-.345-4.605-1.905-4.605-3.3v-.42h-2.04v.42c0,1.41-1.5,2.94-4.605,3.3l.69,1.53A6.715,6.715,0,0,0-28.77,30.3a6.66,6.66,0,0,0,4.92,2.58Zm-2.91,8.25H-31.59V38.4h5.535Zm0-2.685H-31.59V35.755h-1.965v5.37h9.45v-5.37h-1.95Zm-8.955-3.4v1.56h12.48v-1.56Zm20.28,4.6V35.23h3.945V33.64H-18.51V30.01h7.62V28.42H-20.5v6.81h3.8v2.88h-5.25v1.62H-9.45V38.11ZM5.52,27.475H3.645V37.81H5.52ZM.885,37.4H2.73v-9.69H.885v2.91H-.75v1.6H.885ZM.48,34.195A4.22,4.22,0,0,1-1.9,30.175V28.4h-1.92v1.77a4.693,4.693,0,0,1-2.61,4.365l1.08,1.5a5.091,5.091,0,0,0,2.52-2.73A4.475,4.475,0,0,0-.6,35.71Zm-2.28,5.28V36.61H-3.78v4.44H5.865V39.475ZM11.985,28.54h-2v2c0,2.625-1.05,5.31-3.39,6.39l1.23,1.59a6.649,6.649,0,0,0,3.18-3.99,6.2,6.2,0,0,0,3.09,3.75L15.27,36.7c-2.28-1.02-3.285-3.555-3.285-6.165Zm4.425-1.08v4.335H13.755v1.59H16.41V41.32h1.98V27.46Zm17.175,3.81h-7.59V29.425H33.51V27.85H24.03v4.98h9.555ZM28.71,39.79c-1.845,0-2.79-.315-2.79-1.035s.945-1.05,2.79-1.05,2.79.33,2.79,1.05S30.555,39.79,28.71,39.79Zm0-3.585c-2.985,0-4.785.915-4.785,2.55,0,1.62,1.8,2.535,4.785,2.535s4.8-.915,4.8-2.535C33.51,37.12,31.695,36.2,28.71,36.2ZM22.515,33.79v1.62h12.5V33.79Z" transform="translate(-18812.172 -19264.422)" fill="#6c6c6c"/></g></svg>