<svg xmlns="http://www.w3.org/2000/svg" width="136.041" height="121.439" viewBox="0 0 136.041 121.439"><g transform="translate(-526.026 1.518)"><g transform="translate(557.796 -1.518)"><g transform="translate(10.311)"><path d="M588.3,13.366h0A3.546,3.546,0,0,1,584.75,9.82V2.778A3.546,3.546,0,0,1,588.3-.768h0a3.546,3.546,0,0,1,3.546,3.546V9.82A3.546,3.546,0,0,1,588.3,13.366Z" transform="translate(-584.206 1.312)" fill="#fff"/><path d="M588.091,13.705A4.1,4.1,0,0,1,584,9.614V2.572a4.091,4.091,0,0,1,8.181,0V9.614A4.1,4.1,0,0,1,588.091,13.705Zm0-14.134a3.005,3.005,0,0,0-3,3V9.614a3,3,0,1,0,6,0V2.572A3,3,0,0,0,588.091-.429Z" transform="translate(-584 1.518)" fill="#1d1d1b"/></g><g transform="translate(54.009)"><path d="M648.5,13.366h0a3.546,3.546,0,0,1-3.546-3.546V2.778A3.546,3.546,0,0,1,648.5-.768h0a3.546,3.546,0,0,1,3.546,3.546V9.82A3.546,3.546,0,0,1,648.5,13.366Z" transform="translate(-644.409 1.312)" fill="#fff"/><path d="M648.294,13.705A4.1,4.1,0,0,1,644.2,9.614V2.572a4.091,4.091,0,0,1,8.181,0V9.614A4.1,4.1,0,0,1,648.294,13.705Zm0-14.134a3.005,3.005,0,0,0-3,3V9.614a3,3,0,1,0,6,0V2.572A3,3,0,0,0,648.294-.429Z" transform="translate(-644.203 1.518)" fill="#1d1d1b"/></g><g transform="translate(18.075 10.588)"><line x2="36.351" transform="translate(0 0.544)" fill="#fff"/><rect width="36.35" height="1.089" transform="translate(0)" fill="#1d1d1b"/></g><g transform="translate(25.374 10.588)"><path d="M0,0H20.663a0,0,0,0,1,0,0V3.257a4.818,4.818,0,0,1-4.818,4.818H4.818A4.818,4.818,0,0,1,0,3.257V0A0,0,0,0,1,0,0Z" transform="translate(0.545 0.544)" fill="#fff"/><path d="M622.464,22.232h-13.67a4.045,4.045,0,0,1-4.041-4.041V13.069h21.752v5.122A4.045,4.045,0,0,1,622.464,22.232Zm-16.622-8.074v4.034a2.955,2.955,0,0,0,2.952,2.952h13.67a2.955,2.955,0,0,0,2.953-2.952V14.158Z" transform="translate(-604.753 -13.069)" fill="#1d1d1b"/></g><g transform="translate(20.416 18.662)"><path d="M623.548,38.705h5.7V28.45a3.505,3.505,0,0,0-3.506-3.506H602.178a3.506,3.506,0,0,0-3.506,3.506V38.705h5.7" transform="translate(-598.128 -24.399)" fill="#fff"/><path d="M629.591,39.043h-6.248V37.954H628.5v-9.71a2.965,2.965,0,0,0-2.961-2.962H601.972a2.965,2.965,0,0,0-2.961,2.962v9.71h5.159v1.089h-6.248v-10.8a4.055,4.055,0,0,1,4.05-4.051H625.54a4.055,4.055,0,0,1,4.05,4.051Z" transform="translate(-597.922 -24.193)" fill="#1d1d1b"/></g><g transform="translate(0 5.435)"><line x2="28.802" transform="translate(0 0.544)" fill="#fff"/><rect width="28.802" height="1.089" fill="#1d1d1b"/></g><g transform="translate(43.698 5.435)"><line x2="28.802" transform="translate(0 0.544)" fill="#fff"/><rect width="28.802" height="1.089" fill="#1d1d1b"/></g></g><g transform="translate(536.635 100.326)"><path d="M8.736,0h5.726A8.736,8.736,0,0,1,23.2,8.736v1.7a0,0,0,0,1,0,0H0a0,0,0,0,1,0,0v-1.7A8.736,8.736,0,0,1,8.736,0Z" transform="translate(0 9.154)" fill="#c9ae80"/><g transform="translate(10.963)"><path d="M563.494,139.565a5.327,5.327,0,0,1-7.748,2.445,5.327,5.327,0,0,1,7.748-2.445Z" transform="translate(-555.746 -138.793)" fill="#a2c870"/></g></g><path d="M8.736,0h5.726A8.736,8.736,0,0,1,23.2,8.736v1.7a0,0,0,0,1,0,0H0a0,0,0,0,1,0,0v-1.7A8.736,8.736,0,0,1,8.736,0Z" transform="translate(583.594 109.48)" fill="#c9ae80"/><g transform="translate(585.596 100.326)"><path d="M608.1,139.565a5.327,5.327,0,0,0,7.748,2.445,5.327,5.327,0,0,0-7.748-2.445Z" transform="translate(-608.096 -138.793)" fill="#a2c870"/></g><g transform="translate(630.553 100.326)"><path d="M8.736,0h5.726A8.736,8.736,0,0,1,23.2,8.736v1.7a0,0,0,0,1,0,0H0a0,0,0,0,1,0,0v-1.7A8.736,8.736,0,0,1,8.736,0Z" transform="translate(0 9.154)" fill="#c9ae80"/><g transform="translate(10.964)"><path d="M692.886,139.565a5.328,5.328,0,0,1-7.748,2.445,5.327,5.327,0,0,1,7.748-2.445Z" transform="translate(-685.138 -138.793)" fill="#a2c870"/></g></g><rect width="24.027" height="9.278" rx="3.634" transform="translate(583.665 28.137)" fill="#d9d9d9"/><rect width="136.041" height="1.089" transform="translate(526.026 118.222)" fill="#1d1d1b"/><path d="M692,160.593H668.259V159.5h22.654v-3.555a5.8,5.8,0,0,0-5.8-5.8v-1.089A6.894,6.894,0,0,1,692,155.949Z" transform="translate(-38.994 -41.283)" fill="#1d1d1b"/><path d="M627.412,160.593H603.669V159.5h22.654v-3.555a5.8,5.8,0,0,0-5.8-5.8v-1.089a6.894,6.894,0,0,1,6.885,6.885Z" transform="translate(-21.286 -41.283)" fill="#1d1d1b"/><path d="M562.822,160.593H539.079V159.5h22.654v-3.555a5.8,5.8,0,0,0-5.8-5.8v-1.089a6.894,6.894,0,0,1,6.885,6.885Z" transform="translate(-3.579 -41.283)" fill="#1d1d1b"/><g transform="translate(546.366 98.547)"><g transform="translate(0)"><path d="M557.935,141.541a7.951,7.951,0,0,1-3.424-.861l-.463-.25.235-.471a6.031,6.031,0,0,1,8.731-2.755l.462.251-.235.47a7.179,7.179,0,0,1-3.732,3.385A5.212,5.212,0,0,1,557.935,141.541Zm-2.386-1.585a4.77,4.77,0,0,0,6.427-2.028,4.77,4.77,0,0,0-6.427,2.028Z" transform="translate(-554.048 -136.342)" fill="#1d1d1b"/></g><rect width="1.089" height="5.732" transform="translate(0.19 3.772)" fill="#1d1d1b"/></g><g transform="translate(640.13 98.547)"><g transform="translate(0)"><path d="M687.115,141.541a7.959,7.959,0,0,1-3.425-.861l-.462-.25.235-.471a6.031,6.031,0,0,1,8.73-2.755l.463.251-.235.47a7.182,7.182,0,0,1-3.733,3.385A5.214,5.214,0,0,1,687.115,141.541Zm-2.386-1.585a4.771,4.771,0,0,0,6.427-2.028,4.77,4.77,0,0,0-6.427,2.028Z" transform="translate(-683.228 -136.342)" fill="#1d1d1b"/></g><rect width="1.089" height="5.732" transform="translate(0.19 3.772)" fill="#1d1d1b"/></g><g transform="translate(585.288 98.547)"><path d="M613.213,141.541a5.215,5.215,0,0,1-1.574-.232,7.182,7.182,0,0,1-3.732-3.385l-.235-.47.463-.251a6.031,6.031,0,0,1,8.73,2.755l.235.471-.462.25A7.959,7.959,0,0,1,613.213,141.541Zm-4.041-3.613a4.77,4.77,0,0,0,6.427,2.028,4.77,4.77,0,0,0-6.427-2.028Z" transform="translate(-607.671 -136.342)" fill="#1d1d1b"/><rect width="1.089" height="5.732" transform="translate(8.15 3.772)" fill="#1d1d1b"/></g><g transform="translate(581.489 26.267)"><path d="M624.444,47.128h-18.9a3.111,3.111,0,0,1-3.107-3.108V39.869a3.111,3.111,0,0,1,3.107-3.108V37.85a2.021,2.021,0,0,0-2.019,2.019V44.02a2.021,2.021,0,0,0,2.019,2.019h18.9a2.022,2.022,0,0,0,2.019-2.019V39.869h1.089V44.02A3.112,3.112,0,0,1,624.444,47.128Z" transform="translate(-602.437 -36.761)" fill="#1d1d1b"/><path d="M618.765,45.5a2.575,2.575,0,1,1,2.575-2.575A2.578,2.578,0,0,1,618.765,45.5Zm0-4.061a1.486,1.486,0,1,0,1.486,1.486A1.488,1.488,0,0,0,618.765,41.444Z" transform="translate(-606.207 -37.746)" fill="#1d1d1b"/></g><path d="M533.883,117.8a.544.544,0,0,1-.419-.891l.787-.952a.544.544,0,1,1,.839.694l-.787.952A.543.543,0,0,1,533.883,117.8Zm3.409-4.123a.544.544,0,0,1-.419-.891l.787-.951a.544.544,0,1,1,.839.694l-.787.951A.541.541,0,0,1,537.293,113.675Zm3.41-4.122a.544.544,0,0,1-.42-.891l.787-.951a.545.545,0,0,1,.84.694l-.787.951A.545.545,0,0,1,540.7,109.553Zm3.409-4.122a.544.544,0,0,1-.419-.891l.787-.952a.545.545,0,1,1,.839.695l-.787.951A.543.543,0,0,1,544.112,105.431Zm3.409-4.122a.544.544,0,0,1-.42-.891l.787-.952a.544.544,0,1,1,.839.694l-.787.952A.543.543,0,0,1,547.521,101.309Zm3.409-4.122a.544.544,0,0,1-.42-.891l.787-.952a.544.544,0,1,1,.839.694l-.787.952A.543.543,0,0,1,550.931,97.187Zm3.41-4.123a.544.544,0,0,1-.42-.891l.786-.952a.545.545,0,0,1,.84.694l-.787.952A.543.543,0,0,1,554.341,93.064Zm3.409-4.122a.544.544,0,0,1-.419-.891l.787-.952a.544.544,0,0,1,.839.694l-.787.952A.543.543,0,0,1,557.75,88.942Zm3.409-4.122a.544.544,0,0,1-.42-.891l.787-.952a.544.544,0,1,1,.839.694l-.787.952A.543.543,0,0,1,561.159,84.82Zm3.409-4.123a.544.544,0,0,1-.42-.891l.787-.951a.545.545,0,0,1,.84.694l-.787.951A.543.543,0,0,1,564.569,80.7Zm3.41-4.122a.544.544,0,0,1-.42-.891l.787-.951a.544.544,0,1,1,.839.694l-.787.951A.544.544,0,0,1,567.979,76.575Zm3.409-4.122a.544.544,0,0,1-.419-.891l.787-.952a.544.544,0,0,1,.839.694l-.787.952A.543.543,0,0,1,571.388,72.453Zm3.409-4.122a.544.544,0,0,1-.419-.891l.787-.952a.544.544,0,1,1,.839.694l-.787.952A.543.543,0,0,1,574.8,68.331Zm3.409-4.122a.544.544,0,0,1-.42-.891l.787-.952a.545.545,0,0,1,.84.694l-.787.952A.546.546,0,0,1,578.206,64.209Zm3.41-4.123a.544.544,0,0,1-.419-.891l.787-.951a.544.544,0,1,1,.839.694l-.787.951A.542.542,0,0,1,581.616,60.086Zm3.409-4.122a.544.544,0,0,1-.42-.891l.787-.951a.544.544,0,1,1,.839.694l-.787.951A.543.543,0,0,1,585.026,55.964Zm3.409-4.122a.544.544,0,0,1-.42-.891L588.8,50a.544.544,0,1,1,.839.694l-.787.952A.543.543,0,0,1,588.435,51.842Zm3.41-4.122a.544.544,0,0,1-.42-.891l.787-.952a.545.545,0,0,1,.84.694l-.787.952A.545.545,0,0,1,591.845,47.719Z" transform="translate(-2.005 -12.939)" fill="#1d1d1b" opacity="0.31"/><path d="M682.883,117.8a.545.545,0,0,1-.42-.2l-.787-.952a.545.545,0,1,1,.84-.694l.787.952a.544.544,0,0,1-.42.891Zm-3.409-4.123a.542.542,0,0,1-.42-.2l-.787-.951a.544.544,0,1,1,.839-.694l.787.951a.543.543,0,0,1-.42.891Zm-3.409-4.122a.543.543,0,0,1-.42-.2l-.787-.951a.544.544,0,1,1,.839-.694l.787.951a.544.544,0,0,1-.42.891Zm-3.409-4.122a.543.543,0,0,1-.42-.2l-.787-.951a.545.545,0,1,1,.839-.695l.787.952a.544.544,0,0,1-.42.891Zm-3.41-4.122a.545.545,0,0,1-.42-.2l-.787-.952a.545.545,0,1,1,.84-.694l.787.952a.544.544,0,0,1-.42.891Zm-3.409-4.122a.543.543,0,0,1-.42-.2l-.787-.952a.544.544,0,1,1,.839-.694l.787.952a.544.544,0,0,1-.42.891Zm-3.409-4.123a.541.541,0,0,1-.419-.2l-.787-.952a.544.544,0,0,1,.839-.694l.787.952a.544.544,0,0,1-.42.891Zm-3.409-4.122a.543.543,0,0,1-.42-.2l-.787-.952a.544.544,0,1,1,.839-.694l.787.952a.544.544,0,0,1-.42.891Zm-3.41-4.122a.545.545,0,0,1-.419-.2l-.787-.952a.545.545,0,0,1,.84-.694l.786.952a.544.544,0,0,1-.42.891ZM652.2,80.7a.541.541,0,0,1-.42-.2l-.787-.951a.544.544,0,1,1,.839-.694l.787.951a.544.544,0,0,1-.42.891Zm-3.409-4.122a.543.543,0,0,1-.42-.2l-.787-.951a.544.544,0,1,1,.839-.694l.787.951a.544.544,0,0,1-.419.891Zm-3.409-4.122a.545.545,0,0,1-.42-.2l-.787-.952a.545.545,0,0,1,.84-.694l.787.952a.544.544,0,0,1-.419.891Zm-3.41-4.122a.544.544,0,0,1-.42-.2l-.787-.952a.544.544,0,1,1,.839-.694l.787.952a.544.544,0,0,1-.419.891Zm-3.409-4.122a.543.543,0,0,1-.419-.2l-.787-.952a.544.544,0,1,1,.839-.694l.787.952a.544.544,0,0,1-.42.891Zm-3.409-4.123a.54.54,0,0,1-.42-.2l-.787-.951a.544.544,0,1,1,.839-.694l.787.951a.544.544,0,0,1-.419.891Zm-3.409-4.122a.545.545,0,0,1-.42-.2l-.787-.951a.545.545,0,1,1,.84-.694l.787.951a.544.544,0,0,1-.42.891Zm-3.41-4.122a.544.544,0,0,1-.419-.2l-.787-.952a.544.544,0,0,1,.839-.694l.787.952a.544.544,0,0,1-.42.891Zm-3.409-4.122a.543.543,0,0,1-.419-.2l-.787-.952a.544.544,0,1,1,.839-.694l.787.952a.544.544,0,0,1-.42.891Z" transform="translate(-26.748 -12.939)" fill="#1d1d1b" opacity="0.31"/></g></svg>