<svg xmlns="http://www.w3.org/2000/svg" width="233.876" height="87.462" viewBox="0 0 233.876 87.462"><g transform="translate(-632.063 -2067.138)"><g transform="translate(632.593 2055.54)"><path d="M7.313,0h8.557a7.313,7.313,0,0,1,7.313,7.313v3.121a0,0,0,0,1,0,0H0a0,0,0,0,1,0,0V7.313A7.313,7.313,0,0,1,7.313,0Z" transform="translate(91.996 64.651)" fill="#c9ae80"/><path d="M7.314,0h8.557a7.313,7.313,0,0,1,7.313,7.313v3.121a0,0,0,0,1,0,0H0a0,0,0,0,1,0,0V7.314A7.314,7.314,0,0,1,7.314,0Z" transform="translate(57.797 64.651)" fill="#c9ae80"/><path d="M7.314,0h8.557a7.313,7.313,0,0,1,7.313,7.313v3.121a0,0,0,0,1,0,0H0a0,0,0,0,1,0,0V7.314A7.314,7.314,0,0,1,7.314,0Z" transform="translate(32.527 64.651)" fill="#c9ae80"/><g transform="translate(179.478 12.248)"><path d="M337.582,22.519l-1.931-.573a2.5,2.5,0,0,1-1.79-2.4v-.074a2.5,2.5,0,0,0-2.5-2.5H316.87a2.5,2.5,0,0,0-2.5,2.5v.074a2.5,2.5,0,0,1-1.79,2.4l-1.931.573L298.97,25.981a2.5,2.5,0,0,0-1.789,2.4v72.26a2.5,2.5,0,0,0,2.5,2.5h48.867a2.5,2.5,0,0,0,2.5-2.5V28.378a2.5,2.5,0,0,0-1.789-2.4Z" transform="translate(-297.181 -16.976)" fill="#82abdb"/></g><path d="M158.757,139.822c-2.753,0-4.993-3.288-4.993-7.33V101.364c0-3.325-1.842-6.029-4.107-6.029s-4.107,2.7-4.107,6.029v23.844c0,4.04-2.239,7.329-4.992,7.329s-4.992-3.288-4.992-7.329v-10.36c0-3.324-1.843-6.029-4.107-6.029l-105.915,0v-1.3l105.915,0c2.752,0,4.992,3.288,4.992,7.329v10.36c0,3.324,1.842,6.029,4.107,6.029s4.107-2.705,4.107-6.029V101.364c0-4.041,2.24-7.329,4.992-7.329s4.992,3.288,4.992,7.329v31.128c0,3.325,1.843,6.03,4.107,6.03s4.107-2.705,4.107-6.03V75.239c0-4.041,2.239-7.329,4.992-7.329s4.992,3.288,4.992,7.329v26.339c0,3.325,1.842,6.029,4.107,6.029h15.131v1.3H176.955c-2.753,0-4.992-3.287-4.992-7.329V75.239c0-3.324-1.843-6.029-4.107-6.029s-4.107,2.705-4.107,6.029v57.253C163.749,136.534,161.509,139.822,158.757,139.822Z" transform="translate(-3.481 -45.623)" fill="#1d1d1b"/><g transform="translate(-0.53 25.392)"><rect width="1.3" height="28.173" transform="translate(26.554 29.719)" fill="#1d1d1b"/><path d="M30.421,81.718A2.883,2.883,0,1,1,33.3,78.835,2.886,2.886,0,0,1,30.421,81.718Zm0-4.466A1.583,1.583,0,1,0,32,78.835,1.585,1.585,0,0,0,30.421,77.252Z" transform="translate(-3.217 -51.349)" fill="#1d1d1b"/><rect width="1.3" height="19.412" transform="translate(26.554)" fill="#82abdb"/><g transform="translate(0 2.418)"><rect width="25.327" height="1.3" transform="translate(35.581 17.909) rotate(-45)" fill="#82abdb"/><rect width="1.3" height="25.327" transform="translate(0 0.919) rotate(-45)" fill="#82abdb"/></g></g><rect width="1.3" height="14.086" transform="translate(48.003 69.863)" fill="#1d1d1b"/><path d="M74.561,135.959a2.883,2.883,0,1,1,2.883-2.883A2.886,2.886,0,0,1,74.561,135.959Zm0-4.467a1.584,1.584,0,1,0,1.583,1.584A1.586,1.586,0,0,0,74.561,131.492Z" transform="translate(-25.577 -53.937)" fill="#1d1d1b"/><rect width="1.3" height="12.23" transform="translate(48.003 84.244)" fill="#82abdb"/><g transform="translate(34.072 82.918)"><rect width="15.957" height="1.3" transform="translate(0 11.284) rotate(-45)" fill="#82abdb"/><rect width="1.3" height="15.957" transform="translate(22.418 0.919) rotate(-45)" fill="#82abdb"/></g><rect width="1.3" height="14.086" transform="translate(84.319 69.863)" fill="#1d1d1b"/><path d="M130.52,135.959a2.883,2.883,0,1,1,2.884-2.883A2.886,2.886,0,0,1,130.52,135.959Zm0-4.467a1.584,1.584,0,1,0,1.584,1.584A1.586,1.586,0,0,0,130.52,131.492Z" transform="translate(-45.398 -53.937)" fill="#1d1d1b"/><rect width="1.3" height="12.23" transform="translate(84.319 84.244)" fill="#82abdb"/><g transform="translate(68.925 82.918)"><rect width="15.957" height="1.3" transform="translate(0 11.284) rotate(-45)" fill="#82abdb"/><rect width="1.3" height="15.957" transform="translate(22.418 0.919) rotate(-44.999)" fill="#82abdb"/></g><g transform="translate(87.974 25.392)"><rect width="1.3" height="28.173" transform="translate(26.555 29.719)" fill="#1d1d1b"/><path d="M176.93,81.718a2.883,2.883,0,1,1,2.883-2.883A2.886,2.886,0,0,1,176.93,81.718Zm0-4.466a1.583,1.583,0,1,0,1.583,1.583A1.585,1.585,0,0,0,176.93,77.252Z" transform="translate(-149.725 -51.349)" fill="#1d1d1b"/><rect width="1.3" height="19.412" transform="translate(26.555)" fill="#82abdb"/><g transform="translate(0 2.418)"><rect width="25.327" height="1.3" transform="translate(35.581 17.909) rotate(-45)" fill="#82abdb"/><rect width="1.3" height="25.327" transform="translate(0 0.919) rotate(-45)" fill="#82abdb"/></g></g><path d="M168.449,113.311H144.616v-1.3h22.533v-3.447a5.694,5.694,0,0,0-5.687-5.688v-1.3a7,7,0,0,1,6.987,6.987Z" transform="translate(-53.421 -38.395)" fill="#1d1d1b"/><path d="M114.378,113.311H90.544v-1.3h22.534v-3.447a5.694,5.694,0,0,0-5.687-5.688v-1.3a7,7,0,0,1,6.987,6.987Z" transform="translate(-33.52 -38.395)" fill="#1d1d1b"/><path d="M60.307,113.311H36.473v-1.3H59.007v-3.447a5.694,5.694,0,0,0-5.687-5.688v-1.3a7,7,0,0,1,6.987,6.987Z" transform="translate(-4.94 -38.395)" fill="#1d1d1b"/><g transform="translate(176.112 11.598)"><path d="M345.315,101.748H296.448A3.153,3.153,0,0,1,293.3,98.6V26.338a3.171,3.171,0,0,1,2.255-3.021l13.609-4.034a1.861,1.861,0,0,0,1.325-1.774,3.17,3.17,0,0,1,3.151-3.223h14.49a3.153,3.153,0,0,1,3.15,3.15,1.886,1.886,0,0,0,1.325,1.848l1.931.572-.369,1.247-1.931-.573a3.17,3.17,0,0,1-2.256-3.021,1.87,1.87,0,0,0-1.85-1.924h-14.49a1.853,1.853,0,0,0-1.851,1.85,3.194,3.194,0,0,1-2.255,3.094l-13.608,4.034a1.861,1.861,0,0,0-1.325,1.774V98.6a1.853,1.853,0,0,0,1.851,1.85h48.867Z" transform="translate(-293.297 -14.286)" fill="#1d1d1b"/><g transform="translate(5.006 11.444)"><path d="M321.652,29.885c-7.458,0-15.054-.37-22.578-1.1l.126-1.294c7.482.724,15.037,1.093,22.453,1.093,5.506,0,11.108-.2,16.652-.6l.094,1.3C332.823,29.681,327.189,29.885,321.652,29.885Z" transform="translate(-299.074 -27.493)" fill="#1d1d1b"/></g></g></g></g></svg>