<svg xmlns="http://www.w3.org/2000/svg" width="148.913" height="121.719" viewBox="0 0 148.913 121.719"><g transform="translate(2470.178 -269.486)"><path d="M-2331.748,348.709a1.658,1.658,0,0,1-1.658,1.658,1.657,1.657,0,0,1-1.657-1.658,1.657,1.657,0,0,1,1.657-1.657A1.657,1.657,0,0,1-2331.748,348.709Z" transform="translate(-29.79 -17.102)" fill="#a2c870"/><path d="M-2308.958,348.709a1.658,1.658,0,0,1-1.658,1.658,1.658,1.658,0,0,1-1.657-1.658,1.657,1.657,0,0,1,1.657-1.657A1.657,1.657,0,0,1-2308.958,348.709Z" transform="translate(-34.814 -17.102)" fill="#a2c870"/><circle cx="1.657" cy="1.657" r="1.657" transform="translate(-2357.03 329.246)" fill="#a2c870"/><g transform="translate(-2365.943 329.246)"><path d="M-2313.153,347.235a2.619,2.619,0,0,0-2.486,1.813,1.7,1.7,0,0,0-.568-.1,1.663,1.663,0,0,0-.265.027,2.329,2.329,0,0,0-2.076-1.281,2.326,2.326,0,0,0-1.762.815,5.111,5.111,0,0,0-3.375-1.27,5.122,5.122,0,0,0-2.062.433,5.123,5.123,0,0,0-3.647-1.52,5.132,5.132,0,0,0-4.474,2.618,2.3,2.3,0,0,0-.662-.107,2.338,2.338,0,0,0-1.933,1.022h25.918A2.62,2.62,0,0,0-2313.153,347.235Z" transform="translate(2336.462 -346.148)" fill="#a2c870"/></g><g transform="translate(-2470.178 269.486)"><g transform="translate(0 13.503)"><rect width="147.744" height="90.433" rx="8.553" transform="translate(0.584 0.585)" fill="#fff"/><path d="M-2328.518,378.41h-134.408a7.261,7.261,0,0,1-7.252-7.253v-77.1a7.26,7.26,0,0,1,7.252-7.252h134.408a7.261,7.261,0,0,1,7.253,7.252v77.1A7.261,7.261,0,0,1-2328.518,378.41Zm-134.408-90.433a6.09,6.09,0,0,0-6.083,6.083v77.1a6.09,6.09,0,0,0,6.083,6.083h134.408a6.09,6.09,0,0,0,6.083-6.083v-77.1a6.09,6.09,0,0,0-6.083-6.083Z" transform="translate(2470.178 -286.808)" fill="#1d1d1b"/></g><g transform="translate(54.355 103.936)"><rect width="39.033" height="9.355" transform="translate(0.585 0.584)" fill="#fff"/><path d="M-2360.247,413.343h-40.2V402.819h40.2Zm-39.033-1.169h37.864v-8.185h-37.864Z" transform="translate(2400.449 -402.819)" fill="#1d1d1b"/></g><g transform="translate(28.253 113.29)"><path d="M-2345.576,422.828h-83.979a3.64,3.64,0,0,1-3.629-3.629h0a3.64,3.64,0,0,1,3.629-3.629h83.979a3.64,3.64,0,0,1,3.629,3.629h0A3.64,3.64,0,0,1-2345.576,422.828Z" transform="translate(2433.768 -414.985)" fill="#fff"/><path d="M-2345.741,423.247h-83.979a4.218,4.218,0,0,1-4.213-4.214,4.218,4.218,0,0,1,4.213-4.214h83.979a4.218,4.218,0,0,1,4.213,4.214A4.218,4.218,0,0,1-2345.741,423.247Zm-83.979-7.259a3.047,3.047,0,0,0-3.044,3.045,3.047,3.047,0,0,0,3.044,3.045h83.979a3.047,3.047,0,0,0,3.044-3.045,3.047,3.047,0,0,0-3.044-3.045Z" transform="translate(2433.934 -414.819)" fill="#1d1d1b"/></g><g transform="translate(0.639 17.856)"><g transform="translate(0 5.37)"><line x2="147.634" transform="translate(0 0.585)" fill="#fff"/><rect width="147.634" height="1.169" fill="#1d1d1b"/></g><g transform="translate(123.901)"><path d="M-2306.341,294.8a1.661,1.661,0,0,1-1.661,1.66,1.661,1.661,0,0,1-1.661-1.66,1.661,1.661,0,0,1,1.661-1.661A1.661,1.661,0,0,1-2306.341,294.8Z" transform="translate(2310.248 -292.557)" fill="#fff"/><path d="M-2308.167,296.883a2.248,2.248,0,0,1-2.246-2.245,2.249,2.249,0,0,1,2.246-2.246,2.248,2.248,0,0,1,2.246,2.246A2.248,2.248,0,0,1-2308.167,296.883Zm0-3.322a1.078,1.078,0,0,0-1.077,1.077,1.078,1.078,0,0,0,1.077,1.076,1.077,1.077,0,0,0,1.077-1.076A1.077,1.077,0,0,0-2308.167,293.561Z" transform="translate(2310.413 -292.392)" fill="#1d1d1b"/></g><g transform="translate(129.853)"><path d="M-2298.706,294.8a1.661,1.661,0,0,1-1.661,1.66,1.661,1.661,0,0,1-1.661-1.66,1.661,1.661,0,0,1,1.661-1.661A1.661,1.661,0,0,1-2298.706,294.8Z" transform="translate(2302.612 -292.557)" fill="#fff"/><path d="M-2300.532,296.883a2.248,2.248,0,0,1-2.246-2.245,2.249,2.249,0,0,1,2.246-2.246,2.248,2.248,0,0,1,2.245,2.246A2.247,2.247,0,0,1-2300.532,296.883Zm0-3.322a1.078,1.078,0,0,0-1.077,1.077,1.078,1.078,0,0,0,1.077,1.076,1.077,1.077,0,0,0,1.076-1.076A1.077,1.077,0,0,0-2300.532,293.561Z" transform="translate(2302.778 -292.392)" fill="#1d1d1b"/></g><g transform="translate(135.805)"><path d="M-2291.07,294.8a1.661,1.661,0,0,1-1.661,1.66,1.661,1.661,0,0,1-1.661-1.66,1.661,1.661,0,0,1,1.661-1.661A1.661,1.661,0,0,1-2291.07,294.8Z" transform="translate(2294.977 -292.557)" fill="#fff"/><path d="M-2292.9,296.883a2.248,2.248,0,0,1-2.245-2.245,2.248,2.248,0,0,1,2.245-2.246,2.248,2.248,0,0,1,2.246,2.246A2.248,2.248,0,0,1-2292.9,296.883Zm0-3.322a1.077,1.077,0,0,0-1.076,1.077,1.077,1.077,0,0,0,1.076,1.076,1.077,1.077,0,0,0,1.076-1.076A1.077,1.077,0,0,0-2292.9,293.561Z" transform="translate(2295.142 -292.392)" fill="#1d1d1b"/></g></g><g transform="translate(60.227)"><rect width="27.288" height="10.538" rx="3.735" transform="translate(0.585 0.585)" fill="#fff"/><path d="M-2367.954,281.194h-21.465a3.5,3.5,0,0,1-3.5-3.5v-4.715a3.5,3.5,0,0,1,3.5-3.5h21.465a3.5,3.5,0,0,1,3.5,3.5V277.7A3.5,3.5,0,0,1-2367.954,281.194Zm-21.465-10.538a2.33,2.33,0,0,0-2.327,2.327V277.7a2.33,2.33,0,0,0,2.327,2.327h21.465a2.329,2.329,0,0,0,2.326-2.327v-4.715a2.329,2.329,0,0,0-2.326-2.327Z" transform="translate(2392.916 -269.486)" fill="#1d1d1b"/></g><g transform="translate(71.566 2.963)"><path d="M-2373.01,276.343a2.305,2.305,0,0,1-2.306,2.306,2.306,2.306,0,0,1-2.306-2.306,2.307,2.307,0,0,1,2.306-2.306A2.306,2.306,0,0,1-2373.01,276.343Z" transform="translate(2378.206 -273.452)" fill="#fff"/><path d="M-2375.481,279.068a2.894,2.894,0,0,1-2.89-2.891,2.894,2.894,0,0,1,2.89-2.89,2.894,2.894,0,0,1,2.891,2.89A2.893,2.893,0,0,1-2375.481,279.068Zm0-4.612a1.724,1.724,0,0,0-1.721,1.721,1.723,1.723,0,0,0,1.721,1.721,1.723,1.723,0,0,0,1.721-1.721A1.723,1.723,0,0,0-2375.481,274.456Z" transform="translate(2378.371 -273.287)" fill="#1d1d1b"/></g><g transform="translate(69.499 10.538)"><rect width="8.746" height="2.965" transform="translate(0.584 0.584)" fill="#fff"/><path d="M-2371.107,287.139h-9.915V283h9.915Zm-8.745-1.169h7.576v-1.8h-7.576Z" transform="translate(2381.022 -283.005)" fill="#1d1d1b"/></g><path d="M-2309.781,384.506h-28.532a3.383,3.383,0,0,1-3.349-3.864l3.765-26.2h27.763l3.7,26.212A3.383,3.383,0,0,1-2309.781,384.506Z" transform="translate(2441.851 -288.216)" fill="#c9ae80"/><rect width="30.249" height="5.683" rx="2.391" transform="translate(102.675 64.251)" fill="#c9ae80"/><path d="M-2451.639,372.286h-1.1V313.425a3.9,3.9,0,0,1,3.89-3.89h67.354v1.1h-67.354a2.788,2.788,0,0,0-2.785,2.785Z" transform="translate(2466.334 -278.316)" fill="#1d1d1b"/><g transform="translate(18.159 40.859)"><g opacity="0.2"><rect width="40.061" height="0.442" transform="translate(0.221 3.974)" fill="#1d1d1b"/><rect width="40.061" height="0.442" transform="translate(0.221 7.401)" fill="#1d1d1b"/><rect width="40.061" height="0.442" transform="translate(0.221 10.828)" fill="#1d1d1b"/><rect width="40.061" height="0.442" transform="translate(0.221 14.255)" fill="#1d1d1b"/><rect width="40.061" height="0.442" transform="translate(0.221 17.682)" fill="#1d1d1b"/><rect width="40.061" height="0.442" transform="translate(0.221 21.109)" fill="#1d1d1b"/><rect width="0.442" height="21.33" fill="#1d1d1b"/><rect width="0.442" height="21.33" transform="translate(3.642)" fill="#1d1d1b"/><rect width="0.442" height="21.33" transform="translate(7.284)" fill="#1d1d1b"/><rect width="0.442" height="21.33" transform="translate(10.925)" fill="#1d1d1b"/><rect width="0.442" height="21.33" transform="translate(14.568)" fill="#1d1d1b"/><rect width="0.442" height="21.33" transform="translate(18.21)" fill="#1d1d1b"/><rect width="0.442" height="21.33" transform="translate(21.851)" fill="#1d1d1b"/><rect width="0.442" height="21.33" transform="translate(25.493)" fill="#1d1d1b"/><rect width="0.442" height="21.33" transform="translate(29.135)" fill="#1d1d1b"/><rect width="0.442" height="21.33" transform="translate(32.777)" fill="#1d1d1b"/><rect width="0.442" height="21.33" transform="translate(36.419)" fill="#1d1d1b"/><rect width="0.442" height="21.33" transform="translate(40.061)" fill="#1d1d1b"/></g><g transform="translate(40.282)" opacity="0.2"><rect width="25.494" height="0.442" transform="translate(0 3.974)" fill="#1d1d1b"/><rect width="25.494" height="0.442" transform="translate(0 7.401)" fill="#1d1d1b"/><rect width="25.494" height="0.442" transform="translate(0 10.828)" fill="#1d1d1b"/><rect width="25.494" height="0.442" transform="translate(0 14.255)" fill="#1d1d1b"/><rect width="25.494" height="0.442" transform="translate(0 17.682)" fill="#1d1d1b"/><rect width="25.494" height="0.442" transform="translate(0 21.109)" fill="#1d1d1b"/><g transform="translate(3.421)"><rect width="0.442" height="21.33" fill="#1d1d1b"/><rect width="0.442" height="21.33" transform="translate(3.642)" fill="#1d1d1b"/><rect width="0.442" height="21.33" transform="translate(7.284)" fill="#1d1d1b"/><rect width="0.442" height="21.33" transform="translate(10.925)" fill="#1d1d1b"/><rect width="0.442" height="21.33" transform="translate(14.567)" fill="#1d1d1b"/><rect width="0.442" height="21.33" transform="translate(18.209)" fill="#1d1d1b"/><rect width="0.442" height="21.33" transform="translate(21.851)" fill="#1d1d1b"/></g></g><g transform="translate(25.493 29.96)" opacity="0.2"><rect width="25.494" height="0.442" transform="translate(14.789 3.974)" fill="#1d1d1b"/><rect width="25.494" height="0.442" transform="translate(14.789 7.401)" fill="#1d1d1b"/><rect width="25.494" height="0.442" transform="translate(14.789 10.828)" fill="#1d1d1b"/><rect width="25.494" height="0.442" transform="translate(14.789 14.255)" fill="#1d1d1b"/><rect width="25.494" height="0.442" transform="translate(14.789 17.682)" fill="#1d1d1b"/><rect width="25.494" height="0.442" transform="translate(14.789 21.109)" fill="#1d1d1b"/><rect width="0.442" height="21.33" fill="#1d1d1b"/><rect width="0.442" height="21.33" transform="translate(3.642)" fill="#1d1d1b"/><rect width="0.442" height="21.33" transform="translate(7.284)" fill="#1d1d1b"/><rect width="0.442" height="21.33" transform="translate(10.926)" fill="#1d1d1b"/><rect width="0.442" height="21.33" transform="translate(14.568)" fill="#1d1d1b"/><rect width="0.442" height="21.33" transform="translate(18.21)" fill="#1d1d1b"/><rect width="0.442" height="21.33" transform="translate(21.852)" fill="#1d1d1b"/><rect width="0.442" height="21.33" transform="translate(25.494)" fill="#1d1d1b"/><rect width="0.442" height="21.33" transform="translate(29.135)" fill="#1d1d1b"/><rect width="0.442" height="21.33" transform="translate(32.777)" fill="#1d1d1b"/><rect width="0.442" height="21.33" transform="translate(36.419)" fill="#1d1d1b"/><rect width="0.442" height="21.33" transform="translate(40.061)" fill="#1d1d1b"/></g><g transform="translate(0 29.96)" opacity="0.2"><rect width="40.061" height="0.442" transform="translate(0.221 3.974)" fill="#1d1d1b"/><rect width="40.061" height="0.442" transform="translate(0.221 7.401)" fill="#1d1d1b"/><rect width="40.061" height="0.442" transform="translate(0.221 10.828)" fill="#1d1d1b"/><rect width="40.061" height="0.442" transform="translate(0.221 14.255)" fill="#1d1d1b"/><rect width="40.061" height="0.442" transform="translate(0.221 17.682)" fill="#1d1d1b"/><rect width="40.061" height="0.442" transform="translate(0.221 21.109)" fill="#1d1d1b"/><rect width="0.442" height="21.33" fill="#1d1d1b"/><rect width="0.442" height="21.33" transform="translate(3.642)" fill="#1d1d1b"/><rect width="0.442" height="21.33" transform="translate(7.284)" fill="#1d1d1b"/><rect width="0.442" height="21.33" transform="translate(10.925)" fill="#1d1d1b"/><rect width="0.442" height="21.33" transform="translate(14.568)" fill="#1d1d1b"/><rect width="0.442" height="21.33" transform="translate(18.21)" fill="#1d1d1b"/><rect width="0.442" height="21.33" transform="translate(21.851)" fill="#1d1d1b"/><path d="M-2413.9,387.7" transform="translate(2439.61 -366.369)" fill="none" stroke="#1d1d1b" stroke-miterlimit="10" stroke-width="0.567"/><path d="M-2409.224,387.7" transform="translate(2438.58 -366.369)" fill="none" stroke="#1d1d1b" stroke-miterlimit="10" stroke-width="0.567"/><path d="M-2404.552,387.7" transform="translate(2437.55 -366.369)" fill="none" stroke="#1d1d1b" stroke-miterlimit="10" stroke-width="0.567"/><path d="M-2399.88,387.7" transform="translate(2436.52 -366.369)" fill="none" stroke="#1d1d1b" stroke-miterlimit="10" stroke-width="0.567"/><path d="M-2395.208,387.7" transform="translate(2435.49 -366.369)" fill="none" stroke="#1d1d1b" stroke-miterlimit="10" stroke-width="0.567"/></g></g><path d="M-2424.121,379.433l-5.743-10.492-5.478,6.67-5.628-3.427-5.414,6.593-.6-.495,5.843-7.116,5.628,3.427,5.78-7.038,5.513,10.071,5.566-13.556,6,7.3,5.194,3.166,5.75-12.886,5.812,9.487,10.924-6.652.406.666-11.589,7.056-5.445-8.888-5.508,12.344-6.1-3.747-5.214-6.346Z" transform="translate(2465.065 -289.807)" fill="#82abdb"/><path d="M-2407.115,380.108l-6.068-4.353-5.307-6.909-5.663,7.966-5.574-9.011-5.6,10.942-5.816-8.06-5.34,2.355-.314-.713,5.917-2.609,5.44,7.539,5.653-11.038,5.683,9.187,5.594-7.869,5.914,7.7,5.224,3.729,5.563-10.16,5.82,1.466,11.156-3.162.212.75-11.356,3.219-5.437-1.37Z" transform="translate(2465.024 -290.813)" fill="#ca4d36"/><rect width="20.03" height="0.78" transform="translate(18.38 36.973)" fill="#82abdb"/><rect width="3.15" height="0.78" transform="translate(40.231 36.973)" fill="#82abdb"/><rect width="20.03" height="0.78" transform="translate(18.38 65.963)" fill="#82abdb"/><rect width="3.15" height="0.78" transform="translate(40.231 65.963)" fill="#82abdb"/><rect width="20.03" height="0.78" transform="translate(18.38 68.217)" fill="#ca4d36"/><rect width="3.15" height="0.78" transform="translate(40.231 68.217)" fill="#ca4d36"/><rect width="1.169" height="5.113" transform="translate(124.606 72.043)" fill="#1d1d1b"/><g transform="translate(102.481 58.088)"><path d="M-2336.626,348.244l-.124-.687a2.25,2.25,0,0,1-.04-.407,2.244,2.244,0,0,1,2.242-2.242,2.231,2.231,0,0,1,1.5.582l.509.459-.533.43a4.551,4.551,0,0,0-1.118,1.314l-.229.405-.447-.133a1.548,1.548,0,0,0-1.1.034Zm1.263-1.529a2.591,2.591,0,0,1,.383.03,5.763,5.763,0,0,1,.52-.663,1.084,1.084,0,0,0-1.071.639C-2335.475,346.717-2335.419,346.715-2335.363,346.715Z" transform="translate(2338.288 -344.203)" fill="#1d1d1b"/><path d="M-2311.089,348.438l-.564-.2a1.083,1.083,0,0,0-.546-.051l-.419.066-.192-.377a1.772,1.772,0,0,0-.781-.757l-.455-.233.171-.483a2.244,2.244,0,0,1,2.108-1.5,2.225,2.225,0,0,1,1.905,1.07l.3.491-.487.309a2.07,2.07,0,0,0-.856,1.092Zm-.89-1.439c.058,0,.117.005.176.012a3.224,3.224,0,0,1,.581-.782,1.1,1.1,0,0,0-1.317.182A2.924,2.924,0,0,1-2311.979,347Z" transform="translate(2333.274 -344.203)" fill="#1d1d1b"/><path d="M-2324.481,346.806l-.283-.285a4.548,4.548,0,0,0-1.218-.856l-.687-.343.513-.571a2.241,2.241,0,0,1,1.663-.747,2.233,2.233,0,0,1,2.128,1.56l.215.67-.7.089a4.563,4.563,0,0,0-1.265.322Zm-.061-1.632c.112.083.221.168.324.257.1-.033.2-.062.3-.09A1.066,1.066,0,0,0-2324.542,345.175Z" transform="translate(2336.057 -344.004)" fill="#1d1d1b"/><path d="M-2305,349.72l-1.1-.4a2.051,2.051,0,0,0,.125-.706,2.046,2.046,0,0,0-2.044-2.043,1.979,1.979,0,0,0-1.074.319l-.628-.986a3.171,3.171,0,0,1,1.7-.5,3.216,3.216,0,0,1,3.213,3.212A3.208,3.208,0,0,1-2305,349.72Z" transform="translate(2332.32 -344.311)" fill="#1d1d1b"/><path d="M-2337.542,350.205h-1.169a2.935,2.935,0,0,1,1.909-2.736l.408,1.1A1.759,1.759,0,0,0-2337.542,350.205Z" transform="translate(2338.712 -344.768)" fill="#1d1d1b"/><path d="M-2332.23,346.182l-.735-.91a5.655,5.655,0,0,1,6.116-.652l-.521,1.047A4.471,4.471,0,0,0-2332.23,346.182Z" transform="translate(2337.445 -344.005)" fill="#1d1d1b"/><path d="M-2317.815,348.08l-.442-.387a4.552,4.552,0,0,0-2.99-1.126,2.712,2.712,0,0,0-.393.039l-.169.023-.147-1.16.15-.021a3.881,3.881,0,0,1,.559-.051,5.714,5.714,0,0,1,3.341,1.082,2.84,2.84,0,0,1,3.1-.293l-.533,1.041a1.657,1.657,0,0,0-2.1.409Z" transform="translate(2335.018 -344.311)" fill="#1d1d1b"/></g><path d="M-2340.47,384.818a3.967,3.967,0,0,1-3-1.37,3.962,3.962,0,0,1-.928-3.162l3.249-22.619,1.157.166-3.249,22.619a2.8,2.8,0,0,0,.656,2.231,2.8,2.8,0,0,0,2.115.966Z" transform="translate(2442.455 -288.928)" fill="#1d1d1b"/><path d="M-2302.549,357.774" transform="translate(2433.219 -288.952)" fill="none" stroke="#1d1d1b" stroke-miterlimit="10" stroke-width="1.5"/><path d="M-2312.235,356.749h-26.521a2.451,2.451,0,0,1-2.448-2.448v-1.956a2.451,2.451,0,0,1,2.448-2.448h26.521a2.451,2.451,0,0,1,2.448,2.448V354.3A2.451,2.451,0,0,1-2312.235,356.749Zm-26.521-5.684a1.281,1.281,0,0,0-1.279,1.279V354.3a1.281,1.281,0,0,0,1.279,1.279h26.521a1.281,1.281,0,0,0,1.279-1.279v-1.956a1.281,1.281,0,0,0-1.279-1.279Z" transform="translate(2441.742 -287.215)" fill="#1d1d1b"/><rect width="5.113" height="1.169" transform="translate(123.489 73.16)" fill="#1d1d1b"/><rect width="5.113" height="1.169" transform="translate(123.489 74.87)" fill="#1d1d1b"/><path d="M-2327.768,333.812l-4.485-4.593H-2346.8a4.68,4.68,0,0,1-4.674-4.674V315.6a4.68,4.68,0,0,1,4.674-4.675h38.083a4.68,4.68,0,0,1,4.674,4.675v8.947a4.68,4.68,0,0,1-4.674,4.674h-14.571Zm-19.028-21.72a3.509,3.509,0,0,0-3.5,3.506v8.947a3.509,3.509,0,0,0,3.5,3.5h15.036l3.992,4.088,3.991-4.088h15.064a3.509,3.509,0,0,0,3.5-3.5V315.6a3.509,3.509,0,0,0-3.5-3.506Z" transform="translate(2444.006 -278.622)" fill="#1d1d1b"/><text transform="translate(97.597 43.084)" fill="#1d1d1b" font-size="7" font-family="SegoeUI, Segoe UI" opacity="0.2"><tspan x="0" y="0">0000.00kg</tspan></text><path d="M-2424.121,341l-5.743-10.492-5.478,6.67-5.628-3.427-5.414,6.592-.6-.495,5.843-7.115,5.628,3.427,5.78-7.038,5.513,10.071,5.566-13.556,6,7.3,5.194,3.166,5.75-12.886,5.812,9.488,10.924-6.652.406.666-11.589,7.056-5.445-8.889-5.508,12.344-6.1-3.747-5.214-6.346Z" transform="translate(2465.065 -281.333)" fill="#82abdb"/></g></g></svg>