<svg xmlns="http://www.w3.org/2000/svg" width="169.177" height="106.199" viewBox="0 0 169.177 106.199"><g transform="translate(0 -0.841)"><g transform="translate(63.514 66.26)"><g transform="translate(65.926 9.906)"><path d="M177.165,102.792a6.539,6.539,0,0,0,.671-4.243,5.521,5.521,0,0,0-4.18,6.722A6.543,6.543,0,0,0,177.165,102.792Z" transform="translate(-169.197 -98.549)" fill="#a2c870"/><path d="M169.307,105.161a4.706,4.706,0,0,1-1.405-2.751,3.971,3.971,0,0,1,4.358,3.663A4.707,4.707,0,0,1,169.307,105.161Z" transform="translate(-167.902 -99.433)" fill="#a2c870"/></g><g transform="translate(65.926 4.464)"><path d="M177.165,95.734a6.542,6.542,0,0,0,.671-4.244,5.522,5.522,0,0,0-4.18,6.722A6.545,6.545,0,0,0,177.165,95.734Z" transform="translate(-169.197 -91.49)" fill="#a2c870"/><path d="M169.307,98.1A4.707,4.707,0,0,1,167.9,95.35a3.971,3.971,0,0,1,4.358,3.663A4.707,4.707,0,0,1,169.307,98.1Z" transform="translate(-167.902 -92.374)" fill="#a2c870"/></g><g transform="translate(62.715 20.825)"><path d="M6.422,0H8.739a6.422,6.422,0,0,1,6.422,6.422v.4a0,0,0,0,1,0,0H0a0,0,0,0,1,0,0v-.4A6.422,6.422,0,0,1,6.422,0Z" fill="#c9ae80"/></g><g transform="translate(35.113 9.906)"><path d="M137.2,102.792a6.545,6.545,0,0,0,.671-4.243,5.522,5.522,0,0,0-4.181,6.722A6.547,6.547,0,0,0,137.2,102.792Z" transform="translate(-129.229 -98.549)" fill="#a2c870"/><path d="M129.339,105.161a4.706,4.706,0,0,1-1.405-2.751,3.971,3.971,0,0,1,4.358,3.663A4.707,4.707,0,0,1,129.339,105.161Z" transform="translate(-127.934 -99.433)" fill="#a2c870"/></g><g transform="translate(35.113 1.355)"><path d="M137.2,91.7a6.545,6.545,0,0,0,.671-4.243,5.522,5.522,0,0,0-4.181,6.722A6.547,6.547,0,0,0,137.2,91.7Z" transform="translate(-129.229 -87.457)" fill="#a2c870"/><path d="M129.339,94.069a4.706,4.706,0,0,1-1.405-2.751,3.971,3.971,0,0,1,4.358,3.663A4.707,4.707,0,0,1,129.339,94.069Z" transform="translate(-127.934 -88.341)" fill="#a2c870"/></g><g transform="translate(31.903 20.825)"><path d="M6.422,0H8.739a6.422,6.422,0,0,1,6.422,6.422v.4a0,0,0,0,1,0,0H0a0,0,0,0,1,0,0v-.4A6.422,6.422,0,0,1,6.422,0Z" fill="#c9ae80"/></g><g transform="translate(4.301 9.906)"><path d="M97.229,102.792a6.545,6.545,0,0,0,.671-4.243,5.522,5.522,0,0,0-4.181,6.722A6.547,6.547,0,0,0,97.229,102.792Z" transform="translate(-89.261 -98.549)" fill="#a2c870"/><path d="M89.371,105.161a4.706,4.706,0,0,1-1.405-2.751,3.971,3.971,0,0,1,4.358,3.663A4.707,4.707,0,0,1,89.371,105.161Z" transform="translate(-87.966 -99.433)" fill="#a2c870"/></g><g transform="translate(1.09 20.825)"><path d="M6.422,0H8.739a6.422,6.422,0,0,1,6.422,6.422v.4a0,0,0,0,1,0,0H0a0,0,0,0,1,0,0v-.4A6.422,6.422,0,0,1,6.422,0Z" fill="#c9ae80"/></g><path d="M177.61,119.065H161.872v-3.257a4.728,4.728,0,0,1,4.722-4.722v1.156a3.57,3.57,0,0,0-3.566,3.566v2.1H177.61Z" transform="translate(-100.595 -91.515)" fill="#1d1d1b"/><path d="M137.868,119.065H122.129v-3.257a4.728,4.728,0,0,1,4.723-4.722v1.156a3.57,3.57,0,0,0-3.566,3.566v2.1h14.583Z" transform="translate(-91.491 -91.515)" fill="#1d1d1b"/><path d="M98.126,119.065H82.387v-3.257a4.728,4.728,0,0,1,4.722-4.722v1.156a3.57,3.57,0,0,0-3.566,3.566v2.1H98.126Z" transform="translate(-82.387 -91.515)" fill="#1d1d1b"/><g transform="translate(3.143 8.551)"><rect width="1.156" height="4.572" transform="translate(4.425 7.026)" fill="#1d1d1b"/><path d="M92.438,104.943l-.122-.6a6.1,6.1,0,0,1,4.6-7.395l.592-.157.122.6a7.088,7.088,0,0,1-.747,4.663h0a7.084,7.084,0,0,1-3.852,2.731ZM96.572,98.3a4.736,4.736,0,0,0-3.2,5.141,5.5,5.5,0,0,0,2.526-1.993h0A5.506,5.506,0,0,0,96.572,98.3Z" transform="translate(-87.779 -96.791)" fill="#1d1d1b"/><path d="M91.334,105.651a5.18,5.18,0,0,1-3.191-1.05h0a5.276,5.276,0,0,1-1.608-3.127l-.071-.609.612-.035A4.546,4.546,0,0,1,92.042,105l.071.608-.612.035C91.488,105.648,91.43,105.651,91.334,105.651Zm-2.447-1.935a3.647,3.647,0,0,0,1.846.735,3.16,3.16,0,0,0-2.888-2.425,3.633,3.633,0,0,0,1.042,1.69Z" transform="translate(-86.464 -97.715)" fill="#1d1d1b"/></g><g transform="translate(33.824 8.551)"><rect width="1.156" height="4.572" transform="translate(4.425 7.026)" fill="#1d1d1b"/><path d="M132.234,104.943l-.122-.6a6.1,6.1,0,0,1,4.6-7.395l.592-.157.122.6a6.1,6.1,0,0,1-4.6,7.395Zm4.134-6.646a4.736,4.736,0,0,0-3.2,5.141,4.736,4.736,0,0,0,3.2-5.141Z" transform="translate(-127.576 -96.791)" fill="#1d1d1b"/><path d="M131.131,105.651a5.183,5.183,0,0,1-3.191-1.05,5.262,5.262,0,0,1-1.608-3.128l-.071-.608.612-.035A4.547,4.547,0,0,1,131.839,105l.071.609-.612.035C131.285,105.648,131.226,105.651,131.131,105.651Zm-3.49-3.626a3.629,3.629,0,0,0,1.043,1.691h0a3.633,3.633,0,0,0,1.846.736,3.163,3.163,0,0,0-2.889-2.428Z" transform="translate(-126.261 -97.715)" fill="#1d1d1b"/></g><g transform="translate(64.503 8.551)"><rect width="1.156" height="4.572" transform="translate(4.425 7.026)" fill="#1d1d1b"/><path d="M172.031,104.943l-.122-.6a6.1,6.1,0,0,1,4.6-7.395l.593-.157.122.6a7.088,7.088,0,0,1-.747,4.663h0a7.082,7.082,0,0,1-3.853,2.731Zm4.134-6.646a4.736,4.736,0,0,0-3.2,5.141,4.736,4.736,0,0,0,3.2-5.141Z" transform="translate(-167.372 -96.791)" fill="#1d1d1b"/><path d="M170.927,105.651a5.18,5.18,0,0,1-3.191-1.05h0a5.271,5.271,0,0,1-1.608-3.127l-.071-.609.612-.035A4.547,4.547,0,0,1,171.635,105l.071.608-.612.035C171.08,105.648,171.022,105.651,170.927,105.651Zm-2.448-1.935a3.649,3.649,0,0,0,1.846.735,3.162,3.162,0,0,0-2.888-2.425,3.637,3.637,0,0,0,1.042,1.69Z" transform="translate(-166.057 -97.715)" fill="#1d1d1b"/></g><g transform="translate(33.824)"><rect width="1.156" height="8.004" transform="translate(4.425 7.026)" fill="#1d1d1b"/><path d="M132.234,93.852l-.122-.6a6.1,6.1,0,0,1,4.6-7.395l.592-.157.122.6a7.091,7.091,0,0,1-.746,4.663h0a7.1,7.1,0,0,1-3.854,2.732Zm4.134-6.647a4.736,4.736,0,0,0-3.2,5.141,5.518,5.518,0,0,0,2.527-1.994h0A5.511,5.511,0,0,0,136.368,87.2Z" transform="translate(-127.576 -85.699)" fill="#1d1d1b"/><path d="M131.129,94.558a5.174,5.174,0,0,1-3.189-1.048h0a5.267,5.267,0,0,1-1.608-3.128l-.071-.609.612-.035a4.547,4.547,0,0,1,4.966,4.173l.071.609-.612.035C131.285,94.556,131.226,94.558,131.129,94.558Zm-3.488-3.624a3.632,3.632,0,0,0,1.043,1.69h0a3.642,3.642,0,0,0,1.845.735,3.158,3.158,0,0,0-2.888-2.425Z" transform="translate(-126.261 -86.623)" fill="#1d1d1b"/></g><g transform="translate(64.503 3.109)"><rect width="1.156" height="4.572" transform="translate(4.425 7.026)" fill="#1d1d1b"/><path d="M172.031,97.885l-.122-.6a6.1,6.1,0,0,1,4.6-7.4l.593-.156.122.6A7.09,7.09,0,0,1,176.476,95h0a7.087,7.087,0,0,1-3.853,2.731Zm4.134-6.647a4.738,4.738,0,0,0-3.2,5.141,4.736,4.736,0,0,0,3.2-5.141Z" transform="translate(-167.372 -89.732)" fill="#1d1d1b"/><path d="M170.927,98.592a5.184,5.184,0,0,1-3.191-1.049h0a5.274,5.274,0,0,1-1.608-3.128l-.071-.609.612-.035a4.547,4.547,0,0,1,4.966,4.173l.071.609-.612.035C171.08,98.589,171.022,98.592,170.927,98.592Zm-2.448-1.935a3.647,3.647,0,0,0,1.846.735,3.168,3.168,0,0,0-2.889-2.426,3.64,3.64,0,0,0,1.042,1.691Z" transform="translate(-166.057 -90.657)" fill="#1d1d1b"/></g></g><circle cx="6.692" cy="6.692" r="6.692" transform="translate(13.1 5.436)" fill="#fbee72"/><path d="M154.092,67.385l-37.61-37.61-28.3,28.3-.818-.818L116.482,28.14,154.91,66.568Z" transform="translate(-20.012 -6.254)" fill="#1d1d1b"/><path d="M187.376,63.447,174.448,50.519,164.141,60.825l-.818-.818,11.124-11.124L188.194,62.63Z" transform="translate(-37.413 -11.005)" fill="#1d1d1b"/><path d="M54.057,50.192a7.885,7.885,0,0,1-7.877-7.877V41.79h1.156v.526a6.72,6.72,0,1,0,13.44,0,6.66,6.66,0,0,0-.594-2.765l1.054-.477a7.88,7.88,0,0,1-7.18,11.118Z" transform="translate(-10.579 -8.758)" fill="#1d1d1b"/><path d="M69.454,86.948H50.621l1-5,1.134.227-.723,3.621H68.505l.881-4.417,1.134.226Z" transform="translate(-11.596 -18.448)" fill="#1d1d1b"/><path d="M75.627,66.121,74.493,65.9l2.576-12.911H65.328V51.828H78.478Z" transform="translate(-14.965 -11.68)" fill="#1d1d1b"/><rect width="11.923" height="1.156" transform="matrix(0.195, -0.981, 0.981, 0.195, 41.837, 54.412)" fill="#1d1d1b"/><path d="M49.148,74.264H41.038c-4.683,0-6.79-3.415-6.79-5.841v-9.49a6.8,6.8,0,0,1,6.44-7.106h9.236v1.156H40.688A5.658,5.658,0,0,0,35.4,58.934v9.49c0,1.945,1.748,4.684,5.634,4.684h8.109c1.617,0,2.584-1.615,2.584-3.176a3.058,3.058,0,0,0-.695-2.028,2.823,2.823,0,0,0-2.234-.887h-6.79V61.435H43.17v4.426H48.8a3.978,3.978,0,0,1,3.1,1.281,4.21,4.21,0,0,1,.981,2.79C52.888,72.062,51.49,74.264,49.148,74.264Z" transform="translate(-7.845 -11.68)" fill="#1d1d1b"/><path d="M76.407,77.638a3.229,3.229,0,0,1-.856-.127,4.1,4.1,0,0,1,2.179-7.9c2.408.665,1.839,2.729,1.337,4.549l-.018.064-.557-.154.539.22C78.594,75.874,78.107,77.638,76.407,77.638Zm.234-7.015a2.939,2.939,0,0,0-.783,5.773c1.142.315,1.448-.2,2.058-2.411l.575.088-.557-.153.018-.064c.611-2.213.612-2.812-.53-3.126A2.909,2.909,0,0,0,76.641,70.623Z" transform="translate(-16.618 -15.721)" fill="#1d1d1b"/><path d="M42.6,78.587" transform="translate(-9.758 -17.81)" fill="none"/><rect width="1.156" height="25.547" transform="translate(53.766 67.922)" fill="#1d1d1b"/><path d="M58.454,114.884H57.3V96.734a1.247,1.247,0,1,0-2.495,0v18.151H53.647V96.734a2.4,2.4,0,1,1,4.807,0Z" transform="translate(-12.289 -21.416)" fill="#1d1d1b"/><rect width="1.156" height="27.235" transform="translate(32.6 66.234)" fill="#1d1d1b"/><path d="M40.733,47.2c-3.081,0-5.966-.427-6.269-1.981-.45-2.314,4.77-3.582,16.792-5.924,4.667-.908,8.776-1.688,11.8-2.01,2.681-.285,5.467-.362,5.777,1.24.507,2.6-7.038,5.023-10.3,5.942l-.314-1.113c7.364-2.073,9.6-4.033,9.483-4.609-.005-.032-.2-.769-4.52-.31-2.98.318-7.063,1.092-11.7,2-5.645,1.1-16.154,3.146-15.877,4.567.106.547,2.758,1.5,9.946.774l.117,1.15C44.237,47.064,42.454,47.2,40.733,47.2Z" transform="translate(-7.889 -8.311)" fill="#1d1d1b"/><path d="M44.57,39.088l-.52-2.294a6.458,6.458,0,0,1,.591-5.107c1.052-1.643,3.091-2.765,6.232-3.431,5.8-1.23,8.848.237,9.872,4.758l.664,2.933-1.128.255-.664-2.933c-.872-3.852-3.337-4.976-8.506-3.882-2.822.6-4.621,1.555-5.5,2.923a5.376,5.376,0,0,0-.437,4.228l.52,2.294Z" transform="translate(-10.034 -6.185)" fill="#1d1d1b"/><path d="M116.212,136.285l-.988-.989a.578.578,0,1,1,.817-.818l.233.233a.578.578,0,0,1,.54.972Zm-68.165-1.456a.578.578,0,0,1-.409-.987l.772-.772a.578.578,0,0,1,.817.817l-.772.773A.576.576,0,0,1,48.047,134.829Zm-1.854-.136a.578.578,0,0,1-.409-.169l-.773-.773a.578.578,0,0,1,.818-.817l.773.772a.578.578,0,0,1-.409.987ZM118.259,134a.579.579,0,0,1-.409-.988l.772-.772a.578.578,0,1,1,.817.817l-.772.773A.577.577,0,0,1,118.259,134Zm-4.481-.387a.579.579,0,0,1-.409-.17l-.773-.772a.578.578,0,0,1,.818-.818l.773.772a.579.579,0,0,1-.409.988Zm-34.816-.791-.9-.894a.579.579,0,0,1,.818-.819l.1.1a.578.578,0,0,1,.676.921ZM50.673,132.2a.579.579,0,0,1-.409-.988l.772-.772a.578.578,0,1,1,.817.818l-.772.772A.575.575,0,0,1,50.673,132.2Zm-7.108-.136a.576.576,0,0,1-.409-.17l-.773-.772a.578.578,0,1,1,.818-.818l.773.772a.579.579,0,0,1-.409.988Zm77.32-.7a.578.578,0,0,1-.409-.987l.772-.772a.578.578,0,0,1,.818.817l-.772.772A.575.575,0,0,1,120.885,131.371Zm-9.735-.387a.575.575,0,0,1-.409-.17l-.772-.772a.578.578,0,1,1,.818-.817l.772.772a.578.578,0,0,1-.409.987ZM81.1,130.441a.578.578,0,0,1-.409-.987l.821-.822h.409A.578.578,0,0,1,82,129.785l-.487.488A.576.576,0,0,1,81.1,130.441Zm-4.481-.2a.579.579,0,0,1-.409-.169l-.237-.237H75.7a.578.578,0,1,1,0-1.156h.758l.576.575a.579.579,0,0,1-.409.988Zm-3.546-.406H71.982a.578.578,0,1,1,0-1.156h1.093a.578.578,0,1,1,0,1.156Zm-3.716,0H68.267a.578.578,0,1,1,0-1.156H69.36a.578.578,0,1,1,0,1.156Zm-3.714,0H64.552a.578.578,0,1,1,0-1.156h1.093a.578.578,0,1,1,0,1.156Zm-3.715,0H60.838a.578.578,0,1,1,0-1.156H61.93a.578.578,0,1,1,0,1.156Zm-3.716,0H57.122a.578.578,0,1,1,0-1.156h1.092a.578.578,0,1,1,0,1.156Zm-3.714,0H53.408a.578.578,0,1,1,0-1.156H54.5a.578.578,0,1,1,0,1.156Zm-13.726,0H39.682a.578.578,0,1,1,0-1.156h1.092a.578.578,0,1,1,0,1.156Zm-3.714,0H35.967a.578.578,0,1,1,0-1.156H37.06a.578.578,0,1,1,0,1.156Zm-3.715,0H32.253a.578.578,0,1,1,0-1.156h1.092a.578.578,0,1,1,0,1.156Zm-3.715,0H28.537a.578.578,0,1,1,0-1.156H29.63a.578.578,0,1,1,0,1.156Zm-3.715,0H24.823a.578.578,0,1,1,0-1.156h1.092a.578.578,0,1,1,0,1.156Zm-3.714,0H21.108a.578.578,0,1,1,0-1.156H22.2a.578.578,0,1,1,0,1.156Zm-3.716,0H17.392a.578.578,0,1,1,0-1.156h1.092a.578.578,0,1,1,0,1.156Zm-3.715,0H13.677a.578.578,0,1,1,0-1.156H14.77a.578.578,0,1,1,0,1.156Zm-3.714,0H9.963a.578.578,0,1,1,0-1.156h1.092a.578.578,0,1,1,0,1.156Zm-3.716,0H6.247a.578.578,0,1,1,0-1.156H7.34a.578.578,0,1,1,0,1.156Zm100.591-.045h-1.092a.578.578,0,1,1,0-1.156h1.092a.578.578,0,1,1,0,1.156Zm-3.716,0h-1.092a.578.578,0,1,1,0-1.156h1.092a.578.578,0,1,1,0,1.156Zm-3.714,0H99.408a.578.578,0,1,1,0-1.156H100.5a.578.578,0,1,1,0,1.156Zm-3.715,0H95.693a.578.578,0,1,1,0-1.156h1.092a.578.578,0,1,1,0,1.156Zm-3.715,0H91.978a.578.578,0,1,1,0-1.156H93.07a.578.578,0,1,1,0,1.156Zm-3.715,0H88.263a.578.578,0,1,1,0-1.156h1.092a.578.578,0,1,1,0,1.156Zm-3.714,0H84.548a.578.578,0,1,1,0-1.156h1.093a.578.578,0,1,1,0,1.156Zm83.924-.129h-1.092a.578.578,0,0,1,0-1.156h1.092a.578.578,0,1,1,0,1.156Zm-3.714,0h-1.093a.578.578,0,1,1,0-1.156h1.093a.578.578,0,1,1,0,1.156Zm-3.716,0h-1.092a.578.578,0,1,1,0-1.156h1.092a.578.578,0,1,1,0,1.156Zm-3.714,0h-1.093a.578.578,0,1,1,0-1.156h1.093a.578.578,0,0,1,0,1.156Zm-3.716,0h-1.092a.578.578,0,1,1,0-1.156H154.7a.578.578,0,0,1,0,1.156Zm-3.714,0H149.9a.578.578,0,0,1,0-1.156h1.093a.578.578,0,0,1,0,1.156Zm-3.715,0h-1.092a.578.578,0,0,1,0-1.156h1.092a.578.578,0,1,1,0,1.156Zm-3.716,0h-1.092a.578.578,0,0,1,0-1.156h1.092a.578.578,0,1,1,0,1.156Zm-3.714,0h-1.092a.578.578,0,0,1,0-1.156h1.092a.578.578,0,1,1,0,1.156Zm-3.715,0h-1.092a.578.578,0,1,1,0-1.156h1.092a.578.578,0,0,1,0,1.156Zm-3.715,0h-1.093a.578.578,0,1,1,0-1.156h1.093a.578.578,0,0,1,0,1.156Zm-3.715,0h-1.092a.578.578,0,1,1,0-1.156H128.7a.578.578,0,1,1,0,1.156Zm-3.714,0h-1.093a.578.578,0,1,1,0-1.156h1.093a.578.578,0,1,1,0,1.156Z" transform="translate(-1.299 -29.244)" fill="#1d1d1b"/><g transform="translate(10.397 0.841)"><path d="M23.924,21.715a10.652,10.652,0,0,1-1.153-.063L22.9,20.5a9.494,9.494,0,0,0,1.027.056Zm1.5-.108-.166-1.145a9.2,9.2,0,0,0,1.007-.2l.292,1.119A10.613,10.613,0,0,1,25.425,21.607Zm-5.343-.624a10.305,10.305,0,0,1-1.05-.486l.545-1.021a9.289,9.289,0,0,0,.931.432Zm9.038-.656-.578-1a9.648,9.648,0,0,0,.861-.562l.684.932A10.66,10.66,0,0,1,29.12,20.326ZM16.786,18.885a10.237,10.237,0,0,1-.8-.836l.879-.75a9.524,9.524,0,0,0,.709.744Zm15.3-1.106-.9-.722a9.37,9.37,0,0,0,.6-.838l.978.618A10.685,10.685,0,0,1,32.082,17.779Zm-17.6-2.052a10.217,10.217,0,0,1-.436-1.072l1.095-.374a9.383,9.383,0,0,0,.386.951Zm19.425-1.405L32.8,13.985a9.168,9.168,0,0,0,.246-1l1.136.214A10.684,10.684,0,0,1,33.909,14.321Zm-20.4-2.381q-.02-.328-.021-.661c0-.167,0-.329.011-.491l1.155.051c-.006.145-.009.291-.009.438,0,.2.006.4.019.593Zm19.668-1.412a9.451,9.451,0,0,0-.139-1.018l1.136-.22a10.663,10.663,0,0,1,.156,1.145ZM15.093,8.42l-1.1-.357a10.661,10.661,0,0,1,.417-1.079l1.054.476A9.112,9.112,0,0,0,15.093,8.42ZM32.25,7.18a9.4,9.4,0,0,0-.506-.894l.974-.624a10.764,10.764,0,0,1,.567,1.005ZM16.766,5.373l-.891-.736a10.451,10.451,0,0,1,.784-.849l.806.83A9.349,9.349,0,0,0,16.766,5.373ZM30.154,4.4a9.146,9.146,0,0,0-.8-.648l.679-.937a10.507,10.507,0,0,1,.9.729ZM19.441,3.151,18.88,2.14a10.5,10.5,0,0,1,1.039-.5L20.365,2.7A9.459,9.459,0,0,0,19.441,3.151Zm7.75-.563a9.315,9.315,0,0,0-.981-.308L26.5,1.159a10.505,10.505,0,0,1,1.1.348Zm-4.45-.518L22.6.923A10.449,10.449,0,0,1,23.748.841L23.767,2A9.3,9.3,0,0,0,22.741,2.071Z" transform="translate(-13.486 -0.841)" fill="#1d1d1b"/><path d="M24.892,19.422a7.178,7.178,0,1,1,7.177-7.178A7.186,7.186,0,0,1,24.892,19.422Zm0-13.2a6.021,6.021,0,1,0,6.021,6.021A6.028,6.028,0,0,0,24.892,6.223Z" transform="translate(-14.455 -1.809)" fill="#1d1d1b"/></g><path d="M157.783,46.933a7.154,7.154,0,0,1-.363-14.3l1.656-.083-1.245,1.095a5.082,5.082,0,0,0,3.354,8.906,5.025,5.025,0,0,0,2.318-.563l1.482-.762-.692,1.516A7.179,7.179,0,0,1,157.783,46.933Zm-1.831-12.87a6,6,0,1,0,6.461,9.522,6.24,6.24,0,0,1-6.461-9.522Z" transform="translate(-34.504 -7.264)" fill="#1d1d1b"/><rect width="169.178" height="1.156" transform="translate(0 92.724)" fill="#1d1d1b"/></g></svg>