<svg xmlns="http://www.w3.org/2000/svg" width="145.162" height="105.49" viewBox="0 0 145.162 105.49"><g transform="translate(2922.246 -306.621)"><g transform="translate(-2869.26 394.776)"><path d="M-2813.717,432.5v-9.119h-38.05V432.5" transform="translate(2852.337 -422.812)" fill="#fff"/><path d="M-2813.327,432.321h-1.14v-8.549h-36.91v8.549h-1.14v-9.689h39.189Z" transform="translate(2852.517 -422.632)" fill="#1d1d1b"/></g><g transform="translate(-2894.705 403.896)"><path d="M-2799.85,442.458h-81.864a3.548,3.548,0,0,1-3.538-3.538h0a3.548,3.548,0,0,1,3.538-3.537h81.864a3.547,3.547,0,0,1,3.537,3.537h0A3.548,3.548,0,0,1-2799.85,442.458Z" transform="translate(2885.822 -434.813)" fill="#fff"/><path d="M-2800.03,442.848h-81.864A4.112,4.112,0,0,1-2886,438.74a4.112,4.112,0,0,1,4.108-4.107h81.864a4.112,4.112,0,0,1,4.107,4.107A4.112,4.112,0,0,1-2800.03,442.848Zm-81.864-7.075a2.971,2.971,0,0,0-2.968,2.967,2.971,2.971,0,0,0,2.968,2.968h81.864a2.971,2.971,0,0,0,2.967-2.968,2.971,2.971,0,0,0-2.967-2.967Z" transform="translate(2886.002 -434.633)" fill="#1d1d1b"/></g><g transform="translate(-2922.246 306.621)"><rect width="144.022" height="88.155" rx="8.553" transform="translate(0.57 0.57)" fill="#fff"/><path d="M-2784.153,395.916h-131.024a7.078,7.078,0,0,1-7.069-7.07V313.691a7.078,7.078,0,0,1,7.069-7.07h131.024a7.077,7.077,0,0,1,7.069,7.07v75.155A7.077,7.077,0,0,1-2784.153,395.916Zm-131.024-88.155a5.937,5.937,0,0,0-5.929,5.93v75.155a5.937,5.937,0,0,0,5.929,5.93h131.024a5.936,5.936,0,0,0,5.929-5.93V313.691a5.936,5.936,0,0,0-5.929-5.93Z" transform="translate(2922.246 -306.621)" fill="#1d1d1b"/></g><g transform="translate(-2921.623 310.863)"><g transform="translate(0 5.236)"><line x2="143.915" transform="translate(0 0.57)" fill="#fff"/><rect width="143.915" height="1.14" fill="#1d1d1b"/></g><g transform="translate(120.781)"><path d="M-2758.491,314.574a1.619,1.619,0,0,1-1.62,1.619,1.619,1.619,0,0,1-1.619-1.619,1.619,1.619,0,0,1,1.619-1.619A1.619,1.619,0,0,1-2758.491,314.574Z" transform="translate(2762.3 -312.384)" fill="#fff"/><path d="M-2760.291,316.583a2.192,2.192,0,0,1-2.189-2.19,2.192,2.192,0,0,1,2.189-2.189,2.192,2.192,0,0,1,2.189,2.189A2.192,2.192,0,0,1-2760.291,316.583Zm0-3.239a1.05,1.05,0,0,0-1.049,1.049,1.051,1.051,0,0,0,1.049,1.05,1.051,1.051,0,0,0,1.05-1.05A1.051,1.051,0,0,0-2760.291,313.344Z" transform="translate(2762.48 -312.204)" fill="#1d1d1b"/></g><g transform="translate(126.583)"><path d="M-2750.856,314.574a1.619,1.619,0,0,1-1.619,1.619,1.619,1.619,0,0,1-1.619-1.619,1.619,1.619,0,0,1,1.619-1.619A1.619,1.619,0,0,1-2750.856,314.574Z" transform="translate(2754.665 -312.384)" fill="#fff"/><path d="M-2752.656,316.583a2.192,2.192,0,0,1-2.189-2.19,2.192,2.192,0,0,1,2.189-2.189,2.192,2.192,0,0,1,2.189,2.189A2.192,2.192,0,0,1-2752.656,316.583Zm0-3.239a1.051,1.051,0,0,0-1.049,1.049,1.051,1.051,0,0,0,1.049,1.05,1.051,1.051,0,0,0,1.05-1.05A1.051,1.051,0,0,0-2752.656,313.344Z" transform="translate(2754.845 -312.204)" fill="#1d1d1b"/></g><g transform="translate(132.384)"><path d="M-2743.221,314.574a1.619,1.619,0,0,1-1.62,1.619,1.619,1.619,0,0,1-1.619-1.619,1.619,1.619,0,0,1,1.619-1.619A1.619,1.619,0,0,1-2743.221,314.574Z" transform="translate(2747.03 -312.384)" fill="#fff"/><path d="M-2745.021,316.583a2.192,2.192,0,0,1-2.189-2.19,2.192,2.192,0,0,1,2.189-2.189,2.192,2.192,0,0,1,2.189,2.189A2.192,2.192,0,0,1-2745.021,316.583Zm0-3.239a1.05,1.05,0,0,0-1.049,1.049,1.051,1.051,0,0,0,1.049,1.05,1.051,1.051,0,0,0,1.05-1.05A1.051,1.051,0,0,0-2745.021,313.344Z" transform="translate(2747.21 -312.204)" fill="#1d1d1b"/></g></g><path d="M-2778.589,343.338a19.8,19.8,0,0,0-17.978,11.5l17.978,8.3Z" transform="translate(-30.177 -8.816)" fill="#ccc"/><path d="M-2776.764,347.756v19.8l-17.978-8.3a19.717,19.717,0,0,0-1.825,8.3,19.8,19.8,0,0,0,19.8,19.8,19.8,19.8,0,0,0,19.8-19.8A19.8,19.8,0,0,0-2776.764,347.756Z" transform="translate(-30.177 -9.877)" fill="#a2c870"/><path d="M-2910.487,390.787h-1.14V334.261a2.774,2.774,0,0,1,2.771-2.771h74.189v1.14h-74.189a1.633,1.633,0,0,0-1.632,1.631Z" transform="translate(-2.55 -5.971)" fill="#1d1d1b"/><g transform="translate(-2906.967 344.14)"><path d="M-2895.107,403.826h-7.032V374.253h7.032Zm-5.892-1.14h4.752V375.393H-2901Z" transform="translate(2902.139 -360.38)" fill="#1d1d1b"/><path d="M-2881.984,399.443h-7.032V356h7.032Zm-5.893-1.14h4.752V357.136h-4.752Z" transform="translate(2898.988 -355.996)" fill="#1d1d1b"/><path d="M-2868.861,406.114h-7.032V383.779h7.032Zm-5.892-1.14H-2870V384.919h-4.752Z" transform="translate(2895.837 -362.667)" fill="#1d1d1b"/><path d="M-2855.738,402.54h-7.033V368.895h7.033Zm-5.893-1.14h4.753V370.035h-4.753Z" transform="translate(2892.686 -359.093)" fill="#1d1d1b"/><path d="M-2842.615,400.777h-7.033V361.553h7.033Zm-5.893-1.14h4.753V362.693h-4.753Z" transform="translate(2889.535 -357.33)" fill="#1d1d1b"/><path d="M-2829.492,405.256h-7.032v-25.05h7.032Zm-5.893-1.14h4.753v-22.77h-4.753Z" transform="translate(2886.384 -361.809)" fill="#1d1d1b"/><path d="M-2816.369,402.54h-7.033V368.895h7.033Zm-5.893-1.14h4.753V370.035h-4.753Z" transform="translate(2883.233 -359.093)" fill="#1d1d1b"/></g><rect width="19.457" height="0.76" transform="translate(-2860.13 332.914)" fill="#1d1d1b"/><rect width="19.457" height="0.76" transform="translate(-2860.13 337.946)" fill="#ca4d36"/><rect width="3.355" height="0.76" transform="translate(-2864.659 332.914)" fill="#1d1d1b"/><rect width="3.355" height="0.76" transform="translate(-2864.659 337.946)" fill="#ca4d36"/><path d="M-2877.781,378.307l-9.944-21.053c-3.866,5.338-9.351,12.939-9.568,13.307l-.317-.187-.356.182c-.137-.267-.137-.267,10-14.268l.376-.521,10,21.17,9.69-10.957,10.271-5.747,9.928,14.113,9.654-8.322.5.576-10.29,8.869-10.016-14.237-9.616,5.381Z" transform="translate(-5.824 -11.801)" fill="#ca4d36"/><path d="M-2794.589,352.688l-1.034-.478a20.445,20.445,0,0,1,18.5-11.831v1.14A19.3,19.3,0,0,0-2794.589,352.688Z" transform="translate(-30.404 -8.106)" fill="#1d1d1b"/><path d="M-2775.32,385.722a20.4,20.4,0,0,1-20.374-20.373,20.2,20.2,0,0,1,1.879-8.543l.239-.517,17.686,8.168V345.547h1.14V366.24l-18.262-8.434a19.061,19.061,0,0,0-1.541,7.543,19.255,19.255,0,0,0,19.234,19.233Z" transform="translate(-30.387 -9.347)" fill="#1d1d1b"/><g transform="translate(-2803.674 354.744)"><path d="M-2756.307,376.406a1.668,1.668,0,0,1-1.2-.555,1.455,1.455,0,0,1-.085-2.04l.515.558a.722.722,0,0,0,.129.967c.294.317.731.41.954.2l.515.558A1.193,1.193,0,0,1-2756.307,376.406Z" transform="translate(2764.23 -370.877)" fill="#1d1d1b"/><path d="M-2758.69,381.7c-.134,0-.269-.006-.405-.018h-.018l-.164-.05a.2.2,0,0,0,.081.025,7.852,7.852,0,0,1-6.978-7.5l-.032-.067.016-.114a3.963,3.963,0,0,1,1.259-2.984,3.988,3.988,0,0,1,3.109-1.018,4.774,4.774,0,0,1,2.518,1.021,1.864,1.864,0,0,1,.632,1.141l.019.09a2.84,2.84,0,0,0,2,2.04,1.919,1.919,0,0,1,1.179.9l.021.04a4.766,4.766,0,0,1,.726,2.445,3.979,3.979,0,0,1-1.258,3.021A3.936,3.936,0,0,1-2758.69,381.7Zm-.312-.774a3.225,3.225,0,0,0,2.5-.821,3.228,3.228,0,0,0,1.013-2.452h0a4.028,4.028,0,0,0-.632-2.088l-.045-.1a1.194,1.194,0,0,0-.6-.454l-.08-.014a3.6,3.6,0,0,1-2.557-2.644l-.013-.058h0l0-.026a1.107,1.107,0,0,0-.37-.695,4,4,0,0,0-2.1-.847,3.224,3.224,0,0,0-2.524.818,3.226,3.226,0,0,0-1.014,2.434.586.586,0,0,1,.014.12,7.073,7.073,0,0,0,6.288,6.8A.545.545,0,0,1-2759,380.923Z" transform="translate(2766.207 -369.95)" fill="#1d1d1b"/><path d="M-2758.418,381.853a7.173,7.173,0,0,1-6.378-6.9l.76-.01a6.4,6.4,0,0,0,5.687,6.151Z" transform="translate(2765.868 -371.149)" fill="#1d1d1b"/></g><g transform="translate(-2819.71 338.536)"><path d="M-2781.831,353.772a1.274,1.274,0,0,1-.923-.423,1.129,1.129,0,0,1-.053-1.585l.516.558c-.1.089-.076.327.095.511s.406.223.5.135l.516.558A.95.95,0,0,1-2781.831,353.772Z" transform="translate(2786.301 -349.375)" fill="#1d1d1b"/><g transform="translate(0 0)"><path d="M-2783.041,357.037q-.146,0-.294-.014l-.095-.019a5.245,5.245,0,0,1-2.321-.812,6.255,6.255,0,0,1-1.173-.919,1.263,1.263,0,0,1-.2-1.573l.061-.158a1.067,1.067,0,0,0,.049-.855,1.147,1.147,0,0,1,.1-1.353,1.36,1.36,0,0,0,.271-.561.9.9,0,0,0-.137-.573.97.97,0,0,0-.109-.139.753.753,0,0,1-.19-.93,1.139,1.139,0,0,1,.724-.4,3.215,3.215,0,0,1,1.135-.1,3.456,3.456,0,0,1,1.816.736,1.421,1.421,0,0,1,.488.906,1.874,1.874,0,0,0,1.318,1.353,1.461,1.461,0,0,1,.888.671,3.5,3.5,0,0,1,.54,1.8,2.89,2.89,0,0,1-.914,2.191A2.855,2.855,0,0,1-2783.041,357.037Zm-3.305-7.516.037.043a1.428,1.428,0,0,1,.212.3,1.614,1.614,0,0,1,.2,1.079,2.123,2.123,0,0,1-.4.84c-.149.206-.18.249-.025.6a1.824,1.824,0,0,1-.034,1.426l-.064.166c-.171.438-.2.517.043.774a5.527,5.527,0,0,0,1.032.8,4.5,4.5,0,0,0,2,.7l.108.021a2.121,2.121,0,0,0,1.634-.545,2.135,2.135,0,0,0,.669-1.622,2.741,2.741,0,0,0-.428-1.41l-.009-.015a.7.7,0,0,0-.366-.3l-.055-.011a2.619,2.619,0,0,1-1.875-1.961.7.7,0,0,0-.226-.451,2.674,2.674,0,0,0-1.4-.561,2.311,2.311,0,0,0-.808.063l-.074.019C-2786.206,349.482-2786.281,349.5-2786.346,349.521Z" transform="translate(2787.311 -348.62)" fill="#1d1d1b"/></g></g><path d="M-2778.729,342.9l-.806-.806,5.838-5.838h3.887v1.14h-3.415Z" transform="translate(-34.267 -7.117)" fill="#1d1d1b"/><path d="M-2768.522,401.9h-4.611v-1.14h4.139l8.721-8.721.806.806Z" transform="translate(-35.804 -20.51)" fill="#1d1d1b"/><path d="M-2747.8,339.035h-17.2a2.963,2.963,0,0,1-2.96-2.96,2.963,2.963,0,0,1,2.96-2.96h17.2a2.963,2.963,0,0,1,2.959,2.96A2.963,2.963,0,0,1-2747.8,339.035Zm-17.2-4.78a1.821,1.821,0,0,0-1.82,1.82,1.822,1.822,0,0,0,1.82,1.82h17.2a1.822,1.822,0,0,0,1.82-1.82,1.822,1.822,0,0,0-1.82-1.82Z" transform="translate(-37.044 -6.362)" fill="#1d1d1b"/><path d="M-2782.188,406.29h-17.2a2.963,2.963,0,0,1-2.96-2.96,2.963,2.963,0,0,1,2.96-2.96h17.2a2.963,2.963,0,0,1,2.96,2.96A2.963,2.963,0,0,1-2782.188,406.29Zm-17.2-4.78a1.822,1.822,0,0,0-1.82,1.82,1.822,1.822,0,0,0,1.82,1.82h17.2a1.823,1.823,0,0,0,1.821-1.82,1.823,1.823,0,0,0-1.821-1.82Z" transform="translate(-28.788 -22.51)" fill="#1d1d1b"/></g></svg>