<svg xmlns="http://www.w3.org/2000/svg" width="387.5" height="340.999" viewBox="0 0 387.5 340.999"><g transform="translate(11648.5 5464.404)"><g transform="translate(-11607 -5443.405)" fill="none" stroke="#9bd5b9" stroke-linecap="round" stroke-width="1" stroke-dasharray="4 4" opacity="0.751"><ellipse cx="151" cy="152" rx="151" ry="152" stroke="none"/><ellipse cx="151" cy="152" rx="150.5" ry="151.5" fill="none"/></g><line x2="176" transform="translate(-11544 -5290.905)" fill="none" stroke="#9bd5b9" stroke-width="1"/><line x2="116" y2="144" transform="translate(-11511.5 -5366.905)" fill="none" stroke="#9bd5b9" stroke-width="1"/><line x1="116" y2="144" transform="translate(-11518.5 -5366.905)" fill="none" stroke="#9bd5b9" stroke-width="1"/><circle cx="68" cy="68" r="68" transform="translate(-11524 -5359.405)" fill="#57a580"/><path d="M21.25-35H3.75A3.751,3.751,0,0,0,0-31.25V1.25A3.751,3.751,0,0,0,3.75,5h17.5A3.751,3.751,0,0,0,25,1.25v-32.5A3.751,3.751,0,0,0,21.25-35ZM20.781,1.25H4.219A.47.47,0,0,1,3.75.781V-30.781a.47.47,0,0,1,.469-.469H20.781a.47.47,0,0,1,.469.469V.781A.47.47,0,0,1,20.781,1.25Zm-5.469-2.5a.94.94,0,0,0,.938-.937v-.625a.94.94,0,0,0-.937-.937H9.688a.94.94,0,0,0-.937.938v.625a.94.94,0,0,0,.938.938Z" transform="translate(-11469 -5300.405)" fill="#fff"/><path d="M-37.11-8.355a1.927,1.927,0,0,1,2.07-1.965A1.918,1.918,0,0,1-33-8.355a1.915,1.915,0,0,1-2.04,1.95A1.924,1.924,0,0,1-37.11-8.355Zm8.025-.915v1.83h-2.58a3,3,0,0,0,.135-.915,3.551,3.551,0,0,0-.12-.915Zm0,3.075V-4.41h1.545v-8h-1.545v1.875h-3.27a3.62,3.62,0,0,0-2.685-1.1,3.3,3.3,0,0,0-3.54,3.27A3.3,3.3,0,0,0-35.04-5.1a3.588,3.588,0,0,0,2.685-1.1ZM-32.055-.06c-1.92,0-3.045-.5-3.045-1.425,0-.9,1.125-1.41,3.045-1.41s3.045.51,3.045,1.41C-29.01-.555-30.12-.06-32.055-.06Zm0-4.05c-2.82,0-4.56.975-4.56,2.625,0,1.665,1.74,2.64,4.56,2.64S-27.48.18-27.48-1.485C-27.48-3.135-29.235-4.11-32.055-4.11ZM-19.62-.045c-1.98,0-3.09-.45-3.09-1.29,0-.855,1.11-1.29,3.09-1.29s3.105.435,3.105,1.29C-16.515-.5-17.64-.045-19.62-.045Zm0-3.78c-2.9,0-4.665.9-4.665,2.49,0,1.575,1.77,2.49,4.665,2.49s4.665-.915,4.665-2.49C-14.955-2.925-16.71-3.825-19.62-3.825Zm.81-2.13v-1.59h3.96V-8.79h-7.71v-3.345h-1.545v4.59h3.75v1.59H-25.71V-4.71h12.255V-5.955Zm13.425-3.03v1.26h2.4V-4.32H-1.44v-8.07H-2.985v3.4Zm.78,3.015a4.442,4.442,0,0,1-3.18-4.08v-.18h2.82v-1.245H-12.21v1.245h2.865v.195a4.756,4.756,0,0,1-3.315,4.41l.8,1.23A5.606,5.606,0,0,0-8.52-7.65a5.291,5.291,0,0,0,3.15,2.9ZM-5.94-.03c-1.935,0-3.03-.48-3.03-1.365s1.1-1.365,3.03-1.365c1.905,0,3.015.48,3.015,1.365S-4.035-.03-5.94-.03Zm0-3.93c-2.835,0-4.575.96-4.575,2.565S-8.775,1.17-5.94,1.17c2.82,0,4.56-.945,4.56-2.565S-3.12-3.96-5.94-3.96ZM3.3-7.965H9.72v2.22H3.3Zm3.975,6.2V-4.5H11.25v-6.99H9.72v2.28H3.3v-2.28H1.77V-4.5H5.73v2.73H.39V-.5H12.66V-1.77ZM17.55-9.645h2.235V-10.92h-6.12v1.275H16.05v.975c0,2.415-.9,4.86-2.82,6.06l.93,1.14a6.713,6.713,0,0,0,2.655-3.99,6.165,6.165,0,0,0,2.6,3.66l.9-1.125C18.42-4.02,17.55-6.36,17.55-8.67Zm3.24,2.01H18.795v1.26H20.79V.5h1.455v-12.63H20.79Zm2.73-4.77V1.14h1.47V-12.405Zm13.32,5.4a12.827,12.827,0,0,0,.375-3.6v-1.14h-9.3V-10.5h7.77a12.081,12.081,0,0,1-.36,3.33ZM32.565-.03c-2.01,0-3.24-.495-3.24-1.35,0-.84,1.23-1.335,3.24-1.335,1.995,0,3.195.5,3.195,1.335C35.76-.525,34.56-.03,32.565-.03Zm0-3.87c-2.925,0-4.77.96-4.77,2.52,0,1.575,1.845,2.535,4.77,2.535,2.88,0,4.74-.96,4.74-2.535C37.305-2.94,35.445-3.9,32.565-3.9Zm.3-2.295v-2.49H31.3V-6.2H26.5V-4.95h12.21V-6.2ZM-14.28,8.7h-1.56V10.94a6.944,6.944,0,0,1-3.435,6.18l.975,1.23a7,7,0,0,0,3.255-4.29,6.677,6.677,0,0,0,3.21,4.065l.915-1.245a6.516,6.516,0,0,1-3.36-5.94ZM-9.495,7.58v4.455h-2.9V13.3h2.9V21.17h1.56V7.58ZM3.45,7.595v13.59H5.01V7.595ZM-5.415,8.72v9.24H1.1V8.72H-.45v3.45H-3.885V8.72Zm1.53,4.68H-.45v3.315H-3.885Zm22.545.825c-2.67-.48-4.845-2.565-4.845-4.725V8.48H12.18V9.5c0,2.145-2.175,4.23-4.845,4.725l.66,1.275a7.092,7.092,0,0,0,4.995-3.72,7.092,7.092,0,0,0,5,3.72ZM6.915,18.14v1.275h12.27V18.14Z" transform="translate(-11456.42 -5271.405)" fill="#fff"/><circle cx="47.5" cy="47.5" r="47.5" transform="translate(-11587.5 -5462.5)" fill="#fff" stroke="#57a580" stroke-linecap="round" stroke-width="2"/><path d="M-7.56-5.58c-2.355-.45-4.9-2.49-4.9-4.785V-11.4h-1.29v1.035c0,2.3-2.535,4.32-4.89,4.785l.555,1.02a7.388,7.388,0,0,0,4.98-3.885,7.3,7.3,0,0,0,5,3.885Zm-11.6,3.87V-.69h12.2V-1.71Zm14.79-8.3H-.6V-3.3H-4.365Zm-1.2,7.7H.6V-11H-5.565ZM6.465-6.975H4.245V-12.33H3.015V1.11h1.23V-5.94h2.22Zm11.28,1.89h-8v-2.13h7.56V-8.19H9.75v-1.995h7.86v-.99H8.5V-4.1h9.24ZM6.93-1.635V-.63H19.14V-1.635ZM-5.565,13.4A19.459,19.459,0,0,0-5.22,9.41V8.7h-6.69v1h5.49a17.1,17.1,0,0,1-.36,3.555Zm1.275.81c-1.365.195-2.895.3-4.365.36V11.7H-9.87v2.91c-1.02.015-1.995.03-2.85.03l.12,1.005a53.915,53.915,0,0,0,8.4-.54Zm-5.145,2.655h-1.23V20.81h8.94v-1h-7.71Zm7.275-4.83V7.655H-3.39V17.8h1.23v-4.74H-.225v-1.02Zm14.16.75c-2.445-.36-4.845-2.025-4.845-3.9v-.75H5.865v.75c0,1.92-2.37,3.54-4.815,3.9l.5.99a6.894,6.894,0,0,0,4.965-3.15,7.06,7.06,0,0,0,4.98,3.15Zm.585,2.445H.435v1.02h5.43v4.875H7.1V16.25H12.6Z" transform="translate(-11540 -5419)" fill="#505050"/><path d="M47.5,0A47.5,47.5,0,1,1,0,47.5,47.5,47.5,0,0,1,47.5,0Z" transform="translate(-11418 -5463.404)" fill="#fff" stroke="#57a580" stroke-width="2"/><path d="M-13.065.135c-2.13,0-3.375-.555-3.375-1.485,0-.96,1.245-1.5,3.375-1.5,2.1,0,3.345.54,3.345,1.5C-9.72-.42-10.965.135-13.065.135Zm0-3.945c-2.88,0-4.62.885-4.62,2.46,0,1.56,1.74,2.445,4.62,2.445,2.85,0,4.59-.885,4.59-2.445C-8.475-2.925-10.215-3.81-13.065-3.81Zm.63-2.01V-7.605H-8.37V-8.6h-7.9V-12.06H-17.5v4.455h3.825V-5.82h-5.46v.99H-6.975v-.99Zm7.125-5.07v.99H-.255c-.255,3.2-2.055,5.775-5.67,7.5l.66,1.005C-.795-3.585.99-7.005.99-10.89Zm9.015-1.455V1.11h1.23V-12.345Zm10.8,3.75H12.51a11.59,11.59,0,0,0,.18-2.04H7.53V-9.63h3.945A8.607,8.607,0,0,1,6.93-2.67l.72.87a9.681,9.681,0,0,0,4.635-5.805h2.22v2.37h-2.43V-4.23h2.43V.42h1.17V-11.985h-1.17Zm2.7-3.75V1.1h1.17v-13.44ZM-6.555,8.99c2.07,0,3.42.645,3.42,1.71,0,1.05-1.35,1.695-3.42,1.695-2.055,0-3.42-.645-3.42-1.695C-9.975,9.635-8.61,8.99-6.555,8.99Zm0,4.41c2.85,0,4.71-1.035,4.71-2.7S-3.7,8-6.555,8s-4.71,1.035-4.71,2.7S-9.4,13.4-6.555,13.4Zm-3.3,3.48h-1.23v3.93h9.3V19.79h-8.07Zm-2.79-2.4v1.005h5.58V18.2H-5.82V15.485H-.45V14.48ZM1.8,11.645A2.164,2.164,0,0,1,4.1,9.5a2.156,2.156,0,1,1,0,4.305A2.166,2.166,0,0,1,1.8,11.645Zm8.46-1.05v2.1h-2.9a3.028,3.028,0,0,0,.18-1.05,3.28,3.28,0,0,0-.165-1.05Zm0,3.105v1.92h1.245V7.655H10.26V9.59H6.81A3.581,3.581,0,0,0,4.1,8.465a3.206,3.206,0,1,0,0,6.39A3.5,3.5,0,0,0,6.81,13.7ZM7.05,20.12c-2.025,0-3.255-.6-3.255-1.605S5.025,16.9,7.05,16.9c2.055,0,3.285.6,3.285,1.62S9.105,20.12,7.05,20.12Zm0-4.185c-2.76,0-4.47.945-4.47,2.58s1.71,2.58,4.47,2.58,4.5-.945,4.5-2.58S9.825,15.935,7.05,15.935Z" transform="translate(-11371 -5419.404)" fill="#505050"/><path d="M47.5,0A47.5,47.5,0,1,1,0,47.5,47.5,47.5,0,0,1,47.5,0Z" transform="translate(-11590.5 -5219.5)" fill="#fff" stroke="#57a580" stroke-width="2"/><path d="M-15.84-2.28h1.245V-12.33H-15.84v3.15h-2.94v1.02h2.94Zm-1.98-3.18a4.825,4.825,0,0,1-3.255-4.365v-1.71H-22.3V-9.87a5.074,5.074,0,0,1-3.36,4.7l.645.975a5.859,5.859,0,0,0,3.345-3.51,5.654,5.654,0,0,0,3.21,3.195ZM-22.02-.2v-3.2h-1.23V.81h8.97V-.2Zm19.23-9.27V-7.98H-5.895V-9.465ZM-7.11-6.84h-3.63v-2h3.63Zm1.215-.18H-2.79v1.71h1.23v-7.02H-2.79v1.9H-5.895V-11.7H-7.11v1.9h-3.63v-1.92h-1.215V-5.85h6.06ZM-8.985-.045V-1.47H-1.56v-3.2h-8.67v.975h7.455V-2.4H-10.2V.93h9.15V-.045ZM5.07-9.96H8.13v-1H.8v1H3.84V-8.4A7.006,7.006,0,0,1,.315-2.52l.72.975A7.584,7.584,0,0,0,4.455-6.06,7.39,7.39,0,0,0,7.86-1.83L8.6-2.79A6.678,6.678,0,0,1,5.07-8.4Zm5.205-2.385v4.89H7.365v1h2.91V1.125h1.23v-13.47ZM21.27-5.835a4.376,4.376,0,0,1-3.255-3.99v-.525h2.97v-.99H13.77v.99h3.015v.525a4.765,4.765,0,0,1-3.375,4.38l.63.975a5.556,5.556,0,0,0,3.39-3.3,5.232,5.232,0,0,0,3.255,2.895ZM19.635.12c-2.01,0-3.21-.555-3.21-1.515s1.2-1.5,3.21-1.5c1.98,0,3.2.555,3.2,1.5S21.615.12,19.635.12Zm0-3.99c-2.76,0-4.44.915-4.44,2.475s1.68,2.49,4.44,2.49c2.73,0,4.425-.915,4.425-2.49S22.365-3.87,19.635-3.87ZM23.91-8.94v-3.39H22.68v8.115h1.23v-3.69H25.9V-8.94ZM-2.85,7.655V21.14h1.23V7.655ZM-8.715,8.69c-1.995,0-3.42,1.83-3.42,4.7s1.425,4.695,3.42,4.695,3.42-1.83,3.42-4.695S-6.72,8.69-8.715,8.69Zm0,1.11c1.305,0,2.235,1.41,2.235,3.585s-.93,3.6-2.235,3.6-2.25-1.41-2.25-3.6S-10.035,9.8-8.715,9.8ZM7.53,14a30.39,30.39,0,0,1-5.34.315v-2.04H6.75V8.465H.945V9.47H5.55v1.86H.99v3.99h.96a31.06,31.06,0,0,0,5.7-.33ZM2.49,17.66h7.77v3.465h1.23v-4.47h-9Zm7.77-9.99V9.65H7.635v1.005H10.26v1.8H7.635v.99H10.26v2.49h1.23V7.67Z" transform="translate(-11543 -5176)" fill="#505050"/><path d="M47.5,0A47.5,47.5,0,1,1,0,47.5,47.5,47.5,0,0,1,47.5,0Z" transform="translate(-11417 -5219.405)" fill="#fff" stroke="#57a580" stroke-width="2"/><path d="M-19.62-10.815c2.055,0,3.45.75,3.45,1.935s-1.4,1.95-3.45,1.95c-2.04,0-3.435-.765-3.435-1.95S-21.66-10.815-19.62-10.815Zm0,4.875c2.805,0,4.71-1.14,4.71-2.94s-1.905-2.925-4.71-2.925c-2.79,0-4.695,1.125-4.695,2.925S-22.41-5.94-19.62-5.94Zm6.12,1.26H-25.68v1.005h3.135V1.11H-21.3V-3.675h3.375V1.11h1.245V-3.675h3.18ZM-6.555.165c-2.16,0-3.375-.42-3.375-1.23S-8.715-2.3-6.555-2.3c2.175,0,3.375.435,3.375,1.23S-4.38.165-6.555.165Zm0-3.375c-2.925,0-4.605.75-4.605,2.145,0,1.41,1.68,2.16,4.605,2.16S-1.95.345-1.95-1.065C-1.95-2.46-3.63-3.21-6.555-3.21Zm.615-2.01V-6.54h4.05V-7.5H-9.81V-8.82h7.485v-.93H-9.81V-11h7.845v-.96H-11.04V-6.54h3.87v1.32h-5.475v.99H-.465v-.99ZM5.19-11.175H3.975V-8.76A7.069,7.069,0,0,1,.36-2.685L1.11-1.68A7.477,7.477,0,0,0,4.59-6.2a7.307,7.307,0,0,0,3.465,4.26l.735-.99A6.692,6.692,0,0,1,5.19-8.76Zm5.01-1.17V1.14h1.23V-12.345Zm11.07,6.51a4.376,4.376,0,0,1-3.255-3.99v-.525h2.97v-.99H13.77v.99h3.015v.525a4.765,4.765,0,0,1-3.375,4.38l.63.975a5.556,5.556,0,0,0,3.39-3.3,5.232,5.232,0,0,0,3.255,2.895ZM19.635.12c-2.01,0-3.21-.555-3.21-1.515s1.2-1.5,3.21-1.5c1.98,0,3.2.555,3.2,1.5S21.615.12,19.635.12Zm0-3.99c-2.76,0-4.44.915-4.44,2.475s1.68,2.49,4.44,2.49c2.73,0,4.425-.915,4.425-2.49S22.365-3.87,19.635-3.87ZM23.91-8.94v-3.39H22.68v8.115h1.23v-3.69H25.9V-8.94ZM-5.445,11.15v1.005H-2.79V15.68h1.245V7.67H-2.79v3.48Zm.75,3.06a4.632,4.632,0,0,1-3.27-4.11V9.635H-5.01v-.99h-7.185v.99h3V10.1a4.96,4.96,0,0,1-3.39,4.485l.645.975a5.823,5.823,0,0,0,3.39-3.42,5.527,5.527,0,0,0,3.24,3.03Zm-1.29,5.94c-2.025,0-3.255-.57-3.255-1.545s1.23-1.56,3.255-1.56,3.255.585,3.255,1.56S-3.96,20.15-5.985,20.15Zm0-4.05c-2.76,0-4.485.915-4.485,2.5s1.725,2.505,4.485,2.505,4.47-.915,4.47-2.505S-3.225,16.1-5.985,16.1Zm9.06-4.08h6.87v2.475H3.075Zm4.05,6.36V15.485h4.02V8.615h-1.2v2.4H3.075v-2.4H1.86v6.87H5.88V18.38H.42v1.005h12.2V18.38Z" transform="translate(-11370 -5175.405)" fill="#505050"/><circle cx="47.5" cy="47.5" r="47.5" transform="translate(-11357 -5337.405)" fill="#fff" stroke="#57a580" stroke-width="2"/><path d="M-17.22-7.725h1.71v3.69h1.185V-12.33H-15.51v3.6h-1.71v-3.345h-1.17V-4.47h1.17Zm-1.725,1.7a4.045,4.045,0,0,1-2.73-3.66v-1.815H-22.86V-9.69a4.659,4.659,0,0,1-2.805,4.02l.66.96A5.35,5.35,0,0,0-22.26-7.7,4.823,4.823,0,0,0-19.6-5.085Zm.18,6.18c-2.01,0-3.27-.54-3.27-1.47s1.26-1.455,3.27-1.455c2.04,0,3.285.525,3.285,1.455S-16.725.15-18.765.15Zm0-3.885c-2.76,0-4.485.885-4.485,2.415S-21.525,1.1-18.765,1.1c2.775,0,4.5-.885,4.5-2.415S-15.99-3.735-18.765-3.735Zm12.21-7.32c2.13,0,3.465.6,3.465,1.6S-4.425-7.845-6.555-7.845s-3.465-.6-3.465-1.605S-8.685-11.055-6.555-11.055Zm0,4.17c2.91,0,4.725-.945,4.725-2.565s-1.815-2.58-4.725-2.58-4.725.96-4.725,2.58S-9.45-6.885-6.555-6.885Zm1.65,3.72H-8.19v-1.71H-4.9Zm4.44-1.71v-.99H-12.63v.99h3.21v1.71h-1.86v.99h8.085v3.3h1.23v-4.29h-1.71v-1.71ZM7.98-8.76v1.005h2.28V-5.94H7.98v1.005h2.28v2.85h1.245V-12.33H10.26v3.57Zm0-1.935H4.89v-1.65H3.66v1.65H.45v.99H7.98Zm-5.6,4.29A1.665,1.665,0,0,1,4.26-8a1.665,1.665,0,0,1,1.875,1.59A1.678,1.678,0,0,1,4.26-4.785,1.678,1.678,0,0,1,2.385-6.405Zm4.92,0c0-1.53-1.26-2.55-3.045-2.55s-3.045,1.02-3.045,2.55,1.26,2.58,3.045,2.58S7.305-4.86,7.305-6.405ZM4.08-.2v-2.76H2.85V.81h8.97V-.2Zm17.385-10.98h-3.24V-12.45h-1.23v1.275H13.74v.915h7.725ZM15.63-7.785c0-.66.765-1.08,1.98-1.08,1.2,0,1.965.42,1.965,1.08S18.81-6.72,17.61-6.72C16.4-6.72,15.63-7.125,15.63-7.785ZM21.87-5.22c-1.155.165-2.415.255-3.645.33V-5.91c1.545-.15,2.52-.825,2.52-1.875,0-1.2-1.245-1.92-3.135-1.92-1.905,0-3.15.72-3.15,1.92,0,1.05.975,1.74,2.535,1.875v1.065c-1.29.045-2.52.06-3.585.06l.135.96a49.38,49.38,0,0,0,8.4-.54ZM19.59.18c-2.025,0-3.165-.42-3.165-1.155S17.565-2.13,19.59-2.13s3.165.405,3.165,1.155S21.615.18,19.59.18Zm0-3.225c-2.79,0-4.41.735-4.41,2.07S16.8,1.1,19.59,1.1C22.365,1.1,24,.36,24-.975S22.365-3.045,19.59-3.045ZM23.9-8.28v-4.05h-1.23v9.12H23.9V-7.26h1.98V-8.28ZM-1.59,7.67H-2.82v9.84h1.23Zm-2.82,6.945a4.581,4.581,0,0,1-3.375-4.11V9.77H-4.74V8.78h-7.38v.99h3.075v.735a4.79,4.79,0,0,1-3.405,4.38l.645.96A5.641,5.641,0,0,0-8.4,12.53a5.715,5.715,0,0,0,3.39,3.06Zm-4.605,5.19V16.58h-1.23v4.23h9.06v-1ZM8.2,13.55a28.444,28.444,0,0,1-5.94.45V9.815H6.99v-.99H1.035v6.18h1.05A29.1,29.1,0,0,0,8.34,14.54ZM3.72,16.415H2.49V20.81h8.97v-1H3.72Zm7.14-4.77V7.655H9.63V17.39h1.23V12.665h1.995v-1.02Z" transform="translate(-11309 -5293.405)" fill="#505050"/><circle cx="47.5" cy="47.5" r="47.5" transform="translate(-11647.5 -5337.5)" fill="#fff" stroke="#57a580" stroke-width="2"/><path d="M-7.56-5.58c-2.355-.45-4.9-2.49-4.9-4.785V-11.4h-1.29v1.035c0,2.3-2.535,4.32-4.89,4.785l.555,1.02a7.388,7.388,0,0,0,4.98-3.885,7.3,7.3,0,0,0,5,3.885Zm-11.6,3.87V-.69h12.2V-1.71Zm14.79-8.3H-.6V-3.3H-4.365Zm-1.2,7.7H.6V-11H-5.565ZM6.465-6.975H4.245V-12.33H3.015V1.11h1.23V-5.94h2.22Zm11.28,1.89h-8v-2.13h7.56V-8.19H9.75v-1.995h7.86v-.99H8.5V-4.1h9.24ZM6.93-1.635V-.63H19.14V-1.635ZM-7.05,13.715h-3.81v-2.22h3.81Zm1.2-5.205h-1.2v2.025h-3.81V8.51h-1.215v6.2H-5.85Zm-.615,11.625c-2.01,0-3.21-.57-3.21-1.53s1.2-1.515,3.21-1.515c1.98,0,3.2.555,3.2,1.515S-4.485,20.135-6.465,20.135Zm0-4.035c-2.745,0-4.44.915-4.44,2.5s1.695,2.505,4.44,2.505S-2.04,20.195-2.04,18.6-3.735,16.1-6.465,16.1Zm4.275-5.055V7.655H-3.42v8.1h1.23v-3.69H-.195v-1.02Zm6.555-.81h2.4V9.23H.63v1.005H3.18V11.45A7.021,7.021,0,0,1,.255,17.495l.75.915A6.965,6.965,0,0,0,3.78,14.15a6.433,6.433,0,0,0,2.7,3.93l.75-.9a6.518,6.518,0,0,1-2.865-5.73Zm3.6,2.25H5.745V13.49h2.22v6.915h1.17V7.955H7.965Zm2.7-4.845V21.095H11.85V7.64Z" transform="translate(-11600 -5294)" fill="#505050"/></g></svg>