<svg xmlns="http://www.w3.org/2000/svg" xmlns:xlink="http://www.w3.org/1999/xlink" width="230.539" height="117.65" viewBox="0 0 230.539 117.65"><defs><clipPath id="a"><path d="M183.575,53.725c-4.371,0-7.926-5.684-7.926-12.669s3.556-12.669,7.926-12.669S191.5,34.07,191.5,41.056,187.945,53.725,183.575,53.725Zm0-23.983c-3.623,0-6.571,5.075-6.571,11.314s2.947,11.314,6.571,11.314,6.569-5.075,6.569-11.314S187.2,29.742,183.575,29.742Z" transform="translate(-175.649 -28.387)" fill="#1d1d1b"/></clipPath></defs><g transform="translate(0 -1.032)"><path d="M8.638,0H201.732a8.638,8.638,0,0,1,8.638,8.638v5.721a0,0,0,0,1,0,0H0a0,0,0,0,1,0,0V8.638A8.638,8.638,0,0,1,8.638,0Z" transform="translate(10.076 98.105)" fill="#c9ae80"/><g transform="translate(167.861 89.416)"><path d="M185.772,99.64a5.474,5.474,0,0,0,7.962,2.512,5.475,5.475,0,0,0-7.962-2.512Z" transform="translate(-185.772 -98.847)" fill="#a2c870"/></g><g transform="translate(191.321 89.416)"><path d="M211.735,99.64a5.476,5.476,0,0,0,7.963,2.512,5.476,5.476,0,0,0-7.963-2.512Z" transform="translate(-211.735 -98.847)" fill="#a2c870"/></g><g transform="translate(159.392 34.049)"><path d="M189.229,37.59a14.093,14.093,0,0,0-12.02,6.137c-.065.09-.126.185-.19.276l8.19,9.265C188.6,46.474,189.229,37.59,189.229,37.59Z" transform="translate(-176.459 -37.571)" fill="#a2c870"/><path d="M186.064,54.944c-.062.124-.126.246-.19.368.148-.02.295-.04.457-.064Z" transform="translate(-177.313 -39.246)" fill="#a2c870"/><path d="M176.4,43.989s.056.482.177,1.211c.125-.2.253-.388.384-.577Z" transform="translate(-176.399 -38.19)" fill="#a2c870"/><path d="M176.979,44.69c-.131.19-.259.381-.384.577.342,2.041,1.22,6.068,2.978,7.255,2.279,1.54,2.2,2.237,5.406,1.8.063-.122.127-.244.19-.368Z" transform="translate(-176.418 -38.258)" fill="#a2c870"/></g><g transform="translate(0 87.687)"><rect width="230.539" height="1.355" transform="translate(0 22.484)" fill="#1d1d1b"/><path d="M9.451,120.972H8.1v-5.6a9.353,9.353,0,0,1,9.343-9.342h2.378v1.355H17.439a8,8,0,0,0-7.988,7.987Z" transform="translate(-0.781 -97.81)" fill="#1d1d1b"/><g transform="translate(191.232)"><path d="M216.855,101.974a4.867,4.867,0,0,1-1.466-.216,6.647,6.647,0,0,1-3.461-3.133l-.293-.586.576-.312a5.6,5.6,0,0,1,8.093,2.554l.293.586-.576.313A7.357,7.357,0,0,1,216.855,101.974Zm-3.329-3.338a4.009,4.009,0,0,0,5.182,1.635,4.007,4.007,0,0,0-5.182-1.635Z" transform="translate(-211.636 -96.933)" fill="#1d1d1b"/><rect width="1.355" height="5.143" transform="translate(7.375 3.572)" fill="#1d1d1b"/></g><g transform="translate(167.68)"><path d="M190.793,101.974a4.863,4.863,0,0,1-1.466-.216,6.642,6.642,0,0,1-3.462-3.133l-.294-.586.576-.312a5.6,5.6,0,0,1,8.093,2.554l.293.586-.576.313A7.356,7.356,0,0,1,190.793,101.974Zm-3.331-3.338a4.01,4.01,0,0,0,5.182,1.635,4.006,4.006,0,0,0-5.182-1.635Z" transform="translate(-185.572 -96.933)" fill="#1d1d1b"/><rect width="1.355" height="5.143" transform="translate(7.375 3.572)" fill="#1d1d1b"/></g></g><g transform="translate(156.444 1.032)" opacity="0.31"><path d="M207.427,74.8l-33.54-9.875V20.1L207.427,2.28Z" transform="translate(-173.209 -1.152)" fill="#fff"/><path d="M208.033,75.584l-34.9-10.274V19.575l34.9-18.543ZM174.492,64.3l32.185,9.475V3.287l-32.185,17.1Z" transform="translate(-173.137 -1.032)" fill="#1d1d1b"/></g><path d="M194.882,31.632a.678.678,0,0,1-.239-1.312l11.18-4.231a.678.678,0,0,1,.48,1.268l-11.18,4.231A.684.684,0,0,1,194.882,31.632Z" transform="translate(-18.724 -2.412)" fill="#1d1d1b"/><path d="M195.609,36.259a.678.678,0,0,1-.2-1.326l10.524-3.245a.678.678,0,0,1,.4,1.3l-10.524,3.245A.69.69,0,0,1,195.609,36.259Z" transform="translate(-18.794 -2.953)" fill="#1d1d1b"/><path d="M205.92,58.748a.676.676,0,0,1-.127-.012l-9.367-1.8a.678.678,0,0,1-.549-.665V38.737a.676.676,0,0,1,.545-.664l9.367-1.88a.678.678,0,0,1,.811.665V58.07a.676.676,0,0,1-.678.678Zm-8.689-3.041,8.011,1.542V37.684l-8.011,1.607Z" transform="translate(-18.885 -3.389)" fill="#1d1d1b"/><path d="M206.227,75.187a.656.656,0,0,1-.171-.022L179.251,68.2a.678.678,0,0,1,.341-1.312L206.4,73.853a.678.678,0,0,1-.17,1.334Z" transform="translate(-17.233 -6.347)" fill="#1d1d1b"/><g transform="translate(158.714 25.75)"><path d="M183.575,53.725c-4.371,0-7.926-5.684-7.926-12.669s3.556-12.669,7.926-12.669S191.5,34.07,191.5,41.056,187.945,53.725,183.575,53.725Zm0-23.983c-3.623,0-6.571,5.075-6.571,11.314s2.947,11.314,6.571,11.314,6.569-5.075,6.569-11.314S187.2,29.742,183.575,29.742Z" transform="translate(-175.649 -28.387)" fill="#1d1d1b"/><g clip-path="url(#a)"><g transform="translate(-5.907 6.247)"><path d="M170.425,61.369c-.374,0-.6-.019-.654-.024l-.659-.062.047-.66c.034-.486.893-11.992,5.847-18.882a14.647,14.647,0,0,1,12.635-6.415l.659.062-.047.66c-.034.486-.894,11.992-5.848,18.882A14.817,14.817,0,0,1,170.425,61.369Zm16.411-24.713a13.482,13.482,0,0,0-10.728,5.876c-4.054,5.637-5.263,14.874-5.531,17.482A13.483,13.483,0,0,0,181.3,54.138C185.358,48.5,186.568,39.264,186.836,36.656Z" transform="translate(-169.112 -35.3)" fill="#1d1d1b"/></g></g></g><path d="M222.346,94.571a.705.705,0,0,1-.136-.014l-1.506-.306a.678.678,0,1,1,.27-1.328l1.506.306a.678.678,0,0,1-.134,1.342Zm-6.527-1.326a.705.705,0,0,1-.136-.014l-1.506-.306a.678.678,0,0,1,.27-1.328l1.506.306a.678.678,0,0,1-.134,1.342Zm-6.527-1.326a.7.7,0,0,1-.136-.014l-1.505-.306a.678.678,0,1,1,.27-1.328l1.505.306a.678.678,0,0,1-.135,1.342Zm-6.525-1.327a.642.642,0,0,1-.136-.014l-1.506-.306a.677.677,0,1,1,.27-1.327l1.506.306a.677.677,0,0,1-.134,1.341Zm-6.527-1.326a.7.7,0,0,1-.136-.014l-1.506-.306a.678.678,0,0,1,.27-1.328l1.506.306a.678.678,0,0,1-.134,1.342Zm-6.527-1.326a.7.7,0,0,1-.136-.014l-1.505-.306a.678.678,0,1,1,.27-1.328l1.505.306a.678.678,0,0,1-.135,1.342Zm-6.525-1.326a.705.705,0,0,1-.136-.014l-1.506-.306a.678.678,0,1,1,.27-1.328l1.506.306a.678.678,0,0,1-.134,1.342Zm-6.527-1.327a.642.642,0,0,1-.136-.014l-1.506-.306a.677.677,0,1,1,.27-1.327l1.506.306a.677.677,0,0,1-.134,1.341Zm-6.527-1.326a.7.7,0,0,1-.136-.014l-1.505-.306a.678.678,0,1,1,.27-1.328l1.505.306a.678.678,0,0,1-.135,1.342Zm-6.525-1.327a.706.706,0,0,1-.136-.014l-1.506-.305a.678.678,0,1,1,.27-1.328l1.506.306a.677.677,0,0,1-.134,1.341ZM157.085,81.3a.706.706,0,0,1-.136-.014l-1.505-.306a.678.678,0,0,1,.269-1.328l1.506.306a.678.678,0,0,1-.134,1.342Zm-6.527-1.326a.7.7,0,0,1-.136-.014l-1.505-.306a.678.678,0,1,1,.27-1.328l1.505.306a.678.678,0,0,1-.135,1.342Zm-6.525-1.326a.643.643,0,0,1-.136-.014l-1.506-.305a.678.678,0,1,1,.27-1.328l1.506.306a.678.678,0,0,1-.134,1.342Zm-6.527-1.327a.69.69,0,0,1-.136-.014L135.865,77a.677.677,0,1,1,.269-1.327l1.506.305a.678.678,0,0,1-.134,1.342ZM130.981,76a.7.7,0,0,1-.136-.014l-1.505-.306a.678.678,0,1,1,.27-1.328l1.505.306A.678.678,0,0,1,130.981,76Zm-6.525-1.326a.706.706,0,0,1-.136-.014l-1.506-.306a.678.678,0,1,1,.27-1.328l1.506.306a.678.678,0,0,1-.134,1.342Z" transform="translate(-11.788 -6.939)" fill="#1d1d1b" opacity="0.31"/><path d="M178.638,105.841a.672.672,0,0,1-.333-.089L176.967,105a.678.678,0,1,1,.668-1.179l1.337.756a.678.678,0,0,1-.334,1.268Zm-5.8-3.277a.671.671,0,0,1-.333-.088l-1.338-.756a.678.678,0,1,1,.668-1.18l1.337.756a.678.678,0,0,1-.334,1.268Zm-5.8-3.276a.672.672,0,0,1-.333-.089l-1.338-.755a.678.678,0,1,1,.668-1.18l1.337.756a.678.678,0,0,1-.334,1.268Zm-5.8-3.277a.673.673,0,0,1-.333-.088l-1.339-.756a.678.678,0,1,1,.668-1.18l1.338.756a.678.678,0,0,1-.334,1.268Zm-5.8-3.276a.681.681,0,0,1-.333-.088l-1.338-.756a.678.678,0,1,1,.668-1.18l1.337.756a.678.678,0,0,1-.334,1.268Zm-5.8-3.277a.671.671,0,0,1-.333-.088l-1.338-.756a.678.678,0,1,1,.668-1.18l1.337.756a.678.678,0,0,1-.334,1.268Zm-5.8-3.276a.673.673,0,0,1-.333-.088l-1.338-.756a.678.678,0,1,1,.668-1.179l1.337.755a.678.678,0,0,1-.334,1.268Zm-5.8-3.276a.671.671,0,0,1-.333-.088l-1.338-.756a.678.678,0,1,1,.668-1.18l1.337.756a.678.678,0,0,1-.334,1.268Zm-5.8-3.277a.671.671,0,0,1-.333-.088l-1.338-.756a.678.678,0,1,1,.668-1.179l1.337.755a.678.678,0,0,1-.334,1.268Zm-5.8-3.276a.673.673,0,0,1-.333-.088l-1.339-.756a.678.678,0,1,1,.668-1.18l1.338.756a.678.678,0,0,1-.334,1.268Z" transform="translate(-11.998 -7.058)" fill="#1d1d1b" opacity="0.31"/><g transform="translate(7.946 24.009)"><path d="M119.03,103.6" transform="translate(-19.422 -33.899)" fill="#fff" stroke="#1d1d1b" stroke-miterlimit="10" stroke-width="1.5"/><g transform="translate(10.556 9.058)"><path d="M108.319,97.205h3.47a5.525,5.525,0,0,0,5.464-6.349l-3.6-23.924a7.769,7.769,0,0,0-7.682-6.612H74.618L65.562,37.235H21.226v59.97H79.662" transform="translate(-20.548 -36.557)" fill="#fff"/><path d="M111.716,97.811h-3.469V96.455h3.469a4.847,4.847,0,0,0,4.8-5.57l-3.6-23.923a7.051,7.051,0,0,0-7.014-6.036H74.084L65.027,37.84h-43.2V96.455H79.591v1.355H20.476V36.485H65.953l9.056,23.086H105.9a8.4,8.4,0,0,1,8.353,7.189l3.6,23.923a6.2,6.2,0,0,1-6.134,7.127Z" transform="translate(-20.476 -36.485)" fill="#1d1d1b"/></g><circle cx="20.277" cy="20.277" r="20.277" transform="translate(0 65.996) rotate(-45)" fill="#ccc"/><circle cx="13.803" cy="13.803" r="13.803" transform="translate(66.658 61.737) rotate(-13.282)" fill="#ccc"/><g transform="translate(7.721)"><rect width="50.005" height="9.057" transform="translate(0.678 0.678)" fill="#fff"/><path d="M68.7,36.874H17.339V26.461H68.7ZM18.694,35.519h48.65v-7.7H18.694Z" transform="translate(-17.339 -26.461)" fill="#1d1d1b"/></g><g transform="translate(21.929 14.128)"><path d="M75.832,60.861H33.811V42.846H68.766Z" transform="translate(-33.134 -42.168)" fill="#fff"/><path d="M76.753,61.467H33.062V42.1H69.156ZM34.417,60.112H74.766l-6.536-16.66H34.417Z" transform="translate(-33.062 -42.096)" fill="#1d1d1b"/></g><g transform="translate(75.179 23.136)"><rect width="9.008" height="9.007" transform="translate(0.678 0.678)" fill="#fff"/><path d="M102.357,62.428H91.994V52.066h10.363Zm-9.008-1.355H101V53.421H93.349Z" transform="translate(-91.994 -52.066)" fill="#1d1d1b"/></g><path d="M75.76,61.467H33.74a.678.678,0,0,1-.678-.678V42.774a.678.678,0,0,1,.678-.678H68.693a.678.678,0,0,1,0,1.355H34.417v16.66H75.76a.678.678,0,0,1,0,1.355Z" transform="translate(-11.133 -27.968)" fill="#1d1d1b"/><path d="M54.846,61.467a.678.678,0,0,1-.678-.678V42.774a.678.678,0,1,1,1.355,0V60.789A.678.678,0,0,1,54.846,61.467Z" transform="translate(-13.168 -27.968)" fill="#1d1d1b"/><path d="M115.9,71.024h-9.891a.678.678,0,0,1,0-1.355H115.9a.678.678,0,0,1,0,1.355Z" transform="translate(-18.101 -30.627)" fill="#1d1d1b"/><path d="M116.5,75.924h-9.89a.678.678,0,0,1,0-1.355h9.89a.678.678,0,1,1,0,1.355Z" transform="translate(-18.159 -31.099)" fill="#1d1d1b"/><path d="M117.088,80.824H107.2a.678.678,0,0,1,0-1.355h9.891a.678.678,0,1,1,0,1.355Z" transform="translate(-18.216 -31.572)" fill="#1d1d1b"/><path d="M97.656,52.46a.678.678,0,0,1-.678-.678v-6.11a.678.678,0,0,1,.253-.529l3.614-2.9a.678.678,0,1,1,.848,1.057L98.333,46v5.785A.678.678,0,0,1,97.656,52.46Z" transform="translate(-17.296 -27.968)" fill="#1d1d1b"/><path d="M42.647,105.147a7.793,7.793,0,1,1,7.793-7.792A7.8,7.8,0,0,1,42.647,105.147Zm0-14.231a6.438,6.438,0,1,0,6.438,6.439A6.444,6.444,0,0,0,42.647,90.916Z" transform="translate(-11.306 -32.545)" fill="#1d1d1b"/><g transform="translate(18.089 49.786)"><path d="M43.286,85.152a1.8,1.8,0,1,1,1.8-1.8A1.8,1.8,0,0,1,43.286,85.152Zm0-2.237a.441.441,0,1,0,.441.441A.441.441,0,0,0,43.286,82.914Z" transform="translate(-30.035 -81.559)" fill="#1d1d1b"/><path d="M30.607,92.472a1.8,1.8,0,0,1-1.555-2.694,1.8,1.8,0,0,1,2.453-.66h0a1.8,1.8,0,0,1-.9,3.352Zm0-2.236a.443.443,0,0,0-.384.22.444.444,0,1,0,.384-.22Z" transform="translate(-28.812 -82.265)" fill="#1d1d1b"/><path d="M30.613,107.111a1.813,1.813,0,0,1-.469-.062,1.8,1.8,0,0,1-.433-3.289h0a1.8,1.8,0,1,1,.9,3.351Zm0-2.237a.433.433,0,0,0-.218.059h0a.44.44,0,1,0,.6.164.437.437,0,0,0-.383-.222Z" transform="translate(-28.813 -83.676)" fill="#1d1d1b"/><path d="M43.286,114.429a1.8,1.8,0,1,1,1.8-1.8A1.8,1.8,0,0,1,43.286,114.429Zm0-2.236a.44.44,0,1,0,.441.44A.44.44,0,0,0,43.286,112.192Z" transform="translate(-30.035 -84.382)" fill="#1d1d1b"/><path d="M55.959,107.109a1.784,1.784,0,0,1-.894-.24h0a1.8,1.8,0,1,1,.895.24Zm-.216-1.414a.44.44,0,1,0-.161-.6.432.432,0,0,0-.043.333A.441.441,0,0,0,55.743,105.695Z" transform="translate(-31.257 -83.676)" fill="#1d1d1b"/><path d="M55.966,92.47a1.8,1.8,0,1,1,.9-.24A1.8,1.8,0,0,1,55.966,92.47Zm0-2.235a.44.44,0,1,0,.222.82h0a.429.429,0,0,0,.2-.266.437.437,0,0,0-.043-.334A.444.444,0,0,0,55.962,90.235Z" transform="translate(-31.257 -82.265)" fill="#1d1d1b"/></g><path d="M42.647,105.147a7.793,7.793,0,1,1,7.793-7.792A7.8,7.8,0,0,1,42.647,105.147Zm0-14.231a6.438,6.438,0,1,0,6.438,6.439A6.444,6.444,0,0,0,42.647,90.916Z" transform="translate(-11.306 -32.545)" fill="#1d1d1b"/><g transform="translate(4.208 37.679)"><path d="M40.655,68.91A26.455,26.455,0,0,0,14.2,95.364h7.355a19.1,19.1,0,1,1,38.2,0H67.11A26.455,26.455,0,0,0,40.655,68.91Z" transform="translate(-13.523 -68.232)" fill="#fff"/><path d="M67.715,95.97h-8.71v-.678a18.422,18.422,0,1,0-36.844,0v.678H13.451v-.678a27.132,27.132,0,0,1,54.264,0ZM60.35,94.614h6a25.777,25.777,0,0,0-51.535,0h6a19.778,19.778,0,0,1,39.532,0Z" transform="translate(-13.451 -68.16)" fill="#1d1d1b"/></g><path d="M115.111,104.544h-1.355a13.626,13.626,0,1,0-27.252,0H85.148a14.981,14.981,0,1,1,29.963,0Z" transform="translate(-16.155 -32.545)" fill="#1d1d1b"/><path d="M102.8,110.977a5.412,5.412,0,1,1,5.412-5.412A5.419,5.419,0,0,1,102.8,110.977Zm0-9.47a4.057,4.057,0,1,0,4.057,4.058A4.063,4.063,0,0,0,102.8,101.507Z" transform="translate(-17.335 -33.566)" fill="#1d1d1b"/><g transform="translate(76.641 61.999)"><path d="M103.246,97.468a1.2,1.2,0,1,1,1.2-1.2A1.2,1.2,0,0,1,103.246,97.468Zm0-1.489a.293.293,0,1,0,.292.294A.293.293,0,0,0,103.246,95.979Z" transform="translate(-94.426 -95.075)" fill="#1d1d1b"/><path d="M94.808,102.339a1.2,1.2,0,0,1-1.155-.886,1.195,1.195,0,1,1,1.155.886Zm0-1.488a.3.3,0,0,0-.076.01.294.294,0,0,0-.208.359.287.287,0,0,0,.136.175.3.3,0,0,0,.224.031.294.294,0,0,0,.2-.358.284.284,0,0,0-.135-.177h0A.291.291,0,0,0,94.81,100.851Z" transform="translate(-93.612 -95.545)" fill="#1d1d1b"/><path d="M94.811,112.082a1.228,1.228,0,0,1-.313-.042,1.2,1.2,0,0,1-.288-2.19h0a1.2,1.2,0,1,1,.6,2.232Zm-.148-1.449a.292.292,0,0,0-.108.4.3.3,0,0,0,.177.137.3.3,0,0,0,.221-.029.29.29,0,0,0,.136-.178.285.285,0,0,0-.029-.22.289.289,0,0,0-.4-.108Z" transform="translate(-93.612 -96.484)" fill="#1d1d1b"/><path d="M103.246,116.952a1.2,1.2,0,1,1,1.2-1.2A1.2,1.2,0,0,1,103.246,116.952Zm0-1.489a.293.293,0,1,0,.292.294A.293.293,0,0,0,103.246,115.463Z" transform="translate(-94.426 -96.954)" fill="#1d1d1b"/><path d="M111.681,112.081a1.186,1.186,0,0,1-.6-.161h0a1.2,1.2,0,0,1-.439-1.633,1.2,1.2,0,0,1,2.074,1.195,1.188,1.188,0,0,1-.728.558A1.217,1.217,0,0,1,111.681,112.081Zm0-1.487a.289.289,0,0,0-.284.367.286.286,0,0,0,.135.176h0a.292.292,0,1,0,.293-.505A.281.281,0,0,0,111.684,110.594Z" transform="translate(-95.239 -96.484)" fill="#1d1d1b"/><path d="M111.684,102.339a1.206,1.206,0,0,1-.31-.041,1.2,1.2,0,1,1,.907-.12h0A1.192,1.192,0,0,1,111.684,102.339Zm0-1.488a.283.283,0,0,0-.146.04.292.292,0,0,0,.071.535.3.3,0,0,0,.222-.031h0a.294.294,0,0,0,.106-.4A.294.294,0,0,0,111.682,100.851Z" transform="translate(-95.239 -95.545)" fill="#1d1d1b"/></g><path d="M102.8,110.977a5.412,5.412,0,1,1,5.412-5.412A5.419,5.419,0,0,1,102.8,110.977Zm0-9.47a4.057,4.057,0,1,0,4.057,4.058A4.063,4.063,0,0,0,102.8,101.507Z" transform="translate(-17.335 -33.566)" fill="#1d1d1b"/></g></g></svg>