<svg xmlns="http://www.w3.org/2000/svg" width="189.73" height="131.998" viewBox="0 0 189.73 131.998"><g transform="translate(-1316.134 -2041.532)"><g transform="translate(1731.943 2086.648)"><g transform="translate(-351.468 -45.117)"><path d="M-252.849-26.739a11.333,11.333,0,0,0-3.321.5,11.137,11.137,0,0,0-10.148-6.574,11.093,11.093,0,0,0-6.416,2.039,17.3,17.3,0,0,0-18.044-14.31A17.59,17.59,0,0,0-305.39-34.96a16.233,16.233,0,0,0-1.184,11.208,10.755,10.755,0,0,0-4.718,8.546c-.2,6.118,5.072,11.129,11.194,11.129h46.692c.063,0,.123-.017.187-.018.124,0,.246.018.372.018a11.331,11.331,0,0,0,11.331-11.331A11.331,11.331,0,0,0-252.849-26.739Z" transform="translate(311.298 45.117)" fill="#82abdb"/></g><path d="M-258.376-1.395c-.084,0-.167-.006-.249-.011l-.138-.008a.8.8,0,0,1-.171.019h-8.576v-.923h8.576a1.4,1.4,0,0,1,.176-.019l.2.01c.061,0,.122.009.185.009a10.882,10.882,0,0,0,10.87-10.87,10.882,10.882,0,0,0-10.87-10.869,10.865,10.865,0,0,0-3.186.477l-.388.119-.167-.37a10.708,10.708,0,0,0-9.726-6.3,10.622,10.622,0,0,0-6.15,1.955l-.6.42-.124-.719a16.829,16.829,0,0,0-17.564-13.928A17.056,17.056,0,0,0-310.5-32.54a15.73,15.73,0,0,0-1.152,10.9l.075.31-.264.18a10.34,10.34,0,0,0-4.516,8.179,9.984,9.984,0,0,0,2.883,7.309,10.985,10.985,0,0,0,7.849,3.344h12.567v.923h-12.567a11.912,11.912,0,0,1-8.512-3.625A10.9,10.9,0,0,1-317.281-13a11.268,11.268,0,0,1,4.659-8.73,16.58,16.58,0,0,1,1.289-11.209,17.978,17.978,0,0,1,15-10.388,17.772,17.772,0,0,1,18.393,14,11.53,11.53,0,0,1,6.094-1.734,11.633,11.633,0,0,1,10.4,6.485,11.774,11.774,0,0,1,3.071-.406,11.806,11.806,0,0,1,11.793,11.793A11.806,11.806,0,0,1-258.376-1.395Z" transform="translate(-37.868 -0.676)" fill="#1d1d1b"/><path d="M-387.909,85.429l-.653-.653,24.382-24.382,15.2,15.2-.653.653L-364.179,61.7Z" transform="translate(-10.473 -40.554)" fill="#1d1d1b"/><path d="M-219.736,83.86l-43.707-43.707L-296.369,73.08l-.653-.653,33.579-33.579,44.36,44.36Z" transform="translate(-45.657 -32.273)" fill="#1d1d1b"/><path d="M-331.858,68.819l-.653-.653,15.774-15.774,12.513,12.513-.653.653-11.86-11.86Z" transform="translate(-32.017 -37.479)" fill="#1d1d1b"/><path d="M-158.994,85.359l-15.121-15.121L-186.2,82.322l-.653-.653,12.737-12.737,15.774,15.774Z" transform="translate(-88.002 -43.836)" fill="#1d1d1b"/><g transform="translate(-384.443 36.192)"><g transform="translate(2.669 7.617)"><rect width="3.451" height="0.923" transform="translate(5.088 7.704)" fill="#1d1d1b"/><rect width="5.944" height="0.923" transform="translate(3.822 12.389)" fill="#1d1d1b"/><rect width="8.509" height="0.923" transform="translate(2.542 17.127)" fill="#1d1d1b"/><rect width="11.02" height="0.923" transform="translate(1.333 21.598)" fill="#1d1d1b"/><path d="M-347.783,124.791l-5.925-21.924-5.925,21.924-.892-.241,6.817-25.222,6.817,25.222Z" transform="translate(360.525 -99.328)" fill="#1d1d1b"/></g><rect width="0.923" height="7.19" transform="translate(9.024 2.196)" fill="#1d1d1b"/><rect width="0.923" height="4.551" transform="translate(7.022 2.924)" fill="#1d1d1b"/><rect width="0.923" height="4.551" transform="translate(11.118 2.924)" fill="#1d1d1b"/><g transform="translate(13.37 0.003)"><path d="M-342.5,95.678l-.645-.662a1.429,1.429,0,0,0,.441-1.031,1.437,1.437,0,0,0-.41-1l.664-.642a2.357,2.357,0,0,1,.67,1.646A2.347,2.347,0,0,1-342.5,95.678Z" transform="translate(343.144 -89.028)" fill="#1d1d1b"/><path d="M-337.1,96.91l-.686-.617a6.551,6.551,0,0,0,1.689-4.386,6.551,6.551,0,0,0-1.646-4.335l.692-.611a7.471,7.471,0,0,1,1.878,4.946A7.472,7.472,0,0,1-337.1,96.91Z" transform="translate(341.083 -86.961)" fill="#1d1d1b"/><path d="M-342.5,95.678l-.645-.662a1.429,1.429,0,0,0,.441-1.031,1.437,1.437,0,0,0-.41-1l.664-.642a2.357,2.357,0,0,1,.67,1.646A2.347,2.347,0,0,1-342.5,95.678Z" transform="translate(343.144 -89.028)" fill="#1d1d1b"/><path d="M-339.792,96.29l-.68-.624a4.025,4.025,0,0,0,1.073-2.721,4.026,4.026,0,0,0-1.033-2.677l.689-.614a4.944,4.944,0,0,1,1.268,3.291A4.943,4.943,0,0,1-339.792,96.29Z" transform="translate(342.117 -87.996)" fill="#1d1d1b"/><path d="M-339.792,96.29l-.68-.624a4.025,4.025,0,0,0,1.073-2.721,4.026,4.026,0,0,0-1.033-2.677l.689-.614a4.944,4.944,0,0,1,1.268,3.291A4.943,4.943,0,0,1-339.792,96.29Z" transform="translate(342.117 -87.996)" fill="#1d1d1b"/><path d="M-337.1,96.91l-.686-.617a6.551,6.551,0,0,0,1.689-4.386,6.551,6.551,0,0,0-1.646-4.335l.692-.611a7.471,7.471,0,0,1,1.878,4.946A7.472,7.472,0,0,1-337.1,96.91Z" transform="translate(341.083 -86.961)" fill="#1d1d1b"/></g><path d="M-356.8,95.655a2.358,2.358,0,0,1-.67-1.646,2.348,2.348,0,0,1,.72-1.693l.645.661a1.432,1.432,0,0,0-.441,1.032,1.437,1.437,0,0,0,.41,1Z" transform="translate(362.021 -89.016)" fill="#1d1d1b"/><path d="M-362.983,96.905a7.471,7.471,0,0,1-1.878-4.946,7.474,7.474,0,0,1,1.926-5l.686.617a6.552,6.552,0,0,0-1.689,4.386,6.55,6.55,0,0,0,1.646,4.335Z" transform="translate(364.861 -86.956)" fill="#1d1d1b"/><path d="M-356.8,95.655a2.358,2.358,0,0,1-.67-1.646,2.348,2.348,0,0,1,.72-1.693l.645.661a1.432,1.432,0,0,0-.441,1.032,1.437,1.437,0,0,0,.41,1Z" transform="translate(362.021 -89.016)" fill="#1d1d1b"/><path d="M-359.9,96.281a4.947,4.947,0,0,1-1.268-3.291,4.943,4.943,0,0,1,1.316-3.345l.68.624a4.023,4.023,0,0,0-1.073,2.721,4.024,4.024,0,0,0,1.033,2.677Z" transform="translate(363.443 -87.99)" fill="#1d1d1b"/><path d="M-359.9,96.281a4.947,4.947,0,0,1-1.268-3.291,4.943,4.943,0,0,1,1.316-3.345l.68.624a4.023,4.023,0,0,0-1.073,2.721,4.024,4.024,0,0,0,1.033,2.677Z" transform="translate(363.443 -87.99)" fill="#1d1d1b"/><path d="M-362.983,96.905a7.471,7.471,0,0,1-1.878-4.946,7.474,7.474,0,0,1,1.926-5l.686.617a6.552,6.552,0,0,0-1.689,4.386,6.55,6.55,0,0,0,1.646,4.335Z" transform="translate(364.861 -86.956)" fill="#1d1d1b"/></g><g transform="translate(-302.628 36.192)"><g transform="translate(2.669 7.617)"><rect width="3.451" height="0.923" transform="translate(5.088 7.704)" fill="#1d1d1b"/><rect width="5.944" height="0.923" transform="translate(3.822 12.389)" fill="#1d1d1b"/><rect width="8.51" height="0.923" transform="translate(2.542 17.127)" fill="#1d1d1b"/><rect width="11.02" height="0.923" transform="translate(1.333 21.598)" fill="#1d1d1b"/><path d="M-226.74,124.791l-.892-.241,6.817-25.222L-214,124.55l-.892.241-5.925-21.924Z" transform="translate(227.631 -99.328)" fill="#1d1d1b"/></g><rect width="0.923" height="7.19" transform="translate(9.024 2.196)" fill="#1d1d1b"/><rect width="0.923" height="4.551" transform="translate(7.022 2.924)" fill="#1d1d1b"/><rect width="0.923" height="4.551" transform="translate(11.117 2.924)" fill="#1d1d1b"/><g transform="translate(13.37 0.003)"><path d="M-209.6,95.678l-.645-.662a1.433,1.433,0,0,0,.441-1.031,1.44,1.44,0,0,0-.41-1l.664-.642a2.357,2.357,0,0,1,.67,1.646A2.349,2.349,0,0,1-209.6,95.678Z" transform="translate(210.249 -89.028)" fill="#1d1d1b"/><path d="M-204.2,96.91l-.687-.617a6.551,6.551,0,0,0,1.689-4.386,6.548,6.548,0,0,0-1.646-4.335l.692-.611a7.471,7.471,0,0,1,1.878,4.946A7.472,7.472,0,0,1-204.2,96.91Z" transform="translate(208.189 -86.961)" fill="#1d1d1b"/><path d="M-209.6,95.678l-.645-.662a1.433,1.433,0,0,0,.441-1.031,1.44,1.44,0,0,0-.41-1l.664-.642a2.357,2.357,0,0,1,.67,1.646A2.349,2.349,0,0,1-209.6,95.678Z" transform="translate(210.249 -89.028)" fill="#1d1d1b"/><path d="M-206.9,96.29l-.681-.624a4.025,4.025,0,0,0,1.074-2.721,4.026,4.026,0,0,0-1.034-2.677l.689-.614a4.945,4.945,0,0,1,1.268,3.291A4.946,4.946,0,0,1-206.9,96.29Z" transform="translate(209.222 -87.996)" fill="#1d1d1b"/><path d="M-206.9,96.29l-.681-.624a4.025,4.025,0,0,0,1.074-2.721,4.026,4.026,0,0,0-1.034-2.677l.689-.614a4.945,4.945,0,0,1,1.268,3.291A4.946,4.946,0,0,1-206.9,96.29Z" transform="translate(209.222 -87.996)" fill="#1d1d1b"/><path d="M-204.2,96.91l-.687-.617a6.551,6.551,0,0,0,1.689-4.386,6.548,6.548,0,0,0-1.646-4.335l.692-.611a7.471,7.471,0,0,1,1.878,4.946A7.472,7.472,0,0,1-204.2,96.91Z" transform="translate(208.189 -86.961)" fill="#1d1d1b"/></g><path d="M-223.909,95.655a2.36,2.36,0,0,1-.67-1.646,2.346,2.346,0,0,1,.72-1.693l.645.661a1.433,1.433,0,0,0-.441,1.032,1.44,1.44,0,0,0,.41,1Z" transform="translate(229.127 -89.016)" fill="#1d1d1b"/><path d="M-230.088,96.905a7.471,7.471,0,0,1-1.878-4.946,7.475,7.475,0,0,1,1.926-5l.686.617a6.552,6.552,0,0,0-1.689,4.386,6.547,6.547,0,0,0,1.646,4.335Z" transform="translate(231.966 -86.956)" fill="#1d1d1b"/><path d="M-223.909,95.655a2.36,2.36,0,0,1-.67-1.646,2.346,2.346,0,0,1,.72-1.693l.645.661a1.433,1.433,0,0,0-.441,1.032,1.44,1.44,0,0,0,.41,1Z" transform="translate(229.127 -89.016)" fill="#1d1d1b"/><path d="M-227.009,96.281a4.944,4.944,0,0,1-1.268-3.291,4.944,4.944,0,0,1,1.316-3.345l.681.624a4.022,4.022,0,0,0-1.073,2.721,4.024,4.024,0,0,0,1.033,2.677Z" transform="translate(230.548 -87.99)" fill="#1d1d1b"/><path d="M-227.009,96.281a4.944,4.944,0,0,1-1.268-3.291,4.944,4.944,0,0,1,1.316-3.345l.681.624a4.022,4.022,0,0,0-1.073,2.721,4.024,4.024,0,0,0,1.033,2.677Z" transform="translate(230.548 -87.99)" fill="#1d1d1b"/><path d="M-230.088,96.905a7.471,7.471,0,0,1-1.878-4.946,7.475,7.475,0,0,1,1.926-5l.686.617a6.552,6.552,0,0,0-1.689,4.386,6.547,6.547,0,0,0,1.646,4.335Z" transform="translate(231.966 -86.956)" fill="#1d1d1b"/></g><g transform="translate(-356.282 50.444)"><g transform="translate(0)"><path d="M-308.743,121.142a2.021,2.021,0,0,0-2.806-.042l-.642-.664a2.9,2.9,0,0,1,2.026-.824,2.888,2.888,0,0,1,2.083.887Z" transform="translate(316.456 -113.76)" fill="#1d1d1b"/><path d="M-307.109,113.237a8.563,8.563,0,0,0-5.732-2.207,8.558,8.558,0,0,0-5.665,2.152l-.611-.692a9.478,9.478,0,0,1,6.276-2.383,9.482,9.482,0,0,1,6.35,2.444Z" transform="translate(319.118 -110.106)" fill="#1d1d1b"/><path d="M-307.915,117.192a5.308,5.308,0,0,0-3.591-1.415,5.308,5.308,0,0,0-3.532,1.363l-.614-.689a6.229,6.229,0,0,1,4.146-1.6,6.23,6.23,0,0,1,4.215,1.659Z" transform="translate(317.786 -111.931)" fill="#1d1d1b"/></g><circle cx="0.701" cy="0.701" r="0.701" transform="translate(5.61 8.202)" fill="#1d1d1b"/></g><g transform="translate(-325.203 50.444)"><path d="M-258.26,121.142a2.022,2.022,0,0,0-2.807-.042l-.641-.664a2.9,2.9,0,0,1,2.026-.824,2.888,2.888,0,0,1,2.083.887Z" transform="translate(265.973 -113.76)" fill="#1d1d1b"/><path d="M-256.626,113.237a8.563,8.563,0,0,0-5.732-2.207,8.558,8.558,0,0,0-5.665,2.152l-.611-.692a9.477,9.477,0,0,1,6.276-2.383,9.482,9.482,0,0,1,6.35,2.444Z" transform="translate(268.635 -110.106)" fill="#1d1d1b"/><path d="M-257.432,117.192a5.311,5.311,0,0,0-3.591-1.415,5.308,5.308,0,0,0-3.532,1.363l-.614-.689a6.228,6.228,0,0,1,4.146-1.6,6.231,6.231,0,0,1,4.215,1.659Z" transform="translate(267.303 -111.931)" fill="#1d1d1b"/><circle cx="0.701" cy="0.701" r="0.701" transform="translate(5.61 8.202)" fill="#1d1d1b"/></g><g transform="translate(-268.514 50.444)"><path d="M-166.177,121.142a2.022,2.022,0,0,0-2.807-.042l-.642-.664a2.9,2.9,0,0,1,2.026-.824,2.889,2.889,0,0,1,2.084.887Z" transform="translate(173.891 -113.76)" fill="#1d1d1b"/><path d="M-164.544,113.237a8.56,8.56,0,0,0-5.732-2.207,8.558,8.558,0,0,0-5.666,2.152l-.611-.692a9.481,9.481,0,0,1,6.277-2.383,9.481,9.481,0,0,1,6.349,2.444Z" transform="translate(176.553 -110.106)" fill="#1d1d1b"/><path d="M-165.35,117.192a5.309,5.309,0,0,0-3.59-1.415,5.31,5.31,0,0,0-3.533,1.363l-.614-.689a6.229,6.229,0,0,1,4.147-1.6,6.229,6.229,0,0,1,4.215,1.659Z" transform="translate(175.221 -111.931)" fill="#1d1d1b"/><circle cx="0.701" cy="0.701" r="0.701" transform="translate(5.61 8.202)" fill="#1d1d1b"/></g><path d="M-349.7,60.759a.462.462,0,0,1-.462-.462V58.892a.462.462,0,0,1,.462-.462.462.462,0,0,1,.462.462V60.3A.462.462,0,0,1-349.7,60.759Zm0-4.78a.462.462,0,0,1-.462-.462V54.112a.461.461,0,0,1,.462-.462.461.461,0,0,1,.462.462v1.405A.462.462,0,0,1-349.7,55.98Zm0-4.78a.462.462,0,0,1-.462-.462V49.332a.462.462,0,0,1,.462-.462.462.462,0,0,1,.462.462v1.406A.462.462,0,0,1-349.7,51.2Zm0-4.78a.462.462,0,0,1-.462-.462V44.553a.462.462,0,0,1,.462-.462.462.462,0,0,1,.462.462v1.406A.462.462,0,0,1-349.7,46.42Zm0-4.78a.462.462,0,0,1-.462-.462V39.773a.461.461,0,0,1,.462-.462.461.461,0,0,1,.462.462v1.406A.462.462,0,0,1-349.7,41.64Zm0-4.78a.462.462,0,0,1-.462-.462V34.993a.462.462,0,0,1,.462-.462.462.462,0,0,1,.462.462V36.4A.462.462,0,0,1-349.7,36.86Zm47.425-1.918h-1.545a.462.462,0,0,1-.462-.462.462.462,0,0,1,.462-.462h.643a.463.463,0,0,1,.441-.323.462.462,0,0,1,.462.462Zm-4.919,0H-308.6a.462.462,0,0,1-.462-.462.462.462,0,0,1,.462-.462h1.406a.462.462,0,0,1,.462.462A.462.462,0,0,1-307.193,34.942Zm-4.78,0h-1.406a.462.462,0,0,1-.462-.462.462.462,0,0,1,.462-.462h1.406a.462.462,0,0,1,.462.462A.462.462,0,0,1-311.973,34.942Zm-4.78,0h-1.406a.462.462,0,0,1-.462-.462.462.462,0,0,1,.462-.462h1.406a.462.462,0,0,1,.462.462A.462.462,0,0,1-316.753,34.942Zm-4.78,0h-1.406a.462.462,0,0,1-.462-.462.462.462,0,0,1,.462-.462h1.406a.462.462,0,0,1,.462.462A.462.462,0,0,1-321.533,34.942Zm-4.78,0h-1.406a.462.462,0,0,1-.462-.462.462.462,0,0,1,.462-.462h1.406a.462.462,0,0,1,.462.462A.462.462,0,0,1-326.312,34.942Zm-4.78,0H-332.5a.462.462,0,0,1-.462-.462.462.462,0,0,1,.462-.462h1.406a.462.462,0,0,1,.462.462A.462.462,0,0,1-331.092,34.942Zm-4.78,0h-1.406a.462.462,0,0,1-.462-.462.462.462,0,0,1,.462-.462h1.406a.462.462,0,0,1,.462.462A.462.462,0,0,1-335.872,34.942Zm-4.78,0h-1.406a.462.462,0,0,1-.462-.462.462.462,0,0,1,.462-.462h1.406a.462.462,0,0,1,.462.462A.462.462,0,0,1-340.652,34.942Zm-4.78,0h-1.406a.462.462,0,0,1-.462-.462.462.462,0,0,1,.462-.462h1.406a.462.462,0,0,1,.462.462A.462.462,0,0,1-345.432,34.942Zm42.7-3.7a.461.461,0,0,1-.462-.462V29.378a.461.461,0,0,1,.462-.462.462.462,0,0,1,.462.462v1.406A.462.462,0,0,1-302.736,31.246Zm0-4.78A.461.461,0,0,1-303.2,26V24.6a.461.461,0,0,1,.462-.462.462.462,0,0,1,.462.462V26A.462.462,0,0,1-302.736,26.466Z" transform="translate(-25.233 -26.619)" fill="#c3c3c3"/><path d="M-308.015,72.854a.462.462,0,0,1-.462-.462V70.986a.462.462,0,0,1,.462-.462.462.462,0,0,1,.462.462v1.406A.462.462,0,0,1-308.015,72.854Zm0-4.78a.462.462,0,0,1-.462-.462V66.206a.462.462,0,0,1,.462-.462.462.462,0,0,1,.462.462v1.406A.462.462,0,0,1-308.015,68.074Zm0-4.78a.462.462,0,0,1-.462-.462V61.427a.462.462,0,0,1,.462-.462.462.462,0,0,1,.462.462v1.406A.462.462,0,0,1-308.015,63.295Zm0-4.78a.462.462,0,0,1-.462-.462V56.647a.461.461,0,0,1,.462-.462.461.461,0,0,1,.462.462v1.406A.462.462,0,0,1-308.015,58.515Zm0-4.78a.462.462,0,0,1-.462-.462V51.867a.462.462,0,0,1,.462-.462.462.462,0,0,1,.462.462v1.406A.462.462,0,0,1-308.015,53.735Zm0-4.78a.462.462,0,0,1-.462-.462V47.087a.462.462,0,0,1,.462-.462.462.462,0,0,1,.462.462v1.406A.462.462,0,0,1-308.015,48.955Zm0-4.78a.462.462,0,0,1-.462-.462V42.308a.461.461,0,0,1,.462-.462.461.461,0,0,1,.462.462v1.406A.462.462,0,0,1-308.015,44.175Zm0-4.78a.462.462,0,0,1-.462-.462V37.508h.9a.462.462,0,0,1,.462.462.463.463,0,0,1-.442.462v.5A.462.462,0,0,1-308.015,39.4Zm24.341-.964h-1.406a.462.462,0,0,1-.462-.462.462.462,0,0,1,.462-.462h1.406a.462.462,0,0,1,.462.462A.462.462,0,0,1-283.674,38.431Zm-4.78,0h-1.405a.462.462,0,0,1-.462-.462.462.462,0,0,1,.462-.462h1.405a.462.462,0,0,1,.462.462A.462.462,0,0,1-288.455,38.431Zm-4.78,0h-1.406a.462.462,0,0,1-.462-.462.462.462,0,0,1,.462-.462h1.406a.462.462,0,0,1,.462.462A.462.462,0,0,1-293.234,38.431Zm-4.779,0h-1.406a.462.462,0,0,1-.462-.462.462.462,0,0,1,.462-.462h1.406a.462.462,0,0,1,.462.462A.462.462,0,0,1-298.014,38.431Zm-4.78,0H-304.2a.462.462,0,0,1-.462-.462.462.462,0,0,1,.462-.462h1.406a.462.462,0,0,1,.462.462A.462.462,0,0,1-302.794,38.431Zm20.652-1.842a.462.462,0,0,1-.462-.462V34.722a.462.462,0,0,1,.462-.462.462.462,0,0,1,.462.462v1.406A.462.462,0,0,1-282.142,36.589Zm0-4.78a.462.462,0,0,1-.462-.462V29.942a.462.462,0,0,1,.462-.462.462.462,0,0,1,.462.462v1.405A.462.462,0,0,1-282.142,31.81Zm0-4.78a.462.462,0,0,1-.462-.462V25.163a.462.462,0,0,1,.462-.462.462.462,0,0,1,.462.462v1.406A.462.462,0,0,1-282.142,27.03Zm0-4.78a.462.462,0,0,1-.462-.462V20.383a.462.462,0,0,1,.462-.462.462.462,0,0,1,.462.462v1.406A.462.462,0,0,1-282.142,22.25Z" transform="translate(-41.254 -24.998)" fill="#c3c3c3"/><path d="M-258.666,74.606a.462.462,0,0,1-.462-.462V72.738a.462.462,0,0,1,.462-.462.462.462,0,0,1,.462.462v1.406A.462.462,0,0,1-258.666,74.606Zm0-4.78a.462.462,0,0,1-.462-.462V67.958a.462.462,0,0,1,.462-.462.462.462,0,0,1,.462.462v1.406A.462.462,0,0,1-258.666,69.826Zm0-4.78a.462.462,0,0,1-.462-.462V63.179a.462.462,0,0,1,.462-.462.462.462,0,0,1,.462.462v1.406A.462.462,0,0,1-258.666,65.046Zm0-4.78a.462.462,0,0,1-.462-.462V58.4a.462.462,0,0,1,.462-.462.461.461,0,0,1,.462.462V59.8A.462.462,0,0,1-258.666,60.267Zm0-4.78a.462.462,0,0,1-.462-.462V53.619a.462.462,0,0,1,.462-.462.462.462,0,0,1,.462.462v1.406A.462.462,0,0,1-258.666,55.487Zm0-4.78a.462.462,0,0,1-.462-.462V48.839a.462.462,0,0,1,.462-.462.462.462,0,0,1,.462.462v1.406A.462.462,0,0,1-258.666,50.707Zm0-4.78a.462.462,0,0,1-.462-.462V44.06a.461.461,0,0,1,.462-.462.461.461,0,0,1,.462.462v1.405A.462.462,0,0,1-258.666,45.927Zm0-4.78a.462.462,0,0,1-.462-.462V39.28a.462.462,0,0,1,.462-.462.462.462,0,0,1,.462.462v1.406A.462.462,0,0,1-258.666,41.147Zm0-4.78a.462.462,0,0,1-.462-.462V34.5a.462.462,0,0,1,.462-.462.462.462,0,0,1,.462.462v1.406A.462.462,0,0,1-258.666,36.368Zm0-4.78a.462.462,0,0,1-.462-.462V29.721a.461.461,0,0,1,.462-.462.461.461,0,0,1,.462.462v1.406A.462.462,0,0,1-258.666,31.588Zm0-4.78a.462.462,0,0,1-.462-.462V24.941a.462.462,0,0,1,.462-.462.462.462,0,0,1,.462.462v1.406A.462.462,0,0,1-258.666,26.808Z" transform="translate(-60.222 -26.75)" fill="#c3c3c3"/><path d="M-230.528,60.5a.462.462,0,0,1-.462-.462V58.634a.462.462,0,0,1,.462-.462.462.462,0,0,1,.462.462V60.04A.462.462,0,0,1-230.528,60.5Zm0-4.78a.462.462,0,0,1-.462-.462V53.854a.462.462,0,0,1,.462-.462.462.462,0,0,1,.462.462V55.26A.462.462,0,0,1-230.528,55.722Zm0-4.78a.462.462,0,0,1-.462-.462V49.074a.462.462,0,0,1,.462-.462.462.462,0,0,1,.462.462V50.48A.462.462,0,0,1-230.528,50.942Zm0-4.78a.462.462,0,0,1-.462-.462V44.295a.462.462,0,0,1,.462-.462.462.462,0,0,1,.462.462V45.7A.462.462,0,0,1-230.528,46.162Zm0-4.78a.462.462,0,0,1-.462-.462V39.515a.462.462,0,0,1,.462-.462.462.462,0,0,1,.462.462v1.406A.462.462,0,0,1-230.528,41.382Zm-1.224-3.555h-1.406a.462.462,0,0,1-.462-.462.462.462,0,0,1,.462-.462h1.406a.462.462,0,0,1,.462.462A.462.462,0,0,1-231.752,37.827Zm-4.78,0h-1.406a.462.462,0,0,1-.462-.462.462.462,0,0,1,.462-.462h1.406a.462.462,0,0,1,.462.462A.462.462,0,0,1-236.532,37.827Zm-4.78,0h-1.406a.462.462,0,0,1-.462-.462.462.462,0,0,1,.462-.462h1.406a.462.462,0,0,1,.462.462A.462.462,0,0,1-241.312,37.827Zm-4.78,0H-247.5a.462.462,0,0,1-.462-.462.462.462,0,0,1,.462-.462h1.406a.462.462,0,0,1,.462.462A.462.462,0,0,1-246.092,37.827Zm-4.78,0h-1.406a.462.462,0,0,1-.462-.462.462.462,0,0,1,.462-.462h1.406a.462.462,0,0,1,.462.462A.462.462,0,0,1-250.871,37.827Zm-1.511-3.269a.462.462,0,0,1-.462-.462V32.69a.462.462,0,0,1,.462-.462.462.462,0,0,1,.462.462V34.1A.462.462,0,0,1-252.382,34.558Zm0-4.78a.462.462,0,0,1-.462-.462V27.91a.462.462,0,0,1,.462-.462.462.462,0,0,1,.462.462v1.406A.462.462,0,0,1-252.382,29.778Zm0-4.78a.462.462,0,0,1-.462-.462V23.131a.462.462,0,0,1,.462-.462.462.462,0,0,1,.462.462v1.406A.462.462,0,0,1-252.382,25Zm0-4.78a.462.462,0,0,1-.462-.462V18.351a.462.462,0,0,1,.462-.462.462.462,0,0,1,.462.462v1.406A.462.462,0,0,1-252.382,20.219Z" transform="translate(-62.638 -24.217)" fill="#c3c3c3"/><path d="M-195.363,72.728a.462.462,0,0,1-.462-.462V70.86a.462.462,0,0,1,.462-.462.462.462,0,0,1,.462.462v1.406A.462.462,0,0,1-195.363,72.728Zm0-4.78a.462.462,0,0,1-.462-.462V66.081a.462.462,0,0,1,.462-.462.462.462,0,0,1,.462.462v1.406A.462.462,0,0,1-195.363,67.948Zm0-4.78a.462.462,0,0,1-.462-.462V61.3a.462.462,0,0,1,.462-.462.462.462,0,0,1,.462.462v1.406A.462.462,0,0,1-195.363,63.169Zm0-4.78a.462.462,0,0,1-.462-.462V56.522a.462.462,0,0,1,.462-.462.462.462,0,0,1,.462.462v1.406A.462.462,0,0,1-195.363,58.389Zm0-4.78a.462.462,0,0,1-.462-.462V51.742a.462.462,0,0,1,.462-.462.462.462,0,0,1,.462.462v1.406A.462.462,0,0,1-195.363,53.609Zm0-4.78a.462.462,0,0,1-.462-.462V46.962a.462.462,0,0,1,.462-.462.462.462,0,0,1,.462.462v1.406A.462.462,0,0,1-195.363,48.829Zm0-4.78a.462.462,0,0,1-.462-.462V42.182a.462.462,0,0,1,.462-.462.462.462,0,0,1,.462.462v1.406A.462.462,0,0,1-195.363,44.049Zm0-4.78a.462.462,0,0,1-.462-.462V37.4a.462.462,0,0,1,.462-.462.462.462,0,0,1,.462.462v1.405A.462.462,0,0,1-195.363,39.269Zm0-4.779a.462.462,0,0,1-.459-.416h-.531a.462.462,0,0,1-.462-.462.462.462,0,0,1,.462-.462h1.452v.877A.462.462,0,0,1-195.363,34.49Zm-4.364-.416h-1.406a.462.462,0,0,1-.462-.462.462.462,0,0,1,.462-.462h1.406a.462.462,0,0,1,.462.462A.462.462,0,0,1-199.727,34.075Zm-4.78,0h-1.406a.462.462,0,0,1-.462-.462.462.462,0,0,1,.462-.462h1.406a.462.462,0,0,1,.462.462A.462.462,0,0,1-204.507,34.075Zm-4.78,0h-1.406a.462.462,0,0,1-.462-.462.462.462,0,0,1,.462-.462h1.406a.462.462,0,0,1,.462.462A.462.462,0,0,1-209.287,34.075Zm-4.78,0h-1.406a.462.462,0,0,1-.462-.462.462.462,0,0,1,.462-.462h1.406a.462.462,0,0,1,.462.462A.462.462,0,0,1-214.067,34.075Zm-4.78,0h-1.405a.462.462,0,0,1-.462-.462.462.462,0,0,1,.462-.462h1.405a.462.462,0,0,1,.462.462A.462.462,0,0,1-218.846,34.075Zm-4.78,0h-1.406a.462.462,0,0,1-.462-.462.462.462,0,0,1,.462-.462h1.406a.462.462,0,0,1,.462.462A.462.462,0,0,1-223.626,34.075Zm-4.779,0h-1.406a.462.462,0,0,1-.462-.462.462.462,0,0,1,.462-.462h1.406a.462.462,0,0,1,.462.462A.462.462,0,0,1-228.405,34.075Zm-4.78,0h-1.406a.462.462,0,0,1-.462-.462.462.462,0,0,1,.462-.462h1.406a.462.462,0,0,1,.462.462A.462.462,0,0,1-233.186,34.075Zm-4.78,0h-1.406a.462.462,0,0,1-.462-.462.462.462,0,0,1,.462-.462h1.406a.462.462,0,0,1,.462.462A.462.462,0,0,1-237.966,34.075Zm-4.779,0h-.991V32.736a.462.462,0,0,1,.462-.462.462.462,0,0,1,.462.462v.415h.068a.462.462,0,0,1,.462.462A.462.462,0,0,1-242.745,34.075Zm-.529-4.25a.462.462,0,0,1-.462-.462V27.957a.462.462,0,0,1,.462-.462.462.462,0,0,1,.462.462v1.406A.462.462,0,0,1-243.274,29.824Zm0-4.78a.462.462,0,0,1-.462-.462V23.177a.462.462,0,0,1,.462-.462.462.462,0,0,1,.462.462v1.406A.462.462,0,0,1-243.274,25.045Z" transform="translate(-66.138 -26.072)" fill="#c3c3c3"/><g transform="translate(-411.079 69.514)"><path d="M8.5,0h164.66a8.5,8.5,0,0,1,8.5,8.5v8.863a0,0,0,0,1,0,0H0a0,0,0,0,1,0,0V8.5A8.5,8.5,0,0,1,8.5,0Z" transform="translate(181.669 17.367) rotate(180)" fill="#c9ae80"/></g><rect width="189.268" height="0.923" transform="translate(-415.347 69.052)" fill="#1d1d1b"/><path d="M-295.86,158.332l-1.042-1.042a.461.461,0,0,1,0-.653.461.461,0,0,1,.653,0l.392.392a.461.461,0,0,1,.6.044.462.462,0,0,1,0,.653Zm-74.522-1.059a.462.462,0,0,1-.327-.135.462.462,0,0,1,0-.653l.994-.994a.462.462,0,0,1,.653,0,.462.462,0,0,1,0,.653l-.994.994A.462.462,0,0,1-370.382,157.273Zm-2.386-1.426a.461.461,0,0,1-.326-.135l-.994-.994a.462.462,0,0,1,0-.653.462.462,0,0,1,.653,0l.994.994a.462.462,0,0,1,0,.653A.461.461,0,0,1-372.769,155.847Zm79.573-.371a.46.46,0,0,1-.326-.135.461.461,0,0,1,0-.653l.994-.994a.461.461,0,0,1,.653,0,.462.462,0,0,1,0,.653l-.994.994A.461.461,0,0,1-293.2,155.476Zm-5.765-.436a.458.458,0,0,1-.326-.135l-.994-.994a.462.462,0,0,1,0-.653.462.462,0,0,1,.653,0l.994.994a.461.461,0,0,1,0,.653A.458.458,0,0,1-298.961,155.04Zm-37.008-1.029a.46.46,0,0,1-.326-.135.461.461,0,0,1,0-.653l.994-.994a.461.461,0,0,1,.653,0,.462.462,0,0,1,0,.653l-.994.994A.46.46,0,0,1-335.969,154.011ZM-367,153.894a.458.458,0,0,1-.326-.135.462.462,0,0,1,0-.653l.994-.994a.461.461,0,0,1,.653,0,.461.461,0,0,1,0,.653l-.994.994A.461.461,0,0,1-367,153.894Zm-9.145-1.427a.458.458,0,0,1-.326-.135l-.994-.994a.461.461,0,0,1,0-.653.461.461,0,0,1,.653,0l.994.994a.461.461,0,0,1,0,.653A.458.458,0,0,1-376.148,152.467Zm37.794-.109a.46.46,0,0,1-.326-.135l-.921-.921a.457.457,0,0,1-.2-.371.445.445,0,0,1,.441-.462h.232l1.1,1.1a.462.462,0,0,1,0,.653A.461.461,0,0,1-338.354,152.358Zm48.539-.262a.46.46,0,0,1-.326-.135.462.462,0,0,1,0-.653l1.028-1.028h.334a.462.462,0,0,1,.462.462.462.462,0,0,1-.411.459l-.761.761A.46.46,0,0,1-289.816,152.1Zm-12.525-.436a.458.458,0,0,1-.326-.135l-.182-.182h-.766a.462.462,0,0,1-.462-.462.462.462,0,0,1,.462-.462h1.149l.452.452a.461.461,0,0,1,0,.653A.458.458,0,0,1-302.341,151.66Zm-40.393-.268h-1.406a.462.462,0,0,1-.462-.462.462.462,0,0,1,.462-.462h1.406a.462.462,0,0,1,.462.462A.462.462,0,0,1-342.734,151.392Zm-4.78,0h-1.406a.462.462,0,0,1-.462-.462.462.462,0,0,1,.462-.462h1.406a.462.462,0,0,1,.462.462A.462.462,0,0,1-347.514,151.392Zm-4.78,0H-353.7a.462.462,0,0,1-.462-.462.462.462,0,0,1,.462-.462h1.406a.462.462,0,0,1,.462.462A.462.462,0,0,1-352.294,151.392Zm-4.78,0h-1.406a.462.462,0,0,1-.462-.462.462.462,0,0,1,.462-.462h1.406a.462.462,0,0,1,.462.462A.462.462,0,0,1-357.073,151.392Zm-4.78,0h-1.406a.462.462,0,0,1-.462-.462.462.462,0,0,1,.462-.462h1.406a.462.462,0,0,1,.462.462A.462.462,0,0,1-361.853,151.392Zm-18.63,0h-1.406a.462.462,0,0,1-.462-.462.462.462,0,0,1,.462-.462h1.406a.462.462,0,0,1,.462.462A.462.462,0,0,1-380.483,151.392Zm-4.78,0h-1.406a.462.462,0,0,1-.462-.462.462.462,0,0,1,.462-.462h1.406a.462.462,0,0,1,.462.462A.462.462,0,0,1-385.263,151.392Zm-4.78,0h-1.406a.462.462,0,0,1-.462-.462.462.462,0,0,1,.462-.462h1.406a.462.462,0,0,1,.462.462A.462.462,0,0,1-390.043,151.392Zm-4.78,0h-1.406a.462.462,0,0,1-.462-.462.462.462,0,0,1,.462-.462h1.406a.462.462,0,0,1,.462.462A.462.462,0,0,1-394.823,151.392Zm-4.78,0h-1.405a.462.462,0,0,1-.462-.462.462.462,0,0,1,.462-.462h1.405a.462.462,0,0,1,.462.462A.462.462,0,0,1-399.6,151.392Zm-4.78,0h-1.406a.462.462,0,0,1-.462-.462.462.462,0,0,1,.462-.462h1.406a.461.461,0,0,1,.462.462A.462.462,0,0,1-404.382,151.392Zm-4.78,0h-1.405a.462.462,0,0,1-.462-.462.462.462,0,0,1,.462-.462h1.405a.462.462,0,0,1,.462.462A.462.462,0,0,1-409.162,151.392Zm-4.779,0h-1.406a.462.462,0,0,1-.462-.462.462.462,0,0,1,.462-.462h1.406a.462.462,0,0,1,.462.462A.462.462,0,0,1-413.941,151.392Zm106.952-.049h-1.406a.462.462,0,0,1-.462-.462.462.462,0,0,1,.462-.462h1.406a.462.462,0,0,1,.462.462A.462.462,0,0,1-306.989,151.343Zm-4.78,0h-1.406a.462.462,0,0,1-.462-.462.462.462,0,0,1,.462-.462h1.406a.462.462,0,0,1,.462.462A.462.462,0,0,1-311.769,151.343Zm-4.78,0h-1.405a.462.462,0,0,1-.462-.462.462.462,0,0,1,.462-.462h1.405a.462.462,0,0,1,.462.462A.462.462,0,0,1-316.549,151.343Zm-4.779,0h-1.406a.462.462,0,0,1-.462-.462.462.462,0,0,1,.462-.462h1.406a.462.462,0,0,1,.462.462A.462.462,0,0,1-321.328,151.343Zm-4.78,0h-1.406a.462.462,0,0,1-.462-.462.462.462,0,0,1,.462-.462h1.406a.462.462,0,0,1,.462.462A.462.462,0,0,1-326.108,151.343Zm-4.78,0h-1.406a.462.462,0,0,1-.462-.462.462.462,0,0,1,.462-.462h1.406a.462.462,0,0,1,.462.462A.462.462,0,0,1-330.888,151.343Zm104.245-.14h-1.406a.462.462,0,0,1-.462-.462.462.462,0,0,1,.462-.462h1.406a.461.461,0,0,1,.462.462A.462.462,0,0,1-226.643,151.2Zm-4.78,0h-1.406a.462.462,0,0,1-.462-.462.462.462,0,0,1,.462-.462h1.406a.462.462,0,0,1,.462.462A.462.462,0,0,1-231.422,151.2Zm-4.779,0h-1.406a.462.462,0,0,1-.462-.462.462.462,0,0,1,.462-.462h1.406a.462.462,0,0,1,.462.462A.462.462,0,0,1-236.2,151.2Zm-4.78,0h-1.406a.462.462,0,0,1-.462-.462.462.462,0,0,1,.462-.462h1.406a.461.461,0,0,1,.462.462A.461.461,0,0,1-240.982,151.2Zm-4.78,0h-1.406a.462.462,0,0,1-.462-.462.462.462,0,0,1,.462-.462h1.406a.462.462,0,0,1,.462.462A.462.462,0,0,1-245.762,151.2Zm-4.779,0h-1.406a.462.462,0,0,1-.462-.462.462.462,0,0,1,.462-.462h1.406a.462.462,0,0,1,.462.462A.462.462,0,0,1-250.541,151.2Zm-4.78,0h-1.406a.462.462,0,0,1-.462-.462.462.462,0,0,1,.462-.462h1.406a.462.462,0,0,1,.462.462A.462.462,0,0,1-255.321,151.2Zm-4.779,0h-1.406a.462.462,0,0,1-.462-.462.462.462,0,0,1,.462-.462h1.406a.462.462,0,0,1,.462.462A.462.462,0,0,1-260.1,151.2Zm-4.78,0h-1.406a.462.462,0,0,1-.462-.462.462.462,0,0,1,.462-.462h1.406a.462.462,0,0,1,.462.462A.462.462,0,0,1-264.88,151.2Zm-4.78,0h-1.406a.462.462,0,0,1-.462-.462.462.462,0,0,1,.462-.462h1.406a.462.462,0,0,1,.462.462A.462.462,0,0,1-269.66,151.2Zm-4.78,0h-1.406a.462.462,0,0,1-.462-.462.462.462,0,0,1,.462-.462h1.406a.462.462,0,0,1,.462.462A.462.462,0,0,1-274.44,151.2Zm-4.78,0h-1.406a.462.462,0,0,1-.462-.462.462.462,0,0,1,.462-.462h1.406a.462.462,0,0,1,.462.462A.462.462,0,0,1-279.22,151.2Zm-4.78,0h-1.406a.462.462,0,0,1-.462-.462.462.462,0,0,1,.462-.462H-284a.462.462,0,0,1,.462.462A.462.462,0,0,1-284,151.2Z" transform="translate(0 -75.103)" fill="#1d1d1b"/></g></g></svg>