<svg xmlns="http://www.w3.org/2000/svg" width="381" height="360.5" viewBox="0 0 381 360.5"><g transform="translate(11092 5346.405)"><g transform="translate(-11054 -5334.405)" fill="none" stroke="#9bd5b9" stroke-linecap="round" stroke-width="1" stroke-dasharray="4 4" opacity="0.751"><ellipse cx="151" cy="152" rx="151" ry="152" stroke="none"/><ellipse cx="151" cy="152" rx="150.5" ry="151.5" fill="none"/></g><line y1="42" x2="83" transform="translate(-10985.5 -5185.905)" fill="none" stroke="#9bd5b9" stroke-width="1"/><line x2="61" y2="74" transform="translate(-10963.5 -5254.905)" fill="none" stroke="#9bd5b9" stroke-width="1"/><line x2="89.5" y2="42" transform="translate(-10908 -5185.905)" fill="none" stroke="#9bd5b9" stroke-width="1"/><line y2="92" transform="translate(-10900 -5186.405)" fill="none" stroke="#9bd5b9" stroke-width="1"/><line x1="66" y2="73" transform="translate(-10906.5 -5254.905)" fill="none" stroke="#9bd5b9" stroke-width="1"/><circle cx="68" cy="68" r="68" transform="translate(-10970.5 -5250.405)" fill="#57a580"/><text transform="translate(-10902 -5164.405)" fill="#fff" font-size="15" font-family="NotoSansCJKkr-Medium, Noto Sans CJK KR" font-weight="500" letter-spacing="-0.05em"><tspan x="-39.525" y="0">의사결정지원</tspan><tspan x="-19.95" y="20">서비스</tspan></text><path d="M44.523-.539a19.88,19.88,0,0,1-2.961-4.289A10.758,10.758,0,0,0,45-12.5c0-6.25-5.977-11.414-13.766-12.336-2.453-4.5-8.242-7.664-14.984-7.664C7.273-32.5,0-26.906,0-20a10.785,10.785,0,0,0,3.438,7.672A20.451,20.451,0,0,1,.492-8.039,1.8,1.8,0,0,0,.148-6.086,1.8,1.8,0,0,0,1.8-4.992a17.958,17.958,0,0,0,9.781-3.031,19.639,19.639,0,0,0,2.188.375C16.234-3.156,22.016.008,28.758.008A20.678,20.678,0,0,0,33.43-.523a18,18,0,0,0,9.781,3.031A1.808,1.808,0,0,0,44.523-.539Zm-32.383-9.93L11.109-10.7l-.891.578A16.089,16.089,0,0,1,3.367-7.586a21.733,21.733,0,0,0,2.3-3.625l.813-1.625L5.2-14.109A8.342,8.342,0,0,1,2.5-20c0-5.516,6.172-10,13.75-10S30-25.516,30-20,23.828-10,16.25-10A18.166,18.166,0,0,1,12.141-10.469ZM34.781-2.625,33.891-3.2l-1.031.242a18.166,18.166,0,0,1-4.109.469c-5.086,0-9.531-2.023-11.906-5.023C25.539-7.766,32.5-13.25,32.5-20a9.939,9.939,0,0,0-.258-2.164C38.133-21.031,42.5-17.133,42.5-12.5a8.342,8.342,0,0,1-2.7,5.891L38.516-5.336l.8,1.617a22.1,22.1,0,0,0,2.3,3.625A16.094,16.094,0,0,1,34.781-2.625Z" transform="translate(-10925 -5191.405)" fill="#fff"/><circle cx="47.5" cy="47.5" r="47.5" transform="translate(-11054 -5344.405)" fill="#fff" stroke="#57a580" stroke-linecap="round" stroke-width="2"/><path d="M-20.61-5.58c-2.355-.45-4.9-2.49-4.9-4.785V-11.4h-1.29v1.035c0,2.3-2.535,4.32-4.89,4.785l.555,1.02a7.388,7.388,0,0,0,4.98-3.885,7.3,7.3,0,0,0,5,3.885Zm-11.6,3.87V-.69h12.2V-1.71Zm14.79-8.3h3.765V-3.3h-3.765Zm-1.2,7.7h6.165V-11h-6.165Zm12.03-4.665h-2.22V-12.33h-1.23V1.11h1.23V-5.94h2.22Zm11.28,1.89h-8v-2.13H4.26V-8.19H-3.3v-1.995H4.56v-.99H-4.545V-4.1h9.24ZM-6.12-1.635V-.63H6.09V-1.635ZM13.035.135C10.9.135,9.66-.42,9.66-1.35c0-.96,1.245-1.5,3.375-1.5,2.1,0,3.345.54,3.345,1.5C16.38-.42,15.135.135,13.035.135Zm0-3.945c-2.88,0-4.62.885-4.62,2.46,0,1.56,1.74,2.445,4.62,2.445,2.85,0,4.59-.885,4.59-2.445C17.625-2.925,15.885-3.81,13.035-3.81Zm.63-2.01V-7.605H17.73V-8.6h-7.9V-12.06H8.595v4.455H12.42V-5.82H6.96v.99H19.125v-.99ZM29.85-.06H23.685V-1.8H29.85Zm0-2.7H23.685v-1.7H22.47V.93h8.61V-4.455H29.85ZM23.67-6.51a2.121,2.121,0,0,1-2.3-2.1,2.11,2.11,0,0,1,2.3-2.085A2.11,2.11,0,0,1,25.965-8.61,2.121,2.121,0,0,1,23.67-6.51Zm6.165-5.82v3.195H27.09a3.2,3.2,0,0,0-3.42-2.58A3.163,3.163,0,0,0,20.2-8.61,3.166,3.166,0,0,0,23.67-5.49,3.209,3.209,0,0,0,27.1-8.13h2.73v3.015H31.08V-12.33ZM-19.41,15.215a5.368,5.368,0,0,0,3.435-2.985,5.4,5.4,0,0,0,3.435,2.835l.57-.945c-1.965-.585-3.375-2.01-3.4-3.72h3.105V9.41h-3.105V7.76H-16.6V9.41h-3.06v.99h3.06a4.319,4.319,0,0,1-3.375,3.855Zm4.035-.45H-16.6V17.27c-1.365.045-2.67.045-3.78.045l.165,1.035a51.043,51.043,0,0,0,8.715-.585l-.105-.915c-1.2.195-2.505.285-3.765.36Zm4.65-7.11v13.47h1.23V7.655Zm11.25,6.57a4.632,4.632,0,0,1-3.27-4.11v-.54H.21v-1H-6.975v1h3v.54a4.888,4.888,0,0,1-3.39,4.41l.645.975a5.7,5.7,0,0,0,3.375-3.36A5.576,5.576,0,0,0-.09,15.185Zm-5.85,3.21H2.43v3.69H3.66v-4.68H-5.325ZM2.43,7.655v3.51H-.195V12.17H2.43v3.54H3.66V7.655ZM13.755,9.29h-3.39V7.67H9.135V9.29H5.715v.975h8.04ZM7.74,13.55c0-.93.81-1.545,2.01-1.545s2.01.615,2.01,1.545-.81,1.53-2.01,1.53S7.74,14.48,7.74,13.55Zm2.625,2.46a2.572,2.572,0,0,0,2.565-2.46c0-1.515-1.305-2.49-3.18-2.49s-3.18.975-3.18,2.49a2.572,2.572,0,0,0,2.565,2.46v1.47c-1.3.045-2.565.045-3.645.045l.165,1.035a49.66,49.66,0,0,0,8.4-.54L13.98,17.1a35.171,35.171,0,0,1-3.615.33Zm7.74-2.64H16V7.655h-1.23V21.11H16V14.4h2.1ZM-16.53,29.755h6.885V34.12H-16.53Zm4.08,8.61V35.1h4.005V28.78h-9.27V35.1h4.02v3.27h-5.46v1.02h12.2v-1.02ZM5.3,27.67H4.11v7.14H5.3Zm-6.48,2.97v.96H1.53v3.09H2.7V27.94H1.53v2.7ZM.27,32.815a21.946,21.946,0,0,1-4.5.345V29.425H-.36v-.99h-5.1V34.15h.87a25.114,25.114,0,0,0,4.965-.345Zm-2.655,7.14v-1.4H5.3V35.41H-3.63v.975H4.08V37.63H-3.6v3.3H5.79v-.975Zm20.37-12.3h-1.23v8.28h1.23Zm-2.865,6.03a36.475,36.475,0,0,1-6.27.42v-1.89h4.875v-3.72H7.6V29.5H12.51v1.77H7.65v3.84H8.73a37.733,37.733,0,0,0,6.525-.435ZM13.53,40.12c-2.04,0-3.27-.54-3.27-1.47s1.23-1.455,3.27-1.455c2.07,0,3.3.54,3.3,1.455S15.6,40.12,13.53,40.12Zm0-3.9c-2.79,0-4.5.885-4.5,2.43s1.71,2.445,4.5,2.445,4.53-.885,4.53-2.445S16.335,36.22,13.53,36.22Z" transform="translate(-11006 -5310.405)" fill="#505050"/><path d="M47.5,0A47.5,47.5,0,1,1,0,47.5,47.5,47.5,0,0,1,47.5,0Z" transform="translate(-10847 -5345.405)" fill="#fff" stroke="#57a580" stroke-width="2"/><path d="M-11.25-8.355a2.164,2.164,0,0,1,2.3-2.145,2.142,2.142,0,0,1,2.28,2.145A2.145,2.145,0,0,1-8.955-6.2,2.166,2.166,0,0,1-11.25-8.355Zm8.46-1.05v2.1h-2.9a3.028,3.028,0,0,0,.18-1.05,3.28,3.28,0,0,0-.165-1.05Zm0,3.105v1.92h1.245v-7.965H-2.79v1.935H-6.24a3.581,3.581,0,0,0-2.715-1.125,3.21,3.21,0,0,0-3.465,3.18,3.225,3.225,0,0,0,3.465,3.21A3.5,3.5,0,0,0-6.24-6.3ZM-6,.12c-2.025,0-3.255-.6-3.255-1.605S-8.025-3.105-6-3.105c2.055,0,3.285.6,3.285,1.62S-3.945.12-6,.12Zm0-4.185c-2.76,0-4.47.945-4.47,2.58S-8.76,1.1-6,1.1-1.5.15-1.5-1.485-3.225-4.065-6-4.065ZM6.51.135C4.38.135,3.135-.42,3.135-1.35c0-.96,1.245-1.5,3.375-1.5,2.1,0,3.345.54,3.345,1.5C9.855-.42,8.61.135,6.51.135Zm0-3.945c-2.88,0-4.62.885-4.62,2.46C1.89.21,3.63,1.1,6.51,1.1,9.36,1.1,11.1.21,11.1-1.35,11.1-2.925,9.36-3.81,6.51-3.81Zm.63-2.01V-7.605H11.2V-8.6H3.3V-12.06H2.07v4.455H5.895V-5.82H.435v.99H12.6v-.99ZM-21.27,9.3c1.305,0,2.235.705,2.235,1.755s-.93,1.755-2.235,1.755-2.25-.7-2.25-1.755S-22.59,9.3-21.27,9.3Zm0,4.515c2,0,3.42-1.125,3.42-2.76s-1.425-2.775-3.42-2.775S-24.7,9.41-24.7,11.06-23.28,13.82-21.27,13.82Zm4.425.66a61.8,61.8,0,0,1-8.865.48l.165,1.035c1.11,0,2.385-.015,3.72-.075v4.77h1.23V15.845a33.729,33.729,0,0,0,3.855-.45Zm.975-6.81V21.125h1.23V7.67ZM-4.815,9.065H-8.1V7.52H-9.33V9.065h-3.285v.99h7.8Zm-5.85,4.08c0-.87.81-1.47,1.95-1.47s1.95.6,1.95,1.47-.81,1.47-1.95,1.47S-10.665,14.015-10.665,13.145Zm5.055,0c0-1.44-1.29-2.4-3.105-2.4s-3.12.96-3.12,2.4,1.29,2.385,3.12,2.385S-5.61,14.585-5.61,13.145Zm-3.48,4.35h6.345V19.94H-9.09Zm-1.2,3.435h8.745V16.52H-10.29Zm7.5-13.26v4.08H-5.025v1H-2.79V15.8h1.245V7.67ZM4.635,15.2a8.021,8.021,0,0,0,1.86.21,8.286,8.286,0,0,0,1.89-.21v3.165H4.635ZM6.5,9.47c2.16,0,3.72.99,3.72,2.49s-1.56,2.49-3.72,2.49S2.79,13.46,2.79,11.96,4.335,9.47,6.5,9.47Zm3.12,8.9V14.72a3.05,3.05,0,0,0,1.77-2.76c0-2.1-2.025-3.45-4.89-3.45s-4.89,1.35-4.89,3.45a3.075,3.075,0,0,0,1.8,2.775v3.63h-3v1.02H12.63v-1.02Zm15.465-4.14c-2.355-.42-4.92-2.4-4.92-4.635V8.555H18.87V9.59c0,2.235-2.55,4.215-4.9,4.635l.51,1.02a7.253,7.253,0,0,0,5.04-3.75,7.284,7.284,0,0,0,5.04,3.75ZM20.13,18.35V15.08H18.9v3.27H13.47v1H25.68v-1ZM-4.095,29.305H-7.56V27.67H-8.79v1.635h-3.48v.99h8.175Zm-6.15,4.245c0-.945.84-1.545,2.07-1.545s2.055.6,2.055,1.545-.84,1.53-2.055,1.53S-10.245,34.48-10.245,33.55Zm2.685,2.46c1.59-.195,2.61-1.125,2.61-2.46,0-1.515-1.305-2.49-3.225-2.49s-3.24.975-3.24,2.49c0,1.35,1.035,2.28,2.625,2.475v1.44c-1.335.045-2.625.06-3.765.06l.18,1.035a55.021,55.021,0,0,0,8.715-.54l-.09-.915c-1.23.165-2.535.255-3.81.315Zm4.665-8.34V41.11h1.23V27.67Zm6.33,2.43h2.25v6.54c-.765.03-1.515.06-2.25.075Zm3.435,0h1.5v-.99H.75v.99h1.5v6.63c-.645.015-1.26.015-1.83.015L.555,37.78a58.263,58.263,0,0,0,8.58-.51l-.075-.9c-.7.09-1.44.165-2.19.195Zm3.36-2.43V41.11h1.23V27.67Z" transform="translate(-10800 -5311.405)" fill="#505050"/><path d="M47.5,0A47.5,47.5,0,1,1,0,47.5,47.5,47.5,0,0,1,47.5,0Z" transform="translate(-10947.5 -5081.905)" fill="#fff" stroke="#57a580" stroke-width="2"/><path d="M-19.62-10.815c2.055,0,3.45.765,3.45,1.95,0,1.2-1.4,1.965-3.45,1.965-2.04,0-3.435-.765-3.435-1.965C-23.055-10.05-21.66-10.815-19.62-10.815Zm0,4.905c2.805,0,4.71-1.14,4.71-2.955,0-1.8-1.905-2.94-4.71-2.94-2.79,0-4.695,1.14-4.695,2.94C-24.315-7.05-22.41-5.91-19.62-5.91Zm6.12,1.275H-25.68v1.02h5.445v4.74H-19v-4.74H-13.5Zm12.45-2.58c-2.445-.36-4.845-2.025-4.845-3.9v-.75h-1.29v.75c0,1.92-2.37,3.54-4.815,3.9l.495.99A6.894,6.894,0,0,0-6.54-9.375a7.06,7.06,0,0,0,4.98,3.15ZM-.465-4.77h-12.15v1.02h5.43V1.125h1.23V-3.75H-.45ZM6.51.135C4.38.135,3.135-.42,3.135-1.35c0-.96,1.245-1.5,3.375-1.5,2.1,0,3.345.54,3.345,1.5C9.855-.42,8.61.135,6.51.135Zm0-3.945c-2.88,0-4.62.885-4.62,2.46C1.89.21,3.63,1.1,6.51,1.1,9.36,1.1,11.1.21,11.1-1.35,11.1-2.925,9.36-3.81,6.51-3.81Zm.63-2.01V-7.605H11.2V-8.6H3.3V-12.06H2.07v4.455H5.895V-5.82H.435v.99H12.6v-.99Zm7.05-5.085v1.02h4.935c-.285,3.18-2.13,5.76-5.565,7.485l.675.96c4.35-2.175,6.105-5.64,6.105-9.465Zm11.79,4.02H23.82v-5.46H22.59V1.11h1.23V-5.865h2.16ZM-14.325,7.67H-15.51V17.855h1.185Zm-6.69,6.66h-2.9V11.975h2.9Zm1.155-1.77h1.8v4.905H-16.9V7.925H-18.06v3.63h-1.8V8.735h-1.155V11h-2.9V8.735h-1.17V15.32h5.22Zm-2.01,7.245V16.5H-23.1V20.81h9.165v-1ZM-7.68,10.97H-4.6V9.98h-3.06V7.895H-8.91V9.98h-3.105v.99h3.12V12a6.343,6.343,0,0,1-3.48,5.565l.69.93a6.945,6.945,0,0,0,3.42-4.155,6.74,6.74,0,0,0,3.435,3.93l.69-.96A6.026,6.026,0,0,1-7.68,12Zm4.83-3.33V21.095H-1.6V7.64ZM2.16,9.995H5.925V16.7H2.16Zm-1.2,7.7H7.125V9H.96Zm12.03-4.665H10.77V7.67H9.54V21.11h1.23V14.06h2.22Zm11.52-5.37H23.28v8.1h1.23ZM14.43,8.57v.99h4.845a5.6,5.6,0,0,1-.345,1.5l-5.175.225.21,1.02,4.47-.33a7.891,7.891,0,0,1-4.575,2.85l.465.975c4.305-1.26,6.24-3.765,6.24-7.23Zm5.64,11.565c-2.04,0-3.3-.6-3.3-1.62,0-1,1.26-1.6,3.3-1.6,2.025,0,3.27.6,3.27,1.6C23.34,19.535,22.095,20.135,20.07,20.135Zm0-4.185c-2.79,0-4.53.945-4.53,2.565,0,1.635,1.74,2.58,4.53,2.58,2.76,0,4.5-.945,4.5-2.58C24.57,16.9,22.83,15.95,20.07,15.95ZM-12.255,31.945V32.95h2.94v4.695H-8.07V27.67H-9.315v4.275Zm-5.94-3.21v1h4.7a6,6,0,0,1-.33,1.575l-5.055.225.225,1,4.38-.33a7.888,7.888,0,0,1-4.53,3.075l.51.99c4.32-1.44,6.075-4.05,6.075-7.545Zm2.9,11.07v-3.15h-1.23V40.81h8.85V39.805Zm19.035-5.19H4.98V27.67H3.735V30.1H.81V31.1H3.735ZM1.755,33.37a4.519,4.519,0,0,1-3.3-4.035V28.09H-2.76v1.245A4.668,4.668,0,0,1-6.12,33.67l.645.975a5.614,5.614,0,0,0,3.36-3.27,5.452,5.452,0,0,0,3.24,2.955Zm-4.2,6.585v-1.44H4.98V35.29H-3.69v.975H3.765v1.32H-3.66V40.93H5.49v-.975ZM17.985,27.67h-1.23v8.325h1.23Zm-2.775,6a35.2,35.2,0,0,1-6.27.375V32.29h4.815v-.975H8.94v-1.68h5.19v-.99H7.71v6.39H8.8a36.563,36.563,0,0,0,6.54-.39Zm-1.7,6.465c-2.04,0-3.285-.555-3.285-1.485,0-.96,1.245-1.5,3.285-1.5,2.055,0,3.3.54,3.3,1.5C16.815,39.58,15.57,40.135,13.515,40.135Zm0-3.945c-2.79,0-4.5.885-4.5,2.46,0,1.56,1.71,2.445,4.5,2.445,2.805,0,4.515-.885,4.515-2.445C18.03,37.075,16.32,36.19,13.515,36.19Z" transform="translate(-10900 -5048.405)" fill="#505050"/><circle cx="47.5" cy="47.5" r="47.5" transform="translate(-10807 -5170.405)" fill="#fff" stroke="#57a580" stroke-width="2"/><path d="M-18.495-8.85v1.005h2.655V-4.32h1.245v-8.01H-15.84v3.48Zm.75,3.06a4.632,4.632,0,0,1-3.27-4.11v-.465h2.955v-.99h-7.185v.99h3V-9.9a4.96,4.96,0,0,1-3.39,4.485l.645.975A5.823,5.823,0,0,0-21.6-7.86a5.527,5.527,0,0,0,3.24,3.03ZM-19.035.15c-2.025,0-3.255-.57-3.255-1.545s1.23-1.56,3.255-1.56,3.255.585,3.255,1.56S-17.01.15-19.035.15Zm0-4.05c-2.76,0-4.485.915-4.485,2.505s1.725,2.5,4.485,2.5,4.47-.915,4.47-2.5S-16.275-3.9-19.035-3.9ZM-1.6-12.33h-1.23v6.915H-1.6ZM-6.84-7.08h-3.885v-3.54H-6.84Zm1.2-4.515h-6.285v5.49H-5.64ZM-9.075-.015V-1.5H-1.6V-4.74H-10.32v.96h7.5v1.365h-7.455V.96H-1.14V-.015Zm17.61-10.7H5.145v-1.62H3.915v1.62H.5v.975h8.04ZM2.52-6.45C2.52-7.38,3.33-8,4.53-8S6.54-7.38,6.54-6.45,5.73-4.92,4.53-4.92,2.52-5.52,2.52-6.45ZM5.145-3.99A2.572,2.572,0,0,0,7.71-6.45c0-1.515-1.305-2.49-3.18-2.49s-3.18.975-3.18,2.49A2.572,2.572,0,0,0,3.915-3.99v1.47c-1.3.045-2.565.045-3.645.045L.435-1.44a49.66,49.66,0,0,0,8.4-.54L8.76-2.895a35.171,35.171,0,0,1-3.615.33Zm7.74-2.64h-2.1v-5.715H9.555V1.11h1.23V-5.6h2.1ZM24.48-12.345H23.25V-2.28h1.23Zm-2.31,6.99c-1.155.135-2.37.21-3.615.27v-1.86h2.67v-.99H15.96V-10.47h5.175v-1.005h-6.4v4.53h2.595V-5.04c-1.32.045-2.625.06-3.795.06l.18,1.005a63.613,63.613,0,0,0,8.55-.5ZM17.01-.2V-2.94H15.78V.81h9.15V-.2ZM-7.575,12.785c-2.445-.36-4.845-2.025-4.845-3.9v-.75h-1.29v.75c0,1.92-2.37,3.54-4.815,3.9l.5.99a6.894,6.894,0,0,0,4.965-3.15,7.06,7.06,0,0,0,4.98,3.15Zm.585,2.445H-19.14v1.02h5.43v4.875h1.23V16.25h5.505ZM1.89,8.885H-1.35V7.565H-2.58v1.32H-5.835v.93H1.89Zm-5.835,3.42c0-.7.765-1.14,1.98-1.14C-.78,11.165,0,11.6,0,12.305S-.78,13.46-1.965,13.46C-3.18,13.46-3.945,13.01-3.945,12.305Zm6.24,2.58a35.762,35.762,0,0,1-3.645.33v-.93C.2,14.12,1.17,13.4,1.17,12.305c0-1.23-1.26-2-3.135-2-1.905,0-3.15.765-3.15,2,0,1.11.975,1.83,2.535,1.98v.975c-1.29.045-2.52.045-3.585.045l.135.99a51.324,51.324,0,0,0,8.415-.525Zm-6.825,3.45H3.09V21.11H4.32V17.36H-4.53Zm10.83-6.6H4.32V7.67H3.09v9.015H4.32v-3.93H6.3Zm8.565,1.83A32.928,32.928,0,0,1,8.745,14V12.14H13.56V8.495H7.5v1h4.845v1.7H7.53v3.81H8.595a35.662,35.662,0,0,0,6.39-.435ZM13.1,20.15c-2.01,0-3.225-.555-3.225-1.5s1.215-1.5,3.225-1.5,3.21.555,3.21,1.5S15.1,20.15,13.1,20.15Zm0-3.96c-2.745,0-4.425.9-4.425,2.46s1.68,2.445,4.425,2.445c2.73,0,4.425-.885,4.425-2.445S15.825,16.19,13.1,16.19Zm6.285-5.415V9.755h-2V7.67h-1.23V15.8h1.23V13.61h2V12.59h-2V10.775ZM-6.84,35.005a9.792,9.792,0,0,0,.12-1.545,9.792,9.792,0,0,0-.12-1.545h1.83v3.09Zm-2.76,2.01c-1.065,0-1.755-1.365-1.755-3.555,0-2.175.69-3.54,1.755-3.54s1.755,1.365,1.755,3.54C-7.845,35.65-8.52,37.015-9.6,37.015Zm4.59-6.1H-7.095a2.694,2.694,0,0,0-2.5-2.13c-1.74,0-2.865,1.8-2.865,4.68,0,2.9,1.125,4.695,2.865,4.695a2.707,2.707,0,0,0,2.5-2.13H-5.01V40.45h1.17v-12.5H-5.01Zm2.64-3.255V41.11H-1.2V27.655ZM1.53,33.7c2.205-.225,4.17-1.035,4.98-2.385.81,1.35,2.76,2.16,4.965,2.385l.39-.93c-2.55-.255-4.59-1.29-4.7-2.79h4.17V29H7.125V27.61H5.895V29H1.68v.975H5.835c-.105,1.5-2.145,2.535-4.68,2.79Zm.24,4.155H9.855V41.11h1.23V36.88H1.77ZM.42,34.45v.99H12.585v-.99Z" transform="translate(-10759 -5135.405)" fill="#505050"/><circle cx="47.5" cy="47.5" r="47.5" transform="translate(-11091 -5170.405)" fill="#fff" stroke="#57a580" stroke-width="2"/><path d="M-20.91-11.175h-1.215V-8.76A7.069,7.069,0,0,1-25.74-2.685l.75,1.005A7.477,7.477,0,0,0-21.51-6.2a7.307,7.307,0,0,0,3.465,4.26l.735-.99a6.692,6.692,0,0,1-3.6-5.835Zm5.01-1.17V1.14h1.23V-12.345Zm11.07,6.51a4.376,4.376,0,0,1-3.255-3.99v-.525h2.97v-.99H-12.33v.99h3.015v.525a4.765,4.765,0,0,1-3.375,4.38l.63.975a5.556,5.556,0,0,0,3.39-3.3A5.232,5.232,0,0,0-5.415-4.875ZM-6.465.12c-2.01,0-3.21-.555-3.21-1.515s1.2-1.5,3.21-1.5c1.98,0,3.2.555,3.2,1.5S-4.485.12-6.465.12Zm0-3.99c-2.76,0-4.44.915-4.44,2.475s1.68,2.49,4.44,2.49c2.73,0,4.425-.915,4.425-2.49S-3.735-3.87-6.465-3.87ZM-2.19-8.94v-3.39H-3.42v8.115h1.23v-3.69H-.195V-8.94Zm3.33-1.965v1.02H6.075C5.79-6.705,3.945-4.125.51-2.4l.675.96C5.535-3.615,7.29-7.08,7.29-10.905Zm11.79,4.02H10.77v-5.46H9.54V1.11h1.23V-5.865h2.16ZM15.555-2.73H23.31V1.08h1.245v-4.8h-9Zm7.755-9.615v2.4H20.34a6.222,6.222,0,0,0,.18-1.5H14.37v1H19.2c-.24,2.3-2.28,4.08-5.535,4.965l.5.99c2.88-.81,4.965-2.34,5.865-4.455H23.31V-7.1H19.83V-6.09h3.48v1.77h1.245v-8.025ZM-6.84,15.005a9.792,9.792,0,0,0,.12-1.545,9.792,9.792,0,0,0-.12-1.545h1.83v3.09Zm-2.76,2.01c-1.065,0-1.755-1.365-1.755-3.555,0-2.175.69-3.54,1.755-3.54s1.755,1.365,1.755,3.54C-7.845,15.65-8.52,17.015-9.6,17.015Zm4.59-6.1H-7.095A2.694,2.694,0,0,0-9.6,8.78c-1.74,0-2.865,1.8-2.865,4.68,0,2.9,1.125,4.7,2.865,4.7a2.707,2.707,0,0,0,2.5-2.13H-5.01V20.45h1.17V7.955H-5.01Zm2.64-3.255V21.11H-1.2V7.655ZM1.53,13.7c2.205-.225,4.17-1.035,4.98-2.385.81,1.35,2.76,2.16,4.965,2.385l.39-.93c-2.55-.255-4.59-1.29-4.7-2.79h4.17V9H7.125V7.61H5.895V9H1.68V9.98H5.835c-.105,1.5-2.145,2.535-4.68,2.79Zm.24,4.155H9.855V21.11h1.23V16.88H1.77ZM.42,14.45v.99H12.585v-.99ZM-18.435,29.095v1.02H-13.5c-.285,3.18-2.13,5.76-5.565,7.485l.675.96c4.35-2.175,6.105-5.64,6.105-9.465Zm11.79,4.02H-8.8v-5.46h-1.23V41.11H-8.8V34.135h2.16Zm10.32-5.46V41.14h1.23V27.655ZM-2.19,28.69c-1.995,0-3.42,1.83-3.42,4.695s1.425,4.7,3.42,4.7,3.42-1.83,3.42-4.7S-.195,28.69-2.19,28.69Zm0,1.11c1.305,0,2.235,1.41,2.235,3.585,0,2.19-.93,3.6-2.235,3.6s-2.25-1.41-2.25-3.6C-4.44,31.21-3.51,29.8-2.19,29.8ZM17.73,34.1H9.7V29.9h7.89v-1.02H8.49V35.11h9.24Zm-10.8,4.17v1.02H19.14v-1.02Z" transform="translate(-11043 -5135.405)" fill="#505050"/></g></svg>