<svg xmlns="http://www.w3.org/2000/svg" width="241.86" height="112.928" viewBox="0 0 241.86 112.928"><g transform="translate(-960 -2057.2)"><g transform="translate(960 2063.898)"><g transform="translate(54.736 40.334)"><rect width="4.625" height="5.944" rx="2.312" fill="#82abdb"/><path d="M1442.717,113.995l-.507.385a.9.9,0,0,1-1.448-.719V73.721a.47.47,0,0,1,.469-.469h1.374a.47.47,0,0,1,.469.469v39.555A.9.9,0,0,1,1442.717,113.995Z" transform="translate(-1439.605 -67.479)" fill="#82abdb"/></g><path d="M8.645,0h1.919a8.644,8.644,0,0,1,8.644,8.644v0a0,0,0,0,1,0,0H0a0,0,0,0,1,0,0v0A8.645,8.645,0,0,1,8.645,0Z" transform="translate(8.955 48.084)" fill="#c9ae80"/><path d="M8.645,0h1.919a8.644,8.644,0,0,1,8.644,8.644v0a0,0,0,0,1,0,0H0a0,0,0,0,1,0,0v0A8.645,8.645,0,0,1,8.645,0Z" transform="translate(47.444 48.084)" fill="#c9ae80"/><g transform="translate(18.032 40.505)"><path d="M1384.179,64.568a4.412,4.412,0,0,1-6.415,2.024,4.41,4.41,0,0,1,6.415-2.024Z" transform="translate(-1377.764 -63.929)" fill="#a2c870"/></g><path d="M8.645,0h1.919a8.644,8.644,0,0,1,8.644,8.644v0a0,0,0,0,1,0,0H0a0,0,0,0,1,0,0v0A8.645,8.645,0,0,1,8.645,0Z" transform="translate(86.559 48.084)" fill="#c9ae80"/><g transform="translate(95.636 40.505)"><path d="M1513.309,64.568a4.412,4.412,0,0,1-6.415,2.024,4.411,4.411,0,0,1,6.415-2.024Z" transform="translate(-1506.894 -63.929)" fill="#a2c870"/></g><rect width="112.637" height="0.901" transform="translate(0 55.53)" fill="#1d1d1b"/><path d="M1509.652,84.092h-19.659v-.9h18.757V80.247a4.805,4.805,0,0,0-4.8-4.8v-.9a5.708,5.708,0,0,1,5.7,5.7Z" transform="translate(-1404.514 -27.66)" fill="#1d1d1b"/><path d="M1380.472,84.092h-19.659v-.9h18.757V80.247a4.805,4.805,0,0,0-4.8-4.8v-.9a5.708,5.708,0,0,1,5.7,5.7Z" transform="translate(-1352.968 -27.66)" fill="#1d1d1b"/><g transform="translate(16.841 39.24)"><path d="M1379,66.129a6.587,6.587,0,0,1-2.836-.713l-.384-.208.195-.39a4.995,4.995,0,0,1,7.23-2.281l.383.207-.195.39a5.947,5.947,0,0,1-3.09,2.8A4.32,4.32,0,0,1,1379,66.129Zm-1.976-1.313a3.95,3.95,0,0,0,5.321-1.679,3.95,3.95,0,0,0-5.321,1.679Z" transform="translate(-1375.781 -61.824)" fill="#1d1d1b"/><rect width="0.901" height="4.746" transform="translate(0.158 3.123)" fill="#1d1d1b"/></g><g transform="translate(94.475 39.24)"><path d="M1508.18,66.129a6.583,6.583,0,0,1-2.835-.713l-.383-.208.195-.39a4.994,4.994,0,0,1,7.229-2.281l.384.208-.195.39a5.946,5.946,0,0,1-3.091,2.8A4.319,4.319,0,0,1,1508.18,66.129Zm-1.975-1.313a3.95,3.95,0,0,0,5.321-1.679,3.95,3.95,0,0,0-5.321,1.679Z" transform="translate(-1504.962 -61.824)" fill="#1d1d1b"/><rect width="0.901" height="4.746" transform="translate(0.157 3.123)" fill="#1d1d1b"/></g><rect width="0.901" height="24.375" transform="translate(75.228 31.606)" fill="#1d1d1b"/><path d="M1440.3,68.4h-1.319a2.106,2.106,0,0,1-2.1-2.1V63.66a2.106,2.106,0,0,1,2.1-2.1h1.319a2.106,2.106,0,0,1,2.1,2.1V66.3A2.106,2.106,0,0,1,1440.3,68.4Zm-1.319-5.944a1.2,1.2,0,0,0-1.2,1.2V66.3a1.2,1.2,0,0,0,1.2,1.2h1.319a1.2,1.2,0,0,0,1.2-1.2V63.66a1.2,1.2,0,0,0-1.2-1.2Z" transform="translate(-1383.318 -22.478)" fill="#1d1d1b"/><path d="M1442.012,73.628h-.9V72.8a.452.452,0,0,0-.452-.452h-.508a.453.453,0,0,0-.452.452v.8h-.9v-.8a1.355,1.355,0,0,1,1.353-1.353h.508a1.355,1.355,0,0,1,1.353,1.353Z" transform="translate(-1384.085 -26.424)" fill="#1d1d1b"/><path d="M1440.152,121.042a1.357,1.357,0,0,1-1.355-1.355V89.945h.9v29.743a.452.452,0,0,0,.725.36l.507-.385a.455.455,0,0,0,.179-.36V90.033h.9V119.3a1.359,1.359,0,0,1-.536,1.078l-.507.385A1.346,1.346,0,0,1,1440.152,121.042Z" transform="translate(-1384.085 -33.805)" fill="#1d1d1b"/><path d="M1445.062,84.092H1425.4v-.9h18.757V80.247a4.805,4.805,0,0,0-4.8-4.8v-.9a5.708,5.708,0,0,1,5.7,5.7Z" transform="translate(-1378.741 -27.66)" fill="#1d1d1b"/><g transform="translate(68.105 4.601)"><g transform="translate(0 7.035)"><path d="M1474.448,16.643h-10.842l-1.6,7.525h14.035Z" transform="translate(-1461.453 -16.192)" fill="#fff"/><path d="M1476.231,24.32h-15.147l1.788-8.427h11.571Zm-14.034-.9h12.922l-1.405-6.624H1463.6Z" transform="translate(-1461.084 -15.893)" fill="#1d1d1b"/></g><g transform="translate(1.792 14.561)"><rect width="10.661" height="11.994" transform="translate(0.451 0.451)" fill="#fff"/><path d="M1475.629,41.31h-11.563V28.415h11.563Zm-10.661-.9h9.76V29.316h-9.76Z" transform="translate(-1464.066 -28.415)" fill="#1d1d1b"/></g><g transform="translate(12.453 1.999)"><line y1="5.487" transform="translate(0.451)" fill="#fff"/><rect width="0.901" height="5.487" transform="translate(0 0)" fill="#1d1d1b"/></g><g transform="translate(11.679)"><path d="M1482.816,5.711a.774.774,0,1,1-.774-.774A.774.774,0,0,1,1482.816,5.711Z" transform="translate(-1480.817 -4.486)" fill="#fff"/><path d="M1481.743,6.637a1.225,1.225,0,1,1,1.225-1.225A1.226,1.226,0,0,1,1481.743,6.637Zm0-1.548a.323.323,0,1,0,.323.323A.323.323,0,0,0,1481.743,5.088Z" transform="translate(-1480.518 -4.187)" fill="#1d1d1b"/></g><g transform="translate(2.759 7.396)"><line x1="1.47" y2="7.251" transform="translate(0.441 0.09)" fill="#fff"/><rect width="7.398" height="0.902" transform="translate(0 7.251) rotate(-78.551)" fill="#1d1d1b"/></g><g transform="translate(7.122 7.741)"><line y2="7.271" transform="translate(0.451 0)" fill="#fff"/><rect width="0.901" height="7.27" transform="translate(0 0)" fill="#1d1d1b"/></g><g transform="translate(9.93 7.406)"><line x2="1.352" y2="7.525" transform="translate(0.444 0.08)" fill="#fff"/><rect width="0.902" height="7.646" transform="translate(0 0.159) rotate(-10.187)" fill="#1d1d1b"/></g><g transform="translate(1.653 9.39)"><line x2="11.939" transform="translate(0 0.451)" fill="#fff"/><rect width="11.939" height="0.901" transform="translate(0 0)" fill="#1d1d1b"/></g><g transform="translate(1.115 11.929)"><line x2="12.976" transform="translate(0 0.451)" fill="#fff"/><rect width="12.976" height="0.901" fill="#1d1d1b"/></g></g><g transform="translate(77.109 0)"><path d="M1482.813,5.733a.765.765,0,1,1-.765-.765A.765.765,0,0,1,1482.813,5.733Z" transform="translate(-1478.148 0.102)" fill="#1d1d1b"/><path d="M1476.655-1.333l-.588-.683a5.961,5.961,0,0,1,7.8,0l-.589.683a5.06,5.06,0,0,0-6.623,0Z" transform="translate(-1476.066 3.468)" fill="#1d1d1b"/><path d="M1476.655-1.333l-.588-.683a5.961,5.961,0,0,1,7.8,0l-.589.683a5.06,5.06,0,0,0-6.623,0Z" transform="translate(-1476.066 3.468)" fill="#1d1d1b"/><path d="M1482.969,1.06a3.52,3.52,0,0,0-4.98,0l-.637-.638a4.424,4.424,0,0,1,6.255,0Z" transform="translate(-1476.579 2.433)" fill="#1d1d1b"/><path d="M1479.381,3.467l-.738-.518a2.866,2.866,0,0,1,4.7,0l-.739.517a1.964,1.964,0,0,0-3.226,0Z" transform="translate(-1477.094 1.397)" fill="#1d1d1b"/><path d="M1482.969,1.06a3.52,3.52,0,0,0-4.98,0l-.637-.638a4.424,4.424,0,0,1,6.255,0Z" transform="translate(-1476.579 2.433)" fill="#1d1d1b"/><path d="M1479.381,3.467l-.738-.518a2.866,2.866,0,0,1,4.7,0l-.739.517a1.964,1.964,0,0,0-3.226,0Z" transform="translate(-1477.094 1.397)" fill="#1d1d1b"/></g><g transform="translate(21.972 71.484)"><path d="M1418.635,150.222h-.021q-.509,0-1.014-.015a.451.451,0,0,1,.026-.9q.493.014.989.014a.46.46,0,0,1,.461.451A.442.442,0,0,1,1418.635,150.222Zm3.4-.171a.451.451,0,0,1-.045-.9q.5-.051,1-.117a.451.451,0,1,1,.117.894q-.511.068-1.029.12A.382.382,0,0,1,1422.033,150.051Zm-7.814-.112a.384.384,0,0,1-.059,0q-.516-.067-1.025-.149a.451.451,0,1,1,.144-.89c.331.053.663.1,1,.145a.451.451,0,0,1-.058.9Zm12.178-.619a.451.451,0,0,1-.1-.889c.327-.078.654-.16.977-.247a.451.451,0,0,1,.235.871q-.5.133-1,.254A.448.448,0,0,1,1426.4,149.32Zm-16.518-.24a.458.458,0,0,1-.117-.015q-.5-.134-1-.283a.451.451,0,0,1,.26-.864c.322.1.644.189.97.275a.451.451,0,0,1-.116.886Zm20.749-1.06a.451.451,0,0,1-.16-.872q.47-.179.933-.372a.451.451,0,1,1,.346.832q-.475.2-.958.382A.444.444,0,0,1,1430.628,148.02Zm-24.94-.363a.447.447,0,0,1-.172-.034q-.48-.2-.953-.412a.451.451,0,0,1,.371-.822q.461.208.927.4a.451.451,0,0,1-.173.867Zm28.959-1.48a.451.451,0,0,1-.214-.847q.443-.239.878-.492a.451.451,0,0,1,.452.78q-.446.26-.9.5A.441.441,0,0,1,1434.647,146.178Zm-32.929-.482a.445.445,0,0,1-.225-.061q-.449-.26-.89-.532a.451.451,0,0,1,.475-.767q.43.266.867.519a.451.451,0,0,1-.227.841Zm36.676-1.869a.451.451,0,0,1-.265-.816q.409-.3.807-.6a.451.451,0,1,1,.55.714q-.409.316-.829.619A.45.45,0,0,1,1438.394,143.827Zm-40.355-.593a.448.448,0,0,1-.274-.093q-.411-.316-.812-.643a.451.451,0,1,1,.571-.7q.391.319.791.627a.451.451,0,0,1-.275.808Zm43.765-2.226a.45.45,0,0,1-.309-.779q.367-.345.723-.7a.451.451,0,1,1,.638.638q-.366.366-.743.721A.448.448,0,0,1,1441.8,141.007Zm-47.093-.692a.448.448,0,0,1-.318-.132q-.367-.366-.722-.742a.451.451,0,1,1,.655-.619q.346.367.7.723a.45.45,0,0,1-.319.77Zm50.11-2.545a.451.451,0,0,1-.349-.736q.319-.39.627-.79a.451.451,0,0,1,.715.549q-.316.41-.644.811A.45.45,0,0,1,1444.821,137.771Zm-53.031-.778a.449.449,0,0,1-.357-.175q-.316-.41-.62-.829a.451.451,0,0,1,.732-.528q.294.408.6.807a.451.451,0,0,1-.356.726Zm55.6-2.823a.451.451,0,0,1-.382-.688q.266-.429.52-.867a.451.451,0,0,1,.779.453q-.259.449-.533.889A.452.452,0,0,1,1447.393,134.17Zm-58.069-.85a.451.451,0,0,1-.39-.224q-.259-.446-.505-.9a.451.451,0,1,1,.792-.43q.24.444.492.878a.451.451,0,0,1-.389.677Zm60.153-3.056a.451.451,0,0,1-.411-.637q.208-.46.4-.927a.45.45,0,1,1,.832.346q-.2.48-.413.953A.452.452,0,0,1,1449.476,130.264Zm-62.118-.906a.45.45,0,0,1-.416-.278c-.132-.317-.259-.636-.383-.958a.451.451,0,1,1,.841-.323q.18.471.374.935a.452.452,0,0,1-.416.624Zm63.672-3.241a.451.451,0,0,1-.432-.581q.145-.482.276-.971a.451.451,0,0,1,.871.234q-.135.5-.284,1A.451.451,0,0,1,1451.03,126.117Zm-65.1-.944a.453.453,0,0,1-.436-.334q-.134-.5-.253-1a.451.451,0,1,1,.877-.208q.116.492.248.977a.452.452,0,0,1-.319.553A.462.462,0,0,1,1385.929,125.173Zm66.094-3.368a.435.435,0,0,1-.073-.006.45.45,0,0,1-.373-.517c.054-.331.1-.663.146-1a.451.451,0,0,1,.894.116q-.067.516-.15,1.026A.451.451,0,0,1,1452.024,121.8Zm-66.961-.971a.451.451,0,0,1-.447-.391q-.068-.512-.12-1.028a.451.451,0,0,1,.4-.495.446.446,0,0,1,.494.4q.052.5.117,1a.452.452,0,0,1-.387.506A.5.5,0,0,1,1385.063,120.834Zm67.38-3.433h-.014a.45.45,0,0,1-.437-.463q.015-.5.015-1.009a.451.451,0,1,1,.9,0q0,.52-.015,1.035A.452.452,0,0,1,1452.443,117.4Zm-67.672-1a.434.434,0,0,1-.451-.43v-.041a.451.451,0,1,1,.9,0A.469.469,0,0,1,1384.771,116.4Z" transform="translate(-1384.32 -115.477)" fill="#1d1d1b" opacity="0.31"/><path d="M1425.809,138.52h-.013q-.523-.014-1.041-.053a.451.451,0,0,1,.067-.9q.5.036,1,.051a.451.451,0,0,1-.013.9Zm3.4-.163a.451.451,0,0,1-.055-.9c.332-.041.662-.091.99-.147a.451.451,0,0,1,.153.889q-.512.088-1.031.153A.433.433,0,0,1,1429.207,138.357Zm-7.781-.4a.466.466,0,0,1-.1-.011q-.509-.119-1.009-.26a.451.451,0,1,1,.244-.868q.481.135.97.249a.451.451,0,0,1-.1.889Zm12.091-.583a.451.451,0,0,1-.144-.878q.476-.161.941-.343a.451.451,0,0,1,.328.84q-.485.188-.98.356A.452.452,0,0,1,1433.517,137.372Zm-16.276-.847a.453.453,0,0,1-.188-.041q-.474-.219-.939-.457a.451.451,0,1,1,.414-.8q.445.229.9.439a.451.451,0,0,1-.189.861Zm20.3-.98a.451.451,0,0,1-.227-.841q.433-.252.853-.522a.451.451,0,1,1,.488.758q-.437.281-.887.543A.449.449,0,0,1,1437.541,135.545Zm-24.117-1.257a.45.45,0,0,1-.265-.087q-.421-.307-.829-.633a.45.45,0,1,1,.562-.7q.392.313.8.609a.45.45,0,0,1-.266.815Zm27.7-1.332a.45.45,0,0,1-.3-.788c.25-.221.494-.448.733-.68a.45.45,0,1,1,.628.646q-.373.364-.765.71A.449.449,0,0,1,1441.121,132.955Zm-30.995-1.614a.445.445,0,0,1-.332-.146q-.352-.383-.687-.783a.45.45,0,1,1,.69-.579q.322.383.661.753a.451.451,0,0,1-.332.755Zm34-1.631a.444.444,0,0,1-.271-.091.45.45,0,0,1-.088-.632q.3-.4.586-.813a.451.451,0,1,1,.743.511q-.3.43-.611.846A.45.45,0,0,1,1444.122,129.71Zm-36.646-1.905a.449.449,0,0,1-.386-.217q-.27-.445-.519-.9a.451.451,0,0,1,.792-.432q.24.44.5.867a.451.451,0,0,1-.385.685Zm38.95-1.871a.445.445,0,0,1-.194-.044.451.451,0,0,1-.212-.6c.143-.3.282-.605.413-.913a.45.45,0,1,1,.829.352q-.2.481-.43.952A.45.45,0,0,1,1446.426,125.934Zm-40.846-2.118a.45.45,0,0,1-.424-.3q-.175-.49-.329-.99a.451.451,0,0,1,.863-.263q.146.48.314.95a.451.451,0,0,1-.424.6Zm42.351-2.043a.47.47,0,0,1-.111-.013.452.452,0,0,1-.327-.548q.123-.483.221-.975a.451.451,0,1,1,.884.178c-.069.342-.145.682-.231,1.018A.451.451,0,0,1,1447.931,121.773Zm-43.414-2.248a.451.451,0,0,1-.445-.387q-.074-.514-.124-1.035a.451.451,0,0,1,.406-.492.445.445,0,0,1,.492.406c.031.334.071.664.118.993a.451.451,0,0,1-.382.51A.472.472,0,0,1,1404.517,119.525Zm44.055-2.124h-.022a.45.45,0,0,1-.429-.472q.023-.5.023-1a.451.451,0,1,1,.9,0c0,.349-.007.7-.024,1.043A.45.45,0,0,1,1448.572,117.4Z" transform="translate(-1392.151 -115.477)" fill="#1d1d1b" opacity="0.31"/><path d="M1435.423,126.757a.451.451,0,0,1-.054-.9c.322-.04.646-.095.963-.166a.451.451,0,1,1,.2.88c-.345.077-.7.138-1.05.181Zm-3.387-.134a.465.465,0,0,1-.091-.009c-.347-.071-.694-.16-1.033-.265a.45.45,0,1,1,.266-.861c.31.1.629.177.947.242a.451.451,0,0,1-.089.892Zm7.54-1.309a.451.451,0,0,1-.235-.836c.278-.169.549-.353.808-.548a.451.451,0,1,1,.543.719c-.282.213-.579.415-.883.6A.445.445,0,0,1,1439.576,125.314Zm-11.563-.462a.444.444,0,0,1-.264-.086c-.286-.207-.566-.432-.832-.667a.451.451,0,0,1,.6-.675c.244.216.5.421.763.612a.45.45,0,0,1-.264.816Zm14.753-2.56a.442.442,0,0,1-.254-.079.451.451,0,0,1-.117-.627c.184-.267.356-.547.513-.831a.451.451,0,1,1,.79.435c-.171.31-.359.615-.559.907A.452.452,0,0,1,1442.766,122.292Zm-17.693-.706a.45.45,0,0,1-.391-.227c-.177-.307-.34-.626-.485-.948a.451.451,0,1,1,.822-.371c.133.3.284.588.445.87a.451.451,0,0,1-.167.615A.445.445,0,0,1,1425.073,121.586Zm19.364-3.359a.4.4,0,0,1-.08-.007.451.451,0,0,1-.365-.523c.056-.316.1-.642.124-.97a.451.451,0,0,1,.9.073c-.029.356-.074.711-.136,1.056A.45.45,0,0,1,1444.437,118.227Zm-20.7-.828a.451.451,0,0,1-.448-.407c-.034-.349-.052-.706-.052-1.064a.451.451,0,1,1,.9,0c0,.329.016.657.047.976a.45.45,0,0,1-.4.493Z" transform="translate(-1399.848 -115.477)" fill="#1d1d1b" opacity="0.31"/></g></g><g transform="translate(1084.504 2057.2)"><g transform="translate(7.329 86.937)"><path d="M7.313,0H8.936a7.313,7.313,0,0,1,7.313,7.313v0a0,0,0,0,1,0,0H0a0,0,0,0,1,0,0v0A7.313,7.313,0,0,1,7.313,0Z" transform="translate(0 6.412)" fill="#c9ae80"/><g transform="translate(7.679)"><path d="M34.947,172.382a4.539,4.539,0,0,1-2.317,2.112,4.539,4.539,0,0,1-3.109-.4,4.542,4.542,0,0,1,2.317-2.112A4.542,4.542,0,0,1,34.947,172.382Z" transform="translate(-29.52 -171.842)" fill="#a2c870"/></g></g><g transform="translate(40.132 86.937)"><path d="M7.313,0H8.936a7.313,7.313,0,0,1,7.313,7.313v0a0,0,0,0,1,0,0H0a0,0,0,0,1,0,0v0A7.313,7.313,0,0,1,7.313,0Z" transform="translate(0 6.412)" fill="#c9ae80"/><g transform="translate(7.679)"><path d="M99.466,172.382a3.732,3.732,0,0,1-5.426,1.712,3.731,3.731,0,0,1,5.426-1.712Z" transform="translate(-94.04 -171.842)" fill="#a2c870"/></g></g><g transform="translate(72.829 86.937)"><path d="M7.313,0H8.936a7.313,7.313,0,0,1,7.313,7.313v0a0,0,0,0,1,0,0H0a0,0,0,0,1,0,0v0A7.313,7.313,0,0,1,7.313,0Z" transform="translate(0 6.412)" fill="#c9ae80"/><g transform="translate(7.679)"><path d="M163.779,172.382a3.732,3.732,0,0,1-5.426,1.712,3.731,3.731,0,0,1,5.426-1.712Z" transform="translate(-158.353 -171.842)" fill="#a2c870"/></g></g><g transform="translate(105.096 36.53)"><rect width="0.763" height="6.192" fill="#1d1d1b"/></g><path d="M216.97,71.388H203.412V69.26h9.62v.763h-8.857v.6h12.8Z" transform="translate(-99.995 -34.477)" fill="#1d1d1b"/><rect width="0.763" height="12.503" transform="translate(105.096 22.662)" fill="#1d1d1b"/><g transform="translate(95.923 20.271)"><path d="M191.064,45.5a2.39,2.39,0,1,1,2.39-2.391A2.393,2.393,0,0,1,191.064,45.5Zm0-4.018a1.628,1.628,0,1,0,1.627,1.627A1.63,1.63,0,0,0,191.064,41.48Z" transform="translate(-188.673 -40.717)" fill="#1d1d1b"/><rect width="11.709" height="0.763" transform="translate(4.399 2.009)" fill="#1d1d1b"/><g transform="translate(15.727)"><path d="M222.378,45.5H222a2.39,2.39,0,0,1,0-4.781h.381Zm-.763-3.973a1.628,1.628,0,0,0,0,3.165Z" transform="translate(-219.607 -40.717)" fill="#1d1d1b"/></g></g><path d="M186.371,79.953a7.024,7.024,0,0,0-4.758-.011l-.309-.7a7.661,7.661,0,0,1,5.32-.011Z" transform="translate(-89.127 -39.152)" fill="#1d1d1b"/><path d="M186.371,77.948a7.018,7.018,0,0,0-4.758-.011l-.309-.7a7.661,7.661,0,0,1,5.32-.011Z" transform="translate(-89.127 -38.166)" fill="#1d1d1b"/><path d="M186.371,75.943a7.022,7.022,0,0,0-4.758-.011l-.309-.7a7.661,7.661,0,0,1,5.32-.011Z" transform="translate(-89.127 -37.181)" fill="#1d1d1b"/><path d="M186.371,73.938a7.026,7.026,0,0,0-4.758-.011l-.309-.7a7.66,7.66,0,0,1,5.32-.011Z" transform="translate(-89.127 -36.195)" fill="#1d1d1b"/><path d="M186.371,71.934a7.02,7.02,0,0,0-4.758-.011l-.309-.7a7.661,7.661,0,0,1,5.32-.011Z" transform="translate(-89.127 -35.21)" fill="#1d1d1b"/><path d="M186.371,69.929a7.015,7.015,0,0,0-4.758-.011l-.309-.7a7.657,7.657,0,0,1,5.32-.011Z" transform="translate(-89.127 -34.224)" fill="#1d1d1b"/><path d="M186.371,67.924a7.018,7.018,0,0,0-4.758-.011l-.309-.7a7.66,7.66,0,0,1,5.32-.011Z" transform="translate(-89.127 -33.239)" fill="#1d1d1b"/><path d="M186.371,65.919a7.015,7.015,0,0,0-4.758-.011l-.309-.7a7.66,7.66,0,0,1,5.32-.011Z" transform="translate(-89.127 -32.253)" fill="#1d1d1b"/><g transform="translate(112.655 29.809)"><path d="M226.285,66.58h-4.7V60.637a1.161,1.161,0,0,1,1.16-1.16h2.382a1.161,1.161,0,0,1,1.16,1.16Zm-3.939-.763h3.177v-5.18a.4.4,0,0,0-.4-.4h-2.382a.4.4,0,0,0-.4.4Z" transform="translate(-221.583 -59.477)" fill="#1d1d1b"/></g><path d="M202.869,108.385h-3.222V94.344h3.222Zm-2.459-.763h1.7V95.107h-1.7Z" transform="translate(-98.145 -46.808)" fill="#1d1d1b"/><path d="M108.376,140.294H0v-.763H107.614V83.051H94.489V80.388h.763v1.9h13.125Z" transform="translate(0.001 -39.948)" fill="#1d1d1b"/><path d="M158.864,190.409h-16.63v-.763H158.1v-2.49a4.065,4.065,0,0,0-4.06-4.06v-.763a4.829,4.829,0,0,1,4.823,4.823Z" transform="translate(-69.921 -90.062)" fill="#1d1d1b"/><path d="M29.684,190.409H13.054v-.763H28.921v-2.49a4.065,4.065,0,0,0-4.06-4.06v-.763a4.829,4.829,0,0,1,4.823,4.823Z" transform="translate(-6.417 -90.062)" fill="#1d1d1b"/><g transform="translate(14.247 85.802)"><path d="M30.745,173.253a5.572,5.572,0,0,1-2.4-.6l-.324-.176.165-.329a5.029,5.029,0,0,1,2.614-2.371,5.027,5.027,0,0,1,3.5.441l.324.175-.165.33a5.027,5.027,0,0,1-2.614,2.37A3.657,3.657,0,0,1,30.745,173.253Zm-1.672-1.11a3.994,3.994,0,0,0,2.545.221,3.994,3.994,0,0,0,1.957-1.641,4,4,0,0,0-2.545-.221A4,4,0,0,0,29.073,172.142Z" transform="translate(-28.022 -169.611)" fill="#1d1d1b"/><rect width="0.763" height="4.015" transform="translate(0.133 2.643)" fill="#1d1d1b"/></g><g transform="translate(47.138 85.802)"><path d="M95.439,173.252a5.575,5.575,0,0,1-2.4-.6l-.324-.176.165-.329A4.224,4.224,0,0,1,99,170.214l.324.175-.165.33a5.024,5.024,0,0,1-2.614,2.37A3.656,3.656,0,0,1,95.439,173.252Zm-1.671-1.11a3.341,3.341,0,0,0,4.5-1.42,3.341,3.341,0,0,0-4.5,1.42Z" transform="translate(-92.716 -169.61)" fill="#1d1d1b"/><rect width="0.763" height="4.015" transform="translate(0.133 2.643)" fill="#1d1d1b"/></g><g transform="translate(79.923 85.802)"><path d="M159.925,173.253a5.569,5.569,0,0,1-2.4-.6l-.324-.176.165-.329a4.224,4.224,0,0,1,6.115-1.93l.324.175-.165.33a5.026,5.026,0,0,1-2.614,2.37A3.654,3.654,0,0,1,159.925,173.253Zm-1.671-1.11a3.341,3.341,0,0,0,4.5-1.421,3.341,3.341,0,0,0-4.5,1.421Z" transform="translate(-157.202 -169.611)" fill="#1d1d1b"/><rect width="0.763" height="4.015" transform="translate(0.133 2.643)" fill="#1d1d1b"/></g><path d="M94.274,190.409H77.644v-.763H93.511v-2.49a4.065,4.065,0,0,0-4.06-4.06v-.763a4.829,4.829,0,0,1,4.823,4.823Z" transform="translate(-38.169 -90.062)" fill="#1d1d1b"/><path d="M155.352,62.422c-.292,0-.585,0-.875-.012a.381.381,0,0,1,.011-.763h.011c.284.008.568.012.854.012a.381.381,0,1,1,0,.763Zm-3.736-.228-.047,0q-.435-.054-.867-.119a.381.381,0,0,1,.114-.754q.422.064.846.116a.382.382,0,0,1-.046.76Zm-3.68-.686a.373.373,0,0,1-.094-.012q-.425-.107-.846-.226a.381.381,0,0,1,.208-.734q.41.116.825.22a.382.382,0,0,1-.093.751Zm-3.567-1.136a.376.376,0,0,1-.138-.026q-.41-.159-.813-.329a.381.381,0,1,1,.3-.7c.263.111.527.218.794.321a.382.382,0,0,1-.138.737Zm-3.4-1.571a.379.379,0,0,1-.18-.046q-.386-.208-.766-.427a.381.381,0,1,1,.38-.661q.371.213.747.416a.381.381,0,0,1-.181.717Zm-3.182-1.977a.381.381,0,0,1-.22-.07q-.357-.254-.707-.517a.381.381,0,1,1,.459-.61q.342.257.69.5a.382.382,0,0,1-.222.692Zm-2.915-2.35a.381.381,0,0,1-.257-.1q-.323-.3-.638-.6a.381.381,0,1,1,.529-.549q.307.3.623.585a.382.382,0,0,1-.257.663Zm-2.607-2.688a.381.381,0,0,1-.29-.133q-.284-.332-.56-.672a.381.381,0,0,1,.592-.481q.269.333.547.656a.381.381,0,0,1-.041.537A.377.377,0,0,1,132.264,51.785ZM130,48.8a.38.38,0,0,1-.318-.17q-.243-.365-.474-.735a.381.381,0,0,1,.647-.4q.226.361.461.716a.381.381,0,0,1-.106.529A.376.376,0,0,1,130,48.8Zm-1.876-3.238a.382.382,0,0,1-.342-.211q-.2-.39-.38-.787a.381.381,0,0,1,.692-.321q.179.386.37.767a.382.382,0,0,1-.341.552Zm-1.464-3.443a.381.381,0,0,1-.359-.255q-.146-.412-.28-.83a.381.381,0,0,1,.726-.233q.131.407.273.809a.381.381,0,0,1-.232.487A.385.385,0,0,1,126.665,42.12Zm-1.026-3.6a.381.381,0,0,1-.372-.3q-.094-.427-.175-.858a.382.382,0,0,1,.3-.445.378.378,0,0,1,.446.3c.052.28.11.559.17.836a.381.381,0,0,1-.291.454A.349.349,0,0,1,125.639,38.519Zm-.573-3.7a.382.382,0,0,1-.38-.346q-.039-.435-.068-.873a.381.381,0,1,1,.761-.048q.027.427.067.851a.382.382,0,0,1-.345.415Zm-.114-3.742h-.012a.381.381,0,0,1-.37-.393q.014-.439.039-.873a.381.381,0,1,1,.762.044q-.024.425-.038.853A.381.381,0,0,1,124.951,31.078Zm.342-3.727a.382.382,0,0,1-.377-.44q.067-.433.145-.863a.381.381,0,1,1,.75.137q-.076.419-.142.842A.382.382,0,0,1,125.293,27.351Zm.8-3.658a.371.371,0,0,1-.1-.015.382.382,0,0,1-.263-.471q.12-.422.252-.838a.381.381,0,0,1,.728.229q-.128.407-.245.818A.382.382,0,0,1,126.092,23.693Zm1.246-3.53a.381.381,0,0,1-.351-.531q.172-.4.354-.8a.381.381,0,1,1,.693.318q-.178.388-.345.783A.382.382,0,0,1,127.338,20.163Zm1.673-3.351a.375.375,0,0,1-.19-.051.381.381,0,0,1-.139-.521q.22-.38.45-.753a.381.381,0,0,1,.648.4q-.225.363-.438.733A.381.381,0,0,1,129.011,16.811Zm2.072-3.12a.381.381,0,0,1-.3-.612q.264-.35.538-.691a.381.381,0,1,1,.595.477q-.266.333-.525.674A.38.38,0,0,1,131.084,13.692Zm2.438-2.843a.381.381,0,0,1-.273-.647q.305-.314.618-.62a.381.381,0,1,1,.532.546q-.306.3-.6.605A.379.379,0,0,1,133.522,10.849Zm2.766-2.524a.381.381,0,0,1-.239-.678q.34-.275.689-.54a.381.381,0,0,1,.461.608q-.34.259-.671.526A.38.38,0,0,1,136.288,8.324Zm3.052-2.167a.381.381,0,0,1-.2-.705q.371-.231.748-.451a.381.381,0,0,1,.384.659q-.369.215-.731.44A.375.375,0,0,1,139.34,6.157Zm3.293-1.777a.381.381,0,0,1-.16-.728c.263-.122.53-.24.8-.355a.381.381,0,1,1,.3.7q-.392.168-.778.346A.381.381,0,0,1,142.633,4.381Zm3.487-1.356A.381.381,0,0,1,146,2.28q.416-.133.838-.254a.381.381,0,0,1,.212.733q-.411.118-.817.248A.386.386,0,0,1,146.119,3.025Zm3.629-.916a.381.381,0,0,1-.069-.756q.429-.081.862-.149a.381.381,0,1,1,.119.753q-.422.067-.841.145A.369.369,0,0,1,149.748,2.109Zm3.715-.459a.381.381,0,0,1-.023-.762c.29-.018.582-.032.874-.042a.366.366,0,0,1,.394.369.38.38,0,0,1-.368.394q-.428.014-.853.041Z" transform="translate(-61.237 -0.845)" fill="#1d1d1b" opacity="0.31"/><path d="M162.327,62.184c-.294,0-.587-.005-.879-.016a.381.381,0,0,1,.029-.762q.423.016.85.016a.381.381,0,0,1,0,.763Zm-3.729-.3a.362.362,0,0,1-.062-.005q-.435-.07-.865-.157a.381.381,0,0,1,.151-.748q.415.084.836.152a.381.381,0,0,1-.06.758Zm-3.635-.9a.373.373,0,0,1-.122-.02q-.419-.14-.83-.3a.382.382,0,0,1,.27-.714q.4.151.8.287a.381.381,0,0,1-.121.743Zm-3.443-1.475a.381.381,0,0,1-.178-.044q-.389-.206-.77-.426a.381.381,0,1,1,.381-.66q.368.213.745.412a.382.382,0,0,1-.179.719ZM148.361,57.5a.38.38,0,0,1-.229-.077q-.352-.265-.692-.543a.381.381,0,1,1,.482-.591q.329.269.669.526a.381.381,0,0,1-.23.685Zm-2.8-2.488a.381.381,0,0,1-.276-.117q-.3-.317-.6-.646a.382.382,0,0,1,.57-.507q.283.319.577.626a.381.381,0,0,1-.276.645Zm-2.362-2.9a.381.381,0,0,1-.315-.165q-.249-.361-.485-.732a.381.381,0,1,1,.644-.409q.228.358.469.708a.381.381,0,0,1-.313.6Zm-1.867-3.24a.382.382,0,0,1-.345-.219q-.187-.4-.36-.8a.381.381,0,0,1,.7-.3q.168.391.349.774a.382.382,0,0,1-.344.545Zm-1.321-3.5a.382.382,0,0,1-.367-.276c-.081-.281-.156-.564-.227-.849a.381.381,0,1,1,.741-.183c.068.276.141.549.219.821a.381.381,0,0,1-.261.472A.376.376,0,0,1,140.014,45.372Zm-.737-3.668a.382.382,0,0,1-.378-.337q-.052-.435-.087-.874a.382.382,0,0,1,.761-.062q.034.426.084.846a.381.381,0,0,1-.334.424A.339.339,0,0,1,139.277,41.7Zm-.137-3.739h-.017a.381.381,0,0,1-.365-.4q.019-.44.054-.876a.381.381,0,0,1,.761.06q-.034.422-.053.849A.38.38,0,0,1,139.14,37.965Zm.461-3.713a.376.376,0,0,1-.078-.008.381.381,0,0,1-.3-.45q.09-.432.195-.857a.382.382,0,0,1,.741.183q-.1.411-.189.829A.382.382,0,0,1,139.6,34.251Zm1.056-3.591a.381.381,0,0,1-.356-.518q.159-.413.332-.817a.381.381,0,1,1,.7.3q-.169.39-.321.789A.381.381,0,0,1,140.657,30.66Zm1.624-3.374a.377.377,0,0,1-.192-.052.382.382,0,0,1-.136-.522q.223-.38.458-.75a.381.381,0,1,1,.644.408q-.228.36-.443.728A.382.382,0,0,1,142.281,27.286Zm2.146-3.069a.381.381,0,0,1-.294-.624q.28-.339.571-.667a.381.381,0,1,1,.57.506q-.282.317-.554.646A.38.38,0,0,1,144.427,24.217Zm2.606-2.686a.381.381,0,0,1-.252-.668q.329-.289.671-.567a.381.381,0,1,1,.481.591q-.329.269-.649.55A.381.381,0,0,1,147.032,21.531Zm3-2.235a.382.382,0,0,1-.2-.7q.371-.233.751-.452a.381.381,0,1,1,.381.66q-.368.213-.728.438A.383.383,0,0,1,150.033,19.3Zm3.317-1.725a.381.381,0,0,1-.148-.733q.4-.169.813-.325a.382.382,0,0,1,.27.714q-.4.149-.788.314A.382.382,0,0,1,153.35,17.571Zm3.552-1.166a.381.381,0,0,1-.089-.752q.427-.1.859-.19a.381.381,0,0,1,.151.748q-.419.084-.831.183A.365.365,0,0,1,156.9,16.405Zm3.7-.576a.381.381,0,0,1-.027-.762q.436-.032.877-.049a.372.372,0,0,1,.4.367.382.382,0,0,1-.367.4q-.427.016-.85.047Z" transform="translate(-68.212 -7.812)" fill="#1d1d1b" opacity="0.31"/><path d="M169.308,61.945q-.445,0-.884-.024a.381.381,0,0,1,.041-.762c.28.015.56.023.843.023a.381.381,0,0,1,0,.763Zm-3.711-.435a.382.382,0,0,1-.089-.01q-.432-.1-.855-.229a.381.381,0,0,1,.216-.731q.4.12.816.218a.381.381,0,0,1-.088.752Zm-3.51-1.289a.38.38,0,0,1-.172-.041q-.4-.2-.779-.422a.381.381,0,1,1,.381-.66q.365.211.743.4a.381.381,0,0,1-.173.721Zm-3.113-2.07a.384.384,0,0,1-.247-.09q-.337-.287-.659-.59a.381.381,0,1,1,.523-.555q.307.29.629.563a.382.382,0,0,1-.247.673Zm-2.552-2.731a.379.379,0,0,1-.307-.155q-.262-.355-.505-.725a.381.381,0,1,1,.636-.419q.233.352.483.692a.381.381,0,0,1-.307.608Zm-1.853-3.245a.382.382,0,0,1-.351-.232c-.114-.27-.223-.545-.323-.823a.381.381,0,1,1,.717-.259q.143.4.308.783a.382.382,0,0,1-.351.531Zm-1.046-3.586a.381.381,0,0,1-.376-.319q-.072-.434-.122-.875a.381.381,0,0,1,.336-.422.377.377,0,0,1,.422.336q.048.422.117.836a.382.382,0,0,1-.314.439A.376.376,0,0,1,153.523,48.59Zm-.181-3.732h-.026a.381.381,0,0,1-.355-.406q.03-.444.083-.881a.381.381,0,1,1,.757.093q-.05.416-.079.84A.381.381,0,0,1,153.342,44.858Zm.685-3.674a.366.366,0,0,1-.113-.018.381.381,0,0,1-.251-.477q.133-.425.288-.839a.381.381,0,1,1,.714.267q-.147.4-.274.8A.382.382,0,0,1,154.027,41.184Zm1.526-3.414a.381.381,0,0,1-.327-.577q.228-.381.474-.748a.381.381,0,0,1,.632.426q-.235.35-.451.713A.383.383,0,0,1,155.552,37.77Zm2.276-2.967a.381.381,0,0,1-.274-.647q.307-.317.633-.618a.381.381,0,0,1,.517.56q-.31.287-.6.589A.38.38,0,0,1,157.829,34.8Zm2.9-2.363a.381.381,0,0,1-.205-.7q.372-.238.759-.456a.381.381,0,0,1,.374.664q-.368.208-.723.434A.381.381,0,0,1,160.725,32.44Zm3.362-1.627a.381.381,0,0,1-.125-.742q.417-.144.844-.266a.381.381,0,1,1,.209.733c-.272.077-.539.162-.8.254A.4.4,0,0,1,164.088,30.813Zm3.65-.8a.381.381,0,0,1-.036-.761q.438-.043.882-.062a.388.388,0,0,1,.4.364.381.381,0,0,1-.364.4q-.425.018-.843.059Z" transform="translate(-75.194 -14.78)" fill="#1d1d1b" opacity="0.31"/></g></g></svg>