<svg xmlns="http://www.w3.org/2000/svg" width="138.823" height="113.582" viewBox="0 0 138.823 113.582"><g transform="translate(0 -1.418)"><g transform="translate(102.948 89.469)"><path d="M165.2,136.517a9.417,9.417,0,0,0,.966-6.107,7.946,7.946,0,0,0-6.017,9.673A9.418,9.418,0,0,0,165.2,136.517Z" transform="translate(-153.731 -130.41)" fill="#a2c870"/><path d="M152.838,140.643a6.772,6.772,0,0,1-2.023-3.96,5.716,5.716,0,0,1,6.272,5.271A6.776,6.776,0,0,1,152.838,140.643Z" transform="translate(-150.815 -132.4)" fill="#a2c870"/></g><g transform="translate(102.948 81.639)"><path d="M165.2,125.046a9.417,9.417,0,0,0,.966-6.107,7.945,7.945,0,0,0-6.017,9.672A9.419,9.419,0,0,0,165.2,125.046Z" transform="translate(-153.731 -118.939)" fill="#a2c870"/><path d="M152.838,129.171a6.772,6.772,0,0,1-2.023-3.96,5.716,5.716,0,0,1,6.272,5.271A6.771,6.771,0,0,1,152.838,129.171Z" transform="translate(-150.815 -120.928)" fill="#a2c870"/></g><g transform="translate(98.328 105.181)"><path d="M8.736,0h4.344a8.736,8.736,0,0,1,8.736,8.736V9.819a0,0,0,0,1,0,0H0a0,0,0,0,1,0,0V8.736A8.736,8.736,0,0,1,8.736,0Z" fill="#c9ae80"/></g><g transform="translate(58.608 89.469)"><path d="M100.241,136.517a9.42,9.42,0,0,0,.965-6.107,7.945,7.945,0,0,0-6.016,9.673A9.418,9.418,0,0,0,100.241,136.517Z" transform="translate(-88.774 -130.41)" fill="#a2c870"/><path d="M87.881,140.643a6.77,6.77,0,0,1-2.023-3.96,5.715,5.715,0,0,1,6.272,5.271A6.774,6.774,0,0,1,87.881,140.643Z" transform="translate(-85.858 -132.4)" fill="#a2c870"/></g><g transform="translate(58.608 81.639)"><path d="M100.241,125.046a9.42,9.42,0,0,0,.965-6.107,7.944,7.944,0,0,0-6.016,9.672A9.419,9.419,0,0,0,100.241,125.046Z" transform="translate(-88.774 -118.939)" fill="#a2c870"/><path d="M87.881,129.171a6.771,6.771,0,0,1-2.023-3.96,5.715,5.715,0,0,1,6.272,5.271A6.77,6.77,0,0,1,87.881,129.171Z" transform="translate(-85.858 -120.928)" fill="#a2c870"/></g><g transform="translate(53.988 105.181)"><path d="M8.736,0h4.344a8.736,8.736,0,0,1,8.736,8.736V9.819a0,0,0,0,1,0,0H0a0,0,0,0,1,0,0V8.736A8.736,8.736,0,0,1,8.736,0Z" fill="#c9ae80"/></g><g transform="translate(14.268 89.469)"><path d="M35.284,136.517a9.415,9.415,0,0,0,.965-6.107,9.415,9.415,0,0,0-5.05,3.566,9.417,9.417,0,0,0-.966,6.107A9.418,9.418,0,0,0,35.284,136.517Z" transform="translate(-23.818 -130.41)" fill="#a2c870"/><path d="M22.925,140.643a6.772,6.772,0,0,1-2.023-3.96,6.77,6.77,0,0,1,4.249,1.311,6.77,6.77,0,0,1,2.023,3.96A6.776,6.776,0,0,1,22.925,140.643Z" transform="translate(-20.902 -132.4)" fill="#a2c870"/></g><g transform="translate(14.268 81.639)"><path d="M35.284,125.046a9.415,9.415,0,0,0,.965-6.107A9.416,9.416,0,0,0,31.2,122.5a9.417,9.417,0,0,0-.966,6.107A9.419,9.419,0,0,0,35.284,125.046Z" transform="translate(-23.818 -118.939)" fill="#a2c870"/><path d="M22.925,129.171a6.772,6.772,0,0,1-2.023-3.96,6.774,6.774,0,0,1,4.249,1.311,6.772,6.772,0,0,1,2.023,3.96A6.771,6.771,0,0,1,22.925,129.171Z" transform="translate(-20.902 -120.928)" fill="#a2c870"/></g><g transform="translate(9.648 105.181)"><path d="M8.736,0h4.344a8.736,8.736,0,0,1,8.736,8.736V9.819a0,0,0,0,1,0,0H0a0,0,0,0,1,0,0V8.736A8.736,8.736,0,0,1,8.736,0Z" fill="#c9ae80"/></g><path d="M117.579,81.224A33.727,33.727,0,0,1,91.008,41.672l1.34.265a32.361,32.361,0,0,0,25.491,37.947Z" transform="translate(-28.68 -12.776)" fill="#82abdb"/><path d="M124.734,72.836a25.756,25.756,0,0,1-20.3-30.2l1.34.263A24.39,24.39,0,0,0,125,71.5Z" transform="translate(-32.993 -13.081)" fill="#82abdb"/><path d="M131.9,64.438a17.8,17.8,0,0,1-14.021-20.866l1.34.262A16.432,16.432,0,0,0,132.161,63.1Z" transform="translate(-37.306 -13.379)" fill="#82abdb"/><g transform="translate(30.233 49.02)"><path d="M46.777,87.962c-.053-.242-.314-1.433-.547-2.676l-1.577-.479a.512.512,0,0,1-.2-.864l1.392-1.3c0-.063-.005-.121-.005-.173a4.445,4.445,0,0,1,5.821-4.223,4.177,4.177,0,0,1,1.639.969A5.606,5.606,0,0,1,55.619,76.3l7.913-4.966a1.194,1.194,0,0,1,1.827,1.083,23.545,23.545,0,0,1-.287,2.524l2.658-1.668a1.194,1.194,0,0,1,1.827,1.085C69.2,80.225,67,83.789,64.781,85.912l3.645-.547a1.182,1.182,0,0,1,1.1.42l-.789.653a.167.167,0,0,0-.155-.061l-5.455.818a.512.512,0,0,1-.375-.922c2.416-1.741,5.38-5.232,5.784-11.977a.167.167,0,0,0-.083-.157.172.172,0,0,0-.178,0l-3.664,2.3a.512.512,0,0,1-.771-.548,21.681,21.681,0,0,0,.5-3.536.17.17,0,0,0-.261-.154L56.163,77.17a4.581,4.581,0,0,0-2.1,3.227.512.512,0,0,1-.937.2,3.275,3.275,0,0,0-1.767-1.375,3.421,3.421,0,0,0-4.494,3.244c0,.091.008.208.019.334a.512.512,0,0,1-.16.419l-.922.863,1.026.311a.513.513,0,0,1,.356.4c.242,1.33.539,2.687.6,2.946Z" transform="translate(-44.29 -71.153)" fill="#1d1d1b"/><path d="M51.541,87.83a1.046,1.046,0,1,1,1.046-1.046A1.048,1.048,0,0,1,51.541,87.83Zm0-1.068.023.022A.023.023,0,0,0,51.541,86.762Z" transform="translate(-46.26 -75.782)" fill="#1d1d1b"/></g><rect width="127.937" height="1.024" transform="translate(0 113.516)" fill="#1d1d1b"/><path d="M163.812,162.1H141.484v-4.367a6.483,6.483,0,0,1,6.475-6.475v1.024a5.458,5.458,0,0,0-5.451,5.451v3.343h21.3Z" transform="translate(-44.906 -47.557)" fill="#1d1d1b"/><path d="M99.223,162.1H76.894v-4.367a6.483,6.483,0,0,1,6.475-6.475v1.024a5.458,5.458,0,0,0-5.451,5.451v3.343h21.3Z" transform="translate(-24.405 -47.557)" fill="#1d1d1b"/><path d="M34.633,162.1H12.3v-4.367a6.483,6.483,0,0,1,6.475-6.475v1.024a5.458,5.458,0,0,0-5.451,5.451v3.343h21.3Z" transform="translate(-3.905 -47.557)" fill="#1d1d1b"/><g transform="translate(12.959 87.915)"><rect width="1.024" height="6.58" transform="translate(6.331 9.715)" fill="#1d1d1b"/><path d="M28.522,139.072l-.109-.532a9.86,9.86,0,0,1,1.033-6.479,9.852,9.852,0,0,1,5.354-3.791l.524-.139.109.532a9.856,9.856,0,0,1-1.033,6.479h0a9.855,9.855,0,0,1-5.354,3.791Zm5.987-9.627a8.537,8.537,0,0,0-4.193,3.157,8.509,8.509,0,0,0-.978,5.156,8.539,8.539,0,0,0,4.194-3.156A8.514,8.514,0,0,0,34.509,129.446Z" transform="translate(-21.928 -128.133)" fill="#1d1d1b"/><path d="M25.626,140.883a7.112,7.112,0,0,1-4.376-1.436,7.239,7.239,0,0,1-2.2-4.293l-.063-.539.542-.031a7.236,7.236,0,0,1,4.608,1.43,7.239,7.239,0,0,1,2.2,4.293l.063.539-.542.031C25.84,140.879,25.758,140.883,25.626,140.883ZM20.18,135.62a5.872,5.872,0,0,0,1.728,3.044,5.879,5.879,0,0,0,3.3,1.179,5.868,5.868,0,0,0-1.728-3.044A5.871,5.871,0,0,0,20.18,135.62Z" transform="translate(-18.985 -130.179)" fill="#1d1d1b"/></g><g transform="translate(57.108 87.915)"><rect width="1.024" height="6.58" transform="translate(6.331 9.715)" fill="#1d1d1b"/><path d="M93.2,139.072l-.108-.532a8.458,8.458,0,0,1,6.388-10.269l.524-.139.108.532a9.853,9.853,0,0,1-1.032,6.479h0a9.856,9.856,0,0,1-5.355,3.791Zm5.989-9.627a7.275,7.275,0,0,0-5.171,8.314,7.275,7.275,0,0,0,5.171-8.314Z" transform="translate(-86.604 -128.133)" fill="#1d1d1b"/><path d="M90.3,140.883a7.108,7.108,0,0,1-4.376-1.436,7.244,7.244,0,0,1-2.2-4.293l-.063-.539.542-.031a6.225,6.225,0,0,1,6.81,5.723l.063.539-.542.031C90.516,140.879,90.435,140.883,90.3,140.883Zm-5.446-5.263a5.029,5.029,0,0,0,5.024,4.223,5.029,5.029,0,0,0-5.024-4.223Z" transform="translate(-83.662 -130.179)" fill="#1d1d1b"/></g><g transform="translate(101.258 87.915)"><rect width="1.024" height="6.58" transform="translate(6.331 9.715)" fill="#1d1d1b"/><path d="M157.876,139.072l-.108-.532a8.457,8.457,0,0,1,6.387-10.269l.525-.139.108.532a9.853,9.853,0,0,1-1.033,6.479h0a9.852,9.852,0,0,1-5.354,3.791Zm5.988-9.626a7.275,7.275,0,0,0-5.172,8.313,7.275,7.275,0,0,0,5.172-8.313Z" transform="translate(-151.282 -128.133)" fill="#1d1d1b"/><path d="M154.98,140.883a7.112,7.112,0,0,1-4.376-1.436,7.236,7.236,0,0,1-2.2-4.293l-.063-.539.542-.031a6.225,6.225,0,0,1,6.81,5.723l.062.539-.542.031C155.194,140.879,155.113,140.883,154.98,140.883Zm-5.445-5.263a5.028,5.028,0,0,0,5.023,4.223,5.028,5.028,0,0,0-5.023-4.223Z" transform="translate(-148.34 -130.179)" fill="#1d1d1b"/></g><g transform="translate(12.959 80.084)"><rect width="1.024" height="6.58" transform="translate(6.331 9.715)" fill="#1d1d1b"/><path d="M28.522,127.6l-.109-.532a9.861,9.861,0,0,1,1.033-6.479A9.855,9.855,0,0,1,34.8,116.8l.524-.139.109.532a9.854,9.854,0,0,1-1.033,6.478h0a9.854,9.854,0,0,1-5.354,3.791Zm5.987-9.627a8.539,8.539,0,0,0-4.193,3.156,8.544,8.544,0,0,0-.977,5.156,8.54,8.54,0,0,0,4.193-3.156h0A8.512,8.512,0,0,0,34.509,117.974Z" transform="translate(-21.928 -116.661)" fill="#1d1d1b"/><path d="M25.625,129.412a7.109,7.109,0,0,1-4.376-1.436h0a7.236,7.236,0,0,1-2.2-4.292l-.063-.539.542-.031a7.247,7.247,0,0,1,4.608,1.431,7.239,7.239,0,0,1,2.2,4.293l.063.539-.542.031C25.84,129.408,25.758,129.412,25.625,129.412Zm-5.446-5.264a5.873,5.873,0,0,0,1.729,3.044h0a5.845,5.845,0,0,0,3.3,1.18,5.876,5.876,0,0,0-1.728-3.044A5.842,5.842,0,0,0,20.18,124.148Z" transform="translate(-18.985 -118.707)" fill="#1d1d1b"/></g><g transform="translate(57.108 80.084)"><rect width="1.024" height="6.58" transform="translate(6.331 9.715)" fill="#1d1d1b"/><path d="M93.2,127.6l-.108-.532A8.458,8.458,0,0,1,99.478,116.8l.524-.139.108.532a9.852,9.852,0,0,1-1.032,6.478h0a9.855,9.855,0,0,1-5.355,3.791Zm5.989-9.627a7.273,7.273,0,0,0-5.171,8.313,8.536,8.536,0,0,0,4.193-3.156h0A8.509,8.509,0,0,0,99.186,117.974Z" transform="translate(-86.604 -116.661)" fill="#1d1d1b"/><path d="M90.3,129.412a7.105,7.105,0,0,1-4.375-1.436h0a7.243,7.243,0,0,1-2.2-4.292l-.063-.539.542-.031a6.226,6.226,0,0,1,6.81,5.724l.063.539-.542.031C90.517,129.408,90.435,129.412,90.3,129.412Zm-5.445-5.264a5.876,5.876,0,0,0,1.728,3.044h0a5.845,5.845,0,0,0,3.3,1.18,5.033,5.033,0,0,0-5.025-4.225Z" transform="translate(-83.662 -118.707)" fill="#1d1d1b"/></g><g transform="translate(101.258 80.084)"><rect width="1.024" height="6.58" transform="translate(6.331 9.715)" fill="#1d1d1b"/><path d="M157.876,127.6l-.108-.532a8.456,8.456,0,0,1,6.387-10.269l.525-.139.108.532a9.851,9.851,0,0,1-1.033,6.478h0a9.851,9.851,0,0,1-5.354,3.791Zm5.988-9.626a7.272,7.272,0,0,0-5.171,8.312,8.538,8.538,0,0,0,4.193-3.156h0A8.547,8.547,0,0,0,163.863,117.975Z" transform="translate(-151.282 -116.661)" fill="#1d1d1b"/><path d="M154.98,129.412a7.11,7.11,0,0,1-4.376-1.436h0a7.233,7.233,0,0,1-2.2-4.292l-.063-.539.542-.031a6.226,6.226,0,0,1,6.81,5.724l.062.539-.542.031C155.195,129.408,155.113,129.412,154.98,129.412Zm-5.446-5.264a5.871,5.871,0,0,0,1.728,3.044h0a5.845,5.845,0,0,0,3.3,1.18,5.032,5.032,0,0,0-5.025-4.225Z" transform="translate(-148.34 -118.707)" fill="#1d1d1b"/></g><g transform="translate(26.629 43.792)"><path d="M56.736,98.944A17.725,17.725,0,1,1,74.461,81.219,17.745,17.745,0,0,1,56.736,98.944Zm0-34.426a16.7,16.7,0,1,0,16.7,16.7A16.719,16.719,0,0,0,56.736,64.518Z" transform="translate(-39.011 -63.494)" fill="#1d1d1b"/><path d="M45.4,95.9a.512.512,0,0,1-.32-.911l26.85-21.528a.512.512,0,0,1,.64.8L45.722,95.79A.505.505,0,0,1,45.4,95.9Z" transform="translate(-40.877 -66.622)" fill="#1d1d1b"/></g><g transform="translate(70.641 1.418)"><g transform="translate(9.697)"><path d="M121.777,15.46h0a3.334,3.334,0,0,1-3.335-3.335V5.5a3.334,3.334,0,0,1,3.335-3.335h0A3.335,3.335,0,0,1,125.112,5.5v6.623A3.335,3.335,0,0,1,121.777,15.46Z" transform="translate(-117.93 -1.656)" fill="#fff"/><path d="M121.539,15.734a3.851,3.851,0,0,1-3.847-3.847V5.265a3.847,3.847,0,0,1,7.694,0v6.623A3.851,3.851,0,0,1,121.539,15.734Zm0-13.292a2.826,2.826,0,0,0-2.823,2.823v6.623a2.823,2.823,0,0,0,5.646,0V5.265A2.826,2.826,0,0,0,121.539,2.442Z" transform="translate(-117.692 -1.418)" fill="#1d1d1b"/></g><g transform="translate(50.792)"><path d="M181.98,15.46h0a3.334,3.334,0,0,1-3.335-3.335V5.5a3.334,3.334,0,0,1,3.335-3.335h0A3.335,3.335,0,0,1,185.315,5.5v6.623A3.335,3.335,0,0,1,181.98,15.46Z" transform="translate(-178.133 -1.656)" fill="#fff"/><path d="M181.741,15.734a3.851,3.851,0,0,1-3.846-3.847V5.265a3.847,3.847,0,0,1,7.694,0v6.623A3.851,3.851,0,0,1,181.741,15.734Zm0-13.292a2.826,2.826,0,0,0-2.823,2.823v6.623a2.823,2.823,0,0,0,5.646,0V5.265A2.826,2.826,0,0,0,181.741,2.442Z" transform="translate(-177.895 -1.418)" fill="#1d1d1b"/></g><g transform="translate(16.998 9.957)"><line x2="34.185" transform="translate(0 0.512)" fill="#fff"/><rect width="34.185" height="1.024" transform="translate(0)" fill="#1d1d1b"/></g><g transform="translate(23.862 9.957)"><path d="M0,0H19.433a0,0,0,0,1,0,0V2.776a4.818,4.818,0,0,1-4.818,4.818h-9.8A4.818,4.818,0,0,1,0,2.776V0A0,0,0,0,1,0,0Z" transform="translate(0.512 0.512)" fill="#fff"/><path d="M155.1,24.622H142.245a3.8,3.8,0,0,1-3.8-3.8V16H158.9v4.817A3.8,3.8,0,0,1,155.1,24.622Zm-15.632-7.593v3.793a2.78,2.78,0,0,0,2.777,2.776H155.1a2.779,2.779,0,0,0,2.776-2.776V17.029Z" transform="translate(-138.444 -16.005)" fill="#1d1d1b"/></g><g transform="translate(19.199 17.551)"><path d="M155.758,40.821h5.365V31.177a3.3,3.3,0,0,0-3.3-3.3H135.661a3.3,3.3,0,0,0-3.3,3.3v9.644h5.364" transform="translate(-131.851 -27.367)" fill="#fff"/><path d="M161.4,41.095h-5.877V40.071h4.853V30.939a2.789,2.789,0,0,0-2.786-2.786H135.422a2.789,2.789,0,0,0-2.785,2.786v9.132h4.853v1.024h-5.877V30.939a3.814,3.814,0,0,1,3.809-3.81h22.164a3.814,3.814,0,0,1,3.81,3.81Z" transform="translate(-131.613 -27.129)" fill="#1d1d1b"/></g><path d="M4.831,0H13.2a4.831,4.831,0,0,1,4.831,4.831v6.263a0,0,0,0,1,0,0H0a0,0,0,0,1,0,0V4.831A4.831,4.831,0,0,1,4.831,0Z" transform="translate(26.329 26.663)" fill="#d9d9d9"/><path d="M158.014,50.08H139.472V41.773a3.814,3.814,0,0,1,3.81-3.809v1.024a2.789,2.789,0,0,0-2.786,2.785v7.283h17.518Z" transform="translate(-114.908 -13.017)" fill="#1d1d1b"/><g transform="translate(0 5.111)"><line x2="27.087" transform="translate(0 0.512)" fill="#fff"/><rect width="27.086" height="1.024" fill="#1d1d1b"/></g><g transform="translate(41.095 5.111)"><line x2="27.087" transform="translate(0 0.512)" fill="#fff"/><rect width="27.087" height="1.024" fill="#1d1d1b"/></g></g></g></svg>