<svg xmlns="http://www.w3.org/2000/svg" width="228.67" height="94.947" viewBox="0 0 228.67 94.947"><g transform="translate(-289.573 43.978)"><g transform="translate(488.674 28.596)"><g transform="translate(0)"><path d="M656.923,90.047a7.764,7.764,0,0,0,.8-5.033,6.548,6.548,0,0,0-4.958,7.972A7.762,7.762,0,0,0,656.923,90.047Z" transform="translate(-647.472 -85.014)" fill="#a2c870"/><path d="M645.121,94.55a5.583,5.583,0,0,1-1.667-3.264,4.71,4.71,0,0,1,5.169,4.345A5.584,5.584,0,0,1,645.121,94.55Z" transform="translate(-643.454 -87.756)" fill="#a2c870"/></g></g><g transform="translate(488.674 22.142)"><g transform="translate(0)"><path d="M656.923,78.576a7.762,7.762,0,0,0,.8-5.033,7.76,7.76,0,0,0-4.163,2.939,7.763,7.763,0,0,0-.8,5.033A7.762,7.762,0,0,0,656.923,78.576Z" transform="translate(-647.472 -73.543)" fill="#a2c870"/><path d="M645.121,83.078a5.582,5.582,0,0,1-1.667-3.264,4.71,4.71,0,0,1,5.169,4.345A5.58,5.58,0,0,1,645.121,83.078Z" transform="translate(-643.454 -76.285)" fill="#a2c870"/></g></g><g transform="translate(370.971 35.78)"><path d="M8.093,0h1.8a8.092,8.092,0,0,1,8.092,8.092v0a0,0,0,0,1,0,0H0a0,0,0,0,1,0,0v0A8.093,8.093,0,0,1,8.093,0Z" transform="translate(0 7.096)" fill="#c9ae80"/><g transform="translate(8.498)"><path d="M455.359,98.382a4.129,4.129,0,0,1-6,1.895,4.129,4.129,0,0,1,6-1.895Z" transform="translate(-449.354 -97.784)" fill="#a2c870"/></g></g><g transform="translate(484.866 41.546)"><path d="M8.093,0h1.8a8.092,8.092,0,0,1,8.092,8.092v0a0,0,0,0,1,0,0H0a0,0,0,0,1,0,0v0A8.093,8.093,0,0,1,8.093,0Z" fill="#c9ae80"/></g><g transform="translate(452.128 28.596)"><path d="M591.966,90.047a7.762,7.762,0,0,0,.8-5.033,6.549,6.549,0,0,0-4.959,7.972A7.76,7.76,0,0,0,591.966,90.047Z" transform="translate(-582.515 -85.014)" fill="#a2c870"/><path d="M580.164,94.55a5.583,5.583,0,0,1-1.667-3.264,4.71,4.71,0,0,1,5.169,4.345A5.585,5.585,0,0,1,580.164,94.55Z" transform="translate(-578.497 -87.756)" fill="#a2c870"/></g><g transform="translate(452.128 22.142)"><path d="M591.966,78.576a7.76,7.76,0,0,0,.8-5.033,7.76,7.76,0,0,0-4.163,2.939,7.762,7.762,0,0,0-.8,5.033A7.76,7.76,0,0,0,591.966,78.576Z" transform="translate(-582.515 -73.543)" fill="#a2c870"/><path d="M580.164,83.078a5.581,5.581,0,0,1-1.667-3.264,4.71,4.71,0,0,1,5.169,4.345A5.581,5.581,0,0,1,580.164,83.078Z" transform="translate(-578.497 -76.285)" fill="#a2c870"/></g><g transform="translate(448.32 41.546)"><path d="M8.093,0h1.8a8.092,8.092,0,0,1,8.092,8.092v0a0,0,0,0,1,0,0H0a0,0,0,0,1,0,0v0A8.093,8.093,0,0,1,8.093,0Z" fill="#c9ae80"/></g><g transform="translate(415.582 28.596)"><path d="M527.01,90.047a7.764,7.764,0,0,0,.8-5.033,6.548,6.548,0,0,0-4.958,7.972A7.763,7.763,0,0,0,527.01,90.047Z" transform="translate(-517.559 -85.014)" fill="#a2c870"/><path d="M515.208,94.55a5.583,5.583,0,0,1-1.667-3.264,4.71,4.71,0,0,1,5.169,4.345A5.583,5.583,0,0,1,515.208,94.55Z" transform="translate(-513.541 -87.756)" fill="#a2c870"/></g><g transform="translate(415.582 22.142)"><path d="M527.01,78.576a7.762,7.762,0,0,0,.8-5.033,7.76,7.76,0,0,0-4.163,2.939,7.764,7.764,0,0,0-.8,5.033A7.763,7.763,0,0,0,527.01,78.576Z" transform="translate(-517.559 -73.543)" fill="#a2c870"/><path d="M515.208,83.078a5.581,5.581,0,0,1-1.667-3.264,4.71,4.71,0,0,1,5.169,4.345A5.579,5.579,0,0,1,515.208,83.078Z" transform="translate(-513.541 -76.285)" fill="#a2c870"/></g><g transform="translate(411.774 41.546)"><path d="M8.093,0h1.8a8.092,8.092,0,0,1,8.092,8.092v0a0,0,0,0,1,0,0H0a0,0,0,0,1,0,0v0A8.093,8.093,0,0,1,8.093,0Z" fill="#c9ae80"/></g><g transform="translate(297.989 35.78)"><path d="M8.093,0h1.8a8.092,8.092,0,0,1,8.092,8.092v0a0,0,0,0,1,0,0H0a0,0,0,0,1,0,0v0A8.093,8.093,0,0,1,8.093,0Z" transform="translate(0 7.096)" fill="#c9ae80"/><g transform="translate(8.498)"><path d="M325.641,98.382a4.129,4.129,0,0,1-6.005,1.895,4.129,4.129,0,0,1,6.005-1.895Z" transform="translate(-319.636 -97.784)" fill="#a2c870"/></g></g><g transform="translate(334.194 35.78)"><path d="M8.093,0h1.8a8.092,8.092,0,0,1,8.092,8.092v0a0,0,0,0,1,0,0H0a0,0,0,0,1,0,0v0A8.093,8.093,0,0,1,8.093,0Z" transform="translate(0 7.096)" fill="#c9ae80"/><g transform="translate(1.875)"><path d="M372.214,98.382a4.129,4.129,0,0,0,6.005,1.895,4.129,4.129,0,0,0-6.005-1.895Z" transform="translate(-372.214 -97.784)" fill="#a2c870"/></g></g><g transform="translate(314.199 -42.98)"><rect width="22.326" height="0.844" transform="translate(0 4.213)" fill="#1d1d1b"/><path d="M350.719-30.405a3.174,3.174,0,0,1-3.171-3.171v-5.458a3.174,3.174,0,0,1,3.171-3.171,3.174,3.174,0,0,1,3.17,3.171v5.458A3.174,3.174,0,0,1,350.719-30.405Zm0-10.956a2.33,2.33,0,0,0-2.327,2.327v5.458a2.329,2.329,0,0,0,2.327,2.327,2.329,2.329,0,0,0,2.326-2.327v-5.458A2.33,2.33,0,0,0,350.719-41.361Z" transform="translate(-339.556 42.205)" fill="#1d1d1b"/><rect width="22.326" height="0.844" transform="translate(33.872 4.213)" fill="#1d1d1b"/><path d="M410.922-30.405a3.174,3.174,0,0,1-3.171-3.171v-5.458a3.174,3.174,0,0,1,3.171-3.171,3.175,3.175,0,0,1,3.171,3.171v5.458A3.175,3.175,0,0,1,410.922-30.405Zm0-10.956a2.33,2.33,0,0,0-2.327,2.327v5.458a2.33,2.33,0,0,0,2.327,2.327,2.33,2.33,0,0,0,2.327-2.327v-5.458A2.33,2.33,0,0,0,410.922-41.361Z" transform="translate(-365.887 42.205)" fill="#1d1d1b"/></g><rect width="28.176" height="0.844" transform="translate(328.21 -34.773)" fill="#1d1d1b"/><path d="M382.029-20.515h-10.6a3.136,3.136,0,0,1-3.132-3.133v-3.97h16.861v3.97A3.137,3.137,0,0,1,382.029-20.515Zm-12.884-6.259v3.126a2.291,2.291,0,0,0,2.288,2.289h10.6a2.292,2.292,0,0,0,2.289-2.289v-3.126Z" transform="translate(-34.434 -7.156)" fill="#1d1d1b"/><path d="M386.018-4.982h-4.844v-.844h4v-7.527a2.3,2.3,0,0,0-2.3-2.3H364.61a2.3,2.3,0,0,0-2.3,2.3v7.527h4v.844H361.47v-8.371a3.143,3.143,0,0,1,3.14-3.139h18.268a3.143,3.143,0,0,1,3.14,3.139Z" transform="translate(-31.446 -12.021)" fill="#1d1d1b"/><rect width="1.125" height="28.652" transform="translate(341.735 -10.31)" fill="#82abdb"/><g transform="translate(310.565 -10.708)"><rect width="39.797" height="1.125" transform="translate(0 28.141) rotate(-45)" fill="#82abdb"/><rect width="1.125" height="39.797" transform="translate(34.529 0.796) rotate(-45)" fill="#82abdb"/></g><g transform="translate(289.573 30.519)"><g transform="translate(30.377 2.363)"><path d="M348.883,108.314h-1.315a2.789,2.789,0,0,1-2.786-2.786v-6.28a2.789,2.789,0,0,1,2.786-2.786h1.315a2.789,2.789,0,0,1,2.787,2.786v6.28A2.789,2.789,0,0,1,348.883,108.314Zm-1.315-11.008a1.944,1.944,0,0,0-1.942,1.942v6.28a1.944,1.944,0,0,0,1.942,1.942h1.315a1.944,1.944,0,0,0,1.943-1.942v-6.28a1.944,1.944,0,0,0-1.943-1.942Z" transform="translate(-344.098 -94.308)" fill="#1d1d1b"/><path d="M351.4,101.425h-7.411a.422.422,0,1,1,0-.844H351.4a.422.422,0,1,1,0,.844Z" transform="translate(-343.566 -96.109)" fill="#1d1d1b"/><path d="M351.4,104.542h-7.411a.422.422,0,0,1,0-.844H351.4a.422.422,0,1,1,0,.844Z" transform="translate(-343.566 -97.473)" fill="#1d1d1b"/><path d="M351.4,107.66h-7.411a.422.422,0,1,1,0-.844H351.4a.422.422,0,1,1,0,.844Z" transform="translate(-343.566 -98.836)" fill="#1d1d1b"/><path d="M351.4,110.777h-7.411a.422.422,0,1,1,0-.844H351.4a.422.422,0,1,1,0,.844Z" transform="translate(-343.566 -100.2)" fill="#1d1d1b"/><path d="M351.4,113.894h-7.411a.422.422,0,0,1,0-.844H351.4a.422.422,0,1,1,0,.844Z" transform="translate(-343.566 -101.563)" fill="#1d1d1b"/><g transform="translate(1.618)"><path d="M348.349,95.448a.422.422,0,0,1-.422-.422v-.484a1.066,1.066,0,0,0-1.064-1.064.422.422,0,0,1,0-.844,1.91,1.91,0,0,1,1.908,1.908v.484A.422.422,0,0,1,348.349,95.448Z" transform="translate(-346.441 -92.633)" fill="#1d1d1b"/><path d="M351.646,95.448a.422.422,0,0,1-.422-.422v-.484a1.91,1.91,0,0,1,1.908-1.908.422.422,0,1,1,0,.844,1.065,1.065,0,0,0-1.064,1.064v.484A.422.422,0,0,1,351.646,95.448Z" transform="translate(-348.533 -92.633)" fill="#1d1d1b"/></g></g><g transform="translate(25.139)"><path d="M343.621,107.165a9.366,9.366,0,1,1,9.366-9.366A9.377,9.377,0,0,1,343.621,107.165Zm0-17.888a8.522,8.522,0,1,0,8.522,8.522A8.532,8.532,0,0,0,343.621,89.277Z" transform="translate(-334.256 -88.433)" fill="#1d1d1b"/><path d="M338.384,106.677a.422.422,0,0,1-.264-.751L352.071,94.74a.422.422,0,0,1,.528.658l-13.951,11.186A.42.42,0,0,1,338.384,106.677Z" transform="translate(-335.877 -91.151)" fill="#1d1d1b"/></g><g transform="translate(66 2.363)"><path d="M412.2,108.314h-1.315a2.789,2.789,0,0,1-2.786-2.786v-6.28a2.789,2.789,0,0,1,2.786-2.786H412.2a2.789,2.789,0,0,1,2.786,2.786v6.28A2.789,2.789,0,0,1,412.2,108.314Zm-1.315-11.008a1.944,1.944,0,0,0-1.942,1.942v6.28a1.944,1.944,0,0,0,1.942,1.942H412.2a1.944,1.944,0,0,0,1.942-1.942v-6.28a1.944,1.944,0,0,0-1.942-1.942Z" transform="translate(-407.413 -94.308)" fill="#1d1d1b"/><path d="M414.715,101.425H407.3a.422.422,0,1,1,0-.844h7.412a.422.422,0,1,1,0,.844Z" transform="translate(-406.881 -96.109)" fill="#1d1d1b"/><path d="M414.715,104.542H407.3a.422.422,0,1,1,0-.844h7.412a.422.422,0,1,1,0,.844Z" transform="translate(-406.881 -97.473)" fill="#1d1d1b"/><path d="M414.715,107.66H407.3a.422.422,0,1,1,0-.844h7.412a.422.422,0,1,1,0,.844Z" transform="translate(-406.881 -98.836)" fill="#1d1d1b"/><path d="M414.715,110.777H407.3a.422.422,0,1,1,0-.844h7.412a.422.422,0,1,1,0,.844Z" transform="translate(-406.881 -100.2)" fill="#1d1d1b"/><path d="M414.715,113.894H407.3a.422.422,0,1,1,0-.844h7.412a.422.422,0,1,1,0,.844Z" transform="translate(-406.881 -101.563)" fill="#1d1d1b"/><g transform="translate(1.617)"><path d="M411.663,95.448a.422.422,0,0,1-.422-.422v-.484a1.066,1.066,0,0,0-1.065-1.064.422.422,0,0,1,0-.844,1.91,1.91,0,0,1,1.908,1.908v.484A.422.422,0,0,1,411.663,95.448Z" transform="translate(-409.755 -92.633)" fill="#1d1d1b"/><path d="M414.96,95.448a.422.422,0,0,1-.422-.422v-.484a1.91,1.91,0,0,1,1.908-1.908.422.422,0,1,1,0,.844,1.066,1.066,0,0,0-1.064,1.064v.484A.422.422,0,0,1,414.96,95.448Z" transform="translate(-411.847 -92.633)" fill="#1d1d1b"/></g></g><g transform="translate(60.762)"><path d="M406.937,107.165A9.366,9.366,0,1,1,416.3,97.8,9.377,9.377,0,0,1,406.937,107.165Zm0-17.888a8.522,8.522,0,1,0,8.521,8.522A8.532,8.532,0,0,0,406.937,89.277Z" transform="translate(-397.571 -88.433)" fill="#1d1d1b"/><path d="M401.7,106.677a.422.422,0,0,1-.263-.751L415.386,94.74a.422.422,0,0,1,.527.658l-13.951,11.186A.419.419,0,0,1,401.7,106.677Z" transform="translate(-399.192 -91.151)" fill="#1d1d1b"/></g><rect width="105.449" height="0.844" transform="translate(0 19.27)" fill="#1d1d1b"/><path d="M449.461,117.236h-18.4v-3.6a5.343,5.343,0,0,1,5.337-5.337v.844a4.5,4.5,0,0,0-4.493,4.493v2.756h17.56Z" transform="translate(-351.455 -97.122)" fill="#1d1d1b"/><path d="M384.871,117.236h-18.4v-3.6A5.343,5.343,0,0,1,371.8,108.3v.844a4.5,4.5,0,0,0-4.493,4.493v2.756h17.56Z" transform="translate(-323.205 -97.122)" fill="#1d1d1b"/><path d="M320.281,117.236h-18.4v-3.6c0-3.043,2.544-5.337,5.916-5.337v.844c-2.939,0-5.072,1.889-5.072,4.493v2.756h17.56Z" transform="translate(-294.955 -97.122)" fill="#1d1d1b"/><g transform="translate(15.766 4.019)"><path d="M320.609,99.607a6.169,6.169,0,0,1-2.654-.667l-.358-.195.182-.365a4.675,4.675,0,0,1,6.767-2.135l.359.195-.182.365a5.56,5.56,0,0,1-2.893,2.623A4.043,4.043,0,0,1,320.609,99.607Zm-1.849-1.229a3.7,3.7,0,0,0,4.981-1.571,3.7,3.7,0,0,0-4.981,1.571Z" transform="translate(-317.596 -95.577)" fill="#1d1d1b"/><rect width="0.844" height="4.443" transform="translate(0.147 2.924)" fill="#1d1d1b"/></g><g transform="translate(88.445 4.019)"><path d="M449.788,99.607a6.166,6.166,0,0,1-2.654-.667l-.359-.195.183-.365a4.674,4.674,0,0,1,6.767-2.135l.359.195-.183.365a5.558,5.558,0,0,1-2.892,2.623A4.046,4.046,0,0,1,449.788,99.607Zm-1.849-1.229a3.7,3.7,0,0,0,4.981-1.571,3.7,3.7,0,0,0-4.981,1.571Z" transform="translate(-446.775 -95.577)" fill="#1d1d1b"/><rect width="0.844" height="4.443" transform="translate(0.148 2.924)" fill="#1d1d1b"/></g><g transform="translate(45.936 4.019)"><path d="M375.515,99.607a4.041,4.041,0,0,1-1.22-.18A5.559,5.559,0,0,1,371.4,96.8l-.182-.365.359-.195a4.675,4.675,0,0,1,6.767,2.135l.182.365-.359.195A6.162,6.162,0,0,1,375.515,99.607Zm-3.133-2.8a3.7,3.7,0,0,0,4.981,1.571,3.7,3.7,0,0,0-4.981-1.571Z" transform="translate(-371.219 -95.577)" fill="#1d1d1b"/><rect width="0.844" height="4.443" transform="translate(6.317 2.924)" fill="#1d1d1b"/></g></g><path d="M605.433,28.875A27.54,27.54,0,0,1,587.741,17.1a27.528,27.528,0,0,1-4.208-20.828l1.1.218a26.408,26.408,0,0,0,4.038,19.982,26.421,26.421,0,0,0,16.973,11.295Z" transform="translate(-128.339 -17.606)" fill="#82abdb"/><path d="M613.719,22.131a21.051,21.051,0,0,1-13.511-8.985,21.061,21.061,0,0,1-3.217-15.91l1.1.217a19.943,19.943,0,0,0,3.047,15.065,19.933,19.933,0,0,0,12.793,8.508Z" transform="translate(-134.282 -18.026)" fill="#82abdb"/><path d="M622.013,15.374a14.554,14.554,0,0,1-9.334-6.209,14.566,14.566,0,0,1-2.223-10.989l1.1.216a13.449,13.449,0,0,0,2.052,10.146,13.432,13.432,0,0,0,8.617,5.732Z" transform="translate(-140.227 -18.437)" fill="#82abdb"/><g transform="translate(428.741 -4.744)"><path d="M538.978,39.611c-.044-.2-.259-1.182-.45-2.205l-1.3-.394a.422.422,0,0,1-.166-.712l1.147-1.073c0-.052,0-.1,0-.142A3.664,3.664,0,0,1,543,31.6a3.452,3.452,0,0,1,1.351.8,4.623,4.623,0,0,1,1.912-2.4l6.522-4.093a.985.985,0,0,1,1.507.893,19.424,19.424,0,0,1-.237,2.08l2.191-1.375a.984.984,0,0,1,1.5.894c-.289,4.834-2.11,7.771-3.936,9.522l3-.451a.976.976,0,0,1,.906.346l-.651.538a.135.135,0,0,0-.127-.05l-4.5.674a.422.422,0,0,1-.309-.76c1.991-1.435,4.434-4.312,4.767-9.872a.14.14,0,0,0-.068-.13.142.142,0,0,0-.146,0l-3.02,1.9a.422.422,0,0,1-.635-.452,17.924,17.924,0,0,0,.411-2.914.14.14,0,0,0-.069-.129.142.142,0,0,0-.147,0l-6.521,4.093a3.778,3.778,0,0,0-1.733,2.659.422.422,0,0,1-.773.168,2.7,2.7,0,0,0-1.456-1.133,2.82,2.82,0,0,0-3.7,2.674c0,.075.007.172.016.275a.424.424,0,0,1-.132.345l-.76.711.846.257a.423.423,0,0,1,.293.329c.2,1.1.444,2.215.491,2.428Z" transform="translate(-536.929 -25.757)" fill="#1d1d1b"/><path d="M544,42.066a.862.862,0,1,1,.862-.862A.863.863,0,0,1,544,42.066Zm0-.881.018.019A.019.019,0,0,0,544,41.185Z" transform="translate(-539.643 -32.136)" fill="#1d1d1b"/></g><rect width="105.448" height="0.844" transform="translate(403.822 48.416)" fill="#1d1d1b"/><path d="M652.526,114.795h-18.4v-3.6a5.343,5.343,0,0,1,5.337-5.337v.844a4.5,4.5,0,0,0-4.493,4.493v2.756h17.56Z" transform="translate(-150.698 -65.535)" fill="#1d1d1b"/><path d="M587.936,114.795h-18.4v-3.6a5.343,5.343,0,0,1,5.338-5.337v.844a4.5,4.5,0,0,0-4.494,4.493v2.756h17.56Z" transform="translate(-122.448 -65.535)" fill="#1d1d1b"/><path d="M523.346,114.795h-18.4v-3.6a5.343,5.343,0,0,1,5.338-5.337v.844a4.5,4.5,0,0,0-4.494,4.493v2.756h17.56Z" transform="translate(-94.198 -65.535)" fill="#1d1d1b"/><g transform="translate(414.504 27.315)"><rect width="0.844" height="5.423" transform="translate(5.218 8.007)" fill="#1d1d1b"/><path d="M521.113,91.754l-.089-.438a6.97,6.97,0,0,1,5.265-8.464l.432-.114.089.438a8.122,8.122,0,0,1-.851,5.34h0a8.122,8.122,0,0,1-4.413,3.124Zm4.935-7.935a6,6,0,0,0-4.262,6.852,6,6,0,0,0,4.262-6.852Z" transform="translate(-515.679 -82.737)" fill="#1d1d1b"/><path d="M517.1,94.379A5.862,5.862,0,0,1,513.49,93.2a5.963,5.963,0,0,1-1.814-3.538l-.052-.444.447-.025a5.131,5.131,0,0,1,5.613,4.717l.051.444-.447.026C517.273,94.375,517.206,94.379,517.1,94.379Zm-4.489-4.338a4.144,4.144,0,0,0,4.14,3.48,4.144,4.144,0,0,0-4.14-3.48Z" transform="translate(-511.624 -85.556)" fill="#1d1d1b"/></g><g transform="translate(450.892 27.315)"><rect width="0.844" height="5.423" transform="translate(5.218 8.007)" fill="#1d1d1b"/><path d="M585.79,91.754l-.089-.438a6.971,6.971,0,0,1,5.264-8.464l.433-.114.089.438a8.119,8.119,0,0,1-.851,5.34h0a8.123,8.123,0,0,1-4.413,3.124Zm4.936-7.935a6,6,0,0,0-4.263,6.852,6,6,0,0,0,4.263-6.852Z" transform="translate(-580.356 -82.737)" fill="#1d1d1b"/><path d="M581.774,94.379a5.86,5.86,0,0,1-3.606-1.183,5.968,5.968,0,0,1-1.815-3.538l-.052-.444.447-.025A5.13,5.13,0,0,1,582.36,93.9l.052.444-.447.026C581.95,94.375,581.883,94.379,581.774,94.379Zm-4.488-4.338a4.145,4.145,0,0,0,4.14,3.48,4.144,4.144,0,0,0-4.14-3.48Z" transform="translate(-576.301 -85.556)" fill="#1d1d1b"/></g><g transform="translate(487.282 27.315)"><rect width="0.844" height="5.423" transform="translate(5.218 8.007)" fill="#1d1d1b"/><g transform="translate(0)"><path d="M650.468,91.754l-.089-.438a6.969,6.969,0,0,1,5.264-8.464l.433-.114.089.438a8.122,8.122,0,0,1-.852,5.34h0a8.121,8.121,0,0,1-4.413,3.124Zm4.935-7.934a6,6,0,0,0-4.262,6.852,5.995,5.995,0,0,0,4.262-6.852Z" transform="translate(-645.034 -82.737)" fill="#1d1d1b"/><path d="M646.452,94.379a5.861,5.861,0,0,1-3.607-1.183,5.969,5.969,0,0,1-1.815-3.538l-.051-.444.447-.025a5.13,5.13,0,0,1,5.612,4.717l.052.444-.447.026C646.628,94.375,646.561,94.379,646.452,94.379Zm-4.488-4.338a4.144,4.144,0,0,0,4.14,3.48,4.144,4.144,0,0,0-4.14-3.48Z" transform="translate(-640.979 -85.556)" fill="#1d1d1b"/></g></g><g transform="translate(414.504 20.86)"><rect width="0.844" height="5.423" transform="translate(5.218 8.007)" fill="#1d1d1b"/><path d="M521.113,80.282l-.089-.439a8.12,8.12,0,0,1,.851-5.34,8.121,8.121,0,0,1,4.413-3.124l.432-.114.089.439a8.12,8.12,0,0,1-.851,5.339h0a8.121,8.121,0,0,1-4.413,3.125Zm4.935-7.935a5.994,5.994,0,0,0-4.262,6.852,7.038,7.038,0,0,0,3.456-2.6h0A7.013,7.013,0,0,0,526.048,72.347Z" transform="translate(-515.679 -71.265)" fill="#1d1d1b"/><path d="M517.1,82.907a5.859,5.859,0,0,1-3.607-1.183h0a5.961,5.961,0,0,1-1.814-3.538l-.052-.444.447-.026a5.132,5.132,0,0,1,5.613,4.718l.051.444-.447.026C517.274,82.9,517.206,82.907,517.1,82.907Zm-4.489-4.338a4.839,4.839,0,0,0,1.424,2.509h0a4.82,4.82,0,0,0,2.717.973,4.147,4.147,0,0,0-4.141-3.482Z" transform="translate(-511.624 -74.085)" fill="#1d1d1b"/></g><g transform="translate(450.892 20.86)"><rect width="0.844" height="5.423" transform="translate(5.218 8.007)" fill="#1d1d1b"/><path d="M585.79,80.282l-.089-.439a8.121,8.121,0,0,1,.852-5.34,8.12,8.12,0,0,1,4.413-3.124l.433-.114.089.439a8.118,8.118,0,0,1-.851,5.339h0a8.122,8.122,0,0,1-4.413,3.125Zm4.936-7.935a6,6,0,0,0-4.263,6.852,7.034,7.034,0,0,0,3.457-2.6h0A7.013,7.013,0,0,0,590.726,72.347Z" transform="translate(-580.356 -71.265)" fill="#1d1d1b"/><path d="M581.774,82.907a5.857,5.857,0,0,1-3.606-1.183h0a5.968,5.968,0,0,1-1.815-3.538l-.052-.444.447-.026a5.131,5.131,0,0,1,5.612,4.718l.052.444-.447.026C581.951,82.9,581.883,82.907,581.774,82.907Zm-4.487-4.338a4.839,4.839,0,0,0,1.425,2.509h0a4.817,4.817,0,0,0,2.716.973,4.147,4.147,0,0,0-4.141-3.482Z" transform="translate(-576.301 -74.085)" fill="#1d1d1b"/></g><g transform="translate(487.282 20.86)"><rect width="0.844" height="5.423" transform="translate(5.218 8.007)" fill="#1d1d1b"/><g transform="translate(0)"><path d="M650.468,80.282l-.089-.439a8.121,8.121,0,0,1,.851-5.34,8.123,8.123,0,0,1,4.414-3.124l.433-.114.089.439a8.12,8.12,0,0,1-.852,5.339h0a8.12,8.12,0,0,1-4.413,3.125Zm4.935-7.934a5.994,5.994,0,0,0-4.262,6.851,7.039,7.039,0,0,0,3.456-2.6h0A7.044,7.044,0,0,0,655.4,72.348Z" transform="translate(-645.034 -71.265)" fill="#1d1d1b"/><path d="M646.452,82.907a5.858,5.858,0,0,1-3.606-1.183h0a5.967,5.967,0,0,1-1.815-3.538l-.051-.444.447-.026a5.131,5.131,0,0,1,5.612,4.718l.052.444-.447.026C646.629,82.9,646.561,82.907,646.452,82.907Zm-4.488-4.338a4.835,4.835,0,0,0,1.424,2.509h0a4.818,4.818,0,0,0,2.717.973,4.147,4.147,0,0,0-4.141-3.482Z" transform="translate(-640.979 -74.085)" fill="#1d1d1b"/></g></g><g transform="translate(309.685 23.355)"><path d="M329.7,80.065h-3.963a.422.422,0,1,1,0-.844H329.7a.422.422,0,1,1,0,.844Z" transform="translate(-325.319 -77.239)" fill="#1d1d1b"/><path d="M329.263,80.506a.422.422,0,0,1-.422-.422V76.121a.422.422,0,1,1,.844,0v3.963A.422.422,0,0,1,329.263,80.506Z" transform="translate(-326.859 -75.699)" fill="#1d1d1b"/></g><g transform="translate(390.629 37.008)"><path d="M473.574,104.331h-3.963a.422.422,0,0,1,0-.844h3.963a.422.422,0,1,1,0,.844Z" transform="translate(-469.189 -101.506)" fill="#1d1d1b"/><path d="M473.132,104.772a.422.422,0,0,1-.422-.422v-3.963a.422.422,0,1,1,.844,0v3.963A.422.422,0,0,1,473.132,104.772Z" transform="translate(-470.729 -99.966)" fill="#1d1d1b"/></g><g transform="translate(330.854 28.935)"><path d="M367.33,89.984h-3.963a.422.422,0,0,1,0-.844h3.963a.422.422,0,0,1,0,.844Z" transform="translate(-362.945 -87.158)" fill="#1d1d1b"/><path d="M366.889,90.425a.422.422,0,0,1-.422-.422V86.04a.422.422,0,0,1,.844,0V90A.422.422,0,0,1,366.889,90.425Z" transform="translate(-364.485 -85.618)" fill="#1d1d1b"/></g><g transform="translate(350.027 21.374)"><path d="M401.408,76.543h-3.963a.422.422,0,0,1,0-.844h3.963a.422.422,0,0,1,0,.844Z" transform="translate(-397.023 -73.718)" fill="#1d1d1b"/><path d="M400.967,76.984a.422.422,0,0,1-.422-.422V72.6a.422.422,0,1,1,.844,0v3.963A.422.422,0,0,1,400.967,76.984Z" transform="translate(-398.563 -72.178)" fill="#1d1d1b"/></g><g transform="translate(368.568 30.917)"><path d="M434.363,93.506H430.4a.422.422,0,1,1,0-.844h3.963a.422.422,0,0,1,0,.844Z" transform="translate(-429.978 -90.68)" fill="#1d1d1b"/><path d="M433.921,93.947a.422.422,0,0,1-.422-.422V89.562a.422.422,0,1,1,.844,0v3.963A.422.422,0,0,1,433.921,93.947Z" transform="translate(-431.518 -89.14)" fill="#1d1d1b"/></g><g transform="translate(425.77 -9.053)"><path d="M546.259,47.317a14.609,14.609,0,1,1,14.61-14.61A14.626,14.626,0,0,1,546.259,47.317Zm0-28.375a13.765,13.765,0,1,0,13.766,13.765A13.781,13.781,0,0,0,546.259,18.942Z" transform="translate(-531.649 -18.098)" fill="#1d1d1b"/><path d="M537.95,46.543a.422.422,0,0,1-.263-.751l22.13-17.744a.422.422,0,1,1,.527.658L538.214,46.45A.416.416,0,0,1,537.95,46.543Z" transform="translate(-534.221 -22.409)" fill="#1d1d1b"/></g><g transform="translate(462.046 -43.978)"><g transform="translate(7.992)"><path d="M613.829-32.273h0a2.749,2.749,0,0,1-2.749-2.749V-40.48a2.749,2.749,0,0,1,2.749-2.749h0a2.749,2.749,0,0,1,2.748,2.749v5.458A2.749,2.749,0,0,1,613.829-32.273Z" transform="translate(-610.658 43.65)" fill="#fff"/><path d="M613.5-32.179a3.174,3.174,0,0,1-3.171-3.17v-5.459a3.174,3.174,0,0,1,3.171-3.17,3.174,3.174,0,0,1,3.171,3.17v5.459A3.175,3.175,0,0,1,613.5-32.179Zm0-10.955a2.33,2.33,0,0,0-2.327,2.326v5.459a2.33,2.33,0,0,0,2.327,2.326,2.33,2.33,0,0,0,2.327-2.326v-5.459A2.33,2.33,0,0,0,613.5-43.134Z" transform="translate(-610.33 43.978)" fill="#1d1d1b"/></g><g transform="translate(41.864)"><path d="M674.032-32.273h0a2.749,2.749,0,0,1-2.749-2.749V-40.48a2.749,2.749,0,0,1,2.749-2.749h0a2.749,2.749,0,0,1,2.748,2.749v5.458A2.748,2.748,0,0,1,674.032-32.273Z" transform="translate(-670.861 43.65)" fill="#fff"/><path d="M673.7-32.179a3.175,3.175,0,0,1-3.171-3.17v-5.459a3.174,3.174,0,0,1,3.171-3.17,3.174,3.174,0,0,1,3.171,3.17v5.459A3.175,3.175,0,0,1,673.7-32.179Zm0-10.955a2.33,2.33,0,0,0-2.327,2.326v5.459a2.33,2.33,0,0,0,2.327,2.326,2.33,2.33,0,0,0,2.327-2.326v-5.459A2.33,2.33,0,0,0,673.7-43.134Z" transform="translate(-670.533 43.978)" fill="#1d1d1b"/></g><g transform="translate(14.01 8.207)"><line x2="28.176" transform="translate(0 0.422)" fill="#fff"/><rect width="28.176" height="0.844" transform="translate(0)" fill="#1d1d1b"/></g><g transform="translate(19.668 8.207)"><path d="M0,0H16.017a0,0,0,0,1,0,0V1.441A4.818,4.818,0,0,1,11.2,6.259H4.818A4.818,4.818,0,0,1,0,1.441V0A0,0,0,0,1,0,0Z" transform="translate(0.422 0.422)" fill="#fff"/><path d="M644.811-22.288h-10.6a3.136,3.136,0,0,1-3.132-3.132v-3.97h16.861v3.97A3.136,3.136,0,0,1,644.811-22.288Zm-12.884-6.259v3.126a2.291,2.291,0,0,0,2.288,2.288h10.6a2.291,2.291,0,0,0,2.289-2.288v-3.126Z" transform="translate(-631.083 29.391)" fill="#1d1d1b"/></g><g transform="translate(15.825 14.466)"><path d="M644.284-6.85h4.422V-14.8a2.718,2.718,0,0,0-2.718-2.717H627.72A2.718,2.718,0,0,0,625-14.8V-6.85h4.422" transform="translate(-624.58 17.939)" fill="#fff"/><path d="M648.8-6.756h-4.844V-7.6h4v-7.527a2.3,2.3,0,0,0-2.3-2.3H627.391a2.3,2.3,0,0,0-2.3,2.3V-7.6h4v.844h-4.843v-8.371a3.143,3.143,0,0,1,3.139-3.14H645.66a3.143,3.143,0,0,1,3.14,3.14Z" transform="translate(-624.252 18.267)" fill="#1d1d1b"/></g><path d="M4.831,0h5.2a4.831,4.831,0,0,1,4.831,4.831V9.144a0,0,0,0,1,0,0H0a0,0,0,0,1,0,0V4.831A4.831,4.831,0,0,1,4.831,0Z" transform="translate(21.701 21.976)" fill="#d9d9d9"/><path d="M647.393,2.554H632.11V-4.293a3.143,3.143,0,0,1,3.14-3.139v.844a2.3,2.3,0,0,0-2.3,2.3v6h14.439Z" transform="translate(-611.864 27.994)" fill="#1d1d1b"/><g transform="translate(0 4.213)"><line x2="22.325" transform="translate(0 0.422)" fill="#fff"/><rect width="22.325" height="0.844" fill="#1d1d1b"/></g><g transform="translate(33.872 4.213)"><line x2="22.325" transform="translate(0 0.422)" fill="#fff"/><rect width="22.326" height="0.844" fill="#1d1d1b"/></g></g><path d="M4.064,0H10.8a4.064,4.064,0,0,1,4.064,4.064v5.08a0,0,0,0,1,0,0H0a0,0,0,0,1,0,0V4.064A4.064,4.064,0,0,1,4.064,0Z" transform="translate(335.836 -20.992)" fill="#82abdb"/><path d="M384.611,4.327H369.329V-2.519a3.143,3.143,0,0,1,3.139-3.14v.844a2.3,2.3,0,0,0-2.3,2.3v6h14.438Z" transform="translate(-34.883 -16.76)" fill="#1d1d1b"/></g></svg>