<svg xmlns="http://www.w3.org/2000/svg" width="320" height="209" viewBox="0 0 320 209"><g transform="translate(15304 5829.75)"><g transform="translate(-15304 -5828.75)" fill="#fff"><path d="M 74.71575164794922 83.50002288818359 L 25.28425025939941 83.50002288818359 L 0.5818701386451721 42.00000762939453 L 25.28425025939941 0.5000076293945312 L 74.71575164794922 0.5000076293945312 L 99.41812896728516 42.00000762939453 L 74.71575164794922 83.50002288818359 Z" stroke="none"/><path d="M 25.56851959228516 0.9999923706054688 L 1.163742065429688 42.00000762939453 L 25.56850433349609 83.00000762939453 L 74.43148803710938 83.00000762939453 L 98.83625793457031 42.00000762939453 L 74.43148803710938 0.9999923706054688 L 25.56851959228516 0.9999923706054688 M 25.00001525878906 -7.62939453125e-06 L 75 -7.62939453125e-06 L 100 42.00000762939453 L 75 84.00000762939453 L 25 84.00000762939453 L 0 42.00000762939453 L 25.00001525878906 -7.62939453125e-06 Z" stroke="none" fill="#dedede"/></g><text transform="translate(-15278 -5759.75)" fill="#1c1c1c" font-size="14" font-family="NotoSansKR-Medium, Noto Sans Korean" font-weight="500" letter-spacing="-0.05em"><tspan x="0" y="0">자동관수</tspan></text><path d="M13.628-28.283a1.975,1.975,0,0,0-1.942-1.467,1.985,1.985,0,0,0-1.938,1.467C6.641-17.807,0-14.96,0-7.576A11.751,11.751,0,0,0,11.688,4.25,11.751,11.751,0,0,0,23.375-7.576C23.375-15,16.748-17.759,13.628-28.283ZM11.688,1.063a8.58,8.58,0,0,1-8.5-8.639c0-2.877,1.373-4.844,3.45-7.822a43.316,43.316,0,0,0,5.05-8.8,43.011,43.011,0,0,0,5.06,8.809c2.071,2.96,3.44,4.916,3.44,7.809A8.58,8.58,0,0,1,11.688,1.063Zm1.063-4.25A5.318,5.318,0,0,1,7.438-8.5,1.062,1.062,0,0,0,6.375-9.562,1.062,1.062,0,0,0,5.313-8.5,7.447,7.447,0,0,0,12.75-1.062a1.062,1.062,0,0,0,1.063-1.062A1.062,1.062,0,0,0,12.75-3.187Z" transform="translate(-15265 -5783.75)" fill="#434e49"/><g transform="translate(-15304 -5745.75)" fill="#fff"><path d="M 74.71575164794922 83.50002288818359 L 25.28425025939941 83.50002288818359 L 0.5818701386451721 42.00000762939453 L 25.28425025939941 0.5000076293945312 L 74.71575164794922 0.5000076293945312 L 99.41812896728516 42.00000762939453 L 74.71575164794922 83.50002288818359 Z" stroke="none"/><path d="M 25.56851959228516 0.9999923706054688 L 1.163742065429688 42.00000762939453 L 25.56850433349609 83.00000762939453 L 74.43148803710938 83.00000762939453 L 98.83625793457031 42.00000762939453 L 74.43148803710938 0.9999923706054688 L 25.56851959228516 0.9999923706054688 M 25.00001525878906 -7.62939453125e-06 L 75 -7.62939453125e-06 L 100 42.00000762939453 L 75 84.00000762939453 L 25 84.00000762939453 L 0 42.00000762939453 L 25.00001525878906 -7.62939453125e-06 Z" stroke="none" fill="#dedede"/></g><text transform="translate(-15278 -5673.75)" fill="#1c1c1c" font-size="14" font-family="NotoSansKR-Medium, Noto Sans Korean" font-weight="500" letter-spacing="-0.05em"><tspan x="0" y="0">유해조수</tspan></text><path d="M38.239-15.275a7.721,7.721,0,0,0-7.848-7.038h-.622a17.278,17.278,0,0,1-9.811-3.071,12.649,12.649,0,0,0-7.208-2.242A12.673,12.673,0,0,0,0-14.875,12.738,12.738,0,0,0,6.374-3.851V1.063A1.062,1.062,0,0,0,7.437,2.125H8.5A1.062,1.062,0,0,0,9.562,1.063v-3.6a12.744,12.744,0,0,0,3.187.416c.361,0,.709-.049,1.063-.078V1.063a1.062,1.062,0,0,0,1.063,1.063h1.063A1.063,1.063,0,0,0,17,1.063V-2.886A12.643,12.643,0,0,0,19.678-4.18a18.584,18.584,0,0,1,10.1-3.258h1.03c.172,0,.332-.041.5-.052l4.942,9.06a1.062,1.062,0,0,0,1.994-.509C38.249-15.935,38.254-14.989,38.239-15.275ZM6.4-3.838s0,0,0,0Zm24.415-6.787h-1.03A21.555,21.555,0,0,0,17.938-6.85a9.48,9.48,0,0,1-5.189,1.538,9.565,9.565,0,0,1-9.565-9.562,9.485,9.485,0,0,1,9.565-9.562,9.467,9.467,0,0,1,5.4,1.678,20.391,20.391,0,0,0,11.621,3.634h.622a4.537,4.537,0,0,1,4.665,4.017A4.248,4.248,0,0,1,30.812-10.625ZM36.124-3.1,33.477-7.957a7.426,7.426,0,0,0,2.648-1.725ZM30.812-16.469a1.594,1.594,0,0,0-1.594,1.594,1.594,1.594,0,0,0,1.594,1.594,1.594,1.594,0,0,0,1.594-1.594A1.594,1.594,0,0,0,30.812-16.469Z" transform="translate(-15273 -5700.75)" fill="#434e49"/><g transform="translate(-15231 -5787.75)" fill="#fff"><path d="M 74.71575164794922 83.50002288818359 L 25.28425025939941 83.50002288818359 L 0.5818701386451721 42.00000762939453 L 25.28425025939941 0.5000076293945312 L 74.71575164794922 0.5000076293945312 L 99.41812896728516 42.00000762939453 L 74.71575164794922 83.50002288818359 Z" stroke="none"/><path d="M 25.56851959228516 0.9999923706054688 L 1.163742065429688 42.00000762939453 L 25.56850433349609 83.00000762939453 L 74.43148803710938 83.00000762939453 L 98.83625793457031 42.00000762939453 L 74.43148803710938 0.9999923706054688 L 25.56851959228516 0.9999923706054688 M 25.00001525878906 -7.62939453125e-06 L 75 -7.62939453125e-06 L 100 42.00000762939453 L 75 84.00000762939453 L 25 84.00000762939453 L 0 42.00000762939453 L 25.00001525878906 -7.62939453125e-06 Z" stroke="none" fill="#dedede"/></g><text transform="translate(-15199 -5714.75)" fill="#1c1c1c" font-size="14" font-family="NotoSansKR-Medium, Noto Sans Korean" font-weight="500" letter-spacing="-0.05em"><tspan x="0" y="0">농기계</tspan></text><path d="M18.063-6.375h-.345a7.316,7.316,0,0,0-.574-1.387l.244-.244a1.063,1.063,0,0,0,0-1.5l-1.5-1.5a1.063,1.063,0,0,0-1.5,0l-.244.244a7.4,7.4,0,0,0-1.387-.574v-.345a1.062,1.062,0,0,0-1.062-1.062H9.563A1.062,1.062,0,0,0,8.5-11.687v.345a7.316,7.316,0,0,0-1.387.574l-.244-.244a1.063,1.063,0,0,0-1.5,0l-1.5,1.5a1.063,1.063,0,0,0,0,1.5l.244.244a7.406,7.406,0,0,0-.574,1.387H3.188A1.062,1.062,0,0,0,2.125-5.313v2.125A1.062,1.062,0,0,0,3.188-2.126h.345A7.318,7.318,0,0,0,4.107-.738l-.244.244a1.063,1.063,0,0,0,0,1.5l1.5,1.5a1.063,1.063,0,0,0,1.5,0l.244-.244A7.365,7.365,0,0,0,8.5,2.842v.345A1.062,1.062,0,0,0,9.563,4.249h2.125a1.062,1.062,0,0,0,1.063-1.062V2.842a7.343,7.343,0,0,0,1.388-.574l.244.244a1.063,1.063,0,0,0,1.5,0l1.5-1.5a1.063,1.063,0,0,0,0-1.5l-.244-.244a7.406,7.406,0,0,0,.574-1.387h.345a1.062,1.062,0,0,0,1.063-1.062V-5.313A1.064,1.064,0,0,0,18.063-6.375ZM10.625,0a4.25,4.25,0,0,1-4.25-4.25,4.25,4.25,0,0,1,4.25-4.25,4.25,4.25,0,0,1,4.25,4.25A4.25,4.25,0,0,1,10.625,0ZM39.313-6.375h-.345a7.316,7.316,0,0,0-.574-1.387l.244-.244a1.063,1.063,0,0,0,0-1.5l-1.5-1.5a1.063,1.063,0,0,0-1.5,0l-.244.244A7.4,7.4,0,0,0,34-11.342v-.345a1.062,1.062,0,0,0-1.062-1.062H30.813a1.062,1.062,0,0,0-1.062,1.063v.345a7.316,7.316,0,0,0-1.387.574l-.244-.244a1.063,1.063,0,0,0-1.5,0l-1.5,1.5a1.063,1.063,0,0,0,0,1.5l.244.244a7.4,7.4,0,0,0-.574,1.387h-.345a1.062,1.062,0,0,0-1.062,1.063v2.125a1.062,1.062,0,0,0,1.063,1.063h.345a7.316,7.316,0,0,0,.574,1.387l-.244.244a1.063,1.063,0,0,0,0,1.5l1.5,1.5a1.063,1.063,0,0,0,1.5,0l.244-.244a7.369,7.369,0,0,0,1.388.574v.345A1.062,1.062,0,0,0,30.813,4.25h2.125A1.062,1.062,0,0,0,34,3.188V2.842a7.342,7.342,0,0,0,1.388-.574l.244.244a1.063,1.063,0,0,0,1.5,0l1.5-1.5a1.063,1.063,0,0,0,0-1.5l-.244-.244a7.4,7.4,0,0,0,.574-1.387h.345a1.062,1.062,0,0,0,1.063-1.062V-5.312A1.064,1.064,0,0,0,39.313-6.375ZM31.875,0a4.25,4.25,0,0,1-4.25-4.25,4.25,4.25,0,0,1,4.25-4.25,4.25,4.25,0,0,1,4.25,4.25A4.25,4.25,0,0,1,31.875,0Zm9.563-13.812H40.375v-5.312A2.125,2.125,0,0,0,38.25-21.25H33.363l-5.524-6.9a4.237,4.237,0,0,0-3.318-1.6H17a2.125,2.125,0,0,0-2.125,2.125v6.375H4.25a2.125,2.125,0,0,0-2.125,2.125v5.313H1.063A1.062,1.062,0,0,0,0-12.75v1.063a1.062,1.062,0,0,0,1.063,1.063H2.125v.058A10.617,10.617,0,0,1,5.313-13.4v-4.661H37.188V-13.4a10.617,10.617,0,0,1,3.188,2.835v-.058h1.063A1.062,1.062,0,0,0,42.5-11.687V-12.75A1.062,1.062,0,0,0,41.438-13.812ZM18.063-21.25v-5.312H24.52a1.057,1.057,0,0,1,.829.4L29.28-21.25Z" transform="translate(-15202 -5740.75)" fill="#434e49"/><g transform="translate(-15158 -5829.75)" fill="#fff"><path d="M 74.71575164794922 83.50002288818359 L 25.28425025939941 83.50002288818359 L 0.5818701386451721 42.00000762939453 L 25.28425025939941 0.5000076293945312 L 74.71575164794922 0.5000076293945312 L 99.41812896728516 42.00000762939453 L 74.71575164794922 83.50002288818359 Z" stroke="none"/><path d="M 25.56851959228516 0.9999923706054688 L 1.163742065429688 42.00000762939453 L 25.56850433349609 83.00000762939453 L 74.43148803710938 83.00000762939453 L 98.83625793457031 42.00000762939453 L 74.43148803710938 0.9999923706054688 L 25.56851959228516 0.9999923706054688 M 25.00001525878906 -7.62939453125e-06 L 75 -7.62939453125e-06 L 100 42.00000762939453 L 75 84.00000762939453 L 25 84.00000762939453 L 0 42.00000762939453 L 25.00001525878906 -7.62939453125e-06 Z" stroke="none" fill="#dedede"/></g><text transform="translate(-15132 -5755.75)" fill="#1c1c1c" font-size="14" font-family="NotoSansKR-Medium, Noto Sans Korean" font-weight="500" letter-spacing="-0.05em"><tspan x="0" y="0">방제드론</tspan></text><path d="M19.121-20.719a1.6,1.6,0,0,0-1.594-1.594H11.046a1.572,1.572,0,0,0-1.487-1.063,1.571,1.571,0,0,0-1.486,1.063H1.594A1.594,1.594,0,0,0,0-20.719a1.594,1.594,0,0,0,1.594,1.594H17.531A1.6,1.6,0,0,0,19.121-20.719Zm12.219,6.75L24.908-15.9a12.727,12.727,0,0,0-3.664-.536,12.715,12.715,0,0,0-3.662.536l-6.426,1.929V-17H7.969v4.253a2.126,2.126,0,0,0,2.125,2.125h3.018A11.846,11.846,0,0,0,9.568-3.3q-.005.052-.005.106a1.071,1.071,0,0,0,1.068,1.07h1.079a1.068,1.068,0,0,0,1.041-.987,8.637,8.637,0,0,1,2.78-5.438l1.137,1.138a3.532,3.532,0,0,0,2.5,1.037H23.32a3.531,3.531,0,0,0,2.5-1.037L26.961-8.55a8.637,8.637,0,0,1,2.78,5.438,1.069,1.069,0,0,0,1.041.987h1.08A1.072,1.072,0,0,0,32.929-3.2c0-.036,0-.07,0-.1a11.853,11.853,0,0,0-3.543-7.321H32.4a2.126,2.126,0,0,0,2.125-2.125V-17H31.337Zm-7.77,4.3a.357.357,0,0,1-.25.1H19.171a.355.355,0,0,1-.25-.1l-2.542-2.543,2.119-.636a9.544,9.544,0,0,1,2.748-.4,9.534,9.534,0,0,1,2.747.4l2.12.636ZM40.932-22.308l-6.5.021a1.567,1.567,0,0,0-1.491-1.088,1.566,1.566,0,0,0-1.493,1.1l-6.508.021a1.565,1.565,0,0,0-1.526,1.563,1.565,1.565,0,0,0,1.536,1.564l15.995-.051a1.565,1.565,0,0,0,1.526-1.563,1.564,1.564,0,0,0-1.536-1.564Z" transform="translate(-15129 -5780.75)" fill="#434e49"/><g transform="translate(-15084 -5788.75)" fill="#fff"><path d="M 74.71575164794922 83.50002288818359 L 25.28425025939941 83.50002288818359 L 0.5818701386451721 42.00000762939453 L 25.28425025939941 0.5000076293945312 L 74.71575164794922 0.5000076293945312 L 99.41812896728516 42.00000762939453 L 74.71575164794922 83.50002288818359 Z" stroke="none"/><path d="M 25.56851959228516 0.9999923706054688 L 1.163742065429688 42.00000762939453 L 25.56850433349609 83.00000762939453 L 74.43148803710938 83.00000762939453 L 98.83625793457031 42.00000762939453 L 74.43148803710938 0.9999923706054688 L 25.56851959228516 0.9999923706054688 M 25.00001525878906 -7.62939453125e-06 L 75 -7.62939453125e-06 L 100 42.00000762939453 L 75 84.00000762939453 L 25 84.00000762939453 L 0 42.00000762939453 L 25.00001525878906 -7.62939453125e-06 Z" stroke="none" fill="#dedede"/></g><text transform="translate(-15058 -5714.75)" fill="#1c1c1c" font-size="14" font-family="NotoSansKR-Medium, Noto Sans Korean" font-weight="500" letter-spacing="-0.05em"><tspan x="0" y="0">생육진단</tspan></text><path d="M36.271-29.106a1.035,1.035,0,0,0-.95-.644,1.075,1.075,0,0,0-.93.564,11.387,11.387,0,0,1-9.954,5.811H19.125a12.753,12.753,0,0,0-12.75,12.75,12.738,12.738,0,0,0,.471,3.4A24.975,24.975,0,0,0,.086,2.138,1.592,1.592,0,0,0,3.095,3.181,21.16,21.16,0,0,1,8.161-4.13,12.733,12.733,0,0,0,20.48,2.052C30.912,1.295,38.25-8.055,38.25-19.5A24.148,24.148,0,0,0,36.271-29.106ZM20.148-1.116A9.558,9.558,0,0,1,10.7-6.2a22.581,22.581,0,0,1,13.208-3.9,1.6,1.6,0,0,0,1.594-1.594,1.6,1.6,0,0,0-1.594-1.594A25.747,25.747,0,0,0,9.7-9.337a9.212,9.212,0,0,1-.133-1.288,9.573,9.573,0,0,1,9.562-9.562h5.313a14.456,14.456,0,0,0,10.094-4.044,21.819,21.819,0,0,1,.531,4.728C35.063-9.476,28.834-1.746,20.148-1.116Z" transform="translate(-15053 -5738.75)" fill="#434e49"/><g transform="translate(-15158 -5746.75)" fill="#fff"><path d="M 74.71575164794922 83.50002288818359 L 25.28425025939941 83.50002288818359 L 0.5818701386451721 42.00000762939453 L 25.28425025939941 0.5000076293945312 L 74.71575164794922 0.5000076293945312 L 99.41812896728516 42.00000762939453 L 74.71575164794922 83.50002288818359 Z" stroke="none"/><path d="M 25.56851959228516 0.9999923706054688 L 1.163742065429688 42.00000762939453 L 25.56850433349609 83.00000762939453 L 74.43148803710938 83.00000762939453 L 98.83625793457031 42.00000762939453 L 74.43148803710938 0.9999923706054688 L 25.56851959228516 0.9999923706054688 M 25.00001525878906 -7.62939453125e-06 L 75 -7.62939453125e-06 L 100 42.00000762939453 L 75 84.00000762939453 L 25 84.00000762939453 L 0 42.00000762939453 L 25.00001525878906 -7.62939453125e-06 Z" stroke="none" fill="#dedede"/></g><text transform="translate(-15132 -5673.75)" fill="#1c1c1c" font-size="14" font-family="NotoSansKR-Medium, Noto Sans Korean" font-weight="500" letter-spacing="-0.05em"><tspan x="0" y="0">환경센서</tspan></text><path d="M6.022-24.7a1.586,1.586,0,0,0,.919.292A1.6,1.6,0,0,0,8.535-26a1.587,1.587,0,0,0-.745-1.349L4.6-29.479a1.586,1.586,0,0,0-.919-.292A1.6,1.6,0,0,0,2.09-28.177a1.587,1.587,0,0,0,.745,1.349Zm29.571.266h0a1.583,1.583,0,0,0,.878-.266l3.188-2.125a1.593,1.593,0,0,0,.743-1.348,1.594,1.594,0,0,0-1.594-1.594,1.6,1.6,0,0,0-.916.289L34.71-27.355A1.593,1.593,0,0,0,34-26.03,1.6,1.6,0,0,0,35.594-24.437ZM7.438-17a1.594,1.594,0,0,0-1.594-1.594H1.594A1.594,1.594,0,0,0,0-17a1.594,1.594,0,0,0,1.594,1.594h4.25A1.594,1.594,0,0,0,7.438-17Zm33.469-1.594h-4.25A1.594,1.594,0,0,0,35.063-17a1.594,1.594,0,0,0,1.594,1.594h4.25A1.594,1.594,0,0,0,42.5-17,1.594,1.594,0,0,0,40.906-18.594ZM34-7.437,32.531-21.312A4.789,4.789,0,0,0,27.787-25.5H14.713a4.789,4.789,0,0,0-4.744,4.188L8.5-7.437A2.126,2.126,0,0,0,6.375-5.312V0A2.126,2.126,0,0,0,8.5,2.125H34A2.126,2.126,0,0,0,36.125,0V-5.312A2.126,2.126,0,0,0,34-7.437ZM13.132-20.918a1.6,1.6,0,0,1,1.581-1.395H27.788a1.6,1.6,0,0,1,1.581,1.395l1.419,13.48H16.74l1.317-12.008a.532.532,0,0,0,0-.072.532.532,0,0,0-.461-.526l-1.053-.141a.527.527,0,0,0-.07,0h0a.532.532,0,0,0-.526.461L14.6-7.437H11.712ZM32.938-1.062H9.563V-4.25H32.938Z" transform="translate(-15129 -5697.75)" fill="#434e49"/><g transform="translate(-15231 -5704.75)" fill="#fff"><path d="M 74.71575164794922 83.50002288818359 L 25.28425025939941 83.50002288818359 L 0.5818701386451721 42.00000762939453 L 25.28425025939941 0.5000076293945312 L 74.71575164794922 0.5000076293945312 L 99.41812896728516 42.00000762939453 L 74.71575164794922 83.50002288818359 Z" stroke="none"/><path d="M 25.56851959228516 0.9999923706054688 L 1.163742065429688 42.00000762939453 L 25.56850433349609 83.00000762939453 L 74.43148803710938 83.00000762939453 L 98.83625793457031 42.00000762939453 L 74.43148803710938 0.9999923706054688 L 25.56851959228516 0.9999923706054688 M 25.00001525878906 -7.62939453125e-06 L 75 -7.62939453125e-06 L 100 42.00000762939453 L 75 84.00000762939453 L 25 84.00000762939453 L 0 42.00000762939453 L 25.00001525878906 -7.62939453125e-06 Z" stroke="none" fill="#dedede"/></g><text transform="translate(-15205 -5632.75)" fill="#1c1c1c" font-size="14" font-family="NotoSansKR-Medium, Noto Sans Korean" font-weight="500" letter-spacing="-0.05em"><tspan x="0" y="0">선별저장</tspan></text><path d="M36.105-16.462a7.433,7.433,0,0,0-7.418-6.913,7.39,7.39,0,0,0-1.488.153,11.671,11.671,0,0,0-9.137-4.4A11.693,11.693,0,0,0,6.621-18.341,10.623,10.623,0,0,0,0-8.5,10.622,10.622,0,0,0,10.625,2.125H32.938A9.565,9.565,0,0,0,42.5-7.437,9.566,9.566,0,0,0,36.105-16.462Zm-3.168,15.4H10.625A7.434,7.434,0,0,1,3.188-8.5a7.443,7.443,0,0,1,6.375-7.364v-.073a8.5,8.5,0,0,1,8.5-8.5,8.494,8.494,0,0,1,7.863,5.273,4.226,4.226,0,0,1,2.762-1.023,4.254,4.254,0,0,1,4.25,4.25,4.228,4.228,0,0,1-.584,2.152,5.719,5.719,0,0,1,.584-.027,6.377,6.377,0,0,1,6.375,6.375A6.377,6.377,0,0,1,32.938-1.062ZM25.473-12.777a.8.8,0,0,0-1.136.007L20.719-9.064v-9.264a.8.8,0,0,0-.8-.8H18.328a.8.8,0,0,0-.8.8v9.264L13.912-12.77a.8.8,0,0,0-1.136-.007l-1.122,1.122a.8.8,0,0,0,0,1.129l6.906,6.906a.8.8,0,0,0,1.129,0L26.6-10.525a.8.8,0,0,0,0-1.129Z" transform="translate(-15202 -5656.75)" fill="#434e49"/></g></svg>