<svg xmlns="http://www.w3.org/2000/svg" xmlns:xlink="http://www.w3.org/1999/xlink" width="287" height="36" viewBox="0 0 287 36">
  <defs>
    <clipPath id="clip-path">
      <rect id="사각형_1910" data-name="사각형 1910" width="133.282" height="34" fill="none"/>
    </clipPath>
  </defs>
  <g id="logo" transform="translate(0 -0.001)">
    <g id="그룹_1739" data-name="그룹 1739" transform="translate(0 0.001)" clip-path="url(#clip-path)">
      <path id="패스_38382" data-name="패스 38382" d="M25.006,16.4c-3.132-2.959-7.693,1.222-5.069,5.129,1.341,2,4.793,3.294,9.745,3.034.707-.037.939-.194.235-.514-4.335-1.97-2.6-5.467-4.911-7.649" transform="translate(-2.912 -2.342)" fill="#73aa17" fill-rule="evenodd"/>
      <path id="패스_38383" data-name="패스 38383" d="M11.969,27.1c.323-.615.41-.766-.421-.38-4.7,2.184-5.621-1.341-8.744-.871A3.3,3.3,0,0,0,.042,29.608c.36,2.184,2.892,3.013,4.906,2.808,4.15-.425,6.487-4.3,7.02-5.313" transform="translate(0 -3.924)" fill="#f27c00" fill-rule="evenodd"/>
      <path id="패스_38384" data-name="패스 38384" d="M8.455,24.071c.166.141.382.412-.221.321-7.516-1.133-8.88-5.578-6.926-7.762a3.1,3.1,0,0,1,4.315-.141c2.008,2.214-.155,5.057,2.833,7.583" transform="translate(-0.077 -2.384)" fill="#0084cc" fill-rule="evenodd"/>
      <path id="패스_38385" data-name="패스 38385" d="M40.2,4.566c.732.026.92.175.178.471a5.156,5.156,0,0,0-3.619,4.993c-.1,4.288-6.306,3.152-5.607-1.33.79-5.072,8.2-4.166,9.048-4.134" transform="translate(-4.727 -0.682)" fill="#f27c00" fill-rule="evenodd"/>
      <path id="패스_38386" data-name="패스 38386" d="M15.939,29c1.275,3.811,6.631,2.483,6.189-1.18-.382-3.153-4.151-2.142-4.151-5.612,0-.422-.036-.769-.46-.123-1.181,1.8-2.208,5.028-1.577,6.915" transform="translate(-2.394 -3.303)" fill="#a55196" fill-rule="evenodd"/>
      <path id="패스_38387" data-name="패스 38387" d="M41.532,27.744c-3.3,2.331-4.5-.487-6.875-.62-2.732-.153-3.526,4.286-.01,5.1a6.966,6.966,0,0,0,7.3-4.4c.087-.21,0-.451-.417-.08" transform="translate(-4.91 -4.123)" fill="#73aa17" fill-rule="evenodd"/>
      <path id="패스_38388" data-name="패스 38388" d="M41.23,22.99c.739-3.745-2.371-7.243-2.666-7.615-.078-.1-.711-.862-.437.262.821,3.35-.911,4.3-1.436,6.687-.757,3.435,3.895,3.931,4.539.666" transform="translate(-5.565 -2.285)" fill="#f27c00" fill-rule="evenodd"/>
      <path id="패스_38389" data-name="패스 38389" d="M17.978,15.441c-3.943.4-6.241,1.5-7.483,2.463a3.2,3.2,0,0,0-.517,4.778,3.169,3.169,0,0,0,4.775-.247c1.721-2.117.036-4.7,3.407-6.655.494-.286.186-.377-.182-.338" transform="translate(-1.389 -2.346)" fill="#e44200"/>
      <path id="패스_38390" data-name="패스 38390" d="M48.874,15.965a3.882,3.882,0,0,0-1.738,1.6c-.438.721-.61,1.57-1.055,2.285A6.038,6.038,0,0,1,44.626,21.5c-.321.24-.5.577.114.45a6.619,6.619,0,0,1,2.033-.113,17.992,17.992,0,0,1,2.477.615,2.881,2.881,0,0,0,3.064-.5,4.031,4.031,0,0,0-.141-5.221,3.011,3.011,0,0,0-3.3-.758" transform="translate(-6.739 -2.395)" fill="#73aa17" fill-rule="evenodd"/>
      <path id="패스_38391" data-name="패스 38391" d="M51.8,24.945c-2.648-.415-3.948,1.6-7.846-1.084-.347-.237-.637-.436-.382.352.419,1.281,2.279,6.432,5.88,7.345,5.274,1.34,6.671-5.816,2.348-6.613" transform="translate(-6.609 -3.596)" fill="#0084cc" fill-rule="evenodd"/>
      <path id="패스_38392" data-name="패스 38392" d="M23.747,2.3c-.571,2.93,1.693,4.316,1.136,8.624-.044.343.265.335.349.143,1.719-3.95,4.287-3.8,5.258-6.846C31.943-.328,24.5-1.558,23.747,2.3" transform="translate(-3.596 0)" fill="#0084cc" fill-rule="evenodd"/>
      <path id="패스_38393" data-name="패스 38393" d="M9.946,14.652c3.494.274,3.675-2.3,9.882-1.95.505.028.444-.3.12-.4-5.564-1.678-6.513-5.243-9.405-5.353-4.726-.18-5.4,7.33-.6,7.7" transform="translate(-1.012 -1.056)" fill="#a55196" fill-rule="evenodd"/>
      <path id="패스_38394" data-name="패스 38394" d="M15.409,6.564c2.141,2.753,3.8.935,6.26,3.584.359.387.628.2.35-.254-1.712-2.77.213-5.28-1.224-7.112-2.709-3.455-7.9.544-5.386,3.781" transform="translate(-2.24 -0.221)" fill="#e44200" fill-rule="evenodd"/>
      <path id="패스_38395" data-name="패스 38395" d="M39.146,10.156c0,2.918,3.208,4.269,3.413,9.71.014.36.345.371.415.015,1.06-5.42,4.032-6.469,4.288-9.584.4-4.814-8.116-5.685-8.116-.142" transform="translate(-5.951 -0.963)" fill="#e44200" fill-rule="evenodd"/>
      <path id="패스_38396" data-name="패스 38396" d="M34.584,20.469a3.3,3.3,0,0,0,.566-4.577c-2.163-2.479-4.485-.011-6.695-4.151-.364-.68-.6-.533-.467.2.454,2.528-.376,5.04,1.1,7.284,1.464,2.223,4.079,2.469,5.495,1.241" transform="translate(-4.249 -1.719)" fill="#a55196" fill-rule="evenodd"/>
      <path id="패스_38397" data-name="패스 38397" d="M27.37,27.661a2.859,2.859,0,0,0-2.859,2.859v7.685H30.23V30.52a2.859,2.859,0,0,0-2.859-2.859" transform="translate(-3.726 -4.205)" fill="#99947f" fill-rule="evenodd"/>
      <path id="패스_38398" data-name="패스 38398" d="M71.651,19.225c1.241,1.468,4.689,2.591,7.773,2.591h.554v-2.37h-.554c-2.5,0-5.058-1.194-5.822-2.723h6.1V14.345H73.441a3.173,3.173,0,0,0-.632-1.7H69.448a3.335,3.335,0,0,1,.555,1.7H63.6v2.378h6.1c-.761,1.529-3.323,2.723-5.819,2.723h-.554v2.37h.554c3.082,0,6.524-1.123,7.771-2.591" transform="translate(-9.626 -1.922)" fill="#003d82"/>
      <path id="패스_38399" data-name="패스 38399" d="M81.647,26.734V24.356H60.925v2.378h8.739v.909c-3.052.528-4.989,2.551-4.989,4.959,0,2.818,2.639,5.1,6.61,5.1S77.9,35.42,77.9,32.6c0-2.411-1.938-4.431-4.992-4.959v-.909ZM74.69,32.6c0,1.5-1.53,2.7-3.4,2.7s-3.4-1.208-3.4-2.7,1.525-2.7,3.4-2.7,3.4,1.208,3.4,2.7" transform="translate(-9.261 -3.703)" fill="#003d82"/>
      <path id="패스_38400" data-name="패스 38400" d="M147.07,34.189V28.843h-3.238v5.347h-6.975v2.376h17.229V34.189Z" transform="translate(-20.804 -4.385)" fill="#003d82"/>
      <path id="패스_38401" data-name="패스 38401" d="M138.177,22.442a3.106,3.106,0,0,0,3.108,3.109h11.328V23.181H142.323a.909.909,0,0,1-.909-.913V19.44a5.781,5.781,0,0,0-.6-3.112h11.794V13.951H137.522s.655.707.655,3.191Z" transform="translate(-20.905 -2.121)" fill="#003d82"/>
      <path id="패스_38402" data-name="패스 38402" d="M128.892,17.807V14.1a.912.912,0,0,0-.912-.912h-2.328v8h0a5.987,5.987,0,0,1-2.926.512h-5.8a.908.908,0,0,1-.908-.909V17.11c0-2.485-.741-3.189-.741-3.189h-3.148s.651.7.651,3.189v3.86a3.1,3.1,0,0,0,3.1,3.1h5.657a11.029,11.029,0,0,0,4.112-.586l0-.005V24.8h3.239V20.182H132.1V17.807Z" transform="translate(-17.045 -2.005)" fill="#003d82"/>
      <path id="패스_38403" data-name="패스 38403" d="M116.714,34.524a3.107,3.107,0,0,0,3.107,3.1h9.768V27.909H116.714Zm3.236-4.241h6.4v4.974h-5.492a.915.915,0,0,1-.909-.914Z" transform="translate(-17.742 -4.243)" fill="#003d82"/>
      <path id="패스_38404" data-name="패스 38404" d="M100.335,26.648c-3.623,0-6.561,2.556-6.561,5.7s2.937,5.7,6.561,5.7,6.563-2.554,6.563-5.7-2.938-5.7-6.563-5.7m0,9.006a3.318,3.318,0,1,1,3.351-3.316,3.333,3.333,0,0,1-3.351,3.316" transform="translate(-14.255 -4.051)" fill="#003d82"/>
      <path id="패스_38405" data-name="패스 38405" d="M107.158,13.19H104.83v5.119h-3.385v2.376h3.385V24.8h3.234V14.1a.912.912,0,0,0-.906-.911" transform="translate(-15.421 -2.005)" fill="#003d82"/>
      <path id="패스_38406" data-name="패스 38406" d="M93.75,21.131a8.212,8.212,0,0,0,6,2.963h.217V21.637a4.858,4.858,0,0,1-4.6-4.424h4.275V14.835H95.362a3.626,3.626,0,0,0-.691-2.159h-3.2a3.945,3.945,0,0,1,.608,2.159H87.856v2.378H92.13a4.855,4.855,0,0,1-4.6,4.424v2.457h.216a8.208,8.208,0,0,0,6-2.963" transform="translate(-13.306 -1.927)" fill="#003d82"/>
    </g>
    <text id="데이터허브_포털" data-name="데이터허브 포털" transform="translate(140 30)" fill="#396aff" font-size="24" font-family="Pretendard-Medium, Pretendard" font-weight="500" letter-spacing="-0.03em"><tspan x="0" y="0">데이터허브 포털</tspan></text>
  </g>
</svg>
