<svg id="logo_2" xmlns="http://www.w3.org/2000/svg" xmlns:xlink="http://www.w3.org/1999/xlink" width="34.762" height="39.036" viewBox="0 0 34.762 39.036">
  <defs>
    <clipPath id="clip-path">
      <rect id="사각형_1912" data-name="사각형 1912" width="34.762" height="39.036" fill="#73767f"/>
    </clipPath>
  </defs>
  <g id="그룹_1744" data-name="그룹 1744" clip-path="url(#clip-path)">
    <path id="패스_38407" data-name="패스 38407" d="M50.225,30.036c-1.936-1.828-4.753.755-3.133,3.169.829,1.233,2.962,2.036,6.022,1.875.437-.023.58-.12.145-.317-2.679-1.218-1.607-3.379-3.035-4.727" transform="translate(-33.822 -21.347)" fill="#73767f" fill-rule="evenodd"/>
    <path id="패스_38408" data-name="패스 38408" d="M17.421,50.091c.2-.38.253-.473-.26-.235-2.9,1.349-3.473-.829-5.4-.538a2.041,2.041,0,0,0-1.707,2.321c.222,1.35,1.787,1.861,3.032,1.734,2.565-.263,4.009-2.656,4.338-3.283" transform="translate(-7.275 -35.768)" fill="#73767f" fill-rule="evenodd"/>
    <path id="패스_38409" data-name="패스 38409" d="M15.9,35.135c.1.087.236.255-.137.2-4.644-.7-5.488-3.447-4.28-4.8a1.917,1.917,0,0,1,2.666-.087c1.241,1.368-.1,3.125,1.751,4.685" transform="translate(-7.976 -21.734)" fill="#73767f" fill-rule="evenodd"/>
    <path id="패스_38410" data-name="패스 38410" d="M75.042,8.615c.452.016.568.108.11.291a3.185,3.185,0,0,0-2.236,3.085c-.063,2.65-3.9,1.947-3.465-.822.488-3.134,5.065-2.574,5.591-2.554" transform="translate(-50.373 -6.214)" fill="#73767f" fill-rule="evenodd"/>
    <path id="패스_38411" data-name="패스 38411" d="M40.219,45.983a1.954,1.954,0,0,0,3.824-.729c-.236-1.948-2.565-1.323-2.565-3.468,0-.261-.022-.475-.285-.076-.73,1.115-1.365,3.107-.975,4.273" transform="translate(-29.099 -30.107)" fill="#73767f" fill-rule="evenodd"/>
    <path id="패스_38412" data-name="패스 38412" d="M77.42,52.183c-2.037,1.44-2.782-.3-4.248-.383-1.689-.095-2.179,2.648-.007,3.152a4.3,4.3,0,0,0,4.513-2.72c.054-.13,0-.279-.258-.049" transform="translate(-52.04 -37.587)" fill="#73767f" fill-rule="evenodd"/>
    <path id="패스_38413" data-name="패스 38413" d="M82.8,33.626c.457-2.314-1.465-4.476-1.648-4.705-.048-.06-.439-.533-.269.162.507,2.07-.563,2.657-.888,4.132-.468,2.123,2.407,2.429,2.8.412" transform="translate(-58.012 -20.832)" fill="#73767f" fill-rule="evenodd"/>
    <path id="패스_38414" data-name="패스 38414" d="M32.943,29.479A8.95,8.95,0,0,0,28.32,31,1.979,1.979,0,0,0,28,33.953,1.959,1.959,0,0,0,30.95,33.8c1.063-1.309.022-2.9,2.106-4.112.305-.176.114-.233-.113-.209" transform="translate(-19.941 -21.388)" fill="#73767f"/>
    <path id="패스_38415" data-name="패스 38415" d="M97.5,30.214a2.4,2.4,0,0,0-1.074.987c-.271.446-.377.97-.652,1.412a3.735,3.735,0,0,1-.9,1.019c-.2.148-.309.357.071.278a4.081,4.081,0,0,1,1.256-.07,11.045,11.045,0,0,1,1.531.38,1.782,1.782,0,0,0,1.894-.311,2.492,2.492,0,0,0-.087-3.226,1.861,1.861,0,0,0-2.038-.468" transform="translate(-68.718 -21.828)" fill="#73767f" fill-rule="evenodd"/>
    <path id="패스_38416" data-name="패스 38416" d="M98.2,45.969c-1.636-.256-2.44.989-4.848-.67-.214-.147-.394-.269-.236.218.259.792,1.408,3.974,3.633,4.539,3.259.828,4.122-3.594,1.45-4.087" transform="translate(-67.529 -32.777)" fill="#73767f" fill-rule="evenodd"/>
    <path id="패스_38417" data-name="패스 38417" d="M55.262,1.423c-.353,1.811,1.046,2.667.7,5.329-.027.212.164.207.216.088,1.062-2.441,2.648-2.347,3.249-4.23.9-2.814-3.7-3.574-4.167-1.187" transform="translate(-40.059 0.001)" fill="#73767f" fill-rule="evenodd"/>
    <path id="패스_38418" data-name="패스 38418" d="M24.771,18.027c2.159.169,2.271-1.421,6.106-1.205.312.017.274-.187.073-.248-3.438-1.037-4.024-3.24-5.811-3.308-2.921-.111-3.334,4.529-.369,4.761" transform="translate(-16.5 -9.625)" fill="#73767f" fill-rule="evenodd"/>
    <path id="패스_38419" data-name="패스 38419" d="M38.588,5.932c1.323,1.7,2.351.578,3.869,2.215.221.238.388.122.216-.157-1.058-1.712.132-3.262-.757-4.395-1.675-2.135-4.884.336-3.328,2.336" transform="translate(-27.701 -2.013)" fill="#73767f" fill-rule="evenodd"/>
    <path id="패스_38420" data-name="패스 38420" d="M84.793,14.457c0,1.8,1.982,2.638,2.109,6,.008.222.213.229.256.009.655-3.349,2.492-4,2.65-5.922.245-2.974-5.015-3.512-5.015-.087" transform="translate(-61.53 -8.777)" fill="#73767f" fill-rule="evenodd"/>
    <path id="패스_38421" data-name="패스 38421" d="M67.509,27.251a2.042,2.042,0,0,0,.35-2.829c-1.336-1.531-2.771-.006-4.137-2.564-.224-.421-.37-.329-.288.125.28,1.562-.232,3.114.681,4.5a2.321,2.321,0,0,0,3.4.767" transform="translate(-46.014 -15.665)" fill="#73767f" fill-rule="evenodd"/>
    <path id="패스_38422" data-name="패스 38422" d="M58.607,52.829A1.767,1.767,0,0,0,56.84,54.6v4.749h3.534V54.6a1.766,1.766,0,0,0-1.767-1.767" transform="translate(-41.246 -38.335)" fill="#73767f" fill-rule="evenodd"/>
    <path id="패스_38423" data-name="패스 38423" d="M4.694,133.015a2.537,2.537,0,0,1-.548.074,1.153,1.153,0,0,1-1.318-1.2,1.19,1.19,0,0,1,1.318-1.283,1.546,1.546,0,0,1,.544.1l-.034.405a.988.988,0,0,0-.52-.126.8.8,0,0,0-.806.869.792.792,0,0,0,.816.858,1.353,1.353,0,0,0,.527-.1Z" transform="translate(-2.052 -94.775)" fill="#73767f"/>
    <path id="패스_38424" data-name="패스 38424" d="M10.838,130.1H11.3v1.049h.005a.661.661,0,0,1,.558-.281c.421,0,.6.3.6.694v1.119H12v-.947c0-.215,0-.508-.3-.508-.336,0-.405.361-.405.588v.866h-.463Z" transform="translate(-7.865 -94.406)" fill="#73767f"/>
    <path id="패스_38425" data-name="패스 38425" d="M19.678,134.819h-.437v-.242h-.008a.736.736,0,0,1-.58.282c-.419,0-.6-.3-.6-.695v-1.118h.461v.945c0,.219,0,.511.3.511.333,0,.4-.361.4-.589v-.867h.463Z" transform="translate(-13.098 -96.545)" fill="#73767f"/>
    <path id="패스_38426" data-name="패스 38426" d="M25.475,132.939h.437v.241h.005a.667.667,0,0,1,.583-.281c.419,0,.6.3.6.694v1.119h-.46v-.947c0-.215,0-.508-.3-.508-.333,0-.407.361-.407.588v.866h-.46Z" transform="translate(-18.486 -96.438)" fill="#73767f"/>
    <path id="패스_38427" data-name="패스 38427" d="M33.354,134.354c-.264,0-.391-.3-.391-.536,0-.273.1-.561.412-.561.267,0,.385.247.385.549s-.118.548-.407.548m.427-1.416v.241h-.006a.591.591,0,0,0-.544-.281c-.529,0-.75.492-.75.92,0,.474.2.893.722.893a.633.633,0,0,0,.551-.283h.007c0,.308-.024.689-.534.689a1.33,1.33,0,0,1-.515-.156l-.038.393a1.574,1.574,0,0,0,.612.119.831.831,0,0,0,.936-.934v-1.6Z" transform="translate(-23.57 -96.438)" fill="#73767f"/>
    <path id="패스_38428" data-name="패스 38428" d="M41.215,133.321a.691.691,0,0,0-.312-.065c-.286,0-.469.224-.469.561s.155.577.478.577a.975.975,0,0,0,.354-.083l.021.383a1.511,1.511,0,0,1-.461.057.929.929,0,0,1-.018-1.854,1.469,1.469,0,0,1,.448.06Z" transform="translate(-28.992 -96.437)" fill="#73767f"/>
    <path id="패스_38429" data-name="패스 38429" d="M45.848,130.1h.462v1.049h.005a.664.664,0,0,1,.558-.281c.42,0,.6.3.6.694v1.119h-.462v-.947c0-.215,0-.508-.3-.508-.334,0-.4.361-.4.588v.866h-.462Z" transform="translate(-33.27 -94.406)" fill="#73767f"/>
    <path id="패스_38430" data-name="패스 38430" d="M53.242,133.652a.4.4,0,0,1,.409-.418c.258,0,.361.191.376.418Zm1.095.584a1.182,1.182,0,0,1-.588.179.465.465,0,0,1-.506-.447h1.225c0-.619-.185-1.071-.844-1.071a.829.829,0,0,0-.821.935.841.841,0,0,0,.926.919,1.209,1.209,0,0,0,.609-.14Z" transform="translate(-38.316 -96.437)" fill="#73767f"/>
    <path id="패스_38431" data-name="패스 38431" d="M60.171,133.782a.452.452,0,1,1,.893,0c0,.3-.094.612-.447.612s-.445-.321-.445-.612m-.48.054a.927.927,0,0,0,1.854,0,.927.927,0,1,0-1.854,0" transform="translate(-43.315 -96.437)" fill="#73767f"/>
    <path id="패스_38432" data-name="패스 38432" d="M67.369,132.939h.437v.241h.007a.661.661,0,0,1,.581-.281c.419,0,.6.3.6.694v1.119h-.46v-.947c0-.215-.005-.508-.3-.508-.334,0-.405.361-.405.588v.866h-.461Z" transform="translate(-48.886 -96.438)" fill="#73767f"/>
    <path id="패스_38433" data-name="패스 38433" d="M75.2,134.354c-.264,0-.392-.3-.392-.536,0-.273.1-.561.413-.561.268,0,.385.247.385.549s-.117.548-.406.548m.427-1.416v.241h-.007a.592.592,0,0,0-.545-.281c-.53,0-.749.492-.749.92,0,.474.2.893.722.893a.631.631,0,0,0,.55-.283H75.6c0,.308-.024.689-.532.689a1.332,1.332,0,0,1-.517-.156l-.038.393a1.578,1.578,0,0,0,.613.119.832.832,0,0,0,.936-.934v-1.6Z" transform="translate(-53.933 -96.438)" fill="#73767f"/>
    <path id="패스_38434" data-name="패스 38434" d="M82.158,132.939H82.6v.241H82.6a.667.667,0,0,1,.582-.281c.419,0,.6.3.6.694v1.119h-.462v-.947c0-.215,0-.508-.3-.508-.334,0-.405.361-.405.588v.866h-.461Z" transform="translate(-59.618 -96.438)" fill="#73767f"/>
    <path id="패스_38435" data-name="패스 38435" d="M89.554,134.2c0-.273.306-.305.511-.305h.2a.588.588,0,0,1-.1.364.391.391,0,0,1-.324.159c-.166,0-.292-.065-.292-.218m-.234-.772a.941.941,0,0,1,.547-.191c.271,0,.4.1.4.383h-.254a1.388,1.388,0,0,0-.594.1.518.518,0,0,0-.3.505.565.565,0,0,0,.619.526.635.635,0,0,0,.547-.3h.007a2.642,2.642,0,0,0,.021.264h.4c-.009-.138-.017-.262-.019-.4s-.009-.263-.009-.443v-.227c0-.523-.224-.747-.763-.747a1.59,1.59,0,0,0-.616.134Z" transform="translate(-64.665 -96.437)" fill="#73767f"/>
    <path id="패스_38436" data-name="패스 38436" d="M96.234,132.939h.429v.249h.008a.622.622,0,0,1,.526-.29.514.514,0,0,1,.523.314.607.607,0,0,1,.555-.314c.435,0,.561.3.561.694v1.119h-.461v-1.056c0-.167,0-.4-.264-.4-.308,0-.346.362-.346.6v.859H97.3v-1.056c0-.167,0-.4-.264-.4-.306,0-.344.362-.344.6v.859h-.46Z" transform="translate(-69.832 -96.438)" fill="#73767f"/>
    <rect id="사각형_1911" data-name="사각형 1911" width="0.905" height="0.379" transform="translate(29.283 37.159)" fill="#73767f"/>
    <path id="패스_38437" data-name="패스 38437" d="M111.427,131.79c0-.237.083-.564.383-.564s.413.315.413.564-.1.574-.406.574-.39-.331-.39-.574m.813.891h.449V130.1h-.461v1.016h-.007a.63.63,0,0,0-.53-.249c-.545,0-.743.435-.743.923s.2.931.743.931a.658.658,0,0,0,.543-.24h.007Z" transform="translate(-80.509 -94.406)" fill="#73767f"/>
    <path id="패스_38438" data-name="패스 38438" d="M118.742,133.782a.452.452,0,1,1,.891,0c0,.3-.094.612-.446.612s-.445-.321-.445-.612m-.482.054a.928.928,0,0,0,1.855,0,.928.928,0,1,0-1.855,0" transform="translate(-85.815 -96.437)" fill="#73767f"/>
    <path id="패스_38439" data-name="패스 38439" d="M6.706,90.914a4.921,4.921,0,0,0,3.311,1.1h.235V91.007h-.235a2.91,2.91,0,0,1-2.48-1.16h2.6V88.835H7.468A1.354,1.354,0,0,0,7.2,88.11H5.767A1.422,1.422,0,0,1,6,88.835H3.276v1.013h2.6A2.9,2.9,0,0,1,3.4,91.007H3.16v1.009H3.4a4.923,4.923,0,0,0,3.309-1.1" transform="translate(-2.293 -63.937)" fill="#73767f"/>
    <path id="패스_38440" data-name="패스 38440" d="M8.826,104.543V103.53H0v1.013H3.722v.387A2.282,2.282,0,0,0,1.6,107.042c0,1.2,1.124,2.173,2.815,2.173s2.817-.973,2.817-2.173A2.282,2.282,0,0,0,5.1,104.93v-.387Zm-2.963,2.5a1.328,1.328,0,0,1-1.45,1.151,1.181,1.181,0,1,1,0-2.3,1.328,1.328,0,0,1,1.45,1.149" transform="translate(0 -75.127)" fill="#73767f"/>
    <path id="패스_38441" data-name="패스 38441" d="M104.313,111.714v-2.277h-1.379v2.277H99.963v1.012H107.3v-1.012Z" transform="translate(-72.538 -79.413)" fill="#73767f"/>
    <path id="패스_38442" data-name="패스 38442" d="M101.116,93.448a1.323,1.323,0,0,0,1.324,1.324h4.825V93.763h-4.383a.387.387,0,0,1-.387-.389v-1.2a2.464,2.464,0,0,0-.253-1.326h5.023V89.832h-6.428s.279.3.279,1.359Z" transform="translate(-73.172 -65.187)" fill="#73767f"/>
    <path id="패스_38443" data-name="패스 38443" d="M74.547,90.8V89.219a.388.388,0,0,0-.388-.388h-.991v3.407h0a2.551,2.551,0,0,1-1.246.218H69.45a.387.387,0,0,1-.387-.387V90.5c0-1.058-.316-1.358-.316-1.358h-1.34s.277.3.277,1.358v1.644a1.322,1.322,0,0,0,1.322,1.322h2.409a4.691,4.691,0,0,0,1.751-.25l0,0v.564h1.379V91.809h1.365V90.8Z" transform="translate(-48.914 -64.46)" fill="#73767f"/>
    <path id="패스_38444" data-name="패스 38444" d="M73.443,111.025a1.324,1.324,0,0,0,1.324,1.322h4.16v-4.139H73.443Zm1.378-1.806h2.726v2.119H75.209a.39.39,0,0,1-.387-.39Z" transform="translate(-53.294 -78.521)" fill="#73767f"/>
    <path id="패스_38445" data-name="패스 38445" d="M46.04,106.548a2.452,2.452,0,1,0,2.8,2.427,2.631,2.631,0,0,0-2.8-2.427m0,3.835a1.413,1.413,0,1,1,1.427-1.412,1.42,1.42,0,0,1-1.427,1.412" transform="translate(-31.382 -77.317)" fill="#73767f"/>
    <path id="패스_38446" data-name="패스 38446" d="M55.775,88.831h-.991v2.18H53.342v1.012h1.442v1.754h1.378V89.219a.388.388,0,0,0-.386-.388" transform="translate(-38.708 -64.46)" fill="#73767f"/>
    <path id="패스_38447" data-name="패스 38447" d="M37.675,91.754a3.5,3.5,0,0,0,2.556,1.262h.092V91.97a2.069,2.069,0,0,1-1.959-1.885h1.821V89.073H38.361a1.542,1.542,0,0,0-.294-.92H36.705a1.678,1.678,0,0,1,.259.92h-1.8v1.013h1.82a2.068,2.068,0,0,1-1.959,1.885v1.047h.092a3.5,3.5,0,0,0,2.557-1.262" transform="translate(-25.417 -63.968)" fill="#73767f"/>
  </g>
</svg>
