<svg xmlns="http://www.w3.org/2000/svg" xmlns:xlink="http://www.w3.org/1999/xlink" width="618.703" height="147.537" viewBox="0 0 618.703 147.537">
  <defs>
    <clipPath id="clip-path">
      <path id="패스_52630" data-name="패스 52630" d="M519.6,421.076a12.5,12.5,0,0,0-2.646-3.944,12.679,12.679,0,0,0-3.941-2.629,11.642,11.642,0,0,0-4.74-.956h-7.431v4.836h7.431a7.612,7.612,0,0,1,2.9.578,7.164,7.164,0,0,1,2.361,1.586,7.432,7.432,0,0,1,2.156,5.2h4.858A12.266,12.266,0,0,0,519.6,421.076Z" transform="translate(-500.837 -413.546)" fill="#d3d1cc"/>
    </clipPath>
    <clipPath id="clip-path-2">
      <path id="패스_52832" data-name="패스 52832" d="M518.781,435.423l0,.059a7.152,7.152,0,0,1-.576,2.889,7.648,7.648,0,0,1-1.583,2.33,7.371,7.371,0,0,1-2.361,1.6,8.217,8.217,0,0,1-2.9.547,8,8,0,0,1-2.886-.547,6.978,6.978,0,0,1-2.378-1.6,7.824,7.824,0,0,1-1.591-2.33,7.551,7.551,0,0,1-.575-2.889v-27.25h-.023A4.773,4.773,0,0,0,499.137,413v22.48a11.7,11.7,0,0,0,.956,4.777,12.27,12.27,0,0,0,2.61,3.888,12.926,12.926,0,0,0,3.882,2.618,12.594,12.594,0,0,0,9.519,0,13.538,13.538,0,0,0,3.941-2.618,12.375,12.375,0,0,0,2.646-3.888,12.249,12.249,0,0,0,.951-4.833l0,0Z" transform="translate(-499.137 -408.232)" fill="#d3d1cc"/>
    </clipPath>
  </defs>
  <g id="그룹_7043" data-name="그룹 7043" transform="translate(0)">
    <g id="그룹_7015" data-name="그룹 7015" transform="translate(250.7 61.952)">
      <g id="그룹_6980" data-name="그룹 6980" transform="translate(226.389 0)">
        <g id="그룹_6979" data-name="그룹 6979">
          <path id="패스_52589" data-name="패스 52589" d="M664.794,479.175H641.82V456.086h-6.275V445.718h16.643v23.089h12.605c14.394,0,24.065-13.48,24.065-26.071v-32.93h-6.328V399.438h16.7v43.3C699.227,460.259,686.063,479.175,664.794,479.175Z" transform="translate(-635.546 -399.438)" fill="#d3d1cc"/>
        </g>
      </g>
      <g id="그룹_6982" data-name="그룹 6982" transform="translate(110.839 0)">
        <g id="그룹_6981" data-name="그룹 6981">
          <path id="패스_52590" data-name="패스 52590" d="M599.571,475.194l-4.982-9.093c7.99-4.379,13.362-13.768,13.362-23.366v-32.93H601.62V399.438h16.7v43.3C618.319,456.007,610.786,469.05,599.571,475.194Z" transform="translate(-594.589 -399.438)" fill="#d3d1cc"/>
        </g>
      </g>
      <g id="그룹_6984" data-name="그룹 6984" transform="translate(1.352 0)">
        <g id="그룹_6983" data-name="그룹 6983">
          <path id="패스_52591" data-name="패스 52591" d="M559.026,444.228l-3.245-9.846c18.722-6.167,24.556-17.825,26.373-24.576h-4.8V399.438h15.929l.059,5.129C593.357,405.718,593.259,432.949,559.026,444.228Z" transform="translate(-555.781 -399.438)" fill="#d3d1cc"/>
        </g>
      </g>
      <g id="그룹_6986" data-name="그룹 6986" transform="translate(28.548 5.129)">
        <g id="그룹_6985" data-name="그룹 6985">
          <path id="패스_52592" data-name="패스 52592" d="M599.739,440.917c-34.233-11.279-34.332-38.51-34.318-39.661l10.368.11-5.186-.057,5.186.02c0,.849.4,20.914,27.194,29.742Z" transform="translate(-565.421 -401.256)" fill="#d3d1cc"/>
        </g>
      </g>
      <g id="그룹_6988" data-name="그룹 6988" transform="translate(0 50.849)">
        <g id="그룹_6987" data-name="그룹 6987">
          <rect id="사각형_2598" data-name="사각형 2598" width="67.462" height="10.368" fill="#d3d1cc"/>
        </g>
      </g>
      <g id="그룹_6990" data-name="그룹 6990" transform="translate(301.892 0)">
        <g id="그룹_6989" data-name="그룹 6989">
          <path id="패스_52593" data-name="패스 52593" d="M665.552,444.228l-3.244-9.846c18.725-6.17,24.556-17.825,26.373-24.576h-4.8V399.438h15.929l.057,5.126C699.881,405.718,699.788,432.949,665.552,444.228Z" transform="translate(-662.308 -399.438)" fill="#d3d1cc"/>
        </g>
      </g>
      <g id="그룹_6992" data-name="그룹 6992" transform="translate(329.085 5.129)">
        <g id="그룹_6991" data-name="그룹 6991">
          <path id="패스_52594" data-name="패스 52594" d="M706.27,440.917c-34.236-11.279-34.335-38.51-34.323-39.661l10.368.11-5.183-.057,5.183.02c.006.849.4,20.914,27.2,29.742Z" transform="translate(-671.947 -401.256)" fill="#d3d1cc"/>
        </g>
      </g>
      <g id="그룹_6994" data-name="그룹 6994" transform="translate(300.539 50.849)">
        <g id="그룹_6993" data-name="그룹 6993">
          <rect id="사각형_2599" data-name="사각형 2599" width="67.465" height="10.368" fill="#d3d1cc"/>
        </g>
      </g>
      <g id="그룹_6996" data-name="그룹 6996" transform="translate(145.25 50.849)">
        <g id="그룹_6995" data-name="그룹 6995">
          <rect id="사각형_2600" data-name="사각형 2600" width="67.465" height="10.368" fill="#d3d1cc"/>
        </g>
      </g>
      <g id="그룹_6998" data-name="그룹 6998" transform="translate(69.76)">
        <g id="그룹_6997" data-name="그룹 6997">
          <path id="패스_52595" data-name="패스 52595" d="M623.956,442.735H613.588V409.806h-33.56V399.438h43.927Z" transform="translate(-580.029 -399.438)" fill="#d3d1cc"/>
        </g>
      </g>
      <g id="그룹_7000" data-name="그룹 7000" transform="translate(75.686 5.183)">
        <g id="그룹_6999" data-name="그룹 6999">
          <path id="패스_52596" data-name="패스 52596" d="M582.129,439.61V401.275H592.5V428.59c6.221-.782,14.879-2.624,18.933-6.365l7.033,7.615c-9.271,8.565-28.774,9.5-30.966,9.578Z" transform="translate(-582.129 -401.275)" fill="#d3d1cc"/>
        </g>
      </g>
      <g id="그룹_7002" data-name="그룹 7002" transform="translate(220.323 0)">
        <g id="그룹_7001" data-name="그룹 7001">
          <path id="패스_52597" data-name="패스 52597" d="M639.321,442.956v-33.15H633.4V399.438h16.293v32.5c6.221-.781,14.882-2.624,18.936-6.367l7.033,7.617c-9.273,8.565-28.777,9.5-30.969,9.578Z" transform="translate(-633.396 -399.438)" fill="#d3d1cc"/>
        </g>
      </g>
      <g id="그룹_7004" data-name="그룹 7004" transform="translate(147.905)">
        <g id="그룹_7003" data-name="그룹 7003">
          <rect id="사각형_2601" data-name="사각형 2601" width="55.496" height="10.368" fill="#d3d1cc"/>
        </g>
      </g>
      <g id="그룹_7006" data-name="그룹 7006" transform="translate(153.829 5.183)">
        <g id="그룹_7005" data-name="그룹 7005">
          <path id="패스_52598" data-name="패스 52598" d="M618.985,439.48c-2.065,0-3.526-.042-4.153-.062l-5-.172V401.275H620.2V429.1c11.141-.124,30.554-1.605,38.369-7.711l6.382,8.17C653.494,438.507,629.062,439.48,618.985,439.48Z" transform="translate(-609.827 -401.275)" fill="#d3d1cc"/>
        </g>
      </g>
      <g id="그룹_7008" data-name="그룹 7008" transform="translate(159.014 16.14)">
        <g id="그룹_7007" data-name="그룹 7007">
          <rect id="사각형_2602" data-name="사각형 2602" width="32.602" height="10.368" fill="#d3d1cc"/>
        </g>
      </g>
      <g id="그룹_7010" data-name="그룹 7010" transform="translate(228.993 12.915)">
        <g id="그룹_7009" data-name="그룹 7009">
          <rect id="사각형_2603" data-name="사각형 2603" width="32.602" height="10.368" fill="#d3d1cc"/>
        </g>
      </g>
      <g id="그룹_7012" data-name="그룹 7012" transform="translate(253.885 0.217)">
        <g id="그룹_7011" data-name="그룹 7011">
          <rect id="사각형_2604" data-name="사각형 2604" width="10.368" height="43.034" fill="#d3d1cc"/>
        </g>
      </g>
      <g id="그룹_7014" data-name="그룹 7014" transform="translate(128.645 16.14)">
        <g id="그룹_7013" data-name="그룹 7013">
          <rect id="사각형_2605" data-name="사각형 2605" width="15.714" height="10.368" fill="#d3d1cc"/>
        </g>
      </g>
    </g>
    <g id="그룹_7016" data-name="그룹 7016" transform="translate(24.421 133.507)">
      <path id="패스_52599" data-name="패스 52599" d="M476.849,426.36l1.244,4.785c.274,1.052.525,2.026.7,3h.059c.214-.954.525-1.964.838-2.977l1.538-4.8h1.439l1.459,4.709c.35,1.128.623,2.119.838,3.072h.057a28.362,28.362,0,0,1,.719-3.053l1.346-4.728h1.693l-3.038,9.417h-1.555l-1.439-4.494a31.982,31.982,0,0,1-.838-3.095h-.039a28.055,28.055,0,0,1-.855,3.112l-1.518,4.477h-1.557L475.1,426.36Z" transform="translate(-475.097 -421.962)" fill="#d3d1cc"/>
      <path id="패스_52600" data-name="패스 52600" d="M482,426.36l1.247,4.785c.271,1.052.522,2.026.7,3h.057c.214-.954.527-1.964.838-2.977l1.537-4.8h1.439l1.459,4.709c.35,1.128.624,2.119.838,3.072h.059a27.732,27.732,0,0,1,.719-3.053l1.343-4.728h1.693l-3.036,9.417h-1.557l-1.439-4.494a31.911,31.911,0,0,1-.838-3.095h-.037a28.025,28.025,0,0,1-.858,3.112l-1.518,4.477h-1.557l-2.841-9.417Z" transform="translate(-465.708 -421.962)" fill="#d3d1cc"/>
      <path id="패스_52601" data-name="패스 52601" d="M487.161,426.36l1.244,4.785c.274,1.052.525,2.026.7,3h.059c.214-.954.525-1.964.835-2.977l1.538-4.8h1.439l1.461,4.709c.35,1.128.621,2.119.838,3.072h.056a29.018,29.018,0,0,1,.719-3.053l1.346-4.728h1.69l-3.036,9.417h-1.557l-1.439-4.494a31.869,31.869,0,0,1-.835-3.095h-.04a28.078,28.078,0,0,1-.858,3.112l-1.518,4.477h-1.557l-2.841-9.417Z" transform="translate(-456.322 -421.962)" fill="#d3d1cc"/>
      <path id="패스_52602" data-name="패스 52602" d="M490.445,430.129a1.149,1.149,0,0,1,1.168-1.224,1.228,1.228,0,0,1-.02,2.452A1.147,1.147,0,0,1,490.445,430.129Z" transform="translate(-447.144 -417.327)" fill="#d3d1cc"/>
      <path id="패스_52603" data-name="패스 52603" d="M492.213,434.164a4.487,4.487,0,0,0,2.257.683c1.244,0,1.828-.623,1.828-1.4,0-.818-.488-1.264-1.752-1.732-1.693-.6-2.491-1.538-2.491-2.666,0-1.518,1.227-2.762,3.253-2.762a4.71,4.71,0,0,1,2.313.584l-.429,1.244a3.653,3.653,0,0,0-1.924-.544c-1.016,0-1.577.584-1.577,1.284,0,.779.561,1.128,1.789,1.6,1.636.623,2.471,1.439,2.471,2.841,0,1.653-1.283,2.821-3.521,2.821a5.4,5.4,0,0,1-2.649-.643Z" transform="translate(-444.711 -422.1)" fill="#d3d1cc"/>
      <path id="패스_52604" data-name="패스 52604" d="M494.8,429.046c0-.97-.02-1.769-.079-2.548h1.5l.079,1.518h.059a3.24,3.24,0,0,1,2.957-1.732,2.786,2.786,0,0,1,2.666,1.887h.039a3.889,3.889,0,0,1,1.05-1.227,3.227,3.227,0,0,1,2.082-.66c1.247,0,3.095.815,3.095,4.085v5.547h-1.676v-5.332c0-1.809-.66-2.9-2.04-2.9a2.22,2.22,0,0,0-2.026,1.557,2.8,2.8,0,0,0-.135.858v5.817h-1.673v-5.642c0-1.5-.663-2.59-1.966-2.59A2.345,2.345,0,0,0,496.6,429.4a2.408,2.408,0,0,0-.135.838v5.682H494.8Z" transform="translate(-439.364 -422.1)" fill="#d3d1cc"/>
      <path id="패스_52605" data-name="패스 52605" d="M506.184,435.916l-.135-1.188h-.056a3.515,3.515,0,0,1-2.883,1.4,2.682,2.682,0,0,1-2.878-2.706c0-2.277,2.023-3.521,5.662-3.5v-.192a1.942,1.942,0,0,0-2.139-2.181,4.678,4.678,0,0,0-2.452.7l-.392-1.131a5.856,5.856,0,0,1,3.095-.835c2.88,0,3.58,1.966,3.58,3.854v3.521a13.368,13.368,0,0,0,.155,2.257Zm-.254-4.807c-1.868-.037-3.986.293-3.986,2.122a1.514,1.514,0,0,0,1.614,1.634,2.344,2.344,0,0,0,2.277-1.574,1.755,1.755,0,0,0,.1-.544Z" transform="translate(-429.322 -422.1)" fill="#d3d1cc"/>
      <path id="패스_52606" data-name="패스 52606" d="M503.869,429.435c0-1.109-.022-2.062-.082-2.937h1.5l.056,1.848h.079a2.826,2.826,0,0,1,2.607-2.062,1.835,1.835,0,0,1,.488.059v1.614a2.565,2.565,0,0,0-.584-.056,2.4,2.4,0,0,0-2.3,2.2,4.716,4.716,0,0,0-.079.8v5.019h-1.69Z" transform="translate(-422.845 -422.1)" fill="#d3d1cc"/>
      <path id="패스_52607" data-name="패스 52607" d="M508.987,425.4v2.706h2.452v1.3h-2.452v5.078c0,1.168.33,1.828,1.284,1.828a3.806,3.806,0,0,0,1-.116l.076,1.284a4.147,4.147,0,0,1-1.518.234,2.372,2.372,0,0,1-1.848-.719,3.484,3.484,0,0,1-.663-2.452V429.41h-1.458v-1.3h1.458V425.85Z" transform="translate(-419.079 -423.708)" fill="#d3d1cc"/>
      <path id="패스_52608" data-name="패스 52608" d="M508.487,438.617c.037-.643.079-1.6.079-2.432V424.8h1.69v5.916h.04a3.514,3.514,0,0,1,3.21-1.732c2.336,0,3.989,1.947,3.97,4.8,0,3.369-2.122,5.042-4.221,5.042a3.35,3.35,0,0,1-3.151-1.772h-.062l-.076,1.557Zm1.769-3.775a3.17,3.17,0,0,0,.079.623,2.642,2.642,0,0,0,2.567,2c1.792,0,2.864-1.459,2.864-3.62,0-1.888-.973-3.5-2.8-3.5a2.727,2.727,0,0,0-2.607,2.1,3.37,3.37,0,0,0-.1.7Z" transform="translate(-414.285 -424.801)" fill="#d3d1cc"/>
      <path id="패스_52609" data-name="패스 52609" d="M513.831,431.517a3.014,3.014,0,0,0,3.228,3.27,6.217,6.217,0,0,0,2.607-.485l.294,1.224a7.665,7.665,0,0,1-3.135.584,4.374,4.374,0,0,1-4.63-4.748c0-2.841,1.673-5.078,4.418-5.078,3.072,0,3.891,2.7,3.891,4.438a6.342,6.342,0,0,1-.059.8Zm5.019-1.224c.02-1.089-.448-2.785-2.376-2.785a2.84,2.84,0,0,0-2.626,2.785Z" transform="translate(-407.532 -422.1)" fill="#d3d1cc"/>
      <path id="패스_52610" data-name="패스 52610" d="M521.582,435.916l-.135-1.188h-.059a3.51,3.51,0,0,1-2.881,1.4,2.684,2.684,0,0,1-2.881-2.706c0-2.277,2.026-3.521,5.662-3.5v-.192a1.941,1.941,0,0,0-2.141-2.181,4.682,4.682,0,0,0-2.449.7l-.392-1.131a5.87,5.87,0,0,1,3.095-.835c2.884,0,3.583,1.966,3.583,3.854v3.521a13.387,13.387,0,0,0,.152,2.257Zm-.251-4.807c-1.868-.037-3.989.293-3.989,2.122a1.513,1.513,0,0,0,1.614,1.634,2.347,2.347,0,0,0,2.277-1.574,1.847,1.847,0,0,0,.1-.544Z" transform="translate(-401.283 -422.1)" fill="#d3d1cc"/>
      <path id="패스_52611" data-name="패스 52611" d="M519.262,429.046c0-.97-.02-1.769-.079-2.548H520.7l.1,1.555h.042a3.462,3.462,0,0,1,3.112-1.769c1.3,0,3.326.779,3.326,4.009v5.623h-1.71v-5.428c0-1.521-.567-2.785-2.181-2.785a2.508,2.508,0,0,0-2.412,2.55v5.662h-1.713Z" transform="translate(-394.805 -422.1)" fill="#d3d1cc"/>
      <path id="패스_52612" data-name="패스 52612" d="M523.23,434.164a4.486,4.486,0,0,0,2.257.683c1.247,0,1.831-.623,1.831-1.4,0-.818-.488-1.264-1.752-1.732-1.693-.6-2.491-1.538-2.491-2.666,0-1.518,1.224-2.762,3.25-2.762a4.693,4.693,0,0,1,2.313.584l-.426,1.244a3.664,3.664,0,0,0-1.927-.544c-1.013,0-1.574.584-1.574,1.284,0,.779.561,1.128,1.788,1.6,1.636.623,2.471,1.439,2.471,2.841,0,1.653-1.286,2.821-3.524,2.821a5.377,5.377,0,0,1-2.646-.643Z" transform="translate(-388.216 -422.1)" fill="#d3d1cc"/>
      <path id="패스_52613" data-name="패스 52613" d="M525.544,430.129a1.15,1.15,0,0,1,1.168-1.224,1.228,1.228,0,0,1-.02,2.452A1.147,1.147,0,0,1,525.544,430.129Z" transform="translate(-383.22 -417.327)" fill="#d3d1cc"/>
      <path id="패스_52614" data-name="패스 52614" d="M534.268,435.553a6.332,6.332,0,0,1-2.706.545,4.476,4.476,0,0,1-4.689-4.807,4.786,4.786,0,0,1,5.061-5,5.746,5.746,0,0,1,2.373.485l-.389,1.323a3.953,3.953,0,0,0-1.983-.446,3.55,3.55,0,0,0-.059,7.081,4.853,4.853,0,0,0,2.1-.468Z" transform="translate(-380.8 -422.087)" fill="#d3d1cc"/>
      <path id="패스_52615" data-name="패스 52615" d="M539.126,431.128a4.6,4.6,0,0,1-4.689,5c-2.55,0-4.517-1.87-4.517-4.847,0-3.151,2.065-5,4.669-5C537.295,426.284,539.126,428.251,539.126,431.128Zm-7.474.1c0,2.062,1.188,3.62,2.861,3.62,1.634,0,2.861-1.538,2.861-3.659,0-1.6-.8-3.62-2.821-3.62S531.652,429.435,531.652,431.227Z" transform="translate(-375.25 -422.1)" fill="#d3d1cc"/>
      <path id="패스_52616" data-name="패스 52616" d="M533.635,430.129A1.151,1.151,0,0,1,534.8,428.9a1.228,1.228,0,0,1-.02,2.452A1.147,1.147,0,0,1,533.635,430.129Z" transform="translate(-368.484 -417.327)" fill="#d3d1cc"/>
      <path id="패스_52617" data-name="패스 52617" d="M536.9,433.519h.039c.234-.33.564-.739.835-1.072l2.765-3.247H542.6l-3.636,3.871,4.144,5.547h-2.082l-3.25-4.514-.875.973v3.541h-1.693V424.8H536.9Z" transform="translate(-365.623 -424.801)" fill="#d3d1cc"/>
      <path id="패스_52618" data-name="패스 52618" d="M538.607,429.435c0-1.109-.023-2.062-.079-2.937h1.5l.056,1.848h.082a2.821,2.821,0,0,1,2.6-2.062,1.821,1.821,0,0,1,.488.059v1.614a2.565,2.565,0,0,0-.584-.056,2.4,2.4,0,0,0-2.3,2.2,4.733,4.733,0,0,0-.076.8v5.019h-1.693Z" transform="translate(-359.573 -422.1)" fill="#d3d1cc"/>
    </g>
    <g id="그룹_7039" data-name="그룹 7039" transform="translate(0 0)">
      <g id="그룹_7017" data-name="그룹 7017" transform="translate(48.29)">
        <path id="패스_52619" data-name="패스 52619" d="M516.57,429.841l-5.124-.285c1.453-26.173-6.071-41.628-22.37-45.995-2.779,18.931,10.791,29.527,20.454,31.815l-1.179,4.994c-11.988-2.838-29.053-16.329-23.825-40.448l.527-2.443,2.457.466C501.931,380.676,518.678,391.893,516.57,429.841Z" transform="translate(-483.558 -377.479)" fill="#d3d1cc"/>
      </g>
      <g id="그룹_7033" data-name="그룹 7033" transform="translate(84.598 59.87)">
        <g id="그룹_7018" data-name="그룹 7018" transform="translate(79.791 7.214)">
          <path id="패스_52620" data-name="패스 52620" d="M543.961,425.732h5.25V413.473a11.7,11.7,0,0,0-.956-4.776,12.311,12.311,0,0,0-2.607-3.888,12.881,12.881,0,0,0-3.885-2.615,12.56,12.56,0,0,0-9.519,0,13.425,13.425,0,0,0-3.939,2.615,12.325,12.325,0,0,0-2.646,3.888,12.351,12.351,0,0,0,0,9.5,12.416,12.416,0,0,0,2.646,3.944,12.631,12.631,0,0,0,3.939,2.629,11.663,11.663,0,0,0,4.742.957Zm-12.236-7a7.292,7.292,0,0,1-1.583-2.373,7.533,7.533,0,0,1,0-5.775,7.646,7.646,0,0,1,1.583-2.33,7.318,7.318,0,0,1,2.361-1.594,8.136,8.136,0,0,1,2.9-.55,7.956,7.956,0,0,1,2.886.55,6.931,6.931,0,0,1,2.378,1.594,7.828,7.828,0,0,1,1.591,2.33,7.556,7.556,0,0,1,.572,2.889V420.9h-7.428a7.536,7.536,0,0,1-2.9-.578A7.122,7.122,0,0,1,531.726,418.732Z" transform="translate(-524.709 -401.257)" fill="#d3d1cc"/>
        </g>
        <g id="그룹_7019" data-name="그룹 7019" transform="translate(63.284 41.884)">
          <path id="패스_52621" data-name="패스 52621" d="M539.8,417.1a12.967,12.967,0,0,0-3.885-2.615,12.595,12.595,0,0,0-9.519,0,13.526,13.526,0,0,0-3.941,2.615,12.427,12.427,0,0,0-2.644,3.888,12.361,12.361,0,0,0,0,9.508,12.517,12.517,0,0,0,2.644,3.944,12.677,12.677,0,0,0,3.941,2.629,11.644,11.644,0,0,0,4.74.956h12.228V425.759a11.712,11.712,0,0,0-.957-4.776A12.373,12.373,0,0,0,539.8,417.1Zm-1.233,16.087h-7.431a7.582,7.582,0,0,1-2.9-.576,7.165,7.165,0,0,1-2.362-1.586,7.421,7.421,0,0,1-2.158-5.262,7.142,7.142,0,0,1,.573-2.886,7.6,7.6,0,0,1,1.585-2.33,7.282,7.282,0,0,1,2.362-1.6,8.134,8.134,0,0,1,2.9-.55,7.961,7.961,0,0,1,2.889.55,6.9,6.9,0,0,1,2.379,1.6,7.809,7.809,0,0,1,1.588,2.33,7.5,7.5,0,0,1,.576,2.886Z" transform="translate(-518.858 -413.546)" fill="#d3d1cc"/>
        </g>
        <g id="그룹_7020" data-name="그룹 7020" transform="translate(31.996 7.259)">
          <path id="패스_52622" data-name="패스 52622" d="M542.577,406.69a7.629,7.629,0,0,1,2.339,1.583,7.176,7.176,0,0,1,1.58,2.4,7.315,7.315,0,0,1,.567,2.872v12.224H552V413.54a11.813,11.813,0,0,0-.962-4.731,12.066,12.066,0,0,0-2.655-3.944,12.594,12.594,0,0,0-3.927-2.643,12.171,12.171,0,0,0-4.745-.948,11.646,11.646,0,0,0-5.6,1.34,12.012,12.012,0,0,0-4.22,3.634,12.15,12.15,0,0,0-9.824-4.974,12.059,12.059,0,0,0-4.776.948,12.411,12.411,0,0,0-3.893,2.643,12.382,12.382,0,0,0-3.628,8.676v12.224h4.867V413.54a7.6,7.6,0,0,1,2.155-5.267,7.358,7.358,0,0,1,5.276-2.158,7.249,7.249,0,0,1,2.852.576,7.592,7.592,0,0,1,2.353,1.583,7.7,7.7,0,0,1,2.164,5.267v12.224h4.858V413.54a7.416,7.416,0,0,1,.561-2.872,6.863,6.863,0,0,1,1.6-2.4,7.331,7.331,0,0,1,5.25-2.158A7.321,7.321,0,0,1,542.577,406.69Z" transform="translate(-507.768 -401.273)" fill="#d3d1cc"/>
        </g>
        <g id="그룹_7021" data-name="그룹 7021" transform="translate(107.998 7.214)">
          <path id="패스_52623" data-name="패스 52623" d="M549.434,406.11v-4.853h-2.463a11.932,11.932,0,0,0-4.754.937,13.224,13.224,0,0,0-3.913,2.615,12.611,12.611,0,0,0-2.663,3.888,12.222,12.222,0,0,0-.934,4.776v12.258h4.909V413.473a7.392,7.392,0,0,1,.573-2.889,7.7,7.7,0,0,1,1.568-2.33,7.537,7.537,0,0,1,2.362-1.594,7.663,7.663,0,0,1,2.852-.55Z" transform="translate(-534.707 -401.257)" fill="#d3d1cc"/>
        </g>
        <g id="그룹_7022" data-name="그룹 7022" transform="translate(125.537)">
          <path id="패스_52624" data-name="패스 52624" d="M544.518,426.839a13.283,13.283,0,0,0,3.913,2.615,11.952,11.952,0,0,0,4.757.934h2.46v-4.85h-2.46a7.67,7.67,0,0,1-2.855-.55,7.5,7.5,0,0,1-2.361-1.6,7.7,7.7,0,0,1-1.568-2.33,7.427,7.427,0,0,1-.573-2.886v-7.307H552.8v-4.906H545.83V398.7h-4.906v19.475a12.236,12.236,0,0,0,.931,4.776A12.677,12.677,0,0,0,544.518,426.839Z" transform="translate(-540.924 -398.7)" fill="#d3d1cc"/>
        </g>
        <g id="그룹_7023" data-name="그룹 7023" transform="translate(0 7.262)">
          <path id="패스_52625" data-name="패스 52625" d="M517.615,416h.285a2.454,2.454,0,0,1,0,4.909H504.076v4.909H517.9a7.362,7.362,0,1,0,0-14.724H503.788a2.454,2.454,0,0,1,0-4.909h13.827v-4.906H503.788a7.361,7.361,0,1,0,0,14.721h13.827Z" transform="translate(-496.427 -401.274)" fill="#d3d1cc"/>
        </g>
        <g id="그룹_7024" data-name="그룹 7024" transform="translate(119.037 40.936)">
          <path id="패스_52626" data-name="패스 52626" d="M560.093,423.025H545.983a2.453,2.453,0,1,1,0-4.906h13.824V413.21H545.983a7.362,7.362,0,1,0,0,14.724h14.109a2.454,2.454,0,0,1,0,4.909H546.269v4.909h13.824a7.363,7.363,0,0,0,0-14.727Z" transform="translate(-538.62 -413.21)" fill="#d3d1cc"/>
        </g>
        <g id="그룹_7025" data-name="그룹 7025" transform="translate(91.64 39.929)">
          <path id="패스_52627" data-name="패스 52627" d="M541.15,412.853a12.255,12.255,0,0,0-12.241,12.241v14.188h4.909V425.095a7.334,7.334,0,1,1,14.668,0v14.188h4.909V425.095A12.256,12.256,0,0,0,541.15,412.853Z" transform="translate(-528.909 -412.853)" fill="#d3d1cc"/>
        </g>
        <g id="그룹_7026" data-name="그룹 7026" transform="translate(35.568 41.884)">
          <path id="패스_52628" data-name="패스 52628" d="M528.613,425.418c0,.1.014.206.014.31a7.152,7.152,0,0,1-.576,2.889,7.646,7.646,0,0,1-1.583,2.33,7.314,7.314,0,0,1-2.361,1.594,8.155,8.155,0,0,1-2.9.55,7.943,7.943,0,0,1-2.886-.55,8.25,8.25,0,0,1-2.271-1.521,7.294,7.294,0,0,1-1.583-2.373,7.532,7.532,0,0,1,0-5.775,7.648,7.648,0,0,1,1.583-2.33,7.282,7.282,0,0,1,2.361-1.6,8.163,8.163,0,0,1,2.9-.55,7.948,7.948,0,0,1,2.886.55c.1.04.169.1.262.138l-10.444,10.444,3.47,3.473,10.484-10.484.005.011,3.535-3.535a11.962,11.962,0,0,0-1.538-1.9,12.9,12.9,0,0,0-3.885-2.615,12.586,12.586,0,0,0-9.516,0,13.49,13.49,0,0,0-3.941,2.615,12.437,12.437,0,0,0-2.646,3.888,12.359,12.359,0,0,0,0,9.508,12.566,12.566,0,0,0,1.058,1.972l-.034.034a11.68,11.68,0,0,0,1.537,1.9,12.873,12.873,0,0,0,3.882,2.615,12.558,12.558,0,0,0,9.519,0,13.472,13.472,0,0,0,3.941-2.615,12.377,12.377,0,0,0,2.647-3.888,12.18,12.18,0,0,0,.951-4.776c0-.1-.014-.206-.017-.31Z" transform="translate(-509.034 -413.546)" fill="#d3d1cc"/>
        </g>
        <g id="그룹_7029" data-name="그룹 7029" transform="translate(12.442 41.884)">
          <g id="그룹_7028" data-name="그룹 7028">
            <path id="패스_52629" data-name="패스 52629" d="M519.6,421.076a12.5,12.5,0,0,0-2.646-3.944,12.679,12.679,0,0,0-3.941-2.629,11.642,11.642,0,0,0-4.74-.956h-7.431v4.836h7.431a7.612,7.612,0,0,1,2.9.578,7.164,7.164,0,0,1,2.361,1.586,7.432,7.432,0,0,1,2.156,5.2h4.858A12.266,12.266,0,0,0,519.6,421.076Z" transform="translate(-500.837 -413.546)" fill="#d3d1cc"/>
            <g id="그룹_7027" data-name="그룹 7027" clip-path="url(#clip-path)">
              <rect id="사각형_2606" data-name="사각형 2606" width="19.704" height="12.199" transform="translate(0.001)" fill="#d3d1cc"/>
            </g>
          </g>
        </g>
        <g id="그룹_7032" data-name="그룹 7032" transform="translate(7.646 26.892)">
          <g id="그룹_7031" data-name="그룹 7031">
            <path id="패스_52631" data-name="패스 52631" d="M518.781,435.423l0,.059a7.152,7.152,0,0,1-.576,2.889,7.648,7.648,0,0,1-1.583,2.33,7.371,7.371,0,0,1-2.361,1.6,8.217,8.217,0,0,1-2.9.547,8,8,0,0,1-2.886-.547,6.978,6.978,0,0,1-2.378-1.6,7.824,7.824,0,0,1-1.591-2.33,7.551,7.551,0,0,1-.575-2.889v-27.25h-.023A4.773,4.773,0,0,0,499.137,413v22.48a11.7,11.7,0,0,0,.956,4.777,12.27,12.27,0,0,0,2.61,3.888,12.926,12.926,0,0,0,3.882,2.618,12.594,12.594,0,0,0,9.519,0,13.538,13.538,0,0,0,3.941-2.618,12.375,12.375,0,0,0,2.646-3.888,12.249,12.249,0,0,0,.951-4.833l0,0Z" transform="translate(-499.137 -408.232)" fill="#d3d1cc"/>
            <g id="그룹_7030" data-name="그룹 7030" clip-path="url(#clip-path-2)">
              <path id="패스_52632" data-name="패스 52632" d="M507.267,408.232l-8.129,8.13v-8.13Z" transform="translate(-499.136 -408.232)" fill="#d3d1cc"/>
              <path id="패스_52633" data-name="패스 52633" d="M507.462,408.232l-8.324,8.324v-.195l8.129-8.13Z" transform="translate(-499.136 -408.232)" fill="#d3d1cc"/>
              <path id="패스_52634" data-name="패스 52634" d="M507.656,408.232l-8.519,8.519v-.195l8.324-8.324Z" transform="translate(-499.136 -408.232)" fill="#d3d1cc"/>
              <path id="패스_52635" data-name="패스 52635" d="M507.851,408.232l-8.714,8.714v-.195l8.519-8.519Z" transform="translate(-499.136 -408.232)" fill="#d3d1cc"/>
              <path id="패스_52636" data-name="패스 52636" d="M508.046,408.232l-8.908,8.908v-.195l8.714-8.714Z" transform="translate(-499.136 -408.232)" fill="#d3d1cc"/>
              <path id="패스_52637" data-name="패스 52637" d="M508.24,408.232l-9.1,9.1v-.195l8.908-8.908Z" transform="translate(-499.136 -408.232)" fill="#d3d1cc"/>
              <path id="패스_52638" data-name="패스 52638" d="M508.435,408.232l-9.3,9.3v-.195l9.1-9.1Z" transform="translate(-499.136 -408.232)" fill="#d3d1cc"/>
              <path id="패스_52639" data-name="패스 52639" d="M508.63,408.232l-9.492,9.492v-.195l9.3-9.3Z" transform="translate(-499.136 -408.232)" fill="#d3d1cc"/>
              <path id="패스_52640" data-name="패스 52640" d="M508.824,408.232l-9.687,9.687v-.195l9.492-9.492Z" transform="translate(-499.136 -408.232)" fill="#d3d1cc"/>
              <path id="패스_52641" data-name="패스 52641" d="M509.019,408.232l-9.881,9.882v-.195l9.687-9.687Z" transform="translate(-499.136 -408.232)" fill="#d3d1cc"/>
              <path id="패스_52642" data-name="패스 52642" d="M509.214,408.232l-10.076,10.076v-.195l9.881-9.882Z" transform="translate(-499.136 -408.232)" fill="#d3d1cc"/>
              <path id="패스_52643" data-name="패스 52643" d="M509.262,408.232l.073.073-10.2,10.2v-.195l10.076-10.076Z" transform="translate(-499.136 -408.232)" fill="#d3d1cc"/>
              <path id="패스_52644" data-name="패스 52644" d="M509.335,408.258l.1.1-10.3,10.295v-.195Z" transform="translate(-499.136 -408.185)" fill="#d3d1cc"/>
              <path id="패스_52645" data-name="패스 52645" d="M509.432,408.292l.1.1-10.392,10.392v-.195Z" transform="translate(-499.136 -408.122)" fill="#d3d1cc"/>
              <path id="패스_52646" data-name="패스 52646" d="M509.53,408.327l.1.1-10.49,10.49v-.195Z" transform="translate(-499.136 -408.059)" fill="#d3d1cc"/>
              <path id="패스_52647" data-name="패스 52647" d="M509.627,408.361l.1.1-10.587,10.587v-.195Z" transform="translate(-499.136 -407.996)" fill="#d3d1cc"/>
              <path id="패스_52648" data-name="패스 52648" d="M509.724,408.4l.1.1-10.684,10.684v-.195Z" transform="translate(-499.136 -407.934)" fill="#d3d1cc"/>
              <path id="패스_52649" data-name="패스 52649" d="M509.822,408.43l.1.1-10.782,10.782v-.195Z" transform="translate(-499.136 -407.871)" fill="#d3d1cc"/>
              <path id="패스_52650" data-name="패스 52650" d="M509.919,408.465l.1.1-10.879,10.879v-.195Z" transform="translate(-499.136 -407.808)" fill="#d3d1cc"/>
              <path id="패스_52651" data-name="패스 52651" d="M510.016,408.5l.1.1-10.976,10.976v-.195Z" transform="translate(-499.136 -407.745)" fill="#d3d1cc"/>
              <path id="패스_52652" data-name="패스 52652" d="M510.114,408.534l.1.1L499.137,419.7v-.195Z" transform="translate(-499.136 -407.682)" fill="#d3d1cc"/>
              <path id="패스_52653" data-name="패스 52653" d="M510.211,408.568l.1.1-11.171,11.171v-.195Z" transform="translate(-499.136 -407.62)" fill="#d3d1cc"/>
              <path id="패스_52654" data-name="패스 52654" d="M510.308,408.6l.1.1-11.268,11.268v-.195Z" transform="translate(-499.136 -407.557)" fill="#d3d1cc"/>
              <path id="패스_52655" data-name="패스 52655" d="M510.406,408.637l.1.1L499.137,420.1v-.195Z" transform="translate(-499.136 -407.494)" fill="#d3d1cc"/>
              <path id="패스_52656" data-name="패스 52656" d="M510.5,408.672l.1.1-11.463,11.463v-.195Z" transform="translate(-499.136 -407.431)" fill="#d3d1cc"/>
              <path id="패스_52657" data-name="패스 52657" d="M510.6,408.706l.1.1-11.56,11.56v-.195Z" transform="translate(-499.136 -407.368)" fill="#d3d1cc"/>
              <path id="패스_52658" data-name="패스 52658" d="M510.7,408.741l.1.1L499.137,420.5V420.3Z" transform="translate(-499.136 -407.305)" fill="#d3d1cc"/>
              <path id="패스_52659" data-name="패스 52659" d="M510.8,408.775l.1.1-11.755,11.755v-.195Z" transform="translate(-499.136 -407.243)" fill="#d3d1cc"/>
              <path id="패스_52660" data-name="패스 52660" d="M510.893,408.81l.1.1-11.852,11.852v-.195Z" transform="translate(-499.136 -407.18)" fill="#d3d1cc"/>
              <path id="패스_52661" data-name="패스 52661" d="M510.99,408.844l.1.1-11.95,11.95V420.7Z" transform="translate(-499.136 -407.117)" fill="#d3d1cc"/>
              <path id="패스_52662" data-name="패스 52662" d="M511.087,408.879l.1.1-12.047,12.047v-.195Z" transform="translate(-499.136 -407.054)" fill="#d3d1cc"/>
              <path id="패스_52663" data-name="패스 52663" d="M511.184,408.913l.1.1-12.144,12.144v-.195Z" transform="translate(-499.136 -406.991)" fill="#d3d1cc"/>
              <path id="패스_52664" data-name="패스 52664" d="M511.282,408.948l.1.1-12.242,12.242v-.195Z" transform="translate(-499.136 -406.928)" fill="#d3d1cc"/>
              <path id="패스_52665" data-name="패스 52665" d="M511.379,408.982l.1.1-12.339,12.339v-.195Z" transform="translate(-499.136 -406.866)" fill="#d3d1cc"/>
              <path id="패스_52666" data-name="패스 52666" d="M511.476,409.017l.1.1L499.137,421.55v-.195Z" transform="translate(-499.136 -406.803)" fill="#d3d1cc"/>
              <path id="패스_52667" data-name="패스 52667" d="M511.574,409.051l.1.1-12.534,12.534v-.195Z" transform="translate(-499.136 -406.74)" fill="#d3d1cc"/>
              <path id="패스_52668" data-name="패스 52668" d="M511.671,409.086l.1.1-12.631,12.631v-.195Z" transform="translate(-499.136 -406.677)" fill="#d3d1cc"/>
              <path id="패스_52669" data-name="패스 52669" d="M511.769,409.12l.1.1-12.728,12.728v-.195Z" transform="translate(-499.136 -406.614)" fill="#d3d1cc"/>
              <path id="패스_52670" data-name="패스 52670" d="M511.866,409.155l.1.1-12.826,12.826v-.195Z" transform="translate(-499.136 -406.551)" fill="#d3d1cc"/>
              <path id="패스_52671" data-name="패스 52671" d="M511.963,409.189l.1.1L499.137,422.21v-.195Z" transform="translate(-499.136 -406.488)" fill="#d3d1cc"/>
              <path id="패스_52672" data-name="패스 52672" d="M512.061,409.224l.1.1-13.02,13.02v-.195Z" transform="translate(-499.136 -406.426)" fill="#d3d1cc"/>
              <path id="패스_52673" data-name="패스 52673" d="M512.158,409.258l.1.1-13.118,13.118v-.195Z" transform="translate(-499.136 -406.363)" fill="#d3d1cc"/>
              <path id="패스_52674" data-name="패스 52674" d="M512.255,409.293l.1.1-13.215,13.215v-.195Z" transform="translate(-499.136 -406.3)" fill="#d3d1cc"/>
              <path id="패스_52675" data-name="패스 52675" d="M512.352,409.327l.1.1-13.312,13.313v-.195Z" transform="translate(-499.136 -406.237)" fill="#d3d1cc"/>
              <path id="패스_52676" data-name="패스 52676" d="M512.45,409.362l.1.1-13.41,13.41v-.195Z" transform="translate(-499.136 -406.174)" fill="#d3d1cc"/>
              <path id="패스_52677" data-name="패스 52677" d="M512.547,409.4l.1.1L499.137,423v-.195Z" transform="translate(-499.136 -406.112)" fill="#d3d1cc"/>
              <path id="패스_52678" data-name="패스 52678" d="M512.645,409.431l.1.1-13.6,13.6v-.195Z" transform="translate(-499.136 -406.049)" fill="#d3d1cc"/>
              <path id="패스_52679" data-name="패스 52679" d="M512.742,409.465l.1.1-13.7,13.7v-.195Z" transform="translate(-499.136 -405.986)" fill="#d3d1cc"/>
              <path id="패스_52680" data-name="패스 52680" d="M512.839,409.5l.1.1-13.8,13.8V423.2Z" transform="translate(-499.136 -405.923)" fill="#d3d1cc"/>
              <path id="패스_52681" data-name="패스 52681" d="M512.937,409.534l.1.1-13.9,13.9v-.195Z" transform="translate(-499.136 -405.86)" fill="#d3d1cc"/>
              <path id="패스_52682" data-name="패스 52682" d="M513.034,409.569l.1.1L499.137,423.66v-.195Z" transform="translate(-499.136 -405.797)" fill="#d3d1cc"/>
              <path id="패스_52683" data-name="패스 52683" d="M513.131,409.6l.1.1-14.091,14.091V423.6Z" transform="translate(-499.136 -405.734)" fill="#d3d1cc"/>
              <path id="패스_52684" data-name="패스 52684" d="M513.229,409.638l.1.1-14.188,14.188v-.195Z" transform="translate(-499.136 -405.672)" fill="#d3d1cc"/>
              <path id="패스_52685" data-name="패스 52685" d="M513.326,409.672l.1.1-14.286,14.286v-.195Z" transform="translate(-499.136 -405.609)" fill="#d3d1cc"/>
              <path id="패스_52686" data-name="패스 52686" d="M513.423,409.707l.1.1-14.383,14.383v-.195Z" transform="translate(-499.136 -405.546)" fill="#d3d1cc"/>
              <path id="패스_52687" data-name="패스 52687" d="M513.521,409.741l.1.1-14.48,14.481v-.195Z" transform="translate(-499.136 -405.483)" fill="#d3d1cc"/>
              <path id="패스_52688" data-name="패스 52688" d="M513.618,409.776l.1.1-14.578,14.578v-.195Z" transform="translate(-499.136 -405.42)" fill="#d3d1cc"/>
              <path id="패스_52689" data-name="패스 52689" d="M513.715,409.81l.1.1-14.675,14.675v-.195Z" transform="translate(-499.136 -405.358)" fill="#d3d1cc"/>
              <path id="패스_52690" data-name="패스 52690" d="M513.813,409.845l.1.1-14.772,14.772v-.195Z" transform="translate(-499.136 -405.295)" fill="#d3d1cc"/>
              <path id="패스_52691" data-name="패스 52691" d="M513.91,409.879l.1.1-14.87,14.87v-.195Z" transform="translate(-499.136 -405.232)" fill="#d3d1cc"/>
              <path id="패스_52692" data-name="패스 52692" d="M514.007,409.914l.1.1-14.967,14.967v-.195Z" transform="translate(-499.136 -405.169)" fill="#d3d1cc"/>
              <path id="패스_52693" data-name="패스 52693" d="M514.1,409.948l.1.1L499.137,425.11v-.195Z" transform="translate(-499.136 -405.106)" fill="#d3d1cc"/>
              <path id="패스_52694" data-name="패스 52694" d="M514.2,409.983l.1.1-15.162,15.162v-.195Z" transform="translate(-499.136 -405.043)" fill="#d3d1cc"/>
              <path id="패스_52695" data-name="패스 52695" d="M514.3,410.017l.1.1-15.259,15.259v-.195Z" transform="translate(-499.136 -404.98)" fill="#d3d1cc"/>
              <path id="패스_52696" data-name="패스 52696" d="M514.4,410.052l.1.1-15.356,15.356v-.195Z" transform="translate(-499.136 -404.918)" fill="#d3d1cc"/>
              <path id="패스_52697" data-name="패스 52697" d="M514.494,410.086l.1.1-15.454,15.454v-.195Z" transform="translate(-499.136 -404.855)" fill="#d3d1cc"/>
              <path id="패스_52698" data-name="패스 52698" d="M514.591,410.121l.1.1-15.551,15.551v-.195Z" transform="translate(-499.136 -404.792)" fill="#d3d1cc"/>
              <path id="패스_52699" data-name="패스 52699" d="M514.688,410.155l.1.1L499.137,425.9v-.195Z" transform="translate(-499.136 -404.729)" fill="#d3d1cc"/>
              <path id="패스_52700" data-name="패스 52700" d="M514.786,410.19l.1.1-15.746,15.746v-.195Z" transform="translate(-499.136 -404.666)" fill="#d3d1cc"/>
              <path id="패스_52701" data-name="패스 52701" d="M514.883,410.224l.1.1-15.843,15.843v-.195Z" transform="translate(-499.136 -404.603)" fill="#d3d1cc"/>
              <path id="패스_52702" data-name="패스 52702" d="M514.98,410.259l.1.1-15.94,15.94V426.1Z" transform="translate(-499.136 -404.541)" fill="#d3d1cc"/>
              <path id="패스_52703" data-name="패스 52703" d="M515.078,410.293l.1.1-16.038,16.038v-.195Z" transform="translate(-499.136 -404.478)" fill="#d3d1cc"/>
              <path id="패스_52704" data-name="패스 52704" d="M515.175,410.328l.1.1L499.137,426.56v-.195Z" transform="translate(-499.136 -404.415)" fill="#d3d1cc"/>
              <path id="패스_52705" data-name="패스 52705" d="M515.273,410.362l.1.1-16.232,16.232V426.5Z" transform="translate(-499.136 -404.352)" fill="#d3d1cc"/>
              <path id="패스_52706" data-name="패스 52706" d="M515.37,410.4l.1.1-16.33,16.33v-.195Z" transform="translate(-499.136 -404.289)" fill="#d3d1cc"/>
              <path id="패스_52707" data-name="패스 52707" d="M515.467,410.431l.1.1-16.427,16.427v-.195Z" transform="translate(-499.136 -404.226)" fill="#d3d1cc"/>
              <path id="패스_52708" data-name="패스 52708" d="M515.565,410.466l.1.1-16.524,16.524v-.195Z" transform="translate(-499.136 -404.164)" fill="#d3d1cc"/>
              <path id="패스_52709" data-name="패스 52709" d="M515.662,410.5l.1.1-16.622,16.622v-.195Z" transform="translate(-499.136 -404.101)" fill="#d3d1cc"/>
              <path id="패스_52710" data-name="패스 52710" d="M515.759,410.535l.1.1-16.719,16.719v-.195Z" transform="translate(-499.136 -404.038)" fill="#d3d1cc"/>
              <path id="패스_52711" data-name="패스 52711" d="M515.857,410.569l.1.1-16.816,16.816v-.195Z" transform="translate(-499.136 -403.975)" fill="#d3d1cc"/>
              <path id="패스_52712" data-name="패스 52712" d="M515.954,410.6l.1.1-16.914,16.914v-.195Z" transform="translate(-499.136 -403.912)" fill="#d3d1cc"/>
              <path id="패스_52713" data-name="패스 52713" d="M516.051,410.638l.1.1-17.011,17.011v-.195Z" transform="translate(-499.136 -403.849)" fill="#d3d1cc"/>
              <path id="패스_52714" data-name="패스 52714" d="M516.149,410.673l.1.1-17.108,17.108v-.195Z" transform="translate(-499.136 -403.787)" fill="#d3d1cc"/>
              <path id="패스_52715" data-name="패스 52715" d="M516.246,410.707l.1.1L499.137,428.01v-.195Z" transform="translate(-499.136 -403.724)" fill="#d3d1cc"/>
              <path id="패스_52716" data-name="패스 52716" d="M516.343,410.742l.1.1-17.3,17.3v-.195Z" transform="translate(-499.136 -403.661)" fill="#d3d1cc"/>
              <path id="패스_52717" data-name="패스 52717" d="M516.441,410.776l.1.1-17.4,17.4v-.195Z" transform="translate(-499.136 -403.598)" fill="#d3d1cc"/>
              <path id="패스_52718" data-name="패스 52718" d="M516.538,410.811l.1.1-17.5,17.5v-.195Z" transform="translate(-499.136 -403.535)" fill="#d3d1cc"/>
              <path id="패스_52719" data-name="패스 52719" d="M516.635,410.845l.1.1-17.6,17.6v-.195Z" transform="translate(-499.136 -403.472)" fill="#d3d1cc"/>
              <path id="패스_52720" data-name="패스 52720" d="M516.733,410.88l.1.1L499.137,428.67v-.195Z" transform="translate(-499.136 -403.41)" fill="#d3d1cc"/>
              <path id="패스_52721" data-name="패스 52721" d="M516.83,410.914l.1.1-17.79,17.79v-.195Z" transform="translate(-499.136 -403.347)" fill="#d3d1cc"/>
              <path id="패스_52722" data-name="패스 52722" d="M516.927,410.949l.1.1-17.887,17.887v-.195Z" transform="translate(-499.136 -403.284)" fill="#d3d1cc"/>
              <path id="패스_52723" data-name="패스 52723" d="M517.025,410.983l.1.1-17.984,17.984v-.195Z" transform="translate(-499.136 -403.221)" fill="#d3d1cc"/>
              <path id="패스_52724" data-name="패스 52724" d="M517.122,411.018l.1.1L499.137,429.2V429Z" transform="translate(-499.136 -403.158)" fill="#d3d1cc"/>
              <path id="패스_52725" data-name="패스 52725" d="M517.219,411.052l.1.1-18.179,18.179v-.195Z" transform="translate(-499.136 -403.096)" fill="#d3d1cc"/>
              <path id="패스_52726" data-name="패스 52726" d="M517.317,411.087l.1.1-18.276,18.276v-.195Z" transform="translate(-499.136 -403.033)" fill="#d3d1cc"/>
              <path id="패스_52727" data-name="패스 52727" d="M517.414,411.121l.1.1-18.374,18.374V429.4Z" transform="translate(-499.136 -402.97)" fill="#d3d1cc"/>
              <path id="패스_52728" data-name="패스 52728" d="M517.511,411.156l.1.1-18.471,18.471v-.195Z" transform="translate(-499.136 -402.907)" fill="#d3d1cc"/>
              <path id="패스_52729" data-name="패스 52729" d="M517.609,411.19l.1.1-18.568,18.568v-.195Z" transform="translate(-499.136 -402.844)" fill="#d3d1cc"/>
              <path id="패스_52730" data-name="패스 52730" d="M517.706,411.225l.1.1-18.666,18.666v-.195Z" transform="translate(-499.136 -402.781)" fill="#d3d1cc"/>
              <path id="패스_52731" data-name="패스 52731" d="M517.8,411.259l.1.1L499.137,430.12v-.195Z" transform="translate(-499.136 -402.719)" fill="#d3d1cc"/>
              <path id="패스_52732" data-name="패스 52732" d="M517.9,411.294l.1.1-18.86,18.86v-.195Z" transform="translate(-499.136 -402.656)" fill="#d3d1cc"/>
              <path id="패스_52733" data-name="패스 52733" d="M518,411.328l.1.1-18.958,18.958v-.195Z" transform="translate(-499.136 -402.593)" fill="#d3d1cc"/>
              <path id="패스_52734" data-name="패스 52734" d="M518.1,411.363l.1.1-19.055,19.055v-.195Z" transform="translate(-499.136 -402.53)" fill="#d3d1cc"/>
              <path id="패스_52735" data-name="패스 52735" d="M518.193,411.4l.1.1-19.152,19.153v-.195Z" transform="translate(-499.136 -402.467)" fill="#d3d1cc"/>
              <path id="패스_52736" data-name="패스 52736" d="M518.29,411.432l.1.1-19.25,19.25v-.195Z" transform="translate(-499.136 -402.404)" fill="#d3d1cc"/>
              <path id="패스_52737" data-name="패스 52737" d="M518.387,411.466l.1.1-19.347,19.347v-.195Z" transform="translate(-499.136 -402.342)" fill="#d3d1cc"/>
              <path id="패스_52738" data-name="패스 52738" d="M518.485,411.5l.1.1-19.444,19.445v-.195Z" transform="translate(-499.136 -402.279)" fill="#d3d1cc"/>
              <path id="패스_52739" data-name="패스 52739" d="M518.582,411.535l.1.1-19.542,19.542v-.195Z" transform="translate(-499.136 -402.216)" fill="#d3d1cc"/>
              <path id="패스_52740" data-name="패스 52740" d="M518.679,411.57l.1.1-19.639,19.639v-.195Z" transform="translate(-499.136 -402.153)" fill="#d3d1cc"/>
              <path id="패스_52741" data-name="패스 52741" d="M518.776,411.6l.1.1-19.736,19.737v-.195Z" transform="translate(-499.136 -402.09)" fill="#d3d1cc"/>
              <path id="패스_52742" data-name="패스 52742" d="M518.874,411.639l.1.1L499.137,431.57v-.195Z" transform="translate(-499.136 -402.027)" fill="#d3d1cc"/>
              <path id="패스_52743" data-name="패스 52743" d="M518.971,411.673l.1.1L499.137,431.7v-.195Z" transform="translate(-499.136 -401.964)" fill="#d3d1cc"/>
              <path id="패스_52744" data-name="패스 52744" d="M519.069,411.708l.1.1-20.028,20.028v-.195Z" transform="translate(-499.136 -401.902)" fill="#d3d1cc"/>
              <path id="패스_52745" data-name="패스 52745" d="M519.166,411.742l.1.1-20.126,20.126v-.195Z" transform="translate(-499.136 -401.839)" fill="#d3d1cc"/>
              <path id="패스_52746" data-name="패스 52746" d="M519.263,411.777l.1.1L499.137,432.1V431.9Z" transform="translate(-499.136 -401.776)" fill="#d3d1cc"/>
              <path id="패스_52747" data-name="패스 52747" d="M519.361,411.811l.1.1-20.32,20.321v-.195Z" transform="translate(-499.136 -401.713)" fill="#d3d1cc"/>
              <path id="패스_52748" data-name="패스 52748" d="M519.458,411.846l.1.1-20.418,20.418v-.195Z" transform="translate(-499.136 -401.65)" fill="#d3d1cc"/>
              <path id="패스_52749" data-name="패스 52749" d="M519.555,411.88l.1.1-20.515,20.515V432.3Z" transform="translate(-499.136 -401.588)" fill="#d3d1cc"/>
              <path id="패스_52750" data-name="패스 52750" d="M519.653,411.915l.1.1-20.613,20.612v-.195Z" transform="translate(-499.136 -401.525)" fill="#d3d1cc"/>
              <path id="패스_52751" data-name="패스 52751" d="M519.75,411.949l.1.1-20.71,20.71v-.195Z" transform="translate(-499.136 -401.462)" fill="#d3d1cc"/>
              <path id="패스_52752" data-name="패스 52752" d="M519.847,411.984l.1.1-20.807,20.807v-.195Z" transform="translate(-499.136 -401.399)" fill="#d3d1cc"/>
              <path id="패스_52753" data-name="패스 52753" d="M519.945,412.018l.1.1-20.9,20.9v-.195Z" transform="translate(-499.136 -401.336)" fill="#d3d1cc"/>
              <path id="패스_52754" data-name="패스 52754" d="M520.042,412.053l.1.1-21,21v-.195Z" transform="translate(-499.136 -401.273)" fill="#d3d1cc"/>
              <path id="패스_52755" data-name="패스 52755" d="M520.139,412.087l.1.1-21.1,21.1v-.195Z" transform="translate(-499.136 -401.21)" fill="#d3d1cc"/>
              <path id="패스_52756" data-name="패스 52756" d="M520.237,412.122l.1.1-21.2,21.2v-.195Z" transform="translate(-499.136 -401.148)" fill="#d3d1cc"/>
              <path id="패스_52757" data-name="패스 52757" d="M520.334,412.156l.1.1-21.294,21.294v-.195Z" transform="translate(-499.136 -401.085)" fill="#d3d1cc"/>
              <path id="패스_52758" data-name="패스 52758" d="M520.431,412.191l.1.1-21.391,21.391v-.195Z" transform="translate(-499.136 -401.022)" fill="#d3d1cc"/>
              <path id="패스_52759" data-name="패스 52759" d="M520.529,412.225l.1.1-21.489,21.489v-.195Z" transform="translate(-499.136 -400.959)" fill="#d3d1cc"/>
              <path id="패스_52760" data-name="패스 52760" d="M520.626,412.26l.1.1-21.586,21.586v-.195Z" transform="translate(-499.136 -400.896)" fill="#d3d1cc"/>
              <path id="패스_52761" data-name="패스 52761" d="M520.723,412.294l.1.1-21.683,21.683v-.195Z" transform="translate(-499.136 -400.834)" fill="#d3d1cc"/>
              <path id="패스_52762" data-name="패스 52762" d="M520.821,412.329l.1.1-21.781,21.78v-.195Z" transform="translate(-499.136 -400.771)" fill="#d3d1cc"/>
              <path id="패스_52763" data-name="패스 52763" d="M520.918,412.363l.1.1-21.878,21.878v-.195Z" transform="translate(-499.136 -400.708)" fill="#d3d1cc"/>
              <path id="패스_52764" data-name="패스 52764" d="M521.015,412.4l.1.1L499.137,434.47v-.195Z" transform="translate(-499.136 -400.645)" fill="#d3d1cc"/>
              <path id="패스_52765" data-name="패스 52765" d="M521.113,412.432l.1.1L499.137,434.6v-.195Z" transform="translate(-499.136 -400.582)" fill="#d3d1cc"/>
              <path id="패스_52766" data-name="패스 52766" d="M521.21,412.467l.1.1-22.17,22.17v-.195Z" transform="translate(-499.136 -400.519)" fill="#d3d1cc"/>
              <path id="패스_52767" data-name="패스 52767" d="M521.307,412.5l.1.1-22.267,22.267v-.195Z" transform="translate(-499.136 -400.456)" fill="#d3d1cc"/>
              <path id="패스_52768" data-name="패스 52768" d="M521.4,412.536l.1.1L499.137,435V434.8Z" transform="translate(-499.136 -400.394)" fill="#d3d1cc"/>
              <path id="패스_52769" data-name="패스 52769" d="M521.5,412.57l.1.1L499.137,435.13v-.195Z" transform="translate(-499.136 -400.331)" fill="#d3d1cc"/>
              <path id="패스_52770" data-name="패스 52770" d="M521.6,412.6l.1.1-22.559,22.559v-.195Z" transform="translate(-499.136 -400.268)" fill="#d3d1cc"/>
              <path id="패스_52771" data-name="패스 52771" d="M521.7,412.639l.1.1-22.656,22.656V435.2Z" transform="translate(-499.136 -400.205)" fill="#d3d1cc"/>
              <path id="패스_52772" data-name="패스 52772" d="M521.794,412.674l.1.1-22.754,22.754v-.195Z" transform="translate(-499.136 -400.142)" fill="#d3d1cc"/>
              <path id="패스_52773" data-name="패스 52773" d="M521.891,412.708l.1.1-22.851,22.851v-.195Z" transform="translate(-499.136 -400.079)" fill="#d3d1cc"/>
              <path id="패스_52774" data-name="패스 52774" d="M521.989,412.743l.1.1-22.948,22.948v-.195Z" transform="translate(-499.136 -400.017)" fill="#d3d1cc"/>
              <path id="패스_52775" data-name="패스 52775" d="M522.086,412.777l.1.1-23.046,23.046v-.195Z" transform="translate(-499.136 -399.954)" fill="#d3d1cc"/>
              <path id="패스_52776" data-name="패스 52776" d="M522.183,412.812l.1.1-23.143,23.143v-.195Z" transform="translate(-499.136 -399.891)" fill="#d3d1cc"/>
              <path id="패스_52777" data-name="패스 52777" d="M522.281,412.846l.1.1-23.24,23.24v-.195Z" transform="translate(-499.136 -399.828)" fill="#d3d1cc"/>
              <path id="패스_52778" data-name="패스 52778" d="M522.378,412.881l.1.1-23.338,23.338v-.195Z" transform="translate(-499.136 -399.765)" fill="#d3d1cc"/>
              <path id="패스_52779" data-name="패스 52779" d="M522.475,412.915l.1.1-23.435,23.435v-.195Z" transform="translate(-499.136 -399.702)" fill="#d3d1cc"/>
              <path id="패스_52780" data-name="패스 52780" d="M522.573,412.95l.1.1L499.137,436.58v-.195Z" transform="translate(-499.136 -399.64)" fill="#d3d1cc"/>
              <path id="패스_52781" data-name="패스 52781" d="M522.67,412.984l.1.1-23.63,23.63v-.195Z" transform="translate(-499.136 -399.577)" fill="#d3d1cc"/>
              <path id="패스_52782" data-name="패스 52782" d="M522.767,413.019l.1.1-23.727,23.727v-.195Z" transform="translate(-499.136 -399.514)" fill="#d3d1cc"/>
              <path id="패스_52783" data-name="패스 52783" d="M522.865,413.053l.1.1-23.824,23.824v-.195Z" transform="translate(-499.136 -399.451)" fill="#d3d1cc"/>
              <path id="패스_52784" data-name="패스 52784" d="M522.962,413.088l.1.1-23.9,23.9-.018-.018v-.159Z" transform="translate(-499.136 -399.388)" fill="#d3d1cc"/>
              <rect id="사각형_2607" data-name="사각형 2607" width="33.805" height="0.138" transform="translate(0.019 37.701) rotate(-45)" fill="#d3d1cc"/>
              <rect id="사각형_2608" data-name="사각형 2608" width="33.805" height="0.138" transform="translate(0.117 37.798) rotate(-45)" fill="#d3d1cc"/>
              <rect id="사각형_2609" data-name="사각형 2609" width="33.805" height="0.138" transform="translate(0.214 37.896) rotate(-45)" fill="#d3d1cc"/>
              <rect id="사각형_2610" data-name="사각형 2610" width="33.805" height="0.138" transform="translate(0.311 37.993) rotate(-45)" fill="#d3d1cc"/>
              <rect id="사각형_2611" data-name="사각형 2611" width="33.805" height="0.138" transform="translate(0.409 38.09) rotate(-45)" fill="#d3d1cc"/>
              <rect id="사각형_2612" data-name="사각형 2612" width="33.805" height="0.138" transform="translate(0.506 38.188) rotate(-45)" fill="#d3d1cc"/>
              <path id="패스_52785" data-name="패스 52785" d="M523.255,413.329l0,0v.185l-23.811,23.811-.1-.1Z" transform="translate(-498.748 -398.948)" fill="#d3d1cc"/>
              <path id="패스_52786" data-name="패스 52786" d="M523.2,413.591l-23.714,23.714-.1-.1L523.2,413.4Z" transform="translate(-498.685 -398.826)" fill="#d3d1cc"/>
              <path id="패스_52787" data-name="패스 52787" d="M523.134,413.66l-23.617,23.617-.1-.1,23.714-23.714Z" transform="translate(-498.622 -398.7)" fill="#d3d1cc"/>
              <path id="패스_52788" data-name="패스 52788" d="M523.071,413.729l-23.519,23.519-.1-.1,23.617-23.617Z" transform="translate(-498.559 -398.574)" fill="#d3d1cc"/>
              <path id="패스_52789" data-name="패스 52789" d="M523.008,413.8,499.586,437.22l-.1-.1L523.008,413.6Z" transform="translate(-498.496 -398.449)" fill="#d3d1cc"/>
              <path id="패스_52790" data-name="패스 52790" d="M522.945,413.867l-23.325,23.325-.1-.1,23.422-23.422Z" transform="translate(-498.433 -398.323)" fill="#d3d1cc"/>
              <path id="패스_52791" data-name="패스 52791" d="M522.883,413.936l-23.227,23.227-.1-.1,23.325-23.325Z" transform="translate(-498.371 -398.197)" fill="#d3d1cc"/>
              <path id="패스_52792" data-name="패스 52792" d="M522.82,414.005l-23.13,23.13-.1-.1,23.227-23.227Z" transform="translate(-498.308 -398.072)" fill="#d3d1cc"/>
              <path id="패스_52793" data-name="패스 52793" d="M522.757,414.074l-23.033,23.033-.1-.1,23.13-23.13Z" transform="translate(-498.245 -397.946)" fill="#d3d1cc"/>
              <path id="패스_52794" data-name="패스 52794" d="M522.694,414.143l-22.935,22.935-.1-.1,23.033-23.033Z" transform="translate(-498.182 -397.82)" fill="#d3d1cc"/>
              <path id="패스_52795" data-name="패스 52795" d="M522.631,414.213,499.793,437.05l-.1-.1,22.935-22.935Z" transform="translate(-498.119 -397.695)" fill="#d3d1cc"/>
              <path id="패스_52796" data-name="패스 52796" d="M522.568,414.281l-22.74,22.741-.1-.1,22.838-22.838Z" transform="translate(-498.056 -397.569)" fill="#d3d1cc"/>
              <path id="패스_52797" data-name="패스 52797" d="M522.505,414.351l-22.559,22.559h-.169l-.013-.013,22.741-22.741Z" transform="translate(-497.994 -397.443)" fill="#d3d1cc"/>
              <path id="패스_52798" data-name="패스 52798" d="M522.388,414.419l-22.364,22.364h-.195l22.559-22.559Z" transform="translate(-497.876 -397.318)" fill="#d3d1cc"/>
              <path id="패스_52799" data-name="패스 52799" d="M522.262,414.489l-22.169,22.169H499.9l22.364-22.364Z" transform="translate(-497.75 -397.192)" fill="#d3d1cc"/>
              <path id="패스_52800" data-name="패스 52800" d="M522.137,414.557l-21.975,21.975h-.195l22.169-22.169Z" transform="translate(-497.625 -397.066)" fill="#d3d1cc"/>
              <path id="패스_52801" data-name="패스 52801" d="M522.011,414.627l-21.78,21.78h-.195l21.975-21.975Z" transform="translate(-497.499 -396.941)" fill="#d3d1cc"/>
              <path id="패스_52802" data-name="패스 52802" d="M521.885,414.7,500.3,436.281h-.195l21.78-21.78Z" transform="translate(-497.373 -396.815)" fill="#d3d1cc"/>
              <path id="패스_52803" data-name="패스 52803" d="M521.76,414.764l-21.391,21.391h-.195L521.76,414.57Z" transform="translate(-497.248 -396.689)" fill="#d3d1cc"/>
              <path id="패스_52804" data-name="패스 52804" d="M521.634,414.833l-21.2,21.2h-.195l21.391-21.391Z" transform="translate(-497.122 -396.564)" fill="#d3d1cc"/>
              <path id="패스_52805" data-name="패스 52805" d="M521.508,414.9l-21,21h-.195l21.2-21.2Z" transform="translate(-496.996 -396.438)" fill="#d3d1cc"/>
              <path id="패스_52806" data-name="패스 52806" d="M521.383,414.971l-20.807,20.807h-.195l21-21Z" transform="translate(-496.871 -396.312)" fill="#d3d1cc"/>
              <path id="패스_52807" data-name="패스 52807" d="M521.257,415.04l-20.612,20.612h-.195l20.807-20.807Z" transform="translate(-496.745 -396.187)" fill="#d3d1cc"/>
              <path id="패스_52808" data-name="패스 52808" d="M521.131,415.109l-20.417,20.417h-.195l20.612-20.612Z" transform="translate(-496.619 -396.061)" fill="#d3d1cc"/>
              <path id="패스_52809" data-name="패스 52809" d="M521.006,415.178,500.783,435.4h-.195l20.417-20.417Z" transform="translate(-496.494 -395.935)" fill="#d3d1cc"/>
              <path id="패스_52810" data-name="패스 52810" d="M520.88,415.248l-20.028,20.028h-.195l20.223-20.223Z" transform="translate(-496.368 -395.81)" fill="#d3d1cc"/>
              <path id="패스_52811" data-name="패스 52811" d="M520.754,415.316,500.921,435.15h-.195l20.028-20.028Z" transform="translate(-496.242 -395.684)" fill="#d3d1cc"/>
              <path id="패스_52812" data-name="패스 52812" d="M520.629,415.386,500.99,435.024H500.8l19.833-19.833Z" transform="translate(-496.117 -395.558)" fill="#d3d1cc"/>
              <path id="패스_52813" data-name="패스 52813" d="M520.5,415.454,501.059,434.9h-.195L520.5,415.26Z" transform="translate(-495.991 -395.433)" fill="#d3d1cc"/>
              <path id="패스_52814" data-name="패스 52814" d="M520.377,415.524l-19.249,19.249h-.195l19.444-19.444Z" transform="translate(-495.865 -395.307)" fill="#d3d1cc"/>
              <path id="패스_52815" data-name="패스 52815" d="M520.252,415.592,501.2,434.647H501L520.252,415.4Z" transform="translate(-495.74 -395.181)" fill="#d3d1cc"/>
              <path id="패스_52816" data-name="패스 52816" d="M520.126,415.662l-18.86,18.86h-.195l19.055-19.055Z" transform="translate(-495.614 -395.056)" fill="#d3d1cc"/>
              <path id="패스_52817" data-name="패스 52817" d="M520,415.73,501.335,434.4h-.195L520,415.536Z" transform="translate(-495.488 -394.93)" fill="#d3d1cc"/>
              <path id="패스_52818" data-name="패스 52818" d="M519.875,415.8,501.4,434.27h-.195L519.875,415.6Z" transform="translate(-495.363 -394.804)" fill="#d3d1cc"/>
              <path id="패스_52819" data-name="패스 52819" d="M519.749,415.868l-18.276,18.276h-.195l18.471-18.471Z" transform="translate(-495.237 -394.679)" fill="#d3d1cc"/>
              <path id="패스_52820" data-name="패스 52820" d="M519.623,415.938l-18.081,18.081h-.195l18.276-18.276Z" transform="translate(-495.111 -394.553)" fill="#d3d1cc"/>
              <path id="패스_52821" data-name="패스 52821" d="M519.5,416.006l-17.887,17.887h-.195L519.5,415.812Z" transform="translate(-494.986 -394.427)" fill="#d3d1cc"/>
              <path id="패스_52822" data-name="패스 52822" d="M519.372,416.075,501.68,433.767h-.195l17.887-17.887Z" transform="translate(-494.86 -394.302)" fill="#d3d1cc"/>
              <path id="패스_52823" data-name="패스 52823" d="M519.246,416.144l-17.5,17.5h-.195l17.692-17.692Z" transform="translate(-494.734 -394.176)" fill="#d3d1cc"/>
              <path id="패스_52824" data-name="패스 52824" d="M519.121,416.214l-17.3,17.3h-.195l17.5-17.5Z" transform="translate(-494.609 -394.05)" fill="#d3d1cc"/>
              <path id="패스_52825" data-name="패스 52825" d="M518.995,416.282,501.887,433.39h-.195l17.3-17.3Z" transform="translate(-494.483 -393.925)" fill="#d3d1cc"/>
              <path id="패스_52826" data-name="패스 52826" d="M518.869,416.352l-16.913,16.913h-.195l17.108-17.108Z" transform="translate(-494.357 -393.799)" fill="#d3d1cc"/>
              <path id="패스_52827" data-name="패스 52827" d="M518.744,416.42l-16.719,16.719h-.195l16.913-16.913Z" transform="translate(-494.232 -393.673)" fill="#d3d1cc"/>
              <path id="패스_52828" data-name="패스 52828" d="M518.618,416.49l-16.524,16.524H501.9l16.719-16.719Z" transform="translate(-494.106 -393.548)" fill="#d3d1cc"/>
              <path id="패스_52829" data-name="패스 52829" d="M518.492,416.559l-16.329,16.329h-.195l16.524-16.524Z" transform="translate(-493.98 -393.422)" fill="#d3d1cc"/>
              <path id="패스_52830" data-name="패스 52830" d="M518.367,416.628l-16.135,16.135h-.195l16.329-16.329Z" transform="translate(-493.855 -393.296)" fill="#d3d1cc"/>
              <path id="패스_52831" data-name="패스 52831" d="M502.106,432.636,518.241,416.5v16.135Z" transform="translate(-493.729 -393.171)" fill="#d3d1cc"/>
            </g>
          </g>
        </g>
      </g>
      <g id="그룹_7034" data-name="그룹 7034" transform="translate(24.204 15.444)">
        <path id="패스_52833" data-name="패스 52833" d="M475.02,494.562v-5.135c34.913,0,51.886-21.156,51.886-64.683,0-21.678,4.133-37,24.314-41.314l2.237-.477.731,2.167c.065.195,6.26,19.529-17.7,30.526l-2.138-4.663c15.212-6.983,15.965-17.308,15.435-21.9-14.761,4.294-17.743,16.465-17.743,35.666C532.038,471.072,512.853,494.562,475.02,494.562Z" transform="translate(-475.02 -382.953)" fill="#d3d1cc"/>
      </g>
      <g id="그룹_7035" data-name="그룹 7035" transform="translate(24.923 81.114)">
        <path id="패스_52834" data-name="패스 52834" d="M495.467,446.616a20.193,20.193,0,1,1,20.192-20.192A20.214,20.214,0,0,1,495.467,446.616Zm0-35.252a15.06,15.06,0,1,0,15.06,15.06A15.075,15.075,0,0,0,495.467,411.365Z" transform="translate(-475.275 -406.23)" fill="#d3d1cc"/>
      </g>
      <g id="그룹_7036" data-name="그룹 7036" transform="translate(47.801 60.993)">
        <path id="패스_52835" data-name="패스 52835" d="M499.067,430.465a15.683,15.683,0,1,1,15.681-15.683A15.7,15.7,0,0,1,499.067,430.465Zm0-26.235a10.55,10.55,0,1,0,10.549,10.552A10.564,10.564,0,0,0,499.067,404.23Z" transform="translate(-483.384 -399.098)" fill="#d3d1cc"/>
      </g>
      <g id="그룹_7037" data-name="그룹 7037" transform="translate(55.652 114.339)">
        <line id="선_364" data-name="선 364" y1="0.192" x2="0.233" fill="#d3d1cc"/>
      </g>
      <g id="그룹_7038" data-name="그룹 7038" transform="translate(0 35.961)">
        <path id="패스_52836" data-name="패스 52836" d="M471.518,408.441a5.992,5.992,0,0,0,7.248.979l6.6,6.6V441.1h3.081V414.75l-7.468-7.465a6.019,6.019,0,0,0-.886-7.423,6.211,6.211,0,0,0-8.579,0,6.072,6.072,0,0,0,0,8.579Zm2.181-6.4a2.986,2.986,0,1,1,4.221,4.226,3.057,3.057,0,0,1-4.221,0,2.983,2.983,0,0,1,0-4.226Z" transform="translate(-460.427 -375.806)" fill="#d3d1cc"/>
        <path id="패스_52837" data-name="패스 52837" d="M478.575,412.651a6.027,6.027,0,0,0-1.777-4.288,6.211,6.211,0,0,0-8.579,0,6.046,6.046,0,0,0,7.158,9.606l21,21,2.178-2.178-20.922-20.922A6.025,6.025,0,0,0,478.575,412.651Zm-3.955,2.113a3.058,3.058,0,0,1-4.223,0,2.986,2.986,0,1,1,4.223,0Z" transform="translate(-466.441 -360.324)" fill="#d3d1cc"/>
        <path id="패스_52838" data-name="패스 52838" d="M521.92,419.7a6.024,6.024,0,0,0-10.078,2.559H482.137v3.081h29.589a6.039,6.039,0,0,0,5.9,4.717,6.215,6.215,0,0,0,6.068-6.066A6.029,6.029,0,0,0,521.92,419.7Zm-2.178,6.4a2.986,2.986,0,0,1-5.1-2.113A3.058,3.058,0,0,1,517.628,421a2.986,2.986,0,0,1,2.113,5.1Z" transform="translate(-437.855 -339.787)" fill="#d3d1cc"/>
        <path id="패스_52839" data-name="패스 52839" d="M479.121,392a6.06,6.06,0,0,0,3.123,10.238v35.957h3.078V402.017A6.04,6.04,0,0,0,487.7,392,6.076,6.076,0,0,0,479.121,392Zm6.4,6.4v0a2.987,2.987,0,1,1,.875-2.113A2.985,2.985,0,0,1,485.523,398.4Z" transform="translate(-446.584 -390.226)" fill="#d3d1cc"/>
        <path id="패스_52840" data-name="패스 52840" d="M486.436,409.273,491,404.711a5.983,5.983,0,0,0,6.971-1.126h0a6.065,6.065,0,0,0,0-8.579,6.211,6.211,0,0,0-8.579,0,6.058,6.058,0,0,0-.731,7.691l-5.3,5.3v24.449h3.078Zm5.129-12.089a2.986,2.986,0,0,1,4.223,4.223h0a3.058,3.058,0,0,1-4.223,0,2.986,2.986,0,0,1,0-4.223Z" transform="translate(-435.631 -384.65)" fill="#d3d1cc"/>
        <rect id="사각형_2613" data-name="사각형 2613" width="3.081" height="6.722" transform="translate(3.879 19.124) rotate(-45)" fill="#d3d1cc"/>
        <rect id="사각형_2614" data-name="사각형 2614" width="3.08" height="6.722" transform="translate(13.652 13.69)" fill="#d3d1cc"/>
        <rect id="사각형_2615" data-name="사각형 2615" width="6.721" height="3.08" transform="translate(0.703 26.495)" fill="#d3d1cc"/>
        <rect id="사각형_2616" data-name="사각형 2616" width="6.722" height="3.081" transform="translate(19.952 21.58) rotate(-45)" fill="#d3d1cc"/>
        <rect id="사각형_2617" data-name="사각형 2617" width="6.722" height="3.081" transform="translate(3.959 37.588) rotate(-45)" fill="#d3d1cc"/>
      </g>
    </g>
  </g>
</svg>
