<svg id="그룹_7041" data-name="그룹 7041" xmlns="http://www.w3.org/2000/svg" xmlns:xlink="http://www.w3.org/1999/xlink" width="477.036" height="340.417" viewBox="0 0 477.036 340.417">
  <defs>
    <clipPath id="clip-path">
      <path id="패스_52129" data-name="패스 52129" d="M250.151,317.972a16.824,16.824,0,0,0-3.562-5.306,17.035,17.035,0,0,0-5.3-3.541,15.7,15.7,0,0,0-6.379-1.286h-10v6.51h10a10.2,10.2,0,0,1,3.9.776,9.646,9.646,0,0,1,3.179,2.133,9.824,9.824,0,0,1,2.129,3.2,9.647,9.647,0,0,1,.77,3.8h6.538A16.514,16.514,0,0,0,250.151,317.972Z" transform="translate(-224.908 -307.839)" fill="none"/>
    </clipPath>
    <clipPath id="clip-path-2">
      <path id="패스_52330" data-name="패스 52330" d="M248.255,334.784c0,.027,0,.054,0,.082a9.618,9.618,0,0,1-.774,3.886,10.3,10.3,0,0,1-2.129,3.137,9.85,9.85,0,0,1-3.179,2.148,10.971,10.971,0,0,1-3.9.74,10.71,10.71,0,0,1-3.886-.74,9.3,9.3,0,0,1-3.2-2.148,10.566,10.566,0,0,1-2.142-3.137,10.174,10.174,0,0,1-.772-3.886V298.192h-.034a6.422,6.422,0,0,0-6.42,6.423v30.251a15.76,15.76,0,0,0,1.286,6.429,16.615,16.615,0,0,0,3.509,5.233,17.415,17.415,0,0,0,5.228,3.52,16.941,16.941,0,0,0,12.807,0,18.178,18.178,0,0,0,5.3-3.52,16.689,16.689,0,0,0,3.562-5.233,16.42,16.42,0,0,0,1.278-6.506l0,0Z" transform="translate(-221.822 -298.192)" fill="none"/>
    </clipPath>
    <linearGradient id="linear-gradient" x1="0.696" y1="0.412" x2="0.94" y2="0.176" gradientUnits="objectBoundingBox">
      <stop offset="0" stop-color="#004266"/>
      <stop offset="1" stop-color="#c49958"/>
    </linearGradient>
  </defs>
  <g id="그룹_6891" data-name="그룹 6891" transform="translate(0 196.833)">
    <g id="그룹_6856" data-name="그룹 6856" transform="translate(293.466)">
      <g id="그룹_6855" data-name="그룹 6855">
        <path id="패스_52089" data-name="패스 52089" d="M306.238,439.841H276.457V409.912h-8.131V396.471H289.9V426.4h16.342c18.659,0,31.195-17.475,31.195-33.8V349.922h-8.2V336.481h21.646v56.125C350.874,415.323,333.81,439.841,306.238,439.841Z" transform="translate(-268.326 -336.481)" fill="#004266"/>
      </g>
    </g>
    <g id="그룹_6858" data-name="그룹 6858" transform="translate(143.681)">
      <g id="그룹_6857" data-name="그룹 6857">
        <path id="패스_52090" data-name="패스 52090" d="M203.161,434.682,196.7,422.9c10.354-5.678,17.316-17.85,17.316-30.291V349.922h-8.2V336.481H227.46v56.125C227.46,409.808,217.7,426.716,203.161,434.682Z" transform="translate(-196.705 -336.481)" fill="#004266"/>
      </g>
    </g>
    <g id="그룹_6860" data-name="그룹 6860" transform="translate(1.753)">
      <g id="그룹_6859" data-name="그룹 6859">
        <path id="패스_52091" data-name="패스 52091" d="M133.045,394.543l-4.2-12.763c24.266-8,31.832-23.105,34.187-31.857h-6.218V336.481h20.648l.073,6.648C177.549,344.623,177.421,379.92,133.045,394.543Z" transform="translate(-128.841 -336.481)" fill="#004266"/>
      </g>
    </g>
    <g id="그룹_6862" data-name="그룹 6862" transform="translate(37.005 6.648)">
      <g id="그룹_6861" data-name="그룹 6861">
        <path id="패스_52092" data-name="패스 52092" d="M190.184,391.074c-44.376-14.623-44.5-49.92-44.487-51.413l13.439.144-6.72-.073,6.72.023c.006,1.1.523,27.11,35.252,38.556Z" transform="translate(-145.697 -339.66)" fill="#004266"/>
      </g>
    </g>
    <g id="그룹_6864" data-name="그룹 6864" transform="translate(0 65.915)">
      <g id="그룹_6863" data-name="그룹 6863">
        <rect id="사각형_2558" data-name="사각형 2558" width="87.45" height="13.44" fill="#004266"/>
      </g>
    </g>
    <g id="그룹_6866" data-name="그룹 6866" transform="translate(391.337)">
      <g id="그룹_6865" data-name="그룹 6865">
        <path id="패스_52093" data-name="패스 52093" d="M319.328,394.543l-4.2-12.763c24.272-8,31.83-23.105,34.185-31.857h-6.216V336.481h20.648l.073,6.646C363.832,344.623,363.706,379.92,319.328,394.543Z" transform="translate(-315.124 -336.481)" fill="#004266"/>
      </g>
    </g>
    <g id="그룹_6868" data-name="그룹 6868" transform="translate(426.588 6.648)">
      <g id="그룹_6867" data-name="그룹 6867">
        <path id="패스_52094" data-name="패스 52094" d="M376.47,391.074c-44.378-14.623-44.506-49.92-44.489-51.413l13.439.144-6.72-.073,6.72.023c.006,1.1.523,27.11,35.256,38.556Z" transform="translate(-331.98 -339.66)" fill="#004266"/>
      </g>
    </g>
    <g id="그룹_6870" data-name="그룹 6870" transform="translate(389.583 65.915)">
      <g id="그룹_6869" data-name="그룹 6869">
        <rect id="사각형_2559" data-name="사각형 2559" width="87.453" height="13.44" fill="#004266"/>
      </g>
    </g>
    <g id="그룹_6872" data-name="그룹 6872" transform="translate(188.284 65.915)">
      <g id="그룹_6871" data-name="그룹 6871">
        <rect id="사각형_2560" data-name="사각형 2560" width="87.453" height="13.44" fill="#004266"/>
      </g>
    </g>
    <g id="그룹_6874" data-name="그룹 6874" transform="translate(90.429 0)">
      <g id="그룹_6873" data-name="그룹 6873">
        <path id="패스_52095" data-name="패스 52095" d="M228.185,392.606h-13.44V349.921h-43.5v-13.44h56.943Z" transform="translate(-171.242 -336.481)" fill="#004266"/>
      </g>
    </g>
    <g id="그룹_6876" data-name="그룹 6876" transform="translate(98.108 6.72)">
      <g id="그룹_6875" data-name="그룹 6875">
        <path id="패스_52096" data-name="패스 52096" d="M174.914,389.384v-49.69h13.441V375.1c8.066-1.01,19.289-3.4,24.544-8.25l9.118,9.871c-12.017,11.1-37.3,12.314-40.141,12.414Z" transform="translate(-174.914 -339.694)" fill="#004266"/>
      </g>
    </g>
    <g id="그룹_6878" data-name="그룹 6878" transform="translate(285.6)">
      <g id="그룹_6877" data-name="그룹 6877">
        <path id="패스_52097" data-name="패스 52097" d="M272.244,392.891V349.922h-7.679V336.481h21.121v42.126c8.066-1.01,19.293-3.4,24.546-8.252l9.118,9.875c-12.021,11.1-37.3,12.312-40.143,12.412Z" transform="translate(-264.565 -336.481)" fill="#004266"/>
      </g>
    </g>
    <g id="그룹_6880" data-name="그룹 6880" transform="translate(191.726 0)">
      <g id="그룹_6879" data-name="그룹 6879">
        <rect id="사각형_2561" data-name="사각형 2561" width="71.939" height="13.44" fill="#004266"/>
      </g>
    </g>
    <g id="그룹_6882" data-name="그룹 6882" transform="translate(199.407 6.72)">
      <g id="그룹_6881" data-name="그룹 6881">
        <path id="패스_52098" data-name="패스 52098" d="M235.219,389.219c-2.677,0-4.57-.054-5.381-.084l-6.487-.222v-49.22H236.79v36.069c14.441-.159,39.608-2.083,49.734-9.995l8.273,10.591C279.958,387.958,248.282,389.219,235.219,389.219Z" transform="translate(-223.351 -339.694)" fill="#004266"/>
      </g>
    </g>
    <g id="그룹_6884" data-name="그룹 6884" transform="translate(206.126 20.923)">
      <g id="그룹_6883" data-name="그룹 6883">
        <rect id="사각형_2562" data-name="사각형 2562" width="42.262" height="13.44" fill="#004266"/>
      </g>
    </g>
    <g id="그룹_6886" data-name="그룹 6886" transform="translate(296.839 16.742)">
      <g id="그룹_6885" data-name="그룹 6885">
        <rect id="사각형_2563" data-name="사각형 2563" width="42.262" height="13.44" fill="#004266"/>
      </g>
    </g>
    <g id="그룹_6888" data-name="그룹 6888" transform="translate(329.106 0.281)">
      <g id="그룹_6887" data-name="그룹 6887">
        <rect id="사각형_2564" data-name="사각형 2564" width="13.44" height="55.783" fill="#004266"/>
      </g>
    </g>
    <g id="그룹_6890" data-name="그룹 6890" transform="translate(166.76 20.923)">
      <g id="그룹_6889" data-name="그룹 6889">
        <rect id="사각형_2565" data-name="사각형 2565" width="20.37" height="13.44" fill="#004266"/>
      </g>
    </g>
  </g>
  <g id="그룹_6892" data-name="그룹 6892" transform="translate(102.153 319.593)">
    <path id="패스_52099" data-name="패스 52099" d="M179.448,398.3l1.847,7.1c.406,1.56.78,3,1.039,4.448h.088c.318-1.416.78-2.917,1.242-4.419l2.282-7.133h2.137l2.167,6.989c.519,1.675.922,3.148,1.24,4.563h.086a42.219,42.219,0,0,1,1.069-4.534l1.993-7.018h2.512l-4.5,13.979h-2.309l-2.137-6.671a46.129,46.129,0,0,1-1.242-4.593H186.9a40.946,40.946,0,0,1-1.269,4.622l-2.252,6.642h-2.311L176.848,398.3Z" transform="translate(-176.848 -391.774)" fill="#9f9e9a"/>
    <path id="패스_52100" data-name="패스 52100" d="M189.774,398.3l1.849,7.1c.4,1.56.78,3,1.039,4.448h.088c.316-1.416.778-2.917,1.24-4.419l2.282-7.133h2.137l2.167,6.989c.519,1.675.922,3.148,1.242,4.563h.086a42.173,42.173,0,0,1,1.067-4.534l1.993-7.018h2.514l-4.507,13.979h-2.309l-2.137-6.671a46.124,46.124,0,0,1-1.24-4.593h-.061a40.946,40.946,0,0,1-1.27,4.622L193.7,412.28h-2.311L187.177,398.3Z" transform="translate(-165.575 -391.774)" fill="#9f9e9a"/>
    <path id="패스_52101" data-name="패스 52101" d="M200.1,398.3l1.849,7.1c.4,1.56.78,3,1.039,4.448h.088c.316-1.416.778-2.917,1.24-4.419L206.6,398.3h2.137l2.167,6.989c.519,1.675.922,3.148,1.242,4.563h.086a42.173,42.173,0,0,1,1.067-4.534l1.993-7.018h2.514L213.3,412.28h-2.309l-2.137-6.671a46.107,46.107,0,0,1-1.24-4.593h-.061a40.933,40.933,0,0,1-1.269,4.622l-2.252,6.642H201.72L197.506,398.3Z" transform="translate(-154.303 -391.774)" fill="#9f9e9a"/>
    <path id="패스_52102" data-name="패스 52102" d="M207.6,405.216a1.709,1.709,0,0,1,1.736-1.819,1.823,1.823,0,0,1-.029,3.639A1.7,1.7,0,0,1,207.6,405.216Z" transform="translate(-143.289 -386.212)" fill="#9f9e9a"/>
    <path id="패스_52103" data-name="패스 52103" d="M210.915,409.846a6.646,6.646,0,0,0,3.348,1.012c1.849,0,2.715-.924,2.715-2.081,0-1.213-.722-1.878-2.6-2.57-2.512-.9-3.7-2.282-3.7-3.957,0-2.252,1.822-4.1,4.825-4.1a7,7,0,0,1,3.438.866l-.636,1.849a5.459,5.459,0,0,0-2.859-.809c-1.5,0-2.34.868-2.34,1.907,0,1.154.837,1.675,2.656,2.367,2.426.924,3.668,2.137,3.668,4.218,0,2.453-1.905,4.187-5.226,4.187a7.986,7.986,0,0,1-3.93-.954Z" transform="translate(-140.365 -391.94)" fill="#9f9e9a"/>
    <path id="패스_52104" data-name="패스 52104" d="M216.275,402.25c0-1.443-.029-2.629-.115-3.783h2.223l.115,2.252h.088a4.816,4.816,0,0,1,4.39-2.57,4.132,4.132,0,0,1,3.955,2.8h.059a5.753,5.753,0,0,1,1.56-1.82,4.768,4.768,0,0,1,3.089-.983c1.849,0,4.593,1.213,4.593,6.065v8.231h-2.484v-7.914c0-2.685-.981-4.3-3.03-4.3a3.291,3.291,0,0,0-3.005,2.311,4.213,4.213,0,0,0-.2,1.272v8.635h-2.485V404.07c0-2.223-.983-3.842-2.915-3.842a3.793,3.793,0,0,0-3.353,3.785v8.432h-2.482Z" transform="translate(-133.945 -391.94)" fill="#9f9e9a"/>
    <path id="패스_52105" data-name="패스 52105" d="M236.043,412.445l-.2-1.761h-.086a5.214,5.214,0,0,1-4.275,2.079,3.982,3.982,0,0,1-4.275-4.015c0-3.378,3-5.226,8.4-5.2v-.286c0-1.156-.318-3.235-3.177-3.235a6.947,6.947,0,0,0-3.637,1.039l-.579-1.675a8.679,8.679,0,0,1,4.593-1.242c4.273,0,5.314,2.917,5.314,5.718V409.1a19.664,19.664,0,0,0,.23,3.35Zm-.374-7.133c-2.771-.059-5.921.433-5.921,3.147a2.249,2.249,0,0,0,2.4,2.426,3.475,3.475,0,0,0,3.378-2.338,2.635,2.635,0,0,0,.146-.809Z" transform="translate(-121.889 -391.94)" fill="#9f9e9a"/>
    <path id="패스_52106" data-name="패스 52106" d="M234.445,402.827c0-1.646-.027-3.06-.113-4.36h2.223l.086,2.744h.117a4.192,4.192,0,0,1,3.869-3.062,2.7,2.7,0,0,1,.721.088v2.4a3.766,3.766,0,0,0-.866-.088c-1.79,0-3.062,1.357-3.409,3.265a7.286,7.286,0,0,0-.113,1.184v7.451h-2.516Z" transform="translate(-114.113 -391.94)" fill="#9f9e9a"/>
    <path id="패스_52107" data-name="패스 52107" d="M243.123,396.382V400.4h3.639v1.937h-3.639v7.537c0,1.732.491,2.715,1.905,2.715a5.686,5.686,0,0,0,1.474-.174l.115,1.905a6.193,6.193,0,0,1-2.252.347,3.523,3.523,0,0,1-2.744-1.069,5.182,5.182,0,0,1-.981-3.639v-7.623h-2.167V400.4h2.167v-3.35Z" transform="translate(-109.592 -393.868)" fill="#9f9e9a"/>
    <path id="패스_52108" data-name="패스 52108" d="M243.749,415.686c.056-.954.113-2.37.113-3.61v-16.9h2.514v8.779h.059a5.207,5.207,0,0,1,4.764-2.57c3.467,0,5.921,2.888,5.893,7.133,0,5-3.15,7.481-6.268,7.481a4.982,4.982,0,0,1-4.681-2.629h-.086l-.115,2.311Zm2.627-5.6a4.817,4.817,0,0,0,.115.922,3.924,3.924,0,0,0,3.815,2.976c2.656,0,4.243-2.167,4.243-5.371,0-2.8-1.445-5.2-4.158-5.2a4.053,4.053,0,0,0-3.871,3.118,5.118,5.118,0,0,0-.144,1.039Z" transform="translate(-103.835 -395.18)" fill="#9f9e9a"/>
    <path id="패스_52109" data-name="패스 52109" d="M253.6,405.918c.056,3.436,2.252,4.852,4.8,4.852a9.187,9.187,0,0,0,3.867-.721l.433,1.817a11.272,11.272,0,0,1-4.647.868c-4.3,0-6.874-2.832-6.874-7.048s2.482-7.537,6.554-7.537c4.563,0,5.776,4.015,5.776,6.586a9.543,9.543,0,0,1-.086,1.184Zm7.449-1.82c.031-1.617-.663-4.13-3.522-4.13-2.57,0-3.7,2.37-3.9,4.13Z" transform="translate(-95.729 -391.94)" fill="#9f9e9a"/>
    <path id="패스_52110" data-name="패스 52110" d="M266.891,412.445l-.2-1.761H266.6a5.211,5.211,0,0,1-4.275,2.079,3.983,3.983,0,0,1-4.275-4.015c0-3.378,3.005-5.226,8.405-5.2v-.286c0-1.156-.318-3.235-3.177-3.235a6.955,6.955,0,0,0-3.639,1.039l-.577-1.675a8.671,8.671,0,0,1,4.591-1.242c4.275,0,5.314,2.917,5.314,5.718V409.1a19.65,19.65,0,0,0,.232,3.35Zm-.376-7.133c-2.771-.059-5.921.433-5.921,3.147a2.251,2.251,0,0,0,2.4,2.426,3.475,3.475,0,0,0,3.378-2.338,2.634,2.634,0,0,0,.144-.809Z" transform="translate(-88.225 -391.94)" fill="#9f9e9a"/>
    <path id="패스_52111" data-name="패스 52111" d="M265.293,402.25c0-1.443-.027-2.629-.115-3.783h2.254l.142,2.311h.059a5.137,5.137,0,0,1,4.62-2.629c1.937,0,4.94,1.157,4.94,5.95v8.347h-2.541v-8.058c0-2.252-.839-4.13-3.235-4.13a3.616,3.616,0,0,0-3.409,2.6,3.673,3.673,0,0,0-.171,1.184v8.405h-2.543Z" transform="translate(-80.449 -391.94)" fill="#9f9e9a"/>
    <path id="패스_52112" data-name="패스 52112" d="M273.064,409.846a6.654,6.654,0,0,0,3.35,1.012c1.849,0,2.715-.924,2.715-2.081,0-1.213-.722-1.878-2.6-2.57-2.512-.9-3.7-2.282-3.7-3.957,0-2.252,1.819-4.1,4.825-4.1a7,7,0,0,1,3.436.866l-.636,1.849a5.453,5.453,0,0,0-2.859-.809c-1.5,0-2.34.868-2.34,1.907,0,1.154.836,1.675,2.658,2.367,2.426.924,3.666,2.137,3.666,4.218,0,2.453-1.905,4.187-5.226,4.187a7.971,7.971,0,0,1-3.928-.954Z" transform="translate(-72.536 -391.94)" fill="#9f9e9a"/>
    <path id="패스_52113" data-name="패스 52113" d="M277.924,405.216a1.707,1.707,0,0,1,1.734-1.819,1.823,1.823,0,0,1-.029,3.639A1.7,1.7,0,0,1,277.924,405.216Z" transform="translate(-66.538 -386.212)" fill="#9f9e9a"/>
    <path id="패스_52114" data-name="패스 52114" d="M291.564,411.909a9.364,9.364,0,0,1-4.015.809c-4.216,0-6.96-2.859-6.96-7.134a7.1,7.1,0,0,1,7.508-7.422,8.522,8.522,0,0,1,3.524.721l-.577,1.964a5.911,5.911,0,0,0-2.947-.663c-3.206,0-4.938,2.367-4.938,5.285,0,3.235,2.079,5.226,4.85,5.226a7.229,7.229,0,0,0,3.122-.692Z" transform="translate(-63.63 -391.925)" fill="#9f9e9a"/>
    <path id="패스_52115" data-name="패스 52115" d="M300.352,405.341c0,5.17-3.58,7.422-6.96,7.422-3.781,0-6.7-2.773-6.7-7.192,0-4.678,3.062-7.422,6.933-7.422C297.639,398.149,300.352,401.066,300.352,405.341Zm-11.088.144c0,3.062,1.759,5.373,4.245,5.373,2.424,0,4.243-2.284,4.243-5.431,0-2.367-1.184-5.373-4.187-5.373S289.263,402.827,289.263,405.486Z" transform="translate(-56.97 -391.94)" fill="#9f9e9a"/>
    <path id="패스_52116" data-name="패스 52116" d="M294.135,405.216a1.707,1.707,0,0,1,1.734-1.819,1.823,1.823,0,0,1-.029,3.639A1.7,1.7,0,0,1,294.135,405.216Z" transform="translate(-48.846 -386.212)" fill="#9f9e9a"/>
    <path id="패스_52117" data-name="패스 52117" d="M299.8,408.119h.057c.347-.492.839-1.1,1.242-1.589l4.1-4.823h3.062l-5.4,5.747,6.151,8.231h-3.089l-4.823-6.7-1.3,1.445v5.255h-2.514V395.18H299.8Z" transform="translate(-45.411 -395.18)" fill="#9f9e9a"/>
    <path id="패스_52118" data-name="패스 52118" d="M304.053,402.827c0-1.646-.029-3.06-.115-4.36h2.225l.086,2.744h.115a4.194,4.194,0,0,1,3.869-3.062,2.72,2.72,0,0,1,.724.088v2.4a3.766,3.766,0,0,0-.866-.088c-1.792,0-3.062,1.357-3.409,3.265a7.043,7.043,0,0,0-.117,1.184v7.451h-2.512Z" transform="translate(-38.148 -391.94)" fill="#9f9e9a"/>
  </g>
  <g id="그룹_6915" data-name="그룹 6915" transform="translate(72.069 0)">
    <g id="그룹_6893" data-name="그룹 6893" transform="translate(64.986)">
      <path id="패스_52119" data-name="패스 52119" d="M237.966,312.827l-6.9-.383c1.955-35.22-8.169-56.021-30.105-61.9-3.741,25.477,14.522,39.736,27.529,42.814l-1.592,6.724c-16.128-3.821-39.1-21.976-32.063-54.433l.711-3.288,3.306.625C218.263,246.661,240.8,261.76,237.966,312.827Z" transform="translate(-193.537 -242.363)" fill="#004266"/>
    </g>
    <g id="그룹_6909" data-name="그룹 6909" transform="translate(113.849 80.567)">
      <g id="그룹_6894" data-name="그룹 6894" transform="translate(107.381 9.71)">
        <path id="패스_52120" data-name="패스 52120" d="M294.154,318.467h7.067v-16.5a15.761,15.761,0,0,0-1.286-6.429,16.639,16.639,0,0,0-3.509-5.233,17.415,17.415,0,0,0-5.228-3.52,16.946,16.946,0,0,0-12.81,0,18.169,18.169,0,0,0-5.3,3.52,16.682,16.682,0,0,0-3.562,5.233,16.654,16.654,0,0,0,0,12.795,16.77,16.77,0,0,0,3.562,5.306,16.993,16.993,0,0,0,5.3,3.541,15.712,15.712,0,0,0,6.379,1.286Zm-16.467-9.419a9.874,9.874,0,0,1-2.131-3.193,10.17,10.17,0,0,1,0-7.771,10.34,10.34,0,0,1,2.131-3.137,9.878,9.878,0,0,1,3.179-2.148,10.967,10.967,0,0,1,3.9-.738,10.7,10.7,0,0,1,3.886.738,9.32,9.32,0,0,1,3.2,2.148,10.516,10.516,0,0,1,2.139,3.137,10.134,10.134,0,0,1,.774,3.886v9.988h-10a10.2,10.2,0,0,1-3.9-.776A9.612,9.612,0,0,1,277.686,309.047Z" transform="translate(-268.246 -285.53)" fill="#004266"/>
      </g>
      <g id="그룹_6895" data-name="그룹 6895" transform="translate(85.164 56.368)">
        <path id="패스_52121" data-name="패스 52121" d="M285.8,312.617a17.394,17.394,0,0,0-5.226-3.52,16.947,16.947,0,0,0-12.81,0,18.138,18.138,0,0,0-5.3,3.52,16.65,16.65,0,0,0-3.56,5.233,16.623,16.623,0,0,0,0,12.793,16.762,16.762,0,0,0,3.56,5.306,17,17,0,0,0,5.3,3.541,15.671,15.671,0,0,0,6.379,1.286H290.6v-16.5a15.751,15.751,0,0,0-1.286-6.427A16.616,16.616,0,0,0,285.8,312.617Zm-1.658,21.65h-10a10.2,10.2,0,0,1-3.9-.778,9.661,9.661,0,0,1-3.179-2.131,9.844,9.844,0,0,1-2.129-3.2,10.143,10.143,0,0,1,0-7.771,10.287,10.287,0,0,1,2.129-3.135,9.838,9.838,0,0,1,3.179-2.148,10.972,10.972,0,0,1,3.9-.74,10.71,10.71,0,0,1,3.886.74,9.3,9.3,0,0,1,3.2,2.148,10.586,10.586,0,0,1,2.139,3.135,10.188,10.188,0,0,1,.772,3.886Z" transform="translate(-257.623 -307.84)" fill="#c49958"/>
      </g>
      <g id="그룹_6896" data-name="그룹 6896" transform="translate(43.059 9.771)">
        <path id="패스_52122" data-name="패스 52122" d="M284.332,292.847a10.21,10.21,0,0,1,3.148,2.131,9.586,9.586,0,0,1,2.129,3.225,9.86,9.86,0,0,1,.763,3.863v16.45h6.638v-16.45a15.85,15.85,0,0,0-1.295-6.366,16.228,16.228,0,0,0-3.57-5.308,16.954,16.954,0,0,0-5.289-3.56,16.4,16.4,0,0,0-6.383-1.274,15.69,15.69,0,0,0-7.533,1.8,16.11,16.11,0,0,0-5.678,4.89,16.36,16.36,0,0,0-13.224-6.692,16.266,16.266,0,0,0-6.427,1.274,16.743,16.743,0,0,0-5.241,3.56,16.659,16.659,0,0,0-4.881,11.674v16.45h6.55v-16.45a10.236,10.236,0,0,1,2.9-7.088,9.892,9.892,0,0,1,7.1-2.9,9.731,9.731,0,0,1,3.838.774,10.146,10.146,0,0,1,3.166,2.131,10.349,10.349,0,0,1,2.913,7.088v16.45h6.54v-16.45a9.929,9.929,0,0,1,.755-3.863,9.21,9.21,0,0,1,2.158-3.225,9.852,9.852,0,0,1,7.065-2.9A9.841,9.841,0,0,1,284.332,292.847Z" transform="translate(-237.49 -285.559)" fill="#004266"/>
      </g>
      <g id="그룹_6897" data-name="그룹 6897" transform="translate(145.341 9.71)">
        <path id="패스_52123" data-name="패스 52123" d="M306.213,292.059V285.53H302.9a16.1,16.1,0,0,0-6.4,1.257,17.887,17.887,0,0,0-5.266,3.52,16.994,16.994,0,0,0-3.585,5.233,16.466,16.466,0,0,0-1.255,6.429v16.5H293v-16.5a10.016,10.016,0,0,1,.77-3.886,10.4,10.4,0,0,1,2.112-3.137,10.176,10.176,0,0,1,3.177-2.148,10.335,10.335,0,0,1,3.842-.738Z" transform="translate(-286.397 -285.53)" fill="#004266"/>
      </g>
      <g id="그룹_6898" data-name="그룹 6898" transform="translate(168.942)">
        <path id="패스_52124" data-name="패스 52124" d="M302.521,318.755a17.831,17.831,0,0,0,5.268,3.52,16.048,16.048,0,0,0,6.4,1.259H317.5V317h-3.313a10.374,10.374,0,0,1-3.842-.738,10.2,10.2,0,0,1-3.177-2.148,10.391,10.391,0,0,1-2.11-3.137,9.987,9.987,0,0,1-.772-3.886v-9.831h9.386v-6.607h-9.386v-9.771h-6.6V307.1a16.413,16.413,0,0,0,1.257,6.427A16.963,16.963,0,0,0,302.521,318.755Z" transform="translate(-297.682 -280.887)" fill="#004266"/>
      </g>
      <g id="그룹_6899" data-name="그룹 6899" transform="translate(0 9.771)">
        <path id="패스_52125" data-name="패스 52125" d="M245.415,305.374h.385a3.3,3.3,0,0,1,0,6.6H227.193v6.607H245.8a9.908,9.908,0,1,0,0-19.815H226.808a3.3,3.3,0,0,1,0-6.6h18.607v-6.607H226.808a9.908,9.908,0,0,0,0,19.815h18.607Z" transform="translate(-216.901 -285.559)" fill="#004266"/>
      </g>
      <g id="그룹_6900" data-name="그룹 6900" transform="translate(160.196 55.092)">
        <path id="패스_52126" data-name="패스 52126" d="M322.4,320.439H303.409a3.3,3.3,0,1,1,0-6.6h18.607v-6.6H303.409a9.908,9.908,0,1,0,0,19.815H322.4a3.3,3.3,0,0,1,0,6.6H303.792v6.6H322.4a9.908,9.908,0,1,0,0-19.815Z" transform="translate(-293.5 -307.23)" fill="#c49958"/>
      </g>
      <g id="그룹_6901" data-name="그룹 6901" transform="translate(123.327 53.735)">
        <path id="패스_52127" data-name="패스 52127" d="M292.347,306.581a16.494,16.494,0,0,0-16.476,16.474v19.094h6.607V323.055a9.868,9.868,0,1,1,19.736,0v19.094h6.607V323.055A16.493,16.493,0,0,0,292.347,306.581Z" transform="translate(-275.871 -306.581)" fill="#c49958"/>
      </g>
      <g id="그룹_6902" data-name="그룹 6902" transform="translate(47.867 56.368)">
        <path id="패스_52128" data-name="패스 52128" d="M266.136,323.816c0,.14.019.276.019.418a9.617,9.617,0,0,1-.774,3.886,10.267,10.267,0,0,1-2.131,3.137,9.872,9.872,0,0,1-3.177,2.148,10.969,10.969,0,0,1-3.9.738,10.707,10.707,0,0,1-3.886-.738,9.516,9.516,0,0,1-1.253-.665,9.113,9.113,0,0,1-1.8-1.382,9.843,9.843,0,0,1-2.129-3.2,10.143,10.143,0,0,1,0-7.771,10.286,10.286,0,0,1,2.129-3.135,9.838,9.838,0,0,1,3.179-2.148,10.972,10.972,0,0,1,3.9-.74,10.71,10.71,0,0,1,3.886.74c.125.05.228.13.349.186l-14.054,14.054,4.67,4.672,14.108-14.108.008.017,4.758-4.758a16.086,16.086,0,0,0-2.068-2.554,17.368,17.368,0,0,0-5.226-3.52,16.947,16.947,0,0,0-12.81,0,18.138,18.138,0,0,0-5.3,3.52,16.65,16.65,0,0,0-3.56,5.233,16.623,16.623,0,0,0,0,12.793,16.666,16.666,0,0,0,1.422,2.652l-.046.046a15.985,15.985,0,0,0,2.068,2.556,17.406,17.406,0,0,0,5.226,3.52,16.947,16.947,0,0,0,12.81,0,18.179,18.179,0,0,0,5.3-3.52,16.674,16.674,0,0,0,3.56-5.233,16.4,16.4,0,0,0,1.28-6.429c0-.14-.017-.278-.021-.418Z" transform="translate(-239.789 -307.84)" fill="#c49958"/>
      </g>
      <g id="그룹_6905" data-name="그룹 6905" transform="translate(16.745 56.366)">
        <g id="그룹_6904" data-name="그룹 6904">
          <g id="그룹_6903" data-name="그룹 6903" clip-path="url(#clip-path)">
            <rect id="사각형_2566" data-name="사각형 2566" width="26.517" height="16.416" transform="translate(-0.001 0.001)" fill="#c49958"/>
          </g>
        </g>
      </g>
      <g id="그룹_6908" data-name="그룹 6908" transform="translate(10.292 36.191)">
        <g id="그룹_6907" data-name="그룹 6907">
          <g id="그룹_6906" data-name="그룹 6906" clip-path="url(#clip-path-2)">
            <path id="패스_52130" data-name="패스 52130" d="M232.762,298.192l-10.94,10.94v-10.94Z" transform="translate(-221.822 -298.192)" fill="#004266"/>
            <path id="패스_52131" data-name="패스 52131" d="M233.024,298.192l-11.2,11.2v-.262l10.94-10.94Z" transform="translate(-221.822 -298.192)" fill="#004266"/>
            <path id="패스_52132" data-name="패스 52132" d="M233.286,298.192l-11.464,11.464v-.262l11.2-11.2Z" transform="translate(-221.822 -298.192)" fill="#004366"/>
            <path id="패스_52133" data-name="패스 52133" d="M233.548,298.192l-11.726,11.726v-.262l11.464-11.464Z" transform="translate(-221.822 -298.192)" fill="#004366"/>
            <path id="패스_52134" data-name="패스 52134" d="M233.81,298.192,221.822,310.18v-.262l11.726-11.726Z" transform="translate(-221.822 -298.192)" fill="#004366"/>
            <path id="패스_52135" data-name="패스 52135" d="M234.072,298.192l-12.25,12.25v-.262l11.988-11.988Z" transform="translate(-221.822 -298.192)" fill="#034466"/>
            <path id="패스_52136" data-name="패스 52136" d="M234.334,298.192,221.822,310.7v-.262l12.25-12.25Z" transform="translate(-221.822 -298.192)" fill="#054466"/>
            <path id="패스_52137" data-name="패스 52137" d="M234.6,298.192l-12.774,12.774V310.7l12.512-12.512Z" transform="translate(-221.822 -298.192)" fill="#084466"/>
            <path id="패스_52138" data-name="패스 52138" d="M234.858,298.192l-13.036,13.036v-.262L234.6,298.192Z" transform="translate(-221.822 -298.192)" fill="#0b4567"/>
            <path id="패스_52139" data-name="패스 52139" d="M235.12,298.192l-13.3,13.3v-.262l13.036-13.036Z" transform="translate(-221.822 -298.192)" fill="#0d4567"/>
            <path id="패스_52140" data-name="패스 52140" d="M235.382,298.192l-13.56,13.56v-.262l13.3-13.3Z" transform="translate(-221.822 -298.192)" fill="#104667"/>
            <path id="패스_52141" data-name="패스 52141" d="M235.447,298.192l.1.1-13.724,13.724v-.262l13.56-13.56Z" transform="translate(-221.822 -298.192)" fill="#124667"/>
            <path id="패스_52142" data-name="패스 52142" d="M235.545,298.239l.131.131-13.855,13.855v-.262Z" transform="translate(-221.822 -298.141)" fill="#144667"/>
            <path id="패스_52143" data-name="패스 52143" d="M235.676,298.3l.131.131-13.986,13.986v-.262Z" transform="translate(-221.822 -298.072)" fill="#154767"/>
            <path id="패스_52144" data-name="패스 52144" d="M235.807,298.364l.131.131-14.117,14.117v-.262Z" transform="translate(-221.822 -298.004)" fill="#174767"/>
            <path id="패스_52145" data-name="패스 52145" d="M235.938,298.427l.131.131-14.248,14.248v-.262Z" transform="translate(-221.822 -297.936)" fill="#194767"/>
            <path id="패스_52146" data-name="패스 52146" d="M236.069,298.49l.131.131L221.822,313v-.262Z" transform="translate(-221.822 -297.867)" fill="#1a4867"/>
            <path id="패스_52147" data-name="패스 52147" d="M236.2,298.552l.131.131-14.51,14.51v-.262Z" transform="translate(-221.822 -297.799)" fill="#1c4867"/>
            <path id="패스_52148" data-name="패스 52148" d="M236.331,298.615l.131.131-14.641,14.641v-.262Z" transform="translate(-221.822 -297.73)" fill="#1d4867"/>
            <path id="패스_52149" data-name="패스 52149" d="M236.462,298.678l.131.131L221.822,313.58v-.262Z" transform="translate(-221.822 -297.662)" fill="#1f4967"/>
            <path id="패스_52150" data-name="패스 52150" d="M236.593,298.74l.131.131-14.9,14.9v-.262Z" transform="translate(-221.822 -297.594)" fill="#204967"/>
            <path id="패스_52151" data-name="패스 52151" d="M236.724,298.8l.131.131-15.034,15.034v-.262Z" transform="translate(-221.822 -297.525)" fill="#214a68"/>
            <path id="패스_52152" data-name="패스 52152" d="M236.855,298.865l.131.131-15.165,15.165V313.9Z" transform="translate(-221.822 -297.457)" fill="#234a68"/>
            <path id="패스_52153" data-name="패스 52153" d="M236.986,298.928l.131.131-15.3,15.3v-.262Z" transform="translate(-221.822 -297.389)" fill="#244a68"/>
            <path id="패스_52154" data-name="패스 52154" d="M237.117,298.991l.131.131-15.427,15.426v-.262Z" transform="translate(-221.822 -297.32)" fill="#254b68"/>
            <path id="패스_52155" data-name="패스 52155" d="M237.248,299.053l.131.131-15.558,15.557v-.262Z" transform="translate(-221.822 -297.252)" fill="#264b68"/>
            <path id="패스_52156" data-name="패스 52156" d="M237.379,299.116l.131.131-15.689,15.688v-.262Z" transform="translate(-221.822 -297.184)" fill="#274c68"/>
            <path id="패스_52157" data-name="패스 52157" d="M237.51,299.179l.131.131-15.819,15.819v-.262Z" transform="translate(-221.822 -297.115)" fill="#294c68"/>
            <path id="패스_52158" data-name="패스 52158" d="M237.641,299.241l.131.131-15.95,15.95v-.262Z" transform="translate(-221.822 -297.047)" fill="#2a4c68"/>
            <path id="패스_52159" data-name="패스 52159" d="M237.772,299.3l.131.131-16.081,16.081v-.262Z" transform="translate(-221.822 -296.979)" fill="#2b4d68"/>
            <path id="패스_52160" data-name="패스 52160" d="M237.9,299.367l.131.131L221.822,315.71v-.262Z" transform="translate(-221.822 -296.91)" fill="#2c4d68"/>
            <path id="패스_52161" data-name="패스 52161" d="M238.034,299.429l.131.131L221.822,315.9v-.262Z" transform="translate(-221.822 -296.842)" fill="#2d4d68"/>
            <path id="패스_52162" data-name="패스 52162" d="M238.165,299.492l.131.131L221.822,316.1v-.262Z" transform="translate(-221.822 -296.773)" fill="#2e4e68"/>
            <path id="패스_52163" data-name="패스 52163" d="M238.3,299.554l.131.131-16.605,16.605v-.262Z" transform="translate(-221.822 -296.705)" fill="#2f4e68"/>
            <path id="패스_52164" data-name="패스 52164" d="M238.427,299.617l.131.131-16.736,16.736v-.262Z" transform="translate(-221.822 -296.637)" fill="#304f68"/>
            <path id="패스_52165" data-name="패스 52165" d="M238.558,299.68l.131.131-16.867,16.867v-.262Z" transform="translate(-221.822 -296.568)" fill="#324f68"/>
            <path id="패스_52166" data-name="패스 52166" d="M238.689,299.742l.131.131-17,17v-.262Z" transform="translate(-221.822 -296.5)" fill="#334f68"/>
            <path id="패스_52167" data-name="패스 52167" d="M238.82,299.8l.131.131-17.129,17.129V316.8Z" transform="translate(-221.822 -296.432)" fill="#345069"/>
            <path id="패스_52168" data-name="패스 52168" d="M238.951,299.868l.131.131-17.26,17.26V317Z" transform="translate(-221.822 -296.363)" fill="#355069"/>
            <path id="패스_52169" data-name="패스 52169" d="M239.082,299.93l.131.131-17.391,17.391v-.262Z" transform="translate(-221.822 -296.295)" fill="#365169"/>
            <path id="패스_52170" data-name="패스 52170" d="M239.213,299.993l.131.131-17.522,17.522v-.262Z" transform="translate(-221.822 -296.227)" fill="#375169"/>
            <path id="패스_52171" data-name="패스 52171" d="M239.344,300.055l.131.131L221.822,317.84v-.262Z" transform="translate(-221.822 -296.158)" fill="#385169"/>
            <path id="패스_52172" data-name="패스 52172" d="M239.475,300.118l.131.131-17.784,17.784v-.262Z" transform="translate(-221.822 -296.09)" fill="#395269"/>
            <path id="패스_52173" data-name="패스 52173" d="M239.606,300.181l.131.131-17.915,17.915v-.262Z" transform="translate(-221.822 -296.022)" fill="#3a5269"/>
            <path id="패스_52174" data-name="패스 52174" d="M239.737,300.243l.131.131-18.046,18.046v-.262Z" transform="translate(-221.822 -295.953)" fill="#3b5369"/>
            <path id="패스_52175" data-name="패스 52175" d="M239.868,300.306l.131.131-18.177,18.177v-.262Z" transform="translate(-221.822 -295.885)" fill="#3c5369"/>
            <path id="패스_52176" data-name="패스 52176" d="M240,300.369l.131.131-18.308,18.308v-.262Z" transform="translate(-221.822 -295.817)" fill="#3d5369"/>
            <path id="패스_52177" data-name="패스 52177" d="M240.13,300.431l.131.131L221.822,319v-.262Z" transform="translate(-221.822 -295.748)" fill="#3e5469"/>
            <path id="패스_52178" data-name="패스 52178" d="M240.261,300.494l.131.131-18.57,18.57v-.262Z" transform="translate(-221.822 -295.68)" fill="#3f5469"/>
            <path id="패스_52179" data-name="패스 52179" d="M240.392,300.557l.131.131-18.7,18.7v-.262Z" transform="translate(-221.822 -295.612)" fill="#3f5569"/>
            <path id="패스_52180" data-name="패스 52180" d="M240.523,300.619l.131.131-18.832,18.832v-.262Z" transform="translate(-221.822 -295.543)" fill="#405569"/>
            <path id="패스_52181" data-name="패스 52181" d="M240.654,300.682l.131.131-18.963,18.963v-.262Z" transform="translate(-221.822 -295.475)" fill="#415569"/>
            <path id="패스_52182" data-name="패스 52182" d="M240.785,300.744l.131.131-19.094,19.094v-.262Z" transform="translate(-221.822 -295.406)" fill="#425669"/>
            <path id="패스_52183" data-name="패스 52183" d="M240.916,300.807l.131.131-19.225,19.225V319.9Z" transform="translate(-221.822 -295.338)" fill="#435669"/>
            <path id="패스_52184" data-name="패스 52184" d="M241.047,300.87l.131.131-19.356,19.356v-.262Z" transform="translate(-221.822 -295.27)" fill="#445769"/>
            <path id="패스_52185" data-name="패스 52185" d="M241.178,300.932l.131.131L221.822,320.55v-.262Z" transform="translate(-221.822 -295.201)" fill="#455769"/>
            <path id="패스_52186" data-name="패스 52186" d="M241.309,300.995l.131.131-19.618,19.618v-.262Z" transform="translate(-221.822 -295.133)" fill="#465769"/>
            <path id="패스_52187" data-name="패스 52187" d="M241.44,301.058l.131.131-19.749,19.749v-.262Z" transform="translate(-221.822 -295.065)" fill="#475869"/>
            <path id="패스_52188" data-name="패스 52188" d="M241.571,301.12l.131.131-19.88,19.88v-.262Z" transform="translate(-221.822 -294.996)" fill="#485869"/>
            <path id="패스_52189" data-name="패스 52189" d="M241.7,301.183l.131.131-20.011,20.011v-.262Z" transform="translate(-221.822 -294.928)" fill="#495969"/>
            <path id="패스_52190" data-name="패스 52190" d="M241.833,301.245l.131.131-20.142,20.142v-.262Z" transform="translate(-221.822 -294.86)" fill="#4a5969"/>
            <path id="패스_52191" data-name="패스 52191" d="M241.964,301.308l.131.131-20.273,20.273v-.262Z" transform="translate(-221.822 -294.791)" fill="#4a5969"/>
            <path id="패스_52192" data-name="패스 52192" d="M242.095,301.371l.131.131-20.4,20.4v-.262Z" transform="translate(-221.822 -294.723)" fill="#4b5a69"/>
            <path id="패스_52193" data-name="패스 52193" d="M242.226,301.433l.131.131L221.822,322.1v-.262Z" transform="translate(-221.822 -294.655)" fill="#4c5a69"/>
            <path id="패스_52194" data-name="패스 52194" d="M242.357,301.5l.131.131-20.666,20.666v-.262Z" transform="translate(-221.822 -294.586)" fill="#4d5b69"/>
            <path id="패스_52195" data-name="패스 52195" d="M242.488,301.559l.131.131-20.8,20.8v-.262Z" transform="translate(-221.822 -294.518)" fill="#4e5b69"/>
            <path id="패스_52196" data-name="패스 52196" d="M242.619,301.621l.131.131L221.822,322.68v-.262Z" transform="translate(-221.822 -294.449)" fill="#4f5c69"/>
            <path id="패스_52197" data-name="패스 52197" d="M242.75,301.684l.131.131-21.059,21.059v-.262Z" transform="translate(-221.822 -294.381)" fill="#505c69"/>
            <path id="패스_52198" data-name="패스 52198" d="M242.881,301.747l.131.131-21.19,21.19v-.262Z" transform="translate(-221.822 -294.313)" fill="#515c69"/>
            <path id="패스_52199" data-name="패스 52199" d="M243.012,301.809l.131.131-21.321,21.321V323Z" transform="translate(-221.822 -294.244)" fill="#525d69"/>
            <path id="패스_52200" data-name="패스 52200" d="M243.143,301.872l.131.131-21.452,21.452v-.262Z" transform="translate(-221.822 -294.176)" fill="#535d6a"/>
            <path id="패스_52201" data-name="패스 52201" d="M243.274,301.935l.131.131-21.583,21.583v-.262Z" transform="translate(-221.822 -294.108)" fill="#545e6a"/>
            <path id="패스_52202" data-name="패스 52202" d="M243.4,302l.131.131-21.714,21.714v-.262Z" transform="translate(-221.822 -294.039)" fill="#545e6a"/>
            <path id="패스_52203" data-name="패스 52203" d="M243.536,302.06l.131.131-21.845,21.845v-.262Z" transform="translate(-221.822 -293.971)" fill="#555e6a"/>
            <path id="패스_52204" data-name="패스 52204" d="M243.667,302.122l.131.131-21.976,21.976v-.262Z" transform="translate(-221.822 -293.903)" fill="#565f6a"/>
            <path id="패스_52205" data-name="패스 52205" d="M243.8,302.185l.131.131-22.107,22.107v-.262Z" transform="translate(-221.822 -293.834)" fill="#575f6a"/>
            <path id="패스_52206" data-name="패스 52206" d="M243.929,302.248l.131.131-22.238,22.238v-.262Z" transform="translate(-221.822 -293.766)" fill="#58606a"/>
            <path id="패스_52207" data-name="패스 52207" d="M244.06,302.31l.131.131L221.822,324.81v-.262Z" transform="translate(-221.822 -293.698)" fill="#59606a"/>
            <path id="패스_52208" data-name="패스 52208" d="M244.191,302.373l.131.131-22.5,22.5v-.262Z" transform="translate(-221.822 -293.629)" fill="#5a616a"/>
            <path id="패스_52209" data-name="패스 52209" d="M244.322,302.436l.131.131L221.822,325.2v-.262Z" transform="translate(-221.822 -293.561)" fill="#5b616a"/>
            <path id="패스_52210" data-name="패스 52210" d="M244.453,302.5l.131.131-22.762,22.762v-.262Z" transform="translate(-221.822 -293.493)" fill="#5c6269"/>
            <path id="패스_52211" data-name="패스 52211" d="M244.584,302.561l.131.131-22.893,22.893v-.262Z" transform="translate(-221.822 -293.424)" fill="#5c6269"/>
            <path id="패스_52212" data-name="패스 52212" d="M244.715,302.623l.131.131-23.024,23.024v-.262Z" transform="translate(-221.822 -293.356)" fill="#5d6269"/>
            <path id="패스_52213" data-name="패스 52213" d="M244.846,302.686l.131.131-23.155,23.155v-.262Z" transform="translate(-221.822 -293.287)" fill="#5e6369"/>
            <path id="패스_52214" data-name="패스 52214" d="M244.977,302.749l.131.131-23.286,23.286V325.9Z" transform="translate(-221.822 -293.219)" fill="#5f6369"/>
            <path id="패스_52215" data-name="패스 52215" d="M245.108,302.811l.131.131-23.417,23.417V326.1Z" transform="translate(-221.822 -293.151)" fill="#606469"/>
            <path id="패스_52216" data-name="패스 52216" d="M245.239,302.874l.131.131-23.548,23.548v-.262Z" transform="translate(-221.822 -293.082)" fill="#616469"/>
            <path id="패스_52217" data-name="패스 52217" d="M245.37,302.937l.131.131-23.679,23.679v-.262Z" transform="translate(-221.822 -293.014)" fill="#626569"/>
            <path id="패스_52218" data-name="패스 52218" d="M245.5,303l.131.131-23.81,23.81v-.262Z" transform="translate(-221.822 -292.946)" fill="#636569"/>
            <path id="패스_52219" data-name="패스 52219" d="M245.632,303.062l.131.131-23.941,23.941v-.262Z" transform="translate(-221.822 -292.877)" fill="#636569"/>
            <path id="패스_52220" data-name="패스 52220" d="M245.763,303.125l.131.131-24.072,24.072v-.262Z" transform="translate(-221.822 -292.809)" fill="#646669"/>
            <path id="패스_52221" data-name="패스 52221" d="M245.894,303.187l.131.131-24.2,24.2v-.262Z" transform="translate(-221.822 -292.741)" fill="#656669"/>
            <path id="패스_52222" data-name="패스 52222" d="M246.025,303.25l.131.131-24.334,24.334v-.262Z" transform="translate(-221.822 -292.672)" fill="#666769"/>
            <path id="패스_52223" data-name="패스 52223" d="M246.156,303.312l.131.131-24.465,24.465v-.262Z" transform="translate(-221.822 -292.604)" fill="#676769"/>
            <path id="패스_52224" data-name="패스 52224" d="M246.287,303.375l.131.131-24.6,24.6v-.262Z" transform="translate(-221.822 -292.535)" fill="#686869"/>
            <path id="패스_52225" data-name="패스 52225" d="M246.418,303.438l.131.131L221.822,328.3v-.262Z" transform="translate(-221.822 -292.467)" fill="#696869"/>
            <path id="패스_52226" data-name="패스 52226" d="M246.548,303.5l.131.131-24.858,24.858v-.262Z" transform="translate(-221.822 -292.399)" fill="#6a6969"/>
            <path id="패스_52227" data-name="패스 52227" d="M246.68,303.563l.131.131-24.989,24.989v-.262Z" transform="translate(-221.822 -292.331)" fill="#6a6969"/>
            <path id="패스_52228" data-name="패스 52228" d="M246.81,303.626l.131.131-25.12,25.12v-.262Z" transform="translate(-221.822 -292.262)" fill="#6b6969"/>
            <path id="패스_52229" data-name="패스 52229" d="M246.941,303.688l.131.131L221.822,329.07v-.262Z" transform="translate(-221.822 -292.194)" fill="#6c6a69"/>
            <path id="패스_52230" data-name="패스 52230" d="M247.072,303.751l.131.131-25.382,25.382V329Z" transform="translate(-221.822 -292.125)" fill="#6d6a69"/>
            <path id="패스_52231" data-name="패스 52231" d="M247.2,303.814l.131.131-25.513,25.513V329.2Z" transform="translate(-221.822 -292.057)" fill="#6e6b69"/>
            <path id="패스_52232" data-name="패스 52232" d="M247.334,303.876l.131.131-25.644,25.644v-.262Z" transform="translate(-221.822 -291.989)" fill="#6f6b69"/>
            <path id="패스_52233" data-name="패스 52233" d="M247.465,303.939l.131.131-25.775,25.775v-.262Z" transform="translate(-221.822 -291.92)" fill="#706c69"/>
            <path id="패스_52234" data-name="패스 52234" d="M247.6,304l.131.131-25.906,25.905v-.262Z" transform="translate(-221.822 -291.852)" fill="#716c69"/>
            <path id="패스_52235" data-name="패스 52235" d="M247.727,304.064l.131.131-26.037,26.036v-.262Z" transform="translate(-221.822 -291.784)" fill="#716c69"/>
            <path id="패스_52236" data-name="패스 52236" d="M247.858,304.127l.131.131-26.168,26.167v-.262Z" transform="translate(-221.822 -291.715)" fill="#726d69"/>
            <path id="패스_52237" data-name="패스 52237" d="M247.989,304.189l.131.131-26.3,26.3v-.262Z" transform="translate(-221.822 -291.647)" fill="#736d68"/>
            <path id="패스_52238" data-name="패스 52238" d="M248.12,304.252l.131.131-26.43,26.429v-.262Z" transform="translate(-221.822 -291.579)" fill="#746e68"/>
            <path id="패스_52239" data-name="패스 52239" d="M248.251,304.315l.131.131-26.561,26.56v-.262Z" transform="translate(-221.822 -291.51)" fill="#756e68"/>
            <path id="패스_52240" data-name="패스 52240" d="M248.382,304.377l.131.131L221.822,331.2v-.262Z" transform="translate(-221.822 -291.442)" fill="#766f68"/>
            <path id="패스_52241" data-name="패스 52241" d="M248.513,304.44l.131.131-26.823,26.822v-.262Z" transform="translate(-221.822 -291.374)" fill="#766f68"/>
            <path id="패스_52242" data-name="패스 52242" d="M248.644,304.5l.131.131-26.954,26.953v-.262Z" transform="translate(-221.822 -291.305)" fill="#776f68"/>
            <path id="패스_52243" data-name="패스 52243" d="M248.775,304.565l.131.131L221.822,331.78v-.262Z" transform="translate(-221.822 -291.237)" fill="#787068"/>
            <path id="패스_52244" data-name="패스 52244" d="M248.906,304.628l.131.131-27.216,27.216v-.262Z" transform="translate(-221.822 -291.168)" fill="#797068"/>
            <path id="패스_52245" data-name="패스 52245" d="M249.037,304.69l.131.131-27.346,27.346v-.262Z" transform="translate(-221.822 -291.1)" fill="#7a7168"/>
            <path id="패스_52246" data-name="패스 52246" d="M249.168,304.753l.131.131-27.478,27.477V332.1Z" transform="translate(-221.822 -291.032)" fill="#7b7168"/>
            <path id="패스_52247" data-name="패스 52247" d="M249.3,304.816l.131.131-27.609,27.608v-.262Z" transform="translate(-221.822 -290.963)" fill="#7b7268"/>
            <path id="패스_52248" data-name="패스 52248" d="M249.43,304.878l.131.131-27.739,27.739v-.262Z" transform="translate(-221.822 -290.895)" fill="#7c7268"/>
            <path id="패스_52249" data-name="패스 52249" d="M249.561,304.941l.131.131-27.87,27.87v-.262Z" transform="translate(-221.822 -290.827)" fill="#7d7368"/>
            <path id="패스_52250" data-name="패스 52250" d="M249.692,305l.131.131-28,28v-.262Z" transform="translate(-221.822 -290.758)" fill="#7e7367"/>
            <path id="패스_52251" data-name="패스 52251" d="M249.823,305.066l.131.131-28.132,28.132v-.262Z" transform="translate(-221.822 -290.69)" fill="#7f7367"/>
            <path id="패스_52252" data-name="패스 52252" d="M249.954,305.129l.131.131-28.263,28.263v-.262Z" transform="translate(-221.822 -290.622)" fill="#807467"/>
            <path id="패스_52253" data-name="패스 52253" d="M250.085,305.191l.131.131-28.394,28.394v-.262Z" transform="translate(-221.822 -290.553)" fill="#807467"/>
            <path id="패스_52254" data-name="패스 52254" d="M250.216,305.254l.131.131L221.822,333.91v-.262Z" transform="translate(-221.822 -290.485)" fill="#817567"/>
            <path id="패스_52255" data-name="패스 52255" d="M250.347,305.317l.131.131L221.822,334.1v-.262Z" transform="translate(-221.822 -290.417)" fill="#827567"/>
            <path id="패스_52256" data-name="패스 52256" d="M250.478,305.379l.131.131L221.822,334.3v-.262Z" transform="translate(-221.822 -290.348)" fill="#837667"/>
            <path id="패스_52257" data-name="패스 52257" d="M250.609,305.442l.131.131-28.918,28.918v-.262Z" transform="translate(-221.822 -290.28)" fill="#847667"/>
            <path id="패스_52258" data-name="패스 52258" d="M250.74,305.5l.131.131-29.049,29.049v-.262Z" transform="translate(-221.822 -290.211)" fill="#857767"/>
            <path id="패스_52259" data-name="패스 52259" d="M250.871,305.567l.131.131-29.18,29.18v-.262Z" transform="translate(-221.822 -290.143)" fill="#857767"/>
            <path id="패스_52260" data-name="패스 52260" d="M251,305.63l.131.131-29.311,29.311v-.262Z" transform="translate(-221.822 -290.075)" fill="#867766"/>
            <path id="패스_52261" data-name="패스 52261" d="M251.133,305.692l.131.131-29.442,29.442V335Z" transform="translate(-221.822 -290.006)" fill="#877866"/>
            <path id="패스_52262" data-name="패스 52262" d="M251.264,305.755l.131.131-29.573,29.573V335.2Z" transform="translate(-221.822 -289.938)" fill="#887866"/>
            <path id="패스_52263" data-name="패스 52263" d="M251.4,305.818l.131.131-29.7,29.7v-.262Z" transform="translate(-221.822 -289.87)" fill="#897966"/>
            <path id="패스_52264" data-name="패스 52264" d="M251.526,305.88l.131.131-29.835,29.835v-.262Z" transform="translate(-221.822 -289.801)" fill="#8a7966"/>
            <path id="패스_52265" data-name="패스 52265" d="M251.657,305.943l.131.131L221.822,336.04v-.262Z" transform="translate(-221.822 -289.733)" fill="#8b7a66"/>
            <path id="패스_52266" data-name="패스 52266" d="M251.788,306.006l.131.131-30.1,30.1v-.262Z" transform="translate(-221.822 -289.665)" fill="#8b7a66"/>
            <path id="패스_52267" data-name="패스 52267" d="M251.919,306.068l.131.131-30.228,30.228v-.262Z" transform="translate(-221.822 -289.596)" fill="#8c7a66"/>
            <path id="패스_52268" data-name="패스 52268" d="M252.05,306.131l.131.131-30.359,30.359v-.262Z" transform="translate(-221.822 -289.528)" fill="#8d7b66"/>
            <path id="패스_52269" data-name="패스 52269" d="M252.181,306.194l.131.131-30.49,30.49v-.262Z" transform="translate(-221.822 -289.46)" fill="#8e7b65"/>
            <path id="패스_52270" data-name="패스 52270" d="M252.312,306.256l.131.131-30.621,30.621v-.262Z" transform="translate(-221.822 -289.391)" fill="#8f7c65"/>
            <path id="패스_52271" data-name="패스 52271" d="M252.443,306.319l.131.131L221.822,337.2v-.262Z" transform="translate(-221.822 -289.323)" fill="#907c65"/>
            <path id="패스_52272" data-name="패스 52272" d="M252.574,306.381l.131.131L221.822,337.4v-.262Z" transform="translate(-221.822 -289.255)" fill="#907d65"/>
            <path id="패스_52273" data-name="패스 52273" d="M252.7,306.444l.131.131-31.014,31.014v-.262Z" transform="translate(-221.822 -289.186)" fill="#917d65"/>
            <path id="패스_52274" data-name="패스 52274" d="M252.836,306.507l.131.131-31.145,31.145v-.262Z" transform="translate(-221.822 -289.118)" fill="#927e65"/>
            <path id="패스_52275" data-name="패스 52275" d="M252.967,306.569l.131.131-31.276,31.276v-.262Z" transform="translate(-221.822 -289.049)" fill="#937e65"/>
            <path id="패스_52276" data-name="패스 52276" d="M253.1,306.632l.131.131L221.822,338.17v-.262Z" transform="translate(-221.822 -288.981)" fill="#947e64"/>
            <path id="패스_52277" data-name="패스 52277" d="M253.229,306.695l.131.131-31.538,31.538V338.1Z" transform="translate(-221.822 -288.913)" fill="#957f64"/>
            <path id="패스_52278" data-name="패스 52278" d="M253.36,306.757l.131.131-31.669,31.669V338.3Z" transform="translate(-221.822 -288.844)" fill="#957f64"/>
            <path id="패스_52279" data-name="패스 52279" d="M253.491,306.82l.131.131-31.8,31.8v-.262Z" transform="translate(-221.822 -288.776)" fill="#968064"/>
            <path id="패스_52280" data-name="패스 52280" d="M253.622,306.883l.131.131-31.931,31.931v-.262Z" transform="translate(-221.822 -288.708)" fill="#978064"/>
            <path id="패스_52281" data-name="패스 52281" d="M253.753,306.945l.131.131-32.062,32.062v-.262Z" transform="translate(-221.822 -288.639)" fill="#988164"/>
            <path id="패스_52282" data-name="패스 52282" d="M253.884,307.008l.131.131-32.169,32.169-.024-.024v-.214Z" transform="translate(-221.822 -288.571)" fill="#998164"/>
            <rect id="사각형_2567" data-name="사각형 2567" width="45.494" height="0.185" transform="translate(0.024 50.737) rotate(-45)" fill="#9a8263"/>
            <rect id="사각형_2568" data-name="사각형 2568" width="45.494" height="0.185" transform="translate(0.155 50.868) rotate(-45)" fill="#9a8263"/>
            <rect id="사각형_2569" data-name="사각형 2569" width="45.494" height="0.185" transform="translate(0.285 50.999) rotate(-45)" fill="#9b8363"/>
            <rect id="사각형_2570" data-name="사각형 2570" width="45.494" height="0.185" transform="translate(0.417 51.13) rotate(-45)" fill="#9c8363"/>
            <rect id="사각형_2571" data-name="사각형 2571" width="45.494" height="0.185" transform="translate(0.547 51.261) rotate(-45)" fill="#9d8363"/>
            <rect id="사각형_2572" data-name="사각형 2572" width="45.494" height="0.185" transform="translate(0.679 51.392) rotate(-45)" fill="#9e8463"/>
            <path id="패스_52283" data-name="패스 52283" d="M254.378,307.446l.006.006v.25L222.34,339.746l-.131-.131Z" transform="translate(-221.4 -288.093)" fill="#9f8462"/>
            <path id="패스_52284" data-name="패스 52284" d="M254.316,307.831,222.4,339.744l-.131-.131,32.044-32.044Z" transform="translate(-221.331 -287.959)" fill="#9f8562"/>
            <path id="패스_52285" data-name="패스 52285" d="M254.248,307.956l-31.782,31.782-.131-.131,31.913-31.913Z" transform="translate(-221.263 -287.822)" fill="#a08562"/>
            <path id="패스_52286" data-name="패스 52286" d="M254.179,308.081l-31.651,31.651-.131-.131,31.782-31.782Z" transform="translate(-221.195 -287.686)" fill="#a18662"/>
            <path id="패스_52287" data-name="패스 52287" d="M254.111,308.206l-31.52,31.52-.131-.131,31.651-31.651Z" transform="translate(-221.126 -287.549)" fill="#a28662"/>
            <path id="패스_52288" data-name="패스 52288" d="M254.043,308.332l-31.389,31.389-.131-.131,31.52-31.52Z" transform="translate(-221.058 -287.412)" fill="#a38762"/>
            <path id="패스_52289" data-name="패스 52289" d="M253.974,308.457l-31.258,31.258-.131-.131,31.389-31.389Z" transform="translate(-220.989 -287.275)" fill="#a48761"/>
            <path id="패스_52290" data-name="패스 52290" d="M253.906,308.582l-31.127,31.127-.131-.131,31.258-31.258Z" transform="translate(-220.921 -287.139)" fill="#a58861"/>
            <path id="패스_52291" data-name="패스 52291" d="M253.838,308.707l-31,31-.131-.131,31.127-31.127Z" transform="translate(-220.853 -287.002)" fill="#a58861"/>
            <path id="패스_52292" data-name="패스 52292" d="M253.769,308.833,222.9,339.7l-.131-.131,31-31Z" transform="translate(-220.784 -286.865)" fill="#a68861"/>
            <path id="패스_52293" data-name="패스 52293" d="M253.7,308.958l-30.734,30.734-.131-.131L253.7,308.7Z" transform="translate(-220.716 -286.729)" fill="#a78961"/>
            <path id="패스_52294" data-name="패스 52294" d="M253.632,309.083l-30.6,30.6-.131-.131,30.734-30.734Z" transform="translate(-220.648 -286.592)" fill="#a88960"/>
            <path id="패스_52295" data-name="패스 52295" d="M253.564,309.208l-30.359,30.358h-.228l-.017-.017,30.6-30.6Z" transform="translate(-220.579 -286.455)" fill="#a98a60"/>
            <path id="패스_52296" data-name="패스 52296" d="M253.436,309.334l-30.1,30.1h-.262l30.359-30.359Z" transform="translate(-220.452 -286.319)" fill="#aa8a60"/>
            <path id="패스_52297" data-name="패스 52297" d="M253.3,309.459l-29.835,29.835H223.2l30.1-30.1Z" transform="translate(-220.315 -286.182)" fill="#aa8b60"/>
            <path id="패스_52298" data-name="패스 52298" d="M253.163,309.584,223.59,339.157h-.262l29.835-29.835Z" transform="translate(-220.178 -286.045)" fill="#ab8b60"/>
            <path id="패스_52299" data-name="패스 52299" d="M253.026,309.71,223.715,339.02h-.262l29.573-29.573Z" transform="translate(-220.041 -285.908)" fill="#ac8c5f"/>
            <path id="패스_52300" data-name="패스 52300" d="M252.889,309.835l-29.049,29.049h-.262l29.311-29.311Z" transform="translate(-219.905 -285.772)" fill="#ad8c5f"/>
            <path id="패스_52301" data-name="패스 52301" d="M252.753,309.96l-28.787,28.787H223.7L252.753,309.7Z" transform="translate(-219.768 -285.635)" fill="#ae8d5f"/>
            <path id="패스_52302" data-name="패스 52302" d="M252.616,310.085,224.091,338.61h-.262l28.787-28.787Z" transform="translate(-219.631 -285.498)" fill="#ae8d5f"/>
            <path id="패스_52303" data-name="패스 52303" d="M252.479,310.211l-28.263,28.263h-.262l28.525-28.525Z" transform="translate(-219.495 -285.362)" fill="#af8d5f"/>
            <path id="패스_52304" data-name="패스 52304" d="M252.343,310.336l-28,28h-.262l28.263-28.263Z" transform="translate(-219.358 -285.225)" fill="#b08e5e"/>
            <path id="패스_52305" data-name="패스 52305" d="M252.206,310.461,224.467,338.2h-.262l28-28Z" transform="translate(-219.221 -285.088)" fill="#b18e5e"/>
            <path id="패스_52306" data-name="패스 52306" d="M252.069,310.586l-27.477,27.477h-.262l27.739-27.739Z" transform="translate(-219.084 -284.951)" fill="#b28f5e"/>
            <path id="패스_52307" data-name="패스 52307" d="M251.933,310.712l-27.215,27.215h-.262l27.477-27.477Z" transform="translate(-218.948 -284.815)" fill="#b38f5e"/>
            <path id="패스_52308" data-name="패스 52308" d="M251.8,310.837,224.843,337.79h-.262L251.8,310.575Z" transform="translate(-218.811 -284.678)" fill="#b3905d"/>
            <path id="패스_52309" data-name="패스 52309" d="M251.659,310.962l-26.691,26.691h-.262L251.659,310.7Z" transform="translate(-218.674 -284.541)" fill="#b4905d"/>
            <path id="패스_52310" data-name="패스 52310" d="M251.522,311.087l-26.429,26.429h-.262l26.691-26.691Z" transform="translate(-218.538 -284.405)" fill="#b5915d"/>
            <path id="패스_52311" data-name="패스 52311" d="M251.386,311.213,225.219,337.38h-.262l26.429-26.429Z" transform="translate(-218.401 -284.268)" fill="#b6915d"/>
            <path id="패스_52312" data-name="패스 52312" d="M251.249,311.338l-25.905,25.9h-.262l26.167-26.167Z" transform="translate(-218.264 -284.131)" fill="#b7925c"/>
            <path id="패스_52313" data-name="패스 52313" d="M251.112,311.463l-25.643,25.643h-.262l25.905-25.9Z" transform="translate(-218.128 -283.994)" fill="#b8925c"/>
            <path id="패스_52314" data-name="패스 52314" d="M250.976,311.588l-25.381,25.381h-.262l25.643-25.643Z" transform="translate(-217.991 -283.858)" fill="#b8935c"/>
            <path id="패스_52315" data-name="패스 52315" d="M250.839,311.714,225.72,336.833h-.262l25.381-25.381Z" transform="translate(-217.854 -283.721)" fill="#b9935c"/>
            <path id="패스_52316" data-name="패스 52316" d="M250.7,311.839,225.845,336.7h-.262L250.7,311.577Z" transform="translate(-217.717 -283.584)" fill="#ba935b"/>
            <path id="패스_52317" data-name="패스 52317" d="M250.565,311.964l-24.6,24.595h-.262L250.565,311.7Z" transform="translate(-217.581 -283.448)" fill="#bb945b"/>
            <path id="패스_52318" data-name="패스 52318" d="M250.429,312.09,226.1,336.423h-.262l24.6-24.595Z" transform="translate(-217.444 -283.311)" fill="#bc945b"/>
            <path id="패스_52319" data-name="패스 52319" d="M250.292,312.215l-24.071,24.071h-.262l24.333-24.333Z" transform="translate(-217.307 -283.174)" fill="#bd955b"/>
            <path id="패스_52320" data-name="패스 52320" d="M250.155,312.34l-23.809,23.809h-.262l24.071-24.071Z" transform="translate(-217.17 -283.038)" fill="#be955a"/>
            <path id="패스_52321" data-name="패스 52321" d="M250.019,312.465l-23.547,23.547h-.262L250.019,312.2Z" transform="translate(-217.034 -282.901)" fill="#be965a"/>
            <path id="패스_52322" data-name="패스 52322" d="M249.882,312.591,226.6,335.876h-.262l23.547-23.547Z" transform="translate(-216.897 -282.764)" fill="#bf965a"/>
            <path id="패스_52323" data-name="패스 52323" d="M249.745,312.716l-23.023,23.023h-.262l23.285-23.285Z" transform="translate(-216.76 -282.627)" fill="#c09759"/>
            <path id="패스_52324" data-name="패스 52324" d="M249.608,312.841,226.847,335.6h-.262l23.023-23.023Z" transform="translate(-216.624 -282.491)" fill="#c19759"/>
            <path id="패스_52325" data-name="패스 52325" d="M249.472,312.966l-22.5,22.5h-.262L249.472,312.7Z" transform="translate(-216.487 -282.354)" fill="#c29859"/>
            <path id="패스_52326" data-name="패스 52326" d="M249.335,313.092,227.1,335.329h-.262l22.5-22.5Z" transform="translate(-216.35 -282.217)" fill="#c39858"/>
            <path id="패스_52327" data-name="패스 52327" d="M249.2,313.217l-21.975,21.975h-.262L249.2,312.955Z" transform="translate(-216.214 -282.08)" fill="#c39858"/>
            <path id="패스_52328" data-name="패스 52328" d="M249.062,313.342l-21.713,21.713h-.262l21.975-21.975Z" transform="translate(-216.077 -281.944)" fill="#c49958"/>
            <path id="패스_52329" data-name="패스 52329" d="M227.211,334.919l21.713-21.713v21.713Z" transform="translate(-215.94 -281.807)" fill="#c49958"/>
          </g>
        </g>
      </g>
    </g>
    <g id="그룹_6910" data-name="그룹 6910" transform="translate(32.573 20.78)">
      <path id="패스_52331" data-name="패스 52331" d="M178.038,402.5v-6.908c46.986,0,69.826-28.474,69.826-87.046,0-29.174,5.563-49.795,32.719-55.6l3.009-.644.983,2.92c.088.261,8.426,26.278-23.823,41.078l-2.878-6.276c20.474-9.4,21.484-23.293,20.773-29.475-19.866,5.776-23.879,22.156-23.879,48C254.77,370.887,228.952,402.5,178.038,402.5Z" transform="translate(-178.038 -252.299)" fill="url(#linear-gradient)"/>
    </g>
    <g id="그룹_6911" data-name="그룹 6911" transform="translate(64.33 82.079)">
      <path id="패스_52332" data-name="패스 52332" d="M214.327,323.82a21.1,21.1,0,1,1,21.1-21.1A21.126,21.126,0,0,1,214.327,323.82Zm0-35.3a14.2,14.2,0,1,0,14.2,14.2A14.214,14.214,0,0,0,214.327,288.518Z" transform="translate(-193.223 -281.61)" fill="#004266"/>
    </g>
    <g id="그룹_6912" data-name="그룹 6912" transform="translate(74.894 153.87)">
      <line id="선_362" data-name="선 362" y1="0.258" x2="0.314" fill="none"/>
    </g>
    <g id="그룹_6913" data-name="그룹 6913" transform="translate(0 48.392)">
      <path id="패스_52333" data-name="패스 52333" d="M170.847,293.734a8.067,8.067,0,0,0,9.752,1.318l8.888,8.89V337.69h4.145V302.225l-10.047-10.047a8.1,8.1,0,0,0-1.192-9.99,8.364,8.364,0,0,0-11.546,0,8.167,8.167,0,0,0,0,11.546Zm2.932-8.616a4.019,4.019,0,1,1,5.682,5.686,4.116,4.116,0,0,1-5.682,0,4.021,4.021,0,0,1,0-5.686Z" transform="translate(-155.921 -249.816)" fill="#cd953e"/>
      <path id="패스_52334" data-name="패스 52334" d="M178.792,303.394a8.111,8.111,0,0,0-2.392-5.772,8.362,8.362,0,0,0-11.546,0,8.137,8.137,0,0,0,9.635,12.927l28.267,28.266,2.93-2.928-28.158-28.16A8.086,8.086,0,0,0,178.792,303.394Zm-5.325,2.844a4.118,4.118,0,0,1-5.682,0,4.019,4.019,0,1,1,5.682,0Z" transform="translate(-162.463 -232.973)" fill="#004266"/>
      <path id="패스_52335" data-name="패스 52335" d="M244.5,318.171a8.107,8.107,0,0,0-13.562,3.445H190.96l0,4.143,39.821,0a8.121,8.121,0,0,0,7.943,6.347,8.36,8.36,0,0,0,8.165-8.163A8.109,8.109,0,0,0,244.5,318.171Zm-2.932,8.616a4.021,4.021,0,0,1-6.862-2.844,4.118,4.118,0,0,1,4.02-4.017,4.019,4.019,0,0,1,2.842,6.862Z" transform="translate(-131.365 -210.631)" fill="#004266"/>
      <path id="패스_52336" data-name="패스 52336" d="M184.648,267.888a8.157,8.157,0,0,0,4.2,13.778v48.39H193V281.371a8.129,8.129,0,0,0,3.2-13.483A8.178,8.178,0,0,0,184.648,267.888Zm8.614,8.614h0a4.019,4.019,0,1,1,1.177-2.842A4.021,4.021,0,0,1,193.263,276.5Z" transform="translate(-140.86 -265.502)" fill="#004266"/>
      <path id="패스_52337" data-name="패스 52337" d="M197.319,292.572l6.136-6.136a8.057,8.057,0,0,0,9.38-1.518h0a8.159,8.159,0,0,0,0-11.544,8.36,8.36,0,0,0-11.546,0,8.158,8.158,0,0,0-.983,10.35l-7.132,7.134v32.9h4.145Zm6.9-16.269a4.019,4.019,0,0,1,5.682,5.684h0a4.112,4.112,0,0,1-5.682,0,4.019,4.019,0,0,1,0-5.684Z" transform="translate(-128.946 -259.437)" fill="#004266"/>
      <rect id="사각형_2573" data-name="사각형 2573" width="4.146" height="9.046" transform="translate(5.22 25.737) rotate(-45)" fill="#cd953e"/>
      <rect id="사각형_2574" data-name="사각형 2574" width="4.145" height="9.046" transform="translate(18.372 18.423)" fill="#cd953e"/>
      <rect id="사각형_2575" data-name="사각형 2575" width="9.045" height="4.145" transform="translate(0.946 35.655)" fill="#cd953e"/>
      <rect id="사각형_2576" data-name="사각형 2576" width="9.046" height="4.146" transform="translate(26.851 29.041) rotate(-45)" fill="#cd953e"/>
      <rect id="사각형_2577" data-name="사각형 2577" width="9.046" height="4.146" transform="translate(5.327 50.585) rotate(-45)" fill="#cd953e"/>
    </g>
    <g id="그룹_6914" data-name="그룹 6914" transform="translate(33.539 109.158)">
      <path id="패스_52338" data-name="패스 52338" d="M205.673,348.908a27.175,27.175,0,1,1,27.175-27.175A27.2,27.2,0,0,1,205.673,348.908Zm0-47.44a20.266,20.266,0,1,0,20.269,20.265A20.29,20.29,0,0,0,205.673,301.468Z" transform="translate(-178.5 -294.558)" fill="#004266"/>
    </g>
  </g>
</svg>
