<svg xmlns="http://www.w3.org/2000/svg" xmlns:xlink="http://www.w3.org/1999/xlink" width="221.148" height="161.498" viewBox="0 0 221.148 161.498"><defs><linearGradient id="a" x1="0.5" y1="-1.517" x2="0.5" y2="1.762" gradientUnits="objectBoundingBox"><stop offset="0" stop-color="#56b5a5"/><stop offset="1" stop-color="#ba8644"/></linearGradient><linearGradient id="d" x1="0.5" y1="-0.115" x2="0.5" y2="1.895" xlink:href="#a"/><linearGradient id="e" x1="0.5" y1="-0.613" x2="0.5" y2="3.619" xlink:href="#a"/><linearGradient id="f" x1="0.5" y1="-3.254" x2="0.5" y2="1.519" xlink:href="#a"/><linearGradient id="g" x1="0.5" y1="-16.258" x2="0.5" y2="3.202" xlink:href="#a"/><linearGradient id="h" x1="0.5" y1="-4.999" x2="0.5" y2="1.057" xlink:href="#a"/><linearGradient id="i" x1="0.5" y1="-5.533" x2="0.5" y2="0.523" xlink:href="#a"/><linearGradient id="j" x1="0.5" y1="-9.132" x2="0.5" y2="7.441" xlink:href="#a"/><linearGradient id="k" x1="0.5" y1="-1.076" x2="0.5" y2="5.529" xlink:href="#a"/><linearGradient id="l" x1="0.5" y1="-2.104" x2="0.5" y2="6.001" xlink:href="#a"/><linearGradient id="m" x1="0.5" y1="-3.901" x2="0.5" y2="6.828" xlink:href="#a"/><linearGradient id="o" x1="0.5" y1="-5.254" x2="0.5" y2="3.38" xlink:href="#a"/></defs><g transform="translate(-1018.601 -45.24)" style="mix-blend-mode:multiply;isolation:isolate"><g transform="translate(1018.601 109.308)"><path d="M1054.725,132.088h-12.01c-14.372,0-24.113-10.5-24.113-24.112,0-13.712,10.308-24.115,24.113-24.115h17.873l-.095,8.134h-17.778c-9.361,0-15.885,6.619-15.885,15.982s6.525,15.98,15.885,15.98h12.01c3.593,0,5.863-2.175,5.863-5.957,0-3.688-2.269-5.957-5.863-5.957h-10.97v-8.134h10.97a14.09,14.09,0,1,1,0,28.18Z" transform="translate(-1018.601 -83.861)" fill="url(#a)"/></g><g transform="translate(1044.793 109.308)"><path d="M1102.426,91.995h-33.949a5.958,5.958,0,0,0,0,11.914h21.088a14.09,14.09,0,1,1,0,28.18H1034.39v-8.132h55.175a5.562,5.562,0,0,0,5.958-5.957c0-3.688-2.271-5.957-5.958-5.957h-21.088a14.091,14.091,0,0,1,0-28.181h33.949Z" transform="translate(-1034.39 -83.861)" fill="url(#a)"/></g><path d="M1148.736,132.088V119.323h-31.962v12.765h-8.133V107.882c0-13.807,10.214-24.021,24.115-24.021,13.805,0,24.114,9.93,24.114,24.021v24.206Zm0-20.9v-3.309c0-9.268-6.808-15.887-15.98-15.887-9.457,0-15.982,6.43-15.982,15.887v3.309Z" transform="translate(59.326 25.447)" fill="url(#a)"/><g transform="translate(1035.441 45.24)"><g transform="translate(29.461)"><path d="M1054.637,123.881h-8.125V88.594c0-19.031,9.069-29.588,16.677-35.094,12.135-8.78,27.106-9.671,35.882-6.782l2.649.873.138,2.785c.042.841.876,20.764-11.952,34.244-7.444,7.822-17.816,11.788-30.831,11.788V88.283c10.68,0,19.059-3.1,24.907-9.223,7.818-8.183,9.4-19.9,9.7-25.325-7.2-1.256-17.5.393-25.733,6.347-6.075,4.4-13.316,12.909-13.316,28.511Z" transform="translate(-1046.512 -45.24)" fill="url(#d)"/></g><g transform="translate(0 13.82)"><path d="M1056.651,90.933a27.836,27.836,0,0,1-19.407-8.49c-7.055-7.054-10.018-16.727-7.732-25.243l.607-2.263,2.264-.607c8.515-2.286,18.188.677,25.243,7.73s10.015,16.727,7.73,25.243l-.607,2.264-2.264.607A22.526,22.526,0,0,1,1056.651,90.933Zm-19.713-29.177c-.413,5.075,1.815,10.706,6.05,14.942s9.865,6.463,14.942,6.048c.413-5.075-1.815-10.706-6.05-14.942S1042.013,61.34,1036.938,61.756Z" transform="translate(-1028.752 -53.57)" fill="url(#e)"/></g></g><g transform="translate(1168.012 143.956)"><path d="M1126.977,137.873l-18.309-18.309v-12.78l8.126-2.036V116.2l15.929,15.93Z" transform="translate(-1108.668 -104.747)" fill="url(#f)"/></g><g transform="translate(1139.19 154.24)"><rect width="42.745" height="8.125" transform="translate(0 30.46) rotate(-45.446)" fill="url(#g)"/></g><g transform="translate(1179.027 166.677)"><path d="M1128.364,144.553a13.055,13.055,0,1,1,13.054-13.055A13.069,13.069,0,0,1,1128.364,144.553Zm0-17.984a4.929,4.929,0,1,0,4.929,4.929A4.935,4.935,0,0,0,1128.364,126.569Z" transform="translate(-1115.308 -118.444)" fill="url(#h)"/></g><g transform="translate(1123.684 180.627)"><path d="M1095,152.964a13.055,13.055,0,1,1,13.055-13.055A13.071,13.071,0,0,1,1095,152.964Zm0-17.986a4.93,4.93,0,1,0,4.93,4.93A4.935,4.935,0,0,0,1095,134.978Z" transform="translate(-1081.946 -126.853)" fill="url(#i)"/></g><path d="M1129.834,97.053a4.771,4.771,0,1,1-4.771-4.769A4.771,4.771,0,0,1,1129.834,97.053Z" transform="translate(67.003 30.997)" fill="url(#j)"/><path d="M1183.611,79.227a63.458,63.458,0,0,0-82.788-.9l-5.763-5.761a71.586,71.586,0,0,1,94.311.9Z" transform="translate(50.378 6.621)" fill="url(#k)"/><path d="M1168.449,84.012a48.138,48.138,0,0,0-61.077-.9l-5.778-5.778a56.313,56.313,0,0,1,72.636.894Z" transform="translate(54.683 12.692)" fill="url(#l)"/><path d="M1152.12,89.155a31.708,31.708,0,0,0-37.649-.818l-5.812-5.813a39.529,39.529,0,0,1,24.069-8.107,40.024,40.024,0,0,1,25.178,8.953Z" transform="translate(59.338 19.225)" fill="url(#m)"/><path d="M1130.939,106.971a14.424,14.424,0,0,0-8.975-3.062h-21.088a5.958,5.958,0,0,1,0-11.914h35.28a34,34,0,0,1,7.4-8.134h-42.683a14.091,14.091,0,0,0,0,28.181h21.088c3.688,0,5.957,2.269,5.957,5.957a5.56,5.56,0,0,1-5.957,5.957h-60.12v8.132h60.12a14.046,14.046,0,0,0,12.277-7,30.439,30.439,0,0,1-3.3-18.122Z" transform="translate(28.493 25.447)" fill="url(#a)"/><path d="M1103.526,97.764a34.722,34.722,0,0,0-.449,3.49,33.745,33.745,0,0,0,3.738,14.824,14.435,14.435,0,0,0,1.893-7.239A13.918,13.918,0,0,0,1103.526,97.764Z" transform="translate(55.84 34.607)" fill="url(#o)"/></g></svg>