<svg xmlns="http://www.w3.org/2000/svg" xmlns:xlink="http://www.w3.org/1999/xlink" width="1636.949" height="390.336" viewBox="0 0 1636.949 390.336">
  <defs>
    <linearGradient id="linear-gradient" x1="0.5" y1="0.378" x2="0.5" y2="0.634" gradientUnits="objectBoundingBox">
      <stop offset="0" stop-color="#0a3650"/>
      <stop offset="1" stop-color="#b68248"/>
    </linearGradient>
    <linearGradient id="linear-gradient-2" x1="0.696" y1="0.412" x2="0.94" y2="0.176" xlink:href="#linear-gradient"/>
    <linearGradient id="linear-gradient-3" x1="0.5" y1="0.143" x2="0.5" y2="0.638" xlink:href="#linear-gradient"/>
  </defs>
  <g id="그룹_7415" data-name="그룹 7415" transform="translate(-71.784 -211.513)">
    <g id="그룹_7399" data-name="그룹 7399" transform="translate(735.079 382.309)">
      <g id="그룹_7364" data-name="그룹 7364" transform="translate(598.976)">
        <g id="그룹_7363" data-name="그룹 7363">
          <path id="패스_54129" data-name="패스 54129" d="M687.382,495.3H626.594V434.216H610V406.783h44.028v61.09h33.355c38.085,0,63.67-35.667,63.67-68.98V311.771H734.306V284.338h44.178V398.894C778.485,445.26,743.657,495.3,687.382,495.3Z" transform="translate(-609.999 -284.338)" fill="#0a3650"/>
        </g>
      </g>
      <g id="그룹_7366" data-name="그룹 7366" transform="translate(293.258)">
        <g id="그룹_7365" data-name="그룹 7365">
          <path id="패스_54130" data-name="패스 54130" d="M492.826,484.773l-13.181-24.056c21.138-11.586,35.344-36.432,35.344-61.824V311.771H498.243V284.338h44.178V398.894C542.421,434,522.494,468.516,492.826,484.773Z" transform="translate(-479.645 -284.338)" fill="#0a3650"/>
        </g>
      </g>
      <g id="그룹_7368" data-name="그룹 7368" transform="translate(3.579)">
        <g id="그룹_7367" data-name="그룹 7367">
          <path id="패스_54131" data-name="패스 54131" d="M364.711,402.845l-8.581-26.051c49.526-16.321,64.969-47.159,69.777-65.023h-12.69V284.338h42.142l.152,13.57C455.542,300.957,455.284,373,364.711,402.845Z" transform="translate(-356.13 -284.338)" fill="#0a3650"/>
        </g>
      </g>
      <g id="그룹_7370" data-name="그룹 7370" transform="translate(75.527 13.57)">
        <g id="그룹_7369" data-name="그룹 7369">
          <path id="패스_54132" data-name="패스 54132" d="M477.611,395.062c-90.575-29.844-90.833-101.889-90.8-104.938l27.433.3-13.715-.148,13.715.047c.012,2.247,1.065,55.332,71.951,78.692Z" transform="translate(-386.808 -290.124)" fill="#0a3650"/>
        </g>
      </g>
      <g id="그룹_7372" data-name="그룹 7372" transform="translate(0 134.536)">
        <g id="그룹_7371" data-name="그룹 7371">
          <rect id="사각형_2733" data-name="사각형 2733" width="178.49" height="27.432" fill="#0a3650"/>
        </g>
      </g>
      <g id="그룹_7374" data-name="그룹 7374" transform="translate(798.736)">
        <g id="그룹_7373" data-name="그룹 7373">
          <path id="패스_54133" data-name="패스 54133" d="M703.755,402.845l-8.581-26.051c49.54-16.323,64.969-47.159,69.777-65.023H752.263V284.338h42.143l.152,13.565C794.588,300.957,794.335,373,703.755,402.845Z" transform="translate(-695.174 -284.338)" fill="#0a3650"/>
        </g>
      </g>
      <g id="그룹_7376" data-name="그룹 7376" transform="translate(870.686 13.57)">
        <g id="그룹_7375" data-name="그룹 7375">
          <path id="패스_54134" data-name="패스 54134" d="M816.661,395.062c-90.58-29.844-90.838-101.889-90.807-104.938l27.433.3-13.718-.148,13.718.047c.012,2.247,1.065,55.332,71.956,78.692Z" transform="translate(-725.853 -290.124)" fill="#0a3650"/>
        </g>
      </g>
      <g id="그룹_7378" data-name="그룹 7378" transform="translate(795.158 134.536)">
        <g id="그룹_7377" data-name="그룹 7377">
          <rect id="사각형_2734" data-name="사각형 2734" width="178.496" height="27.432" fill="#0a3650"/>
        </g>
      </g>
      <g id="그룹_7380" data-name="그룹 7380" transform="translate(384.298 134.536)">
        <g id="그룹_7379" data-name="그룹 7379">
          <rect id="사각형_2735" data-name="사각형 2735" width="178.496" height="27.432" fill="#0a3650"/>
        </g>
      </g>
      <g id="그룹_7382" data-name="그룹 7382" transform="translate(184.569 0.001)">
        <g id="그룹_7381" data-name="그룹 7381">
          <path id="패스_54135" data-name="패스 54135" d="M549.525,398.892H522.093V311.77H433.3V284.338H549.525Z" transform="translate(-433.302 -284.338)" fill="#0a3650"/>
        </g>
      </g>
      <g id="그룹_7384" data-name="그룹 7384" transform="translate(200.246 13.718)">
        <g id="그룹_7383" data-name="그룹 7383">
          <path id="패스_54136" data-name="패스 54136" d="M439.986,391.607V290.187h27.431v72.265c16.464-2.064,39.37-6.937,50.1-16.842l18.61,20.148C511.595,388.422,460,390.891,454.191,391.1Z" transform="translate(-439.986 -290.187)" fill="#0a3650"/>
        </g>
      </g>
      <g id="그룹_7386" data-name="그룹 7386" transform="translate(582.924)">
        <g id="그룹_7385" data-name="그룹 7385">
          <path id="패스_54137" data-name="패스 54137" d="M618.829,399.475v-87.7H603.155V284.338h43.106v85.983c16.462-2.064,39.378-6.937,50.1-16.844l18.612,20.155c-24.534,22.658-76.135,25.127-81.937,25.336Z" transform="translate(-603.155 -284.338)" fill="#0a3650"/>
        </g>
      </g>
      <g id="그룹_7388" data-name="그룹 7388" transform="translate(391.323 0.001)">
        <g id="그룹_7387" data-name="그룹 7387">
          <rect id="사각형_2736" data-name="사각형 2736" width="146.83" height="27.432" fill="#0a3650"/>
        </g>
      </g>
      <g id="그룹_7390" data-name="그룹 7390" transform="translate(406.997 13.718)">
        <g id="그룹_7389" data-name="그룹 7389">
          <path id="패스_54138" data-name="패스 54138" d="M552.366,391.267c-5.462,0-9.323-.11-10.981-.167l-13.244-.455V290.187h27.433V363.8c29.473-.324,80.84-4.25,101.511-20.4l16.886,21.617C643.678,388.694,579.03,391.267,552.366,391.267Z" transform="translate(-528.142 -290.187)" fill="#0a3650"/>
        </g>
      </g>
      <g id="그룹_7392" data-name="그룹 7392" transform="translate(420.714 42.705)">
        <g id="그룹_7391" data-name="그룹 7391">
          <rect id="사각형_2737" data-name="사각형 2737" width="86.259" height="27.432" fill="#0a3650"/>
        </g>
      </g>
      <g id="그룹_7394" data-name="그룹 7394" transform="translate(605.863 34.171)">
        <g id="그룹_7393" data-name="그룹 7393">
          <rect id="사각형_2738" data-name="사각형 2738" width="86.259" height="27.432" fill="#0a3650"/>
        </g>
      </g>
      <g id="그룹_7396" data-name="그룹 7396" transform="translate(671.721 0.575)">
        <g id="그룹_7395" data-name="그룹 7395">
          <rect id="사각형_2739" data-name="사각형 2739" width="27.432" height="113.857" fill="#0a3650"/>
        </g>
      </g>
      <g id="그룹_7398" data-name="그룹 7398" transform="translate(340.365 42.705)">
        <g id="그룹_7397" data-name="그룹 7397">
          <rect id="사각형_2740" data-name="사각형 2740" width="41.576" height="27.432" fill="#0a3650"/>
        </g>
      </g>
    </g>
    <g id="그룹_7400" data-name="그룹 7400" transform="translate(136.401 564.747)">
      <path id="패스_54139" data-name="패스 54139" d="M103.968,367.086l3.293,12.658c.72,2.781,1.391,5.354,1.853,7.927h.155c.565-2.521,1.391-5.2,2.214-7.873l4.064-12.711h3.809l3.86,12.456c.926,2.983,1.646,5.608,2.212,8.129h.155a74.713,74.713,0,0,1,1.9-8.08l3.548-12.505h4.48l-8.028,24.907h-4.118l-3.809-11.886a83.021,83.021,0,0,1-2.212-8.185h-.1a73.382,73.382,0,0,1-2.263,8.234l-4.015,11.837H106.85l-7.514-24.907Z" transform="translate(-99.336 -355.456)" fill="#8b8985"/>
      <path id="패스_54140" data-name="패스 54140" d="M120.375,367.086l3.293,12.658c.72,2.781,1.391,5.354,1.853,7.927h.155c.565-2.521,1.388-5.2,2.212-7.873l4.067-12.711h3.809l3.858,12.456c.926,2.983,1.646,5.608,2.214,8.129h.155a74.154,74.154,0,0,1,1.9-8.08l3.548-12.505h4.477l-8.026,24.907h-4.118l-3.809-11.886a83.029,83.029,0,0,1-2.212-8.185h-.1a73.376,73.376,0,0,1-2.263,8.234l-4.015,11.837h-4.116l-7.514-24.907Z" transform="translate(-77.264 -355.456)" fill="#8b8985"/>
      <path id="패스_54141" data-name="패스 54141" d="M136.78,367.086l3.3,12.658c.72,2.781,1.391,5.354,1.853,7.927h.155c.565-2.521,1.388-5.2,2.212-7.873l4.064-12.711h3.809l3.86,12.456c.926,2.983,1.646,5.608,2.212,8.129h.155a75.273,75.273,0,0,1,1.9-8.08l3.551-12.505h4.477L160.3,391.993h-4.116l-3.809-11.886a83.029,83.029,0,0,1-2.212-8.185h-.1a73.877,73.877,0,0,1-2.266,8.234l-4.013,11.837h-4.118l-7.512-24.907Z" transform="translate(-55.192 -355.456)" fill="#8b8985"/>
      <path id="패스_54142" data-name="패스 54142" d="M148.185,378.424a3.041,3.041,0,0,1,3.086-3.241,3.247,3.247,0,1,1-3.086,3.241Z" transform="translate(-33.62 -344.563)" fill="#8b8985"/>
      <path id="패스_54143" data-name="패스 54143" d="M153.572,387.685a11.872,11.872,0,0,0,5.969,1.8c3.3,0,4.838-1.646,4.838-3.706,0-2.16-1.288-3.344-4.632-4.578-4.477-1.6-6.586-4.067-6.586-7.05,0-4.015,3.241-7.308,8.593-7.308a12.431,12.431,0,0,1,6.124,1.543l-1.133,3.293a9.7,9.7,0,0,0-5.094-1.44c-2.676,0-4.17,1.543-4.17,3.4,0,2.059,1.494,2.986,4.735,4.219,4.322,1.646,6.536,3.809,6.536,7.514,0,4.374-3.4,7.463-9.315,7.463a14.172,14.172,0,0,1-7-1.7Z" transform="translate(-27.897 -355.78)" fill="#8b8985"/>
      <path id="패스_54144" data-name="패스 54144" d="M161.988,374.153c0-2.575-.049-4.684-.2-6.743h3.961l.206,4.015h.152a8.585,8.585,0,0,1,7.824-4.58,7.365,7.365,0,0,1,7.05,4.991h.1a10.257,10.257,0,0,1,2.779-3.241,8.49,8.49,0,0,1,5.5-1.75c3.3,0,8.183,2.162,8.183,10.8v14.667h-4.426v-14.1c0-4.787-1.75-7.667-5.4-7.667a5.863,5.863,0,0,0-5.352,4.116,7.51,7.51,0,0,0-.359,2.266v15.385h-4.428V377.394c0-3.963-1.747-6.844-5.195-6.844-2.831,0-4.89,2.263-5.61,4.526a6.241,6.241,0,0,0-.361,2.214v15.026h-4.426Z" transform="translate(-15.325 -355.78)" fill="#8b8985"/>
      <path id="패스_54145" data-name="패스 54145" d="M195.077,392.317l-.361-3.14h-.155a9.272,9.272,0,0,1-7.615,3.706c-5.042,0-7.615-3.548-7.615-7.153,0-6.02,5.35-9.313,14.975-9.262v-.516c0-2.057-.568-5.762-5.662-5.762a12.422,12.422,0,0,0-6.485,1.85l-1.027-2.983a15.46,15.46,0,0,1,8.18-2.212c7.615,0,9.468,5.195,9.468,10.19v9.313a34.979,34.979,0,0,0,.413,5.969Zm-.668-12.711c-4.942-.1-10.551.772-10.551,5.61a4.009,4.009,0,0,0,4.271,4.325,6.2,6.2,0,0,0,6.023-4.17,4.709,4.709,0,0,0,.258-1.44Z" transform="translate(8.28 -355.78)" fill="#8b8985"/>
      <path id="패스_54146" data-name="패스 54146" d="M190.855,375.18c0-2.934-.052-5.455-.206-7.77h3.964l.155,4.89h.2c1.133-3.347,3.86-5.455,6.9-5.455a4.879,4.879,0,0,1,1.285.152v4.271a6.921,6.921,0,0,0-1.543-.152c-3.192,0-5.455,2.418-6.072,5.816a12.667,12.667,0,0,0-.206,2.108v13.277h-4.477Z" transform="translate(23.506 -355.78)" fill="#8b8985"/>
      <path id="패스_54147" data-name="패스 54147" d="M205.514,364.036v7.153H212v3.45h-6.485v13.429c0,3.089.875,4.838,3.4,4.838a10.037,10.037,0,0,0,2.624-.31l.206,3.4a11.1,11.1,0,0,1-4.013.619,6.268,6.268,0,0,1-4.89-1.907c-1.285-1.337-1.75-3.548-1.75-6.482V374.639h-3.86v-3.45h3.86V365.22Z" transform="translate(32.357 -359.559)" fill="#8b8985"/>
      <path id="패스_54148" data-name="패스 54148" d="M205.608,398.664c.1-1.7.2-4.219.2-6.433v-30.1h4.477v15.645h.1a9.275,9.275,0,0,1,8.492-4.58c6.175,0,10.549,5.146,10.5,12.712,0,8.9-5.61,13.326-11.168,13.326a8.873,8.873,0,0,1-8.335-4.681h-.155l-.206,4.116Zm4.681-9.984a8.453,8.453,0,0,0,.206,1.646,6.988,6.988,0,0,0,6.794,5.3c4.733,0,7.564-3.858,7.564-9.571,0-4.991-2.573-9.261-7.411-9.261a7.219,7.219,0,0,0-6.9,5.556,8.921,8.921,0,0,0-.258,1.853Z" transform="translate(43.631 -362.127)" fill="#8b8985"/>
      <path id="패스_54149" data-name="패스 54149" d="M221.73,380.687c.1,6.124,4.015,8.647,8.544,8.647a16.382,16.382,0,0,0,6.9-1.287l.772,3.244a20.221,20.221,0,0,1-8.286,1.543c-7.667,0-12.247-5.045-12.247-12.559s4.426-13.429,11.682-13.429c8.131,0,10.291,7.153,10.291,11.733a17.019,17.019,0,0,1-.155,2.108Zm13.277-3.241c.052-2.882-1.182-7.359-6.278-7.359-4.58,0-6.586,4.219-6.947,7.359Z" transform="translate(59.505 -355.78)" fill="#8b8985"/>
      <path id="패스_54150" data-name="패스 54150" d="M244.08,392.317l-.361-3.14h-.155a9.273,9.273,0,0,1-7.615,3.706c-5.042,0-7.617-3.548-7.617-7.153,0-6.02,5.352-9.313,14.977-9.262v-.516c0-2.057-.568-5.762-5.662-5.762a12.423,12.423,0,0,0-6.485,1.85l-1.027-2.983a15.46,15.46,0,0,1,8.18-2.212c7.615,0,9.468,5.195,9.468,10.19v9.313a34.979,34.979,0,0,0,.413,5.969Zm-.668-12.711c-4.942-.1-10.552.772-10.552,5.61a4.009,4.009,0,0,0,4.271,4.325,6.2,6.2,0,0,0,6.023-4.17,4.71,4.71,0,0,0,.258-1.44Z" transform="translate(74.2 -355.78)" fill="#8b8985"/>
      <path id="패스_54151" data-name="패스 54151" d="M239.854,374.153c0-2.575-.049-4.684-.2-6.743h4.013l.258,4.118h.1a9.153,9.153,0,0,1,8.232-4.684c3.45,0,8.8,2.059,8.8,10.6v14.871h-4.529V377.959c0-4.013-1.494-7.359-5.765-7.359a6.435,6.435,0,0,0-6.072,4.632,6.51,6.51,0,0,0-.31,2.111v14.975h-4.529Z" transform="translate(89.427 -355.78)" fill="#8b8985"/>
      <path id="패스_54152" data-name="패스 54152" d="M252.3,387.685a11.874,11.874,0,0,0,5.971,1.8c3.293,0,4.836-1.646,4.836-3.706,0-2.16-1.285-3.344-4.63-4.578-4.477-1.6-6.588-4.067-6.588-7.05,0-4.015,3.241-7.308,8.593-7.308a12.448,12.448,0,0,1,6.126,1.543l-1.133,3.293a9.7,9.7,0,0,0-5.1-1.44c-2.674,0-4.168,1.543-4.168,3.4,0,2.059,1.494,2.986,4.735,4.219,4.322,1.646,6.536,3.809,6.536,7.514,0,4.374-3.4,7.463-9.315,7.463a14.172,14.172,0,0,1-7-1.7Z" transform="translate(104.918 -355.78)" fill="#8b8985"/>
      <path id="패스_54153" data-name="패스 54153" d="M259.895,378.424a3.041,3.041,0,0,1,3.086-3.241,3.247,3.247,0,1,1-3.086,3.241Z" transform="translate(116.662 -344.563)" fill="#8b8985"/>
      <path id="패스_54154" data-name="패스 54154" d="M283.683,391.363a16.692,16.692,0,0,1-7.153,1.442c-7.514,0-12.4-5.1-12.4-12.711,0-7.669,5.249-13.227,13.378-13.227a15.155,15.155,0,0,1,6.281,1.288l-1.03,3.5a10.514,10.514,0,0,0-5.251-1.184c-5.711,0-8.8,4.221-8.8,9.419,0,5.765,3.706,9.316,8.645,9.316a12.883,12.883,0,0,0,5.558-1.236Z" transform="translate(122.357 -355.752)" fill="#8b8985"/>
      <path id="패스_54155" data-name="패스 54155" d="M298.165,379.66c0,9.21-6.382,13.223-12.4,13.223-6.743,0-11.94-4.939-11.94-12.815,0-8.333,5.455-13.223,12.35-13.223C293.326,366.845,298.165,372.04,298.165,379.66Zm-19.761.256c0,5.455,3.138,9.571,7.564,9.571,4.325,0,7.566-4.064,7.566-9.674,0-4.219-2.111-9.571-7.463-9.571S278.4,375.18,278.4,379.915Z" transform="translate(135.4 -355.78)" fill="#8b8985"/>
      <path id="패스_54156" data-name="패스 54156" d="M285.646,378.424a3.041,3.041,0,0,1,3.086-3.241,3.247,3.247,0,1,1-3.086,3.241Z" transform="translate(151.305 -344.563)" fill="#8b8985"/>
      <path id="패스_54157" data-name="패스 54157" d="M295.124,385.181h.1c.617-.875,1.492-1.956,2.212-2.831l7.308-8.593H310.2L300.579,384l10.962,14.667h-5.507l-8.6-11.94-2.315,2.575v9.365h-4.477V362.127h4.477Z" transform="translate(158.033 -362.127)" fill="#8b8985"/>
      <path id="패스_54158" data-name="패스 54158" d="M301.425,375.18c0-2.934-.052-5.455-.206-7.77h3.964l.155,4.89h.2c1.133-3.347,3.86-5.455,6.9-5.455a4.9,4.9,0,0,1,1.287.152v4.271a6.935,6.935,0,0,0-1.543-.152c-3.192,0-5.455,2.418-6.072,5.816a12.677,12.677,0,0,0-.206,2.108v13.277h-4.477Z" transform="translate(172.255 -355.78)" fill="#8b8985"/>
    </g>
    <g id="그룹_7401" data-name="그룹 7401" transform="translate(199.548 211.513)">
      <path id="패스_54159" data-name="패스 54159" d="M213.609,350.049l-13.558-.755c3.846-69.242-16.061-110.139-59.186-121.69-7.355,50.086,28.552,78.119,54.12,84.172l-3.126,13.218c-31.708-7.512-76.865-43.2-63.034-107.018l1.4-6.464,6.5,1.231C174.872,219.965,219.186,249.65,213.609,350.049Z" transform="translate(-126.261 -211.513)" fill="#0a3650"/>
    </g>
    <g id="그룹_7402" data-name="그룹 7402" transform="translate(506.72 389)">
      <path id="패스_54160" data-name="패스 54160" d="M308.172,351.944h13.893V319.507a31,31,0,0,0-2.528-12.636,32.648,32.648,0,0,0-6.9-10.286,34.21,34.21,0,0,0-10.277-6.919,33.272,33.272,0,0,0-25.181,0,35.708,35.708,0,0,0-10.427,6.919,32.764,32.764,0,0,0-7,10.286,32.713,32.713,0,0,0,0,25.153,33.01,33.01,0,0,0,7,10.432,33.481,33.481,0,0,0,10.427,6.961,30.858,30.858,0,0,0,12.54,2.528ZM275.8,333.428a19.343,19.343,0,0,1-4.189-6.283,19.956,19.956,0,0,1,0-15.277A20.207,20.207,0,0,1,275.8,305.7a19.325,19.325,0,0,1,6.248-4.222,21.584,21.584,0,0,1,7.671-1.454,21.079,21.079,0,0,1,7.639,1.454,18.316,18.316,0,0,1,6.295,4.222,20.685,20.685,0,0,1,4.205,6.166,19.933,19.933,0,0,1,1.522,7.639v19.639H289.717a20.031,20.031,0,0,1-7.671-1.527A18.912,18.912,0,0,1,275.8,333.428Z" transform="translate(-257.235 -287.191)" fill="#0a3650"/>
    </g>
    <g id="그룹_7403" data-name="그룹 7403" transform="translate(463.044 480.729)">
      <path id="패스_54161" data-name="패스 54161" d="M294.012,335.694a34.209,34.209,0,0,0-10.277-6.919,33.3,33.3,0,0,0-25.181,0,35.707,35.707,0,0,0-10.427,6.919,32.774,32.774,0,0,0-7,10.289,32.707,32.707,0,0,0,0,25.151,33.009,33.009,0,0,0,7,10.432,33.442,33.442,0,0,0,10.427,6.961,30.829,30.829,0,0,0,12.54,2.528H303.44V358.619a30.95,30.95,0,0,0-2.528-12.636A32.612,32.612,0,0,0,294.012,335.694Zm-3.258,42.565H271.094a20.077,20.077,0,0,1-7.672-1.527,18.919,18.919,0,0,1-6.248-4.193,19.334,19.334,0,0,1-4.189-6.281,19.957,19.957,0,0,1,0-15.277,20.18,20.18,0,0,1,4.189-6.166,19.292,19.292,0,0,1,6.248-4.224,21.584,21.584,0,0,1,7.672-1.454,21.078,21.078,0,0,1,7.639,1.454,18.287,18.287,0,0,1,6.295,4.224,20.655,20.655,0,0,1,4.205,6.166,19.926,19.926,0,0,1,1.522,7.639Z" transform="translate(-238.612 -326.303)" fill="#b68248"/>
    </g>
    <g id="그룹_7404" data-name="그룹 7404" transform="translate(380.267 389.122)">
      <path id="패스_54162" data-name="패스 54162" d="M295.409,301.57a20.059,20.059,0,0,1,6.187,4.189,18.854,18.854,0,0,1,4.184,6.339,19.356,19.356,0,0,1,1.5,7.6v32.339h13.049V319.695a31.193,31.193,0,0,0-2.542-12.517,31.938,31.938,0,0,0-7.019-10.437,33.316,33.316,0,0,0-10.4-7,32.241,32.241,0,0,0-12.55-2.5,30.831,30.831,0,0,0-14.811,3.544,31.636,31.636,0,0,0-11.164,9.611,32.165,32.165,0,0,0-26-13.155,31.96,31.96,0,0,0-12.636,2.5,32.888,32.888,0,0,0-10.305,7,32.756,32.756,0,0,0-9.595,22.953v32.339h12.878V319.695a20.1,20.1,0,0,1,5.7-13.936,19.451,19.451,0,0,1,13.957-5.708,19.129,19.129,0,0,1,7.545,1.52,20.009,20.009,0,0,1,6.224,4.189,20.328,20.328,0,0,1,5.727,13.936v32.339h12.857V319.695a19.551,19.551,0,0,1,1.482-7.6,18.125,18.125,0,0,1,4.243-6.339,19.361,19.361,0,0,1,13.891-5.708A19.343,19.343,0,0,1,295.409,301.57Z" transform="translate(-203.317 -287.243)" fill="#0a3650"/>
    </g>
    <g id="그룹_7405" data-name="그룹 7405" transform="translate(581.352 389)">
      <path id="패스_54163" data-name="패스 54163" d="M328.017,300.027V287.191h-6.511a31.6,31.6,0,0,0-12.58,2.474,35.084,35.084,0,0,0-10.354,6.919,33.369,33.369,0,0,0-7.045,10.286,32.309,32.309,0,0,0-2.47,12.636v32.438H302.04V319.507a19.667,19.667,0,0,1,1.515-7.639,20.391,20.391,0,0,1,4.151-6.166,19.939,19.939,0,0,1,6.245-4.222,20.332,20.332,0,0,1,7.554-1.454Z" transform="translate(-289.057 -287.191)" fill="#0a3650"/>
    </g>
    <g id="그룹_7406" data-name="그룹 7406" transform="translate(627.751 369.912)">
      <path id="패스_54164" data-name="패스 54164" d="M318.356,353.5a35.091,35.091,0,0,0,10.354,6.921,31.648,31.648,0,0,0,12.58,2.472h6.51V350.058h-6.51a20.272,20.272,0,0,1-7.552-1.454,19.947,19.947,0,0,1-6.248-4.222,20.384,20.384,0,0,1-4.149-6.166,19.62,19.62,0,0,1-1.517-7.639v-19.33H340.28V298.262H321.825v-19.21H308.841v51.526a32.35,32.35,0,0,0,2.47,12.636A33.366,33.366,0,0,0,318.356,353.5Z" transform="translate(-308.841 -279.052)" fill="#0a3650"/>
    </g>
    <g id="그룹_7407" data-name="그룹 7407" transform="translate(610.556 478.222)">
      <path id="패스_54165" data-name="패스 54165" d="M358.326,351.206H320.991a6.493,6.493,0,0,1,0-12.986h36.579V325.234H320.991a19.479,19.479,0,1,0,0,38.958h37.335a6.492,6.492,0,1,1,0,12.984H321.744v12.986h36.582a19.478,19.478,0,1,0,0-38.955Z" transform="translate(-301.509 -325.234)" fill="#b68248"/>
    </g>
    <g id="그룹_7408" data-name="그룹 7408" transform="translate(538.072 475.553)">
      <path id="패스_54166" data-name="패스 54166" d="M302.994,324.1A32.427,32.427,0,0,0,270.6,356.484v37.539h12.988V356.484a19.4,19.4,0,1,1,38.8,0v37.539h12.991V356.484A32.427,32.427,0,0,0,302.994,324.1Z" transform="translate(-270.603 -324.096)" fill="#b68248"/>
    </g>
    <g id="그룹_7409" data-name="그룹 7409" transform="translate(389.719 480.729)">
      <path id="패스_54167" data-name="패스 54167" d="M259.145,357.716c.009.274.038.539.038.821a18.887,18.887,0,0,1-1.522,7.639,20.209,20.209,0,0,1-4.189,6.166,19.325,19.325,0,0,1-6.248,4.221,21.532,21.532,0,0,1-7.672,1.454,21.028,21.028,0,0,1-7.639-1.454,18.322,18.322,0,0,1-2.463-1.306,17.779,17.779,0,0,1-3.544-2.718,19.328,19.328,0,0,1-4.186-6.281,19.928,19.928,0,0,1,0-15.277,20.173,20.173,0,0,1,4.186-6.166,19.327,19.327,0,0,1,6.25-4.224,21.571,21.571,0,0,1,7.669-1.454,21.059,21.059,0,0,1,7.639,1.454c.251.1.45.256.692.366l-27.635,27.635,9.184,9.182,27.735-27.735.016.031,9.353-9.353a31.442,31.442,0,0,0-4.064-5.021,34.209,34.209,0,0,0-10.277-6.919,33.307,33.307,0,0,0-25.184,0,35.7,35.7,0,0,0-10.425,6.919,32.773,32.773,0,0,0-7,10.289,32.707,32.707,0,0,0,0,25.151,33.235,33.235,0,0,0,2.8,5.216l-.091.089a31.461,31.461,0,0,0,4.067,5.021,34.217,34.217,0,0,0,10.277,6.921,33.3,33.3,0,0,0,25.181,0,35.686,35.686,0,0,0,10.427-6.921,32.765,32.765,0,0,0,7-10.286,32.245,32.245,0,0,0,2.514-12.636c0-.277-.035-.546-.042-.821Z" transform="translate(-207.347 -326.303)" fill="#b68248"/>
    </g>
    <path id="패스_54168" data-name="패스 54168" d="M200.143,378.85V352.17h23.894a19.479,19.479,0,1,0,0-38.958H186.7a6.492,6.492,0,0,1,0-12.984h36.582V287.243H186.7a19.478,19.478,0,1,0,0,38.955h37.337a6.492,6.492,0,0,1,0,12.984H187.455v72.1a30.966,30.966,0,0,0,2.528,12.636,32.622,32.622,0,0,0,6.9,10.286,34.178,34.178,0,0,0,10.275,6.921,33.307,33.307,0,0,0,25.184,0,35.676,35.676,0,0,0,10.425-6.921,32.738,32.738,0,0,0,7-10.286,32.235,32.235,0,0,0,2.514-12.789l-.007-.009a32.418,32.418,0,0,0-2.507-12.355,33.01,33.01,0,0,0-7-10.432,33.4,33.4,0,0,0-10.425-6.958,30.837,30.837,0,0,0-12.54-2.528H200.143m0,12.8H219.8a20.04,20.04,0,0,1,7.671,1.527,18.943,18.943,0,0,1,6.248,4.193,19.347,19.347,0,0,1,4.189,6.281,19.044,19.044,0,0,1,1.513,7.477c0,.054.007.108.007.162a18.925,18.925,0,0,1-1.52,7.639,20.251,20.251,0,0,1-4.189,6.166,19.4,19.4,0,0,1-6.248,4.224,21.6,21.6,0,0,1-7.671,1.454,21.061,21.061,0,0,1-7.639-1.454,18.333,18.333,0,0,1-6.295-4.224,20.736,20.736,0,0,1-4.207-6.166,19.967,19.967,0,0,1-1.52-7.639V391.646" transform="translate(128.389 101.879)" fill="url(#linear-gradient)"/>
    <g id="그룹_7410" data-name="그룹 7410" transform="translate(135.822 252.368)">
      <path id="패스_54169" data-name="패스 54169" d="M99.089,524.224V510.642c92.374,0,137.277-55.977,137.277-171.133,0-57.356,10.938-97.9,64.329-109.309l5.917-1.266,1.932,5.739c.174.514,16.565,51.664-46.835,80.762l-5.661-12.343c40.255-18.474,42.241-45.792,40.843-57.947-39.056,11.358-46.948,43.559-46.948,94.365C249.943,462.076,199.188,524.224,99.089,524.224Z" transform="translate(-99.089 -228.933)" fill="url(#linear-gradient-2)"/>
    </g>
    <g id="그룹_7411" data-name="그룹 7411" transform="translate(198.256 372.883)">
      <path id="패스_54170" data-name="패스 54170" d="M167.2,363.3a41.493,41.493,0,1,1,41.486-41.493A41.537,41.537,0,0,1,167.2,363.3Zm0-69.4a27.911,27.911,0,1,0,27.909,27.911A27.946,27.946,0,0,0,167.2,293.9Z" transform="translate(-125.71 -280.319)" fill="#0a3650"/>
    </g>
    <g id="그룹_7412" data-name="그룹 7412" transform="translate(219.027 514.024)">
      <line id="선_373" data-name="선 373" y1="0.508" x2="0.616" fill="none"/>
    </g>
    <g id="그룹_7413" data-name="그룹 7413" transform="translate(71.784 306.653)">
      <path id="패스_54171" data-name="패스 54171" d="M86.994,304.523a15.85,15.85,0,0,0,19.17,2.592l17.475,17.477v66.351h8.15V321.217l-19.754-19.754a15.927,15.927,0,0,0-2.341-19.639,16.444,16.444,0,0,0-22.7,0,16.049,16.049,0,0,0,0,22.7Zm5.765-16.938a7.9,7.9,0,1,1,11.171,11.178,8.1,8.1,0,0,1-11.171,0,7.9,7.9,0,0,1,0-11.18Z" transform="translate(-57.648 -218.18)" fill="#c37c2f"/>
      <path id="패스_54172" data-name="패스 54172" d="M103.886,320.231a15.93,15.93,0,0,0-4.7-11.347,16.435,16.435,0,0,0-22.7,0A16,16,0,0,0,95.425,334.3L151,389.87l5.765-5.758L101.4,328.752A15.936,15.936,0,0,0,103.886,320.231Zm-10.465,5.591a8.1,8.1,0,0,1-11.173,0,7.9,7.9,0,1,1,11.173,0Z" transform="translate(-71.784 -181.781)" fill="#0a3650"/>
      <path id="패스_54173" data-name="패스 54173" d="M227,344.926a15.937,15.937,0,0,0-26.664,6.773l-78.591,0,0,8.148,78.29,0a15.969,15.969,0,0,0,15.617,12.479A16.434,16.434,0,0,0,231.7,356.277,15.946,15.946,0,0,0,227,344.926Zm-5.762,16.938a7.9,7.9,0,0,1-13.49-5.591,8.1,8.1,0,0,1,7.9-7.9,7.9,7.9,0,0,1,5.591,13.49Z" transform="translate(-4.58 -133.5)" fill="#0a3650"/>
      <path id="패스_54174" data-name="패스 54174" d="M111.189,256.769a16.038,16.038,0,0,0,8.258,27.09v95.132h8.148V283.278a15.984,15.984,0,0,0,6.292-26.509A16.077,16.077,0,0,0,111.189,256.769ZM128.125,273.7v0a7.9,7.9,0,1,1,2.315-5.589A7.907,7.907,0,0,1,128.125,273.707Z" transform="translate(-25.098 -252.079)" fill="#0a3650"/>
      <path id="패스_54175" data-name="패스 54175" d="M133.775,304.117l12.062-12.066a15.841,15.841,0,0,0,18.441-2.983h0a16.043,16.043,0,0,0,0-22.7,16.439,16.439,0,0,0-22.7,0,16.028,16.028,0,0,0-1.933,20.348l-14.02,14.025v64.69h8.15Zm13.567-31.987A7.9,7.9,0,1,1,158.513,283.3v0a8.083,8.083,0,0,1-11.171,0,7.9,7.9,0,0,1,0-11.175Z" transform="translate(0.648 -238.971)" fill="#0a3650"/>
      <rect id="사각형_2741" data-name="사각형 2741" width="8.151" height="17.784" transform="translate(10.264 50.601) rotate(-45)" fill="#c37c2f"/>
      <rect id="사각형_2742" data-name="사각형 2742" width="8.15" height="17.785" transform="translate(36.121 36.222)" fill="#c37c2f"/>
      <rect id="사각형_2743" data-name="사각형 2743" width="17.782" height="8.15" transform="translate(1.861 70.1)" fill="#c37c2f"/>
      <rect id="사각형_2744" data-name="사각형 2744" width="17.784" height="8.151" transform="translate(52.79 57.097) rotate(-45.001)" fill="#c37c2f"/>
      <rect id="사각형_2745" data-name="사각형 2745" width="17.784" height="8.151" transform="translate(10.474 99.452) rotate(-45)" fill="#c37c2f"/>
    </g>
    <g id="그룹_7414" data-name="그룹 7414" transform="translate(137.722 426.121)">
      <path id="패스_54176" data-name="패스 54176" d="M153.322,409.87a53.426,53.426,0,1,1,53.426-53.426A53.484,53.484,0,0,1,153.322,409.87Zm0-93.27a39.844,39.844,0,1,0,39.849,39.844A39.891,39.891,0,0,0,153.322,316.6Z" transform="translate(-99.899 -303.019)" fill="#0a3650"/>
    </g>
    <rect id="사각형_2746" data-name="사각형 2746" width="12.688" height="72.103" transform="translate(315.844 441.061)" fill="url(#linear-gradient-3)"/>
  </g>
</svg>
