<svg xmlns="http://www.w3.org/2000/svg" width="106" height="77.408" viewBox="0 0 106 77.408"><g transform="translate(0 30.709)"><path d="M1035.916,106.977h-5.757A11.165,11.165,0,0,1,1018.6,95.42a11.3,11.3,0,0,1,11.558-11.559h8.567l-.045,3.9h-8.522a7.66,7.66,0,0,0,0,15.32h5.757a2.856,2.856,0,0,0,0-5.711h-5.258v-3.9h5.258a6.753,6.753,0,1,1,0,13.507Z" transform="translate(-1018.601 -83.861)" fill="#2c2c2c"/></g><g transform="translate(12.554 30.709)"><path d="M1067,87.76h-16.272a2.856,2.856,0,0,0,0,5.711h10.108a6.753,6.753,0,1,1,0,13.507H1034.39v-3.9h26.446a2.855,2.855,0,1,0,0-5.711h-10.108a6.754,6.754,0,0,1,0-13.508H1067Z" transform="translate(-1034.39 -83.861)" fill="#2c2c2c"/></g><path d="M1127.859,106.977v-6.119h-15.32v6.119h-3.9v-11.6a11.558,11.558,0,0,1,23.117,0v11.6Zm0-10.016V95.374a7.393,7.393,0,0,0-7.659-7.615,7.268,7.268,0,0,0-7.66,7.615v1.586Z" transform="translate(-1037.048 -53.152)" fill="#2c2c2c"/><g transform="translate(8.072 0)"><g transform="translate(14.121)"><path d="M1050.406,82.934h-3.895V66.02c0-9.122,4.347-14.182,7.993-16.821,5.816-4.209,12.992-4.636,17.2-3.25l1.27.418.066,1.335c.02.4.42,9.953-5.729,16.414-3.568,3.749-8.54,5.65-14.778,5.65V65.871c5.119,0,9.135-1.488,11.938-4.421,3.748-3.922,4.508-9.538,4.652-12.138a17.136,17.136,0,0,0-12.334,3.042c-2.912,2.107-6.382,6.188-6.382,13.666Z" transform="translate(-1046.512 -45.24)" fill="#2c2c2c"/></g><g transform="translate(0 6.624)"><path d="M1042.124,71.479a13.343,13.343,0,0,1-9.3-4.069,12.724,12.724,0,0,1-3.706-12.1l.291-1.085,1.085-.291a13.489,13.489,0,0,1,15.8,15.8l-.291,1.085-1.085.291A10.8,10.8,0,0,1,1042.124,71.479Zm-9.448-13.985a9.9,9.9,0,0,0,10.062,10.061,9.9,9.9,0,0,0-10.062-10.061Z" transform="translate(-1028.752 -53.57)" fill="#2c2c2c"/></g></g><g transform="translate(71.615 47.316)"><path d="M1117.443,120.625l-8.776-8.776v-6.126l3.895-.976v5.488l7.635,7.635Z" transform="translate(-1108.668 -104.747)" fill="#2c2c2c"/></g><g transform="translate(57.8 52.245)"><rect width="20.488" height="3.894" transform="translate(0 14.6) rotate(-45.446)" fill="#2c2c2c"/></g><g transform="translate(76.894 58.207)"><path d="M1121.566,130.959a6.257,6.257,0,1,1,6.257-6.258A6.264,6.264,0,0,1,1121.566,130.959Zm0-8.62a2.363,2.363,0,1,0,2.362,2.362A2.365,2.365,0,0,0,1121.566,122.339Z" transform="translate(-1115.308 -118.444)" fill="#2c2c2c"/></g><g transform="translate(50.367 64.893)"><path d="M1088.2,139.368a6.258,6.258,0,1,1,6.257-6.258A6.265,6.265,0,0,1,1088.2,139.368Zm0-8.621a2.363,2.363,0,1,0,2.363,2.363A2.366,2.366,0,0,0,1088.2,130.748Z" transform="translate(-1081.946 -126.853)" fill="#2c2c2c"/></g><path d="M1124.866,94.57a2.287,2.287,0,1,1-2.287-2.286A2.287,2.287,0,0,1,1124.866,94.57Z" transform="translate(-1039.435 -54.878)" fill="#2c2c2c"/><path d="M1137.5,66.762a30.416,30.416,0,0,0-39.682-.429l-2.762-2.761a34.312,34.312,0,0,1,45.2.429Z" transform="translate(-1034.265 -47.298)" fill="#2c2c2c"/><path d="M1133.638,73.854a23.073,23.073,0,0,0-29.275-.429l-2.77-2.769a26.992,26.992,0,0,1,34.815.429Z" transform="translate(-1035.604 -49.186)" fill="#2c2c2c"/><path d="M1129.49,81.481a15.2,15.2,0,0,0-18.046-.392l-2.786-2.786a18.948,18.948,0,0,1,11.537-3.886,19.184,19.184,0,0,1,12.068,4.291Z" transform="translate(-1037.051 -51.217)" fill="#2c2c2c"/><path d="M1094.931,94.916a6.805,6.805,0,0,0-4.27-1.446h-10.108a2.856,2.856,0,0,1,0-5.711h16.91a16.293,16.293,0,0,1,3.549-3.9h-20.459a6.754,6.754,0,0,0,0,13.508h10.108a2.855,2.855,0,0,1,0,5.711h-28.816v3.9h28.816a6.611,6.611,0,0,0,5.847-3.283,16.127,16.127,0,0,1-1.661-7.117A16.454,16.454,0,0,1,1094.931,94.916Z" transform="translate(-1027.46 -53.152)" fill="#2c2c2c"/><path d="M1103.434,97.764a16.453,16.453,0,0,0-.084,1.661,16.121,16.121,0,0,0,1.661,7.117,6.921,6.921,0,0,0,.907-3.47A6.672,6.672,0,0,0,1103.434,97.764Z" transform="translate(-1035.964 -56)" fill="#2c2c2c"/></svg>